/* XPM */
static char *_7271_ff93de5aa5b281cf44ec9de38bfc62a54c9146b2f5b7b7483532a44a52704746[] = {
/* columns rows colors chars-per-pixel */
"128 128 73 1 ",
"  c black",
". c gray10",
"X c #1B1B1B",
"o c gray11",
"O c #1D1D1D",
"+ c #1E1E1E",
"@ c #202020",
"# c gray13",
"$ c #232323",
"% c gray14",
"& c gray15",
"* c #282828",
"= c gray16",
"- c gray17",
"; c #2C2C2C",
": c #2D2D2D",
"> c #2F2F2F",
", c gray19",
"< c #313131",
"1 c #323232",
"2 c gray20",
"3 c #373232",
"4 c #3B3131",
"5 c #3F3030",
"6 c #432F2F",
"7 c #472E2E",
"8 c #4B2D2D",
"9 c #4F2C2C",
"0 c #532B2B",
"q c #572A2A",
"w c #5B2929",
"e c #5F2828",
"r c #632727",
"t c #672626",
"y c #6B2525",
"u c #6F2424",
"i c #732323",
"p c #772222",
"a c #7B2121",
"s c #7F2020",
"d c #831F1F",
"f c #871E1E",
"g c #8B1D1D",
"h c #8F1C1C",
"j c #931B1B",
"k c #971A1A",
"l c #9B1919",
"z c #9F1818",
"x c #A31717",
"c c #A71616",
"v c #AB1515",
"b c #AF1414",
"n c #B31313",
"m c #B71212",
"M c #BB1111",
"N c #BF1010",
"B c #C30F0F",
"V c #C70E0E",
"C c #CB0D0D",
"Z c #CF0C0C",
"A c #D30B0B",
"S c #D70A0A",
"D c #DB0909",
"F c #DF0808",
"G c #E30707",
"H c #E70606",
"J c #EB0505",
"K c #EF0404",
"L c #F30303",
"P c #F70202",
"I c #FB0101",
"U c red",
"Y c #FF0500",
/* pixels */
"                                                                                                                                ",
"                                                                                                                                ",
"                                                                                                                                ",
"                                                                                                                                ",
"                                                                                                                                ",
"                                                                                                                                ",
"                                                                                                                                ",
"                                                                                                                                ",
"                                                                                                                                ",
"                                X                                                                                               ",
"                                                                                                                                ",
"                                                                                                                                ",
"                                                                                                                                ",
"                                                                                                                                ",
"                                                                                                                                ",
"                                                                XXX  .                                                          ",
"                                                                XXX  .                                                          ",
"                                                    OOo+@@@@@oo@+++@$$ooXX                                                      ",
"                                                 + $@@$+&&&&&%%****$%&%%$$OO.X                                                  ",
"                                               @@$o&***&-------=====-----=&&$%#++.                                              ",
"                                        @@  .oo$$&&=--==;;-1111<<<<-;:111<-->:&$$@  ...                                         ",
"                                        @@  .oo$$&&=--==;;-1111<<<<-;:111<-->:&$$@  ...                                         ",
"                                      @@$$##O@=,,,=-::;,332277722222223322331<=&&$&@@@@.                                        ",
"                                    X.$$$*%%*-2,,112<<3255477777777334889966971<<:*=$$$@                                        ",
"                                   X@$***;>>-;3668347768qq00rrr9999000000q99q0311>>=&&*$                                        ",
"                                   X@$***;>>-;3668347768qq00rrr9999000000q99q0311>>=&&*$                                        ",
"                             ..  ##&=*---1223396680q99q0eewttttttttqwweer0qqrw0774<<::-*OO                                      ",
"                             ..@$&&=:1<<<455559qq9qrqqrettruuuuyuuurttttyerryrq99551,,:-##+.                                    ",
"                            +$$*=;;:154437776qtwwteyrrytuuyppiiiittueeiiityyityrr078<<,:&&$@o                                   ",
"                          .$=::,111258776000wutiiupuaapsiisssssaaiiyuypppuiipyuttqe9221,**&%$++                                 ",
"                          .$=::,111258776000wutiiupuaapsiisssssaaiiyuypppuiipyuttqe9221,**&%$++                                 ",
"                        ##=2466787788q00rwyytisppdafddsdssgfjfffdaaiytddsippsiiyyurq4421--=**&&@                                ",
"                       &228tttteewwwwtwwypiiafdhhgjgffjgffzzclllkddgsiggfgggsdpsspye6653;;-==**$X                X              ",
"                      &6ttdkhssiiyyyyuyyisffdhljjlkzzzczzzcnMbbbzkkhffhhhhjjfgaddpdtee0544:;-**$+                               ",
"                      &6ttdkhssiiyyyyuyyisffdhljjlkzzzczzzcnMbbbzkkhffhhhhjjfgaddpdtee0544:;-**$+                               ",
"                    XX;8iikvkffaiiipryiisfjjlczccxcxvvvnnnbBNMMnnzzkgggggzzzhhjggdpdtteq664>;==%@oo                             ",
"                    @@-4ttdkhddppppsyiuufdggklcvvmnMnnMmBBNVZZZBncckgdggghlllzhjjgdpuuyr886<:,,-*&&o                            ",
"                    $$*,99tsdppppssfiappdgffgkxvvmMnMMBCVVBFSAABMzzgdpdddhlllllhhfadppiy00864<<:-**@o                           ",
"                    $$&;335yppppaddgadssgfddsdhccncNBBCVZZCADAACMzzgddggggllklkgghfasspiyy086884:--$+XXX                        ",
"                    $$&;335yppppaddgadssgfddsdhccncNBBCVZZCADAACMzzgddggggllklkgghfasspiyy086884:--$+XXX                        ",
"                    @@*;223eyuuaaggjdgfffdsspdhkkcvnmmNVBBAFDAABnzzkffjjjjzzljjffgdfaaipiiyrq008<::-*+XX                        ",
"                   X&&*-<<47qiipfggjgkjjggppiihggkzxccNVBBADDVVMczzjddhhlxxxxlljjfgdffasssiy0ee6311:-=##                        ",
"                 OXX&&*-4479wttsfjjlkgffjdddssggggjlzzmMBBZDDCCnzjjjjjllxzzzzllhhjfhffaspputeqq9744<>*@@@                       ",
"                 OXX&&*-4479wttsfjjlkgffjdddssggggjlzzmMBBZDDCCnzjjjjjllxzzzzllhhjfhffaspputeqq9744<>*@@@                       ",
"                  o#&&*1330wtuupdllkgkjjhhggkfjjjgfhkkcMCCZSDCCnkffkkjhhkzvvblljjjkghhfaddpiwrr7533<>-&&OX                      ",
"                  O#;;:<7790ettsgjjlkhggjjjjzhlllhhhkknmVVSSSVVbzffkfkjjkzvvblljjjjkhhfaiiputeeq97743-%%$                       ",
"                  o*112466wryiiafllkhkjjzzzzcxzzzzxkzzbNZZCSCVVMljjjdkffhxvvbkljjhhkhhfaiiiuryy087743;--#@++                    ",
"                  #=2247990etyydgxxzkxllxcxxbcxnnnxlnnMNVVZZZmmmxjjjdjhhkzccvkjlllljggdaiiipiyyrq00931<<*&XX                    ",
"                  #=2247990etyydgxxzkxllxcxxbcxnnnxlnnMNVVZZZmmmxjjjdjhhkzccvkjlllljggdaiiipiyyrq00931<<*&XX                    ",
"                  @*,,1577ryuppsfzzcxcxxbbbbmnMmmBmbbbbmNNNVMMMvzllhhhggjvvvzkjjjhkhffdaiippuppiy0087566>;$$$@          XX      ",
"                  %-114799qryiifhccxvnmmnnnnbMmBBNnvMMbMMMMmmnnbkllhhhhhkzllzhfkkjhhddsaiippuppstrrqq9332,&&&&@                 ",
"                  @&--26880epssdhxxvnbnnbMMMmMmBBNmmmmmMmmMmvzzkljjhhjjjlxzzkhfggkhhjjspiippsffspee00766>1***+                  ",
"                  $=>>,1880etuusgxxzncNNMmmmmMMMMMbbmmnNnnmnvlljkkkjjjjjllxxkjfggkjjjjfpssipgjjgduutrq331:;;%$+                 ",
"                  $=>>,1880etuusgxxzncNNMmmmmMMMMMbbmmnNnnmnvlljkkkjjjjjllxxkjfggkjjjjfpssipgjjgduutrq331:;;%$+                 ",
"                  @&;;12446etuuisjjznbnnnMMMmbbnnclnmmnMbbnnvllfgggjjlxxbbxxlhjjjjjjffgfaadflzzgdyyrr077<3;;-*$..               ",
"O                Xo%--,,5570wrrpdggkzkbbccxxbnczzkknmmmvvvvclkkdgssjlzvvMMnnbzxzzljkffdfggdjcllkhaaiut886422=%+                 ",
"               @@$@*::<<2240ettupddhjhkkxxzzbzzkkkjnmmblkkxzzggdsdddkvmmCNBBMnmvvxlkggfggghzbvvkhppiiytt8755==$OO               ",
"               @@$@*::<<2240ettupddhjhkkxxzzbzzkkkjnmmblkkxzzggdsdddkvmmCNBBMnmvvxlkggfggghzbvvkhppiiytt8755==$OO               ",
"               $$&$*::-:4468teepuppfsghhlllllllkkkzbmmxkffjlkhhfdppfxcnnVBVVNVNnnbxzkkhjjjxcMcczlffgfuyy08661$O                 ",
"               ==:&#::;<119qyrryiuusisffhhhhhhgkkkzbmmbzfffkjffduaaslcmmCVNNMBMmmbzlzzllccvMmmmzlffgfpiiw0883&@                 ",
"               222=&==-355wriyyutrriydaaffdddhgkkkzbnnmzlljkgddatiifkznnVBMMbncnnbzczzxnnnNmBbbvvkklfgpppq995* ..               ",
"               2282-<<1099yyauuiyttiusffdfffdhgkkklbnnbnzzlkgppatttahhxxbnbbxccnnxxcccbmMMMBNbbvvkkklgjjsaqq9-.                 ",
"               2282-<<1099yyauuiyttiusffdfffdhgkkklbnnbnzzlkgppatttahhxxbnbbxccnnxxcccbmMMMBNbbvvkkklgjjsaqq9-.                 ",
"               $$805009uttspfiiputtipsddghhhglgkkklbnnbbvvkkgppaiuupfskkzxzzzxxxxxclcccmmmMNNvvllddjjzhhkdss0:o                 ",
"               XX:08iitsiidshppauppsfghhggllkkkfffhzmmnnvvzjgffayyypfdggklxxzzxxxlzzzzcmMMMnvzzkkssghjssgdffe<@                 ",
"                 &2866tiyydshppasffsdghhggkkjzkfffjxxxzlbbxjghhppppiddssklllxxxlljjkkkzzxxxmvzzffaafffppsisst4$                 ",
"                 &2866tiyydshppasffsdghhggkkjzkfffjxxxzlbbxjghhppppiddssklllxxxlljjkkkzzxxxmvzzffaafffppsisst4$                 ",
"      @@         #;2229ewwppappgsffgjkjjjhllzlzkkkjlzzllkkklkllfpppdddsskjjjllljjffsgggllllcxggfdaaiuuyyittt02&                 ",
"                 @*:>>5099quiggghkkgkzkkgfllzxxccckczzkfjjjzlzzgddddssffkfjjlllffgsipppdhhhhfhhpippiytrr8922;:$                 ",
"                 X$=---2889qrppahkkzczzzhgzzznMbbbbxllkfffkzxcczjjjjddjjzdjjlkljjkfsppaaaaagassputtutrww6,>>*=$                 ",
"                  @&**=22240wiiajllzvxzzzjllbbmmmmbxlljjhhzcbbbbbbbbkxkkkjffjkxxxlljddaiiiisiiiyurru0866,:;;&*@                 ",
"                  @&**=22240wiiajllzvxzzzjllbbmmmmbxlljjhhzcbbbbbbbbkxkkkjffjkxxxlljddaiiiisiiiyurru0866,:;;&*@                 ",
"                  o#%%*;2240wttudggkvmxxzjcccMmmmmnzjjjlxxxbnNNMMmmBbnccxjggkcvvvvzlggayuuuptyyuurry0755,:--%$X                 ",
"                   O###%;;,58ttufhhkzmbbvjccznmmmbclggkcbbmmMBBNVVVZVNbbzkffhcmnnnmzffayrrruyuuurqqe07<<>:&&$@          $$      ",
"                   .@@@&::,69qqrpssgzvccvzzzxcnnncblllxnBBNNBZZCZDDGSVmmbkffhcnMMMnbkkfiuuuuuuuurqqe03<<,=**O@                  ",
"                   .@@@&::,69qqrpssgzvccvzzzxcnnncblllxnBBNNBZZCZDDGSVmmbkffhcnMMMnbkkfiuuuuuuuurqqe03<<,=**O@                  ",
"                  .+@@.@==-35wwtuffgkvccbxxxlxzzzzbzbbmMCCVBCZZDFDDJGZMMbjggknNMMMnbkkfsiiyyuuuitww064::--$$@o                  ",
"                  .+@@ X##=6700uiaahkzvvbxccxzllllbnMMMBVVZSFSSSFDDGGVVVbhjjlbNBBmnxffjaiiiyuiirw9907<,,>*@@O.                  ",
"                  oX    oo&:5qqryssfgcvvbbccxxzzzlcbBBNCAADSFSSFGFFGDCNNzkllxvnMMMvcggfassiyurrye00753::&%oo.                   ",
"                          $-399yuppghkbbbbccxxzzzlcmCCVAZZZDGFFFFFFFABmmxhjjkbmnnczzddhdiipuiyye0775:;&&$#                      ",
"                          $-399yuppghkbbbbccxxzzzlcmCCVAZZZDGFFFFFFFABmmxhjjkbmnnczzddhdiipuiyye0775:;&&$#                      ",
"                          @*166etaasdlzzmMmmxxzzzlcmVVVAAAAADSSFJGGSZBbbljkkjkznnxlgffdpppuryeete662-=$$@o..                    ",
"                          o*,44yyuuffhzzcNmmnvzhhzbMCCASCCBZSDDGGHHFCNcczjkkkjzkkkgdsspuiipyiyyr033<=*++X                       ",
"                           #;22teiipfhkkvbMMnvxjjxnMCCCZVVNNZSSFFFFSBmbbzzjjkkgffffuiiuryyyrq997411>&$..           $            ",
"                           #;229errppskklmvvmnxkkxnNZZZCmmbMCFFFFSSSANbbbzzzxgdssiituutyuuie08851>>-$OXX                        ",
"                           #;229errppskklmvvmnxkkxnNZZZCmmbMCFFFFSSSANbbbzzzxgdssiituutyuuie08851>>-$OXX                        ",
"                           +*116wwwppsggzcbbcxxxxvnBVVVCMMnNZAAGFHHHFVBBmbzzkgpiiyyettyetty08<<:,--*$@                          ",
"                          .o&>>40qqrpsggjlxxzcxxxcnmCCVCBBBBDGGGJLLJLGCCBbcczfittueteertqqr86,,-;**$@                           ",
"                          .X$--35qqrtdhhkgkkjzcvvmnMBBBBCCCCDGGKJUULLKDDBnvvjgiyyutw000e99q53**$$@@#o                           ",
"                          .X$--35qqrtdhhkgkkjzcvvmnMBBBBCCCCDGGKJUULLKDDBnvvjgiyyutw000e99q53**$$@@#o                           ",
"                           #*--:466eyissfdggfjkxxcmnMMNMBBZCDKKKPLLYPKHHSmnnkspuutwrqq807781-%%##oo                             ",
"                           X$&&><779qpddgfjjgkzccxzzvvvcnnNBFHHHKIIYYIGGZBnnzdsppyr08867335>=##+                                ",
"                           +&==-1330eyppsaffdfdhhgkkkkzkxxvNVFFGJJJULHDDBNccjspyyrqrqq9511:*#@@o                                ",
"                           .$&&;:4470eyypiaapdpffdddhhdhkkxvBNNBAFFHHSDDNmxxgdaiiutq0073,,-%OXX                                 ",
"                           .$&&;:4470eyypiaapdpffdddhhdhkkxvBNNBAFFHHSDDNmxxgdaiiutq0073,,-%OXX                                 ",
"                           X+##=,22<8qrrytrrutruuuspffpdhhkxnnnmNZZABCMMxkffdaiyytw08851**$X                                    ",
"                           . XX$*-->19qq0rqq0reyyypiuuupffhhzzzxbNNbbcccgdddaiyiiuq866>=%%#                                     ",
"                               @$==*,25587009q0rrrewyytiiisgfggglvvlljjjfaaaupiyytt644;&##%                                     ",
"                               @$==*,25587009q0rrrewyytiiisgfggglvvlljjjfaaaupiyytt644;&##%                                     ",
"                               X#@@%*<332644376998q000reuupppaapfkkfggaaauuututiiww422*$@@.                                     ",
"                                Ooo$&=;;<,3316488765887000rrrrriidddddiiitttqrwyy991,,%#XX                                      ",
"                                   @O#&&=>;;-1,2214433766699eeeyyaaasuuuee889q9ww54:--@X              $$                        ",
"                                   oX @@%*::-1>22<>:11<44488wqqyyppppttt0q77835881<*%%                                          ",
"                                   oX @@%*::-1>22<>:11<44488wqqyyppppttt0q77835881<*%%                                          ",
"                                        o$**&;*--=----,33377qqqttrrrrrrr894451233--$@@                         $$               ",
"                                          @@+$@$$&$$**:;115599988wwwwq6667223>,,,;&o                                            ",
"                                              X@@X##&&-=::11<6656qqqqq444<<<--***$#                                             ",
"                                              X@@X##&&-=::11<6656qqqqq444<<<--***$#                                             ",
"                   X                                XX#&==:;;;;2399999333:::==&&&#+                                             ",
"                                                      o#%%=$===><<<177112;;;**$++ .                                             ",
"                                                       o..&+%%%-;;;:35>>,=--&*$XX                                               ",
"                                                          oX@@@&****>>**=%**#$+                                                 ",
"                                                          oX@@@&****>>**=%**#$+                                                 ",
"                                                          . OXXX$###*&**$+@@.o                                                  ",
"                                                                +ooX#@@@X                                                       ",
"                                                                .   X.XX                                                        ",
"                                   $                                                                                            ",
"                                   $                                                                                            ",
"                                                                                                                                ",
"                                                                                                                                ",
"                                                                                                                                ",
"                                                                                                                                ",
"                                                                                                                                ",
"                                                                                                                                ",
"                                                                                       $                                        ",
"                                                 X                                                                              ",
"                                                 X                                                                              ",
"                                                                                                                                "
};
