/* XPM */
static char *_6803_6c3061260953faf7b04d1791a11aa9703bae746d61563de22b9fc86cbc5203f8[] = {
/* columns rows colors chars-per-pixel */
"128 128 37 1 ",
"  c black",
". c gray10",
"X c #1B1B1B",
"o c gray11",
"O c #1D1D1D",
"+ c #1E1E1E",
"@ c #202020",
"# c gray13",
"$ c #232323",
"% c gray14",
"& c gray15",
"* c #282828",
"= c gray16",
"- c gray17",
"; c #2C2C2C",
": c #2D2D2D",
"> c #2F2F2F",
", c gray19",
"< c #313131",
"1 c #323232",
"2 c gray20",
"3 c #373232",
"4 c #3B3131",
"5 c #3F3030",
"6 c #432F2F",
"7 c #472E2E",
"8 c #4B2D2D",
"9 c #4F2C2C",
"0 c #532B2B",
"q c #572A2A",
"w c #5B2929",
"e c #5F2828",
"r c #632727",
"t c #672626",
"y c #6B2525",
"u c #6F2424",
"i c #772222",
/* pixels */
"                                                                                                                                ",
"                                                                                                                                ",
"                                                                                                                                ",
"                                                                                                                                ",
"                                                                                                                                ",
"                                                                                                                                ",
"                                                                                                                                ",
"                                                                                                                                ",
"                                                                                                                                ",
"                                                                                                                                ",
"                                                                                                                                ",
"                                                                                                                                ",
"                                                                                                                                ",
"                                                                                                                                ",
"                                                                                                                                ",
"                                                                                                                                ",
"                                                                                                                                ",
"                                                                                                                                ",
"                                                                                                                                ",
"                                                             ...    ..                                                          ",
"                                                               O                                                                ",
"                                                               O                                                                ",
"                                                            XXXoXXXXXXoo                                                        ",
"                                                        XXX....@...XXXXX                                                        ",
"                                                    XXX...@@+++++@@@@@@@..                                                      ",
"                                                    XXX...@@+++++@@@@@@@..                                                      ",
"                                               .. OX..@@+++$+OO$++++++@@....                                                    ",
"                                                 oX@@@++++$$#####$$$$$$$++..                                                    ",
"                                              oXX@@+$$$$###&#&&&&##$$$$$O+  .                                                   ",
"                                             X@@@%$$$$##&&&=%%%%%&&&*&###ooo   ...                                              ",
"                                             X@@@%$$$$##&&&=%%%%%&&&*&###ooo   ...                                              ",
"                                            ..+$$$*&&&&&%%=******==-&&@@@@ooo    ..X                                            ",
"                                          ...+$##&&=====***;;;;-;::==%%%@@XXXXoooO..XX                                          ",
"                                          ..+O#&&&=*:::;;;-,,,,,---;**$$$$@@@XXoooO+...X                                        ",
"                                          ..+O#&&&=*:::;;;-,,,,,---;**$$$$@@@XXoooO+...X                                        ",
"                                        ..++O#&%%=*;;;,,,,,21111>,,-;***$$++++@@@@oO++.X                                        ",
"                                      ....++##&==*--,,,22215444<:,,-::***$$$$++@@@@#OO+.                                        ",
"                                      ...+$$#&=**;-,,,21444874442,,;::::=*$$$$$$$@@#oo++..                                      ",
"                                     .  ++$$&&===:-,2225448877742,,:::::*****$$$$@@@@@o+...                                     ",
"                                     .  ++$$&&===:-,2225448877742,,:::::*****$$$$@@@@@o+...                                     ",
"                                   .. OOO$**&-===*;,,,65998qq8853,,:::;;;*&&&**$$$%@@@##++.                                     ",
"                                 ....Ooo##&&&--===:;,,3699wqw9964<<:::;;--==&*&$$$$@@@@#oo+.                                    ",
"                                ... Oo###&&&&----=::<<4699wqw557<;;::;---====****$$$$$@@ooO                                     ",
"                                ... Oo###&&&&----=::<<4699wqw557<;;::;---====****$$$$$@@ooO                                     ",
"                             XX..++Oo#@@&&=====>>=>:114699w785531::::;;;->::=-*****$$$@@ooO .                                   ",
"                             ...+OOoX@@@&%====::::::113599878553<;;::;;;->::>--****$$$@@ooo ...X                                ",
"                           X.@@+Ooo@@%%%=***:;;,,,<<,,2544744112,;;;;;;;->:::--;;**$$$@@oooO ...                                ",
"                           ..++O#@@@@$$$**;;;-,,,,4,,,254444411>,,,;;---->:::=-;;***$$%@##oo ...                                ",
"                           ..++O#@@@@$$$**;;;-,,,,4,,,254444411>,,,;;---->:::=-;;***$$%@##oo ...                                ",
"                          X@+$$#@@@$$***----,,>11122222111411>>>,,,;;----:::>--;;:**$$$@##ooO...                                ",
"                        XXX@+$$#@@@$$*&&-=,,,>11116222222222>>>--;;;;----=::=-;:::;****%&&##O++..                               ",
"                        XX@$$##&%$$**-==::>>22211122222333,,,---;;;:;;---===--:>>::;***%&&##$OO+...                             ",
"                    .. oXX@@$##&&$$*&===::112222223,222222>>,;;:::::::;;-----;:>>::;;;*=&&&##$$+@..X                            ",
"                    .. oXX@@$##&&$$*&===::112222223,222222>>,;;:::::::;;-----;:>>::;;;*=&&&##$$+@..X                            ",
"                    XX OXX@@$$$&&==**-==:>22233,,,<,,,22>>>>-;;:::::::------;:;::::;;;*===&&###O+..X                            ",
"                   .OO.OXX@@$$$&&===**&&--,,,,,<<11,,,,,,,,=---::::::;-->>,,,-----;:::*===&&###$+@@XX                           ",
"                   o@@X+OO#@$$$*&====***-;,,,<<:::1,,,,,;;---***===:;->>:1>>>,=---;::::====&&###$++@X   .                       ",
"                   o@@X+OO#@$$$*&====***-;,,,<<:::1,,,,,;;---***===:;->>:1>>>,=---;::::====&&###$++@X   .                       ",
"                    @@X@OO$@%$$**----=**;*::::::::<,,,<::::*;**====:;,>>1<111>>,,,;;::::**==%&&#$++@XO  X                       ",
"                      o#@@$$&%%=*----===:*===:::::<,,,,;==:=*===---=;->>:<::>,-,,,-;;;;;****$&&#$++@XO  X                       ",
"                    .. o##%$&&&=*;;--===:====:::::<,>>,-**:====----=*--->:>>,;-,,,,-;;-----**&&&$$$@#O@@XO                      ",
"                      .+$$&$*&&==::--===:====:::::<,>>:>--;*===--;;-=*;;-,,,;;-,,,----,,----*==&&$$%#$@@#O                      ",
"                      .+$$&$*&&==::--===:====:::::<,>>:>--;*===--;;-=*;;-,,,;;-,,,----,,----*==&&$$%#$@@#O                      ",
"                        OO#%*&&==::--=**:***=:::::;,:::>---*===-----====:;--;----------,---**%%&&$$%#$@@#O@@X                   ",
"                       .++#&*&&==::--=**;:;;;:::::;-==>>==-;===--==-====::--;----;;;;;-----**%%&$$$@@O++XO                      ",
"                          #@$&&==::--=**:;--;;::::;--------;*===========::;;;-;;;::;;;*;***$%&&#$++@XoOO.                       ",
"                          #@$&&==::--=**:;--;;::::;--------;*===========::;;;-;;;::;;;*;***$%&&#$++@XoOO.                       ",
"                          .@$&&==;;-==::::;;,-;;;:;;;;;----;*===========:::::;;::::===**===%%&&#$++@.o  .                       ",
"                          . o@@%=;;--=::::;;,--,,---;;**::;;-::*>===:::::;;;;;;::>>=======&&@###$+++.X                          ",
"                            o##&=::;->>>>:;;,>>>>>----**:::;---;::::::;;;;;;;;;::::=------&&@###O+++.X                          ",
"                            oXX@%**;->>>>:;;,:;11:>---;*;;;--,,,,,,,,,---;;;*----;;*==----&&###oO++..X                          ",
"                            oXX@%**;->>>>:;;,:;11:>---;*;;;--,,,,,,,,,---;;;*----;;*==----&&###oO++..X                          ",
"                            oXX@%==:<,>>>:;;>:<<<1,-;;;----,>222111112>>,;***;---==***=-;;*$#ooO   . X                          ",
"                             oo@&==:;,>>>:;;-=;::>,::::,,,>32111488744::,:===;-::==&**=-***$OOOO   . .                          ",
"                               X@%%*;-,,>:;;-->>>,<:::;,>>165444477663<<,:===->::;;=--=-&&*$O                                   ",
"                               X@%%*;-,,>:;;-->>>,<:::;,>>165444477663<<,:===->::;;=--=-&&*$O                                   ",
"                               X@%%=*--->>::;----<<<<<,211449888700997<<3;:::-><<;:=;;*&&&#O                                    ",
"                               o@&&$*&--=>:::::::1<,33>2<<487777700997442;;;;,:;;;=-**=%###o                                    ",
"                               O#@@%$*--=>:::::::1,211154487q000qrre97443,<<,>:;;:=-**=&@@o                                     ",
"                             ..+o@@@$$&&==:::::::1424444448700000rr008553<<<-,>===&*$$&@ooo                                     ",
"                             ..+o@@@$$&&==:::::::1424444448700000rr008553<<<-,>===&*$$&@ooo                                     ",
"                             XX OXX@+$&&&===:::::131444455987000r00085224<<<;-----**%%&#oo                                      ",
"                               . XX.+O##&%==*::::145449466647qqqqqqq96335<<<:;;***$%@@#ooo                                      ",
"                               X XX.++$$#&%%*::::2,6444633768qqwwwww07445<<<:::===&&###O                                        ",
"                                 XX.++$$#@%%=*:::2,21157,,579wweewww07445<<<;:=&&&##ooO ..                                      ",
"                                 XX.++$$#@%%=*:::2,21157,,579wweewww07445<<<;:=&&&##ooO ..                                      ",
"                                 XX..+OO##@@%=:::1,3115744570eerewwwe0774,<<::=***$$OO+.                                        ",
"                                   X..OOo#@@&%***;-,>>2333760rrruyytwe0074<<::-***$$++.                                         ",
"                                   X..++Oooo@&***--,>>2366600rrrutttye006411:>-***$+...                                         ",
"                                   X..++Oooo@&***--,>>2366600rrrutttye006411:>-***$+...                                         ",
"                                   X..   ooo@@%$$**---,,33660eeeyyyiye00q511>,;**$+@..                                          ",
"                                     ...    o#%%%**:;;1<55470000eyyyue007522>-*$$$@.                                            ",
"                                            oo@@@&%===>:226476600rrr00778122,-*$$@.X                                            ",
"                                             O###&&-==-=>>2<54447006734412>>-*$@@@X                                             ",
"                                             O###&&-==-=>>2<54447006734412>>-*$@@@X                                             ",
"                                              OOO$#&&&&&==::1<<148845122>,--:*%@@X                                              ",
"                                             ..+++$$$$##&&==>:::166<2>,,-;**=$@XXo                                              ",
"                                              ....+++++$**&----->33:,-;;**$$%@X                                                 ",
"                                              ....+++++$**&----->33:,-;;**$$%@X                                                 ",
"                                                  ....++$$$****&-<<-;***$$@@@.X                                                 ",
"                                                      X.@@@$$==**::*=$%%@@..X                                                   ",
"                                                        XXX@@&&&%==$%@@@XX                                                      ",
"                                                           oo###@&&@@XXX                                                        ",
"                                                           oo###@&&@@XXX                                                        ",
"                                                             OOO$$$oo                                                           ",
"                                                                OOO                                                             ",
"                                                                .....                                                           ",
"                                                                .....                                                           ",
"                                                                                                                                ",
"                                                                                                                                ",
"                                                                                                                                ",
"                                                                                                                                ",
"                                                                                                                                ",
"                                                                                                                                ",
"                                                                                                                                ",
"                                                                                                                                ",
"                                                                                                                                ",
"                                                                                                                                ",
"                                                                                                                                ",
"                                                                                                                                ",
"                                                                                                                                ",
"                                                                                                                                ",
"                                                                                                                                ",
"                                                                                                                                ",
"                                                                                                                                ",
"                                                                                                                                ",
"                                                                                                                                ",
"                                                                                                                                "
};
