/* XPM */
static char *_828_67c218ba7eaa692e21e809694d9f63ad38f5b18c9727f2ec144d7df308588233[] = {
/* columns rows colors chars-per-pixel */
"128 128 85 1 ",
"  c black",
". c gray16",
"X c gray20",
"o c #672626",
"O c #971A1A",
"+ c #BB1111",
"@ c #E70606",
"# c red",
"$ c #FF2300",
"% c #FF3700",
"& c #FF4600",
"* c #FF5000",
"= c #FF5A00",
"- c #FF7D00",
"; c #FF9B00",
": c #FFA000",
"> c orange",
", c #FFAA00",
"< c #FFAF00",
"1 c #FFB400",
"2 c #FFB900",
"3 c #FFBE00",
"4 c #FFC300",
"5 c #FFC800",
"6 c #FFCD00",
"7 c #FFD200",
"8 c #FFDC00",
"9 c #FFE100",
"0 c #FFE600",
"q c #FFEB00",
"w c #FFF000",
"e c #FFF500",
"r c #FFFA00",
"t c yellow",
"y c #FFFF05",
"u c #FFFF0A",
"i c #FFFF0F",
"p c #FFFF14",
"a c #FFFF19",
"s c #FFFF1E",
"d c #FFFF23",
"f c #FFFF28",
"g c #FFFF2D",
"h c #FFFF32",
"j c #FFFF37",
"k c #FFFF3C",
"l c #FFFF41",
"z c #FFFF46",
"x c #FFFF4B",
"c c #FFFF50",
"v c #FFFF55",
"b c #FFFF5A",
"n c #FFFF5F",
"m c #FFFF64",
"M c #FFFF69",
"N c #FFFF6E",
"B c #FFFF73",
"V c #FFFF78",
"C c #FFFF7D",
"Z c #FFFF82",
"A c #FFFF87",
"S c #FFFF8C",
"D c #FFFF91",
"F c #FFFF96",
"G c #FFFF9B",
"H c #FFFFA0",
"J c #FFFFA5",
"K c #FFFFAA",
"L c #FFFFAF",
"P c #FFFFB4",
"I c #FFFFB9",
"U c #FFFFBE",
"Y c #FFFFC3",
"T c #FFFFC8",
"R c #FFFFCD",
"E c #FFFFD2",
"W c #FFFFD7",
"Q c #FFFFDC",
"! c #FFFFE1",
"~ c #FFFFE6",
"^ c #FFFFEB",
"/ c ivory",
"( c #FFFFF5",
") c #FFFFFA",
"_ c white",
/* pixels */
"                                                                                                                                ",
"                                                                                                                                ",
"                                                                                                                                ",
"                                                                                                                                ",
"                                                                                                                                ",
"                                                                                                                                ",
"                                                                                                                                ",
"                                                                                                                                ",
"                                                                                                                                ",
"                                                      vtvv                                                                      ",
"                                                    ++5p22t                                                                     ",
"                                                    ++5p22t                                                                     ",
"                                                    ##<3ww5+                                                                    ",
"                                                    oo-5ww&o    vttv                                                            ",
"                                                      $-<<#o   #t88t-                                                           ",
"                                                      o$%%@o   @>886$         vttv                                              ",
"                                                      o$%%@o   @>886$         vttv                                              ",
"                                     vttv              #$$+o   -5ee5%        #t88t-                                             ",
"                                    #288t#             o##Xoo++,8ee0--      --3tt58                                             ",
"                                 vv82iee>---            ++oX%::uette7-## vtt8,eiiu5                                             ",
"                                -ttw3euu5-88$t          ++#$,77iyyyye855-t,,w8tssq-                                             ",
"                                -ttw3euu5-88$t          ++#$,77iyyyye855-t,,w8tssq-                                             ",
"                                -66s6attw>55:8-     ___+XX--3iisdddsqu<<25qq95aaaa-                                             ",
"                                $66u1t00fsiiu9p-- +-vv2-2228uyydssshap0006aattqppt<-vv         -t++                             ",
"                            vtt-@<<53auupduuphatt$-0qqweeeuuatthlhhdgpppirddtwtppu85--+     ---2<ss-                            ",
"                            vtt-@<<53auupduuphatt$-0qqweeeuuatthlhhdgpppirddtwtppu85--+     ---2<ss-                            ",
"                           ottt,----itiiahaadhfii83tppuauugggjjxxkkkkkssdippihuffe8t,,#    +-22w0qq-                            ",
"                           -5ee908880jyyfjffdjjuugquaagsffhkjzzbbzzbvldddaffsxtaau4688#   #--665>&&+                            ",
"                           %7tttptt>ttssahjjdjhffvkfffljkkklzvvnVmmnvzhhgdkkhnyggiq2--+ ++q07::,-##                             ",
"                       vttt-ettughheueaahhjjjxxxxxvhllxlvvxzvbbMNMMmmbccjkkkxmjjjjreww&%--0pq222-                               ",
"                       vttt-ettughheueaahhjjjxxxxxvhllxlvvxzvbbMNMMmmbccjkkkxmjjjjreww&%--0pq222-                               ",
"                      -s<<<50yysfffuigddzcxxvbMNNBMNmmbvnnnvbnnNMNNmMxnncxbbbNkfffaeee7:88pae558                                ",
"                      -q0032eyyslkkgldjjzmVVCCZVVADZCCMMBBMNMmmNNVVmnxvvbNMMCBvhhhauuuweeept822+                                ",
"                      +&>>i8uaasxxxkhhllvnCCZHHJJLKKSSBBCCNZZCCCBNNmczxxbZVVFBbzzlgaggafaapq6--                                 ",
"                      +&>>i8uaasxxxkhhllvnCCZHHJJLKKSSBBCCNZZCCCBNNmczxxbZVVFBbzzlgaggafaapq6--                                 ",
"                       ###q6auusvvvkxjkkbCSSDGKJJJHFZZNCAASFFFFDANNnczccnAAAFVNxxklfhhjsffat-++       ++#tvv                    ",
"                        ##--6ttsvffnxzzzcNVVZHKLLJSNBBVASSDKKHHFDVVMbvbbNDFFGSnbbzlkkkkjfft7-       --55<8---                   ",
"                        ##5q8>>tMzzmnvccmNVVAHLLLFSBVVBZAAFLPKKKJAAVBMNNCFGGGABbbcxlzzclffre-++-+##-8-6627668                   ",
"                       vtt>5>wwfvvvvlxMMMBCCDSJGGGZCZZASDDHUUTTILGGAVVVVDGLLJABmmbnvvvcjllau8tt8-<<,t,33q988--                  ",
"                       vtt>5>wwfvvvvlxMMMBCCDSJGGGZCZZASDDHUUTTILGGAVVVVDGLLJABmmbnvvvcjllau8tt8-<<,t,33q988--                  ",
"                       v6665tttthzzgxvNNMVZZZZSDDFDSDDGGKKUTWQQTPHHAZAZZFLPPKFZVVVVNnnncxxhatssjvqqeqt887sqq:-+                 ",
"                      #q88qtpgghhxxlzmnnmVZZVCCZZSSFDDHPUUR!^~~WUHHAAFSSJLKKKJFDDSDAVVmbzzkajhhvvggpau888e66e<#                 ",
"                    --q8eeeyuaajhxxxbmMMMCFFCVBCCAADGGKPRRQ~)((EIHHSFJJJKLJJLJGFFFJFCCnvzzvknllxxddgugtt0t88w-+                 ",
"                    --q8eeeyuaajhxxxbmMMMCFFCVBCCAADGGKPRRQ~)((EIHHSFJJJKLJJLJGFFFJFCCnvzzvknllxxddgugtt0t88w-+                 ",
"                    55e0uuridddxczzvmNVVCDDDZCCZZZDFJJUUEE!^(//RIFFSFKLLLKHHGGFDDFJSCCmbvvbzjhhzjvvvsaff0t00qt                  ",
"                   +,,qiiisgdjjzmvvnNCSSSSSSCBCZZAADLLTR!!~/)~~YJFFDDKKKLKJJFJGFFDGACCMbbbmnlzzlxvvlvttt8ueep-                  ",
"                   #>>qpiiadjxxcMnnnCSFFGFSSCVCSSDSFKKTW~~~//EEIHDDSDHLLPIPPLHGDDDFZBBmbmmNnvxxjlzzglftte9ttt#                  ",
"                   #,,6fppdklMMbMMMVFFKKDDSSZADFFGFHLLYQ^^!^~TTLGFFDDHKKIUIIPLJGGGFCMMmmBBCBvbbzjvvul0ii0e888$-UU+              ",
"                   #,,6fppdklMMbMMMVFFKKDDSSZADFFGFHLLYQ^^!^~TTLGFFDDHKKIUIIPLJGGGFCMMmmBBCBvbbzjvvul0ii0e888$-UU+              ",
"                  --555jhhlkbBBNVVVSKJKKGGJJFFJJJKLKKKIWQQWWQTTPHGGGGJLLYTUULKJGGGACNNmMCCCVmvvbxkkfe0wwtt88--2qq--             ",
"                 --:77yaddvvbNNCNVVFPPLLLPLLPIPPPPUIUUTEEERTRUULJGGHJIIITYLLJKLJJFZBNNMMCCSZMmmnxllgfuii8-22-<www2-             ",
"               ---t0uuishhvNbNNNBCCSKYTTYTTTYRTTTYRTTTRRTTIIIPPLLLLKPIUUYYJJGFGJJDCBMMNCZZFGZVVNbhhghutt><--*8t88%-             ",
"               --<q5uussjjbmvMMMnBBAKURRTEQQ!~WEEERTTTEYYYUUIIIPKKKKLPIIUUJJFFGFFSZBBBVFHHLJGDDNchhfjuuuq0==--5$$o              ",
"               --<q5uussjjbmvMMMnBBAKURRTEQQ!~WEEERTTTEYYYUUIIIPKKKKLPIIUUJJFFGFFSZBBBVFHHLJGDDNchhfjuuuq0==--5$$o              ",
"         v----+##206ttffjjzcbbbnvmmVHUTTEEQQ!(QEEETYIIUIIIURTUUPGDDDFJKKPPHHDSDFFSCVVVZFPPTUJAANcllzkgffpt11>2-                 ",
"        +5,,,5-##$2800passzvnccvbnnBSHKKUUTTW!QWWEUPKKKKIIYWWYYLHSSZDFKKLLKKHGJJJFACCCVSJJTUUSSMckkvkgjjauwwtw5++               ",
"        #<333p%$$-$%--5ppplxmvvnnbbmZZDDGDGGLURWWRKGGGGHKKYW!TTIJDDAGJPPIPIILKLJJHFSZZVDKKURIDDNbxxxxlxxffaaye7---              ",
"        #<333p%$$-$%--5ppplxmvvnnbbmZZDDGDGGLURWWRKGGGGHKKYW!TTIJDDAGJPPIPIILKLJJHFSZZVDKKURIDDNbxxxxlxxffaaye7---              ",
"        +->>><---$--55<tpphkNnnnBmmmMVCCAVZZFJIYYYJDGGKKLLYRQRRPLJJJYYEEEYYYUPLPPKJGFFDDPPRWTGGCMnnvzxlljjppaip662+             ",
"        -$--&-#---$-ss2wiigvvNNbNNNmMNNNVNVVSFJLLPJGHHKIIIIYTPPHHJJPRQ!!!WTTUPIPPLIPPPKITTRRYPPAZmmmmvvvljffgssii--             ",
"      vv8%%%%-%---$-ssttttdxnMMnNnnbmmNNCBCCSFFHHKJHKKLTTTUILHHAAGGLRQ~~!EYYIPIIIUUYYYYYTTTTIPPGGVVNnvxxghhhaaitt*+             ",
"     +55t---%--88-%5552800pmvBBnmmmnNMVVZAHHHJJHHLJJKKITRRUIKFFVVZZHITEEETPPIUUYYIYTYYTEEEYIGFFDGCCnvxggghssap888+              ",
"     +55t---%--88-%5552800pmvBBnmmmnNMVVZAHHHJJHHLJJKKITRRUIKFFVVZZHITEEETPPIUUYYIYTYYTEEEYIGFFDGCCnvxggghssap888+              ",
"     #<<t0---@-55-<<<<8t55gzCnnbVBBMNNSSFGLLPUPJJJJHKKPTRRTUHFFNBZZFHLIIUUPPUYTUUUITTTRTYYKGSCCZCNNBnlxxspppaw-$$               ",
"     +55t,&&@--<<:05ww5faalvCBBZCAASCSHHKITTTTUJJHJKKKPYRRTUHSSVZSSDGGJJJJPPIILPPLPUUUYTIIJSNNNMnmmxvkkkguuu0t---               ",
"      vvv$##oo$888et88uthhfjlBBNCDDJFHLLUYYYEULGGJJKKKLPIITILGGSSFFFGHGGFGKKIKHFFHHJJJLPKKSZMmmMmvvlxmpplett30>--+              ",
"      vvv$##oo$888et88uthhfjlBBNCDDJFHLLUYYYEULGGJJKKKLPIITILGGSSFFFGHGGFGKKIKHFFHHJJJLPKKSZMmmMmvvlxmpplett30>--+              ",
"              -55,>5uuuaaafvlbbmCJJTYUYYUTTTRLHDDJPPPPHHKKIIPKKGFFFFHFGGFGKKKGDDDSAAFFHHFFZBnbbmbvvvxzaakwww0e8<<-              ",
"               vv--qaa8tttzxbbbNFHHTYTYYEERRUJHGGPUYPPJGFFJLIPPKGDDSGFGGFGKKLJGFFSVBCCDGFFCNnbbnnxxhgjttsttt>00qq-              ",
"                   -tteeiiknbVVDFHHLJTRREWQQTKGJJIRTPPHGDDGHKLLKJFFHHDDDFFLLUIIKKFCNBBSFDDCMmnnbcxxhfkppf,<<--><<-              ",
"                   -ggipaahbmBBFFFFZDJIIRW~~RJGHHURYIIFHJJJKPLLIIIIPPFSSDFKKUTRUUJSBNNCAAABMMbbbbllgdgaap>22-85>>&+             ",
"                   -ggipaahbmBBFFFFZDJIIRW~~RJGHHURYIIFHJJJKPLLIIIIPPFSSDFKKUTRUUJSBNNCAAABMMbbbbllgdgaap>22-85>>&+             ",
"                   -ssszffjvnVVDZMMmVDLLIW~~WLGGGIUPPPJLPPIIUIITEWWWTPGGASLLTWWTTPGCMMNBBBNNmnncckkgjpssiw%%%q:00q-             ",
"                  twfffjffkxvMMCBmmnbCFFI!~~EJFFFKKLLLPUTTTYTYYW!~~QRIFFCDPPRWTRRUKDVVmMmmMMmvvvvllgfirru---#--<<s-             ",
"                  stddsahhjkcVVANmmvnCHHT!~~QJGFFKLPPPTWWWERTRREQ~~!WUGGZHPPTEYUUUPKSSBMMMNMnbbxkkkautee5-++ +-ttv              ",
"                  stddsahhjkcVVANmmvnCHHT!~~QJGFFKLPPPTWWWERTRREQ~~!WUGGZHPPTEYUUUPKSSBMMMNMnbbxkkkautee5-++ +-ttv              ",
"                  -taayffffhmnnNBnnnBSPPR!!!RLFAAFJLYYQ^^^~EETTYRWWERIGGDHIITTIPPPPPGGCBVVVNnxxljhhpe3885-                      ",
"                  #,eettaagfxvvNCmmNVLPP!!~~EUHAASDKYYW/___^QEEYTTTWTKGGDJKKPLLHHKJKGGACZZDAmcckjddw7<%%-#oo                    ",
"                   #22titttfvffhxnnmCKUU!~))~RKFFASJYY!(___(~EETYYYTIJFFDGHHJHFDDGFSZZASFFASmxxkkhh9:-%%-%##--                  ",
"                    --v#--888ttfhxxvCHTT!~//~ETLLFFKTTQ())(^~QQRTTTTPHFFSGFFDACBBAZSZZADFFCVmnnlkhhe3-&&&->>>-+                 ",
"                    --v#--888ttfhxxvCHTT!~//~ETLLFFKTTQ())(^~QQRTTTTPHFFSGFFDACBBAZSZZADFFCVmnnlkhhe3-&&&->>>-+                 ",
"                            -##ttkkcVHIIWEEEQQTLLDFLYYQ^!!!!!!!!QQQEYLFFSSSSZMnbbNVZAAAGFFCnbMMzdiiwq:----:::<#                 ",
"                             ++puhhcNSHHIIYYTRIHHAFIUUETEEEE!~~Q~((/EUJJDFFFCMxccmNCCCVAFFNvbvvjgggpqt-------5+                 ",
"                             ++<iddcbNVVSHJJLUKSSZFPYYYLKKIRQ^^^)__)~TLLHFFFCmvmmMBNNNMNVVvcxzzkdaaete555-$$-v                  ",
"                             ##>dhhzvNMMBZFFJJGSSAGKPPKFSSHYW//^_))_~WUUKJHHACBCCCMmnnbmvvzhkpphjqq9t8<<#                       ",
"                             ##>dhhzvNMMBZFFJJGSSAGKPPKFSSHYW//^_))_~WUUKJHHACBCCCMmnnbmvvzhkpphjqq9t8<<#                       ",
"                            ---qghhcnnnnNVSSFHDAAHHJLLHSCCFYQ((/(__(^WYYPKJJSVVAAAVmvvvxkkfdhiipu117t,$$                        ",
"                            #>>shxxvmmmmmNDDGGGHHKJKKKHFSSHIEQQ~^///!ERRUPJJACADDSCbxxhkjjidiqq0088ua8##                        ",
"                            $::rfvvvmbmmmVSSGFHJJLLKKKGFDDHUYTTYTRRWERPPLJFFZADSSDNnxxfgkksl0sst6::7e8##                        ",
"                            $::rfvvvmbmmmVSSGFHJJLLKKKGFDDHUYTTYTRRWERPPLJFFZADSSDNnxxfgkksl0sst6::7e8##                        ",
"                            8::isbbMnbmmnVAAFAJPPKJKKKJDDDFJIUUIIUUUUILLJFVVCSDDDANzkkdpzzipppp<<,,5w2--                        ",
"                            -33ifmmmmnNNnmMMNNFGGFDKGGDSZZZDGHHHJHHJJKHHGDAAZASCCAblddpyss82qppp<<<<2$++                        ",
"                           #277phxxbmMMMbcxxcnVNNVCDCCSCVVCZSSSDDGGFFJDDSZCCZAZAAMjzdd9qtt5stppt688q5$##+                       ",
"                          +-588dfhhvvVvvxcjjlbbccbbBNNBBMMBVVVVZAFFGDDSSCCVVSAVVVmhguu:-----5880liip2-&&%#                      ",
"                          +-588dfhhvvVvvxcjjlbbccbbBNNBBMMBVVVVZAFFGDDSSCCVVSAVVVmhguu:-----5880liip2-&&%#                      ",
"                        oo*89iidshhjvMxxllffkkzzzkxnbbMnmmbNNVVCSGGFASCCCVNNBVVVVxkluu-$   v-ppahaa82<666-++                    ",
"                        ++>etttyigggjlkkxjaakgjllhlzccvvbbvbbBBCSGGHGZCCMBnnnbmmmxhd99:-    -tt0s00q-2ww0q--                    ",
"                        ++w9jpptaggujkjjjasskpgsskhjllzxzzkzMMMZAFFGDZCCNnbbvnnvvzgpww9<oo   ttqtqq8-822<s--                    ",
"                        ++w9jpptaggujkjjjasskpgsskhjllzxzzkzMMMZAFFGDZCCNnbbvnnvvzgpww9<oo   ttqtqq8-822<s--                    ",
"                        ##6qheesqiitstpptwiiaeewwhsgjjljgglznMMCCSSFHZCCNnnnbbvlljii00e8--     -t--- ---t+                      ",
"                        ##88a00eeeewpqtt82228ieqqp9uhhzpkkjhvMMMVFFASACCZCAAMmvjjfrrttt5++                                      ",
"                        ++5pp<<0sttqe08825---,:0086eppsiggsjjzzbmBBVSAZZSSKKBbxssye8tt2-                                        ",
"                          vtt--2t88g-5-------600002qttyyqqudkjjkvmmMBVBBGGSSVxjiip8-tt-                                         ",
"                          vtt--2t88g-5-------600002qttyyqqudkjjkvmmMBVBBGGSSVxjiip8-tt-                                         ",
"                               -t##v-#--2-&&-5e33:;q6686<<0phdddlzzxcvVVCZAAMvkuu0-@vv                                          ",
"                                     ---8<---6t556:<;;%-&&,eedddfddkzkxxvvnnnxfuu>+                                             ",
"                                     #<<5,%%-tp225--,,OX++--,pptfssjkghhxkvvllgee5%+                                            ",
"                                     #<<5,%%-tp225--,,OX++--,pptfssjkghhxkvvllgee5%+                                            ",
"                                     #<<58-- vUvv++%--.     -228fssssgssvhhhggf990-#                                            ",
"                                     +ss-5vv       X++X      --$vttptuhhgfpphfs885-$--                                          ",
"                                      ++-+        ++--#         v--5qijjyupppie226<#--                                          ",
"                                                 -#----             otaaepiit09ww8,<$$                                          ",
"                                                 -#----             otaaepiit09ww8,<$$                                          ",
"                                                 v5<228-             -qq0qfftu0qq->522+                                         ",
"                                                 t<i,,8               ---5228t288%t5qq-                                         ",
"                                                 -8ftt$                   ---tv---5-ss-                                         ",
"                                                 -5ptt-                           v-++                                          ",
"                                                 -5ptt-                           v-++                                          ",
"                                                  vUvv                                                                          ",
"                                                                                                                                ",
"                                                                                                                                ",
"                                                                                                                                ",
"                                                                                                                                ",
"                                                                                                                                ",
"                                                                                                                                ",
"                                                                                                                                ",
"                                                                                                                                ",
"                                                                                                                                "
};
