/* XPM */
static char *_8253_43411f2d8b86caa39e42858d2cba50e88b509ed467db326c43cd1d3b815520db[] = {
/* columns rows colors chars-per-pixel */
"128 128 92 1 ",
"  c black",
". c gray10",
"X c #1B1B1B",
"o c gray11",
"O c #1D1D1D",
"+ c #1E1E1E",
"@ c #202020",
"# c gray13",
"$ c #232323",
"% c gray14",
"& c gray15",
"* c #282828",
"= c gray16",
"- c gray17",
"; c #2C2C2C",
": c #2D2D2D",
"> c #2F2F2F",
", c gray19",
"< c #313131",
"1 c #323232",
"2 c gray20",
"3 c #373232",
"4 c #3B3131",
"5 c #3F3030",
"6 c #432F2F",
"7 c #472E2E",
"8 c #4B2D2D",
"9 c #4F2C2C",
"0 c #532B2B",
"q c #572A2A",
"w c #5B2929",
"e c #5F2828",
"r c #632727",
"t c #672626",
"y c #6B2525",
"u c #6F2424",
"i c #732323",
"p c #772222",
"a c #7B2121",
"s c #7F2020",
"d c #831F1F",
"f c #871E1E",
"g c #8B1D1D",
"h c #8F1C1C",
"j c #931B1B",
"k c #971A1A",
"l c #9B1919",
"z c #9F1818",
"x c #A31717",
"c c #A71616",
"v c #AB1515",
"b c #AF1414",
"n c #B31313",
"m c #B71212",
"M c #BB1111",
"N c #BF1010",
"B c #C30F0F",
"V c #C70E0E",
"C c #CB0D0D",
"Z c #CF0C0C",
"A c #D30B0B",
"S c #D70A0A",
"D c #DB0909",
"F c #DF0808",
"G c #E30707",
"H c #E70606",
"J c #EB0505",
"K c #EF0404",
"L c #F30303",
"P c #F70202",
"I c #FB0101",
"U c red",
"Y c #FF0500",
"T c #FF0A00",
"R c #FF0F00",
"E c #FF1400",
"W c #FF1900",
"Q c #FF1E00",
"! c #FF2300",
"~ c #FF2800",
"^ c #FF2D00",
"/ c #FF3200",
"( c #FF3700",
") c #FF3C00",
"_ c #FF4100",
"` c #FF4600",
"' c #FF4B00",
"] c #FF5000",
"[ c #FF5500",
"{ c #FF5A00",
"} c #FF6400",
"| c #FF6900",
/* pixels */
"                                                      .                                                                         ",
"                                                                                                                                ",
"                                                                                                                                ",
"                                                                                                                                ",
"                                                                                                                                ",
"                                                                                                                                ",
"                                                                 XX                @                                            ",
"                                                                 XX                @                                            ",
"                                                                                                                                ",
"                                 @@                                                                                             ",
"                                   X                                                                                            ",
"                                   X                                                                                            ",
"                                                                                                                                ",
"                                                                                                                                ",
"                                                               .                                                                ",
"                                                  .@@@@@    +@@*&##%@$$$##                                                      ",
"                                                  .@@@@@    +@@*&##%@$$$##                                                      ",
"                                                 $$&===-&&**;::;<;;-*=11>:**$O+                                                 ",
"                                        @@XX X   &;;333:>>461224777534336122<&*$$@                                              ",
"                                    @X++**&&&-@**=,>443877qw9wwq0rr088ww00664;-,,&$ooo .                                        ",
"                                   X$&:::::::4:44315660w00rrqyyyypppyyyyrrrrw83553<-##$+                                        ",
"                                   X$&:::::::4:44315660w00rrqyyyypppyyyyrrrrw83553<-##$+                                        ",
"                                 XX#:>::3,336e7qq080qqtuppdspppppddfpppppittetwttue7::&@++                                      ",
"                       .       +&**;5<556766eieyyyeyuupdffjgdffddjjjfdffppssaiaddfie55>*&&X                                     ",
"               @@      @     ..#*==:6677qwyypgissahkkkzcllcxzxxzzzzjjdfffggggjkkkjpt99<-**@+X                                   ",
"               @@      @     ..#*==:6677qwyypgissahkkkzcllcxzxxzzzzjjdfffggggjkkkjpt99<-**@+X                                   ",
"              =        .    .@@;1223w9yytupphkfgghxnbbbcvvcxnvvvcllzhjkkgjjjjkbccksy886633;$$                                   ",
"               XX           .&&=>666tussajjjccjjjvbmmmmMnnMmNNNMbbbxxkllhkkkvvMnnxgpwwe9002==                                   ",
"                            $**1399qpshhflccMnbnnmMVVVCNBBNVBBBNMbbmcbzzxvvvMMVNNvdpuurtww6,>@@@                                ",
"                           @&2290eeeafhhgbvvMNMMMNCNCCZABBCAAVVZBBBMbnnnmNMMCVZVVckfuuuryye94**$.                               ",
"                           @&2290eeeafhhgbvvMNMMMNCNCCZABBCAAVVZBBBMbnnnmNMMCVZVVckfuuuryye94**$.                               ",
"                        @@*:2eeitiiydgkkxbMMVZVCCZCZSSDZDDZSSSSAACCmbMmmVZZZAASNNbjfdduuttiyt88=               XX               ",
"                       &228wtggjsffahjvvxNMMVCZSSDSFHHFGFFFHHHHGGAANmNCCCFDDFDAVVvxgdddippuyatt4$@@                             ",
"                      $6ppdkhxxzgkkzlvbbMNCCAFGJJKHJLLKLJJHPPLLLLGGZVAZZFFJJJHDBBMxljjdfaadsgyy6-**@                            ",
"                      $6ppdkhxxzgkkzlvbbMNCCAFGJJKHJLLKLJJHPPLLLLGGZVAZZFFJJJHDBBMxljjdfaadsgyy6-**@                            ",
"                    XX=8iikvkllkzbbcMmmmMVZZADKHHJLIYYIYPPPTYRRTPHHAZDDDDGHHJHFAANmzllkghhsaaii9<,,#                            ",
"                    @@=2wwdkhkkjkbbbNMMMNCZZSFGIIIYUYYTRWWRW!QQEIKKDCDDDSGKKKHFSSBMmzzzzjjjgfttq9>>-@X++                        ",
"                   o--:3qqsjkgghlbbbVNNNmNBBZGHKKLIYTTRQ~~!!Q!!EYKKDCZZZCFHHJJSDDCZMnnxxjjjdsppq0551*=%%                        ",
"                 o.@==<900pjlkkhlbbbVVBBMBZZVCAJJJLIUURW!!!)/^^EYGGZVVCCAHKKHHFGGZAZMMnxxxjkjppuy6652>;;o.                      ",
"                 o.@==<900pjlkkhlbbbVVBBMBZZVCAJJJLIUURW!!!)/^^EYGGZVVCCAHKKHHFGGZAZMMnxxxjkjppuy6652>;;o.                      ",
"              $$$*&=<<4qeethkllkzbbbCCVVNVBBNVZSSDHJIIREQQ^/^~~EPFFSCCSSGJPPJKHFFSDACCMcccxjjhhpiww071--$.                      ",
"              $&&**;338taaijgggjlbbmCZZZVZCCMmNCCZSFKKIYRR^))QQUJDDAVADDHPPPHJGGGDSZVVCMMMcckjjsarrq98<<%o                      ",
"              $%%>:-33yyffakkzzcvbbBZZSSCAZZNNMMMBZAKKIYEE/()QQPJAAAVAHHJLLLKJGGGGDSZZVmmmnvckkfduuiy744;&..        XX          ",
"              $%%>:-33yyffakkzzcvbbBZZSSCAZZNNMMMBZAKKIYEE/()QQPJAAAVAHHJLLLKJGGGGDSZZVmmmnvckkfduuiy744;&..        XX          ",
"              X**=>200ydlllbzzzcbBBVDGHHAFCCAZCNNBBVGGKYQQ~/(WWPGCCCCSDDJLUUKGGFFFSACCABMMcmxzzggfffyq991>&&                    ",
"               $$:,800skccvmmMMMNBBDFHGGHFAASSDDDAVVGGJTQQ/)(EEUFCCCCCAAFHIIJJGFFJFDVVBNMMnbcccklkkfdq8852::@                   ",
"               &&:6etthznnbMMNNBVSSFHJHHJHSSFHJJJJFSJJLRQQ!/!EEIHAAASCSSDJIILHFFFHDSVVBNmmnmxxxxkjjkfuee0744;                   ",
"               ..;1ettjcxxmVVCCVZFFHJJLLKJJJHPPUUPJHJJITQQW~WRRUHFFAAADDJLIILHFDDHHFZZNMmmMmnnnvzxxvlgpptq005&          @@      ",
"               ..;1ettjcxxmVVCCVZFFHJJLLKJJJHPPUUPJHJJITQQW~WRRUHFFAAADDJLIILHFDDHHFZZNMmmMmnnnvzxxvlgpptq005&          @@      ",
"               ..=3wrrhkvvvMMZZFGGGJJLPPUIIIPIUTTTUIUUIURRTWEYYPHHHDDSFFLKIIHHFFFHFFCCNMmmMnbMMMvbbMbchhsuee6,=           $     ",
"                 $29rrajllbVBSSSHJJLLPTTYRIIIYTRRRTUIIIITTITUIIKHFFSFFFFJKKKJDSSSDDDSSCMmmMnMVVBMMMnnbkkdyqq6<,&&       XX      ",
"                 &>9eeigkkcvMZZFKFFLPUYYWEEEERERRRUTTTURRRUUIKKHFDDSHDDDHHLLFFCZZADDAAVmnnMNVAAAVVVMvbkkfy005<<**O              ",
"                 $3800paggjcvNNCFFFLPIIIEERRRRRTTUUUUUTEEEYIIFFDAAAAFFHHJHHHHFSZZCAFSSABnnMCSFFDAZZVbxzzdyww82>**@              ",
"                 $3800paggjcvNNCFFFLPIIIEERRRRRTTUUUUUTEEEYIIFFDAAAAFFHHJHHHHFSZZCAFSSABnnMCSFFDAZZVbxzzdyww82>**@              ",
"                 @50qqisssjccMMCFAAHJLPPTTEEERUPPKKPUUTYEEYIPFFACZZSFJKKUPKKFDFFFASFSSVBMMVDLKKJFFFZMvjjha0002,***#o            ",
"                 =8ewwupddfzznnNVCCADJKKPPIIIYIJJGFPUUUPUUPIJDDDCZZSHIYYRRIIILLLLFFGZZCBNNVDUPPIJFFZMvcchsyy751--%%@..          ",
"               @@$6q00yuaajxxccMNMMNVZFFHHKKJJJSSSDPUUIJJJHKKSSSCBBSJIEEQQEEEYIUUHHGAAZVCCZHTYYILKKGSNnnbzyyw2>==-$$%%..        ",
"               @@$6q00yuaajxxccMNMMNVZFFHHKKJJJSSSDPUUIJJJHKKSSSCBBSJIEEQQEEEYIUUHHGAAZVCCZHTYYILKKGSNnnbzyyw2>==-$$%%..        ",
"               $$&:500wygghzxnnnMnnbmMCCFFDDZDDSSSHLUULFSSAFDAAABVVSLYQQ!^^^~ERTTPHHDDSDFFHIEYYTYPPHFZBBvjppe06==%$$$$#         ",
"               ==:$:44eyhhzbvvvvnbbxbNBBSAAAVZZSSAFLUUIHSSSFDAABnnnCHYEE!Q!!~RYIIPKJFFFKKKYUTRRTYRRUPKZZMxff061;;&@@@@.         ",
"               222*2338ykkxbvvvcvxxlbNBBCCVVVBCSSAFKTTUIJJHFSBBnbbbBDPYYEREEWTUPPPKJJJHLYYTWETTEWRRTJPSSCnkktq3::*$X@@          ",
"               228,255qyzzcbMmmbxllzbNZZVCVVVNVAAFFITTETPPJFCMMnbxxbCSLLUYTTIPPPPKHJKKPITTRERYYIPUUUHPFFDcgge7<<<*X ..          ",
"               228,255qyzzcbMmmbxllzbNZZVCVVVNVAAFFITTETPPJFCMMnbxxbCSLLUYTTIPPPPKHJKKPITTRERYYIPUUUHPFFDcgge7<<<*X ..          ",
"               $$80288tixxcbVNNmcvvbMCSSAAZZZCAAADJIYYEEIILDZMMnmccMBBSSHKUUIPPKKHFHKKPYTTRWRIIHKGGGSKFFDMllu46--$+             ",
"               XX:08iipdkknMAVVNMMMMVAGGFDSSSSAAADJIIITYIIKDZMMnbMMVVNBBFHKKPJKHHHDFJJPPIIUTIKKSSCCZCDVVAMccs04==@              ",
"      @@         &28iipdjjnMACCNZZZZCSHHFDGGGGSSSAHLLLUPPPLDSBBMMMMBVVBBAFHHKGHFFDFSGGKJKKLPIFFBBBBVMNnnMzllgt<**X              ",
"      @@         &28iipdjjnMACCNZZZZCSHHFDGGGGSSSAHLLLUPPPLDSBBMMMMBVVBBAFHHKGHFFDFSGGKJKKLPIFFBBBBVMNnnMzllgt<**X              ",
"     $  X        #;<00ethhzbCCCZZDDDDHJJHSDDKJFSSFJHHHJJHHJFFCCVMVVZBBCCADDDFFFDDACZBBZDDDFGHZZNNMMMbmxxzdaaut*##               ",
"      @@         O*=44tyaahxVVVZFDDKJJHHFZFFKKKKKJJJFFSSFFHHFDDCBZZCCVAAAADDFFFAACBNnnNVCCSSAZZnMmmmcvjjfayy98&                 ",
"                 .$>99qtdddlNSSZFJJKUKJJFCSSKILUUULPHHFSSSFHHJJDDHHFAZDDDDFFFJFDDFCVnnmmBBBBVBBnbccnxcddfrtt82$                 ",
"                  *233ypddjvNZZFJKKYYYKKFSGGITRTTTUPJJHFDDHJIIIKPPPKHHHHDDSSDJLHHLFSVVmnnnMNnbbxbxxnzlhhayww4:@                 ",
"                  *233ypddjvNZZFJKKYYYKKFSGGITRTTTUPJJHFDDHJIIIKPPPKHHHHDDSSDJLHHLFSVVmnnnMNnbbxbxxnzlhhayww4:@                 ",
"                 @:566eeppfkvNNZGKKLYTLLKHLLUTRTTRPKJJJHJJHKITTYRWWRYIIILDZZAJPUUUKHZZmvzzvvvzzlzxxzzkggftyy81o         XX      ",
"               @@$;511wtaahkvNNZGHHIIRTTKJLLUYYRRUKGDDGFKKPIEWWE~!!!!EYYKAVVZKREEEILSSmzllxzzxxlxcczgfpppt0052$        X  =     ",
"              o$$&:43349iisgzmmVDJJKYRIILKJJKIIPPKJDDDJHUUIYW~~E(^^((QRRKSVVDPTQQETLGGNnxxxkxcczxlljhfpppqqq<1*         $$      ",
"              o$$&:43349iisgzmmVDJJKYRIILKJJKIIPPKJDDDJHUUIYW~~E(^^((QRRKSVVDPTQQETLGGNnxxxkxcczxlljhfpppqqq<1*         $$      ",
"            .&@&&*>1114699efkbbMZJJPUEUUIHSSHJHKKJJJKKPITTEW!~~W~^^`(!EEKFSSFLW~~QTLGGCMMMbxcbbblzzkdsyyu944>,&                 ",
"             $*$$::1;;-;77wudvvMZFFLYTYYUJFFADSFFDJPUUTRWW~/~//~/((`(QYYKDFFHIWQQEUPSSCVBBMncbbczjjhfpttw866=$                  ",
"            X+$&&*-<&&=-,,4taxxnCDDUIERRYJFFSADSSDKURRRQQQ~/(///~//)(!TTHSHHJPTEERIJFFZCBBVBNmmvkzzkfi00w311$                   ",
"             X ++$@*##$$**38phhbSHHIYYEEYIJJHFDSSDKTWWW~QQ~~/)))(//)!WIIFDDDJKTUUIJGCCNBCCBMmnnvcllfur0051&&                    ",
"             X ++$@*##$$**38phhbSHHIYYEEYIJJHFDSSDKTWWW~QQ~~/)))(//)!WIIFDDDJKTUUIJGCCNBCCBMmnnvcllfur0051&&                    ",
"                        XX;2eggcCGGYPRTTWTPPLJSSSDKE~~~^QQQQ^(()(((~~TJJDAAADJPJJKSAVVmNVVZMmbbvkggdur444*$$                    ",
"                          $3tffcZSSPUITTYWYYUJDDDFPRQQ~~WWQQ^)))^^^~EIJJFASSSFFSSZVBmmnMBBNmmbbljggiw833:&++       $            ",
"                          +<eddcBFFHPIIIYTTTUIDAASKE!!!!RRERE^^^^^^!EPKKGFGGGSABBMbmbbbcNNMccxxzsppiw611=$        $X==          ",
"                          +<eddcBCCHKJIIPTIIYLFAADLTQQQEPPIIE!!/^))/!IKKKFFFGZZnnzzxllkxMMvcxxxgdiiq82--$.         $            ",
"                          +<eddcBCCHKJIIPTIIYLFAADLTQQQEPPIIE!!/^))/!IKKKFFFGZZnnzzxllkxMMvcxxxgdiiq82--$.         $            ",
"                          $-8ppknNNZFJJJKLLLPLFFFHLYEEETKKLIR!!()``_(EYYPKGGHSVbbxljkkhkmmcxjjjhyqq8<:;;%.                      ",
"                          @>0tthvvvVDFJJFGJJHJLHHKPTTTWTYYTRQ~~(_{{{`/WWYLHHABBnncxlhhgjvvzxhjjpt552>;$$@                       ",
"                          *-6qqdgzzmCSGGSDGGFHJIILPUTTYYRRRQ^((_[{{}[_~~YPGGZNMmmnlhggjjcckgaaaw8441*$@@X                       ",
"                          *-6qqdgzzmCSGGSDGGFHJIILPUTTYYRRRQ^((_[{{}[_~~YPGGZNMmmnlhggjjcckgaaaw8441*$@@X                       ",
"                          @<900ygggbmNAASFDDSFKLLIYPPPPUTTWQ^((_'|||}`((QIHHSVBnncczjjjghhaap9961>>-%@..                        ",
"                          $;5qqyaggjvbMMASAADGHKKLJJHHHKPPYW~^^)'{{}['))EYLLFZVMMmxlkkhfffurw33-:##$..                          ",
"                          X=499russfjlmmMASSADLHHGJZZZZSDDLYQ~~^)]]]{'//EUJJDSBmmmmbvvjfiiw87::&@                               ",
"                          @*588qyyydgkllmMBBZSDSSFDCCCVZSSJLTTT!!//((/QQYJHHZABVVVMMlljiiiw21&&              $                  ",
"                          @*588qyyydgkllmMBBZSDSSFDCCCVZSSJLTTT!!//((/QQYJHHZABVVVMMlljiiiw21&&              $                  ",
"                          @=1449tttufhkkzmNNCADAAZVVBBBCAAFJJIIUUEEEQTYYHFZZZVNVVCABzzdptt8;*@@             @                   ",
"                          &<11188qquighhlzbbmNCBBNMVBBZBCCAAGGGHIIIIILGGZNNNMBMNNCVnhhfw887*=                                   ",
"                        oo*->;;68qqeiiaafjzzczvmmbvMnnMmNNMBVZZDKKKKFASSVMMMmNmMMVBvhhyw77,&&                                   ",
"                        oo*->;;68qqeiiaafjzzczvmmbvMnnMmNNMBVZZDKKKKFASSVMMMmNmMMVBvhhyw77,&&                                   ",
"                        @@#::::2166eeippfsggjglkkcbMmmNcnnvvMNNZHHHHSCCCCMMMbMbVVBMxggy622<&                                    ",
"                        %%&;;**>,66009qqtwyypysggkxbvvblxxxxbmmVDDDDDCCCmmccvcvbbnkdyyt7::=.          @@                        ",
"                        $$@&&**-&,,31788q8wwytiaagkjxxvhllkccmmmZZZZZCMMmccckxbxxcfieee4**&          $  $      $$               ",
"                        ++X##$$&#:::-,-->14498wwwtifcclkjjzzbvvMAAAAAMMMxxjjkgvjjji7115-++.           $$      =XX=              ",
"                        ++X##$$&#:::-,-->14498wwwtifcclkjjzzbvvMAAAAAMMMxxjjkgvjjji7115-++.           $$      =XX=              ",
"                        XX   ++#X@@$$$++$*;;28899qtpkkjhlljcxbbbVVVVNMvvxjjjfggddyw2==:*..                     $$               ",
"                             ..X          @@&::::49tffshggjjzzzznnnVBbcchhaadidwwq1&%%*@@@+                                     ",
"                                            .$$%%:28iidpssussddzznnnbbjjhassyueww4<$@@#   X                                     ",
"                                            .$$%%:28iidpssussddzznnnbbjjhassyueww4<$@@#   X                                     ",
"                                               $$%1,qqt0wweuuaaskkkvvkkkasyyye0441*@..o ..                                      ",
"                                                 .*&2257995eeyyiipphhjjjsyyyw8,22:#o    ++ X                                    ",
"                           X                      o#&&=>1136qwweettddgjjsyqq83<--&@                                             ",
"                                                    $$#@::*26333000yyippye995<:&&@                                              ",
"                                                    $$#@::*26333000yyippye995<:&&@                                              ",
"                                                        @@&*;>>2166w09008833,=$++@.                                             ",
"                                         X                  @$$&,;;1434422::*@$XX+                                              ",
"                                   $      @@                 ..@#-->-122*;&&*@@..X                                              ",
"                                 ==X$                            &&@%&****@@&O+@@.                                              ",
"                                 ==X$                            &&@%&****@@&O+@@.                                              ",
"                                   $                             OO @ @@o$@@%#$OO.                                              ",
"                                                                      XX $@@$#*%%                                               ",
"                                                                         &@@%$%##                                               ",
"                                                                         &@@%$%##                                               ",
"                                                                         @ooX+@        @                                        ",
"                                                 $                       #            X ==                                      ",
"                                               ==X=                                    $                                        ",
"                                                 $                                                                              ",
"                                                 $                                                                              ",
"                                                                                                                                "
};
