/* XPM */
static char *_878_1d5a638402cfa0685162c564ad68c0f78a0d64402bc7159a734739a73c3ecc52[] = {
/* columns rows colors chars-per-pixel */
"128 128 35 1 ",
"  c black",
". c #BB1111",
"X c red",
"o c #FF7D00",
"O c #FFDC00",
"+ c yellow",
"@ c #FFFF1E",
"# c #FFFF2D",
"$ c #FFFF55",
"% c #FFFF69",
"& c #FFFF6E",
"* c #FFFF78",
"= c #FFFF7D",
"- c #FFFF87",
"; c #FFFF91",
": c #FFFF9B",
"> c #FFFFA0",
", c #FFFFA5",
"< c #FFFFAA",
"1 c #FFFFAF",
"2 c #FFFFB4",
"3 c #FFFFB9",
"4 c #FFFFBE",
"5 c #FFFFC8",
"6 c #FFFFCD",
"7 c #FFFFD2",
"8 c #FFFFD7",
"9 c #FFFFDC",
"0 c #FFFFE1",
"q c #FFFFE6",
"w c #FFFFEB",
"e c ivory",
"r c #FFFFF5",
"t c #FFFFFA",
"y c white",
/* pixels */
"                                                                                                                                ",
"                                                                                                                                ",
"                                                                                                                                ",
"                                                                                                                                ",
"                                                                                                                                ",
"                                                                                                                                ",
"                                                                                                                                ",
"                                                                                                                                ",
"                                                                                                                                ",
"                                                                                                                                ",
"                                                                                                                                ",
"                                                                                                                                ",
"                                                                                                                                ",
"                                                                                                                                ",
"                                                                                                                                ",
"                                                                                                                                ",
"                                                                                                                                ",
"                                                                                                                                ",
"                                                                                                                                ",
"                                                        yy+y                                                                    ",
"                                                       o==;=o   y++y                                                            ",
"                                                       o==;=o   y++y                                                            ",
"                                                       $ww1w$  o=;;=o                                                           ",
"                                                       y**78$oo;<;;<$                                                           ",
"                                                       4004y;;;84>><y       y+y                                                 ",
"                                                       4004y;;;84>><y       y+y                                                 ",
"                                         o44y4o        $;;yy40007884yy    44>;=$$                                               ",
"                                      yy$4444<=++o     $;;04:yy0000yy$   o==444yy                                               ",
"                                     $==4766844<<;oo44$;44yw6ww8wqqww$oo.;00><;yy4                                              ",
"                                     $<<91rr738rr<;;88:044wywyyerrr9r088878875811>o                                             ",
"                                     $<<91rr738rr<;;88:044wywyyerrr9r088878875811>o                                             ",
"                                   yy$<<69rre57000yw>>75rrryyyyryyyrw9qq59qq977664$    y44+y                                    ",
"                                 44>ywww41yy0ewyyyyy880rtttyyyyyyyyey9tt0w0095966<+   yy>>;=$                                   ",
"                                y00=6644yerr0eyyyyyyyytettrryyyyyyytyqeetyttw0q44*+ yyy=774;y                                   ",
"                                y00=6644yerr0eyyyyyyyytettrryyyyyyytyqeetyttw0q44*+ yyy=774;y                                   ",
"                                yyy22,eeer00weyyyyyyyyryeerttyyyyyyyyeyyryyyr0822&;$yy84::7#$                                   ",
"                               4>yy757yyyreettyyyyyyyyyrttyyyyyyyyyyyryywyyyyrq992046689&&04                                    ",
"                             $$>0yy74700yyeetyyyyyyyyyyyyyyyyyyyyyyytytttyyyyyweewqwww56**o                                     ",
"                             yy;;9984899yyrrtyyyyyyyyyyyyyyyyyyyyyyytyyyyyyyyyerrtee0056$$o    o4yyy                            ",
"                             yy;;9984899yyrrtyyyyyyyyyyyyyyyyyyyyyyytyyyyyyyyyerrtee0056$$o    o4yyy                            ",
"                             $$=<44690rryyyytyyyyyyyyyyyyyyyyyyyyyyytyyyyyyyyyyyyreeww9w44   oo$4ww=$                           ",
"                               4;##4rqeeyyyyyyyyyyyyyyyyyyyyyyyyyyyyeeyyyyyyyyyyyyryrryy$$y$4;;4066<$                           ",
"                               o$44-6yqqyyyyyyyyyyyyyyyyyyyyyyyyyyyyeyyyyyyyyyyyyyyyyyyy;;$0877eyyy704                          ",
"                               o$44-6yqqyyyyyyyyyyyyyyyyyyyyyyyyyyyyeyyyyyyyyyyyyyyyyyyy;;$0877eyyy704                          ",
"                               $4,,480yyyyyyyyyyyyyyyyyyyyyyyyyyyyyyyyyyyyyyyyyyyyyyrryr44yeyyywyyye7y$$                        ",
"                            y$$4>00780ttyyyyyyyyyyyyyyyyyyyyyyyyyyyyyyyyyyyyyyyyyyyyyyyerryyy00ry66w9wyy                        ",
"                            y449700q00eeyyyyyyyyyyyyyyyyyyyyyyyyyyyyyyyyyyyyyyyyyyyyyyyyyyyyyyyeyww694yy                        ",
"                            08889qqwrqttyyyyyyyyyyyyyyyyyyyyyyyyyyyyyyyyyyyyyyyyyyyyyyyyyyyyyyyw688814yy                        ",
"                            08889qqwrqttyyyyyyyyyyyyyyyyyyyyyyyyyyyyyyyyyyyyyyyyyyyyyyyyyyyyyyyw688814yy                        ",
"                            =444reereqyyyyyyyyyyyyyyyyyyyyyyyyyyyyyyyyyyyyyyyyyyyyyyyyyyyyyyyyyyw8864y                          ",
"                           o>88wqyyytyyyyyyyyyyyyyyyyyyyyyyyyyyyyyyyyyyyyyyyyyyyyyyyyyyyyyyyyyyy66614+                          ",
"                           ;;770qyyyyyyyyyyyyyyyyyyyyyyyyyyyyyyyyyyyyyyyyyyyyyyyyyyyyyyyyyyyyyyr>44;>444                        ",
"                          y:700wyyyyyyyyyyyyyyyyyyyyyyyyyyyyyyyyyyyyyyyyyyyyyyyyyyyyyyyyyyyyyyyt077<-->>$                       ",
"                          y:700wyyyyyyyyyyyyyyyyyyyyyyyyyyyyyyyyyyyyyyyyyyyyyyyyyyyyyyyyyyyyyyyt077<-->>$                       ",
"                        44*75wwwyyyyyyyyyyyyyyyyyyyyyyyyyyyyyyyyyyyyyyyyyyyyyyyyyyyyyyyyyyyyyyyt7661>><<y                       ",
"                   yyy4$;;:2077wyyyyyyyyyyyyyyyyyyyyyyyyyyyyyyyyyyyyyyyyyyyyyyyyyyyyyyyyyyyyyyyye001>1$$4                       ",
"                  $=ww$4==740wwryyyyyyyyyyyyyyyyyyyyyyyyyyyyyyyyyyyyyyyyyyyyyyyyyyyyyyyyyyyyyyyyt7724:==o                       ",
"                  $=ww$4==740wwryyyyyyyyyyyyyyyyyyyyyyyyyyyyyyyyyyyyyyyyyyyyyyyyyyyyyyyyyyyyyyyyt7724:==o                       ",
"                  y;44:4$$<18wwyyyyyyyyyyyyyyyyyyyyyyyyyyyyyyyyyyyyyyyyyyyyyyyyyyyyyyyyyyyyyyyyyyrr678::=4                      ",
"                  4>44-;;;;$4eeyyyyyyyyyyyyyyyyyyyyyyyyyyyyyyyyyyyyyyyyyyyyyyyyyyyyyyyyyyyyyyyyyeyyyq0554>$$                    ",
"                 y;$yy8;;;8;eyyyyyyyyyyyyyyyyyyyyyyyyyyyyyyyyyyyyyyyyyyyyyyyyyyyyyyyyyyyyyyyyyyyeyyywe<<4wyy                    ",
"               $$=<;yy4*;;887yyeyyyyyyyyyyyyyyyyyyyyyyyyyyyyyyyyyyyyyyyyyyyyyyyyyyyyyyyyyyyyyyyy0yy909447y$$                    ",
"               $$=<;yy4*;;887yyeyyyyyyyyyyyyyyyyyyyyyyyyyyyyyyyyyyyyyyyyyyyyyyyyyyyyyyyyyyyyyyyy0yy909447y$$                    ",
"               yy;4744y$**w&7yyyyyyyyyyyyyyyyyyyyyyyyyyyyyyyyyyyyyyyyyyyyyyyyyyyyyyyyyyyyyyytyyre00w64>>yy                      ",
"               $$=<*004$$$7>9yyryyyyyyyyyyyyyyyyyyyyyyyyyyyyyyyyyyyyyyyyyyyyyyyyyyyyyyyyyyyywyyy899614444                       ",
"                 y$+444$==746ww0yyyyyyyyyyyyyyyyyyyyyyyyyyyyyyyyyyyyyyyyyyyyyyyyyyyyyyyyyyyyyyyw9yy9,4<<y                       ",
"                 y$+444$==746ww0yyyyyyyyyyyyyyyyyyyyyyyyyyyyyyyyyyyyyyyyyyyyyyyyyyyyyyyyyyyyyyyw9yy9,4<<y                       ",
"                       oyy>-;ww5reeyyyyyyyyyyyyyyyyyyyyyyyyyyyyyyyyyyyyyyyyyyyyyyyyyyyyyrryeyyyyw66y4>;;4                       ",
"                        yy4;*445reeyyyyyyyyyyyyyyyyyyyyyyyyyyyyyyyyyyyyyyyyyyyyyyyyyyyyyttrtyyyyyyy64%**$                       ",
"                          o$;,,8rrryyyyyyyyyyyyyyyyyyyyyyyyyyyyyyyyyyyyyyyyyyyyyyyyyyyyyyyteyeeryqq6:=::>$                      ",
"                          y45669tttyyyyyyyyyyyyyyyyyyyyyyyyyyyyyyyyyyyyyyyyyyyyyyyyyyyyyttyyyttq0771&;66wy                      ",
"                          y45669tttyyyyyyyyyyyyyyyyyyyyyyyyyyyyyyyyyyyyyyyyyyyyyyyyyyyyyttyyyttq0771&;66wy                      ",
"                          y4400eettyyyyyyyyyyyyyyyyyyyyyyyyyyyyyyyyyyyyyyyyyyyyyyyyyyyyyyyyyyyye088*#;<<y$                      ",
"                          y47wwewyytyyyyyyyyyyyyyyyyyyyyyyyyyyyyyyyyyyyyyyyyyyyyyyyyyyyyyyyyyttw7yyyX+$$y                       ",
"                          y72eeqwyyeryyyyyyyyyyyyyyyyyyyyyyyyyyyyyyyyyyyyyyyyyyyyyyyyyyyyyyytww54>>y.y                          ",
"                          y72eeqwyyeryyyyyyyyyyyyyyyyyyyyyyyyyyyyyyyyyyyyyyyyyyyyyyyyyyyyyyytww54>>y.y                          ",
"                          y$<2290eertyyyyyyyyyyyyyyyyyyyyyyyyyyyyyyyyyyyyyyyyyyyyyyyyyyyyyyyyee0088>@4                          ",
"                            $4448;;yqyttyyyyyyyyyyyyyyyyyyyyyyyyyyyyyyyyyyyyyyyyyyyyyyyyyyyyytt5477:->$$                        ",
"                               oy++w7reeyyyyyyyyyyyyyyyyyyyyyyyyyyyyyyyyyyyyyyyyyyyyyyyyyyyrrrrey7746wyy                        ",
"                                 ooy8twwyyyyyyyyyyyyyyyyyyyyyyyyyyyyyyyyyyyyyyyyyyyyyyyyyywryqqr9;;;<y$$                        ",
"                                 ooy8twwyyyyyyyyyyyyyyyyyyyyyyyyyyyyyyyyyyyyyyyyyyyyyyyyyywryqqr9;;;<y$$                        ",
"                                 oo0wyrryyyyyyyyyyyyyyyyyyyyyyyyyyyyyyyyyyyyyyyyyyyyyyyyyyr7rrr7100y$y                          ",
"                                 $$40yyyyyyyyyyyyyyyyyyyyyyyyyyyyyyyyyyyyyyyyyyyyywyyyyyyywyyww6444                             ",
"                                 $$e5tyyyyyyyyyyyyyyyyyyyyyyyyyyyyyyyyyyyyyyyyyyyttryyyyyy65r9944                               ",
"                                 $$r6qttyyyyyyyyyyyyyyyyyyyyyyyyyyyyyyyyyyyyyyyrrqey6600ee64wyy$                                ",
"                                 $$r6qttyyyyyyyyyyyyyyyyyyyyyyyyyyyyyyyyyyyyyyyrrqey6600ee64wyy$                                ",
"                                 $$w8wwwyeyyyyyyyyyyyyyyyyyyyyyyyyyyyyyyyyyyyytrrew711y7001ey>>+                                ",
"                                oyy99wwwrwyyyyyttyyyyyyyyyyyyyyyyyyyyyyyyyyyyyeww75=***yee66:88$4                               ",
"                                +<<24wqqreyyyryyyyyyyyyyyyyyyyyyyyyyyyyyyyyyytt9974@$$08ee424447#$$                             ",
"                                +<<24wqqreyyyryyyyyyyyyyyyyyyyyyyyyyyyyyyyyyytt9974@$$08ee424447#$$                             ",
"                                ;1120wqqrqyyyqrrryyyyyyyyyyyyyyyyyyyyyyyyyyyyyy6664ooo$$yy106116;yy                             ",
"                               y$445q700e8eey78ttrrryyyyyyyyyyyyyyyyyyyyyyyyyyy99-4   oo$$w74<<<=$$                             ",
"                               y46662588w0qqr90yyrqryyyyttyyyyyyyyyyyyyyyyyyyeq<<>y     $$+y$$$$y                               ",
"                               y;6614>qq77887;0000ttyyytwwrtyyyyyyyyyyyyyyyyye0>>4                                              ",
"                               y;6614>qq77887;0000ttyyytwwrtyyyyyyyyyyyyyyyyye0>>4                                              ",
"                               $=<<7y4449644y>;ee27rrryy8890twwytttyyyyyyyyyyr666$                                              ",
"                                y$$44y88=y;;0$*<<;rr66w955000qqrrqqryyyyytyyyw777o                                              ",
"                                   o4y44yy44y-$>>8y477461185<339777etrtt0yqqr94$$o                                              ",
"                                   o4y44yy44y-$>>8y477461185<339777etrtt0yqqr94$$o                                              ",
"                                          yy81<44y$O$$>$>>>>7997700eeweerwqqtw>$$o                                              ",
"                                          $$=;=44  .$$@@$$$oy77<5665ey00ew00yq4$$$                                              ",
"                                            y+y    $yy$@++  y$$>46659099rqwww0188;                                              ",
"                                                   $;;=$++     o$$$>7655t6www64ee*o                                             ",
"                                                   $;;=$++     o$$$>7655t6www64ee*o                                             ",
"                                                   4004=++         oy=::675564166<y                                             ",
"                                                   y**7*$$           o$$#477404ww=$                                             ",
"                                                   $ww1w$$              o+yy4$4yyy                                              ",
"                                                   $ww1w$$              o+yy4$4yyy                                              ",
"                                                   o==;=oo                                                                      ",
"                                                    yy+y                                                                        ",
"                                                                                                                                ",
"                                                                                                                                ",
"                                                                                                                                ",
"                                                                                                                                ",
"                                                                                                                                ",
"                                                                                                                                ",
"                                                                                                                                ",
"                                                                                                                                ",
"                                                                                                                                ",
"                                                                                                                                ",
"                                                                                                                                ",
"                                                                                                                                ",
"                                                                                                                                ",
"                                                                                                                                ",
"                                                                                                                                ",
"                                                                                                                                ",
"                                                                                                                                ",
"                                                                                                                                "
};
