/* XPM */
static char *_0251_525d9dbe054c2a37df411650f2f0247fd06fb5c6836750e93bed02adb85383b6[] = {
/* columns rows colors chars-per-pixel */
"128 128 53 1 ",
"  c black",
". c gray10",
"X c #1B1B1B",
"o c gray11",
"O c #1D1D1D",
"+ c #1E1E1E",
"@ c #202020",
"# c gray13",
"$ c #232323",
"% c gray14",
"& c gray15",
"* c #282828",
"= c gray16",
"- c gray17",
"; c #2C2C2C",
": c #2D2D2D",
"> c #2F2F2F",
", c gray19",
"< c #313131",
"1 c #323232",
"2 c gray20",
"3 c #373232",
"4 c #3B3131",
"5 c #3F3030",
"6 c #432F2F",
"7 c #472E2E",
"8 c #4B2D2D",
"9 c #4F2C2C",
"0 c #532B2B",
"q c #572A2A",
"w c #5B2929",
"e c #5F2828",
"r c #632727",
"t c #672626",
"y c #6B2525",
"u c #6F2424",
"i c #732323",
"p c #772222",
"a c #7B2121",
"s c #7F2020",
"d c #831F1F",
"f c #871E1E",
"g c #8B1D1D",
"h c #8F1C1C",
"j c #931B1B",
"k c #971A1A",
"l c #9B1919",
"z c #9F1818",
"x c #A31717",
"c c #A71616",
"v c #AB1515",
"b c #AF1414",
"n c #B71212",
/* pixels */
"                                                                                                                                ",
"                                                                                                                                ",
"                                                                                                                                ",
"                                                                                                                                ",
"                                                                                                                                ",
"                                                                                                                                ",
"                                                                                                                                ",
"                                                                                                                                ",
"                                                                                                                                ",
"                                                                                                                                ",
"                                                                                                                                ",
"                                                                                                                                ",
"                                                                                                                                ",
"                                                                                                                                ",
"                                                                                                                                ",
"                                                                                                                                ",
"                                                                                                                                ",
"                                                                                                                                ",
"                                                               .                                                                ",
"                                              .                Oooo     o$OO                                                    ",
"                                              @oo      o##@#X@@@@@@XXXXX@@##O                                                   ",
"                                              @oo      o##@#X@@@@@@XXXXX@@##O                                                   ",
"                                             .$@@O. ooX@%%$$$$$$$$$$++%%$%&&@$                                                  ",
"                                         .  O@*$$#+o@@@$****&&&&&&&&*****===%*$++.                                              ",
"                                          ..#$=&&%$&$$$&--==>>>:===------;;;*-*$$+                                              ",
"                                          ..#$=&&%$&$$$&--==>>>:===------;;;*-*$$+                                              ",
"                                         +++%&;==*&=**-=:::::::::::===------;>-&&$O+..                                          ",
"                                      OOO$$$==:--==;--=*::<<,,,,<;;::::::>>>,;:==-&#OO                                          ",
"                                 XX.+O$$$***--<>>:->:::;,,4433333,,;:;111111:>-;;*=&##O@XX .                                    ",
"                               . XX@O$##&---,>211,>1::<,33665665622,<,4444,,<::---**&&*$@@o@.                                   ",
"                               . XX@O$##&---,>211,>1::<,33665665622,<,4444,,<::---**&&*$@@o@.                                   ",
"                            @oo#+##+$*&&==::;1<33214,,32555099999553,3222233,,;::=-***%&$$@o XX .                               ",
"                          O&-&&*%**$*&%%=:--,32665462265998wqqqqq885255545112>,--;=-***%**%#O@@.                                ",
"                          X&=::*=&&=&===;-,,>25447604498wwqteeer0qq844444444<1:,,-:=--**&&$%#$$+                                ",
"                          X&=::*=&&=&===;-,,>25447604498wwqteeer0qq844444444<1:,,-:=--**&&$%#$$+                                ",
"                        ..&:<==-&--*-=**-,::1547709w88q0rrrutttyw007788888444<<::>-:==-*==&$%@@#o                               ",
"                          +&=;;*=**-=:--,>22<47559wtrreuyyyiiiiiwrr74444448844<<<>,-::=-**$&$$$+.                               ",
"                       ...#*;**-*--=:;-->31157600wtriipiddshfaaiyrr855554488734<<1:,--:=--*$%@@$O                               ",
"                          O$*--*-==:-,>>2211436009wiuuidssagfffdutt95499887777344<<:,,-*==&&$$$@X  .X                           ",
"                          O$*--*-==:-,>>2211436009wiuuidssagfffdutt95499887777344<<:,,-*==&&$$$@X  .X                           ",
"                       .XX@&=**->;;<,31111<<447669wtiipdssgjjggiutt84888700066233<<<::,;**=&&$$%@ooO.                           ",
"                      .   O$*--=;--,:1<<55444477759trrypddgjjssprttw98qq9988956334<<;;:---*=&&&$@XXoO.                          ",
"                      .+OO#&=>>;<>>2154443333377765ettupddgjjddutqq88q6698ww856664<<<<1>--;*&&&$+@@#O                           ",
"                      .+OO#&=>>;<>>2154443333377765ettupddgjjddutqq88q6698ww856664<<<<1>--;*&&&$+@@#O                           ",
"                       Ooo@&=::<>2264322666655600660wwryssgjfdduwww8887798qq89677844<<1>,,;*=&&&$@@@O                           ",
"                       O##%=;<<>2<<436665000999ee900wwrtaafffdduqww8887708qq896778444412,,,;===&$%%&O                           ",
"                       o@@$*-,,2644755009999wwqttqwwttuiaaffaiiy0qq8887708qq79677734445233,;:==-*$$&O                           ",
"                      O#%%*->22<42254988wwwwqteeeerrrruiaaaaaiiyeqqq776698qqq9777778445233,,:::-*==&$+..                        ",
"                      O#%%*->22<42254988wwwwqteeeerrrruiaaaaaiiyeqqq776698qqq9777778445233,,:::-*==&$+..                        ",
"                    OOo@$$*-:11475598wqqtrrrreyyytyeuuytiiiiittwe00q70999qqqw97777674452334<<::>-**&#O..o                       ",
"                    oo@%**->255465587099eeuueutttiiyyyyyyyyytyye9qqqq00098ww808448374442334<<11>-**=&$@@X                       ",
"                   +##@%**->1447099wqrwwytyyyytyyttyyyyyyyywwee00qq777qq9888979559373341224,<11:,;;=&$++@X                      ",
"                   .OO@%**->1447099w0ewwytiiyyyeeyewyyyttttweqq8888888qq0999688559477741223,<<<2,<<>-*$$O@                      ",
"                   .OO@%**->1447099w0ewwytiiyyyeeyewyyyttttweqq8888888qq0999688559477741223,<<<2,<<>-*$$O@                      ",
"                  XO@@$%**-=:<<365597reeyyyyywwrrq0eyyytqqtweqq899998800000078q88847444<113344413<<:-*$$$@XX                    ",
"                 O@###$&**;-:11475508q000eeeeerww98eyywywwww9qq899998qeewwee00e996374445663774463442,-==$&XX                    ",
"               @@$$$$$%*==:->::<422659887qqq00q9998eyyer0090077845580ettrrttwww889774455666067757441,-==-*oo                    ",
"               @@$$$$$%*==:->::<422659887qqq00q9998eyyer0090077845580ettrrttwww889774455666067757441,-==-*oo                    ",
"               $$=*$$$&*-->:,>>15,,336554888888999qeyyrw997q788465589wrruyeerqqww967884900900779788632<<;*OO                    ",
"               ==:=&%%&-::<>1,,21<<442554444449998qeyyeq9948844633340wrreerrtew99900778wwwww9008088632<<:=%%@                   ",
"               222,***=:<<2<2<<3211542555555559999qeyyw9qq784553,44579qqrrtteq000e00qq7qttrwe00e0wwq88<<:-&&@.                  ",
"                 X#$$$*-::413<<4322542554555559999qeyyrwee684663,,,347669weeqq00000q000rrrrtwrrq988588<<:-**#X                  ",
"                 X#$$$*-::413<<4322542554555559999qeyyrwee684663,,,347669weeqq00000q000rrrrtwrrq988588<<:-**#X                  ",
"                 X&=-->,11134114322546444444449999qeqqrqww084663,,,2544479990r0000qq000eeeeqw007588586<<:-**$o                  ",
"                   O$$2233345224322535444988888999q0wwqqww974663,22265448600000667qw7700rrrqe007533525>>;=**$+                  ",
"                   X$$&*--3><224366536444877778999q099w89907455222226544837760077888887qqqq8966352251,;;-***$@                  ",
"                   X$$&*--3><224366536444877778999q099w89907455222226544837760077888887qqqq8966352251,;;-***$@                  ",
"                   .@@$&**-:<224366576554988q0qww8qqqq000067844526666544948877788499449888w80664<::,;>--=*&&$@                  ",
"                       o@@=*<224366577555988q9eee090qq88887777785555554494887778855566655505533,<::,-:--*&$$@o                  ",
"                       X@@$*-::<4776876660880wwttww9qq84444700008888888884887668844533432266633,;::=-:==*$@@O.                  ",
"                          $@=::<4776876669qq9wtrrtw977888870wwweeeee0000084480500778223444444,,;;**=&*$$@o                      ",
"                          $@=::<4776876669qq9wtrrtw977888870wwweeeee0000084480500778223444444,,;;**=&*$$@o                      ",
"                          o@=**-,226rq6669qqeqrrrw9q888qqq0ewttttrrittqq9844809www974425111<<--;***=&*$$@o                      ",
"                          oX%==;<337re0009qqewtqqwq99980eewytiiiappfpyrre855408qqqq9441411211;;:*==%&&$$@o                      ",
"                           X&$$*-33708qq0088q9wee0q999wryyiiiaaafddggiuuw85590wrrrt97743<<11:::**%%&&$++X                       ",
"                           X&$$*-33708qq0088q9wee0q999wryyiiiaaafddggiuuw85590wrrrt97743<<11:::**%%&&$++X                       ",
"                            @%%*;,,309qqqq99wqtqqqqqqqruiisaaffafggkfsuuyq998eqrrrre7742,,<<:***=&&@#$@@X                       ",
"                            $@@%*,,379eeqq00eeeeeeqruupyssafdfffjggkfduuy077qetrrrqe884133,-:**=%&&#$+XX                        ",
"                            +##&*--,70eeqq00rreeeeryppiissgjhhhhjggkgpiiurqq0wtrrrq08852,,--*$$%&##$+@oo                        ",
"                            .OO#%;;,30eeq000rreeewryiisiggafhhhhhgggdattrqqq09qqqw80442,,,-**%%&###+@X                          ",
"                            .OO#%;;,30eeq000rreeewryiisiggafhhhhhgggdattrqqq09qqqw80442,,,-**%%&###+@X                          ",
"                            X@@$&**<3099q000rreeewrissassssgdhhzzzzhgiuutwww70e99068443,--**%@@#$++@X                           ",
"                             XXO*==<36997000eeeeewrpssssddpsfjjhjhhfsyrrtwww8qq8844422,;;;*%&##$+++Xo                           ",
"                             oo@*==<476687009errretpiisiuuufsggkkkkgdutttwww88966222,,-***&&#OO+@XXo                            ",
"                             oo@*==;,266476609rrretsiidstttsdhhhjhhhfstttqqq79544,,,;;:=%%&#$++@X                               ",
"                             oo@*==;,266476609rrretsiidstttsdhhhjhhhfstttqqq79544,,,;;:=%%&#$++@X                               ",
"                             XX+*==;,311546650reewtsppdspptddjjdjzzzjfiirtww842,,<<;::=&&&$+@XXo                                ",
"                             ..O*==*->11<433659eewtuyypsddisdjjfxzzczjffitww953<<11:==&&##$+Xoo                                 ",
"                               O@$$*->::1,3336088qqiuupusssfdjjjxvvcczffutee064<<1:>--&$$$@@O  .                                ",
"                               O@$$*->::1,3336088qqiuupusssfdjjjxvvcczffutee064<<1:>--&$$$@@O  .                                ",
"                                @$$*&-:::,,,32599wqtrriissspkxxjvvvnvxffdtee075112:-&&$$@@@X+..                                 ",
"                                X@@$*-==:;,,,365599w88wwttidfkkjxvvvbjffdyrr08522>-;**$@@@XO.                                   ",
"                                X@@$$&--=:--,,2660505500eeypdggfkkkclgddpurr75133,-*$$@@XXO.O..                                 ",
"                                 XX@$*&&-=::;;,44737227600eytppfdjjjkfaaurqq963,,;*=&&@$OO X                                    ",
"                                 XX@$*&&-=::;;,44737227600eytppfdjjjkfaaurqq963,,;*=&&@$OO X                                    ",
"                                 oo@@$$$&&==::<<<<<4,,436600euuuaaaasirr078863,11:=&##O+  . .                                   ",
"                                   o#@%%$*&&-=::::::;;<<44760000rrrrtyqq95112,;::=&*$$+@..                                      ",
"                                     $@@&%$$*&&&&&&=:::1<<4488877qq7899912>>,-:==&*$@@.o                                        ",
"                                     $@@&%$$*&&&&&&=:::1<<4488877qq7899912>>,-:==&*$@@.o                                        ",
"                                      OO$@@@@$$$$$#&&&==:::1166559956777>>---*=&&*$&##O@..                                      ",
"                                          OOXX.@@@+$$$*&---,,33337723344--&&*$&@@$+#OO X                                        ",
"                                               ooX.@@@$$***;;11<<44,<<<<;;**=%&##$@o  .                                         ",
"                                                   oXX@@&&%==>>>>2222:::*=$$%@#oo+.                                             ",
"                                                   oXX@@&&%==>>>>2222:::*=$$%@#oo+.                                             ",
"                                                      oo###&&---<,,,,===%%&&@#oOO                                               ",
"                                                        OOO$$***;;;;;*&&####oO                                                  ",
"                                                           ++$$$=====$$$OO                                                      ",
"                                                           ++$$$=====$$$OO                                                      ",
"                                                             @@@&&&&&@@@..                                                      ",
"                                                             ...#####XXX                                                        ",
"                                                                XXXoo                                                           ",
"                                                                                                                                ",
"                                                                                                                                ",
"                                                                                                                                ",
"                                                                                                                                ",
"                                                                                                                                ",
"                                                                                                                                ",
"                                                                                                                                ",
"                                                                                                                                ",
"                                                                                                                                ",
"                                                                                                                                ",
"                                                                                                                                ",
"                                                                                                                                ",
"                                                                                                                                ",
"                                                                                                                                ",
"                                                                                                                                ",
"                                                                                                                                ",
"                                                                                                                                "
};
