/* XPM */
static char *_5387_b9381175801a5ed1e419359196d6414f997d9ef1de54b25a88fb5a6262ff60da[] = {
/* columns rows colors chars-per-pixel */
"128 128 4 1 ",
"  c black",
". c #FF7D00",
"X c #FFFF55",
"o c white",
/* pixels */
"                                                                                                                                ",
"                                                                                                                                ",
"                                                                                                                                ",
"                                                                                                                                ",
"                                                                                                                                ",
"                                                                                                                                ",
"                                                                                                                                ",
"                                                                                                                                ",
"                                                                                                                                ",
"                                                                                                                                ",
"                                                                                                                                ",
"                                                                                                                                ",
"                                                                                                                                ",
"                                                                                                                                ",
"                                                                                                                                ",
"                                                                                                                                ",
"                                                                                                                                ",
"                                                                                                                                ",
"                                                                                                                                ",
"                                                                                                                                ",
"                                                                                                                                ",
"                                                                                                                                ",
"                                                                                                                                ",
"                                                                                                                                ",
"                                                                                                                                ",
"                                                                                                                                ",
"                                                                                                                                ",
"                                                                                                                                ",
"                                                                                                                                ",
"                                                                                                                                ",
"                                                                                                                                ",
"                                                                                                                                ",
"                                                                                                                                ",
"                                                                                                                                ",
"                                                                                                                                ",
"                                                             oo..oo                                                             ",
"                                                        oo  oooooooo                                                            ",
"                                                      oooooooooooooo      oo                                                    ",
"                                                 oooooooooooooooooooo   oooooo                                                  ",
"                                                 oooooooooooooooooooo   oooooo                                                  ",
"                                               ooooooooooooooooooooooo  oooooo.oo                                               ",
"                                               oooooooooooooooooooooooooooooooooooo                                             ",
"                                              ooooooooooooooooooooooooooooooooooooo                                             ",
"                                              ooooooooooooooooooooooooooooooooooooo                                             ",
"                                             oooooooooooooooooooooooooooooooooooooo                                             ",
"                                             oooooooooooooooooooooooooooooooooooooo                                             ",
"                                             oooooooooooooooooooooooooooooooooooooo oo                                          ",
"                                            .ooooooooooooooooooooooooooooooooooooooooooo                                        ",
"                                            .ooooooooooooooooooooooooooooooooooooooooooo                                        ",
"                                         ooooooooooooooooooooooooooooooooooooooooooooooo..                                      ",
"                                         ooooooooooooooooooooooooooooooooooooooooooooooooo                                      ",
"                                         ooooooooooooooooooooooooooooooooooooooooooooooooo                                      ",
"                                        ooooooooooooooooooooooooooooooooooooooooooooooooooo                                     ",
"                                        ooooooooooooooooooooooooooooooooooooooooooooooooooo                                     ",
"                                     oooooooooooooooooooooooooooooooooooooooooooooooooooooo                                     ",
"                                     oooooooooooooooooooooooooooooooooooooooooooooooooooooo                                     ",
"                                     oooooooooooooooooooooooooooooooooooooooooooooooooooooo                                     ",
"                                     oooooooooooooooooooooooooooooooooooooooooooooooooooooo                                     ",
"                                    ooooooooooooooooooooooooooooooooooooooooooooooooooooooo                                     ",
"                                    ooooooooooooooooooooooooooooooooooooooooooooooooooooooo                                     ",
"                                    Xoooooooooooooooooooooooooooooooooooooooooooooooooooooo                                     ",
"                                    ooooooooooooooooooooooooooooooooooooooooooooooooooooooo                                     ",
"                                    ooooooooooooooooooooooooooooooooooooooooooooooooooooooo                                     ",
"                                    ooooooooooooooooooooooooooooooooooooooooooooooooooooooo                                     ",
"                                    ooooooooooooooooooooooooooooooooooooooooooooooooooooooo                                     ",
"                                    ooooooooooooooooooooooooooooooooooooooooooooooooooooooo                                     ",
"                                    ooooooooooooooooooooooooooooooooooooooooooooooooooooooo                                     ",
"                                    ooooooooooooooooooooooooooooooooooooooooooooooooooooooo                                     ",
"                                    ooooooooooooooooooooooooooooooooooooooooooooooooooooooo                                     ",
"                                    ooooooooooooooooooooooooooooooooooooooooooooooooooooooo                                     ",
"                                     oooooooooooooooooooooooooooooooooooooooooooooooooooooo                                     ",
"                                     oooooooooooooooooooooooooooooooooooooooooooooooooooooo                                     ",
"                                     oooooooooooooooooooooooooooooooooooooooooooooooooooooo                                     ",
"                                     ooooooooooooooooooooooooooooooooooooooooooooooooooooo                                      ",
"                                     ooooooooooooooooooooooooooooooooooooooooooooooooooooo                                      ",
"                                     ooooooooooooooooooooooooooooooooooooooooooooooooooooo                                      ",
"                                      oooooooooooooooooooooooooooooooooooooooooooooooooooo                                      ",
"                                        oooooooooooooooooooooooooooooooooooooooooooooooooo                                      ",
"                                         ooooooooooooooooooooooooooooooooooooooooooo  o                                         ",
"                                         oooooooooooooooooooooooooooooooooooooooooo                                             ",
"                                         oooooooooooooooooooooooooooooooooooooooooo                                             ",
"                                         oooooooooooooooooooooooooooooooooooooooooo                                             ",
"                                          ooooooooooooooooooooooooooooooooooooooooo                                             ",
"                                            ooooooooooooooooooooooooooooooooooooo                                               ",
"                                             oooooooooooooooooooooooooooooooooo                                                 ",
"                                             oooooooooooooooooooooooooooooooooo                                                 ",
"                                             oooooooooooooooooooooooooooooooooo                                                 ",
"                                               oo  ooooooooooooooooooooooooooo                                                  ",
"                                                   oooooooooooooooooooooooooo                                                   ",
"                                                   oooooooooooooooooooooooooo                                                   ",
"                                                      oooooooooooooooooooooo                                                    ",
"                                                        XXooooo o   oooooo                                                      ",
"                                                           o                                                                    ",
"                                                                                                                                ",
"                                                                                                                                ",
"                                                                                                                                ",
"                                                                                                                                ",
"                                                                                                                                ",
"                                                                                                                                ",
"                                                                                                                                ",
"                                                                                                                                ",
"                                                                                                                                ",
"                                                                                                                                ",
"                                                                                                                                ",
"                                                                                                                                ",
"                                                                                                                                ",
"                                                                                                                                ",
"                                                                                                                                ",
"                                                                                                                                ",
"                                                                                                                                ",
"                                                                                                                                ",
"                                                                                                                                ",
"                                                                                                                                ",
"                                                                                                                                ",
"                                                                                                                                ",
"                                                                                                                                ",
"                                                                                                                                ",
"                                                                                                                                ",
"                                                                                                                                ",
"                                                                                                                                ",
"                                                                                                                                ",
"                                                                                                                                ",
"                                                                                                                                ",
"                                                                                                                                ",
"                                                                                                                                ",
"                                                                                                                                ",
"                                                                                                                                ",
"                                                                                                                                "
};
