/* XPM */
static char *_1480_bba3ab73e3de897f10aa3decf1509c195f5f4d90b942baa45dc1e193fafdf0db[] = {
/* columns rows colors chars-per-pixel */
"128 128 60 1 ",
"  c black",
". c #672626",
"X c #BB1111",
"o c red",
"O c #FF2300",
"+ c #FF7D00",
"@ c #FFB900",
"# c #FFC800",
"$ c #FFCD00",
"% c #FFDC00",
"& c #FFEB00",
"* c #FFF000",
"= c yellow",
"- c #FFFF0A",
"; c #FFFF0F",
": c #FFFF14",
"> c #FFFF19",
", c #FFFF1E",
"< c #FFFF28",
"1 c #FFFF2D",
"2 c #FFFF32",
"3 c #FFFF37",
"4 c #FFFF3C",
"5 c #FFFF41",
"6 c #FFFF46",
"7 c #FFFF4B",
"8 c #FFFF55",
"9 c #FFFF5F",
"0 c #FFFF64",
"q c #FFFF69",
"w c #FFFF6E",
"e c #FFFF73",
"r c #FFFF78",
"t c #FFFF7D",
"y c #FFFF82",
"u c #FFFF87",
"i c #FFFF8C",
"p c #FFFF91",
"a c #FFFF96",
"s c #FFFF9B",
"d c #FFFFA0",
"f c #FFFFA5",
"g c #FFFFAA",
"h c #FFFFAF",
"j c #FFFFB4",
"k c #FFFFB9",
"l c #FFFFBE",
"z c #FFFFC3",
"x c #FFFFC8",
"c c #FFFFCD",
"v c #FFFFD2",
"b c #FFFFD7",
"n c #FFFFDC",
"m c #FFFFE1",
"M c #FFFFE6",
"N c #FFFFEB",
"B c ivory",
"V c #FFFFF5",
"C c #FFFFFA",
"Z c white",
/* pixels */
"                                                                                                                                ",
"                                                                                                                                ",
"                                                                                                                                ",
"                                                                                                                                ",
"                                                                                                                                ",
"                                                                                                                                ",
"                                                                                                                                ",
"                                                                                                                                ",
"                                                                                                                                ",
"                                                                                                                                ",
"                                                                                                                                ",
"                                                                                                                                ",
"                                                                                                                                ",
"                                                       8==8                                                                     ",
"                                                      +8::8+                                                                    ",
"                                                      +3553+                                                                    ",
"                                                      +3553+                                                                    ",
"                                                      =3883+    l++l                                                            ",
"                                                      +8::=o   =888&o                                                           ",
"                                                      X+##+oXXX=q88;+        8=88                                               ",
"                                     +88=8             +%%O++##*0ee<#+      +t3tt+                                              ",
"                                     +88=8             +%%O++##*0ee<#+      +t3tt+                                              ",
"                                   8=pdd3tll           X++O%1558tee8:=      ,<0<<%                                              ",
"                                 XX83wqq84tt88l        +==%#*00ey993q8++  ..:68221+                                             ",
"                                 oor51qqq5ww88r==      8++p15rrtitt7w<,,=%==88w88=%8                                            ",
"                                 oor51qqq5ww88r==      8++p15rrtitt7w<,,=%==88w88=%8                                            ",
"                                 ll885qq58ee9r0ddX+=,,#18883qssyatte9q%%=<888tw88>,8XX     8=88                                 ",
"                               8+%%=r,44<0qq9tq55,+3550tpp8psssfhuuyae5569wwtd688:53oo    lt:88X                                ",
"                             ++1w8881:ww59ttqtreew=6qq0yttqpdllsjffsaq99rweepgy6628:++  ++lw533o                                ",
"                             88q0eeu::<<eeuuypuhhiqwwwetyyyudkkkxgggdittpteepgp66qw#XX Xpp8t<::.                                ",
"                             88q0eeu::<<eeuuypuhhiqwwwetyyyudkkkxgggdittpteepgp66qw#XX Xpp8t<::.                                ",
"                            Z888ruuiw,88ieuuppajjjpuuutyaaiishhkkkkgdaaayiiifkg0088OXX+,wwrr,++                                 ",
"                           8%338eddidqiiyaddsgjhhhxvdddffffffjjgkzzkhfssphhhfhhee95+OO+8ii88:oo                                 ",
"                          8=w550tiiidpiiiskkjjzllvmmggkgkkhgfhhkkllkhgssgjjjklpttww>;;86dd6>=XX                                 ",
"                          8=w550tiiidpiiiskkjjzllvmmggkgkkhgfhhkkllkhgssgjjjklpttww>;;86dd6>=XX                                 ",
"                          =pq880yiippdhhsjkklvbbbmCBcczzllljlkkkzkkhfdddzkvvvksyytt988e8uu,%+                                   ",
"                          88q8880eeayfkkfjkkcmVVVBZCMMcvcczxzxxlxzzjddffzcnnxjfppiytttuw99=,X       +l==8                       ",
"                           +1338reeapdkkglvvzbVZZZZVBBvxccxnnnnccxxjddffzmnnbldssapippit88,=     +++p8338X                      ",
"                            =88:uqqfjaffjlcclxNVVVVnnnxxccbnBMMmmbbzjhjjxmmmcxhffsddssaw88==   8=%%8r<tt3=                      ",
"                            =88:uqqfjaffjlcclxNVVVVnnnxxccbnBMMmmbbzjhjjxmmmcxhffsddssaw88==   8=%%8r<tt3=                      ",
"                            +113wqqrlfddzxxxlznMMCnxxxzxbbmmCVVBmMMbxlkkvBVVbcklljhhggfyttq,+88tr==pw5pp,%                      ",
"                           =:88q1ppilffflzxxlkxccbnxxxxcmmMBCZZZVmmbvzccvNBBncxccczzzzdsaae31ppqe88q85555888                    ",
"                          =:,999wtttggppkzllkllcccncvvvnMMNZZZZZCnnbvbbbnBNNmvnmmmvvkkkdddt0cssapttqqt2288==                    ",
"                          =:,999wtttggppkzllkllcccncvvvnMMNZZZZZCnnbvbbbnBNNmvnmmmvvkkkdddt0cssapttqqt2288==                    ",
"                        ll:57eeiryyysfddxlzzlvzxxvvnnnmBVVZZZZZZBnnvvnmmmNMMnvbNNmvxllfsaagulggjsttdtp888:++                    ",
"                       Z88q8qttpuiipagjjzlxxvbxvvxcnmmBZZZZZZZZZNccxcmMMnmMMbcbMMNnjhhghsshijkkgjffdq8554,                      ",
"                       8pppq9uupiiisfhkkcxvvvnzxxxvbBBZZZZZZZZZZmvvxvmNNMMmmmbvMMBvkddhgddjdkggjbhhdi0eeu8                      ",
"                       =lle9uuupissafjccvxmmnnlzzcvnBBZZZZZZZZZVmvvzbNCCVCVVmnnMMMclhhkfhhjglxxjcddq0e0088                      ",
"                       =lle9uuupissafjccvxmmnnlzzcvnBBZZZZZZZZZVmvvzbNCCVCVVmnnMMMclhhkfhhjglxxjcddq0e0088                      ",
"                       +uupwauudaddhjxbbmnnnnbxvvbmNVVZZZZZZZZZNmccvnNZZZZZZNmbmmmxzggkhhhkjzkkjfppt8,11p%===8                  ",
"                      81rruidggahgghkmVVMMBBBMnmmNVCCCCZZZZCZVVMnbbvMVZZZZBBMMbbbcllggkzkkkhhjjgjrrt;*%%t88838X                 ",
"                    ++15rrrrdllghggznBCCBBCCZZCVVCZZZZZZZZCVZVVNMmmNBVZZVBMMnMnbbxjjhhlcxxvlldddu00053@@=844q8o                 ",
"                   +1114rrtydhhljzzcbMZZCZZZZZZZZZZZZZZZZZCCZVVBNNNVVCZZVMbbvmnvvzkhjjcMBBbckkkgattr0<::&:8888X                 ",
"                   +1114rrtydhhljzzcbMZZCZZZZZZZZZZZZZZZZZCCZVVBNNNVVCZZVMbbvmnvvzkhjjcMBBbckkkgattr0<::&:8888X                 ",
"                  Z+88<7qqeadkkjjllxcbBBCZZZZZZZZZZZZZCZCCVZZZZBMmmBBVVVBMbbcnnvvxjkzznBCCNBnxxjsiiye655,:@@p8                  ",
"             8+88l+%3388ttuigkklljjgkcbbMBVVZZZZZZZVBBNVBBCZZZZVMvvvmVCCNNnnvmmccczzccnBBBVVmccfdssuyqii2<11o                   ",
"            X8=33tp,11r455uihggkhjjhjlllxvbbMCZZZZZmmmmMBBVZZZZCMxxcnBZZBVNNmMMbbvxvccvmMMBNbzzjkjjptrtte888#+                  ",
"            X8=33tp,11r455uihggkhjjhjlllxvbbMCZZZZZmmmmMBBVZZZZCMxxcnBZZBVNNmMMbbvxvccvmMMBNbzzjkjjptrtte888#+                  ",
"            o85qq3t#88=&wweuhffljkkhjjjjkzzzvnVZZZZmmmnmMMVZZZZVmvvnMZZZZZVVCBNmmMbMnnvmBBCNvxxdxnnxsirrew998,8                 ",
"            +1444rt88881rr8pfaalkzzkjghhklkkccmBBVBmmmmmMMNZZCCMnnnBCZZZZZZZZVmBBVVBBBMVCCCBmbbjzvvcggiie9tte4=XX               ",
"          88%=888t=#===1888passblcckhgjjzcxxvcvbbMNmMMnMBBCBNMMbxbbNZZZZZZZZZBmMMCZZCCZZCCBMmmmlxcchksyyt9tt88:oo               ",
"         X88=88==8##==11888pejjNxzzlhjllcbnnmvbbbmNMMMmBCCCVMvvzkccMBZZZZZZZZCBBBZZZZZZZMMmnnnnkxllkgptty0qqq,=XX               ",
"         X88=88==8##==11888pejjNxzzlhjllcbnnmvbbbmNMMMmBCCCVMvvzkccMBZZZZZZZZCBBBZZZZZZZMMmnnnnkxllkgptty0qqq,=XX               ",
"         o88q8:88,#&338333wqiggNxxxlkzccmCVVCmMMMmMmMMmBZZZCMvvllxxbmNVVCZZZZZCBBZZZZZZCnnxxcxxxkhhhgusstqww8%8                 ",
"         X8833=%%O#,888<qqq8fjjkmvvvvcMMBZZZZNMmmnnMmmNNZZZCMvvczccvbnNNVBZZCZNMMVZZZZZVvvzkgggjhhhspeddttqq&+                  ",
"          88+8l88+,4rr5100eiaffkxxxvMnVVZZZZZCmvvccnmmMBCCZCMbbvvnnnvnnnMMBBVNmnnmMBCCVMxxkhfffskgglfrtttd88:o                  ",
"          88+8l88+,4rr5100eiaffkxxxvMnVVZZZZZCmvvccnmmMBCCZCMbbvvnnnvnnnMMBBVNmnnmMBCCVMxxkhfffskgglfrtttd88:o                  ",
"                  =1444800wufaafjxxNNZZZZZZZZVmxxxvMNNNBBBVVNNNmbbbbvbnnmnmmmnvvvxcbMMmncckggssdjddlpq888q881+                  ",
"                   l%%p188eiaiiajbbMBZZZZZZZZZNvvbnBCCVNMMMNNBBNnnncbnnnbnmmMmbxxlllbbbbxxlggggjjffyqqww88====                  ",
"                      ++&&58pgghzbbMmMNNBZZZZZZmmbnVZZCVMMMVBVVBNmmnnnvvcnmmVBBbbzjkvvvvxxjjhgghassit54488448=X                 ",
"                      +,,,0eaggkcbbmcbccbVZZZZZMMnvVZZVVNNNBBBBCCCCCNmcccbBBZZZBBvzzbbvxzzhjhggfpppyt8<<3,==5:o                 ",
"                      +,,,0eaggkcbbmcbccbVZZZZZMMnvVZZVVNNNBBBBCCCCCNmcccbBBZZZBBvzzbbvxzzhjhggfpppyt8<<3,==5:o                 ",
"                      ,566eiuffkcxxnkzllbNZZZZZMMmnBBBVVVVBVVCCZZZZZZBvvvbCCZZZCCNnbbbxzkkgjjffppyyr9044&8====X                 ",
"                    88,tyyrtagghvcczlzzzbVZZZZZmmmMBMMNZZZCCVCCZZZZZZVbbnMVVZZZZZZVMnncxlljhhssairrwq588%888+8                  ",
"                    ==87iierihhhlzzvjzllmZZZZZBnnMMMBBBZZZZZZZZZZZZZCBnnbMBBVVVZZZCBnnblkkhkgiipu99w1&++X+                      ",
"                    ==87iierihhhlzzvjzllmZZZZZBnnMMMBBBZZZZZZZZZZZZZCBnnbMBBVVVZZZCBnnblkkhkgiipu99w1&++X+                      ",
"                    8885tt90yffhcnnvllbbNZZZZZNbbmNmBBCZZZZZZZZCCZZZVNmmmMMMMMMBBBBNbbvxxxzkfiitt00q&%+++                       ",
"                      l,88r8tjjsfxxkllNNNZZZZZMmmnnMBBZZZZZZZZZBBVVCMMmmmnnnvvbnnmMmbbbvccvkgpppi22,1,%%%+88                    ",
"                       Z++p=ttt1lttdkznnVZZZZZCNNnvbNNCZZZZZZZZVVZZZBMnnbbxxlllccxnnvvvcllcjkaart8883&::8===X                   ",
"                           Z++++deefdlmmNZZZZZZVVmvbBBZZZZZZZZZCCZZZVBmmvxzzghjlllccvvvxkkllhssyt8858===<5::o                   ",
"                           Z++++deefdlmmNZZZZZZVVmvbBBZZZZZZZZZCCZZZVBmmvxzzghjlllccvvvxkkllhssyt8858===<5::o                   ",
"                                ,88ayjccnMVVZZZVVBbmVVZZZZZZZZZZZZZZZBmmccxxjkkllkjjxxcxggdgpyyyr6608=&&====X                   ",
"                                +55tuhkkcvmmMVVBBMMNZZCZVVVZZZZZZZZZZCmmbvbbxzczzjhgzzchsspaipps08835@++8+88                    ",
"                                %ttqifggxvxxbmMMMMNVCCCBmmBZZZZZZZZZZCMMMmmmnbnvvjdaffgdrrsuuwwd82258=                          ",
"                               X8yy0sfkkczccvnmnnnmBCCVNbbmZZZZZZZZZZVMMBNNNMnMcckdaiihpeeup0eep8>>1l                           ",
"                               X8yy0sfkkczccvnmnnnmBCCVNbbmZZZZZZZZZZVMMBNNNMnMcckdaiihpeeup0eep8>>1l                           ",
"                               +q99tpjkkxzvvnmnvvbMBCCBNvvnNZZZZZZZZZVVVNNMMmmvxxkhsttfiiiq8trr88;;%                            ",
"                               #0eeusgxxkcbbMnbmmmNNBBBmbbnNZZZZZZZZZVNNMnbbvvccckdppppi44wuuqq15::+                            ",
"                             ++10rrpsfkkjkccvccvvvMBNNNnnnbMVCCZZZZVZVCCNmbbbcvxxhaw00a8rrpwwww8:,,X                            ",
"                             ++10rrpsfkkjkccvccvvvMBNNNnnnbMVCCZZZZVZVCCNmbbbcvxxhaw00a8rrpwwww8:,,X                            ",
"                             ++:euuppfgggjkkggjlllxbbbmbxxcnmNNNNVVMNVBBNnvvccvhhdp044q&ttrwuww31,,++                           ",
"                             ,,8twwsagjjfgggfsdddjjzzzcvzzlzxcccbmmnnmmmMvvvcbkkkyu8;;#X%%t88qq<888=%8                          ",
"                            o330ittsshssgaffasfssafgllzlllklkllkzMMnmxvvvzzzzllddet0&&+ ++,88rr08www88XX                        ",
"                            %880tttuifddguiisfiddiaakkhlhhfkljjlxMMnncxxlzkkklhiitee==+   +,3qq0pww8q8oo                        ",
"                            %880tttuifddguiisfiddiaakkhlhhfkljjlxMMnncxxlzkkklhiitee==+   +,3qq0pww8q8oo                        ",
"                           +=558e00ruruugttttteppuypdddhddfjljjlbNNVnMbbzzjjkdfuutq044=    8,33wrtt838XX                        ",
"                           +r5581880euiidq884t8wwtuiddspssajlxxzbnnnmNnnkxzzjfspputr&&8     +==8=88l=8                          ",
"                           =p1188pp0ww00hw11tr<88yiqiiuuuusfhjjknllbvvvvcvzzjfssst6r==                                          ",
"                           =p1188pp0ww00hw11tr<88yiqiiuuuusfhjjknllbvvvvcvzzjfssst6r==                                          ",
"                           8===rr885rtqq81##81wttqi899t0eeysikkhjhhxzxmmnnxxkhyii85p                                            ",
"                            8++=811388pp,888=&8rrq866677qqespiipsfflkkzzmllllsurr2:+                                            ",
"                                +88=++++p1dd1&8qqq41<<:-,,erettupaadapjjxkhhgdt88%+                                             ",
"                                      88d488=+8338=3;;$@==:qyeeuyiiieuddgksslh0>>=X                                             ",
"                                      88d488=+8338=3;;$@==:qyeeuyiiieuddgksslh0>>=X                                             ",
"                                      oor<88pXl==l88++#+..88188ieeee0ysssfppspw,,&+                                             ",
"                                      XX8:==l      +OOOoXX  +88dq008qeuuiwttipr00%=                                             ",
"                                        8=88      +=++++++     +8::<q0wwu0wwyye88%%X                                            ",
"                                        8=88      +=++++++     +8::<q0wwu0wwyye88%%X                                            ",
"                                                  8+@@=+         +++t<eee988te58831+                                            ",
"                                                  =t==8%            +188ie88e8811,41XX                                          ",
"                                                  +3qq8%             888l888,d8,,8<roo                                          ",
"                                                  +p558+                Z+++=8+ll=:8XX                                          ",
"                                                  +p558+                Z+++=8+ll=:8XX                                          ",
"                                                  +8rr8+                         8=8                                            ",
"                                                   8==8                                                                         ",
"                                                                                                                                ",
"                                                                                                                                ",
"                                                                                                                                ",
"                                                                                                                                ",
"                                                                                                                                ",
"                                                                                                                                ",
"                                                                                                                                ",
"                                                                                                                                ",
"                                                                                                                                ",
"                                                                                                                                ",
"                                                                                                                                ",
"                                                                                                                                ",
"                                                                                                                                "
};
