/* XPM */
static char *result[] = {
/* columns rows colors chars-per-pixel */
"64 64 63 1 ",
"  c black",
". c #232323",
"X c #430000",
"o c #470000",
"O c #4F0000",
"+ c #530707",
"@ c #5B0707",
"# c #5F0707",
"$ c #670000",
"% c #670B0B",
"& c #6B0F0F",
"* c #731313",
"= c #771717",
"- c #7F1B1B",
"; c #5F4323",
": c #774F2B",
"> c #434343",
", c gray34",
"< c #5B5B5B",
"1 c gray39",
"2 c #6F6F6F",
"3 c #777777",
"4 c gray50",
"5 c #8B0000",
"6 c #9B0000",
"7 c #831F1F",
"8 c #A70000",
"9 c #BF0000",
"0 c #8B2323",
"q c #8F2B2B",
"w c #972F2F",
"e c #9B3333",
"r c #A33B3B",
"t c #A73F3F",
"y c #CB0000",
"u c #D70000",
"i c #E30000",
"p c #EF0000",
"a c red",
"s c #9B5B13",
"d c #DF670F",
"f c #AF4747",
"g c #B34F4F",
"h c #BB5757",
"j c #BF5B5B",
"k c #AB6F43",
"l c #B37347",
"z c #C76363",
"x c #CB6B6B",
"c c #D37373",
"v c #DB7B7B",
"b c #FF8F3B",
"n c #CF8353",
"m c #8B8B8B",
"M c #939393",
"N c #979797",
"B c #9F9F9F",
"V c #A7A7A7",
"C c gray70",
"Z c #DF8787",
"A c #E78F8F",
"S c #EB9797",
"D c #F3A3A3",
/* pixels */
"                                                                ",
"                                                                ",
"                                                                ",
"                                                                ",
"                                                                ",
"                                                                ",
"                                                                ",
"                                                                ",
"                                                                ",
"                                                                ",
"                                                                ",
"                                                                ",
"                                p    p  c                       ",
"                                        6                       ",
"                                                                ",
"                                  p p                           ",
"                                     xx                         ",
"                          p          px                         ",
"                              p   p                             ",
"                                  p p                           ",
"                                                                ",
"                              p p   p                           ",
"                                  p    p                        ",
"                                    p                           ",
"                             11g77---0gpvzhtq                   ",
"                              -*qqp%%O+-wghhtq  N               ",
"                             #qvvzgqp-#u-wjhmCCV1               ",
"                             fzzvADAc;:p*jDDh<11                ",
"                             fzzhzzcAAckpgvv-77                 ",
"                             ze=rrrfzcAvpfvhw77                 ",
"                             e=7rlrrffzvggvhw77                 ",
"                        hxvxf-*7gngrrrfhvvvtw7                  ",
"                        vvfqf-*wgntwrrrfzvjwwvxhf               ",
"                       exfqhh-*tglpwreerff0gvZvvjwx             ",
"                       egqqth-7pgjtqreww00gvDDZjfefZZ           ",
"                      %qfwqqh--tgjf0yeyw-0aADAjgretzSxg         ",
"                     %--qe*qfp-pggf0qeww#qxxxjhfrqeftgff        ",
"                   %%q7%q%*aq--tgpg-qeq7*hhgtreqq7jxjfeqf       ",
"                 %%%q--%%%##*-pwtgg-iw7aqqqqqqq=X#fSxjgqzjq     ",
"                 %%%--=%%oXX=**ptpr&-7*o*****##&O#weee-tSjfq    ",
"                %--%%%% +*0005896$6%5OO**%%%==XXOXooo%-wxxgq    ",
"               %--%%%%  0#*0w056$X$65**-%%=77=@     oo%wzzgq    ",
"             %%%-%%%%   q7#*0wa56$6u00a7##O#-=*@      %-zfrq    ",
"             %%%%%%    qagw&*00wu000ww7=77=#O-*@      gjvfq     ",
"              %%%%%   qtzgw7@**u7www7u7ege-*#O@@O    ttZzf0     ",
"               %%%    qrzzr7&@@#*****7wgjtq*#OO@O    tvxfe      ",
"                     7qtzhe77@@@##@@@wwgjtq-#OOOO    tr-f0      ",
"                     -qqre077=###@###0qfr0---#OOO     -00       ",
"                    ---0===--=##  ###-0r7-7q*#OOO      00       ",
"                    -td*##*--*#    #####jvj7q*##                ",
"                    df7#*o#**#      ###evbdq*o##                ",
"                 0tAxw7#*o###       ##eevhrq*###                ",
"               t3MB,ts7#*##          erjbd***##                 ",
"              w#<4BM,07##           txSSxw7###                  ",
"              wOO,14>#q@#           txSttt7#o                   ",
"              tOOOOOOOOOq           xt,4307###                  ",
"           1,wOOOOOOOOOOtwB2       w,<4BOOOOhq                  ",
"           ,.0OOOOOOOOOO7%211      wOOOOOOOOhvf=                ",
"                   OOOOOO#111     htOOOOOOOOftwB2               ",
"                                 1w0OOOOOOOOO7%211              ",
"                                1,wOOOOOOOOOOO#111              ",
"                                1.0OOOOO                        ",
"                                                                ",
"                                                                "
};
