/* XPM */
static char *result[] = {
/* columns rows colors chars-per-pixel */
"64 64 65 1 ",
"  c black",
". c #232323",
"X c #2F2F2F",
"o c #430000",
"O c #470000",
"+ c #4F0000",
"@ c #530707",
"# c #5B0000",
"$ c #5B0707",
"% c #5F0707",
"& c #670000",
"* c #670B0B",
"= c #6B0F0F",
"- c #7F0000",
"; c #731313",
": c #771717",
"> c #7F1B1B",
", c #774F2B",
"< c #434343",
"1 c gray28",
"2 c gray31",
"3 c gray34",
"4 c #5B5B5B",
"5 c gray39",
"6 c #646464",
"7 c gray42",
"8 c #6F6F6F",
"9 c #777777",
"0 c #8B0000",
"q c #9B0000",
"w c #831F1F",
"e c #B30000",
"r c #BF0000",
"t c #8B2323",
"y c #8F2B2B",
"u c #972F2F",
"i c #9B3333",
"p c #A33B3B",
"a c #A73F3F",
"s c #CB0000",
"d c #D70000",
"f c #E30000",
"g c #EF0000",
"h c red",
"j c #FF1F1F",
"k c #AF4747",
"l c #B34F4F",
"z c #BB5757",
"x c #BF5B5B",
"c c #AB6F43",
"v c #C76363",
"b c #CB6B6B",
"n c #D37373",
"m c #DB7B7B",
"M c #CF8353",
"N c #8B8B8B",
"B c #939393",
"V c #979797",
"C c #9F9F9F",
"Z c #A7A7A7",
"A c gray70",
"S c #DF8787",
"D c #E78F8F",
"F c #EB9797",
"G c #F3A3A3",
/* pixels */
"                                                                ",
"                                                                ",
"                                                                ",
"                                                                ",
"                                                                ",
"                                                                ",
"                                                                ",
"                                                                ",
"                                                                ",
"                                       g                        ",
"                                                                ",
"                                                                ",
"                                                                ",
"                   g    g        g    g                         ",
"                                                                ",
"                                                                ",
"                                f         g                     ",
"                             d       bb                         ",
"                           g         gb g                       ",
"                                    h                           ",
"                        g      d  f                             ",
"                             h   f                              ",
"                                j     nn                        ",
"                                 h f  gq                        ",
"                              h  h j                            ",
"                                 -                              ",
"                                                                ",
"                               h  -                             ",
"                                 blklmGmz                       ",
"                           8   nnl>tlmmGmz                      ",
"                           55lwdj*djd>>>zzzz  V                 ",
"                            >alxxla>dh*>azNAAZ5                 ",
"                           %ammmDDna,cd;mDz455                  ",
"                           vnvlkkvDDnc,;Gm>at                   ",
"                           zvlkvvxavDml;Dv>>                    ",
"                           alkxmSmkavmmlmz==                    ",
"                           lukmSMSkivmmvmk$*                    ",
"                            kngDgDvkavmmvu*$                    ",
"                            lnznmDmkivmmzw$+                    ",
"                        bmbgxmgvmDglulmnv:xuumzkk               ",
"                        iigkxgrvhngz:ttauxlmGGxkikSS            ",
"                        urtplprbhxgeuabnblmDGDlpiavFbl          ",
"                       $lurr0dgrekre&r0uaybbbxkpyikalkk         ",
"                      i$tpuq-rdrehe0-#ubltzlapyywxbxkivvyy      ",
"                     $tlttaaq-rdre-utlaa%$yyyy=+%uiii>avxky     ",
"                   >pzvvvtwaiku-0-xkttuu+:;;;%O+****O>kzbly     ",
"        99945     $yulvvzlawtuuu-uut;ypbl>%talo+oOOO*>uxbly     ",
"        111145   @>yypvvpw;$%;;;;;;;ypaznky$$OOOOOOOO*ukvly     ",
"        ++XXX47>>>>>t:vkw;;%=oo%%oo:ypazvnkw$;y      taSvkt     ",
"        tit+++%y>az;%%py::;=t%%ooo%:ypazzvkw$;y      ambki      ",
"        :t:+i:+abau:%;::w:;=:=%oo%%:wyppkky>;;O      ap>kt      ",
"        +>++>t+yzp:%;O%;>:>y>:=%%%%;>>pppyy>;;O      a>tt       ",
"       t+:++:>+>zk:%%%O%>y>= ss s%%%>>:::t>>>;ykBCB9            ",
"   85za::++++:++ppyy%+%%=+    s    %;;;%%;za>y995432<           ",
" 8853ut+::++++::zmk%%%%     s   s s %%%O%:uyy%<<<<<<+           ",
" 653.u++++++++++kau:%         s   s   %O%:++++;;+;+++           ",
"        ++++++++++%855                  yyy+;t>tt;it;           ",
"                   555                  yyy+;;+;++++>>az8       ",
"                                        %kmz;;++++>>;;tu588     ",
"                                        :uak++;+++++++;u355     ",
"                                       8C*w++++++++++t+t        ",
"                                      558%++++++                ",
"                                      555                       ",
"                                                                "
};
