/* XPM */
static char *result[] = {
/* columns rows colors chars-per-pixel */
"64 64 74 1 ",
"  c black",
". c #332B13",
"X c #232323",
"o c #2F2F2F",
"O c #373737",
"+ c #430000",
"@ c #470000",
"# c #4F0000",
"$ c #530707",
"% c #5B0000",
"& c #5B0707",
"* c #5F0707",
"= c #670000",
"- c #670B0B",
"; c #6B0F0F",
": c #730000",
"> c #7F0000",
", c #731313",
"< c #771717",
"1 c #7F1B1B",
"2 c #6B4727",
"3 c #434343",
"4 c gray28",
"5 c gray31",
"6 c gray34",
"7 c #5B5B5B",
"8 c gray39",
"9 c gray42",
"0 c #6F6F6F",
"q c #777777",
"w c #8B0000",
"e c #9B0000",
"r c #831F1F",
"t c #A70000",
"y c #B30000",
"u c #BF0000",
"i c #8B2323",
"p c #8F2B2B",
"a c #972F2F",
"s c #9B3333",
"d c #A33B3B",
"f c #A73F3F",
"g c #CB0000",
"h c #D70000",
"j c #E30000",
"k c #EF0000",
"l c red",
"z c #FF1F1F",
"x c #FF3F3F",
"c c #8F5F37",
"v c #9B633B",
"b c #AF4747",
"n c #B34F4F",
"m c #BB5757",
"M c #BF5B5B",
"N c #AB6F43",
"B c #C76363",
"V c #CB6B6B",
"C c #D37373",
"Z c #DB7B7B",
"A c #CF8353",
"S c #8B8B8B",
"D c #939393",
"F c #979797",
"G c gray60",
"H c #9F9F9F",
"J c #A7A7A7",
"K c gray70",
"L c #DF8787",
"P c #E78F8F",
"I c #EB9797",
"U c #F3A3A3",
"Y c #F7ABAB",
"T c #FFB7B7",
/* pixels */
"                                                                ",
"                                                                ",
"                                                                ",
"                                                                ",
"                                                                ",
"                                                                ",
"                                                                ",
"                                                                ",
"                                                                ",
"                                                                ",
"                                                                ",
"                                                                ",
"                                                                ",
"                                                                ",
"                                                                ",
"                                                                ",
"                                                                ",
"                                                                ",
"                                                                ",
"                                                                ",
"                                                                ",
"                                                                ",
"                                                                ",
"                    k    k     h  k    k                        ",
"                               j                                ",
"                                       j   k                    ",
"                                                                ",
"                            k    h       k                      ",
"                                                                ",
"                         k                                      ",
"                                  h h                           ",
"                                h                               ",
"                           k h      bMZCB                       ",
"                                  yyjZPUCBf                     ",
"                          3 bby  yi*njjPLCbmf  F                ",
"                        k o311,yygg#$1jffmMSKKJ8                ",
"                           o*pjZyny1Mba$abMm788                 ",
"                            ;fj211<ypmZUTUMa&                   ",
"                         h  f.hN*k+g++1mUZbp<                   ",
"                           ksBZZPPBnhk+,Zmf<<                   ",
"                        VZBMhbfap2bZPn.zBp;aaZVmbb              ",
"                       nsf--rrifkch<bbVkb<inZLZZMMaV            ",
"                      fr;;;;k,kfnAbppnbndinZUULMbbsbLL          ",
"                      <<-----i1ygNBdapffbbbPUPMnddsfBIVn        ",
"                      <#-#-=uykxvkjyjeitmLLLMnmbddpsZZMM        ",
"                     <#stlsw>lvk++v#ylxxumnbp1psp1rMZZZBsb      ",
"                    <#--#auljwwev%eyjtjms>ppp;*11+*bBBBnbBMp    ",
"                    nBZZn#<tyhhhw+ejbue1##++###**#*asss1BIMbp   ",
"                  1dVZBmr,##1lwijjyjf1#>Cfr&#&***#----@1mPVnp   ",
"        SSSS     &pVMbbd,,*;#=db>>y--rtumnpr##+*      -ZZYIZn   ",
"       O4369D   $1ppddpr<,;i;*1tfaw-rstddpp11+#      $ZmPLBIn   ",
"       *#o367911111i<<<<<,;<1#<:f1:-1wai<i1111+ DHDq r$<CmbZ    ",
"       #si###*p1fm,***,1<1p1<##<<<#-11,**,mf1pqq07653  rr rr    ",
"       #i<#s<#fVfa<*,@*,p1;###******,,*@*<app*307743#           ",
"       #1##1i#pmd<*,@**;###** ggwgg ***@*<####,,#,###           ",
"      i#<##<1#1mb<****;#   g g g   g  *****#,1pbs,ss,           ",
"  G6ai##<####<<mZb*#                g   pnp#,,#,####11fm0       ",
"   Xa##########bfa<*                    *bZm,,####11,,ia800     ",
"    i###########r-H0                    pafbr#,#######,a688     ",
"       ##########*0H8                  0H-rr#########i#i        ",
"                  888                 880*######                ",
"                                      888                       ",
"                                                                ",
"                                                                "
};
