/* XPM */
static char *result[] = {
/* columns rows colors chars-per-pixel */
"64 64 69 1 ",
"  c black",
". c #232323",
"X c gray23",
"o c #430000",
"O c #470000",
"+ c #4F0000",
"@ c #530707",
"# c #5B0707",
"$ c #5F0707",
"% c #670000",
"& c #670B0B",
"* c #6B0F0F",
"= c #730000",
"- c #7F0000",
"; c #731313",
": c #771717",
"> c #7F1B1B",
", c #533F1F",
"< c #434343",
"1 c gray28",
"2 c gray34",
"3 c #5B5B5B",
"4 c gray39",
"5 c gray42",
"6 c #6F6F6F",
"7 c #777777",
"8 c gray50",
"9 c #8B0000",
"0 c #9B0000",
"q c #831F1F",
"w c #A70000",
"e c #B30000",
"r c #BF0000",
"t c #8B2323",
"y c #8F2B2B",
"u c #972F2F",
"i c #9B3333",
"p c #A33B3B",
"a c #A73F3F",
"s c #D70000",
"d c #E30000",
"f c #EF0000",
"g c red",
"h c #FF3F3F",
"j c #9B5B13",
"k c #A36B3F",
"l c #CB5707",
"z c #DF670F",
"x c #AF4747",
"c c #B34F4F",
"v c #BB5757",
"b c #BF5B5B",
"n c #AB6F43",
"m c #C76363",
"M c #CB6B6B",
"N c #D37373",
"B c #DB7B7B",
"V c #FF8F3B",
"C c #939393",
"Z c #9F9F9F",
"A c #A7A7A7",
"S c gray67",
"D c gray70",
"F c #DF8787",
"G c #E78F8F",
"H c #EB9797",
"J c #F3A3A3",
"K c #F7ABAB",
"L c #FFB7B7",
/* pixels */
"                                                                ",
"                                                                ",
"                                                                ",
"                                                                ",
"                                                                ",
"                                                                ",
"                                                                ",
"                                                                ",
"                                                                ",
"                               f                                ",
"                                                                ",
"                                 d                              ",
"                           f  s f                               ",
"                                   f                            ",
"                                d                               ",
"                             mN0 f                              ",
"                         f d xc d   d                           ",
"                                ff                              ",
"                           NN0 fMM0d                            ",
"                           FFddrNM0                             ",
"                        6  dfrNw0=  MNBN                        ",
"                    FFFFZA6r0-F%%9xbBGJJB                       ",
"             MMMMMbFGHHF66mm9=90%ecBGJLLGa                      ",
"          mmMMNBFGBFJJBMbxxxq9%9e0cmBGJJBxccc                   ",
"       xvvNFFGFFBBvxMMbv>>>;yy:$&+@>>uaavbtcDC7HBb              ",
"       xavMFavGNMMxyxcxa*$yBBmcy>>$@&>>uvbut44CSHBx             ",
"       xavBGc&uvxxx$>yyy**acciy:>yvBBMvxxbxxt<<<MBvu            ",
"       xcMBmy&Outtt@$&qt**a*>>>:>yyvBJLLNbatamBBMcxi            ",
"       cMacq$&O&&&&$@$&q*ffnf$&##y>:>vBJbxpyuvmBmcpiM           ",
"       cMau&$$  &&:>qq@@xmmmGGGGNc,f;;xBxauyquvmvxpixFF         ",
"       cHKN:$       @@q@bbmxxmBGGGcfs;yBuu:yt;uxppiiamHB        ",
"       cmFGN:;       @>*xixaacbBBBGcsaBmy:yapt;tqq>ticvmx       ",
"        xvNy:@       t@*aituuuacbBBBBBBxy:yvvpq&&&>cbMbcvix     ",
"        NN:p::       t@@>iquaxxauxavbmmu>&tvvaq&&&ibHHMbxxxxx   ",
"        ccyq&        t@@&t;uaxxuyyxabvxto#txay$@$&iiMBMvammmxx  ",
"        c:&@         :@:@g;uamktguqqqi:#;&:yq$$$&&iiiiiiamHFbx  ",
"                     :@#@;;uphatyuq::*oo;;$$&$   &&&&&&>xvGHMcy ",
"                     @@@q:0uga>>gtq:&o+#::&$$      &&&&>ubMHMcy ",
"                     @@:qqqu0usw0t:go+&:OO:$            uxmBmcy ",
"                    y@@e@gqqe0w-rg:+#::*#q$$            >ummxpy ",
"                    y@o@t:@g;;9-w:::*@@*>q>$$           FMmvxt  ",
"                    y@o@$t&&&&&****@@@*uuq>$$           Mxxxi   ",
"                   ay@@@@@@@@@@@@*##@@>pcu>;$$          >ixpt   ",
"                   aaq&OOOOO@@O  ####*uccay;$$          xMMu    ",
"                   acy;OOOOOOO   ####>uccay>$$          FMx:    ",
"                   acu:*OOOOO    ###*upmvpyq;$$                 ",
"                   aciqu*$OO     ###>uavvuyq>$$                 ",
"                   uaataq$O$     $$$uppmcxy>>$$                 ",
"                   uiaylq$$       $$ytyppt>>>$$                 ",
"                    uauvq$$       $$t>tpq>qy;$$                 ",
"                    uiiVq*$       $$:$pbzqy;$$                  ",
"                     uiNy*$        uaibBay;O$$                  ",
"                     ipVy*$$       uiibVpy;$$                   ",
"                     paFu*$$       ipbBN;;;$                    ",
"                     alBu*$O      aMHHGMq$$                     ",
"                    cxbFu>$O$     Mtt>ttq$O                     ",
"                  vuaMHGuq*qy::  u$38Z8<y#y$                    ",
"                64uuMtttjq$y:&.. u++++++++vy                    ",
"               642uat7CCtq#:#&..va++++++++vBx:                  ",
"               42.tt$388$y+++$64ut++++++++xauZ6                 ",
"                    $155.t   642u++++++++++q&644                ",
"                     X1X     42.t+++++++++++$444                ",
"                                                                ",
"                                                                "
};
