/* XPM */
static char *result[] = {
/* columns rows colors chars-per-pixel */
"64 64 80 1 ",
"  c black",
". c #332B13",
"X c #232323",
"o c #373737",
"O c #430000",
"+ c #470000",
"@ c #4F0000",
"# c #530707",
"$ c #5B0000",
"% c #5B0707",
"& c #5F0707",
"* c #670B0B",
"= c #6B0F0F",
"- c #731313",
"; c #771717",
": c #7F1B1B",
"> c #4B371B",
", c #533F1F",
"< c #5F4323",
"1 c #6B4727",
"2 c #774F2B",
"3 c #7F532F",
"4 c #434343",
"5 c gray31",
"6 c gray34",
"7 c #5B5B5B",
"8 c gray39",
"9 c #6F6F6F",
"0 c #777777",
"q c gray50",
"w c #8B0000",
"e c #831F1F",
"r c #A70000",
"t c #BF0000",
"y c #8B2323",
"u c #8F2B2B",
"i c #972F2F",
"p c #9B3333",
"a c #A33B3B",
"s c #A73F3F",
"d c #D70000",
"f c #EF0000",
"g c #9B5B13",
"h c #875733",
"j c #8F5F37",
"k c #9B633B",
"l c #CB5707",
"z c #D75F0B",
"x c #DF670F",
"c c #F37317",
"v c #AF4747",
"b c #B34F4F",
"n c #BB5757",
"m c #BF5B5B",
"M c #AB6F43",
"N c #C76363",
"B c #CB6B6B",
"V c #D37373",
"C c #DB7B7B",
"Z c #FF8F3B",
"A c #D78B5B",
"S c #FFA35B",
"D c #E79B6B",
"F c #EBDB57",
"G c #FFFF47",
"H c #939393",
"J c #979797",
"K c #9F9F9F",
"L c #A7A7A7",
"P c gray67",
"I c gray70",
"U c #B7B7B7",
"Y c #DF8787",
"T c #E78F8F",
"R c #EB9797",
"E c #F3A3A3",
"W c #F7ABAB",
"Q c #FFB7B7",
"! c #CBCBCB",
"~ c gray86",
/* pixels */
"                                                                ",
"                                                                ",
"                                                                ",
"                                                                ",
"                                                                ",
"                                                                ",
"                                                                ",
"                                                                ",
"                                                                ",
"                   NNNN          :ups                           ",
"                YRNBNYYYVV       iVVs                           ",
"           NNmmYRCvbVTRRCBN  BVCYNCTnCBN                        ",
"         NNNVmmbbvvsEEECNVNVVVBNnavvuBVCBN                      ",
"        BBBVYVNNnbvyNCYYBnBBNNnnnvmCunnnNBV                     ",
"       vmnVCYCCVYnpypBBmuvVVCCBNn;mv;nnbbNBNNB                  ",
"       BvVYYTYYVBnss;pbvnBTRRRRYBumv=CCBBCCNNmBN                ",
"      sBnBYsnTVBBnis;;ppBBREEWWRBvTmaYYYNNVCYYVBm               ",
"      vBnCTb*ynvieu;;;e:nBTBBBBBBamamRTYbNCYYCYTVC              ",
"      vBBCNu*+***;H0JJinnBCnsBBBeVBeCRTTbNCTYVCYEVb             ",
"      vBBNs:*+   PqI~!%vVNBVVnsssnYeVNBBsNYETCNCYVba            ",
"      vNNvu*&    4;876%vBCTTNmsabNesssspynYTTNbNVNpas           ",
"      vVbvu*      ##=&=bCTRTYVbabaasbvsievNNNNbNNbpu:           ",
"      bVsbe&      iy##%pCEWWWRmbabmCVVBNuyasvbbNbppuu           ",
"      bBsi*&      iby#yunCCYYBbapmCTTTTCm:yiassbsaav:           ",
"      bRYTV;-      ivb#;ttsYtYbsbBTWQQWTVNsuyypvbmCYsn          ",
"       RnVu;#      yiy#=ffttYYbibCTRWETCVVsibNNNNVVENsn         ",
"       VV;a;;      ;iy#=tfG::biybNNNCCCVVsLq6NCECNNVNpV         ",
"       bbue*        y##=:tj@e::ybnvasssvvsUH96CNbbNnvpns        ",
"       u;*#         y#;=d=@@*;*@#,jDF3@:ee54o9bsasVbsubn        ",
"                    y#tdd****;::&#*:@@&&&*  :-uupsbYNann        ",
"                    ;#%ttd::epp::**::;;;;+   ==ypvsCENbN        ",
"                    ;#%tfM<&*%%u:;--:uuu*     ==vCECNssN        ",
"                    ;#-#fM2M3h1%.w1:uppu+      =NEYNbbmN        ",
"                    ;%-vM<f<ftr<<<Mo;eu;+       NYNspNCb        ",
"                   u:#eu1>A$f22<2M2;==;+e      pNVaubENb        ",
"                   u=@:emmN7A<<k<M2;=;#e:#    usbsupEYNp        ",
"                   u*O:epsvmnbnA>1<::#eis:    psapuNCVsy        ",
"                   u%O*esiiyysvNVnp:;#ivs:    ssssbVNsyy        ",
"                  au@&&;ibNiiiuiiipy#evBsu:  sNbbsNbpy-         ",
"                  ai@&&&#;abvvvmvii;#aNNauyspNCTNbspy-&         ",
"                  aauyaa*#     &&&&&aannubCCREYNbsy#@           ",
"                   iyavv-#      &&&uyuaasaNVERNNbs*#            ",
"                   yyavc=#      &&&y:yyayyNVYCNNsy%             ",
"                    yssn=*       &&;&&eeuiCVbNNsa*#             ",
"                    yuzZ=*       &&u:&&&iCNbNbssu%              ",
"                    yvnn=        &&;ys:&:NbbNbbu=               ",
"                    ynzS=         &&yssuusuaCNb;                ",
"                  nv;vmY=nn       ;seisnns;:CNb                 ",
"                 8nv;CCm=nn8       isplZns&+                    ",
"                ooup;yvp=puoo      ippsVns&&                    ",
"                XXyy;;;;eyyXX       isiins&&                    ",
"                   y:;==y:          ipplns=&                    ",
"                    y:;;-            ipsnu=&                    ",
"                    -:::*            palnu=&&                   ",
"                    #-**#            asVni=&&                   ",
"                     ###             slxNi=&+                   ",
"                                   isBRRBie=u&                  ",
"                                   iByy:yge&nu                  ",
"                                  nsy0HK0ye%nCv;                ",
"                                98iy&7qK4&u@vsiK9               ",
"                               986i@@@@@@@@@@e*988              ",
"                               86Xy@@@@@@@@@@@&888              ",
"                                                                ",
"                                                                "
};
