/* XPM */
static char *result[] = {
/* columns rows colors chars-per-pixel */
"64 64 75 1 ",
"  c black",
". c #332B13",
"X c #232323",
"o c #2F2F2F",
"O c #373737",
"+ c #430000",
"@ c #470000",
"# c #4F0000",
"$ c #530707",
"% c #5B0000",
"& c #5B0707",
"* c #5F0707",
"= c #670000",
"- c #670B0B",
"; c #6B0F0F",
": c #730000",
"> c #7F0000",
", c #731313",
"< c #771717",
"1 c #7F1B1B",
"2 c #533F1F",
"3 c #6B4727",
"4 c #434343",
"5 c gray28",
"6 c gray31",
"7 c gray34",
"8 c #5B5B5B",
"9 c gray39",
"0 c gray42",
"q c #6D6D6D",
"w c #6F6F6F",
"e c #777777",
"r c #8B0000",
"t c #9B0000",
"y c #831F1F",
"u c #A70000",
"i c #B30000",
"p c #BF0000",
"a c #8B2323",
"s c #8F2B2B",
"d c #972F2F",
"f c #863838",
"g c #9B3333",
"h c #A33B3B",
"j c #A73F3F",
"k c #CB0000",
"l c #D70000",
"z c #E30000",
"x c #EF0000",
"c c red",
"v c #FF1F1F",
"b c #FF3F3F",
"n c #8F5F37",
"m c #AF4747",
"M c #B34F4F",
"N c #BB5757",
"B c #BF5B5B",
"V c #AB6F43",
"C c #FF5F5F",
"Z c #C76363",
"A c #CB6B6B",
"S c #D37373",
"D c #DB7B7B",
"F c #CF8353",
"G c #8B8B8B",
"H c #939393",
"J c #979797",
"K c #9F9F9F",
"L c #A7A7A7",
"P c gray70",
"I c #DF8787",
"U c #E78F8F",
"Y c #EB9797",
"T c #F3A3A3",
"R c #F7ABAB",
/* pixels */
"                                                                ",
"                                                                ",
"                                                                ",
"                                                                ",
"                                                                ",
"                                                                ",
"                                                                ",
"                                                                ",
"                                                                ",
"                                                                ",
"                                                                ",
"                                                                ",
"                                                                ",
"                                                                ",
"                                                                ",
"                                                                ",
"                                                                ",
"                                                                ",
"                                                                ",
"                                                                ",
"                                                                ",
"                                                                ",
"                                                                ",
"                                                                ",
"                                                                ",
"                                                                ",
"                                                                ",
"                                                                ",
"                                                                ",
"                                                                ",
"                                                                ",
"                                                                ",
"                                     bbvj                       ",
"                                   r+bbANkj                     ",
"                          4 mm%   r:+pvzzNmNj  J                ",
"                          o411,%%%%++pzijNhGPPL9                ",
"                           o*szDiM:1Bmp$dm1h899                 ",
"                            ;jz311<isNDTINs1&                   ",
"                            j..V*-tck+1NINm1<                   ",
"                            gZDDUUZM2xk,DNj<<                   ",
"                        ADZBgmjds3mDUMbCZs;ddDANmm              ",
"                       Mgj--yyajdna<mmllm<aMDIDDBBdA            ",
"                      jy;;;;-,1jMFmssllMhaMDTTIBmmgmII          ",
"                      <<-----a1ikVZhdttjmmmUTUAMhhgjZYAM        ",
"                      <#>>tuuilbbxzzlpttNSISSANmhhsgDDBB        ",
"                     <#glclklltr+#:tlcbbpNMms1sgs1yBDDDZgm      ",
"                    <#--#ipcct==tt+=tlzNglsss;*11+*mZZZMmZB     ",
"                    MZDDM#<uppbzzbzzlpt1#>+,11#*1#*dggg1ZYBs    ",
"                  1hADZNy,##uiziibiij1#>czi&#,,**#----@1NUAmf   ",
"        GGGG     &sABmmh,,*;u=irrvii-yupNMsi##+*      -DDRYMs   ",
"       O5470H   $1sshhsy<,;au*trrxruygllhss11+#      $DNUIZDM   ",
"       *#o478011111a<<<<<,;<t#>:rk:u1rda<a1111+ HKHe y$<SNmYM   ",
"       #ga###*s1jN,***,1<1s1t#><rk#tl1,**,Nj1seew8764  yy yD    ",
"       #a<#g<#jAjd<*,@*,s1;#r#>*rp*t,,*@*<dss*4w8854#      y    ",
"       #1##1a#sNh<*,@**;###*rpbbCblpt**@*<####,,#,###           ",
"      a#<##<1#1Nm<****;#pzzcbbcllxcclt*****#,1smg,gg,           ",
" wH7da##<####<<NDm*#        k           sMs#,,#,####11jNw       ",
" q7Xd##########mjd<*                    *mDN,,####11,,ad9ww     ",
"    a###########y-Kw                    sdjmy#,#######,d799     ",
"       ##########*wK9                  wK-yy#########a#a        ",
"                  999                 99w*######                ",
"                                      999                       ",
"                                                                ",
"                                                                "
};
