/* XPM */
static char *result[] = {
/* columns rows colors chars-per-pixel */
"64 64 239 2 ",
"   c black",
".  c #040404",
"X  c #14140E",
"o  c #31090A",
"O  c #132D14",
"+  c #2A3113",
"@  c #000639",
"#  c #2D1C23",
"$  c #18332E",
"%  c #272725",
"&  c #372B2B",
"*  c #2F3135",
"=  c #3B3637",
"-  c #4A0301",
";  c #480602",
":  c #550601",
">  c #5C0202",
",  c #5C030C",
"<  c #590C0D",
"1  c #640202",
"2  c #6C0103",
"3  c #6C000A",
"4  c #65080C",
"5  c #660B0F",
"6  c #740101",
"7  c #7D0201",
"8  c #7C020C",
"9  c #760908",
"0  c #76150C",
"q  c #780514",
"w  c #6B1515",
"e  c #791817",
"r  c #493415",
"t  c #4C3719",
"y  c #6A2D0D",
"u  c #732608",
"i  c #7C2419",
"p  c #7A1825",
"a  c #791B33",
"s  c #4F372A",
"d  c #7D2429",
"f  c #174911",
"g  c #264816",
"h  c #24671D",
"j  c #2A5024",
"k  c #3A463B",
"l  c #386328",
"z  c #534B3A",
"x  c #080145",
"c  c #040458",
"v  c #353B49",
"b  c #04026B",
"n  c #4E3B47",
"m  c #3D4950",
"M  c #4A4947",
"N  c #564A49",
"B  c #495646",
"V  c #57554A",
"C  c #474956",
"Z  c #495559",
"A  c #565757",
"S  c #66584C",
"D  c #734E54",
"F  c #665B58",
"G  c #4F674E",
"H  c #4A6558",
"J  c #5B645A",
"K  c #68654C",
"L  c #67675A",
"P  c #6A7356",
"I  c #585965",
"U  c #505676",
"Y  c #655869",
"T  c #6A5C73",
"R  c #586367",
"E  c #596E70",
"W  c #686867",
"Q  c #736768",
"!  c #6A746A",
"~  c #78766B",
"^  c #696974",
"/  c #726977",
"(  c #6B7879",
")  c #777677",
"_  c #830101",
"`  c #8C0101",
"'  c #8A030A",
"]  c #860809",
"[  c #930101",
"{  c #9B0201",
"}  c #930802",
"|  c #9D0A02",
" . c #94010A",
".. c #9B020A",
"X. c #880115",
"o. c #970215",
"O. c #871B1A",
"+. c #841C1D",
"@. c #901918",
"#. c #A30101",
"$. c #AC0101",
"%. c #A30901",
"&. c #AB0901",
"*. c #A6040A",
"=. c #AB010A",
"-. c #B40101",
";. c #BC0102",
":. c #B80A04",
">. c #B4020B",
",. c #BC020A",
"<. c #B01004",
"1. c #A60315",
"2. c #B50513",
"3. c #86251B",
"4. c #932519",
"5. c #823112",
"6. c #AC350E",
"7. c #881B23",
"8. c #951C24",
"9. c #BA0322",
"0. c #832223",
"q. c #8B2224",
"w. c #8A2928",
"e. c #962628",
"r. c #932C2C",
"t. c #8D332C",
"y. c #8D2B31",
"u. c #982D35",
"i. c #943233",
"p. c #903631",
"a. c #9A3837",
"s. c #AD3133",
"d. c #A43A3B",
"f. c #C40201",
"g. c #CB0102",
"h. c #C70905",
"j. c #C3030A",
"k. c #CC030B",
"l. c #D40101",
"z. c #DB0101",
"x. c #D90505",
"c. c #D3010B",
"v. c #C51000",
"b. c #C90313",
"n. c #D90312",
"m. c #E20101",
"M. c #EB0101",
"N. c #E50309",
"B. c #F30000",
"V. c #FB0202",
"C. c #F70308",
"Z. c #E80613",
"A. c #FE0015",
"S. c #FD1B1C",
"D. c #F8231A",
"F. c #FC2429",
"G. c #92440A",
"H. c #9D4035",
"J. c #A5453C",
"K. c #B1423B",
"L. c #983B42",
"P. c #A93B42",
"I. c #B53A47",
"U. c #A54343",
"Y. c #AB4648",
"T. c #B34A49",
"R. c #B94C51",
"E. c #AF5250",
"W. c #AC5153",
"Q. c #B45353",
"!. c #BA5758",
"~. c #BC615A",
"^. c #897073",
"/. c #857779",
"(. c #BD6362",
"). c #C95050",
"_. c #C2585B",
"`. c #C7615E",
"'. c #C55A63",
"]. c #C36462",
"[. c #CA6768",
"{. c #D26868",
"}. c #D47273",
"|. c #D07471",
" X c #DA7777",
".X c #37812A",
"XX c #52AE4F",
"oX c #72816F",
"OX c #79887A",
"+X c #858679",
"@X c #948975",
"#X c #DB847B",
"$X c #050290",
"%X c #0001AB",
"&X c #0301B9",
"*X c #7B7983",
"=X c #70718C",
"-X c #0507D8",
";X c #0002FD",
":X c #251FFB",
">X c #867A87",
",X c #8C778C",
"<X c #DF7F82",
"1X c #798484",
"2X c #74888D",
"3X c #6FFB8E",
"4X c #888788",
"5X c #96868A",
"6X c #8B9A8C",
"7X c #96978B",
"8X c #8A8B97",
"9X c #948A94",
"0X c #899A99",
"qX c #999898",
"wX c #A49892",
"eX c #9DA28C",
"rX c #95A298",
"tX c #AEAF9B",
"yX c #8A95A6",
"uX c #9796A5",
"iX c #A69AAA",
"pX c #9EA8A6",
"aX c #96A4B1",
"sX c #A9A6A6",
"dX c #B7A6A7",
"fX c #A8A9B1",
"gX c #B8B8B6",
"hX c #DB8785",
"jX c #D5968C",
"kX c #E58989",
"lX c #F19798",
"zX c #C3B3B4",
"xX c #F9A6A5",
"cX c #D1C4BC",
"vX c #B5B9C4",
"bX c #C4BAC8",
"nX c #BAC1C7",
"mX c #D2CED1",
"MX c #E8DADE",
/* pixels */
"                                                                                                                                ",
"                                                                                                                                ",
"                                                                                                                                ",
"                                                                                                                                ",
"                                                                                                            .                   ",
"                  T                     I                                             R                     ^                   ",
"                  ! K                   (                                           . )                   ^ W                   ",
"                  J Q *X              / 1X                                            @XQ               ,X^ L                   ",
"                    J )               =XiX                                            qX! .             *XF                     ",
"                    V >X+X            ! sX                                            fX!             4X( H                     ",
"                      K E >X4X        I dX9X                      .                 uXsXU .       +X4X) A                       ",
"                      I ( ^.4X        B 7XaX*X            $.n.M.V.b.:.            >XwX0XB         4X=XR A                       ",
"                        z W OXyX,X. . n /.8XiX*X      <.h.f.g.x.l.,.z.f.:.      4X7X0X*XM .   /.5X/.P z                         ",
"                        m D P 4X7X8X  s s 6 [ #.-.-.c.N.;.-.n.C.V.l.:.k.z.g.#.{ $..._ s =   9XqX5X/ R M                         ",
"                          M C ^ OXqXfXpXOX>.;.f.z.m.f.B.M.m.M.C.V.m.x.M.V.;.m.x.j.$.$.OXpXfXwX>XW N M                           ",
"          0X,X              M R ~ ^.sXmXmXgX| | ,.g.{ f.c.C.;.z.l.f.V.x.;.-.l.-.#.#.nXMXbXtX*X/ W M             . >X4X          ",
"            1X+X)             A L ^ ( qXmXMXgX[ M.g.,.=.-.f.%.g.g.;.-.;.$.h.&.Z.[ mXMXgX6X( ! A I             ( /.1X            ",
"            . ^.yX/.      h.h.M A E ^ Q qXiXzX*.M.-.k._ $.g.l.-.#.c.f.#.] ;.,.M.{ tXtXuXoXQ E S z x.,.      ) 0XOX              ",
"            . .   +XyXgXwX*XJ -.=.N z T R ! ( g.z.;.g.f.$.*.f.x.N.g.#.;.f.:.-.m.f.) ^ G E A C 1.-.^ >X6XdXqX4X                  ",
"                  A L >X9XrX1Xf.#.>.k.M D H f.x.f.%.m.h.j.=._ :.;.` -.:.l.z.#.:.x.g.L A k h.&.` ,.+XyX7X4XW A                   ",
"                    A G ^ +X^.V.3 #.#.g.k.g.z.&.=. .g.l.l.#.7 2 6 6 o.f.m.f.{ $.>.f.g.,.x.#.#._ B.~ 1XQ A z                     ",
"                  ;.f.= V I F g. .8 { %.[ ` [ { -.g.h.f.%.[ 2 1 1 6 _ #.k.;.g.;.#.{ ` _ { #.7 *.g.L F N k ;.f.                  ",
"                  =.h.B.;.{ _ -.k.g.} q._ ` { -.;.g.m.m.m.f.j._ ` $.c.m.M.x.;.g.;.[ ` 7 @.' x.;.-.7 { j.N.g.#.                  ",
"                #.2.{ ,.#.k.-.*.{ 9 7.+.w e ] ` { %.l.z.m.x.f.c.c.:.l.m.g.g.$.{ ` _ O.9 q.7.6 #.*.,.,.} -.$.:.$.                ",
"                1.m.#.6 6 =.$.V.g.$.4.0 e 0 w.+.] ' [ $.f.f.-.k.h.-.h.;.<.[  .0 q.r.e 5 0 i -.l.V.:.#.7 ` { C.-.                ",
"              ` _ -.} h.M.} g.B.2.0.3.t.r.r.R.U.u.w 4.] { &.,.} [ ,.-.} _ 3.e r.L.E.w.p.r.8.d ;.M.f.[ C.v.{ %.7 #.              ",
"              8 2 6 1 _ %.6 _ O.U.a.T.J.i 3.E.`.Y.O.e.6 X O g j g j O X 3 e.i s.{.T.5.i U.E.H.d.e } 1 &.` 3 9 : _               ",
"              ` _ 1 3 7 [ 1 0 J.p.d.Q.!.q.O.3.r.e.u.3 + g .XXX3Xh XXG f + 6 i.r.r.+.O.r.!.R.d.a.J.0 1 ..6 1 : ` ]               ",
"            b.x.:.6 , 5 3 9 a.d.K.(. XR.a.r.O.3.P.T.7.Y.g l .X+ g G h g Y.i T.Y.3.O.r.u.Q.}._.d.a.p.0 1 2 2 6 k.m.*.            ",
"            m.V.g.[ 6 > < p u.K.}.~.R. XQ.J.i.r.7.a.y.i K.f l j h l f P.i t.w.O.r.i.P.Q.}.!._.}.T.r.i 1 , , _ ;.V.B.            ",
"          ;.c.2.#.3.4.0 : : w Q.a.u.R.!.}.[.[.~.Y.d.3.0 3.e q O.< 0 q i q.8.a.E.`.~.[.}.!.T.a.d.W.q : : , 6 1 %.j.c.-.          ",
"          =.$.=. .U.u.q.s K y e.y.e.Y.Y.Q.Q.}.xXlX!.~.Y.d.i.e e w u a.P.Y.~.].kXxX|.(.T.R.P.e.w.t.u L r 2 7 o._ 1.-.{           ",
"          3 $._ p R.P.i % @XL e 9 +.r.T.U.[.kX}.U.T.'.[. XjX[.P.P.{.hX X[.'.U.Q.<X X Xd.E.u.O.0 5 / 6X& 3  .#.6 ` &.`           ",
"          6 6 ' i.s.L.> % W M w.0 3.w.T.Y.}.|.P.i.J.W.'.'. X#X!._.hX X].].R.P.y.L.}.}.R.Y.r.p w 3.B W O 1 7 #.` 2 6 1           ",
"          ' 8 2 5 > ' # X . + iXW 0 w +.L.w.I._.(.|.}.'.kXhXlX'.{.hXjXkX!.|.#X[.).R.i.i.3.w q ! iXg . o ; : 2 : 6 1 X.          ",
"          2 6 6 [ ` o.% % % = ) ( V T.7.O.w.s.Y.[.!.hX(.kXlXxXY.Y.xXlXhX'.hX_.Q.T.d.e r.4.U.A *X^.  - ; , _ 6 3 > 2 8           ",
"          %.[ ` l.2.G cXO # # I ( T e.sX< w y d.H.'.!.kX'.kXlXp.e.lXkX[.kX(.).L.s.0.9 w eXd.B >XY - 0 > mXA ;.>.` ` *.          ",
"          o.#.&.x.] Q rXi $ O k A V * >Xi Q e w O.8.`.|.Q.Q.hXr.q.kXQ.Q.}.`.w.d 0 w P a qX$ A M m 1 +.y uXQ } l.b.%.o.          ",
"            f.| { M.>.X.*.u , % % @ x v J >X( 7.e p w.O.7.y.t.d.a.r.w.8.7.0.q.7.i ^ >XH & c x - 5 0 y ` ` $.Z.{ =.;.            ",
"            6. .#.z.D.z.-.J u 1X% x x x & L Z t V s S L.q.+.O.p.r.0.p d H.S s A r I I s % c o , 1Xu T f.l.S.B.{ [ G.            ",
"              ,.{ g.g.B.( dXK mX5.; c c b C = A +XM rXA r.3.u.!.).t.3.r.A qXn 1XA = C % < 0 3.G.mXJ sX) C.x.f.#.$.              ",
"            . &.{ [ ,.m.[ 9XC iXL 9 - ; b b $X~ sXZ /.m &X^ 0Xz M pX=X%XC ~ Z sX! $X$X1 0.q.6 L uXM 7X{ x.:. ...=.              ",
"                ;.8 0 ..;.M.D. .| [ *._ : b $X/.bX1X%X-X-X;X:Xm C % :X;X-X&X8XvX/.5 p w. .#._ #.7 D.n.f.*._ h.&.                ",
"                { 7.4.u.i.[ f.F.j.*.L =.[ 9 ; ~ qX@Xt &XV ! V * & S ! V -Xt +XsX! e e.` { L &.m.F.h.} _ *.z.:.$.                ",
"                ;.y.).|.`.t.] g.C.S.#.W #...X.^ yX0Xv t Q 9XT k = F 0XR r N qX@XQ ] [ %.E -.S.M.g.] k.&.l.-.-.-.                ",
"                #.i.L.'.{.I.y.&.;.D.M.f.Y 4X1.S *XwXC #.^ dX0X6 X.uXsX!  .= uX) I =.4XY f.M.S.n.=.a ` N.#.o.7 *.                ",
"              ` 6   5.u.d.H.e.1.` $.g.M.S.Z...` 2 4 $.l.=.$.,.m.M.-.o.-.f...2 2 X...B.F.C.c...u.(.r.7 #.' `   : `               ",
"              7 8     O.4.3.@.[ %._ =.g.z.l.B.$.` 4 l.g.M.n.l.M.x.m.M.N.x.f.: q { B.g.m.;.=.6.Y.I.6 7 _ 7     #.q               ",
"                7 f.&.7 q k.l.;...[ _ %.:.g.g.V.#...N.;.$.z.z.z.g.M.z.$.l.l.$.#.V.g.j.;.=.7 w.t.3.m.b.] 3 ,.l.'                 ",
"                  q 6 > j.L A M.;.] ] 6 ` { 1.;.h.z.;.>.$.j.n.k.,.c.l.$.;.j.Z.C.;.>.%.` ` ' 7.j.C.A Y ;.6 6 4                   ",
"                        2X7X2X' M.;.v.M.{ 6 { ` | -.' <.' g.$.M.x.:.b.` $.` -.{ ..[ 6 | B.j.-.M.` 8X0X>X                        ",
"                        =X^.Y 6 C.-.M.g...o.:.` ,.9 f.B.2.' ' -.f.{ _ 9.V.f._ ;...;.} o.:.B.>.m.7 L ! !                         ",
"                        F W Z f.-. .g.}   ` _ q g.-.V.c.  ` ' [ } 7 X.  f.A.;.-.6 ` }   ` z.` ,.f.N / H                         ",
"                        B K v ; 3 6 <.-.q 6 _ 8 _ ;.,..  .6 [ } 6 } 6 _   j.g.7 _ 2 q _ ;.f.1 4 - s R B                         ",
"                            .           8 _ f.    7 6 3 ,   ..] l.2.  , 6 8 2     f.` 8         .                               ",
"                                          6 q ;.k.-.< >     *.  4 g.    > > g.g.| ' 6                                           ",
"                                              > 9 6 - 6 %.} >     1 h. .2 ; 3 2 6                                               ",
"                                                      , 3 1         3 9 2                                                       ",
"                                                                                                                                ",
"                                                                                                                                ",
"                                                                                                                                ",
"                                                                                                                                ",
"                                                                                                                                ",
"                                                                                                                                "
};
