/* XPM */
static char *result[] = {
/* columns rows colors chars-per-pixel */
"64 64 22 1 ",
"  c black",
". c #1B0F08",
"X c #141004",
"o c #26140B",
"O c #311B0E",
"+ c #3D1F0E",
"@ c #1D201D",
"# c #3E280B",
"$ c #262825",
"% c #2D2D2D",
"& c gray20",
"* c #412312",
"= c #4A2513",
"- c #4B3210",
"; c #543B17",
": c #5F331B",
"> c #5F431E",
", c #674B26",
"< c #6E532F",
"1 c #7B5F37",
"2 c #896B3E",
"3 c #96764B",
/* pixels */
"                            -#>3-o                              ",
"                             -;,@                               ",
"                              ->o                               ",
"                             ;->-                               ",
"                            <;.Oo>                              ",
"                            >&  $-                              ",
"                            ;%  @-                              ",
"                            -$  *#                              ",
"                            #O:<*O                              ",
"                             #>3-o                              ",
"                              ;1@                               ",
"                              -,o                               ",
"                              ->o                               ",
"                             ;*=o                               ",
"                            >;OO%O                              ",
"                            >%.O@#                              ",
"                            ;%  @-                              ",
"                            -$ ,O#                              ",
"                            #O#2*O                              ",
"                             #O>OX                              ",
"                               +X                               ",
"                               #-                               ",
"                              ;O-                               ",
"                             >O-                                ",
"                            ,O#                                 ",
"                           <O#      <                           ",
"                           ,O       >                           ",
"                           ;-      >;                           ",
"                           O;#    ,;-                           ",
"                            O#-  >-O                            ",
"                             O#---O                             ",
"                              OO-                               ",
"                                                                ",
"                                                                ",
"                                                                ",
"                                                                ",
"                                                                ",
"                                                                ",
"                                                                ",
"                                                                ",
"                                                                ",
"                                                                ",
"                                                                ",
"                                                                ",
"                                                                ",
"                                                                ",
"                                                                ",
"                                                                ",
"                                                                ",
"                                                                ",
"                                                                ",
"                                                                ",
"                                                                ",
"                                                                ",
"                                                                ",
"                                                                ",
"                                                                ",
"                                                                ",
"                                                                ",
"                                                                ",
"                                                                ",
"                                                                ",
"                                                                ",
"                                                                "
};
