/* XPM */
static char *result[] = {
/* columns rows colors chars-per-pixel */
"64 64 25 1 ",
"  c black",
". c #1B0F08",
"X c #26140B",
"o c #311B0E",
"O c #3D1F0E",
"+ c #1D201D",
"@ c #3E280B",
"# c gray13",
"$ c #272727",
"% c #262825",
"& c #2D2D2D",
"* c #323232",
"= c gray20",
"- c #3F3F3F",
"; c #412312",
": c #4A2513",
"> c #572F17",
", c #4B3210",
"< c #543B17",
"1 c #5F331B",
"2 c #5F431E",
"3 c #674B26",
"4 c #6E532F",
"5 c #7B5F37",
"6 c #96764B",
/* pixels */
"                             <&  %@                             ",
"                             ,%  ,@                             ",
"                             @o>2;@                             ",
"                             @@,5<o                             ",
"                              @@3o                              ",
"                               @<                               ",
"                               @<                               ",
"                              3;;,                              ",
"                              5oo$<                             ",
"                              3.o$,                             ",
"                              <X #@                             ",
"                              OX o@                             ",
"                              o*2@&                             ",
"                               <4;                              ",
"                               25                               ",
"                               -4                               ",
"                               %3                               ",
"                              <,2,                              ",
"                             4<.oX2                             ",
"                             2=  %,                             ",
"                             <&  +,                             ",
"                             ,%  ;@                             ",
"                             @o14;o                             ",
"                              @26,X                             ",
"                               <3+                              ",
"                               ,2X                              ",
"                               ,2X                              ",
"                              <;:X                              ",
"                             2<oo&o                             ",
"                             2&.o+@                             ",
"                             <&  +,                             ",
"                             ,%  o@                             ",
"                                                                ",
"                                                                ",
"                                                                ",
"                                                                ",
"                                                                ",
"                                                                ",
"                                                                ",
"                                                                ",
"                                                                ",
"                                                                ",
"                                                                ",
"                                                                ",
"                                                                ",
"                                                                ",
"                                                                ",
"                                                                ",
"                                                                ",
"                                                                ",
"                                                                ",
"                                                                ",
"                                                                ",
"                                                                ",
"                                                                ",
"                                                                ",
"                                                                ",
"                                                                ",
"                                                                ",
"                                                                ",
"                                                                ",
"                                                                ",
"                                                                ",
"                                                                "
};
