/* XPM */
static char *result[] = {
/* columns rows colors chars-per-pixel */
"64 64 32 1 ",
"  c black",
". c #1B0F08",
"X c #141004",
"o c #131313",
"O c #1B1B1B",
"+ c gray11",
"@ c #26140B",
"# c #311B0E",
"$ c #3D1F0E",
"% c #1D201D",
"& c #3E280B",
"* c gray13",
"= c #272727",
"- c #2D2D2D",
"; c gray20",
": c #393939",
"> c #3F3F3F",
", c #412312",
"< c #4A2513",
"1 c #4B3210",
"2 c #543B17",
"3 c #5F431E",
"4 c #674B26",
"5 c #6E532F",
"6 c #7B5F37",
"7 c gray27",
"8 c #4B4B4B",
"9 c #515151",
"0 c #565656",
"q c #626262",
"w c #896B3E",
"e c #96764B",
/* pixels */
"                                 1&3e1@                         ",
"                                  124%                          ",
"                                   13@                          ",
"                                   ,<@                          ",
"                                  2##-#                         ",
"                                 3-.#%&                         ",
"                                 2-  %1                         ",
"                                 2#O--&                         ",
"                                 &#*8>#                         ",
"                                  &-q;X                         ",
"                                   :0*                          ",
"                                   >8O                          ",
"                           &132&  -9=                           ",
"                         1235543&-8*                            ",
"                       135645422&:*                             ",
"                      35wew5422&#@@                             ",
"                     46eeee421&@@@@.                            ",
"                     6eeww5321&.@@@@.    ;                      ",
"                     weee664&@..@@@@@    7                      ",
"                     5ewe651#..#2&#.@X   0                      ",
"                     366652#..@363@.@&& -7                      ",
"                     &452&&4$#362&.@#1+=9;                      ",
"                      &2@.262243&.@##*;0=                       ",
"                       #.@,2@.#4@.2,*>=+                        ",
"                        #661.#122#&@o-+                         ",
"                        &31@26232.#.X+2                         ",
"                            &35&.@.  #3                         ",
"                             &4. .@3&14                         ",
"                                .#@#322                         ",
"                                &3&111&                         ",
"                                >353&                           ",
"                                                                ",
"                                                                ",
"                                                                ",
"                                                                ",
"                                                                ",
"                                                                ",
"                                                                ",
"                                                                ",
"                                                                ",
"                                                                ",
"                                                                ",
"                                                                ",
"                                                                ",
"                                                                ",
"                                                                ",
"                                                                ",
"                                                                ",
"                                                                ",
"                                                                ",
"                                                                ",
"                                                                ",
"                                                                ",
"                                                                ",
"                                                                ",
"                                                                ",
"                                                                ",
"                                                                ",
"                                                                ",
"                                                                ",
"                                                                ",
"                                                                ",
"                                                                ",
"                                                                "
};
