/* XPM */
static char *result[] = {
/* columns rows colors chars-per-pixel */
"64 64 29 1 ",
"  c black",
". c #040404",
"X c #1B0F08",
"o c #141004",
"O c #26140B",
"+ c #311B0E",
"@ c #3D1F0E",
"# c #1D201D",
"$ c #3E280B",
"% c #262825",
"& c #2D2D2D",
"* c #323232",
"= c gray20",
"- c #393939",
"; c #3F3F3F",
": c #412312",
"> c #4A2513",
", c #532B13",
"< c #572F17",
"1 c #4B3210",
"2 c #543B17",
"3 c #5F331B",
"4 c #5F431E",
"5 c #674B26",
"6 c #6E532F",
"7 c #7B5F37",
"8 c #454844",
"9 c #896B3E",
"0 c #96764B",
/* pixels */
"                           1$401O                               ",
"                            125#                                ",
"                             14O                                ",
"                            2141                                ",
"                           62X+O4                               ",
"                           4=  %1                               ",
"                           2&  #1                               ",
"                           1%  :$                               ",
"                           $+36:+                               ",
"                            $401O                               ",
"                            2:<O                                ",
"                           42+,&+                               ",
"                           4&X,#$                               ",
"                           2O  #1                               ",
"                       <5  1OOo+$     14@                       ",
"                       @24+$.+2#+   14@@                        ",
"                        :15%&11*:%15-@1                         ",
"                         +--4665-*&&#1                          ",
"                         %1479062:%++.                          ",
"                        o:1467642:%%Oo                          ",
"                       :2-:1-;221*&+%1%2245                     ",
"                     2654=:11%*:-8;%%58*>1                      ",
"                    22$+&%%+%+&&&*1%&>>%                        ",
"                        .O#+++*1:%+#O>                          ",
"                         oO++%242:+#:>                          ",
"                        :OO++:>2>:+%:#                          ",
"                        1+O+O+@:++O+::#                         ",
"                       1O+   .+OO+  #+:                         ",
"                              +1o    :O                         ",
"                              X:@                               ",
"                               +@                               ",
"                               .                                ",
"                                                                ",
"                                                                ",
"                                                                ",
"                                                                ",
"                                                                ",
"                                                                ",
"                                                                ",
"                                                                ",
"                                                                ",
"                                                                ",
"                                                                ",
"                                                                ",
"                                                                ",
"                                                                ",
"                                                                ",
"                                                                ",
"                                                                ",
"                                                                ",
"                                                                ",
"                                                                ",
"                                                                ",
"                                                                ",
"                                                                ",
"                                                                ",
"                                                                ",
"                                                                ",
"                                                                ",
"                                                                ",
"                                                                ",
"                                                                ",
"                                                                ",
"                                                                "
};
