/* XPM */
static char *result[] = {
/* columns rows colors chars-per-pixel */
"64 64 43 1 ",
"  c black",
". c #1B0F08",
"X c #141004",
"o c #251404",
"O c #26140B",
"+ c #311B0E",
"@ c #3D1F0E",
"# c #1D201D",
"$ c #3E280B",
"% c gray13",
"& c #262825",
"* c #2D2D2D",
"= c #3B3C3B",
"- c #3F3F3F",
"; c #4F0000",
": c #5B0000",
"> c #670000",
", c #730000",
"< c #7F0000",
"1 c #412312",
"2 c #4A2513",
"3 c #532B13",
"4 c #572F17",
"5 c #4B3210",
"6 c #543B17",
"7 c #5F331B",
"8 c #673B1F",
"9 c #5F431E",
"0 c #674B26",
"q c #734323",
"w c #7B4B27",
"e c #6E532F",
"r c #7B5F37",
"t c gray27",
"y c #8B0000",
"u c #9B0000",
"i c #A70000",
"p c #CA0000",
"a c #83532F",
"s c #8F5B33",
"d c #896B3E",
"f c #97633B",
"g c #96764B",
/* pixels */
"                            $9g5                                ",
"                             -e                                 ",
"                            6&0O                                ",
"                           96595+                               ",
"                           9*.+O$                               ",
"                           6*  #5                               ",
"                           5& 0+$                               ",
"                           $+$d1+                               ",
"                            $+9+X                               ",
"                             O@X                                ",
"                              $5                                ",
"                             6+5                                ",
"                            9+5                                 ",
"                           0+$                                  ",
"                          e+$      9                            ",
"                          0+       9                            ",
"                          65   qs 9$                            ",
"                          +6$ i<ar$.                            ",
"                           +$8ip96.                             ",
"                            +,au..><                            ",
"                           =7<a,11>;<t                          ",
"                           8qi2,373:>                           ",
"                          @7q<4>,29>:                           ",
"                         278wsw7<+34>                           ",
"                         <0dfw82Oo  <                           ",
"                         ;<aq8@O+>  u                           ",
"                         :;:7@OO;<                              ",
"                         y%:O: :><                              ",
"                           ::    i                              ",
"                           <                                    ",
"                           i                                    ",
"                                                                ",
"                                                                ",
"                                                                ",
"                                                                ",
"                                                                ",
"                                                                ",
"                                                                ",
"                                                                ",
"                                                                ",
"                                                                ",
"                                                                ",
"                                                                ",
"                                                                ",
"                                                                ",
"                                                                ",
"                                                                ",
"                                                                ",
"                                                                ",
"                                                                ",
"                                                                ",
"                                                                ",
"                                                                ",
"                                                                ",
"                                                                ",
"                                                                ",
"                                                                ",
"                                                                ",
"                                                                ",
"                                                                ",
"                                                                ",
"                                                                ",
"                                                                ",
"                                                                "
};
