/* XPM */
static char *result[] = {
/* columns rows colors chars-per-pixel */
"64 64 72 1 ",
"  c black",
". c #131313",
"X c #1B1B1B",
"o c #2F1804",
"O c #311B0E",
"+ c #3D1F0E",
"@ c gray13",
"# c #272727",
"$ c #262825",
"% c #2D2D2D",
"& c #323232",
"* c gray20",
"= c #393939",
"- c #3B3C3B",
"; c #3F3F3F",
": c #442104",
"> c #4C2403",
", c #542800",
"< c #412312",
"1 c #4B3210",
"2 c #543B17",
"3 c #612F02",
"4 c #723600",
"5 c #7D3F06",
"6 c #673B1F",
"7 c #3B4B37",
"8 c #5F431E",
"9 c #674B26",
"0 c #734323",
"q c #7B4B27",
"w c #6E532F",
"e c #7B5F37",
"r c gray27",
"t c #454844",
"y c #4B4B4B",
"u c #4E504D",
"i c #565656",
"p c #585D56",
"a c gray36",
"s c #61645F",
"d c #626262",
"f c #686868",
"g c #6D7068",
"h c gray44",
"j c #747B70",
"k c #8D4B09",
"l c #9B5311",
"z c #A25F15",
"x c #A9671A",
"c c #BC7C14",
"v c #8F5B33",
"b c #896B3E",
"n c #B47120",
"m c #96764B",
"M c #7D8379",
"N c #CC8818",
"B c #DC941C",
"V c #ECA017",
"C c #F4AC2F",
"Z c #FCBB39",
"A c #A38154",
"S c #AB895C",
"D c #FCC246",
"F c #FBC953",
"G c #FBD061",
"H c #868D82",
"J c #8B8B8B",
"K c #90978B",
"L c #A3AB9D",
"P c #B5BDB0",
"I c #E3B795",
"U c #DDDDDD",
/* pixels */
"                                                                ",
"                                                                ",
"                                                                ",
"                                                                ",
"                                                                ",
"                                                                ",
"                                                                ",
"                                                                ",
"                                                                ",
"                                                                ",
"                                                                ",
"                                                                ",
"                                                                ",
"                                                                ",
"                                                                ",
"                                                                ",
"                                                                ",
"                                                                ",
"                                                                ",
"                                                                ",
"                                                                ",
"                                                                ",
"                                                                ",
"                                                                ",
"                                                                ",
"                                                                ",
"                                                                ",
"                                                                ",
"                                                                ",
"                                                                ",
"                   r-ttwbbbbbewwweeebeee9-----t                 ",
"                   r-ttwbbbbbewwweeebeee9-----t                 ",
"                 --*=;;***%%%%%%%****;;;;;;*%%*tt               ",
"                 tt8899ebbbSSIUPPLKKHggiu998777**               ",
"                   %$%%***788wwww9wwemmmAee9&&*                 ",
"                   %$%%***788wwww9wwemmmAee9&&*                 ",
"                 ;;%###$###$$%%%%1%%*===&%%@XX.@@               ",
"                =%%%%%%%&&&&&*&%%%%%$%%$@@@XXXXttMf             ",
"                =%%%%%%%&&&&&*&%%%%%$%%$@@@XXXXttMf             ",
"              --=**%&**=;;;;;;;==*%%%%%%###$@@@@@%dhh           ",
"            8S88***&=;;yuuuppppuuy--*****%%#$$###@#--s          ",
"            8S88***&=;;yuuuppppuuy--*****%%#$$###@#--s          ",
"            8%99r###;uuippassppppyrr;==*%%%%#####$@**;ssr       ",
"            ;8,,&ttaMpppppsaauuuu;===**&%***##$##$$$$ rrs;      ",
"            %#@@$##%fLLLggpiitt;;*&&&%%*%%%%%%$$$##$$*  p&      ",
"            %#@@$##%fLLLggpiitt;;*&&&%%*%%%%%%$$$##$$*  p&      ",
"          --#%%%%%%====pJJJMMi;==%%%###%&%%*%%$$$##$$#  u%      ",
"          **##%%%%%%&--;;;;iiMgaay%%$$$$$$$&$$#####$$$--%*      ",
"          **##%%%%%%&--;;;;iiMgaay%%$$$$$$$&$$#####$$$--%*      ",
"          %%#$$$%%%%%**2888wwww88-uur==*%%%&%%%##%%#####*       ",
"          **$$$$%%%%%%%122899e9%%###%######*ttajjjguu*;;        ",
"          **$$$$%%%%%%%122899e9%%###%######*ttajjjguu*;;        ",
"          --$$$$$%%%%%%122699v9&&#######%**-;;t;;-*$$$          ",
"          ;;$$$$%%%%$%%1226889q,,4::%%%%*--uaapuu9=%%%          ",
"            @$$$%%%&%112228005VNNVoo%&&*=ttissewwt=%%=          ",
"            @$$$%%%&%112228005VNNVoo%&&*=ttissewwt=%%=          ",
"            %@##$%%*=;;3ll5nnBVZZx<<%%%%*;;uwwwuu;*%%           ",
"            ;@$$$%%*;;;933NBBVBNNz553>>%&--tuuy--*%;;           ",
"            ;@$$$%%*;;;933NBBVBNNz553>>%&--tuuy--*%;;           ",
"             -@@$%%*;kk533nCCFFZZB443ee%*--;--*%%%;             ",
"             9--@44nNkk3::zBBZGFFCxx4ccVZnnZnn5<<zqww           ",
"             9--@44nNkk3::zBBZGFFCxx4ccVZnnZnn5<<zqww           ",
"            ;zCCo554xoo,xxCDDDGGGGZZBnnFNllNll3zz:Czzt          ",
"             o44nNNNkOO+55xBBVZZZZBBnnnzzNNVNN:55Zn55           "
};
