/* XPM */
static char *result[] = {
/* columns rows colors chars-per-pixel */
"64 64 68 1 ",
"  c black",
". c #131313",
"X c #1B1B1B",
"o c gray13",
"O c #272727",
"+ c #262825",
"@ c #2D2D2D",
"# c #323232",
"$ c gray20",
"% c #393939",
"& c #3B3C3B",
"* c #3F3F3F",
"= c #4C2403",
"- c #542800",
"; c #412312",
": c #4B3210",
"> c #543B17",
", c #612F02",
"< c #723600",
"1 c #7D3F06",
"2 c #3B4B37",
"3 c #5F431E",
"4 c #674B26",
"5 c #734323",
"6 c #7B4B27",
"7 c #6E532F",
"8 c #7B5F37",
"9 c gray27",
"0 c #454844",
"q c #4B4B4B",
"w c #4E504D",
"e c #565656",
"r c #585D56",
"t c gray36",
"y c #61645F",
"u c #626262",
"i c #686868",
"p c #6D7068",
"a c gray44",
"s c #747B70",
"d c #8D4B09",
"f c #9B5311",
"g c #A9671A",
"h c #BC7C14",
"j c #83532F",
"k c #8F5B33",
"l c #896B3E",
"z c #B47120",
"x c #96764B",
"c c #7D8379",
"v c #CC8818",
"b c #DC941C",
"n c #ECA017",
"m c #F4AC2F",
"M c #FCBB39",
"N c #A38154",
"B c #AB895C",
"V c #FCC246",
"C c #FBC953",
"Z c #FBD061",
"A c #FBDD7B",
"S c #868D82",
"D c #8B8B8B",
"F c #90978B",
"G c #A3AB9D",
"H c #B5BDB0",
"J c #E3B795",
"K c #DDDDDD",
/* pixels */
"                                                                ",
"                                                                ",
"                                                                ",
"                                                                ",
"                                                                ",
"                                                                ",
"                                                                ",
"                                                                ",
"                                                                ",
"                                                                ",
"                                                                ",
"                                                                ",
"                                                                ",
"                                                                ",
"                                                                ",
"                                                                ",
"                                                                ",
"                                                                ",
"                                                                ",
"                                                                ",
"                                                                ",
"                                                                ",
"                                                                ",
"                                                                ",
"                                                                ",
"                                                                ",
"                                                                ",
"                                                                ",
"                                                                ",
"                                                                ",
"                   9&007lllll8777888l8884&&&&&0                 ",
"                   9&007lllll8777888l8884&&&&&0                 ",
"                 &&$%**$$$@@@@@@@$$$$******$@@$00               ",
"                 0033448lllBBJKHHGFFSppew443222$$               ",
"                   @+@@$$$23377774778xxxN884##$                 ",
"                   @+@@$$$23377774778xxxN884##$                 ",
"                 **@OOO+OOO++@@@@:@@$%%%#@@oXX.oo               ",
"                %@@@@@@@#####$#@@@@@+@@+oooXXXX00ci             ",
"                %@@@@@@@#####$#@@@@@+@@+oooXXXX00ci             ",
"              &&%$$@#$$%*******%%$@@@@@@OOO+ooooo@uaa           ",
"            3B33$$$#%**qwwwrrrrwwq&&$$$$$@@O++OOOoO&&y          ",
"            3B33$$$#%**qwwwrrrrwwq&&$$$$$@@O++OOOoO&&y          ",
"            3@449OOO*wwerrtyyrrrrq99*%%$@@@@OOOOO+o$$*yy9       ",
"            *3--#00tcrrrrryttwwww*%%%$$#@$$$OO+OO++++ 99y*      ",
"            @Ooo+OO@iGGGppree00**$###@@$@@@@@@+++OO++$  r#      ",
"            @Ooo+OO@iGGGppree00**$###@@$@@@@@@+++OO++$  r#      ",
"          &&O@@@@@@%%%%rDDDcce*%%@@@OOO@#@@$@@+++OO++O  w@      ",
"          $$OO@@@++@$&&*&&*wwpittq@@+++++++#++OOOOO+++&&@$      ",
"          $$OO@@@++@$&&*&&*wwpittq@@+++++++#++OOOOO+++&&@$      ",
"          @@O+++@@@@#%%>>>>444444*ww9%%$@@@#@@@OO@@OOOOO$       ",
"          $$++++@@@;;::>3347784;;OOO@OOOOOO$00tssspww$**        ",
"          $$++++@@@;;::>3347784;;OOO@OOOOOO$00tssspww$**        ",
"          &&+++++@@@:::>33488k4##OOOOOOO@$$&**0**&$+++          ",
"          **++++@@@::>>>334445>@@@--@++@#&&wttrww4%@@@          ",
"            o+++@@@$>>>3333553=ddz--@@@#%00eyy8770%@@%          ",
"            o+++@@@$>>>3333553=ddz--@@@#%00eyy8770%@@%          ",
"            @oOO+##$%,,dggbmmVVVVh@@+++@$**w777ww*$@@:          ",
"            *oOO+@@$*444ffVnnhmzz-;;++++@&&0ww0&&$@**4          ",
"            *oOO+@@$*444ffVnnhmzz-;;++++@&&0ww0&&$@**4          ",
"             &oo+@@>*44zddhMMZVVVmvv,11,#&&7&&$@@+*334          ",
"              &&+33bVjjjffzvvMZZZZnngffVbddVbbd%%;;>>>          ",
"              &&+33bVjjjffzvvMZZZZnngffVbddVbbd%%;;>>>          ",
"                 ==zdCC4ffMCCCCZZAMMhggmh,,1hh,11;::::          ",
"                   ff77w77gMMMMMMMhhggggggg444<668744           "
};
