/* XPM */
static char *result[] = {
/* columns rows colors chars-per-pixel */
"64 64 69 1 ",
"  c black",
". c #131313",
"X c #1B1B1B",
"o c #3D1F0E",
"O c gray13",
"+ c #272727",
"@ c #262825",
"# c #2D2D2D",
"$ c #323232",
"% c gray20",
"& c #393939",
"* c #3B3C3B",
"= c #3F3F3F",
"- c #442104",
"; c #542800",
": c #412312",
"> c #532B13",
", c #4B3210",
"< c #543B17",
"1 c #5F331B",
"2 c #612F02",
"3 c #723600",
"4 c #7D3F06",
"5 c #673B1F",
"6 c #3B4B37",
"7 c #5F431E",
"8 c #674B26",
"9 c #7B4B27",
"0 c #6E532F",
"q c #7B5F37",
"w c gray27",
"e c #454844",
"r c #4B4B4B",
"t c #4E504D",
"y c #565656",
"u c #585D56",
"i c gray36",
"p c #61645F",
"a c #626262",
"s c #686868",
"d c #6D7068",
"f c gray44",
"g c #747B70",
"h c #8D4B09",
"j c #9B5311",
"k c #A25F15",
"l c #A9671A",
"z c #BC7C14",
"x c #896B3E",
"c c #B47120",
"v c #96764B",
"b c #7D8379",
"n c #CC8818",
"m c #DC941C",
"M c #ECA017",
"N c #F4AC2F",
"B c #FCBB39",
"V c #A38154",
"C c #AB895C",
"Z c #FCC246",
"A c #FBD061",
"S c #FBDD7B",
"D c #868D82",
"F c #8B8B8B",
"G c #90978B",
"H c #A3AB9D",
"J c #B5BDB0",
"K c #E3B795",
"L c #DDDDDD",
/* pixels */
"                                                                ",
"                                                                ",
"                                                                ",
"                                                                ",
"                                                                ",
"                                                                ",
"                                                                ",
"                                                                ",
"                                                                ",
"                                                                ",
"                                                                ",
"                                                                ",
"                                                                ",
"                                                                ",
"                                                                ",
"                                                                ",
"                                                                ",
"                                                                ",
"                                                                ",
"                                                                ",
"                                                                ",
"                                                                ",
"                                                                ",
"                                                                ",
"                                                                ",
"                                                                ",
"                                                                ",
"                                                                ",
"                                                                ",
"                                                                ",
"                   w*ee0xxxxxq000qqqxqqq8*****e                 ",
"                   w*ee0xxxxxq000qqqxqqq8*****e                 ",
"                 **%&==%%%#######%%%%======%##%ee               ",
"                 ee7788qxxxCCKLJJHGGDddyt887666%%               ",
"                   #@##%%%6770000800qvvvVqq8$$%                 ",
"                   #@##%%%6770000800qvvvVqq8$$%                 ",
"                 ==#+++@+++@@####,##%&&&$##OXX.OO               ",
"                &#######$$$$$%$#####@##@OOOXXXXeebs             ",
"                &#######$$$$$%$#####@##@OOOXXXXeebs             ",
"              **&%%#$%%&=======&&%######+++@OOOOO#aff           ",
"            7C77%%%$&==rtttuuuuttr**%%%%%##+@@+++O+**p          ",
"            7C77%%%$&==rtttuuuuttr**%%%%%##+@@+++O+**p          ",
"            7#88w+++=ttyuuippuuuurww=&&%####+++++@O%%=ppw       ",
"            =7;;$eeibuuuuupiitttt=&&&%%$#%%%++@++@@@@ wwp=      ",
"            #+OO@++#sHHHdduyyee==%$$$##%######@@@++@@%  u$      ",
"            #+OO@++#sHHHdduyyee==%$$$##%######@@@++@@%  u$      ",
"          **+######&&&&uFFFbby=&&###+++#$##%##@@@++@@+  t#      ",
"          %%++######%**====qqCdiir##@@@@@@@$@@+++++@@@**#%      ",
"          %%++######%**====qqCdiir##@@@@@@@$@@+++++@@@**#%      ",
"          ##+@@@####$&&<<<7880977wttw&&%###$###++##+++++%       ",
"          %%@@@@#######,<<<88q8::+++#++++++%eeigggdtt%==        ",
"          %%@@@@#######,<<<88q8::+++#++++++%eeigggdtt%==        ",
"          **@@@@@####@@@::<8897::+++++++#%%*==e==*%@@@          ",
"          ==@@@@####@###::<557lzzm442###%**tiiutt8&###          ",
"            O@@@###$###,<<722cBNNm###%%%&eeyppq00e&##&          ",
"            O@@@###$###,<<722cBNNm###%%%&eeyppq00e&##&          ",
"            #@@@@##%%<<;772hhkzmml######%==t000tt=%##           ",
"            =O@@@##%===8882kkmMnnc--@++#$**ettr**%#==           ",
"            =O@@@##%===8882kkmMnnc--@++#$**ettr**%#==           ",
"            2*OO@##%222111mNNAZZZNll;++#3332222###>222          ",
"            3z**:22kzcc;hhlccZSAANccj--jzmmhzzh99l3zz3          ",
"            3z**:22kzcc;hhlccZSAANccj--jzmmhzzh99l3zz3          ",
"          333333222hc33knnZNNBSSSNBBMhhSZhh;hh;NNl333333        ",
"             h22kzzlk333kkknnNNNNNnnk885o55;nn;zzhzhh           "
};
