/* XPM */
static char *result[] = {
/* columns rows colors chars-per-pixel */
"64 64 69 1 ",
"  c black",
". c #131313",
"X c #1B1B1B",
"o c gray13",
"O c #272727",
"+ c #262825",
"@ c #2D2D2D",
"# c #323232",
"$ c gray20",
"% c #393939",
"& c #3B3C3B",
"* c #3F3F3F",
"= c #4C2403",
"- c #542800",
"; c #412312",
": c #4B3210",
"> c #543B17",
", c #5F331B",
"< c #612F02",
"1 c #723600",
"2 c #7D3F06",
"3 c #3B4B37",
"4 c #5F431E",
"5 c #674B26",
"6 c #7B4B27",
"7 c #6E532F",
"8 c #7B5F37",
"9 c gray27",
"0 c #454844",
"q c #4B4B4B",
"w c #4E504D",
"e c #565656",
"r c #585D56",
"t c gray36",
"y c #61645F",
"u c #626262",
"i c #686868",
"p c #6D7068",
"a c gray44",
"s c #747B70",
"d c #8D4B09",
"f c #9B5311",
"g c #A25F15",
"h c #A9671A",
"j c #BC7C14",
"k c #83532F",
"l c #8F5B33",
"z c #896B3E",
"x c #B47120",
"c c #96764B",
"v c #7D8379",
"b c #CC8818",
"n c #DC941C",
"m c #ECA017",
"M c #F4AC2F",
"N c #FCBB39",
"B c #A38154",
"V c #AB895C",
"C c #FCC246",
"Z c #FBC953",
"A c #FBD061",
"S c #FBDD7B",
"D c #868D82",
"F c #8B8B8B",
"G c #90978B",
"H c #A3AB9D",
"J c #B5BDB0",
"K c #E3B795",
"L c #DDDDDD",
/* pixels */
"                                                                ",
"                                                                ",
"                                                                ",
"                                                                ",
"                                                                ",
"                                                                ",
"                                                                ",
"                                                                ",
"                                                                ",
"                                                                ",
"                                                                ",
"                                                                ",
"                                                                ",
"                                                                ",
"                                                                ",
"                                                                ",
"                                                                ",
"                                                                ",
"                                                                ",
"                                                                ",
"                                                                ",
"                                                                ",
"                                                                ",
"                                                                ",
"                                                                ",
"                                                                ",
"                                                                ",
"                                                                ",
"                                                                ",
"                                                                ",
"                   9&007zzzzz8777888z8885&&&&&0                 ",
"                   9&007zzzzz8777888z8885&&&&&0                 ",
"                 &&$%**$$$@@@@@@@$$$$******$@@$00               ",
"                 0044558zzzVVKLJJHGGDppew554333$$               ",
"                   @+@@$$$34477775778cccB885##$                 ",
"                   @+@@$$$34477775778cccB885##$                 ",
"                 **@OOO+OOO++@@@@:@@$%%%#@@oXX.oo               ",
"                %@@@@@@@#####$#@@@@@+@@+oooXXXX00vi             ",
"                %@@@@@@@#####$#@@@@@+@@+oooXXXX00vi             ",
"              &&%$$@#$$%***&&**%%$@@@@@@OOO+ooooo@uaa           ",
"            4V44$$$#%**qwwwrrrrwwq&&$$$$$@@O++OOOoO&&y          ",
"            4V44$$$#%**qwwwrrrrwwq&&$$$$$@@O++OOOoO&&y          ",
"            4@559OOO*wwerrtyyrrrrq99*%%$@@@@OOOOO+o$$*yy9       ",
"            *4--#00tvrrrrryttwwww*%%%$$#@$$$OO+OO++++ 99y*      ",
"            @Ooo+OO@iHHHppree00**$###@@$@@@@@@+++OO++$  r#      ",
"            @Ooo+OO@iHHHppree00**$###@@$@@@@@@+++OO++$  r#      ",
"          &&O@@@@@@%%%%rFFFvve*%%@@@OOO@#@@$@@+++OO++O  w@      ",
"          $$OO@@@@@@$&&*&&&eevpttq@@+++++++#++OOOOO+++&&@$      ",
"          $$OO@@@@@@$&&*&&&eevpttq@@+++++++#++OOOOO+++&&@$      ",
"          @@O+++@@@@#$$%&&>**55445ww9%%$@@@#@@@OO@@OOOOO$       ",
"          $$++++@@@@@@@@##>447>@@OOO@OOOOOO$00tssspww$**        ",
"          $$++++@@@@@@@@##>447>@@OOO@OOOOOO$00tssspww$**        ",
"          &&+++++@@@@@@+@@>4452fff==OOOO@$$&**0**&$+++          ",
"          **++++@@@@@++@::>44>xjjbdd<@@@$&&wttrww5%@@@          ",
"            ++++@@@@@@@:>><22ddddxdd@$$$%00eyy8770%@@%          ",
"            ++++@@@@@@@:>><22ddddxdd@$$$%00eyy8770%@@%          ",
"            @+++@@@$#%%>445==<xjj=;;+@@@$**w777ww*$@@           ",
"            *o+++@@$*44-<<dxxnnxxxff<OO@#&&0ww0&&$@,,=          ",
"            *o+++@@$*44-<<dxxnnxxxff<OO@#&&0ww0&&$@,,=          ",
"          11h&oo+@@2hhh222jbbNAZZNjj2--@<ddjhh111:611h11        ",
"          11x1&&;+++xhhxggxbbmZAASNNngg2xjj<22<66hx11x11        ",
"          11x1&&;+++xhhxggxbbmZAASNNngg2xjj<22<66hx11x11        ",
"            2g22222hfggjjjMZZCACCCMMb11ZSCC2==222g2gg2          ",
"             <22<xxghkkgggbbbmCCCbbbbllg6<<<xx<22<2<<           "
};
