/* XPM */
static char *result[] = {
/* columns rows colors chars-per-pixel */
"64 64 72 1 ",
"  c black",
". c #131313",
"X c #1B1B1B",
"o c #2F1804",
"O c #391C06",
"+ c gray13",
"@ c #272727",
"# c #262825",
"$ c #2D2D2D",
"% c #323232",
"& c gray20",
"* c #393939",
"= c #3B3C3B",
"- c #3F3F3F",
"; c #442104",
": c #4C2403",
"> c #542800",
", c #412312",
"< c #4B3210",
"1 c #543B17",
"2 c #612F02",
"3 c #723600",
"4 c #7D3F06",
"5 c #673B1F",
"6 c #3B4B37",
"7 c #5F431E",
"8 c #674B26",
"9 c #734323",
"0 c #7B4B27",
"q c #6E532F",
"w c #7B5F37",
"e c gray27",
"r c #454844",
"t c #4B4B4B",
"y c #4E504D",
"u c #565656",
"i c #585D56",
"p c gray36",
"a c #61645F",
"s c #626262",
"d c #686868",
"f c #6D7068",
"g c gray44",
"h c #747B70",
"j c #8D4B09",
"k c #9B5311",
"l c #A25F15",
"z c #A9671A",
"x c #BC7C14",
"c c #83532F",
"v c #896B3E",
"b c #B47120",
"n c #96764B",
"m c #7D8379",
"M c #CC8818",
"N c #DC941C",
"B c #ECA017",
"V c #F4AC2F",
"C c #FCBB39",
"Z c #A38154",
"A c #AB895C",
"S c #FCC246",
"D c #FBC953",
"F c #FBD061",
"G c #FBDD7B",
"H c #868D82",
"J c #8B8B8B",
"K c #90978B",
"L c #A3AB9D",
"P c #B5BDB0",
"I c #E3B795",
"U c #DDDDDD",
/* pixels */
"                                                                ",
"                                                                ",
"                                                                ",
"                                                                ",
"                                                                ",
"                                                                ",
"                                                                ",
"                                                                ",
"                                                                ",
"                                                                ",
"                                                                ",
"                                                                ",
"                                                                ",
"                                                                ",
"                                                                ",
"                                                                ",
"                                                                ",
"                                                                ",
"                                                                ",
"                                                                ",
"                                                                ",
"                                                                ",
"                                                                ",
"                                                                ",
"                                                                ",
"                                                                ",
"                                                                ",
"                                                                ",
"                                                                ",
"                                                                ",
"                   e=rrqvvvvvwqqqwwwvwww8=====r                 ",
"                   e=rrqvvvvvwqqqwwwvwww8=====r                 ",
"                 ==&*--&&&$$$$$$$&&&&------&$$&rr               ",
"                 rr7788wvvvAAIUPPLKKHffuy887666&&               ",
"                   $#$$&&&677qqqq8qqwnnnZww8%%&                 ",
"                   $#$$&&&677qqqq8qqwnnnZww8%%&                 ",
"                 --$@@@#@@@##$$$$<$$&***%$$+XX.++               ",
"                *$$$$$$$%%%%%&%$$$$$#$$#+++XXXXrrmd             ",
"                *$$$$$$$%%%%%&%$$$$$#$$#+++XXXXrrmd             ",
"              ==*&&$%&&*-------**&$$$$$$@@@#+++++$sgg           ",
"            7A77&&&%*--tyyyiiiiyyt==&&&&&$$@##@@@+@==a          ",
"            7A77&&&%*--tyyyiiiiyyt==&&&&&$$@##@@@+@==a          ",
"            7$88e@@@-yyuiipaaiiiitee-**&$$$$@@@@@#+&&-aae       ",
"            -7>>%rrpmiiiiiappyyyy-***&&%$&&&@@#@@#### eea-      ",
"            $@++#@@$dLLLffiuurr--&%%%$$&$$$$$$###@@##&  i%      ",
"            $@++#@@$dLLLffiuurr--&%%%$$&$$$$$$###@@##&  i%      ",
"          ==@$$$$$$****iJJJmmu-**$$$@@@$%$$&$$###@@##@  y$      ",
"          &&@@$$$$$$&==----yygsppt$$#######%##@@@@@###==$&      ",
"          &&@@$$$$$$&==----yygsppt$$#######%##@@@@@###==$&      ",
"          $$@###$$$$%**111-88r-11eyye**&$$$%$$$@@$$@@@@@&       ",
"          &&####$$$$$<<<11788qo,,@@@$@@@@@@&rrphhhfyy&--        ",
"          &&####$$$$$<<<11788qo,,@@@$@@@@@@&rrphhhfyy&--        ",
"          ==####$$$<<<<177800oo;;;@@@@@@$&&=--r--=&###          ",
"          --####$$$<<11177q00:1$$$$$$$$$&==yppiyy8*$$$          ",
"            +####$$&111788q887:$$$$$$%%%*rruaawqqr*$$*          ",
"            +####$$&111788q887:$$$$$$%%%*rruaawqqr*$$*          ",
"            $+@@#$$*1<<k33xMMVVBBx$$$$$$%--yqqqyy-&$$$          ",
"            -+++###&-<<OBBCSSBbbb#++####$==ryyr==&$--#          ",
"            -+++###&-<<OBBCSSBbbb#++####$==ryyr==&$--#          ",
"          333=+++$$&8;;:bbVDDFFFFSMMxjj>%ooo==ooo#-,, <<7       ",
"             1==###3V::1::kbbBSFFBBBzjjBx44Bxx4552,,,<111       ",
"             1==###3V::1::kbbBSFFBBBzjjBx44Bxx4552,,,<111       ",
"             4ooxooNBDD3bbbCCVFGGGVVb>>Cxxx4xxx44xo44<11<       ",
"             4xx3VVkk--,jjbbbVCCCbbbwcc9zllBzzlVVBx44q888       "
};
