/* XPM */
static char *result[] = {
/* columns rows colors chars-per-pixel */
"64 64 70 1 ",
"  c black",
". c #131313",
"X c #1B1B1B",
"o c #2F1804",
"O c #391C06",
"+ c gray13",
"@ c #272727",
"# c #262825",
"$ c #2D2D2D",
"% c #323232",
"& c gray20",
"* c #393939",
"= c #3B3C3B",
"- c #3F3F3F",
"; c #442104",
": c #4C2403",
"> c #542800",
", c #412312",
"< c #4A2513",
"1 c #4B3210",
"2 c #543B17",
"3 c #5F331B",
"4 c #612F02",
"5 c #723600",
"6 c #7D3F06",
"7 c #3B4B37",
"8 c #5F431E",
"9 c #674B26",
"0 c #7B4B27",
"q c #6E532F",
"w c #7B5F37",
"e c gray27",
"r c #454844",
"t c #4B4B4B",
"y c #4E504D",
"u c #565656",
"i c #585D56",
"p c gray36",
"a c #61645F",
"s c #626262",
"d c #686868",
"f c #6D7068",
"g c gray44",
"h c #747B70",
"j c #8D4B09",
"k c #9B5311",
"l c #A25F15",
"z c #A9671A",
"x c #BC7C14",
"c c #83532F",
"v c #896B3E",
"b c #B47120",
"n c #96764B",
"m c #7D8379",
"M c #CC8818",
"N c #DC941C",
"B c #F4AC2F",
"V c #FCBB39",
"C c #A38154",
"Z c #AB895C",
"A c #FCC246",
"S c #FBC953",
"D c #FBD061",
"F c #868D82",
"G c #8B8B8B",
"H c #90978B",
"J c #A3AB9D",
"K c #B5BDB0",
"L c #E3B795",
"P c #DDDDDD",
/* pixels */
"                                                                ",
"                                                                ",
"                                                                ",
"                                                                ",
"                                                                ",
"                                                                ",
"                                                                ",
"                                                                ",
"                                                                ",
"                                                                ",
"                                                                ",
"                                                                ",
"                                                                ",
"                                                                ",
"                                                                ",
"                                                                ",
"                                                                ",
"                                                                ",
"                                                                ",
"                                                                ",
"                                                                ",
"                                                                ",
"                                                                ",
"                                                                ",
"                                                                ",
"                                                                ",
"                                                                ",
"                                                                ",
"                                                                ",
"                                                                ",
"                   e=rrqvvvvvwqqqwwwvwww9=====r                 ",
"                   e=rrqvvvvvwqqqwwwvwww9=====r                 ",
"                 ==&*--&&&$$$$$$$&&&&------&$$&rr               ",
"                 rr8899wvvvZZLPKKJHHFffuy998777&&               ",
"                   $#$$&&&788qqqq9qqwnnnCww9%%&                 ",
"                   $#$$&&&788qqqq9qqwnnnCww9%%&                 ",
"                 --$@@@#@@@##$$$$1$$&***%$$+XX.++               ",
"                *$$$$$$$%%%%%&%$$$$$#$$#+++XXXXrrmd             ",
"                *$$$$$$$%%%%%&%$$$$$#$$#+++XXXXrrmd             ",
"              ==*&&$%&&*-------**&$$$$$$@@@#+++++$sgg           ",
"            8Z88&&&%*--tyyyiiiiyyt==&&&&&$$@##@@@+@==a          ",
"            8Z88&&&%*--tyyyiiiiyyt==&&&&&$$@##@@@+@==a          ",
"            8$99e@@@-yyuiipaaiiiitee-**&$$$$@@@@@#+&&-aae       ",
"            -8>>%rrpmiiiiiappyyyy-***&&%$&&&@@#@@#### eea-      ",
"            $@++#@@$dJJJffiuurr--&%%%$$&$$$$$$###@@##&  i%      ",
"            $@++#@@$dJJJffiuurr--&%%%$$&$$$$$$###@@##&  i%      ",
"          ==@$$$$$$****iGGGmmu-**$$$@@@$%$$&$$###@@##@  y$      ",
"          &&@@$$$$$$&==----yyhdppt$$#######%##@@@@@###==$&      ",
"          &&@@$$$$$$&==----yyhdppt$$#######%##@@@@@###==$&      ",
"          $$@###$$$$%&&*===--98%%eyye**&$$$%$$$@@$$@@@@@&       ",
"          &&####$$$$$$$%$$188>2>>>::$@@@@@@&rrphhhfyy&--        ",
"          &&####$$$$$$$%$$188>2>>>::$@@@@@@&rrphhhfyy&--        ",
"          ==#####$$$###$1128892,,o##@@@O$&&=--r--=&###          ",
"          --####$$$$$,,12298811>>j55;$$%&==yppiyy9*$$$          ",
"            +###$$$&1222990qq86zzl22222*&rruaawqqr*$$2          ",
"            +###$$$&1222990qq86zzl22222*&rruaawqqr*$$2          ",
"          **$+##$112222899qoo6bzzjooo11$%--yqqqyy-&$$<**        ",
"          >>-+++#$$2>66kzzNVVVVNNlMMMbbo%==ryyt==&$--:>>        ",
"          >>-+++#$$2>66kzzNVVVVNNlMMMbbo%==ryyt==&$--:>>        ",
"             =++#$$&-666kkbNNNASSSNNMbb#&**===&$$$-             ",
"          >>jj==@###zbbbllNBBSBBBANNV55MMbbzll$**4jjjj>>        ",
"          >>jj==@###zbbbllNBBSBBBANNV55MMbbzll$**4jjjj>>        ",
"             ;xxl66jbllxNNVSSDSSSSBBN66SSBBBNNMoolx;;           ",
"              llzzz5jccjjjNNNNBBBNbbc00b3llxll5bbzl             "
};
