/* XPM */
static char *result[] = {
/* columns rows colors chars-per-pixel */
"64 64 75 1 ",
"  c black",
". c #131313",
"X c #1B1B1B",
"o c #2F1804",
"O c #3D1F0E",
"+ c gray13",
"@ c #272727",
"# c #262825",
"$ c #2D2D2D",
"% c #323232",
"& c gray20",
"* c #393939",
"= c #3B3C3B",
"- c #3F3F3F",
"; c #442104",
": c #4C2403",
"> c #542800",
", c #412312",
"< c #4A2513",
"1 c #572F17",
"2 c #4B3210",
"3 c #543B17",
"4 c #5F331B",
"5 c #612F02",
"6 c #723600",
"7 c #7D3F06",
"8 c #673B1F",
"9 c #3B4B37",
"0 c #5F431E",
"q c #674B26",
"w c #734323",
"e c #7B4B27",
"r c #6E532F",
"t c #7B5F37",
"y c gray27",
"u c #454844",
"i c #4B4B4B",
"p c #4E504D",
"a c #565656",
"s c #585D56",
"d c gray36",
"f c #61645F",
"g c #626262",
"h c #686868",
"j c #6D7068",
"k c gray44",
"l c #747B70",
"z c #8D4B09",
"x c #9B5311",
"c c #A25F15",
"v c #A9671A",
"b c #BC7C14",
"n c #83532F",
"m c #8F5B33",
"M c #896B3E",
"N c #B47120",
"B c #96764B",
"V c #7D8379",
"C c #CC8818",
"Z c #DC941C",
"A c #ECA017",
"S c #F4AC2F",
"D c #FCBB39",
"F c #A38154",
"G c #AB895C",
"H c #FCC246",
"J c #FBC953",
"K c #FBD061",
"L c #868D82",
"P c #8B8B8B",
"I c #90978B",
"U c #A3AB9D",
"Y c #B5BDB0",
"T c #E3B795",
"R c #DDDDDD",
/* pixels */
"                                                                ",
"                                                                ",
"                                                                ",
"                                                                ",
"                                                                ",
"                                                                ",
"                                                                ",
"                                                                ",
"                                                                ",
"                                                                ",
"                                                                ",
"                                                                ",
"                                                                ",
"                                                                ",
"                                                                ",
"                                                                ",
"                                                                ",
"                                                                ",
"                                                                ",
"                                                                ",
"                                                                ",
"                                                                ",
"                                                                ",
"                                                                ",
"                                                                ",
"                                                                ",
"                                                                ",
"                                                                ",
"                                                                ",
"                                                                ",
"                   y=uurMMMMMtrrrtttMtttq=====u                 ",
"                   y=uurMMMMMtrrrtttMtttq=====u                 ",
"                 ==&*--&&&$$$$$$$&&&&------&$$&uu               ",
"                 uu00qqtMMMGGTRYYUIILjjapqq0999&&               ",
"                   $#$$&&&900rrrrqrrtBBBFttq%%&                 ",
"                   $#$$&&&900rrrrqrrtBBBFttq%%&                 ",
"                 --$@@@#@@@##$$$$2$$&***%$$+XX.++               ",
"                *$$$$$$$%%%%%&%$$$$$#$$#+++XXXXuuVh             ",
"                *$$$$$$$%%%%%&%$$$$$#$$#+++XXXXuuVh             ",
"              ==*&&$%&&*---==--**&$$$$$$@@@#+++++$gkk           ",
"            0G00&&&%*--ipppssssppi==&&&&&$$@##@@@+@==f          ",
"            0G00&&&%*--ipppssssppi==&&&&&$$@##@@@+@==f          ",
"            0$qqy@@@-ppassdffssssiyy-**&$$$$@@@@@#+&&-ffy       ",
"            -0>>%uudVsssssfddpppp-***&&%$&&&@@#@@#### yyf-      ",
"            $@++#@@$hUUUjjsaauu--&%%%$$&$$$$$$###@@##&  s%      ",
"            $@++#@@$hUUUjjsaauu--&%%%$$&$$$$$$###@@##&  s%      ",
"          ==@$$$$$$****sPPPVVa-**$$$@@@$%$$&$$###@@##@  p$      ",
"          &&@@$$$$$$&==---=ppjgddi$$#######%##@@@@@###==$&      ",
"          &&@@$$$$$$&==---=ppjgddi$$#######%##@@@@@###==$&      ",
"          $$@###$$$$%&&*==*==-344=ppy**&$$$%$$$@@$$@@@@@&       ",
"          &&####$$$$$$$%%%&33q3;;#@@$@@@@@@&uudllljpp&--        ",
"          &&####$$$$$$$%%%&33q3;;#@@$@@@@@@&uudllljpp&--        ",
"          ==#####$$$$$$$$$2008x77c77;@@@$&&=--u--=&###          ",
"          --####$$$$$###,,3qq:xNNxcc$$$$&==pddsppq*$$$          ",
"            ####$$$$$22233qww0o66zoo#$$&*uuafftrru*$$*          ",
"            ####$$$$$22233qww0o66zoo#$$&*uuafftrru*$$*          ",
"            $####%%&&333qqqrrovvvz22,$$$&--prrrpp-&##           ",
"          ;;-+###$$&---855vCCASZZCxxxoo$%==uppu==&$44;;;        ",
"          ;;-+###$$&---855vCCASZZCxxxoo$%==uppu==&$44;;;        ",
"          11x=+++$$5xxxxccZDDSHDDDDDZcc#&55xvvb;;$ebbx;;;       ",
"          557;==####xvvcxxCSSSDKKKSSC::oxvvxxx$22Ocxx755;;      ",
"          557;==####xvvcxxCSSSDKKKSSC::oxvvxxx$22Ocxx755;;      ",
"          ==3xooo55b;776NNSJJJKKKHDDb66ZDKKDZZxzzzxxx0**        ",
"              xxxxxccee8<<NSSJKHHHCCbmmn,77z666vvxx             "
};
