/* XPM */
static char *result[] = {
/* columns rows colors chars-per-pixel */
"64 64 16 1 ",
"  c black",
". c #1B0F08",
"X c #26140B",
"o c #311B0E",
"O c #3D1F0E",
"+ c #412312",
"@ c #4A2513",
"# c #532B13",
"$ c #572F17",
"% c #5F331B",
"& c #673B1F",
"* c #734323",
"= c #7B4B27",
"- c #83532F",
"; c #8F5B33",
": c #97633B",
/* pixels */
"                                                                ",
"                                                                ",
"                                                                ",
"                                                                ",
"                                                                ",
"                                                                ",
"                                                                ",
"                                                                ",
"                                                                ",
"                                                                ",
"                                                                ",
"                                                                ",
"                                                                ",
"                                                                ",
"                                                                ",
"                                                                ",
"                                                                ",
"                                                                ",
"                                                                ",
"                                                                ",
"                                                                ",
"                                                                ",
"                                                                ",
"                                                                ",
"                                                                ",
"                                                                ",
"                                                                ",
"                                                                ",
"                                                                ",
"                                                                ",
"                                                                ",
"                                                                ",
"                                                                ",
"                                                                ",
"                                                                ",
"                                                                ",
"                                                                ",
"                                                                ",
"                                                                ",
"                                                                ",
"                                                                ",
"                                                                ",
"                                                                ",
"                                                                ",
"                                                                ",
"                                                                ",
"                                                                ",
"                                                                ",
"                       #&&&******%$$+                           ",
"                       #&&&******%$$+                           ",
"                    @&&***-===-===&&*&@@                        ",
"                    &**%---&--:==-;;&=&&#                       ",
"                    &**%---&--:==-;;&=&&#                       ",
"                    X+++++**--&##%**$=&&&OO                     ",
"                       X++#%**%##@@@@@++%XX                     ",
"                           XXXXXXXooX...X                       ",
"                           XXXXXXXooX...X                       ",
"                           #***%%#++                            ",
"                           &%%;***$$                            ",
"                           &%%;***$$                            ",
"                          @*&&;===##                            ",
"                          %&;;=&&=&&                            ",
"                          %&;;=&&=&&                            ",
"                        @@*$==&$$*%%                            "
};
