/* XPM */
static char *result[] = {
/* columns rows colors chars-per-pixel */
"64 64 42 1 ",
"  c black",
". c #040404",
"X c gray6",
"o c #1B0F08",
"O c #131313",
"+ c #1B1B1B",
"@ c gray11",
"# c #251404",
"$ c #2F1804",
"% c #26140B",
"& c #311B0E",
"* c #3D1F0E",
"= c #3E280B",
"- c gray13",
"; c #272727",
": c #2D2D2D",
"> c #323232",
", c gray20",
"< c #393939",
"1 c #3F3F3F",
"2 c #412312",
"3 c #4A2513",
"4 c #532B13",
"5 c #572F17",
"6 c #4B3210",
"7 c #543B17",
"8 c #5F331B",
"9 c #673B1F",
"0 c #5F431E",
"q c #674B26",
"w c #734323",
"e c #7B4B27",
"r c #6E532F",
"t c #7B5F37",
"y c #83532F",
"u c #8F5B33",
"i c #896B3E",
"p c #97633B",
"a c #96764B",
"s c #A06C40",
"d c #AF744A",
"f c #A38154",
/* pixels */
"                                                                ",
"                                                                ",
"                                                                ",
"                                                                ",
"                                                                ",
"                                                                ",
"                                                                ",
"                                                                ",
"                                                                ",
"                                                                ",
"                                                                ",
"                                                                ",
"                                                                ",
"                                                                ",
"                                                                ",
"                                                                ",
"                                                                ",
"                                                                ",
"                                                                ",
"                                                                ",
"                                                                ",
"                                                                ",
"                                                                ",
"                                                                ",
"                                                                ",
"                                                                ",
"                                                                ",
"                        2275444444332=                          ",
"                    *448qqtrwwwwwweert003                       ",
"                    *448qqtrwwwwwweert003                       ",
"                  33899999weeeupppuuwewww99822                  ",
"              &&*599wyye99epppussuuusuppuppy992                 ",
"              &&*599wyye99epppussuuusuppuppy992                 ",
"             %&&35wwuee8eeuyeesppeuuupppyuuuee9                 ",
"           %%2884*99e55499e955yww8wweuppyeeueee4                ",
"           %%2884*99e55499e955yww8wweuppyeeueee4                ",
"          %%%&442%**3**%**53338442&&28eew88yyyey44              ",
"          %%%oXX.Xooo;;#::%#::$$$,;;$%>>3339wwy9ee3             ",
"          %%%o++@+++o%%;%%,#,,#;;<##;<;;-;;%5595ww3&&           ",
"          %%%o++@+++o%%;%%,#,,#;;<##;<;;-;;%5595ww3&&           ",
"           %%%ooXX@@-@@%;;:;11#11;>><#::,@@#;;3533344           ",
"             %%%%oXXX--&==;=77=77<<<;<--@;;;oooo%%455           ",
"             %%%%oXXX--&==;=77=77<<<;<--@;;;oooo%%455           ",
"                %%%%oXX=77q700=77077<->>;ooo++-+oo&33           ",
"                  %%&%%6qqtqrrwyyq7706OOO@@@@@Oo%%&             ",
"                  %%&%%6qqtqrrwyyq7706OOO@@@@@Oo%%&             ",
"                       7qqtrttyppyqqr6%%%%%%oo%%%%              ",
"                       0rrrqiiqyytqqr&                          ",
"                     &&0ttqqaarttarrt                           ",
"                     &&0ttqqaarttarrt                           ",
"                     770tt0raaqttaqqt                           ",
"                     qqttt7taaqttaqqt                           ",
"                     qqttt7taaqttaqqt                           ",
"                     77rrr7taa0rraqqr=                          ",
"                    &66rqq7taaqqqarrq7                          ",
"                    =77r007taar00iii0q==                        ",
"                    =77r007taar00iii0q==                        ",
"                  &&=00r77qiaapeetaat677                        ",
"                  ==7rrq88raffduuqiiir===                       ",
"                  ==7rrq88raffduuqiiir===                       ",
"                 &77q00400tsssuee7qqii00=                       ",
"                &=77=446qqtpiitqq777qttt0==                     ",
"                &=77=446qqtpiitqq777qttt0==                     ",
"                     &&7ttuueeq77&                              "
};
