/* XPM */
static char *result[] = {
/* columns rows colors chars-per-pixel */
"64 64 29 1 ",
"  c black",
". c #040404",
"X c #1B0F08",
"o c #26140B",
"O c #311B0E",
"+ c #3D1F0E",
"@ c #3E280B",
"# c #412312",
"$ c #4A2513",
"% c #532B13",
"& c #572F17",
"* c #4B3210",
"= c #543B17",
"- c #5F331B",
"; c #673B1F",
": c #5F431E",
"> c #674B26",
", c #734323",
"< c #7B4B27",
"1 c #6E532F",
"2 c #7B5F37",
"3 c #83532F",
"4 c #8F5B33",
"5 c #896B3E",
"6 c #97633B",
"7 c #96764B",
"8 c #A06C40",
"9 c #AF744A",
"0 c #A38154",
/* pixels */
"                                                                ",
"                                                                ",
"                                                                ",
"                                                                ",
"                                                                ",
"                                                                ",
"                                                                ",
"                                                                ",
"                                                                ",
"                                                                ",
"                                                                ",
"                                                                ",
"                                                                ",
"                                                                ",
"                                                                ",
"                                                                ",
"                                                                ",
"                                                                ",
"                                                                ",
"                                                                ",
"                                                                ",
"                                                                ",
"                                                                ",
"                                                                ",
"                                                                ",
"                                                                ",
"                                                                ",
"                          #$%%%%%%%%$#                          ",
"                     $$-444<,,,,,;<<6<--%++                     ",
"                     $$-444<,,,,,;<<6<--%++                     ",
"                  %%;,,,<<,688844<,,,;;;;--$                    ",
"                #-33488633444488866643<<;33;&&+O                ",
"                #-33488633444488866643<<;33;&&+O                ",
"              $$;,446443666<44688866<<,,;884&&$#oo              ",
"             $;;<688888633,333,;;344;333<<<<<<<;##o             ",
"             $;;<688888633,333,;;344;333<<<<<<<;##o             ",
"           $$;3386446444444644<<<,;;,<443334664<;;$oo           ",
"           --444663344433334333443<<3488666444<,<<-oo           ",
"          %;;3<<3<<<366844<3333<<<<<3644<,,;;;,,;;$oo           ",
"          %;;3<<3<<<366844<3333<<<<<3644<,,;;;,,;;$oo           ",
"          &--;,,<333699633;<<<344<334<,,;<<<<<&#ooo             ",
"          +%%;,,<4333<<,;;,<33633,<<63<<<,,;##oo                ",
"          +%%;,,<4333<<,;;,<33633,<<63<<<,,;##oo                ",
"          +OO-;;3644333333<,<<3<<;<<<4;;&##+oo                  ",
"           OO+&&-,33;,,,44<-;;,;;;--$$$$oOO                     ",
"           OO+&&-,33;,,,44<-;;,;;;--$$$$oOO                     ",
"             ooooXXXXXX.##$#OO#$$$##@@@@@                       ",
"                        ***=>>111311>:**@                       ",
"                        **:,225555222,;;@                       ",
"                        **:,225555222,;;@                       ",
"                        **>2770660775<,,@                       ",
"                        **150074407752>>@                       ",
"                        **150074407752>>@                       ",
"                        ==15775338774211@                       ",
"                        ::25882336774311*                       ",
"                        ::25881<<4777,11=@@                     ",
"                        ::25881<<4777,11=@@                     ",
"                        >>26661<<4777<,,:@@                     ",
"                       @>>3644>--48874;;-$$O                    ",
"                       @>>3644>--48874;;-$$O                    ",
"                     OO$<<44<<;%%<4488,,#%%#OO                  ",
"                     ##-<<<,;;&$$,<<46<<-##%##O                 ",
"                     ##-<<<,;;&$$,<<46<<-##%##O                 ",
"                            OO$##-;;,<33-##                     "
};
