/* XPM */
static char *result[] = {
/* columns rows colors chars-per-pixel */
"64 64 30 1 ",
"  c black",
". c #1B0F08",
"X c #161D16",
"o c #1B1B1B",
"O c #26140B",
"+ c #391C06",
"@ c #311B0E",
"# c #3D1F0E",
"$ c #1B241B",
"% c #3E280B",
"& c gray13",
"* c #412312",
"= c #4A2513",
"- c #532B13",
"; c #572F17",
": c #4B3210",
"> c #543B17",
", c #5F331B",
"< c #673B1F",
"1 c #5F431E",
"2 c #674B26",
"3 c #734323",
"4 c #7B4B27",
"5 c #6E532F",
"6 c #7B5F37",
"7 c #83532F",
"8 c #8F5B33",
"9 c #896B3E",
"0 c #97633B",
"q c #96764B",
/* pixels */
"                                                                ",
"                                                                ",
"                                                                ",
"                                                                ",
"                                                                ",
"                                                                ",
"                                                                ",
"                                                                ",
"                                                                ",
"                                                                ",
"                                                                ",
"                                                                ",
"                                                                ",
"                                                                ",
"                                                                ",
"                                                                ",
"                                                                ",
"                                                                ",
"                                                                ",
"                                                                ",
"                                                                ",
"                                                                ",
"                                                                ",
"                                                                ",
"                                                                ",
"                                                                ",
"                                                                ",
"                                                                ",
"                                                                ",
"                                                                ",
"                                                                ",
"                                                                ",
"                                                                ",
"                                                                ",
"                                                                ",
"                                                                ",
"                                                                ",
"                                                                ",
"                                                                ",
"                                                                ",
"                                                                ",
"                                                                ",
"                                                                ",
"                                                                ",
"                                                                ",
"                                                                ",
"                                                                ",
"                           #==#                                 ",
"                       #33,3333<<,==,#                          ",
"                       #33,3333<<,==,#                          ",
"                    #33;,,<7<<7884<<;-##                        ",
"                    ,337000733800777<3##=                       ",
"                    ,337000733800777<3##=                       ",
"                    =---33<---<33;<<,,,,;@@                     ",
"                    -**O..Xo$$&XXoXXX.@@=##                     ",
"                     @@@OO.%55511%XXX...@@@                     ",
"                     @@@OO.%55511%XXX...@@@                     ",
"                           >669661::+#@@@                       ",
"                           2999662::                            ",
"                           2999662::                            ",
"                           6999662>>                            ",
"                          19qq9552::                            ",
"                          19qq9552::                            ",
"                        %%5qqq9551%%                            "
};
