/* XPM */
static char *result[] = {
/* columns rows colors chars-per-pixel */
"64 64 35 1 ",
"  c black",
". c #040404",
"X c gray6",
"o c #1B0F08",
"O c gray11",
"+ c #251404",
"@ c #26140B",
"# c #311B0E",
"$ c #3D1F0E",
"% c #3E280B",
"& c gray13",
"* c #272727",
"= c #323232",
"- c gray20",
"; c #393939",
": c #3F3F3F",
"> c #412312",
", c #4A2513",
"< c #532B13",
"1 c #572F17",
"2 c #4B3210",
"3 c #543B17",
"4 c #5F331B",
"5 c #673B1F",
"6 c #5F431E",
"7 c #674B26",
"8 c #734323",
"9 c #7B4B27",
"0 c #6E532F",
"q c #7B5F37",
"w c gray27",
"e c #83532F",
"r c #8F5B33",
"t c #97633B",
"y c #A06C40",
/* pixels */
"                                                                ",
"                                                                ",
"                                                                ",
"                                                                ",
"                                                                ",
"                                                                ",
"                                                                ",
"                                                                ",
"                                                                ",
"                                                                ",
"                                                                ",
"                                                                ",
"                                                                ",
"                                                                ",
"                                                                ",
"                                                                ",
"                                                                ",
"                                                                ",
"                                                                ",
"                                                                ",
"                                                                ",
"                                                                ",
"                                                                ",
"                                                                ",
"                                                                ",
"                                                                ",
"                                                                ",
"                                                                ",
"                                                                ",
"                                                                ",
"                                                                ",
"                                                                ",
"                                                                ",
"                                                                ",
"                                                                ",
"                                                                ",
"                                                                ",
"                                                                ",
"                                                                ",
"                                                                ",
"                                                                ",
"                                                                ",
"                                                                ",
"                        >>,<<<<<<>                              ",
"                     ,,<<<4588888544                            ",
"                     ,,<<<4588888544                            ",
"                  >><44588erttyyyytt94>>                        ",
"                  ,,$##$$$>>44899rttyt99,                       ",
"                  $$@ooo**O+OO*@@>55ettt5                       ",
"                  $$@ooo**O+OO*@@>55ettt5                       ",
"                  @@oOO&oo*-OO-&&-**@><<811                     ",
"                     @@X&&#*::w;;&OO*&oo>,,                     ",
"                     @@X&&#*::w;;&OO*&oo>,,                     ",
"                       @oo%266766;==&ooo#$$                     ",
"                          %600qqq3..oo@@@                       ",
"                          %7qq7qq6                              ",
"                          %7qq7qq6                              ",
"                          %6qqqqq3                              ",
"                          37qq7qq6                              ",
"                          37qq7qq6                              ",
"                          26006772                              ",
"                          33776222                              ",
"                          33776222                              ",
"                          23666332%%                            "
};
