/* XPM */
static char *result[] = {
/* columns rows colors chars-per-pixel */
"64 64 14 1 ",
"  c black",
". c #3E280B",
"X c #4B3210",
"o c #543B17",
"O c #5F431E",
"+ c #674B26",
"@ c #6E532F",
"# c #7B5F37",
"$ c #896B3E",
"% c #96764B",
"& c #A38154",
"* c #AB895C",
"= c #B49265",
"- c #BC9A6D",
/* pixels */
"                                                                ",
"                                                                ",
"                                                                ",
"                                                                ",
"                                                                ",
"                                                                ",
"                                                                ",
"                                                                ",
"                                                                ",
"                                                                ",
"                                                                ",
"                                                                ",
"                                                                ",
"                                                                ",
"                                                                ",
"                                                                ",
"                                                                ",
"                                                                ",
"                                                                ",
"                                                                ",
"                                                                ",
"                                                                ",
"                                                                ",
"                                                                ",
"                                                                ",
"                                                                ",
"                                                                ",
"                                                                ",
"                                                                ",
"                                                                ",
"                                                                ",
"                                                                ",
"                                                                ",
"                                                                ",
"                                                                ",
"                                                                ",
"                                                                ",
"                                                                ",
"                                                                ",
"                                                                ",
"                                                                ",
"                                                                ",
"                                                                ",
"                                                                ",
"                                                                ",
"                                                                ",
"                                                                ",
"                                                                ",
"                          XO+++@@+++Oo                          ",
"                          XO+++@@+++Oo                          ",
"                       X++##$$%%%%%%%$++                        ",
"                     oo@$$%&==&%%&--=*$$+                       ",
"                     oo@$$%&==&%%&--=*$$+                       ",
"                    o@@$%%%%&&%&&=&&&$$$@oo                     ",
"                     ..o###$$$$$$$###ooo.                       ",
"                        ..oooooXXo...                           ",
"                        ..oooooXXo...                           ",
"                           ...+@@#OO                            ",
"                           .@@$$$%OO                            ",
"                           .@@$$$%OO                            ",
"                           X##%$$%@@                            ",
"                           O++%&&&$$O                           ",
"                           O++%&&&$$O                           ",
"                          .+##%%%$%%#X                          "
};
