/* XPM */
static char *result[] = {
/* columns rows colors chars-per-pixel */
"64 64 43 1 ",
"  c black",
". c #040404",
"X c gray6",
"o c #1B0F08",
"O c #131313",
"+ c #1B1B1B",
"@ c gray11",
"# c #251404",
"$ c #2F1804",
"% c #26140B",
"& c #311B0E",
"* c #3D1F0E",
"= c #3E280B",
"- c gray13",
"; c #272727",
": c #2D2D2D",
"> c #323232",
", c gray20",
"< c #3F3F3F",
"1 c #412312",
"2 c #4A2513",
"3 c #532B13",
"4 c #572F17",
"5 c #4B3210",
"6 c #543B17",
"7 c #5F331B",
"8 c #673B1F",
"9 c #5F431E",
"0 c #674B26",
"q c #734323",
"w c #7B4B27",
"e c #6E532F",
"r c #7B5F37",
"t c gray27",
"y c #83532F",
"u c #8F5B33",
"i c #896B3E",
"p c #97633B",
"a c #96764B",
"s c #A06C40",
"d c #AF744A",
"f c #B47E51",
"g c #A38154",
/* pixels */
"                                                                ",
"                                                                ",
"                                                                ",
"                                                                ",
"                                                                ",
"                                                                ",
"                                                                ",
"                                                                ",
"                                                                ",
"                                                                ",
"                                                                ",
"                                                                ",
"                                                                ",
"                                                                ",
"                                                                ",
"                                                                ",
"                                                                ",
"                                                                ",
"                                                                ",
"                                                                ",
"                                                                ",
"                                                                ",
"                                                                ",
"                                                                ",
"                                                                ",
"                                                                ",
"                                                                ",
"                                                                ",
"                                                                ",
"                                                                ",
"                                                                ",
"                                                                ",
"                                                                ",
"                           2333333771&                          ",
"                       277qwqqqqqyppw733%                       ",
"                       277qwqqqqqyppw733%                       ",
"                     88qqqwpsssuuwqq88882**%                    ",
"                  11wuupddsussfsspuuyw88q77*&&                  ",
"                 2wwuppsffdpuusffsyywqqquqq2&&%                 ",
"                 2wwuppsffdpuusffsyywqqquqq2&&%                 ",
"                8ypppyyw88q7337888442122422111&%                ",
"              22ywwwq22*;;%;::$$$:%%#;##oXX@++1%                ",
"              22ywwwq22*;;%;::$$$:%%#;##oXX@++1%                ",
"              88q8331%%&;;:#,,;##<--;#%%@@@XXXo%                ",
"              887*;;;;;:++#>--t##<::;%--XXXXoo%                 ",
"              887*;;;;;:++#>--t##<::;%--XXXXoo%                 ",
"              33*XXXXXX+;;:600ieer996=%%%%%%oo                  ",
"              11%O--;@@OOO59rrgiia00e5&&                        ",
"                %&%%oooo..60iigggaeer6==                        ",
"                %&%%oooo..60iigggaeer6==                        ",
"                          5eaaggggrrr9==                        ",
"                          5raaggggiir9==                        ",
"                          5raaggggiir9==                        ",
"                          5iaagaagiir0==                        ",
"                          6iaagaagiire==                        ",
"                          9aaagaagaare55                        ",
"                          9aaagaagaare55                        ",
"                          9aggaiigaare66&                       ",
"                        &&0aggaiigggie99=                       ",
"                        &&0aggaiigggie99=                       ",
"                       &55rgaairriggae995&&                     ",
"                     &&=66raiie00eaaar996==&                    ",
"                     &&=66raiie00eaaar996==&                    ",
"                            &&2669rrii99&                       "
};
