/* XPM */
static char *result[] = {
/* columns rows colors chars-per-pixel */
"64 64 22 1 ",
"  c black",
". c #1B0F08",
"X c #26140B",
"o c #391C06",
"O c #311B0E",
"+ c #3D1F0E",
"@ c #3E280B",
"# c #442104",
"$ c #412312",
"% c #4A2513",
"& c #532B13",
"* c #572F17",
"= c #4B3210",
"- c #5F331B",
"; c #673B1F",
": c #5F431E",
"> c #674B26",
", c #734323",
"< c #7B4B27",
"1 c #6E532F",
"2 c #83532F",
"3 c #97633B",
/* pixels */
"                                                                ",
"                                                                ",
"                                                                ",
"                                                                ",
"                                                                ",
"                                                                ",
"                                                                ",
"                                                                ",
"                                                                ",
"                                                                ",
"                                                                ",
"                                                                ",
"                                                                ",
"                                                                ",
"                                                                ",
"                                                                ",
"                                                                ",
"                                                                ",
"                                                                ",
"                                                                ",
"                                                                ",
"                                                                ",
"                                                                ",
"                                                                ",
"                                                                ",
"                                                                ",
"                                                                ",
"                                                                ",
"                                                                ",
"                                                                ",
"                                                                ",
"                                                                ",
"                                                                ",
"                                                                ",
"                                                                ",
"                                                                ",
"                                                                ",
"                                                                ",
"                                                                ",
"                                                                ",
"                                                                ",
"                        &&2,,,%OO                               ",
"                        &&2,,,%OO                               ",
"                       +223,22*++O                              ",
"                       *332%22;$$O                              ",
"                       *332%22;$$O                              ",
"                       2,,,&22,OO+OO                            ",
"                       2++2*<<;OO%OO                            ",
"                     --2XX2;<<-++$%%O                           ",
"                     --2XX2;<<-++$%%O                           ",
"                     <<,$$2-,,-++O%%O                           ",
"                     22;;;2%**;++X&&+                           ",
"                     22;;;2%**;++X&&+                           ",
"                     <<;++2+&&;OO.**$                           ",
"                     <<;OO2O%%;OO.&&+                           ",
"                     ;;;XX<%%%;OO.%%O                           ",
"                     ;;;XX<%%%;OO.%%O                           ",
"                     &&;&&-;&&*OOXXXX                           ",
"                           XXX....                              ",
"                           XXX....                              ",
"                           O==@oo.                              ",
"                          o@>>:##o                              ",
"                          o@>>:##o                              ",
"                          =:11>::=                              "
};
