/* XPM */
static char *result[] = {
/* columns rows colors chars-per-pixel */
"64 64 12 1 ",
"  c black",
". c #040404",
"X c #1B0F08",
"o c #141004",
"O c #26140B",
"+ c #311B0E",
"@ c #3D1F0E",
"# c #412312",
"$ c #4A2513",
"% c #532B13",
"& c #572F17",
"* c #5F331B",
/* pixels */
"                                                                ",
"                                                                ",
"                                                                ",
"                                                                ",
"                                                                ",
"                                                                ",
"                                                                ",
"                                                                ",
"                                                                ",
"                                                                ",
"                       XOO++@@@++++++OOOX                       ",
"                       XOO++@@@++++++OOOX                       ",
"                     XX@++OXXXXXXXXXOOOO+..                     ",
"                     OO+@@$%**&##O$$@@@@+XX                     ",
"                     OO+@@$%**&##O$$@@@@+XX                     ",
"                     XXX++@#%%&$$X%%@+++X..                     ",
"                     XXOOOO+OOO++X@@OOOOOoo                     ",
"                    XOO@@@@###+OO$$$@++++OOX                    ",
"                    XOO@@@@###+OO$$$@++++OOX                    ",
"                  XXO++@@@##@@OXX&##@@@@+OOOXX                  ",
"                 XOO+++@###@++%OO%##@@@@+++OOOX                 ",
"                 XOO+++@###@++%OO%##@@@@+++OOOX                 ",
"                 X++O++@##@+&&$$$+%%#@@@@+++XXo                 ",
"                XX++@++++++&######++%++++OOOOOOX                ",
"                XOOO@@@+%%&%&&%$$$##$#@@+@@+XXXX                ",
"                XOOO@@@+%%&%&&%$$$##$#@@+@@+XXXX                ",
"                XO+++++$##@#$$#@@+++#++++++OOOOX                ",
"                XO++@@@+##@&**&%%$++#+@@@@@+++OX                ",
"                XO++@@@+##@&**&%%$++#+@@@@@+++OX                ",
"                X++++@@+##@#$$###$++#++++OOO++OX                ",
"                XO@@+@@+##$%&&%##$++#@@@@++OOOO.                ",
"                XO@@+@@+##$%&&%##$++#@@@@++OOOO.                ",
"                XO+++@@+++@@#####$+++++++OOOOOX.                ",
"                 XOOO++###$$%%$$$####@@@@+++XXX                 ",
"                 XOO++++++@@##@@@+++++++OOOXOOX                 ",
"                 XOO++++++@@##@@@+++++++OOOXOOX                 ",
"                 oOO+@@####$$$$#####@@@@+++OOOo                 ",
"                 XOOO++@##+#$$######@O@@+OOOXX.                 ",
"                 XOOO++@##+#$$######@O@@+OOOXX.                 ",
"                  XXO++@++#+$$####@@O@XX+OOXXX                  ",
"                  XXO++@OO#+######@@O@XX+OOOXX                  ",
"                  XXO++@OO#+######@@O@XX+OOOXX                  ",
"                  XXO++O@@##++###@OO@+++XOOO..                  ",
"                    X++O@@+#++###@++@O++XOOX                    ",
"                    XOO+@@+@##+@@+@@+O++OXXX                    ",
"                    XOO+@@+@##+@@+@@+O++OXXX                    ",
"                    XOO+OO@+##+@@+@@O+XXOXXX                    ",
"                     XXO++@+++#++@++++OOXXX                     ",
"                     XXO++@+++#++@++++OOXXX                     ",
"                     ooO+++@++#@@@++@+OOOXX                     ",
"                     ooXOO+@@@+@@+@@@+OOXoo                     ",
"                     ooXOO+@@@+@@+@@@+OOXoo                     ",
"                       XOO+@@@@++@++#+OOX                       ",
"                       XXXO+#####@##+OXXX                       ",
"                       XOOO+++@+++++OOOOX                       ",
"                       XOOO+++@+++++OOOOX                       ",
"                       XOO+@##$###@@++OOX                       ",
"                       XOO+###$$$#@@@+OOX                       ",
"                       XOO+###$$$#@@@+OOX                       ",
"                       X++@#$$%$$###@+OOX                       ",
"                       XOO@#$$%$$$$$#@OOX                       ",
"                        XX+@##$$$#@@@+XX                        ",
"                        XX+@##$$$#@@@+XX                        ",
"                           OOOOOOOOOO                           "
};
