/* XPM */
static char *result[] = {
/* columns rows colors chars-per-pixel */
"64 64 11 1 ",
"  c black",
". c #1B0F08",
"X c #141004",
"o c #26140B",
"O c #311B0E",
"+ c #3D1F0E",
"@ c #412312",
"# c #4A2513",
"$ c #532B13",
"% c #572F17",
"& c #5F331B",
/* pixels */
"                                                                ",
"                                                                ",
"                                                                ",
"                                                                ",
"                                                                ",
"                                                                ",
"                                                                ",
"                                                                ",
"                                                                ",
"                                                                ",
"                                                                ",
"                                                                ",
"                                                                ",
"                                                                ",
"                                                                ",
"                                                                ",
"                                                                ",
"                                                                ",
"                                                                ",
"                                                                ",
"                                                                ",
"                                                                ",
"                                                                ",
"                                                                ",
"                                                                ",
"                                                                ",
"                                                                ",
"                                                                ",
"                                                                ",
"                                                                ",
"                    ...ooooo   ##OOOOOooo...                    ",
"                    ...ooooo   ##OOOOOooo...                    ",
"                  ..oOOO+++O  $++@@@@@++Oooo..                  ",
"                 .ooO++OOOOOOO+++++++OOOOOOOoo.                 ",
"                 .ooO+++@@#$%%%%%$##@@@@+++Ooo.                 ",
"                 .ooO+++@@#$%%%%%$##@@@@+++Ooo.                 ",
"                  ..oooO+++@##$##@@@++OOOooo..                  ",
"                ..ooOOOOOOOOOOOOOOOOOOOOOooooo..                ",
"                ..ooOOOOOOOOOOOOOOOOOOOOOooooo..                ",
"              ..ooOOOOO+++++@@@+++++++++OOOOOOoo..              ",
"             .ooooOO++++++@@@@@@@@@@@O@@+++OOOoooo.             ",
"             .ooooOO++++++@@@@@@@@@@@O@@+++OOOoooo.             ",
"             .ooOO++++++OO+@###++O++@#@@Ooo+OOOOoo.             ",
"             .ooO++++@@@++#$$$$##+@@@@@@+OO+++OO...             ",
"             ...oO++@##$$$$%&&%%%$$$##@@@+++++O....             ",
"             ...oO++@##$$$$%&&%%%$$$##@@@+++++O....             ",
"             .ooooOO+@@###$$%%%$$####@@@+OOOoooooo.             ",
"             .ooOOooOOOOOO+++++++OOOOOOOOOOoOOOooo.             ",
"             .ooOOooOOOOOO+++++++OOOOOOOOOOoOOOooo.             ",
"             .oooOoo+++@@@O####@@@OO@@+++++.OOOoooX             ",
"              XXooOOo+++OO@O###@@O@@O++++ooO..oo..              ",
"              XXooOOo+++OO@O###@@O@@O++++ooO..oo..              ",
"              ...oOOo++O++@@OO#OO@@@+O++oOOO..o...              ",
"                ..ooOoo+++oO##O@@@++++ooOOOooo..                ",
"                .oooo...oo@#++OOOOOOOOOOoooooooX                ",
"                .oooo...oo@#++OOOOOOOOOOoooooooX                ",
"                 ......@##@+@@@@@+++++OOOOOooo.                 ",
"                  ..O@@OOO+++++++++++OOOOooo..                  ",
"                  ..O@@OOO+++++++++++OOOOooo..                  ",
"                    .oooOOOOOO++++OOOOOOooo.                    ",
"                     ..ooooOOOOOOOOOOoooo..                     ",
"                       ...ooooOOOOoooo...                       ",
"                       ...ooooOOOOoooo...                       ",
"                          ..oooooooo..                          "
};
