/* XPM */
static char *result[] = {
/* columns rows colors chars-per-pixel */
"64 64 13 1 ",
"  c black",
". c #040404",
"X c #1B0F08",
"o c #141004",
"O c #2F1804",
"+ c #26140B",
"@ c #311B0E",
"# c #3D1F0E",
"$ c #412312",
"% c #4A2513",
"& c #532B13",
"* c #572F17",
"= c #5F331B",
/* pixels */
"                                                                ",
"                                                                ",
"                                                                ",
"                                                                ",
"                                                                ",
"                                                                ",
"                                                                ",
"                                                                ",
"                                                                ",
"                                                                ",
"                                                                ",
"                                                                ",
"                                                                ",
"                                                                ",
"                                                                ",
"                                                                ",
"                                                                ",
"                                                                ",
"                                                                ",
"                                                                ",
"                      X++@@@@###$%%$#@@+XX                      ",
"                      X++@@@@###$%%$#@@+XX                      ",
"                    XX#@@+XXXXXX+@@+X+++@@.                     ",
"                    ++@##%&==*&&%%%%$###@@X                     ",
"                      +@@#$&&*%%$$$##@@@++                      ",
"                      +@@#$&&*%%$$$##@@@++                      ",
"                      X++++@@+++@@@++++XXX                      ",
"                      X++@#$$$$$$###@@@+XX                      ",
"                      X++@#$$$$$$###@@@+XX                      ",
"                      X++@$$$$%%$$$#@XXX                        ",
"                      X@@@$$$%&&%$$+X...@@                      ",
"                      X@@@$$$%&&%$$+X...@@                      ",
"                      X@@#@$$%**%@@%$%%#XX                      ",
"                    XX+@@@$##%&&#&&##@@+++X                     ",
"                    XX@++#$$$#%%&$$##++@++X                     ",
"                    XX@++#$$$#%%&$$##++@++X                     ",
"                   o++@++@@@@###$$$##+++XXXXX                   ",
"                 oo+@@###$$%%&%%$$$$###@OO+++X                  ",
"                 oo+@@###$$%%&%%$$$$###@OO+++X                  ",
"                o++@###@@@@##$$$%$$$#@@+++XXX+X                 ",
"                X++@##$@@%&&&=$$&%%$$@@#@@@XX+X                 ",
"                X++@##$@@%&&&=$$&%%$$@@#@@@XX+X                 ",
"                XXX+##$@@%#$$*$$&%%$$@@#++@XX+X                 ",
"                XXXX@@$@@%@##&$$%$$$#@@#++@XXXX                 ",
"                X+++++@@@$%%%&$$#@@@@@@#@@@XXXX                 ",
"                X+++++@@@$%%%&$$#@@@@@@#@@@XXXX                 ",
"                XXX+@@###$$%%%%%$$$#####@@@+++X                 ",
"                 XXXXX+++#$$$%@@@@@@@++@@@+++X                  ",
"                 XXXXX+++#$$$%@@@@@@@++@@@+++X                  ",
"                 XX+@@@++#@$$$$$@####++@@@+++X                  ",
"                   X++X@@#%$$$$$#@@#+@@@+++XX                   ",
"                   X++X@@#%$$$$$#@@#+@@@+++XX                   ",
"                   X++O@@####$$$###+@@@X+++XX                   ",
"                    XX+@@@###$###@@@@@@#++X                     ",
"                      X++@@#####@@@@++++XX                      ",
"                      X++@@#####@@@@++++XX                      ",
"                      o++@@##$##@@@@++++XX                      ",
"                       ++@@$$%$$###@@++X                        ",
"                       ++@@$$%$$###@@++X                        ",
"                       XX@#$$%&&%@@%#++X                        ",
"                       XX+#$$%&&%&&$#++X                        ",
"                         X@##$%%$###@XX                         ",
"                         X@##$%%$###@XX                         ",
"                           +++++++++                            "
};
