/* XPM */
static char *result[] = {
/* columns rows colors chars-per-pixel */
"64 64 46 1 ",
"  c black",
". c #040404",
"X c #1F0404",
"o c #1B0F08",
"O c #141004",
"+ c gray11",
"@ c #251404",
"# c #2F1804",
"$ c #26140B",
"% c #391C06",
"& c #311B0E",
"* c #3D1F0E",
"= c #3E280B",
"- c #442104",
"; c #4C2403",
": c #542800",
"> c #4A2513",
", c #532B13",
"< c #572F17",
"1 c #4B3210",
"2 c #543B17",
"3 c #612F02",
"4 c #723600",
"5 c #7D3F06",
"6 c #5F431E",
"7 c #674B26",
"8 c #6E532F",
"9 c #7B5F37",
"0 c #8D4B09",
"q c #9B5311",
"w c #A25F15",
"e c #A9671A",
"r c #BC7C14",
"t c #896B3E",
"y c #B47120",
"u c #96764B",
"i c #CC8818",
"p c #DC941C",
"a c #ECA017",
"s c #F4AC2F",
"d c #FCBB39",
"f c #A38154",
"g c #AB895C",
"h c #B49265",
"j c #C4A275",
"k c #FCC246",
/* pixels */
"                                                                ",
"                                                                ",
"                               X%-%X                            ",
"                                43:-                            ",
"                                %;43%X                          ",
"                              %;X- 3-%                          ",
"                               %X  %%                           ",
"                                  -                             ",
"                                  :; X%X                        ",
"                                   #;4#                         ",
"                                  #:5w5                         ",
"                                  -:q:                          ",
"                                 #:5w#                          ",
"                                 #500                           ",
"                                 -qw5                           ",
"                                #5iq:                           ",
"                               #5iw5                            ",
"                               5ye04                            ",
"                              #5qw4:                            ",
"                            -5wrirw4:;#                         ",
"                           3qriasdiw50q04-                      ",
"                          3qrassddiqyreew5                      ",
"                         35epappspr5eewqq0                      ",
"                        -5wiwiirprie505505                      ",
"                        :0earersiere0wq05-                      ",
"                        %30weeriisiiirq4;                       ",
"                         #=300easkspae5-@                       ",
"                          @#5wisdisspr5@                        ",
"                  *      6; :wsdy2yspeq3   1   ,                ",
"                  2*     72 :edw181wprq;  16>  7                ",
"                  611**>7u97>**17t71*$,<1*2962t2                ",
"                   269ft2678t87*181O12672=786*7                 ",
"                    6&o$&61$oo$&$2$*$ooo&276$7$                 ",
"                     6*>=$6=$&&$$=&ooo$&=62&6                   ",
"                      2$*=&2$&*&$*$oo$$&2=$1                    ",
"                       1o&**1$&&$*oo$$&1&$=                     ",
"                        =o**=,*&$*oo$$=&o=                      ",
"                         *o&==*&&&oo$&$$&                       ",
"                          &$=1=*&$o$&$*&                        ",
"                            &=&oo.O$=12$                        ",
"                             &=&$ =186=o                        ",
"                              &=&=9t8=&                         ",
"                              .&68u71=$                         ",
"                               89f8==$                          ",
"                              6tg9112*                          ",
"                             2f96O=821&                         ",
"                            =t8$  2791&                         ",
"                            67$& &9u71&                         ",
"                            =$*&+ug91=                          ",
"                            $$>&ujt1&                           ",
"                            .$=8hu1O                            ",
"                             .2u91=$                            ",
"                             =76=o6=                            ",
"                             1=$o&96$                           ",
"                             =$$ =u8*                           ",
"                             &1=*6g92                           ",
"                             $&12tg91                           ",
"                             $=19gu7=                           ",
"                            $=7tgf91&$                          ",
"                          O169uhft2*o*=O                        ",
"                       =1679tfft96=$*6761=&$                    ",
"                     &1789tuft9721*=1279871-$                   ",
"                     $*28tut99876211==689861%                   ",
"                      $&=279ugghgu97:;%12;%@                    "
};
