/* XPM */
static char *result[] = {
/* columns rows colors chars-per-pixel */
"64 64 49 1 ",
"  c black",
". c #040404",
"X c #1B0F08",
"o c #141004",
"O c gray11",
"+ c #251404",
"@ c #2F1804",
"# c #26140B",
"$ c #391C06",
"% c #311B0E",
"& c #3D1F0E",
"* c #3E280B",
"= c #442104",
"- c #4C2403",
"; c #542800",
": c #513F06",
"> c #4A2513",
", c #532B13",
"< c #572F17",
"1 c #4B3210",
"2 c #543B17",
"3 c #612F02",
"4 c #723600",
"5 c #7D3F06",
"6 c #673B1F",
"7 c #5F431E",
"8 c #674B26",
"9 c #7B4B27",
"0 c #6E532F",
"q c #7B5F37",
"w c #8D4B09",
"e c #9B5311",
"r c #A25F15",
"t c #A9671A",
"y c #BC7C14",
"u c #83532F",
"i c #896B3E",
"p c #B47120",
"a c #96764B",
"s c #CC8818",
"d c #DC941C",
"f c #ECA017",
"g c #F4AC2F",
"h c #FCBB39",
"j c #A38154",
"k c #AB895C",
"l c #B49265",
"z c #C4A275",
"x c #FCC246",
/* pixels */
"                                                                ",
"                                                                ",
"                                                                ",
"                                     @                          ",
"                                    @                           ",
"                                                                ",
"                                    @=                          ",
"                                    =3                          ",
"                                                                ",
"                                    $                           ",
"                                   $$                           ",
"                                  $$@-$                         ",
"                                $-4@$-$   +                     ",
"                               $$;e5-$                          ",
"                             @=@ 4tw3=$                         ",
"                            =;445er53;-                         ",
"                           =;45wrpe4$ $                         ",
"                          =; =wwey4;-                           ",
"                             4wetd;                             ",
"                             werps;                             ",
"                            =rwery5;5-                          ",
"                            4tw5wtwrw;                          ",
"                            ;ysdtsew-$                          ",
"                            3sfhgd4=@                           ",
"                          -3efhxfy@  @                          ",
"                          55sgxxfy3@+3$                         ",
"                          +2yfgxhdw3:3                          ",
"                           :sfdfhrtwrp5-                        ",
"                  &      7-5tyshu26dgdp5;  1   ,                ",
"                  2&     82-4sd91019xfse5;17>  8                ",
"                  711&&>8aq8>&&18i81&#,<1&2q72i2                ",
"                   218i02787072&101o12782*807&8                 ",
"                    7%X#%71#XX#%#2#&#XXX%287#8#                 ",
"                     7&>*#7*#%%##*%XXX#%*72%7                   ",
"                      2#&*%2#%&%#&#XX##%2*#1                    ",
"                       1X%&&1#%%#&XX##%1%#*                     ",
"                        *X&&*,&%#&XX##*%X*                      ",
"                         &X%**&%%%XX#%##%                       ",
"                          %#*1*&%#X#%#&%                        ",
"                            %*%XX.o#*12#                        ",
"                             %*%# *107*X                        ",
"                              %*%*qi0*%                         ",
"                              .%70a81*#                         ",
"                               0qj0**#                          ",
"                              7ikq112&                          ",
"                             2jq7o*021%                         ",
"                            *i0#  28q1%                         ",
"                            78#% %qa81%                         ",
"                            *#&%Oakq1*                          ",
"                            ##>%azi1%                           ",
"                            .#*0la1o                            ",
"                             .2aq1*#                            ",
"                             *87*X7*                            ",
"                             1*#X%q7#                           ",
"                             *## *a0&                           ",
"                             %1*&7kq2                           ",
"                             #%12ikq1                           ",
"                             #*1qka8*                           ",
"                            #*8ikjq1%#                          ",
"                          o17qalji2&X&*o                        ",
"                       *178qijjiq7*#&7871*%#                    ",
"                     %180qiajiq821&*128q081=#                   ",
"                     #&20iaiqq087211**70q071$                   ",
"                      #%*28qakklkaq8;-$12-$+                    "
};
