/* XPM */
static char *result[] = {
/* columns rows colors chars-per-pixel */
"64 64 47 1 ",
"  c black",
". c #040404",
"X c #1B0F08",
"o c #141004",
"O c gray11",
"+ c #251404",
"@ c #2F1804",
"# c #26140B",
"$ c #391C06",
"% c #311B0E",
"& c #3D1F0E",
"* c #3E280B",
"= c #442104",
"- c #4C2403",
"; c #542800",
": c #4A2513",
"> c #532B13",
", c #572F17",
"< c #4B3210",
"1 c #543B17",
"2 c #612F02",
"3 c #723600",
"4 c #7D3F06",
"5 c #5F431E",
"6 c #674B26",
"7 c #7B4B27",
"8 c #6E532F",
"9 c #7B5F37",
"0 c #8D4B09",
"q c #9B5311",
"w c #A25F15",
"e c #A9671A",
"r c #BC7C14",
"t c #83532F",
"y c #896B3E",
"u c #B47120",
"i c #96764B",
"p c #CC8818",
"a c #DC941C",
"s c #ECA017",
"d c #F4AC2F",
"f c #FCBB39",
"g c #A38154",
"h c #AB895C",
"j c #B49265",
"k c #C4A275",
"l c #FCC246",
/* pixels */
"                                                                ",
"                                                                ",
"                                                                ",
"                                                                ",
"                                                                ",
"                                      ;                         ",
"                                                                ",
"                                                                ",
"                                     ;                          ",
"                                                                ",
"                                    2=                          ",
"                                  ==02                          ",
"                                @=20;@                          ",
"                                23;@                            ",
"                                34=                             ",
"                              @$403 =3                          ",
"                              ;0ew4==2    @                     ",
"                              2uwu0=                            ",
"                            @$4q033=  @                         ",
"                           @$;q4332=- $                         ",
"                          $2333342; 3-                          ",
"                         $23;@22322 -                           ",
"                         @;; 3230q3=                            ",
"                             0q0qr0-                            ",
"                             wrrrre4                            ",
"                           -0raadfr04--                         ",
"                            wa3wsaarw0                          ",
"                           =wauuawadap4                         ",
"                  &      5--0wpa717dfdp2   <   >                ",
"                  1&     61 -ea7<8<tlld-  <5:  6                ",
"                  5<<&&:6i96:&&<6y6<&#>,<&1951y1                ",
"                   159gy1568y86&<8<o<1561*685&6                 ",
"                    5%X#%5<#XX#%#1#&#XXX%165#6#                 ",
"                     5&:*#5*#%%##*%XXX#%*51%5                   ",
"                      1#&*%1#%&%#&#XX##%1*#<                    ",
"                       <X%&&<#%%#&XX##%<%#*                     ",
"                        *X&&*>&%#&XX##*%X*                      ",
"                         &X%**&%%%XX#%##%                       ",
"                          %#*<*&%#X#%#&%                        ",
"                            %*%XX.o#*<1#                        ",
"                             %*%# *<85*X                        ",
"                              %*%*9y8*%                         ",
"                              .%58i6<*#                         ",
"                               89g8**#                          ",
"                              5yh9<<1&                          ",
"                             1g95o*81<%                         ",
"                            *y8#  169<%                         ",
"                            56#% %9i6<%                         ",
"                            *#&%Oih9<*                          ",
"                            ##:%iky<%                           ",
"                            .#*8ji<o                            ",
"                             .1i9<*#                            ",
"                             *65*X5*                            ",
"                             <*#X%95#                           ",
"                             *## *i8&                           ",
"                             %<*&5h91                           ",
"                             #%<1yh9<                           ",
"                             #*<9hi6*                           ",
"                            #*6yhg9<%#                          ",
"                          o<59ijgy1&X&*o                        ",
"                       *<569yggy95*#&565<*%#                    ",
"                     %<689yigy961<&*<16986<=#                   ",
"                     #&18yiy998651<<**58985<$                   ",
"                      #%*169ihhjhi96;-$<1-$+                    "
};
