/* XPM */
static char *result[] = {
/* columns rows colors chars-per-pixel */
"64 64 51 1 ",
"  c black",
". c #040404",
"X c #1F0404",
"o c #1B0F08",
"O c #141004",
"+ c gray11",
"@ c #251404",
"# c #2F1804",
"$ c #26140B",
"% c #391C06",
"& c #311B0E",
"* c #3D1F0E",
"= c #3E280B",
"- c #442104",
"; c #4C2403",
": c #542800",
"> c #4A2513",
", c #532B13",
"< c #572F17",
"1 c #4B3210",
"2 c #543B17",
"3 c #612F02",
"4 c #723600",
"5 c #7D3F06",
"6 c #673B1F",
"7 c #5F431E",
"8 c #674B26",
"9 c #734323",
"0 c #6E532F",
"q c #7B5F37",
"w c #8D4B09",
"e c #9B5311",
"r c #A25F15",
"t c #A9671A",
"y c #BC7C14",
"u c #8F5B33",
"i c #896B3E",
"p c #B47120",
"a c #96764B",
"s c #A06C40",
"d c #CC8818",
"f c #DC941C",
"g c #ECA017",
"h c #F4AC2F",
"j c #FCBB39",
"k c #A38154",
"l c #AB895C",
"z c #B49265",
"x c #C4A275",
"c c #FCC246",
"v c #FBC953",
/* pixels */
"                                                                ",
"                                                                ",
"                                 ::X                            ",
"                                 4ew:                           ",
"                               X%;53;X                          ",
"                              X:  ::4;X                         ",
"                              X%   #43 X                        ",
"                              X   #3;:;                         ",
"                                   4; %  %                      ",
"                                   #-   -%                      ",
"                                      :-                        ",
"                                   :4w4-                        ",
"                                  :ww4-X                        ",
"                                 #wr5                           ",
"                                 4rr3                           ",
"                                 5tr-                           ",
"                                 wyp#                           ",
"                                5ryt                            ",
"                               -wppr#                           ",
"                              #5tptw5##                         ",
"                            #4epdt;53#                          ",
"                           #5tdfhfppttw#                        ",
"                          #5tdhcchfppypfp                       ",
"                         :etyfjjcjfrdddpe#                      ",
"                       . 3rydhhcjhfddfdt4#                      ",
"                         %5ryfhgchfydfre#                       ",
"                       .  =9rdgfvchhfr2##                       ",
"                           =wpffvdvvhf1                         ",
"                  *      8 #5pght2schfy    2   ,                ",
"                  2*     07=wdhu101uhhd;  27,  0                ",
"                  712>>,8aq0,>*28i82*$<62*2q77a7                ",
"                   220kq2788q87*101O27807=807>8                 ",
"                    7&o$&71$oo$&$2$*$ooo&287$8$                 ",
"                     7*>=$7=$&&$$=&ooo$&=72&7                   ",
"                      2$*=&2$&*&$*$oo$$&2=$1                    ",
"                       1o&**1$&&$*oo$$&1&$=                     ",
"                        =o**=,*&$*oo$$=&o=                      ",
"                         *o&==*&&&oo$&$$&                       ",
"                          &$=1=*&$o$&$*&                        ",
"                            &=&oo.O$=12$                        ",
"                             &=&$ =107=o                        ",
"                              &=&=qi0=&                         ",
"                              .&70a81=$                         ",
"                               0qk0==$                          ",
"                              7ilq112*                          ",
"                             2kq7O=021&                         ",
"                            =i0$  28q1&                         ",
"                            78$& &qa81&                         ",
"                            =$*&+alq1=                          ",
"                            $$>&axi1&                           ",
"                            .$=0za1O                            ",
"                             .2aq1=$                            ",
"                             =87=o7=                            ",
"                             1=$o&q7$                           ",
"                             =$$ =a0*                           ",
"                             &1=*7lq2                           ",
"                             $&12ilq1                           ",
"                             $=1qla8=                           ",
"                            $=8ilkq1&$                          ",
"                          O17qazki2*o*=O                        ",
"                       =178qikkiq7=$*7871=&$                    ",
"                     &180qiakiq821*=128q081-$                   ",
"                     $*20iaiqq087211==70q071%                   ",
"                      $&=28qallzlaq8:;%12;%@                    "
};
