/* XPM */
static char *result[] = {
/* columns rows colors chars-per-pixel */
"64 64 50 1 ",
"  c black",
". c #040404",
"X c #1B0F08",
"o c #141004",
"O c gray11",
"+ c #251404",
"@ c #2F1804",
"# c #26140B",
"$ c #391C06",
"% c #311B0E",
"& c #3D1F0E",
"* c #3E280B",
"= c #442104",
"- c #4C2403",
"; c #542800",
": c #4A2513",
"> c #532B13",
", c #572F17",
"< c #4B3210",
"1 c #543B17",
"2 c #612F02",
"3 c #723600",
"4 c #7D3F06",
"5 c #5F431E",
"6 c #674B26",
"7 c #734323",
"8 c #6E532F",
"9 c #7B5F37",
"0 c #8D4B09",
"q c #9B5311",
"w c #A25F15",
"e c #A9671A",
"r c #BC7C14",
"t c #83532F",
"y c #896B3E",
"u c #B47120",
"i c #96764B",
"p c #A06C40",
"a c #CC8818",
"s c #DC941C",
"d c #ECA017",
"f c #F4AC2F",
"g c #FCBB39",
"h c #A38154",
"j c #AB895C",
"k c #B49265",
"l c #C4A275",
"z c #FCC246",
"x c #FBC953",
"c c #FBD061",
/* pixels */
"                                                                ",
"                                                                ",
"                                                                ",
"                                                                ",
"                                                                ",
"                                                                ",
"                                                                ",
"                                  42-                           ",
"                                 4qq3-                          ",
"                                4quuq3-                         ",
"                                4wrreq3-                        ",
"                                4erauu4-                        ",
"                                0urau02                         ",
"                               20erre2                          ",
"                              24wwurw4                          ",
"                             240400uw0                          ",
"                             24=@04r02                          ",
"                              2 0wsu2                           ",
"                             @  qra4                            ",
"                              -2uur-                            ",
"                              24ure42                           ",
"                             -0urare42                          ",
"                           -24easrueu42                         ",
"                         X;24eusdsuurq2                         ",
"                          >$;usfgfsaw04@                        ",
"                          >7wrdfgzgfrw2-                        ",
"                          +1wasgxczfaq-+ -                      ",
"                           $eragxpxgdr4+                        ",
"                  &      5-$4qaft1tzfsw-   <   >                ",
"                  1&     61@*1u7<8<tzfa-  <5:  6                ",
"                  5<<&&:6i96:&&<6y6<&#>,<&1951y1                ",
"                   159hy1568y86&<8<o<1561*685&6                 ",
"                    5%X#%5<#XX#%#1#&#XXX%165#6#                 ",
"                     5&:*#5*#%%##*%XXX#%*51%5                   ",
"                      1#&*%1#%&%#&#XX##%1*#<                    ",
"                       <X%&&<#%%#&XX##%<%#*                     ",
"                        *X&&*>&%#&XX##*%X*                      ",
"                         &X%**&%%%XX#%##%                       ",
"                          %#*<*&%#X#%#&%                        ",
"                            %*%XX.o#*<1#                        ",
"                             %*%# *<85*X                        ",
"                              %*%*9y8*%                         ",
"                              .%58i6<*#                         ",
"                               89h8**#                          ",
"                              5yj9<<1&                          ",
"                             1h95o*81<%                         ",
"                            *y8#  169<%                         ",
"                            56#% %9i6<%                         ",
"                            *#&%Oij9<*                          ",
"                            ##:%ily<%                           ",
"                            .#*8ki<o                            ",
"                             .1i9<*#                            ",
"                             *65*X5*                            ",
"                             <*#X%95#                           ",
"                             *## *i8&                           ",
"                             %<*&5j91                           ",
"                             #%<1yj9<                           ",
"                             #*<9ji6*                           ",
"                            #*6yjh9<%#                          ",
"                          o<59ikhy1&X&*o                        ",
"                       *<569yhhy95*#&565<*%#                    ",
"                     %<689yihy961<&*<16986<=#                   ",
"                     #&18yiy998651<<**58985<$                   ",
"                      #%*169ijjkji96;-$<1-$+                    "
};
