/* XPM */
static char *result[] = {
/* columns rows colors chars-per-pixel */
"64 64 48 1 ",
"  c black",
". c #040404",
"X c #1B0F08",
"o c #141004",
"O c gray11",
"+ c #251404",
"@ c #2F1804",
"# c #26140B",
"$ c #391C06",
"% c #311B0E",
"& c #3D1F0E",
"* c #3E280B",
"= c #442104",
"- c #4C2403",
"; c #542800",
": c #4A2513",
"> c #532B13",
", c #4B3210",
"< c #543B17",
"1 c #612F02",
"2 c #723600",
"3 c #7D3F06",
"4 c #673B1F",
"5 c #5F431E",
"6 c #674B26",
"7 c #7B4B27",
"8 c #6E532F",
"9 c #7B5F37",
"0 c #8D4B09",
"q c #9B5311",
"w c #A25F15",
"e c #A9671A",
"r c #BC7C14",
"t c #83532F",
"y c #896B3E",
"u c #B47120",
"i c #96764B",
"p c #CC8818",
"a c #DC941C",
"s c #ECA017",
"d c #F4AC2F",
"f c #FCBB39",
"g c #A38154",
"h c #AB895C",
"j c #B49265",
"k c #C4A275",
"l c #FCC246",
"z c #FBD061",
/* pixels */
"                                                                ",
"                                                                ",
"                                                                ",
"                                                                ",
"                                                                ",
"                                                                ",
"                                                                ",
"                                                                ",
"                                                                ",
"                                                                ",
"                                  131                           ",
"                                 1qqe2                          ",
"                                2erar31                         ",
"                               20rpprq2                         ",
"                               3essaq2                          ",
"                              1upfdae                           ",
"                              1raddse                           ",
"                             10rasda0                           ",
"                             0wurpsr3                           ",
"                          ; $10wrrae2                           ",
"                             $1qeppw;   -                       ",
"                           @=q33urru@                           ",
"                           =-3wuprpr;                           ",
"                            21wafspuw=                          ",
"                          =3wrasaapue;                          ",
"                          -qrsdlddapr0@ =                       ",
"                          +>uslzlldap0$.                        ",
"                          X=0adzluldpe2--                       ",
"                  %      <-@2udlt<7au002;  *   :                ",
"                  <%     5,-@2p7,8,402213 *5&  5                ",
"                  5,*&&&6i95&&%*6y6*%#>>*%<95,9,                ",
"                   <<8i9<566965&,8,o*,<5,*685&6                 ",
"                    5%X#%5,#XX#%#<#&#XXX%<65#6#                 ",
"                     5&:*#5*#%%##*%XXX#%*5<%5                   ",
"                      <#&*%<#%&%#&#XX##%<*#,                    ",
"                       ,X%&&,#%%#&XX##%,%#*                     ",
"                        *X&&*>&%#&XX##*%X*                      ",
"                         &X%**&%%%XX#%##%                       ",
"                          %#*,*&%#X#%#&%                        ",
"                            %*%XX.o#*,<#                        ",
"                             %*%# *,85*X                        ",
"                              %*%*9y8*%                         ",
"                              .%58i6,*#                         ",
"                               89g8**#                          ",
"                              5yh9,,<&                          ",
"                             <g95o*8<,%                         ",
"                            *y8#  <69,%                         ",
"                            56#% %9i6,%                         ",
"                            *#&%Oih9,*                          ",
"                            ##:%iky,%                           ",
"                            .#*8ji,o                            ",
"                             .<i9,*#                            ",
"                             *65*X5*                            ",
"                             ,*#X%95#                           ",
"                             *## *i8&                           ",
"                             %,*&5h9<                           ",
"                             #%,<yh9,                           ",
"                             #*,9hi6*                           ",
"                            #*6yhg9,%#                          ",
"                          o,59ijgy<&X&*o                        ",
"                       *,569yggy95*#&565,*%#                    ",
"                     %,689yigy96<,&*,<6986,=#                   ",
"                     #&<8yiy99865<,,**58985,$                   ",
"                      #%*<69ihhjhi96;-$,<-$+                    "
};
