/* XPM */
static char *result[] = {
/* columns rows colors chars-per-pixel */
"64 64 49 1 ",
"  c black",
". c #040404",
"X c #1B0F08",
"o c #141004",
"O c gray11",
"+ c #251404",
"@ c #2F1804",
"# c #26140B",
"$ c #391C06",
"% c #311B0E",
"& c #3D1F0E",
"* c #3E280B",
"= c #442104",
"- c #4C2403",
"; c #542800",
": c #4A2513",
"> c #532B13",
", c #4B3210",
"< c #543B17",
"1 c #612F02",
"2 c #723600",
"3 c #7D3F06",
"4 c #673B1F",
"5 c #5F431E",
"6 c #674B26",
"7 c #734323",
"8 c #7B4B27",
"9 c #6E532F",
"0 c #7B5F37",
"q c #8D4B09",
"w c #9B5311",
"e c #A25F15",
"r c #A9671A",
"t c #BC7C14",
"y c #896B3E",
"u c #B47120",
"i c #96764B",
"p c #CC8818",
"a c #DC941C",
"s c #ECA017",
"d c #F4AC2F",
"f c #FCBB39",
"g c #A38154",
"h c #AB895C",
"j c #B49265",
"k c #C4A275",
"l c #FCC246",
"z c #FBC953",
"x c #FBD061",
/* pixels */
"                                                                ",
"                                                                ",
"                                                                ",
"                                                                ",
"                                                                ",
"                                                                ",
"                                                                ",
"                                                                ",
"                                                                ",
"                                                                ",
"                                     ;                          ",
"                                                                ",
"                                 @;2;=                          ",
"                           @    @2wr3=                          ",
"                                3rppw=                          ",
"                              @3uspse@                          ",
"                           -@ 1uafddq                           ",
"                           232easfds3                           ",
"                            @3ussufu    $                       ",
"                          1w @uapsfr   @;@                      ",
"                          3w2upautse   @$                       ",
"                            2wtepppq-   -                       ",
"                            4rruspu;--                          ",
"                           1wpasdape131- -                      ",
"                          >qpssdzddsuw3$                        ",
"                          23uafffdddfe;  -                      ",
"                          X-wpfxzfsatq$.                        ",
"                           $3udzxufat2-$                        ",
"                  %      <-12ral0<8dtw=1$  *   :                ",
"                  <%     5,-1ea8,9,7pw@-=$*5&  5                ",
"                  5,*&&&6i05&&%*6y6*%#>>*%<05,0,                ",
"                   <<9i0<566065&,9,o*,<5,*695&6                 ",
"                    5%X#%5,#XX#%#<#&#XXX%<65#6#                 ",
"                     5&:*#5*#%%##*%XXX#%*5<%5                   ",
"                      <#&*%<#%&%#&#XX##%<*#,                    ",
"                       ,X%&&,#%%#&XX##%,%#*                     ",
"                        *X&&*>&%#&XX##*%X*                      ",
"                         &X%**&%%%XX#%##%                       ",
"                          %#*,*&%#X#%#&%                        ",
"                            %*%XX.o#*,<#                        ",
"                             %*%# *,95*X                        ",
"                              %*%*0y9*%                         ",
"                              .%59i6,*#                         ",
"                               90g9**#                          ",
"                              5yh0,,<&                          ",
"                             <g05o*9<,%                         ",
"                            *y9#  <60,%                         ",
"                            56#% %0i6,%                         ",
"                            *#&%Oih0,*                          ",
"                            ##:%iky,%                           ",
"                            .#*9ji,o                            ",
"                             .<i0,*#                            ",
"                             *65*X5*                            ",
"                             ,*#X%05#                           ",
"                             *## *i9&                           ",
"                             %,*&5h0<                           ",
"                             #%,<yh0,                           ",
"                             #*,0hi6*                           ",
"                            #*6yhg0,%#                          ",
"                          o,50ijgy<&X&*o                        ",
"                       *,560yggy05*#&565,*%#                    ",
"                     %,690yigy06<,&*,<6096,=#                   ",
"                     #&<9yiy00965<,,**59095,$                   ",
"                      #%*<60ihhjhi06;-$,<-$+                    "
};
