/* XPM */
static char *result[] = {
/* columns rows colors chars-per-pixel */
"64 64 51 1 ",
"  c black",
". c #040404",
"X c #1B0F08",
"o c #141004",
"O c gray11",
"+ c #251404",
"@ c #2F1804",
"# c #26140B",
"$ c #391C06",
"% c #311B0E",
"& c #3D1F0E",
"* c #3E280B",
"= c #442104",
"- c #4C2403",
"; c #542800",
": c #4A2513",
"> c #532B13",
", c #4B3210",
"< c #543B17",
"1 c #612F02",
"2 c #723600",
"3 c #7D3F06",
"4 c #5F431E",
"5 c #674B26",
"6 c #734323",
"7 c #7B4B27",
"8 c #6E532F",
"9 c #7B5F37",
"0 c #8D4B09",
"q c #9B5311",
"w c #A25F15",
"e c #A9671A",
"r c #BC7C14",
"t c #83532F",
"y c #896B3E",
"u c #B47120",
"i c #96764B",
"p c #A06C40",
"a c #CC8818",
"s c #DC941C",
"d c #ECA017",
"f c #F4AC2F",
"g c #FCBB39",
"h c #A38154",
"j c #AB895C",
"k c #B49265",
"l c #C4A275",
"z c #FCC246",
"x c #FBC953",
"c c #FBD061",
"v c #FBDD7B",
/* pixels */
"                                                                ",
"                                                                ",
"                                                                ",
"                                                                ",
"                                 @                              ",
"                                                                ",
"                               @                                ",
"                              @==                               ",
"                               @-@==@                           ",
"                                @$;;=@                          ",
"                                  @==@                          ",
"                                                                ",
"                               -                                ",
"                               ;2   =                           ",
"                               -q2  ;                           ",
"                                2-  3                           ",
"                                @3@;q                           ",
"                               $wrrw3                           ",
"                          -  22wadar1                           ",
"                         @q2wrafffdr                            ",
"                         2wqadfzgzdq                            ",
"                        @qradfgzxgd-                            ",
"                        @2qrffgggda@                            ",
"                         @$dfgzdsuu                             ",
"                          -sggfadaw-    ;                       ",
"                          -efgdfgdu0;=@ =1                      ",
"                          X7azggzzzdf0  =1                      ",
"                           6rfxcxpczza3130                      ",
"                  %      <-qudzv9<9xgrw0q1 *   :                ",
"                  <%     4,2qudt,8,tgdreq1*4&  4                ",
"                  4,*&&&5i94&&%*5y5*%#>>*%<94,9,                ",
"                   <<8i9<455954&,8,o*,<4,*584&5                 ",
"                    4%X#%4,#XX#%#<#&#XXX%<54#5#                 ",
"                     4&:*#4*#%%##*%XXX#%*4<%4                   ",
"                      <#&*%<#%&%#&#XX##%<*#,                    ",
"                       ,X%&&,#%%#&XX##%,%#*                     ",
"                        *X&&*>&%#&XX##*%X*                      ",
"                         &X%**&%%%XX#%##%                       ",
"                          %#*,*&%#X#%#&%                        ",
"                            %*%XX.o#*,<#                        ",
"                             %*%# *,84*X                        ",
"                              %*%*9y8*%                         ",
"                              .%48i5,*#                         ",
"                               89h8**#                          ",
"                              4yj9,,<&                          ",
"                             <h94o*8<,%                         ",
"                            *y8#  <59,%                         ",
"                            45#% %9i5,%                         ",
"                            *#&%Oij9,*                          ",
"                            ##:%ily,%                           ",
"                            .#*8ki,o                            ",
"                             .<i9,*#                            ",
"                             *54*X4*                            ",
"                             ,*#X%94#                           ",
"                             *## *i8&                           ",
"                             %,*&4j9<                           ",
"                             #%,<yj9,                           ",
"                             #*,9ji5*                           ",
"                            #*5yjh9,%#                          ",
"                          o,49ikhy<&X&*o                        ",
"                       *,459yhhy94*#&454,*%#                    ",
"                     %,589yihy95<,&*,<5985,=#                   ",
"                     #&<8yiy99854<,,**48984,$                   ",
"                      #%*<59ijjkji95;-$,<-$+                    "
};
