/* XPM */
static char *result[] = {
/* columns rows colors chars-per-pixel */
"64 64 48 1 ",
"  c black",
". c #040404",
"X c #1B0F08",
"o c #141004",
"O c gray11",
"+ c #251404",
"@ c #2F1804",
"# c #26140B",
"$ c #391C06",
"% c #311B0E",
"& c #3D1F0E",
"* c #3E280B",
"= c #442104",
"- c #4C2403",
"; c #542800",
": c #4A2513",
"> c #532B13",
", c #4B3210",
"< c #543B17",
"1 c #612F02",
"2 c #723600",
"3 c #7D3F06",
"4 c #5F431E",
"5 c #674B26",
"6 c #734323",
"7 c #7B4B27",
"8 c #6E532F",
"9 c #7B5F37",
"0 c #8D4B09",
"q c #9B5311",
"w c #A25F15",
"e c #A9671A",
"r c #BC7C14",
"t c #896B3E",
"y c #B47120",
"u c #96764B",
"i c #CC8818",
"p c #DC941C",
"a c #ECA017",
"s c #F4AC2F",
"d c #FCBB39",
"f c #A38154",
"g c #AB895C",
"h c #B49265",
"j c #C4A275",
"k c #FCC246",
"l c #FBC953",
"z c #FBD061",
/* pixels */
"                                                                ",
"                                                                ",
"                                                                ",
"                                                                ",
"                                                                ",
"                                  @=@                           ",
"                                                                ",
"                                                                ",
"                                                                ",
"                                                                ",
"                                                                ",
"                                                                ",
"                                @@   ;                          ",
"                                ;=  ;0                          ",
"                                   0e0                          ",
"                                @-0yr;                          ",
"                          =    =0erie@                          ",
"                          1= @12rppp0                           ",
"                          301rpsddsp;                           ",
"                         10e0pskkkkr                            ",
"                         100isdkddaq                            ",
"                         13rraaspap;                            ",
"                          1akssyysi@                            ",
"                           qakarisy;                            ",
"                           2rdarsdaq1q1@1                       ",
"                           4pdsakddssee03=                      ",
"                          .<ysdldlddpeq2-;                      ",
"                           <yrdzkykspe3+ =                      ",
"                  %      <-=20sl9<7pirw3;  *   :                ",
"                  <%     4,2=2r7,8,6sp02;-*4&  4                ",
"                  4,*&&&5u94&&%*5t5*%#>>*%<94,9,                ",
"                   <<8u9<455954&,8,o*,<4,*584&5                 ",
"                    4%X#%4,#XX#%#<#&#XXX%<54#5#                 ",
"                     4&:*#4*#%%##*%XXX#%*4<%4                   ",
"                      <#&*%<#%&%#&#XX##%<*#,                    ",
"                       ,X%&&,#%%#&XX##%,%#*                     ",
"                        *X&&*>&%#&XX##*%X*                      ",
"                         &X%**&%%%XX#%##%                       ",
"                          %#*,*&%#X#%#&%                        ",
"                            %*%XX.o#*,<#                        ",
"                             %*%# *,84*X                        ",
"                              %*%*9t8*%                         ",
"                              .%48u5,*#                         ",
"                               89f8**#                          ",
"                              4tg9,,<&                          ",
"                             <f94o*8<,%                         ",
"                            *t8#  <59,%                         ",
"                            45#% %9u5,%                         ",
"                            *#&%Oug9,*                          ",
"                            ##:%ujt,%                           ",
"                            .#*8hu,o                            ",
"                             .<u9,*#                            ",
"                             *54*X4*                            ",
"                             ,*#X%94#                           ",
"                             *## *u8&                           ",
"                             %,*&4g9<                           ",
"                             #%,<tg9,                           ",
"                             #*,9gu5*                           ",
"                            #*5tgf9,%#                          ",
"                          o,49uhft<&X&*o                        ",
"                       *,459tfft94*#&454,*%#                    ",
"                     %,589tuft95<,&*,<5985,=#                   ",
"                     #&<8tut99854<,,**48984,$                   ",
"                      #%*<59ugghgu95;-$,<-$+                    "
};
