/* XPM */
static char *result[] = {
/* columns rows colors chars-per-pixel */
"64 64 48 1 ",
"  c black",
". c #040404",
"X c #1B0F08",
"o c #141004",
"O c gray11",
"+ c #251404",
"@ c #2F1804",
"# c #26140B",
"$ c #391C06",
"% c #311B0E",
"& c #3D1F0E",
"* c #3E280B",
"= c #442104",
"- c #4C2403",
"; c #542800",
": c #4A2513",
"> c #532B13",
", c #572F17",
"< c #4B3210",
"1 c #543B17",
"2 c #612F02",
"3 c #723600",
"4 c #7D3F06",
"5 c #673B1F",
"6 c #5F431E",
"7 c #674B26",
"8 c #7B4B27",
"9 c #6E532F",
"0 c #7B5F37",
"q c #8D4B09",
"w c #9B5311",
"e c #A25F15",
"r c #A9671A",
"t c #BC7C14",
"y c #83532F",
"u c #896B3E",
"i c #B47120",
"p c #96764B",
"a c #CC8818",
"s c #DC941C",
"d c #ECA017",
"f c #F4AC2F",
"g c #FCBB39",
"h c #A38154",
"j c #AB895C",
"k c #B49265",
"l c #C4A275",
"z c #FBC953",
/* pixels */
"                                                                ",
"                                                                ",
"                                                                ",
"                                                                ",
"                                                                ",
"                                    @                           ",
"                                                                ",
"                                  @                             ",
"                                 @=                             ",
"                                @=-@                            ",
"                               $=-=-@                           ",
"                              @=444-@                           ",
"                              =242qq2-                          ",
"                              ;4e4ie42=                         ",
"                              2weqai-==                         ",
"                              4wretr3-@                         ",
"                              3eiweq-@                          ",
"                              -ete-3-                           ",
"                              waate2@                           ",
"                             2qddae4  @                         ",
"                            2eiagsw2  -@                        ",
"                            $2tifde   @                         ",
"                          $2eidggfi-                            ",
"                          2iaadgzfa3                            ",
"                         2eaddgzgd3@                            ",
"                          4adfgzgdq$+                           ",
"                          @1asfgfdi43q                          ",
"                          X=rtsdgrdtqe4                         ",
"                  &      7--4rafy18fdds42  1   >                ",
"                  1&     96 -td8<9<8gdsw4;16>  9                ",
"                  6<1::>7p09>:&17u71&#,51&1066p6                ",
"                   160ju1679u97&<9<o16796*796:7                 ",
"                    6%X#%6<#XX#%#1#&#XXX%176#7#                 ",
"                     6&:*#6*#%%##*%XXX#%*61%6                   ",
"                      1#&*%1#%&%#&#XX##%1*#<                    ",
"                       <X%&&<#%%#&XX##%<%#*                     ",
"                        *X&&*>&%#&XX##*%X*                      ",
"                         &X%**&%%%XX#%##%                       ",
"                          %#*<*&%#X#%#&%                        ",
"                            %*%XX.o#*<1#                        ",
"                             %*%# *<96*X                        ",
"                              %*%*0u9*%                         ",
"                              .%69p7<*#                         ",
"                               90h9**#                          ",
"                              6uj0<<1&                          ",
"                             1h06o*91<%                         ",
"                            *u9#  170<%                         ",
"                            67#% %0p7<%                         ",
"                            *#&%Opj0<*                          ",
"                            ##:%plu<%                           ",
"                            .#*9kp<o                            ",
"                             .1p0<*#                            ",
"                             *76*X6*                            ",
"                             <*#X%06#                           ",
"                             *## *p9&                           ",
"                             %<*&6j01                           ",
"                             #%<1uj0<                           ",
"                             #*<0jp7*                           ",
"                            #*7ujh0<%#                          ",
"                          o<60pkhu1&X&*o                        ",
"                       *<670uhhu06*#&676<*%#                    ",
"                     %<790uphu071<&*<17097<=#                   ",
"                     #&19upu009761<<**69096<$                   ",
"                      #%*170pjjkjp07;-$<1-$+                    "
};
