/* XPM */
static char *result[] = {
/* columns rows colors chars-per-pixel */
"64 64 50 1 ",
"  c black",
". c #040404",
"X c #1B0F08",
"o c #141004",
"O c gray11",
"+ c #251404",
"@ c #2F1804",
"# c #26140B",
"$ c #391C06",
"% c #311B0E",
"& c #3D1F0E",
"* c #3E280B",
"= c #442104",
"- c #4C2403",
"; c #542800",
": c #4A2513",
"> c #532B13",
", c #572F17",
"< c #4B3210",
"1 c #543B17",
"2 c #612F02",
"3 c #723600",
"4 c #7D3F06",
"5 c #5F431E",
"6 c #674B26",
"7 c #734323",
"8 c #7B4B27",
"9 c #6E532F",
"0 c #7B5F37",
"q c #8D4B09",
"w c #9B5311",
"e c #A25F15",
"r c #A9671A",
"t c #BC7C14",
"y c #83532F",
"u c #8F5B33",
"i c #896B3E",
"p c #B47120",
"a c #96764B",
"s c #CC8818",
"d c #DC941C",
"f c #ECA017",
"g c #F4AC2F",
"h c #FCBB39",
"j c #A38154",
"k c #AB895C",
"l c #B49265",
"z c #C4A275",
"x c #FCC246",
"c c #FBC953",
/* pixels */
"                                                                ",
"                                                                ",
"                                                                ",
"                                                                ",
"                                  =                             ",
"                                 ;2;                            ",
"                                ;3e4;=                          ",
"                                2qwq4;                          ",
"                               @4w4ee4=                         ",
"                                2pq4pwq2=                       ",
"                                2qrrte43-                       ",
"                                qwe4pw4-                        ",
"                               -4wpwee                          ",
"                               234$@we@                         ",
"                               -2  @qw-                         ",
"                                 @3qw@                          ",
"                                 3qw$                           ",
"                                -qwq                            ",
"                                -wew-                           ",
"                               @wrrq-                           ",
"                               wpdpwe-  -                       ",
"                             @@esdtrq2-                         ",
"                          @=2qetdftpe42                         ",
"                          @2wrsfggdsrww@                        ",
"                         +2qetfxxhgdtpr@                        ",
"                          2qppfxcchgdd4;                        ",
"                         X$7tsgxxcxhgp1+o.                      ",
"                          o=tdhghshhhh8                         ",
"                  &      5-$==tgr1rgxhd2   <   >                ",
"                  1&     61 =4sy<9<uxhsw4 <5:  6                ",
"                  5<<&&:6a06:&&<6i6<&#>,<&1051i1                ",
"                   150ji1569i96&<9<o<1561*695&6                 ",
"                    5%X#%5<#XX#%#1#&#XXX%165#6#                 ",
"                     5&:*#5*#%%##*%XXX#%*51%5                   ",
"                      1#&*%1#%&%#&#XX##%1*#<                    ",
"                       <X%&&<#%%#&XX##%<%#*                     ",
"                        *X&&*>&%#&XX##*%X*                      ",
"                         &X%**&%%%XX#%##%                       ",
"                          %#*<*&%#X#%#&%                        ",
"                            %*%XX.o#*<1#                        ",
"                             %*%# *<95*X                        ",
"                              %*%*0i9*%                         ",
"                              .%59a6<*#                         ",
"                               90j9**#                          ",
"                              5ik0<<1&                          ",
"                             1j05o*91<%                         ",
"                            *i9#  160<%                         ",
"                            56#% %0a6<%                         ",
"                            *#&%Oak0<*                          ",
"                            ##:%azi<%                           ",
"                            .#*9la<o                            ",
"                             .1a0<*#                            ",
"                             *65*X5*                            ",
"                             <*#X%05#                           ",
"                             *## *a9&                           ",
"                             %<*&5k01                           ",
"                             #%<1ik0<                           ",
"                             #*<0ka6*                           ",
"                            #*6ikj0<%#                          ",
"                          o<50alji1&X&*o                        ",
"                       *<560ijji05*#&565<*%#                    ",
"                     %<690iaji061<&*<16096<=#                   ",
"                     #&19iai009651<<**59095<$                   ",
"                      #%*160akklka06;-$<1-$+                    "
};
