/* XPM */
static char *result[] = {
/* columns rows colors chars-per-pixel */
"64 64 25 1 ",
"  c black",
". c #0B1007",
"X c #101901",
"o c #151B0E",
"O c gray8",
"+ c #1E2706",
"@ c #1C2C13",
"# c #243E1C",
"$ c #2B4F21",
"% c #33602B",
"& c #377430",
"* c #3F8436",
"= c #459344",
"- c #4B9F4F",
"; c #5CAF51",
": c #6EBD55",
"> c #7FCB5B",
", c #91DA5F",
"< c #A2EB64",
"1 c #ADF86C",
"2 c #ECDC56",
"3 c #FFF364",
"4 c #FFFF74",
"5 c #FFFF7E",
"6 c #FFFFC6",
/* pixels */
"                                                                ",
"                                                                ",
"                                                                ",
"                               @@%$                             ",
"                               @@%$                             ",
"                    o+@$       $$&$.                            ",
"                    .%%%%%$  $$&&*&$X$@@X$XX@                   ",
"                   @%%*%$$&#%$&;;*%$@%$$.$XX$@@                 ",
"                   $%&*%**&%%=*>>-&%&%$$%$@X%%%                 ",
"             o  Xoo%&%*&***&&=>,,:=*&&$$&$$##$$X                ",
"             X X###&&*-;---=*=>22:=***%%**$$#$$                 ",
"             X X###&&*-;---=*=>22:=***%%**$$#$$                 ",
"              $$&$$%*-;;::--==>55,;*=*&&*=&$$$$@                ",
"              @%&%%&&=:;:::;;>655:-===***=&%$$$#@o              ",
"               #%%%&*-:>>>:>::<55,;--=---==&%%%#$$X@@@          ",
"               $%&&**-;>11,,:>155<>:;-;;;==*%%%$%%$$@@          ",
"                &==*-;;:<<12>,222,>>,::::--*&**&&&$%%%#$$o      ",
"              X %&&;:::><<23122331,23>>>>:;-===**&%&%%&$@o+     ",
"              X %&&;:::><<23122331,23>>>>:;-===**&%&%%&$@o+     ",
"        X @@#$%#&***-:>,1135542335<33511>,>;;::==&&&&&&$$#X     ",
"       o#$%%$%&&&**=;:23223565555555533321<>>::;;==*&&%$@$#     ",
"      X#$$##$&=****=;,,,335565566656555525312,,>>;;***%$@X      ",
"     #%%&%&&#%*==**-;:>><<2665655656665565331,,>>:;-**%$@X      ",
"      %&&&**&&=>>--;>:>>335566666666666655532,,,>>:*%%$#        ",
"      %#**&&&*=::>>,1><1445566666666656665555112,<,=**$%$       ",
"      %#**&&&*=::>>,1><1445566666666656665555112,<,=**$%$       ",
"      +@$&&&&*-;;>>,112222566666666666665656533231,-==&&&$o     ",
"     XX$&:&&=;-;>::><1256656665665666666656555511<,:::-==$@     ",
"     o$$&>;;;>><>,,2,55455666666665665665555311,>>>>>>:-=&$     ",
"   @@$%$**::;;,21<<5565666666666655665666655211,>::;==*&*%$     ",
"   @@$%%%&**&;::<<<,566666566565555565666522111,>>:-==*%$       ",
"  $$$$%&&%%%**=-:::,5656666666666556666656522331,>:;--*&#       ",
"  $$$$%&&%%%**=-:::,5656666666666556666656522331,>:;--*&#       ",
"   ##$$%$%**-=--;>>,5665665666666555655565343221,>:;==&%#$      ",
"   @@@##%&==-;;-,11,4555666665655555666665331>>>;>:;==&%%%      ",
"     @#%*&===-:><2223555666556666545653352221>>::-****&&&$      ",
"     $#&**===:<<2,,,<5225565556665356533331<:>>::=**&&%$X       ",
"   ##$%%%*;;-;:,;,,<12<15555155331155533121,;==*&*&%$$@X        ",
"   $$$$@%&==-;;;->>1,><111,2,<<111,,3355232<:==*&&&$oo          ",
"   $$$$@%&==-;;;->>1,><111,2,<<111,,3355232<:==*&&&$oo          ",
"   XX&%$$%&&==;=;::,,:,211>>>:>::,>:135555<>>;;**&%%            ",
"  o%%&&  X$$%**;;::;,:21,,>;:::;;>;;>155652,>;;=&%$$            ",
"  @  %   X$$%>::-;;;;>1,>>::-:-;;;-;;:55212>>;;=&&$$            ",
"  $      #$$&=>*-==;;:<,>>:======;&=-;>>,1,:;==&&&%%            ",
"        X$$$%&>**--:::<>>>:&***==*&*-:>>>,>::--&%%$$            ",
"       $%%$$%&&%%==::-;>;;&&*&****&&*:;;;:;-;==*&%&$            ",
"       $%%$$%&&%%==::-;>;;&&*&****&&*:;;;:;-;==*&%&$            ",
"       &%%##$$$%&--::*-:;;%&*&&&&&%%*=;;-;;----&$#$o@@          ",
"      #$$%$$$$ $&**;&&-;%%%&&%$**&%%%****-=-*==&%# X            ",
"       $ #$$  $$%&&=&%=-%%&&$O%%%&&%%$&&**=*&%%&%$              ",
"              $$$##%%%*%&&&*$X%&&&%$o$**&***&%%$$               ",
"               @ ##$$$%$XX%%$@=**&*X@@##&%%&%$$                 ",
"                    #$X@XX#%@O&==&%@X#@@$*%&%                   ",
"                    #$X@XX#%@O&==&%@X#@@$*%&%                   ",
"                     @ @$$X$X%&**&%$@@@@%*%# $$                 ",
"                        XX @X%***$$@. $$@$&#                    ",
"                              %***$@                            ",
"                               %%%                              ",
"                               %%&$                             ",
"                               %%$$                             ",
"                               %%$$                             ",
"                                  $                             ",
"                                                                ",
"                                                                "
};
