/* XPM */
static char *result[] = {
/* columns rows colors chars-per-pixel */
"64 64 25 1 ",
"  c black",
". c #0B1007",
"X c #101901",
"o c #151B0E",
"O c gray8",
"+ c #1E2706",
"@ c #1C2C13",
"# c #243E1C",
"$ c #2B4F21",
"% c #33602B",
"& c #377430",
"* c #3F8436",
"= c #459344",
"- c #4B9F4F",
"; c #5CAF51",
": c #6EBD55",
"> c #7FCB5B",
", c #91DA5F",
"< c #A2EB64",
"1 c #ADF86C",
"2 c #ECDC56",
"3 c #FFF364",
"4 c #FFFF74",
"5 c #FFFF7E",
"6 c #FFFFC6",
/* pixels */
"                                                                ",
"                                                                ",
"                                                                ",
"                                                                ",
"                                                                ",
"                                                                ",
"                        $$%$X         @@oX                      ",
"                   @$$  ##%&$X      $$$$$   o                   ",
"                 oo$&%$#$$%&&%@oo  $%$&&$#$%$oo                 ",
"                 $$&=*&%&&&&*&$$$%$$%&%%%$%%$%%$ $              ",
"          XX# XX $$&=-****==**%&&&%%&&%%&&&&%%%%%%##            ",
"          XX# XX $$&=-****==**%&&&%%&&%%&&&&%%%%%%##            ",
"         +oo#$@@#%%&-:;=--;;;****&&&&&&&*=-=&&&*&&%&%%          ",
"         o@@$@$$$$$&=:>;--:::-=**&**====-;-****&%%**$$          ",
"         $##$$%%%%%*-:>::::>>;:::**-;;;;:;--===*&%&%@@          ",
"          $$&&&****=;,>>::>,,>:::==;>>>>::;;-***&&$@$$          ",
"          ##%&&*-;;:,1<>>>>11<>>>:;:>,<<,>:;-**&*%##@@.      $  ",
"         @%%%&&=;::><31,,,,132111<,<<2221,>;-**&%$@X@@.@X .$$$  ",
"         @%%%&&=;::><31,,,,132111<,<<2221,>;-**&%$@X@@.@X .$$$  ",
"         @$$$%&=;::>,22111112332211235552,:;;**$$o@X@@$$$%%&&%  ",
"         X$$%&&=;>>>,13533212433323225665>>:=**%%$$$%%%$**%%%$  ",
"         o$$%&*=;>>,,15555552555523125551:;-*&&%%%&*&&&***$     ",
"         @$$%&*-:,,212566655566665333333,;-*&%%%&&&***=**%X     ",
"         @##$%*=;>>133556656665556555311>;=&&&&&&&&&==&&%       ",
"       X @$$%%&=;>>2355566656665566655,,:;-****&*%%%%%@OXX      ",
"       X @$$%%&=;>>2355566656665566655,,:;-****&*%%%%%@OXX      ",
"       $$$$$%&*-;>><555655666566666551,,>>;;=***&$OX@@$@$@      ",
"     @%%#$$$%*=-:,,126666666566665543311,:;;=**&&%$$$$%%#X      ",
"   @@@$$#$&&&==-:>>2355655666655555555331>:-=**&*&&&**%%$$X     ",
"  #$$XXX$$**==-;:>>135666656655555556655<>::-==*&&%&&&$XX@      ",
"  %%%$X@$$&&**-;:>>5356666666655566666555<>:-==&&%%%&&%$$X      ",
"  &%%$$$%&**&*=-:,,3356566665665566656551,>;::::>;;;--=&%$@     ",
"  &%%$$$%&**&*=-:,,3356566665665566656551,>;::::>;;;--=&%$@     ",
"  #$$$X.$$%%**=-;>>23556666666666566655552,>>>>>>>:-==*&$$#     ",
"  @$$$$@$%&&*==-:>>,<55655666566666666556511,,,,>;-*&&%%$$      ",
"   ##&&$%&&&**=-;::,1356666666666666566655321221<:-=&&&%$$      ",
"   $$#$X@$%%*=;:,<<232555556666666566666521<,>>>::::;;=&##      ",
"     X .$%&&=:,555512245666656666666655552<>:::;;;::--*$$@@     ",
"       $&*--:,256<<>,25666655556656666555521,,,;;--=&&&%$%$     ",
"       $&*--:,256<<>,25666655556656666555521,,,;;--=&&&%$%$     ",
"      $%&=;;>>>>>:::>135555234255466566653<<1,,:;=*%%%%$$$#     ",
"       @$&&&*====;;:,223333<<1222256655542,>>::;;-**&&$         ",
"         $$$$%&*-;;>,121223,>><111555<,,,12,;---;:>>&&$$$       ",
"            %%&=-:::>1<>,,2,>:>11<,25,::>,<2,;;=*:>=&&%$%$      ",
"            #%&*-:::>>::>>1,:;>11,>,<<::;:><<::;=**&%%$#$#      ",
"            $&**-;;;:;;;:::;;-;,,>:>1<::--;::;;;=%%$$$$%%$      ",
"            $&**-;;;:;;;:::;;-;,,>:>1<::--;::;;;=%%$$$$%%$      ",
"            %$%&;--;----::-===->>:;><2::=-;-----=&$X##$%%$$     ",
"            $%&****-=**=;;****=>>:;;>,::*=--===;&%X   X$&%#     ",
"            @%*&%&&*&&&*==&&&*=>>;--;>;;&**==***%$              ",
"            +%%%%%%&%%%&&&%%&*=**=**=;;;*%%&&***%@$$            ",
"             o.@$%%#$&%%$$ #%&&%%&&&*;::*&%$%%%&%$%&%%          ",
"               @ ooX#%%#   X$%$##&*&&:>>*%&%#$$#%$$&%%          ",
"               @ ooX#%%#   X$%$##&*&&:>>*%&%#$$#%$$&%%          ",
"                    X$@      #$##&&*&&&&*%&%$##@$#$Xoo@$        ",
"                     $       @%$$%%*$@$$$%%$$@@  $              ",
"                    oX        $##$&&#+XX$$$$#@@                 ",
"                              Xoo#%%%$XXo @$$                   ",
"                                 X%#                            ",
"                                                                ",
"                                                                ",
"                                                                ",
"                                                                ",
"                                                                "
};
