/* XPM */
static char *result[] = {
/* columns rows colors chars-per-pixel */
"64 64 24 1 ",
"  c black",
". c #0B1007",
"X c #101901",
"o c #151B0E",
"O c #1E2706",
"+ c #1C2C13",
"@ c #243E1C",
"# c #2B4F21",
"$ c #33602B",
"% c #377430",
"& c #3F8436",
"* c #459344",
"= c #4B9F4F",
"- c #5CAF51",
"; c #6EBD55",
": c #7FCB5B",
"> c #91DA5F",
", c #A2EB64",
"< c #ADF86C",
"1 c #ECDC56",
"2 c #FFF364",
"3 c #FFFF74",
"4 c #FFFF7E",
"5 c #FFFFC6",
/* pixels */
"                                                                ",
"                                                                ",
"                                                                ",
"                                                                ",
"                                                                ",
"                             $    #++      @XOO                 ",
"                            %$@   $+%#  X  #X++                 ",
"                           #%$#%%@&%%%  @X##+@@O                ",
"                           $%%%%%&&;=%@@#+#+#@@                 ",
"                +++ $   oo#%&**%%=*:;%&&$$$$%@@#                ",
"               X####$## %%#$&*-===;:;*&&$&=%%##$+               ",
"               X####$## %%#$&*-===;:;*&&$&=%%##$+               ",
"               @###$$$$$%%$&=-:;;=;::-**-=-*&%%$+               ",
"             # @#$$$%%$$%%&&=;>;;;;:<<>>:;-*%%%$#X              ",
"            $##$#$$$%%%&%%&;;->>>:::<2>>>:--*&&%##              ",
"         #  $$%*%&&%%**=%%%;;,><<>:><2<<>:--*&&$$#+             ",
"        @$  &&%&===%--:-**%:;<<11>>214<<>>:-=&&%#$@   #         ",
"        @$%%&&&*&---;:::**>:<2111<<244<<>2>--**%$$##@@$##+      ",
"        @$%%&&&*&---;:::**>:<2111<<244<<>2>--**%$$##@@$##+      ",
"        $%$$$&**---:>:,,;;>,12211<42454412<:-==%%$$#@@@#XX$$$ # ",
"       #&%$$%&&*=--:>,44441<222441544444421:-;;&*$%&@@#XXX$$$%$ ",
"        +%##$&%==--;><444412225551445444411:>;;=**%&###@XX$##@  ",
"        +###$&#&=--;:4<41142244555555544541<>::-=*&&%%$$#X###+  ",
"        +@###$$&===;=;<222444554454454555422:::;-=&%&&##+X####  ",
"       .#+++++$$%&&==-::224454555545554455424::;-=&%&&##$####   ",
"       .#+++++$$%&&==-::224454555545554455424::;-=&%&&##$####   ",
" #    X##+###$$$$&&%=*-;>>4454555455545555422:::=**&&&%#+##@@@  ",
" ##$$$###$&&#%$%$%%&%--;::,444444444555555421:::;=**&&%#+X      ",
" $$$$$&*$*&&%%%%%%%&&-::::2444444445455554441>>:-=**&&&%$#      ",
"     $#&&%**&%%&%&&&*=;;<<2555455555455555544<<1;>*>&&;=&%#     ",
"        Xo$$+%$#%%%&*--:<<,5455555555555555412214,:4;;;;&%$     ",
"        X###$X%%%%%&&--:,,<455455455555555453111:,::::;;-##     ",
"        X###$X%%%%%&&--:,,<455455455555555453111:,::::;;-##     ",
"        #@++$#%%%%%&*=-:>><455555555555555554111;,-***%&#       ",
"        X@$$$%%%$$$%;=;:<<4455455555554445554221>--=**%$$       ",
"        X@XXX$%--$$::;>:<<4555555555454435442111<;-=**&$@       ",
"         X##X$*-=--::>1>,,454555555444443142211<::;;==%&%$      ",
"         X##%*&=&;;-:<1<,,<14555555442<<,,22:::,::;-==%$$$      ",
"         +###%&%&==;;:::;;:14454455111,,::21:;;-:---==%&%$+     ",
"         +###%&%&==;;:::;;:14454455111,,::21:;;-:---==%&%$+     ",
"         @###$&%&;;;;-:>>>,<44455,531<::;;>>;;;--=*=%%&$%$$     ",
"          ####%*;;;=--->,,,:144,,>4<<<<<;=>*;--*==*=%%$$$$      ",
"            @#%*=;;==*;,,,:><1>;;><>::<<:*-*=;;*&%%%@@$$+.      ",
"            @##%%$$$&*--==;>,::;;>,1:-,,:*&&&&&*&$$#@@$ ++      ",
"            +$##$$$&&*-===->,:===,1>:-;;-*&&%$$&$$$$@@X         ",
"            @#   %%&:;;*--;,;====;1>-=--*;&%%@@  $$#XX          ",
"            @#   %%&:;;*--;,;====;1>-=--*;&%%@@  $$#XX          ",
"                @$$:%:;*--;;;==&&;>>-=&&**%%#XX  @$ XX          ",
"              ##@$$%%&$*---====&&%--==%%%%@%@       ##          ",
"               @$@@####%**-***&&&$;--%%%&%@@+                   ",
"               @#$$## X%$$-&&*%$$%;:%%%%&%$$+                   ",
"               #$$$#X   ++&%&%$$$%&:#%&&$$@@                    ",
"               @$       $$$%$$$%%$$##+##%%@o                    ",
"               @$       $$$%$$$%%$$##+##%%@o                    ",
"                $     $%##@#@#$$$$$#XO$$%$@o                    ",
"                      $o##@#+ $###$#XX$$                        ",
"                     #o XX#   +####                             ",
"                     #                                          ",
"                                                                ",
"                                                                ",
"                                                                ",
"                                                                ",
"                                                                ",
"                                                                "
};
