/* XPM */
static char *result[] = {
/* columns rows colors chars-per-pixel */
"64 64 9 1 ",
"  c black",
". c #010101",
"X c #2A2232",
"o c #23004D",
"O c #2B005A",
"+ c #41344E",
"@ c #4F009B",
"# c #694788",
"$ c #7200DB",
/* pixels */
"                                                                ",
"                                                                ",
"                                                                ",
"                         ooooooooooooooo                        ",
"                      ooooooooooooooooooooo                     ",
"                    ooooooooo###O@##ooooooooo                   ",
"                  oooooooo######O@#####oooooooo                 ",
"                ooooooo#########O@########ooooooo               ",
"               ooooo###########O@$###########ooooo              ",
"             oooooo############O@$############oooooo            ",
"            ooooo###########+++O@$+++###########ooooo           ",
"           ooooo#########++++++O@$++++++#########ooooo          ",
"          ooooo#######++++++++O@$++++++++++#######ooooo         ",
"         ooooo#######+++++++++O@$+++++++++++#######ooooo        ",
"         oooo######+++++++++++O@$+++++++++++++######oooo        ",
"        oooo######++++++++++XXO@$XXXX++++++++++######oooo       ",
"       oooo######++++++++XXXXXO@$XXXXXXX++++++++######oooo      ",
"       ooo######+++++++XXXXXXO@$XXXXXXXXXX+++++++######ooo      ",
"      oooo#####+++++++XXXXXXXO@$XXXXXXXXXXX+++++++#####oooo     ",
"      ooo#####+++++++XXXXXXXXO@$XXXXXXXXXXXX+++++++#####ooo     ",
"     ooo######++++++XXXXXXXXO@$XXXXXXXXXXXXXX++++++######ooo    ",
"     ooo#####++++++XXXXXXXXXO@$XXXXXXXXXXXXXXX++++++#####ooo    ",
"    oooo####++++++XXXXXXXXXXO@$...XXXXXXXXXXXXX++++++####oooo   ",
"    ooo#####+++++XXXXXXXXXXO@$.......XXXXXXXXXXX+++++#####ooo   ",
"    ooo#####+++++XXXXXXXXX.O@$.........XXXXXXXXX+++++#####ooo   ",
"   oooo####+++++XXXXXXXXX..O@$..........XXXXXXXXX+++++####oooo  ",
"   ooo#####+++++XXXXXXXX...O@............XXXXXXXX+++++#####ooo  ",
"   ooo#####+++++XXXXXXXX...O@......OOOOOOOXXXXXXX+++++#####ooo  ",
"   ooo####+++++XXXXXXXX....O@.....O@@@@@@@OOOXXXXX+++++####ooo  ",
"   oo#####+++++XXXXXXXX....O@.....O....$$$@@@OOOXX+++++#####oo  ",
"   oo#####+++++XXXXXXXX.....OO............$$$@@@OOOOO++#####oo  ",
"   oo@@@$$$$+++XXXXXXX.....................XX$$$@@@@@OOOO###oo  ",
"   ooOOO@@@@$$$$$XXXXX.....................XXXXX$$$$$@@@@OOOoo  ",
"   oo###OOOO@@@@@$$$XX.....................XXXXXXX+++$$$$@@@oo  ",
"   oo#####++OOOOO@@@$$$............OO.....XXXXXXXX+++++#####oo  ",
"   oo#####+++++XXOOO@@@$$$....O.....@O....XXXXXXXX+++++#####oo  ",
"   ooo####+++++XXXXXOOO@@@@@@@O.....@O....XXXXXXXX+++++####ooo  ",
"   ooo#####+++++XXXXXXXOOOOOOO......@O...XXXXXXXX+++++#####ooo  ",
"   ooo#####+++++XXXXXXXX............@O...XXXXXXXX+++++#####ooo  ",
"   oooo####+++++XXXXXXXXX..........$@O..XXXXXXXXX+++++####oooo  ",
"    ooo#####+++++XXXXXXXXX.........$@O.XXXXXXXXX+++++#####ooo   ",
"    ooo#####+++++XXXXXXXXXXX.......$@OXXXXXXXXXX+++++#####ooo   ",
"    oooo####++++++XXXXXXXXXXXXX...$@OXXXXXXXXXX++++++####oooo   ",
"     ooo#####++++++XXXXXXXXXXXXXXX$@OXXXXXXXXX++++++#####ooo    ",
"     ooo######++++++XXXXXXXXXXXXXX$@OXXXXXXXX++++++######ooo    ",
"      ooo#####+++++++XXXXXXXXXXXX$@OXXXXXXXX+++++++#####ooo     ",
"      oooo#####+++++++XXXXXXXXXXX$@OXXXXXXX+++++++#####oooo     ",
"       ooo######+++++++XXXXXXXXXX$@OXXXXXX+++++++######ooo      ",
"       oooo######++++++++XXXXXXX$@OXXXXX++++++++######oooo      ",
"        oooo######++++++++++XXXX$@OXX++++++++++######oooo       ",
"         oooo######+++++++++++++$@O+++++++++++######oooo        ",
"         ooooo#######+++++++++++$@O+++++++++#######ooooo        ",
"          ooooo#######++++++++++$@O++++++++#######ooooo         ",
"           ooooo#########++++++$@O++++++#########ooooo          ",
"            ooooo###########+++$@O+++###########ooooo           ",
"             oooooo############$@O############oooooo            ",
"               ooooo###########$@O###########ooooo              ",
"                ooooooo########@O#########ooooooo               ",
"                  oooooooo#####@O######oooooooo                 ",
"                    ooooooooo##@O###ooooooooo                   ",
"                      ooooooooooooooooooooo                     ",
"                         ooooooooooooooo                        ",
"                                                                ",
"                                                                "
};
