/* XPM */
static char *_550_5fb355b89f7f7577b3ce2b45c22a6236e11498f60a15b698f7d5b640bf290ecd[] = {
/* columns rows colors chars-per-pixel */
"128 128 76 1 ",
"  c black",
". c #0E1C2A",
"X c #0D1F30",
"o c #0B273C",
"O c #0B283E",
"+ c #0A2B43",
"@ c #0C2F49",
"# c #0C324D",
"$ c #0C3552",
"% c #0C3856",
"& c #0B3D5D",
"* c #113D5B",
"= c #0C4164",
"- c #0C4469",
"; c #144262",
": c #0D4970",
"> c #104D76",
", c #114F78",
"< c #13527D",
"1 c #1A547D",
"2 c #494949",
"3 c #155682",
"4 c #175884",
"5 c #185986",
"6 c #175B88",
"7 c #1A5D8B",
"8 c #205F8A",
"9 c #1C608E",
"0 c #1D6494",
"q c #1F6A9C",
"w c #21628E",
"e c #236591",
"r c #266996",
"t c #286A96",
"y c #216C9E",
"u c #2C6E9A",
"i c #2E709C",
"p c #30729E",
"a c #236EA1",
"s c #2471A5",
"d c #2872A5",
"f c #2675AB",
"g c #2977AC",
"h c #2878AF",
"j c #3375A1",
"k c #3679A5",
"l c #387CA7",
"z c #2A7CB4",
"x c #2B7FB8",
"c c #3E81AC",
"v c #2D82BC",
"b c #3085BF",
"n c #3887BB",
"m c #478AB5",
"M c #468DBA",
"N c #4A8EB8",
"B c #5194BF",
"V c #2F86C1",
"C c #3086C1",
"Z c #3189C5",
"A c #3D8FC5",
"S c #348FCD",
"D c #3590CD",
"F c #3B92CD",
"G c #4396CE",
"H c #4799CE",
"J c #4A9ACE",
"K c #5399C4",
"L c #589DC6",
"P c #529ECE",
"I c #519ED0",
"U c #56A0CE",
"Y c #5BA2CE",
"T c #56A0D0",
"R c #61A6CF",
"E c #61A7D0",
/* pixels */
"                                                                                                                                ",
"                                                                                                                                ",
"                                                                                                                                ",
"                                                         RRERRRRRRRRRRR                                                         ",
"                                                         EEEEEEERRERRRR                                                         ",
"                                                        YYUUYLPLUYYUYUU                                                         ",
"                                                      RRIDSSSSSSDSSSSSSRRE                                                      ",
"                                                      RRISSSSSSSSSSSSSDERE                                                      ",
"                                                     IRRKxzxxxxxxxxxZSSPPY                                                      ",
"                                                   SSHRRN65555555557vSSSSHRRE                                                   ",
"                                                   SSHRRN55555555556vSSSSJERE                                                   ",
"                                                SSDUUMrte5555555555500e0ezFGJRE                                                 ",
"                                                DSSRRm5555555565555555555fSSHRRE                                                ",
"                                                DSSRRm5555555545443455555dSSHREE                                                ",
"                                                DSSERm555553>,,:>>>>45555dSSJRRE                                                ",
"                                                DSSERm55555<-:::::::<5555fSDHEEE                                                ",
"                                                FFDRYm554443:::::::><5555sSSGREE                                                ",
"                                             SSFJUPuue553>::::::::::>:>55900gGGJRR                                              ",
"                                             SSSPRE56655<::::::::::::-:55555ySSHRR                                              ",
"                                             SSFURE55555<:::::::::-::::55555ySSHRR                                              ",
"                                             SSFPRR55555<::::::::::::::65555aSSHRR                                              ",
"                                             SSFPRR55555<:::::-:-::::::55555aSSHRE                                              ",
"                                             HHJMmm555643-::::0qq>:::::555550fhnPJY                                             ",
"                                          SSSUEYl7855544<:::::zZV3:::::55555556dFFYRR                                           ",
"                                          SSSYRLj5555555<:::::xSZ4:::::44446555aDSURE                                           ",
"                                          SSSRRRj55554<<,::,00vSSq00009<3355555dDSYRE                                           ",
"                                          SSSYRRj5555<:::::7SSSSSSSSSSS::,55556sDDYEE                                           ",
"                                          SSSRRLj5555<:::::7SSSSSSSSSSS::<55555aSDYEE                                           ",
"                                          DSSYRYj5555<>-3yqsSSy87ewrCSS-:<55556aSSYEE                                           ",
"                                          DSSRRYj5555<::0SSSSS;++++%hSS::,55556sSSYEE                                           ",
"                                          DSSYRYj55553::0SSSSS;++++%hSS::<65555aSSYEE                                           ",
"                                          DSSYRYj5555yZZSDSd#$++++++-,<ZZs55555aSSYEE                                           ",
"                                          DSSYEYj5555aSSSSSa+++O+++@=::SSf55555aDDYRE                                           ",
"                                          FFFLLKj5555qSSZVCa++++++++=::SSf55555aCCPUY                                           ",
"                                          UUUliu95555aSSx76,+++++++@=::SSf555559eqGGHYRR                                        ",
"                                          EERt5555555aSSh:>=+++++++@=::SSf55555555ZDFURE                                        ",
"                                          ERRt5545566qSSz::=++++++++=::SSf55555555ZSFYRE                                        ",
"                                        SSPRRt55555::0SSh::=++++++++=::33>::,55555ZSFYRE                                        ",
"                                        SSPRRt55554::0SSz::=++++++++=:::::::,55555ZSFYEE                                        ",
"                                        SSPRRt55554340vVa::=++OO++++=:::::::,55555ZSFUEE                                        ",
"                                        SDPERt55555SSf::::-=++X..o++=:::::::>55555ZSFYRR                                        ",
"                                        SSPRRt55555SSf:::::=++X..o++=:::::::>55555ZSFPRE                                        ",
"                                        SSPRRt55555SSf::=%%$++X..O++$%%:::::>55555ZSGLRE                                        ",
"                                        SSPERt55555SSf::=+++++X..++++++:::::,55555ZSFYRE                                        ",
"                                        SSPRRt55555SSf::&+++++X..o+++++:::::,55555ZSFIEE                                        ",
"                                        SSPRRt55555xxq::&+++oXX..ooo+++:::::,55555ZSFYEE                                        ",
"                                        SSPRRt55656:::::&++o........o++:::::,55555ZSGYEE                                        ",
"                                        SSPRRt55444::::-&++o........o++:::::,55555ZSFLEE                                        ",
"                                        SSPRRt56ahh:::::&++o........o++::6ssq46455ZSFLEE                                        ",
"                                        SSPERt59xSS:::::&++o........o++::qSSz45655ZSFYEE                                        ",
"                                        SSPRRt59xSS:::::&++o........o++::qSSz55555ZSFYEE                                        ",
"                                        SSPRRt57xSS:::::&++o........o++:::::qSSh55ZSFYEE                                        ",
"                                        SSPREt67xSS:::::&++o........+++:::::qSSh55ZSFRRE                                        ",
"                                        SSPERt57fVV::-::&++o........o++:::::qSSh55ZSFPRE                                        ",
"                                        SSPRRt560e0:::::&++o........o++:::::qSSh55SSFLRE                                        ",
"                                        SSPRRt55555:::::&++X........o++:::::qSSh55ZSFYRE                                        ",
"                                        SSPERt55555:::::&+++........o++:::::qSSf55ZSFURE                                        ",
"                                        SSPRRt55555SSf::&++o.......Xo++:::::qSSh55ZSFYRE                                        ",
"                                        SSPRRt55555SSf::&++o........o++:::::qSSh55ZSFYRE                                        ",
"                                        SSPRRt55555SSf::&++o.......Xo++:::::qSSh55ZSFYRR                                        ",
"                                        SSPERt55555SSf::&++o........o++:::::qSSh55ZSFYEE                                        ",
"                                        SSPERt55555SSf::&++o........o++:::::qSSh55ZSFRRE                                        ",
"                                        SSPERt55555SSf::&++oXo..XXXX+++:::::qSSh55ZSFYEE                                        ",
"                                        SSPYRt55555SSf::&+++++X.X++++++:::::qSSh55ZSFYEE                                        ",
"                                        SSPRRt55554SSf::&++O++X..X+++++:::::qSSh55ZSFYRE                                        ",
"                                        SSPRRt55556SSvq01$$#++X.X+++$$$:::::qSSh55ZSFYRE                                        ",
"                                        SSPRRt55556SSSSSz::=++X..+++=:::-:::qSSh55ZSFURE                                        ",
"                                        SSPRRt55554SSSSSh::=++X..+++=:::::::qSSh55ZSFYRE                                        ",
"                                        SSPERt5555576sSSZzh0++OO+qda,:::::::qSSh55ZSFYRE                                        ",
"                                        SSPRRt55554::0SSDDDs++++#vSZ6:::::::qSSh55ZSFYRE                                        ",
"                                        SSPRRt55556::0SDDDDs++++$bSZ6:::::::qSSh55ZSFYRE                                        ",
"                                          ERRt5555554<::0ZDDSSDSZ*++=::::aSSz55555ZSFYRE                                        ",
"                                          EEEu5555555<::0SSSSSSSZ*+@=::::qSSz55555ZSFYRE                                        ",
"                                          TTYktt75555<::9vvVSSvxg%++=::::qSSz55600AFHYRR                                        ",
"                                          GFFKKBp5555<::>64qSS<;;@+@=::::ySSz55abbPYP                                           ",
"                                          DSDYEYj5555<:::::7SS;++++@=::::qSSz55aSSYEE                                           ",
"                                          DSFYRRj55553:::::6SS;+++++=::::aSSz55aSSYEE                                           ",
"                                          DSSLRLj5555<:::::=++++++++=::SSf55556aSDYEE                                           ",
"                                          SSSYRRj5555<-::::=+++++++@=::SSf55555aSSYRE                                           ",
"                                          DSSYRYj55556qq6::-%%+++$%%-::ss055556sDDYRE                                           ",
"                                          DSSYEYj5555ySSz:::::@++-:::::::,55555sSSYEE                                           ",
"                                          DSSYRYj5555ySSh:::::$++-:::::::,55555sSSYEE                                           ",
"                                          DSSYRYj5555eaaffhy::#+@aff3::,,355555sSSYEE                                           ",
"                                          DSSYRRp5555566aSSh::#+$VSZ6::55555555dSSYEE                                           ",
"                                          SSSYRYj6755555aSSz:>%@%VSV6::45555565dFSEEE                                           ",
"                                           SSJKJmmc555550asaqa098saq<::555559ddxJJEE                                            ",
"                                             SSFPRR555553::7SSSSS3:::::55555aSSHEE                                              ",
"                                             SSFPRR55555,::7SSSSZ3:::::55555aSSHEE                                              ",
"                                             SSFUER55555<::>33333::::::55555ySSHER                                              ",
"                                             SSFPER55555<::::::::::::::55555ySSHRR                                              ",
"                                             SSDJYYee9553:::-::::::::::55799dFFJRR                                              ",
"                                                FDFRRm554443::::::::35555sZZGEEE                                                ",
"                                                SSSEYm554553::::::::35555fSSHEEE                                                ",
"                                                SSSEEm555543>::>>:>>35554fSSHEEE                                                ",
"                                                SSSEEm5555544444443355554sSSJEEE                                                ",
"                                                SSSEEm5555555545555555555sSSHEEE                                                ",
"                                                DDSEYm7875555555555577777fDFJRRE                                                ",
"                                                   SSHEEN55555555557vSSSDHRRE                                                   ",
"                                                   DSHEEN65655555566vSDSSJRRE                                                   ",
"                                                     GHHAgffgggghgggZSDJPP                                                      ",
"                                                      SSSSSSSSSSSSSSSSSREE                                                      ",
"                                                      SSDDSSDSSDSSSSSSSREE                                                      ",
"                                                        JUUUUUUUYPIPUUU                                                         ",
"                                                         RRREYRRRREERRR                                                         ",
"                                                         EEERRRRRRRERRR                                                         ",
"                                                         EEEEEEEEEEEEEE                                                         ",
"                                                                                                                                ",
"                                                                                                                                ",
"                                                                                                                                ",
"                                                                                                                                ",
"                                                                                                                                ",
"                                                                                                                                ",
"                                                                                                                                ",
"                                                                                                                                ",
"                                                                                                                                ",
"                                                                                                                                ",
"                                                                                                                                ",
"                                                                                                                                ",
"                                                                                                                                ",
"                                                          22222222222                                                           ",
"                                                          22222222222                                                           ",
"                                                          22222222222                                                           ",
"                                                  2222222222222222222222222222                                                  ",
"                                                 22222222222222222222222222222                                                  ",
"                                                 22222222222222222222222222222                                                  ",
"                                                          222222222222                                                          ",
"                                                          22222222222                                                           ",
"                                                          22222222222                                                           "
};
