/* XPM */
static char *result[] = {
/* columns rows colors chars-per-pixel */
"64 64 9 1 ",
"  c black",
". c #010101",
"X c #140031",
"o c #2A2232",
"O c #2B005A",
"+ c #41344E",
"@ c #4F009B",
"# c #694788",
"$ c #7200DB",
/* pixels */
"                                                                ",
"                                                                ",
"                                                                ",
"                         XXXXXXXXXXXXXXX                        ",
"                      XXXXXXXXXXXXXXXXXXXXX                     ",
"                    XXXXXXXXXXXXXXXXXXXXXXXXX                   ",
"                  XXXXXXXXXX+++++++++XXXXXXXXXX                 ",
"                XXXXXXXX+++++++++++++++++XXXXXXXX               ",
"               XXXXXXXO@+++++++++++++++++++XXXXXXX              ",
"             XXXXXXX++O@$++++++++++++++++++++XXXXXXX            ",
"            XXXXXX++++O@$+++#########++++++++++XXXXXX           ",
"           XXXXXX+++++O@$###############++++++++XXXXXX          ",
"          XXXXX+++++++O@$##################+++++++XXXXX         ",
"         XXXXX+++++++##O@$##################+++++++XXXXX        ",
"         XXXX++++++####O@$####################++++++XXXX        ",
"        XXXX++++++#####O@$##+++++++++##########++++++XXXX       ",
"       XXXXX+++++######O@$++++++++++++++########+++++XXXXX      ",
"       XXXX+++++#######O@$++++++++++++++++#######+++++XXXX      ",
"      XXXX+++++#######+O@$+++++++++++++++++#######+++++XXXX     ",
"      XXXX++++#######++O@$++++++++++++++++++#######++++XXXX     ",
"     XXXX+++++######++++O@$++++++++++++++++++######+++++XXXX    ",
"     XXXX++++######+++++O@$+++++++++++++++++++######++++XXXX    ",
"    XXXX++++######++++++O@$++++ooo+++++++++++++#####OOOOOXXXX   ",
"    XXXX++++#####+++++++O@$+ooooooooo++++++++OOOOOOO@@@@@XXXX   ",
"    XXX+++++#####+++++++O@$oooooooooooo+OOOOO@@@@@@@$$$$++XXX   ",
"   XXXX++++#####+++++++++O@$ooooooooOOOO@@@@@$$$$$$$##++++XXXX  ",
"   XXXX++++#####++++++++oO@$oooooooO@@@@$$$$$++++#####++++XXXX  ",
"   XXXX++++#####++++++++oO@$ooo...O@$$$$o++++++++#####++++XXXX  ",
"   XXX++++#####++++++++ooO@$o.....@.oooooo++++++++#####++++XXX  ",
"   XXX++++#####++++++++oooO@......O..ooooo++++++++#####++++XXX  ",
"   XXX++++#####++++++++ooooO@O.......ooooo++++++++#####++++XXX  ",
"   XXX++++#####+++++++ooooo...........ooooo+++++++#####++++XXX  ",
"   XXX++++#####+++++++ooooo...........ooooo+++++++#####++++XXX  ",
"   XXX++++#####+++++++ooooo...........ooooo+++++++#####++++XXX  ",
"   XXX++++#####++++++++ooooo.......O@Ooooo++++++++#####++++XXX  ",
"   XXX++++#####++++++++ooooo..O......@Oooo++++++++#####++++XXX  ",
"   XXX++++#####++++++++oooooo.@.....o$@Ooo++++++++#####++++XXX  ",
"   XXXX++++#####++++++++o$$$$@O...ooo$@Oo++++++++#####++++XXXX  ",
"   XXXX++++#####++++$$$$$@@@@Oooooooo$@Oo++++++++#####++++XXXX  ",
"   XXXX++++##$$$$$$$@@@@@OOOOoooooooo$@O+++++++++#####++++XXXX  ",
"    XXX++$$$$@@@@@@@OOOOO+oooooooooooo$@O+++++++#####+++++XXX   ",
"    XXXX@@@@@OOOOOOO++++++++ooooooooo+$@O+++++++#####++++XXXX   ",
"    XXXXOOOOO#####+++++++++++++ooo++++$@O++++++######++++XXXX   ",
"     XXXX++++######+++++++++++++++++++$@O+++++######++++XXXX    ",
"     XXXX+++++######++++++++++++++++++$@O++++######+++++XXXX    ",
"      XXXX++++#######++++++++++++++++++$@O++#######++++XXXX     ",
"      XXXX+++++#######+++++++++++++++++$@O+#######+++++XXXX     ",
"       XXXX+++++#######++++++++++++++++$@O#######+++++XXXX      ",
"       XXXXX+++++########++++++++++++++$@O######+++++XXXXX      ",
"        XXXX++++++##########+++++++++##$@O#####++++++XXXX       ",
"         XXXX++++++####################$@O####++++++XXXX        ",
"         XXXXX+++++++##################$@O##+++++++XXXXX        ",
"          XXXXX+++++++##################$@O+++++++XXXXX         ",
"           XXXXXX++++++++###############$@O+++++XXXXXX          ",
"            XXXXXX++++++++++#########+++$@O++++XXXXXX           ",
"             XXXXXXX++++++++++++++++++++$@O++XXXXXXX            ",
"               XXXXXXX+++++++++++++++++++@OXXXXXXX              ",
"                XXXXXXXX+++++++++++++++++XXXXXXXX               ",
"                  XXXXXXXXXX+++++++++XXXXXXXXXX                 ",
"                    XXXXXXXXXXXXXXXXXXXXXXXXX                   ",
"                      XXXXXXXXXXXXXXXXXXXXX                     ",
"                         XXXXXXXXXXXXXXX                        ",
"                                                                ",
"                                                                "
};
