/* XPM */
static char *_7295_a37ac014e3f0763168a442a857762b3bd63b4ae644a9b8637e7c6079447c260f[] = {
/* columns rows colors chars-per-pixel */
"128 128 80 1 ",
"  c black",
". c #0E1C2A",
"X c #0D2132",
"o c #0B273C",
"O c #0B283E",
"+ c #112435",
"@ c #0A2B43",
"# c #0B2F49",
"$ c #0C324D",
"% c #0E3652",
"& c #0F3956",
"* c #0B3D5D",
"= c #123D5C",
"- c #0C3F61",
"; c #0C4063",
": c #0D456A",
"> c #154466",
", c #144669",
"< c #17496C",
"1 c #1D4A6B",
"2 c #0D4970",
"3 c #114D75",
"4 c #1E4D70",
"5 c #114F78",
"6 c #13527C",
"7 c #1B537B",
"8 c #494949",
"9 c #155681",
"0 c #175885",
"q c #185986",
"w c #175B88",
"e c #1A5D8C",
"r c #1B608F",
"t c #1D6493",
"y c #1F6798",
"u c #1F699B",
"i c #20618E",
"p c #216390",
"a c #286A96",
"s c #216B9E",
"d c #296C9B",
"f c #2E719D",
"g c #236EA1",
"h c #2470A4",
"j c #2871A4",
"k c #2675AB",
"l c #2977AC",
"z c #2778AF",
"x c #2978AF",
"c c #3375A1",
"v c #297CB3",
"b c #2B7FB8",
"n c #317FB3",
"m c #2E82BC",
"M c #3083BD",
"N c #3B8ABE",
"B c #4083AE",
"V c #478AB5",
"C c #4A8EB8",
"Z c #4D92BD",
"A c #2F86C1",
"S c #3086C1",
"D c #3189C5",
"F c #3C8EC5",
"G c #348FCD",
"H c #3590CD",
"J c #3B92CD",
"K c #4392C5",
"L c #4D96C3",
"P c #4D98C6",
"I c #4497CE",
"U c #4799CE",
"Y c #4B9BCE",
"T c #5499C2",
"R c #589DC6",
"E c #529ECE",
"W c #56A0CE",
"Q c #5CA3CE",
"! c #61A6CF",
"~ c #61A6D0",
/* pixels */
"                                                                                                                                ",
"                                                                                                                                ",
"                                                                                                                                ",
"                                                                                                                                ",
"                                                                                                                                ",
"                                                                                                                                ",
"                                                         !!!~~~~!!!!!!!                                                         ",
"                                                         !!!!!~~!!!!!!!                                                         ",
"                                                        QEEEEEEEEEEEEEE                                                         ",
"                                                      !!EGGGGGGGGGGGGGG!!~                                                      ",
"                                                      !!WHGHGGGGGGGGGGG!!~                                                      ",
"                                                   GGU!!ZtttttttpttsMHGJJY~!~                                                   ",
"                                                   HGI!!CqqqqqqqqqqemGGGHU!~~                                                   ",
"                                                   HJIQQCqqwqqqqqqqebDDGDUQ!!                                                   ",
"                                                 GGEEZccaqqqqqqqqqqqtstssnIIE!~                                                 ",
"                                                HGG~~V0wqqqqqqqqqqqqqqqqqjGHU!~~                                                ",
"                                                GGG~~Vqqqq00000000qwqqqqqkGGU~!~                                                ",
"                                                GGG~~Vqqq009252523259qqqqhGGY!!~                                                ",
"                                                GGG~~Vqqqqw9222222239qqqqzGGY!!~                                                ",
"                                                HJJQRVqqq009222222229q0qqhDGYQ!~                                                ",
"                                             GGJE~!qqqqq622222bGD922:22qqqqqgGHU!!                                              ",
"                                             GGHE~!qqqqq622222bGD922222qqqqqsGGU!!                                              ",
"                                             GGJE!!qqqqq6226uuhkh622222qqqq0sGGU!!                                              ",
"                                             HGJE!!qqqqq622wDGw55222222qqqq0gGGU!!                                              ",
"                                             GGJW!!qqqqq622eGGw22222222qqqqqgGGU!!                                              ",
"                                             IIULZZqqqqq6229bb2-;:222220qqqqtvvNWW                                              ",
"                                          HGGQ!!cqqqqqqq622222#@@:222220qqqqqqqgGGQ~~                                           ",
"                                          HGGQ~Rcqqqqqqq622222$@@:222220qqqqqqqhGGQ!~                                           ",
"                                          HGGQ~Qcqqqqthht22222$@#tuuuut669qqqqqhHGQ!~                                           ",
"                                          HGGQ~!cqqqqdGHb22222$@$AGGGGG226qqqqqhGGQ!~                                           ",
"                                          HGGQ!Qcqqq0gGGz22222%@$mGGGHG2260qqqqhGG!!~                                           ",
"                                          HGGQ!QcqqDDGHGz22;@@hAm>$%:36DDhqqqqqhGGQ!~                                           ",
"                                          HGGQ~QcqqGGGGGv22;@@lHD=@@-22GGzqqqqqgGGQ!~                                           ",
"                                          HGGQ!QcqqGGGAAh22;@@dmb*@#:22ADhqqqqqhHGQ!~                                           ",
"                                          HGGQ!QcqqGGvee022;@@>,<#@@-22rewqqqqqhGG~!~                                           ",
"                                          HGGQ!QcqqGGz22222;@@@@@@@#-22225qqqqqgGGQ!~                                           ",
"                                          HHGQ!QcqqGGk22222;@@@@@@@#-22229qqqqqgGGQ!~                                           ",
"                                          QQQfiieqqGGz22222;@@@@@@@#-22225qqqqqettFJJW~~                                        ",
"                                          ~~~aqqqq0GGz22222-@@@@@@@@:22225qq0qqqq0AGJQ~~                                        ",
"                                          !~~aqq000GGk22222-@@@@@@@@-22225990qqqqwDGJQ~~                                        ",
"                                        HHEQ~aqqw0qGGz22222;@@@@@@@@-22222225qqqqqDGJQQ~                                        ",
"                                        GGE!!aqq00qGGz22222;@@@@@@@#>22222225qqqqqDGJQ~~                                        ",
"                                        GGE!!aqeuzkGGk2:222-@@oXX@@$rggggr225qqqqqDGJE~~                                        ",
"                                        HGE!!aqebGGGGk22222;@@X..@@%lGGGDg225qqqqqDGJQ~~                                        ",
"                                        GGE!!aqebGGGHk22222;@@X..@@%xGGGGg225qqqq0DGJQ~~                                        ",
"                                        GGE!!aqrbGGGHk22;;*&@@..X>47gxxbbgrreqqqq0DGJQ~~                                        ",
"                                        GGE~~aqebGGGHk22*@@@@@X.+bGD>@#22sGGv0qqqqDGJ!!~                                        ",
"                                        GGE~~aqrbGGGGk22*@@@@@X.+SGD>@@22sGHvqqqqqDGJE!~                                        ",
"                                        GGE~!aqqsghGGz:2*@@OXX...141$@@22gGGv0qqqqDGJQ~~                                        ",
"                                        GGE~!aqqqqqGGz22*@@o........o@@22sGGv0qqqqDGJQ~~                                        ",
"                                        GGE!!aqqqqqGGk22*@@o........+@@22sGGvqqqqqDGJQ~~                                        ",
"                                        HGY!!aqqqqqGGz22*@@o........@@@22222sGGxqqDGJQ~~                                        ",
"                                        GGE!!aqqw00HGz22*@@o........o@@22222uGGxqqDGJR!~                                        ",
"                                        GGE~!aqq000mmh96:@@o........o@@22222uGGxqqDGJE!~                                        ",
"                                        GGE!!aqqqq0w0ybbt@@X........o@@22222uGGzqqDGJQ!~                                        ",
"                                        GGE!!aqqqq022rGGf@@X........o@@22222uGGxqqDGJQ!~                                        ",
"                                        GGE~!aqqqqq22rGGh@@o........o@@22222yGGzqqDGJQ~~                                        ",
"                                        GGE~!aqqqqq22tHGGGGa........o@@22222uGGzqqDGJW~~                                        ",
"                                        GGE!~aqqqqq22tGGGGGd........o@@22222uGGzqqDGJQ~~                                        ",
"                                        GGE!~aqqqqq22wzzljjq........o@@22222uGGxqqDGJQ~~                                        ",
"                                        GGE!!aqqqqq22222*@@o........o@@22222uGGvqqDGJQ~~                                        ",
"                                        GGE!!aqqqqq22222*@@o........o@@22222uGGzqqDGJQ~~                                        ",
"                                        GGE~!a0qqqq22222*@@o........o@@22222gGGz0qAGJQ~~                                        ",
"                                        GGE~!a0qqqq22222*@@o........o@@22222yGGzwwDGJQ~~                                        ",
"                                        GGE!!aqqqq022222*@@o.....X.+@@@22222gGGkqqDGJQ~~                                        ",
"                                        GGE!!aqqqqq22222*@@oXX..X-41$@@22222sGGxqqDGJQ~~                                        ",
"                                        GGE!!aqqqqq22222*@@@@@X.+MGD1@@22-32gGGzqqDGJQ~~                                        ",
"                                        GGE!!aqqqqq:2222*@@@@@X.+MGD-@@22222sGGzqqDGJW~~                                        ",
"                                        GGE!!aqqqqq22222:--*@@X.+MGD9--222-29syrqqDGJQ!~                                        ",
"                                        GGY!!aqqqqq22222222-@@..+MGDq22222523qqqqqDGJW!~                                        ",
"                                        HGE~!aqqqqq22222222-@@X.+bGDq32222225qqqqqDGJQ!~                                        ",
"                                        GGE~~aqqqqq22222222-@@@@@@@&vGG22222gGGzqwDGJW!~                                        ",
"                                        GGE~~aqqqqq22222222-@@@@@@@&zGG222-5uGGzqqDGJQ!~                                        ",
"                                        GGE~~aqqqqw22222222-@@@@@@@&zGG22252uAAhqqDGJQ!!                                        ",
"                                          Q~~a0qqqq99522222;@@@@@@@%zGG22599eyyrqqDGJQ!!                                        ",
"                                          ~~!aqqqqqqw922222-@@@@@@@*zGG2299q0qqqqqDGJQ!!                                        ",
"                                          ~~!aqqqqqqq522222-@@@@@@@%zGG2-9qq0qqqqqDGJQ~~                                        ",
"                                          HGG!!Qcqqqq922222-@@@@@@@&zGG2-9qq000hGGQ~~                                           ",
"                                          GGGQ~Qcqqq0922222-@@@@@@@&zGD999qqqqqhHGQ~~                                           ",
"                                          GGGQ~Rcqq00922222-@@@@@79qshh--9qqqqqhGGQ~~                                           ",
"                                          HGGQ~Qcqqqq622222-@@@@$MGDe22225qqqqqhGGQ~~                                           ",
"                                          HGGQ!Qcqqqq622222-@@@@$SGDq22229qqqqqhGGQ~~                                           ",
"                                          HGGQ!Qcqqqqtzzu22:**#@$SGDe22225qqqqqhGGQ~~                                           ",
"                                          HGGQ!QcqqqqdGGz2222:$@$MGDq22225qqqqqgGGQ~~                                           ",
"                                          HGGQ!!cqqqqsGGz22225%$%SGSq222290qqqqhGGQ~~                                           ",
"                                          HGGQ!Qcqqqqtzzu226ggteihgg922559qqqqqhGGQ~~                                           ",
"                                          HGFQ!Qcqqqqqqq922eGGGGD922222qqqqqqqqhGGQ~~                                           ",
"                                          GGGQ!Qcqqqqq0q622eGGGGD922222qqqqqqqqhGG~~~                                           ",
"                                             JJIPTTqqqqq622eGGt99222222qqqqqyAAKQQ                                              ",
"                                             GGJE!!qqqqq622eGG0222222220qqqqgGGI~~                                              ",
"                                             GGHE!!qqqqq622wAA922222222qqqqqgGGU~~                                              ",
"                                             GGJW!!qqqqq622255222222222qqqqqgGGU~~                                              ",
"                                             GGJW~~q00qq6222222222222220qqqqgDGU~~                                              ",
"                                             GGJYWWffaqq925222222222255qqeyylIIY!!                                              ",
"                                                JJJRRBqq000622222222999qqhSDKQQQ                                                ",
"                                                HGG~~Vqq00092222222290qqqhGGU~~~                                                ",
"                                                HGG!!Vqqqqq6222332239qq0qlHGU!~~                                                ",
"                                                HGG!!Vqqqqqqqqqq0qqq0qq0qhGHU!!~                                                ",
"                                                HGG~!Vqqqqqqqqqqqqqqqq00qhHHU~!~                                                ",
"                                                   UUKBBcqqqqqqqqq0eglzzlNYYW                                                   ",
"                                                   GGI!!CqqqqqqqqqqemGGGGY~~~                                                   ",
"                                                   HGI!!Cqqqqqq0qq0emGGGGY~~~                                                   ",
"                                                     JYIFvvvvvvvvxvvDGGWEQ                                                      ",
"                                                      GGGGGGGGGHGGGGHGG!!~                                                      ",
"                                                      GGHHJGJHHJJGHHHHH!~~                                                      ",
"                                                      HHIYYYYYYYYYYYEYE~~                                                       ",
"                                                         !~~!!!!~~~!!!!                                                         ",
"                                                         !!!!!!!~~!!!!!                                                         ",
"                                                                                                                                ",
"                                                                                                                                ",
"                                                                                                                                ",
"                                                                                                                                ",
"                                                                                                                                ",
"                                                                                                                                ",
"                                                                                                                                ",
"                                                                                                                                ",
"                                                                                                                                ",
"                                                                                                                                ",
"                                                                                                                                ",
"                                                        8888888888888888                                                        ",
"                                                       888888888888888888                                                       ",
"                                                       888888888888888888                                                       ",
"                                               888888888888888888888888888888888                                                ",
"                                               8888888888888888888888888888888888                                               ",
"                                               8888888888888888888888888888888888                                               ",
"                                                       888888888888888888                                                       ",
"                                                       888888888888888888                                                       ",
"                                                       888888888888888888                                                       "
};
