/* XPM */
static char *result[] = {
/* columns rows colors chars-per-pixel */
"64 64 8 1 ",
"  c black",
". c #010101",
"X c #050013",
"o c #2A2232",
"O c #2B005A",
"+ c #41344E",
"@ c #4F009B",
"# c #7200DB",
/* pixels */
"                                                                ",
"                                                                ",
"                                                                ",
"                         XXXXXXXXXXXXXXX                        ",
"                      XXXXXXXXXXXXXXXXXXXXX                     ",
"                    XXXXXXXXXXXXXXXXXXXXXXXXX                   ",
"                  XXXXXXXXXXXXXXXXXXXXXXXXXXXXX                 ",
"                XXXXXXXXXXoooooooooooooXXXXXXXXXX               ",
"               XXXXXXXXoooooooooooooooooooXXXXXXXX              ",
"             XXXXXXXXoooooooooooooooooooooooXXXXXXXX            ",
"            XXXXXXXooooooooo.........oooooooooXXXXXXX           ",
"           XXXXXXoooooooo...............ooooOOOOXXXXXX          ",
"          XXXXXXoooooo....................OO@@@@@XXXXXX         ",
"         XXXXXXoooooo...................OO@@#####oXXXXXX        ",
"         XXXXXooooo...................OO@@##..oooooXXXXX        ",
"        XXXXXooooo..........oooooooooO@@##.....oooooXXXXX       ",
"       XXXXX@#ooo........oooooooooooO@##........oooooXXXXX      ",
"       XXXXO@#oo.......ooooooooooooO@#oooo.......oooooXXXX      ",
"      XXXXXO@#o.......ooooooooooooO@#oooooo.......ooooXXXXX     ",
"      XXXXoO@#.......oooooooooooooO@#ooooooo.......ooooXXXX     ",
"     XXXXXoO@#......oooooooooooooO@#ooooooooo......ooooXXXXX    ",
"     XXXXoooO@#....oooooooooooooO@#ooooooooooo......ooooXXXX    ",
"    XXXXXoooO@#...oooooooooooooO@#ooooooooooooo......oooXXXXX   ",
"    XXXXoooo.O@#.ooooooooooo+++O@#+++ooooooooooo.....ooooXXXX   ",
"    XXXXoooo.O@#.ooooooooo++++O@#++++++ooooooooo.....ooooXXXX   ",
"   XXXXXooo...O@#oooooooo+++++O@#+++++++ooooooooo.....oooXXXXX  ",
"   XXXXoooo...O@#ooooooo++++++O@#++++++++oooooooo.....ooooXXXX  ",
"   XXXXoooo....O@#oooooo++++++O@..+++++++oooooooo.....ooooXXXX  ",
"   XXXXooo.....oO@##ooo++++++.O@....++++++oooooooo.....oooXXXX  ",
"   XXXXooo.....ooO@@#oo+++++...O.....+++++oooooooo.....oooXXXX  ",
"   XXXXooo.....oooOO@#o+++++........OOOOO+oooooooo.....oooXXXX  ",
"   XXXXooo.....oooooO@##+++........O@@@@@OOooooooo.....oooXXXX  ",
"   XXXXooo.....ooooooO@@###...........###@@Ooooooo.....oooXXXX  ",
"   XXXXooo.....oooooooOO@@@@@O........+++##@Oooooo.....oooXXXX  ",
"   XXXXooo.....oooooooo+OOOOO........+++++o#@OOooo.....oooXXXX  ",
"   XXXXooo.....oooooooo+++++.....O...+++++oo#@@Ooo.....oooXXXX  ",
"   XXXXooo.....oooooooo++++++....@O.++++++ooo##@Oo.....oooXXXX  ",
"   XXXXoooo.....oooooooo+++++++..@O++++++oooooo#@O....ooooXXXX  ",
"   XXXXoooo.....oooooooo++++++++#@O++++++ooooooo#@O...ooooXXXX  ",
"   XXXXXooo.....ooooooooo+++++++#@O+++++oooooooo#@O...oooXXXXX  ",
"    XXXXoooo.....ooooooooo++++++#@O++++ooooooooo.#@O.ooooXXXX   ",
"    XXXXoooo.....ooooooooooo+++#@O+++ooooooooooo.#@O.ooooXXXX   ",
"    XXXXXooo......ooooooooooooo#@Oooooooooooooo...#@OoooXXXXX   ",
"     XXXXoooo......ooooooooooo#@Oooooooooooooo....#@OoooXXXX    ",
"     XXXXXoooo......ooooooooo#@Oooooooooooooo......#@OoXXXXX    ",
"      XXXXoooo.......ooooooo#@Oooooooooooooo.......#@OoXXXX     ",
"      XXXXXoooo.......oooooo#@Ooooooooooooo.......o#@OXXXXX     ",
"       XXXXooooo.......oooo#@Ooooooooooooo.......oo#@OXXXX      ",
"       XXXXXooooo........##@Oooooooooooo........ooo#@XXXXX      ",
"        XXXXXooooo.....##@@Oooooooooo..........oooooXXXXX       ",
"         XXXXXooooo..##@@OO...................oooooXXXXX        ",
"         XXXXXXo#####@@OO...................ooooooXXXXXX        ",
"          XXXXXX@@@@@OO....................ooooooXXXXXX         ",
"           XXXXXXOOOOoooo...............ooooooooXXXXXX          ",
"            XXXXXXXooooooooo.........oooooooooXXXXXXX           ",
"             XXXXXXXXoooooooooooooooooooooooXXXXXXXX            ",
"               XXXXXXXXoooooooooooooooooooXXXXXXXX              ",
"                XXXXXXXXXXoooooooooooooXXXXXXXXXX               ",
"                  XXXXXXXXXXXXXXXXXXXXXXXXXXXXX                 ",
"                    XXXXXXXXXXXXXXXXXXXXXXXXX                   ",
"                      XXXXXXXXXXXXXXXXXXXXX                     ",
"                         XXXXXXXXXXXXXXX                        ",
"                                                                ",
"                                                                "
};
