/* XPM */
static char *result[] = {
/* columns rows colors chars-per-pixel */
"64 64 8 1 ",
"  c black",
". c #010101",
"X c #2A2232",
"o c #2B005A",
"O c #41344E",
"+ c #4F009B",
"@ c #694788",
"# c #7200DB",
/* pixels */
"                                                                ",
"                                                                ",
"                                                                ",
"                         ...............                        ",
"                      .....................                     ",
"                    .........................                   ",
"                  .............................                 ",
"                .................................               ",
"               ...................................              ",
"             .......................................            ",
"            ................XXXXXXXXX................           ",
"           ..............XXXXXXXXXXXXXXX..............          ",
"          ............XXXXXXXXXXXXXXXXXXXXX............         ",
"         ............XXXXXXXXXXXXXXXXXXXXXXX...oo.......        ",
"         ......#...XXXXXXXXXXXXXXXXXXXXXXXXXXoo+++......        ",
"        ......+#..XXXXXXXXXXOOOOOOOOOXXXXXooo++####......       ",
"       ......o+#.XXXXXXXXOOOOOOOOOOOOOOOoo+++##X..........      ",
"       ......o+#XXXXXXXOOOOOOOOOOOOOOOoo++###XXXX.........      ",
"      ........o+#XXXXXOOOOOOOOOOOOOOOo++##OXXXXXXX.........     ",
"      ........o+#XXXXOOOOOOOOOOOOOOOo+##OOOOXXXXXXX........     ",
"     .........Xo+#XXOOOOOOOOOOOOOOOo+#OOOOOOOXXXXXX.........    ",
"     ........XXo+#XOOOOOOOOOOOOOOOo+#OOOOOOOOOXXXXXX........    ",
"    ........XXXo+#OOOOOOOOOOOOO@@o+#OOOOOOOOOOOXXXXXX........   ",
"    ........XXXXo+#OOOOOOOOO@@@@o+#@@OOOOOOOOOOOXXXXX........   ",
"    ........XXXXo+#OOOOOOO@@@@@o+#@@@@@OOOOOOOOOXXXXX........   ",
"   ........XXXXXOo+#OOOOO@@@@@@o+#@@@@@@OOOOOOOOOXXXXX........  ",
"   ........XXXXXOo+#OOOO@@@@@@@o+#@@@@@@@OOOOOOOOXXXXX........  ",
"   ........XXXXXOOo+#OOO@@@@@@@o+.@@@@@@@OOOOOOOOXXXXX........  ",
"   .......XXXXXOOOOo+#O@@@@@@..o+...@@@@@@OOOOOOOOXXXXX.......  ",
"   .......XXXXXOOOOOo+#@@@@@....o....@@@@@OOOOOOOOXXXXX.......  ",
"   .......XXXXXOOOOOOo+#@@@@.........@@@@@OOOOOOOOXXXXX.......  ",
"   .......XXXXXOOOOOOOo+###.........ooooo@@OOOOOOOXXXXX.......  ",
"   .......XXXXXOOOOOOO@o+++++o.....o+++++o@OOOOOOOXXXXX.......  ",
"   .......XXXXXOOOOOOO@@ooooo.........###+oOOOOOOOXXXXX.......  ",
"   .......XXXXXOOOOOOOO@@@@@.........@@@@#+oOOOOOOXXXXX.......  ",
"   .......XXXXXOOOOOOOO@@@@@....o....@@@@@#+oOOOOOXXXXX.......  ",
"   .......XXXXXOOOOOOOO@@@@@@...+o..@@@@@@O#+oOOOOXXXXX.......  ",
"   ........XXXXXOOOOOOOO@@@@@@@.+o@@@@@@@OOO#+oOOXXXXX........  ",
"   ........XXXXXOOOOOOOO@@@@@@@#+o@@@@@@@OOOO#+oOXXXXX........  ",
"   ........XXXXXOOOOOOOOO@@@@@@#+o@@@@@@OOOOO#+oOXXXXX........  ",
"    ........XXXXXOOOOOOOOO@@@@@#+o@@@@@OOOOOOO#+oXXXX........   ",
"    ........XXXXXOOOOOOOOOOO@@#+o@@@@OOOOOOOOO#+oXXXX........   ",
"    ........XXXXXXOOOOOOOOOOO#+o@@OOOOOOOOOOOOO#+oXXX........   ",
"     ........XXXXXXOOOOOOOOO#+oOOOOOOOOOOOOOOOX#+oXX........    ",
"     .........XXXXXXOOOOOOO#+oOOOOOOOOOOOOOOOXX#+oX.........    ",
"      ........XXXXXXXOOOO##+oOOOOOOOOOOOOOOOXXXX#+o........     ",
"      .........XXXXXXXO##++oOOOOOOOOOOOOOOOXXXXX#+o........     ",
"       .........XXXX###++ooOOOOOOOOOOOOOOOXXXXXXX#+o......      ",
"       ..........X##+++ooOOOOOOOOOOOOOOOXXXXXXXX.#+o......      ",
"        ......####++oooXXXXXOOOOOOOOOXXXXXXXXXX..#+......       ",
"         ......+++ooXXXXXXXXXXXXXXXXXXXXXXXXXX...#......        ",
"         .......oo...XXXXXXXXXXXXXXXXXXXXXXX............        ",
"          ............XXXXXXXXXXXXXXXXXXXXX............         ",
"           ..............XXXXXXXXXXXXXXX..............          ",
"            ................XXXXXXXXX................           ",
"             .......................................            ",
"               ...................................              ",
"                .................................               ",
"                  .............................                 ",
"                    .........................                   ",
"                      .....................                     ",
"                         ...............                        ",
"                                                                ",
"                                                                "
};
