/* XPM */
static char *result[] = {
/* columns rows colors chars-per-pixel */
"64 64 8 1 ",
"  c black",
". c #010101",
"X c #140031",
"o c #2A2232",
"O c #2B005A",
"+ c #41344E",
"@ c #4F009B",
"# c #7200DB",
/* pixels */
"                                                                ",
"                                                                ",
"                                                                ",
"                         XXXXXXXXXXXXXXX                        ",
"                      XXXXXXXXXXXXXXXXXXXXX                     ",
"                    XXXXXXXXXXXXXXXXXXXXXXXXX                   ",
"                  XXXXXXXXXX+++++++++XXXXXXXXXX                 ",
"                XXXXXXXX+++++++++++++++++XXXXXXXX               ",
"               XXXXXXX++++++++++++++++++OOOXXXXXXX              ",
"             XXXXXXX+++++++++++++++++++O@@@@@XXXXXXX            ",
"            XXXXXX++++++++++ooooooooo+O@####+++XXXXXX           ",
"           XXXXXX++++++++ooooooooooooO@#++++++++XXXXXX          ",
"          XXXXX+++++++ooooooooooooooO@#oooo+++++++XXXXX         ",
"         XXXXX+++++++ooooooooooooooO@#oooooo+++++++XXXXX        ",
"         XXXX++++++oooooooooooooooO@#ooooooooo++++++XXXX        ",
"        XXXX++++++oooooooooo......O@#oooooooooo++++++XXXX       ",
"       XXXXX+++++oooooooo........O@#....oooooooo+++++XXXXX      ",
"       XXXX+++++ooooooo..........O@#......ooooooo+++++XXXX      ",
"      XXXX+++++ooooooo..........O@#........ooooooo+++++XXXX     ",
"      XXXX++++ooooooo...........O@#.........ooooooo++++XXXX     ",
"     XXXX@++++oooooo...........O@#...........oooooo+++++XXXX    ",
"     XXXX@#++oooooo............O@#............oooooo++++XXXX    ",
"    XXXXO@#+oooooo............O@#o.............oooooo++++XXXX   ",
"    XXXXO@#+ooooo...........ooO@#oooo...........ooooo++++XXXX   ",
"    XXX+O@#+ooooo.........oooO@#ooooooo.........ooooo+++++XXX   ",
"   XXXX++O@#oooo.........ooooO@#oooooooo.........ooooo++++XXXX  ",
"   XXXX+++O@#ooo........oooooO@#ooooooooo........ooooo++++XXXX  ",
"   XXXX++++O@#oo........oooooO@...ooooooo........ooooo++++XXXX  ",
"   XXX++++ooO@##.......ooooooO@.....oooooo........ooooo++++XXX  ",
"   XXX++++oooO@@##.....ooooo.O@....OOOOOOo........ooooo++++XXX  ",
"   XXX++++ooooOO@@##...ooooo..O...O@@@@@@OO.......ooooo++++XXX  ",
"   XXX++++ooooo.OO@@##ooooo...........###@@OO.....ooooo++++XXX  ",
"   XXX++++ooooo...OO@@##ooo...........ooo##@@OO...ooooo++++XXX  ",
"   XXX++++ooooo.....OO@@###...........ooooo##@@OO.ooooo++++XXX  ",
"   XXX++++ooooo.......OO@@@@@@O...O..ooooo...##@@Oooooo++++XXX  ",
"   XXX++++ooooo........oOOOOOO....@O.ooooo.....##@@Oooo++++XXX  ",
"   XXX++++ooooo........oooooo.....@Ooooooo.......##@Ooo++++XXX  ",
"   XXXX++++ooooo........ooooooo...@Oooooo........oo#@O++++XXXX  ",
"   XXXX++++ooooo........ooooooooo#@Oooooo........ooo#@O+++XXXX  ",
"   XXXX++++ooooo.........oooooooo#@Ooooo.........oooo#@O++XXXX  ",
"    XXX+++++ooooo.........ooooooo#@Oooo.........ooooo+#@O+XXX   ",
"    XXXX++++ooooo...........oooo#@Ooo...........ooooo+#@OXXXX   ",
"    XXXX++++oooooo.............o#@O............oooooo+#@OXXXX   ",
"     XXXX++++oooooo............#@O............oooooo++#@XXXX    ",
"     XXXX+++++oooooo...........#@O...........oooooo++++@XXXX    ",
"      XXXX++++ooooooo.........#@O...........ooooooo++++XXXX     ",
"      XXXX+++++ooooooo........#@O..........ooooooo+++++XXXX     ",
"       XXXX+++++ooooooo......#@O..........ooooooo+++++XXXX      ",
"       XXXXX+++++oooooooo....#@O........oooooooo+++++XXXXX      ",
"        XXXX++++++oooooooooo#@O......oooooooooo++++++XXXX       ",
"         XXXX++++++ooooooooo#@Oooooooooooooooo++++++XXXX        ",
"         XXXXX+++++++oooooo#@Ooooooooooooooo+++++++XXXXX        ",
"          XXXXX+++++++oooo#@Ooooooooooooooo+++++++XXXXX         ",
"           XXXXXX++++++++#@Ooooooooooooo++++++++XXXXXX          ",
"            XXXXXX+++####@O+ooooooooo++++++++++XXXXXX           ",
"             XXXXXXX@@@@@O+++++++++++++++++++XXXXXXX            ",
"               XXXXXXXOOO++++++++++++++++++XXXXXXX              ",
"                XXXXXXXX+++++++++++++++++XXXXXXXX               ",
"                  XXXXXXXXXX+++++++++XXXXXXXXXX                 ",
"                    XXXXXXXXXXXXXXXXXXXXXXXXX                   ",
"                      XXXXXXXXXXXXXXXXXXXXX                     ",
"                         XXXXXXXXXXXXXXX                        ",
"                                                                ",
"                                                                "
};
