/* XPM */
static char *_170_0e21f8b84f22162b0b2b6cb59625a03ee26c1f8aea2c655994942f5d8582342b[] = {
/* columns rows colors chars-per-pixel */
"128 128 76 1 ",
"  c black",
". c #0E1C2A",
"X c #0C2233",
"o c #0B273C",
"O c #0B283F",
"+ c #0A2B43",
"@ c #0B2F49",
"# c #0C324D",
"$ c #0B3552",
"% c #0B3856",
"& c #0D3A58",
"* c #0C4063",
"= c #0D4468",
"- c #144263",
"; c #0D4970",
": c #104D76",
"> c #1A4D71",
", c #13537D",
"< c #1B557C",
"1 c #494949",
"2 c #155681",
"3 c #175985",
"4 c #185986",
"5 c #175B88",
"6 c #1A5D8B",
"7 c #205F8B",
"8 c #1C608E",
"9 c #1D6495",
"0 c #1F699A",
"q c #21628E",
"w c #226491",
"e c #276995",
"r c #296B97",
"t c #226B9D",
"y c #2B6D99",
"u c #31739F",
"i c #226EA2",
"p c #2470A4",
"a c #2872A5",
"s c #2776AD",
"d c #2976AB",
"f c #2778AE",
"g c #2878AF",
"h c #3376A2",
"j c #3779A5",
"k c #397DA8",
"l c #2B7DB5",
"z c #2C7FB8",
"x c #3E81AC",
"c c #2D82BC",
"v c #3583B6",
"b c #3887BB",
"n c #4588B3",
"m c #498DB7",
"M c #458EBC",
"N c #4A91BD",
"B c #2F85C0",
"V c #3087C2",
"C c #318AC5",
"Z c #388BC3",
"A c #348FCD",
"S c #3590CD",
"D c #3C93CD",
"F c #4F97C4",
"G c #4196CE",
"H c #4997CA",
"J c #4799CE",
"K c #4B9BCE",
"L c #5498C2",
"P c #589DC6",
"I c #519ECE",
"U c #57A1CF",
"Y c #5AA2CF",
"T c #5BA4D0",
"R c #61A6CF",
"E c #61A7D0",
/* pixels */
"                                                                                                                                ",
"                                                                                                                                ",
"                                                                                                                                ",
"                                                         EEEERRRRRRRRRR                                                         ",
"                                                         EEERREERRRRRRR                                                         ",
"                                                         IYPYIYIYYYYYIY                                                         ",
"                                                      EERSAASSAAAAAASASRRR                                                      ",
"                                                      RERSAAASAAAAAAAASRRR                                                      ",
"                                                      TRRzzllzlllzlzCAAIIU                                                      ",
"                                                   AADYRR44444444444zAAAAGYRR                                                   ",
"                                                   AADYRR44444444444zAAAAGYRR                                                   ",
"                                                 AAYTFher444444444448w999aZDGRR                                                 ",
"                                                SAARRLr344444444444444444wBAARRE                                                ",
"                                                SAARRLy4444433444424444449BAARRE                                                ",
"                                                SAARRLr44442::::::;:244440BAARRE                                                ",
"                                                SAAERLr3444,=;;;;;;;244440BAARRE                                                ",
"                                                DDAEELe4443:;;;;;;;;,44449cCCEEE                                                ",
"                                              AAJIIyye644;:;;;;;;;;;;;;446909GGKEE                                              ",
"                                              AAKEE444444;;;;;;;;;;;;;;444444AAJER                                              ",
"                                              AAIRE444444;;;;;;;;;;;;;;444444AAJER                                              ",
"                                              AAKRR444444;;;;;;;;;;;;;;444444AAJRR                                              ",
"                                              AAIER444444;;;;;;;;;;;;;;444444AAJRR                                              ",
"                                             GJJMnn444443;;;;;6004;;;;;444444ggbKIY                                             ",
"                                          AAAJETk76444444;;;;;sCCi;;;;;44444446aSDYRRR                                          ",
"                                          AAAJRRj44444442;;;;;sAAp;;;;;23334444iAAYRER                                          ",
"                                          AAAJRRj444442,2;;:99zAAg99899,,244444pAAURER                                          ",
"                                          AAAJREj44442:=;;;6AAAAAAAAAAA;;:24444pAAUEER                                          ",
"                                          AAAHRRj44442:;;;;6AAAAAAAAAAA;;;24444pAAURER                                          ",
"                                          SAAJRRj44442;;;t9sSSdw88qqcAA;;:24444pAAUEER                                          ",
"                                          SAAJRRj44442:;;AAASS2+++++aAA;;;24444pAAUEER                                          ",
"                                          SAAJEEj44442;;;ASSSA<+++++aAA;;;34444iAAUEER                                          ",
"                                          SAAJEEj44449cCCAAa##++++++=::CAl93444pAAUEER                                          ",
"                                          AAAJYEj44449BAAAAa+o++++++*;;AAc94444iAAYREE                                          ",
"                                          DDDHPPh44449BAABVi++++++++*;;AAc84444iVBIYYY                                          ",
"                                          UUYNuy944449VAA66:++++++++*;;AAc94444699bGJIRR                                        ",
"                                          ERRm44444449BAA;;*++++++++*;;AAc94444444zSSKRR                                        ",
"                                          ERRm44444559BAA;;*++++++++*;;AAz94544444lSSKRR                                        ",
"                                        AAIRRm44444;;5cAA;;*++++++++*;;,,,;:;44444lASKRR                                        ",
"                                        AAIRRm44343;;3cAA;;*++++++++*;;;;;;;;44444lAAKRR                                        ",
"                                        AAIRRm44353228lcB;;*++++OO++*;;;;;;;;44444lADKRR                                        ",
"                                        AAIRRm44444AAc3;;;;*++X..X++*;;;;;;;=54444lSSKEE                                        ",
"                                        AAIERm44444AAc3;;;;*++X..X++*;;;;;;;;54444lASJRE                                        ",
"                                        ASIERm44444AAc5;;$$$++X..X++$%%;;;;;;44444lADKRR                                        ",
"                                        AAIERm44444AAc3;;+++++X..X+++++;;;;;;44444lSAKRR                                        ",
"                                        AAIRRm44444AAz2;;+++++X..X+++++==;;;;44444lAAKRR                                        ",
"                                        AAIRRm44454zzs2;;+++oo...Xoo+++;;;;;;44444lASKRR                                        ",
"                                        AAIRRm44333;;;;;;++o........O+@;;;;;;44444lADKRR                                        ",
"                                        AAIRRm44533;;;;;;++o........o++;;;;;;44444lAAKRR                                        ",
"                                        AAIRRm44tlg;;;;;;++o........o++;;2iip54444lAAKRR                                        ",
"                                        AAIERm44sAA;;;;=;++o........O++=;6BAA54444lADKRR                                        ",
"                                        AAIRRm44sAA;;;;;;++o........O++;;6BAA44444lAAKRR                                        ",
"                                        AAIRRm44gAA;;;;;;+++........O++;;;;;;AAf44lAAKRR                                        ",
"                                        AAIRRm44sAA;;;;;;++o........o++;;;;;;AAf44lADKRR                                        ",
"                                        AAIERm44pBB;;;;;;++o........o++;;;;;;AAf44lAAKRR                                        ",
"                                        AAIRRm44990;;;;;;++o........o++;;;;;;AAf44zAAKRR                                        ",
"                                        AAIRRm44455;;=;;=++o........o++=;;;;;AAf44zASKRR                                        ",
"                                        AAIERm44444;;;;;;++o........o++;;;;;;AAf44lASKRR                                        ",
"                                        AAIRRm44444AAc3;;++o........o++;;;;;;AAf44lASKRR                                        ",
"                                        AAIRRm44444AAc3;;++o........o++;;;;=;AAf44lASKRR                                        ",
"                                        AAIRRm44444AAc3;;++o........o++;;;;;;AAf44zADJRR                                        ",
"                                        AAIRRm44444AAz3;;++o........o++;;;;;;AAg44lADKRR                                        ",
"                                        AAIRRm44444AAc3;;++o........o++;;;;;;AAg44lASJRR                                        ",
"                                        AAIRRm44444AAc5;;+++oo...XXo+++;;;;;;AAg44lASJRR                                        ",
"                                        AAIERm44444AAc5;;+++++X..X+++++;;;;;;AAg43lADKRR                                        ",
"                                        AAIRRm44445AAc5;;+++++X..X+++++;;;;;;AAs44lASJRR                                        ",
"                                        AAIRRm44444AACi09$$$++X..X++@#$;;;;;;AAs44lSDKRR                                        ",
"                                        AAIRRm44443AAAAAS;;&++X..X++*;;;;;;;;AAf44lASKER                                        ",
"                                        AAIRRm44445AAAAAS;;*++X..X++*;;;;;;;;AAg44lASJER                                        ",
"                                        AAIERm44444660BASgg9+++o+>aa2;;;;;;;;AAs44lASKRR                                        ",
"                                        AAIRRm44443;;3cASASp+++++6AA6;;;;;;;;AAg44lSSKRR                                        ",
"                                        AAIRRm44443;;3cAAASp++@++7AA4;;;;;;;;AAf44lASKRR                                        ",
"                                          ERRm44444452;;;ASSASSSAw++*;;;;6BAA44443lADKRR                                        ",
"                                          ETRm44444442;;;AAAAASSCq++*;;;;6BAA44444zAAHRR                                        ",
"                                          TTYMrr844442:;;ccBAAcll4++*;;;;6BAA44699bDGIER                                        ",
"                                          GDGHLLh44442;;;330AA9--%++*;;;;6BAA44iccHYYY                                          ",
"                                          SAAJRRj44442:;;;;6AA<+++++*;;;;6BAA44iAAYEER                                          ",
"                                          SAAJRRj44442;;;;;5SS<+++++*;;;;8BAA44pAAUEER                                          ",
"                                          SAAJRRj44442:;;;;*++++++++*;;AAz94444iAAUEER                                          ",
"                                          AAAJERj44442;;;;;*++++@@++*;;AAc94444pAAYRER                                          ",
"                                          AAAJEEj44444900;;=%%+++@$$=;;ppi64444pAAURER                                          ",
"                                          SAAJERj44449BAA;;;;;#++$;;;;;;;:24444iSAUEEE                                          ",
"                                          SAAJRRj44449VSA;;;;;$+@$;;;;=;;;24444pAAUEEE                                          ",
"                                          SAAJRRj44446tppsgt;;$+@>gg4;;,,244444pAAYEET                                          ",
"                                          SAAJRRj44444443AAg;;$+@7AA6;;44444444iAAYEEE                                          ",
"                                          AAAJEYj66444444AAg;:&#$8AA6=;34444464pDAYEEE                                          ",
"                                           AAJKInnx444444ipiiiw670ii2;;344444ppvJKYEE                                           ",
"                                              AAKRR444444;;6AAAAAi;;;;;444444AAJRR                                              ",
"                                              AAIRR444444;;6AAAAAp;;;;;444444AAJRR                                              ",
"                                              AAIRR444445;;;22222:;;;;;444444AAJRR                                              ",
"                                              AAKER444444;;;;;;;;;;;;;;444444AAJRR                                              ",
"                                              AAJYYwqq644;;;;;;;;;;;;;;446686DDJRR                                              ",
"                                                DSDRELr4452,;;;;;;;;,44449cCCEEE                                                ",
"                                                SAAERLr44442;;;;;;;;254449BAAEEE                                                ",
"                                                SAAYRLr44442:;;::;;;234440BAAETE                                                ",
"                                                AAARRLr444434222442444444wBAAEEE                                                ",
"                                                AAARRLy4444444444444444449BAAEEE                                                ",
"                                                DAATTLy874444444444466666tVDDRRE                                                ",
"                                                   AAGYER44444444444zAAAAGYRY                                                   ",
"                                                   AADYER44444444444zAAAAGYER                                                   ",
"                                                     DJJJgsgggdssfagCASKKIT                                                     ",
"                                                      AAAAAAAAAAAAAAAAARRR                                                      ",
"                                                      AAAAAAAAAAAAAAAAARRR                                                      ",
"                                                         UUIUUUUIIUUUUY                                                         ",
"                                                         RRRRRRREEEERRR                                                         ",
"                                                         EERRRRRRRRRRRR                                                         ",
"                                                         EEEEEEEEEEEEEE                                                         ",
"                                                                                                                                ",
"                                                                                                                                ",
"                                                                                                                                ",
"                                                                                                                                ",
"                                                                                                                                ",
"                                                                                                                                ",
"                                                                                                                                ",
"                                                                                                                                ",
"                                                                                                                                ",
"                                                                                                                                ",
"                                                                                                                                ",
"                                                                                                                                ",
"                                                                                                                                ",
"                                                          11111111111                                                           ",
"                                                          111111111111                                                          ",
"                                                          111111111111                                                          ",
"                                                  1111111111111111111111111111                                                  ",
"                                                  1111111111111111111111111111                                                  ",
"                                                  1111111111111111111111111111                                                  ",
"                                                          111111111111                                                          ",
"                                                          111111111111                                                          ",
"                                                          111111111111                                                          "
};
