/* XPM */
static char *_288_22282f319b7219e30ac737299e4154ed27eedb7f0e8c983c009195c2cd1d9199[] = {
/* columns rows colors chars-per-pixel */
"64 64 148 2 ",
"   c #000000",
".  c #141213",
"X  c #071421",
"o  c #061826",
"O  c #0A1A26",
"+  c #061D2C",
"@  c #091B2A",
"#  c #041E33",
"$  c #091E31",
"%  c #0A202E",
"&  c #072133",
"*  c #092234",
"=  c #07263C",
"-  c #0A253C",
";  c #07283B",
":  c #0A293E",
">  c #242424",
",  c gray16",
"<  c #062A43",
"1  c #0A2B44",
"2  c #0A2E49",
"3  c #102C42",
"4  c #0B314C",
"5  c #12344D",
"6  c #073452",
"7  c #0C3351",
"8  c #0E3A55",
"9  c #053A5A",
"0  c #0B3C5D",
"q  c #103552",
"w  c #153A54",
"e  c #113A58",
"r  c #0B3E63",
"t  c #09405F",
"y  c #0B4165",
"u  c #07456E",
"i  c #0B466C",
"p  c #0C496E",
"a  c #124467",
"s  c #10476E",
"d  c #0C4771",
"f  c #0D4A72",
"g  c #0F4C78",
"h  c #104C75",
"j  c #104D79",
"k  c #0F5078",
"l  c #125077",
"z  c #195176",
"x  c #13537D",
"c  c #1A557D",
"v  c #155582",
"b  c #195684",
"n  c #165A85",
"m  c #195985",
"M  c #1B5789",
"N  c #175B8A",
"B  c #1A5C8B",
"V  c #195F90",
"C  c #205B85",
"Z  c #215F8E",
"A  c #17608D",
"S  c #1B618D",
"D  c #1C6393",
"F  c #1D6699",
"G  c #1D699A",
"H  c #20608E",
"J  c #226493",
"K  c #276994",
"L  c #286995",
"P  c #216798",
"I  c #226C9E",
"U  c #236EA4",
"Y  c #2371A6",
"T  c #2872A3",
"R  c #2575AA",
"E  c #2876AC",
"W  c #3074A1",
"Q  c #357AA4",
"!  c #397CA6",
"~  c #367DA9",
"^  c #397CA9",
"/  c #2877B0",
"(  c #267AB2",
")  c #297CB4",
"_  c #2C7EBA",
"`  c #2B7EC0",
"'  c #2B80B7",
"]  c #2780BA",
"[  c #2C81BC",
"{  c #3989BE",
"}  c #4184B1",
"|  c #448AB6",
" . c #4A8EB3",
".. c #4E91BC",
"X. c #5095BE",
"o. c #2B85C2",
"O. c #2E89C5",
"+. c #2689CB",
"@. c #2B8BCA",
"#. c #3186C1",
"$. c #328AC4",
"%. c #3A8BC3",
"&. c #328DCA",
"*. c #3593CE",
"=. c #3B92CD",
"-. c #3693D2",
";. c #3A94D3",
":. c #3E99D2",
">. c #3497D8",
",. c #3799D9",
"<. c #4295C7",
"1. c #4296CC",
"2. c #4B97C8",
"3. c #449ACE",
"4. c #4C9ACC",
"5. c #5497C3",
"6. c #569BC3",
"7. c #539ECC",
"8. c #4196D1",
"9. c #449AD2",
"0. c #4C9CD2",
"q. c #539ED3",
"w. c #53A0CC",
"e. c #5BA3CD",
"r. c #4FA1D3",
"t. c #54A1D4",
"y. c #5BA5D3",
"u. c #55A2D8",
"i. c #60A4CC",
"p. c #65A8CF",
"a. c #62A7D1",
"s. c #63A9D2",
"d. c #65AED9",
"f. c #72B2D6",
"g. c #7CB4D4",
"h. c #7FB6D9",
"j. c #82B5D6",
"k. c #85B9D6",
"l. c #8ABED6",
"z. c #84BBDC",
"x. c #8EBDDA",
"c. c #92BFDC",
"v. c #95C1DA",
"b. c #9FC4DE",
"n. c #A0C3D6",
"m. c #A1C5DB",
"M. c #95C1E0",
"N. c #A0CAE3",
/* pixels */
"                                                                                                                                ",
"                                                                                                                                ",
"                                                                                                                                ",
"                                                          i.s.p.p.s.p.l.                                                        ",
"                                                      n.f.:.9.9.:.9.:.t.M.                                                      ",
"                                                      f.2.` [ [ [ [ o.;.t.                                                      ",
"                                                    @.y...v b n b x / -.&.7.M.                                                  ",
"                                                M.q.y.! J m b N B m B F F $.t.k.                                                ",
"                                        .       g.*.s.K v n x x h x v v m [ 9.s.                                                ",
"                                                z.&.i.K v n p f h p x n m ] =.p.                                                ",
"                                              q.0.5.N N v d y I &.d p f b m I =.y.                                              ",
"                                              ;.0.6.n n x d I T G h p g m x I -.w.                                              ",
"                                              9.4. .b N x d o.P 0 p p h m n G $.4.                                              ",
"                                          v.@.s.^ v n b x p f 0 1 p i f N m m n $.0.g.                                          ",
"                                          M.+.y.! v v / R i f 6 4 _ o.R s v m N $.9.j.                                          ",
"                                          M.O.y.! n I &._ i r a z T / R S n m B O.0.h.                                          ",
"                                          x.@.s.Q D >.-.) u = D O.- 6 n ,.J b N O.0.h.                                          ",
"                                        . M.@.d.^ V *.F j i 2 5 t 1 0 l c b b N O.0.j.                                          ",
"                                        > N.=.| L F -.n i s 2 - : : y d i n m m Y $.s.                                          ",
"                                          m.7.m x G -.n u d 2 1 1 1 t p p x m m c R :.t.                                        ",
"                                        y.4.e.Z x D -.N i d < 1 : < 0 i d u j m v R :.e.                                        ",
"                                        0.0.i.B I [ -.N i p 4 - & * m ( ( k d N v R 9.e.                                        ",
"                                        0.0.i.M / >.-.n y s 2 # @ e I $.O.A x b n R :.e.                                        ",
"                                        t.4.e.m / -.-.N 0 - 1 @ 3 -.b 1 f { ' n v R 9.t.                                        ",
"                                        t.3.i.Z B Y *.n 0 - * @ % w 4 2 p O.[ v v E :.e.                                        ",
"                                        4.3.i.H x F -.m 0 1 $ O @ X * 7 f U R U m R :.e.                                        ",
"                                        q.3.i.B v F -.B t : % @ @ @ * 4 f y S -.B R :.y.                                        ",
"                                        t.3.i.Z v n k _ I & @ @ + @ * 4 f p S *.S R :.e.                                        ",
"                                        q.3.i.H b x i [ &.m * O @ O ; 4 p y D *.D R :.w.                                        ",
"                                        0.3.i.H n v p ( $.&.1 O O @ * 4 f i A -.N R :.e.                                        ",
"                                        t.3.i.H m v p f a 1 @ @ % o * 6 g u D *.B R :.e.                                        ",
"                                        t.9.e.H b x d f y ; @ @ O X & 7 p i A *.B R :.e.                                        ",
"                                        4.3.i.H m x p d r : * @ * 5 1 4 f i S *.V E :.e.                                        ",
"                                        0.4.i.H m v d h y - 1 & : *.c 1 f i D -.N R 8.y.                                        ",
"                                        u.4.i.S b v p d p y 4 @ 3 ,.F 9 p p x F b E :.e.                                        ",
"                                        0.3.i.H m x p p p h 1 * : K I B p i x Y b ( :.e.                                        ",
"                                        y.0.i.H b v p p p d 4 1 1 # I $.p u D *.N / :.7.                                        ",
"                                            7.m v m m g p p 1 1 1 ; I $.i x m B c Y -.7.                                        ",
"                                            <.} P n b g f p 1 1 : & I $.p v m m U %.d.N.                                        ",
"                                            +.d.^ v n g d d 2 < 1 8 I ) d v b N O.0.z.                                          ",
"                                            @.a.~ v n f p d 2 ; 8 &.F i p v b N O.3.g.    .                                     ",
"                                        .   @.y.^ k b / T i r < 7 ,.P i p v m B $.4.h.                                          ",
"                                            @.d.! v m / R d S c z / N p j m b m O.0.h.                                          ",
"                                            +.s.^ v m n x d $.,.&.p i g m m n m $.3.h.                                          ",
"                                              9.4.| n b v f &.( x f p g m n F $.4.                                              ",
"                                              :.0.6.b m x p Y B y p d g b v G ;.7.                                              ",
"                                              0.t.5.S m v p p i d p f g m B Y =.e.                                              ",
"                                                h.=.i.K v v d p p p x n m [ 1.p.                                                ",
"                                                z.&.s.L v n x j x x v m n [ 9.a.                                                ",
"                                                v.0.y.W H m B B n B B S S O.r.h.                                                ",
"                                                    +.y...x b b v x / -.&.4.M.                                                  ",
"                                                      y.O.' ] ] _ _ O.*.r.                                                      ",
"                                                        d.9.9.9.3.9.3.w.v.                                                      ",
"                                                          y.i.a.p.e.e.z.                                                        ",
"                                                                                                                                ",
"                                                                                                                                ",
"                                                                                                                                ",
"                                                                                                                                ",
"                                                                                                                                ",
"                                                                                                                                ",
"                                                        > > > > > > ,                                                           ",
"                                                > > > > > > > > > > > > , , > , >                                               ",
"                                                > > > > > > > > > > > > > > > > >                                               ",
"                                                        > > > > > > > > ,                                                       "
};
