/* XPM */
static char *result[] = {
/* columns rows colors chars-per-pixel */
"64 64 9 1 ",
"  c black",
". c #010101",
"X c #050013",
"o c #2A2232",
"O c #2B005A",
"+ c #41344E",
"@ c #4F009B",
"# c #694788",
"$ c #7200DB",
/* pixels */
"                                                                ",
"                                                                ",
"                                                                ",
"                         XXXXXXXXXXXXXXX                        ",
"                      XXXXXXXXXXXXXXXXXXXXX                     ",
"                    XXXXXXXXXXXXXXXXXXXXXXXXX                   ",
"                  XXXXXXXXXXXXXXXXXXXXXXXXXXXXX                 ",
"                XXXXXXXXXXoooooooooooooXXXXXXXXXX               ",
"               XXXXXXXXoooooooooooooooooooXXXXXXXX              ",
"             XXXXXXXXoooooooooooooooooooooooXXXXXXXX            ",
"            XXXXXXXooooooooo+++++++++oooooooooXXXXXXX           ",
"           XXXXXX@ooooooo+++++++++++++++ooooooooXXXXXX          ",
"          XXXXXXO@$ooo+++++++++++++++++++++ooooooXXXXXX         ",
"         XXXXXXoO@$oo+++++++++++++++++++++++ooooooXXXXXX        ",
"         XXXXXooO@$+++++++++++++++++++++++++++oooooXXXXX        ",
"        XXXXXoooO@$+++++++++#########++++++++++oooooXXXXX       ",
"       XXXXXooooO@$++++++###############++++++++OOOOOXXXXX      ",
"       XXXXooooo+O@$+++###################+++OOO@@@@@@XXXX      ",
"      XXXXXoooo++O@$++###################OOOO@@@$$$$$oXXXXX     ",
"      XXXXoooo+++O@$+################OOOO@@@@$$$+++ooooXXXX     ",
"     XXXXXoooo++++O@$###############O@@@@$$$$++++++ooooXXXXX    ",
"     XXXXoooo+++++O@$##############O@$$$$#####++++++ooooXXXX    ",
"    XXXXXooo++++++O@$##########+++O@$##########++++++oooXXXXX   ",
"    XXXXoooo+++++#O@$#######+++++O@$+###########+++++ooooXXXX   ",
"    XXXXoooo+++++##O@$####++++++O@$++++#########+++++ooooXXXX   ",
"   XXXXXooo+++++###O@$###+++++++O@$+++++#########+++++oooXXXXX  ",
"   XXXXoooo+++++###O@$##++++++++O@$++++++########+++++ooooXXXX  ",
"   XXXXoooo+++++###O@$##+++++++.O@+++++++########+++++ooooXXXX  ",
"   XXXXooo+++++#####O@$++++++...O@..++++++########+++++oooXXXX  ",
"   XXXXooo+++++######O@$++++.....O...+++++########+++++oooXXXX  ",
"   XXXXooo+++++#######O@$$$+.........+++++########+++++oooXXXX  ",
"   XXXXooo+++++#######+O@@@@@O........+++++#######+++++oooXXXX  ",
"   XXXXooo+++++#######++OOOOO.......OOOOO++#######+++++oooXXXX  ",
"   XXXXooo+++++#######+++++........O@@@@@O+#######+++++oooXXXX  ",
"   XXXXooo+++++########+++++.........+$$$@O#######+++++oooXXXX  ",
"   XXXXooo+++++########+++++...O.....++++$@O######+++++oooXXXX  ",
"   XXXXooo+++++########++++++..@O...++++++$@O#####+++++oooXXXX  ",
"   XXXXoooo+++++########+++++++@O.+++++++##$@O###+++++ooooXXXX  ",
"   XXXXoooo+++++########++++++$@O++++++++##$@O###+++++ooooXXXX  ",
"   XXXXXooo+++++#########+++++$@O+++++++###$@O###+++++oooXXXXX  ",
"    XXXXoooo+++++#########++++$@O++++++####$@O##+++++ooooXXXX   ",
"    XXXXoooo+++++###########+$@O+++++#######$@O#+++++ooooXXXX   ",
"    XXXXXooo++++++##########$@O+++##########$@O++++++oooXXXXX   ",
"     XXXXoooo++++++#####$$$$@O##############$@O+++++ooooXXXX    ",
"     XXXXXoooo++++++$$$$@@@@O###############$@O++++ooooXXXXX    ",
"      XXXXoooo+++$$$@@@@OOOO################+$@O+++ooooXXXX     ",
"      XXXXXo$$$$$@@@OOOO###################++$@O++ooooXXXXX     ",
"       XXXX@@@@@@OOO+++###################+++$@O+oooooXXXX      ",
"       XXXXXOOOOO++++++++###############++++++$@OooooXXXXX      ",
"        XXXXXooooo++++++++++#########+++++++++$@OoooXXXXX       ",
"         XXXXXooooo+++++++++++++++++++++++++++$@OooXXXXX        ",
"         XXXXXXoooooo+++++++++++++++++++++++oo$@OoXXXXXX        ",
"          XXXXXXoooooo+++++++++++++++++++++ooo$@OXXXXXX         ",
"           XXXXXXoooooooo+++++++++++++++ooooooo@XXXXXX          ",
"            XXXXXXXooooooooo+++++++++oooooooooXXXXXXX           ",
"             XXXXXXXXoooooooooooooooooooooooXXXXXXXX            ",
"               XXXXXXXXoooooooooooooooooooXXXXXXXX              ",
"                XXXXXXXXXXoooooooooooooXXXXXXXXXX               ",
"                  XXXXXXXXXXXXXXXXXXXXXXXXXXXXX                 ",
"                    XXXXXXXXXXXXXXXXXXXXXXXXX                   ",
"                      XXXXXXXXXXXXXXXXXXXXX                     ",
"                         XXXXXXXXXXXXXXX                        ",
"                                                                ",
"                                                                "
};
