/* XPM */
static char *result[] = {
/* columns rows colors chars-per-pixel */
"32 32 14 1 ",
"  c black",
". c #473502",
"X c #513F06",
"o c #604800",
"O c #6C5000",
"+ c #785800",
"@ c #A25F15",
"# c #806000",
"$ c #957001",
"% c #A9671A",
"& c #BC7C14",
"* c #B47120",
"= c #CC8818",
"- c #DC941C",
/* pixels */
"           ooOOOOOOo.           ",
"           ooOOOOOOo.           ",
"        oOOOOOO++++OOOO.        ",
"       oOOOo oo+@OOXOOOOo       ",
"       oOOOo oo+@OOXOOOOo       ",
"     ooOOoo  oo+#OO  OO+#OO     ",
"     OOOo  oOOOOOOOOX  O@@@     ",
"     OOOo  oOOOOOOOOX  O@@@     ",
"    oOOO OOOOOO+#++O+ooo+==*    ",
"    oOOO OOOOOO+#++O+ooo+==*    ",
"    OOOOoOOO.oo+#OOo#%%#O**-    ",
"    OOOOOOOo oo+#oo +===+@@=*   ",
"    OOOOOOOo oo+#oo +===+@@=*   ",
"   XOOOOOOOX oo+#oo o%%=@++%%   ",
"   XOOOOOOOOOOO++OOoO##$#++#@   ",
"   XOOOOOOOOOOO++OOoO##$#++#@   ",
"   X#@@##@@#XOOO+OOoOOOOOOO++   ",
"   X#@@##@@#XOOO+OOoOOOOOOO++   ",
"    $==&$--* oo+#oo XOOO OOOO   ",
"    +---#%%& oo+#oo OOOOoOOOo   ",
"    +---#%%& oo+#oo OOOOoOOOo   ",
"    O&&= +++Ooo+#oooOOOXOOOO.   ",
"    X++@@ooOOOO++++OOoo OOOO    ",
"    X++@@ooOOOO++++OOoo OOOO    ",
"     OO+#OO oOOOOOOo   OOOOX    ",
"     OO+#OO oOOOOOOo   OOOOX    ",
"       OOOOX oo++XX  ooOOoo     ",
"        OOOOoOO++oo OOOOo       ",
"        OOOOoOO++oo OOOOo       ",
"         ooOOOO++OOOOoo.        ",
"            Xoooooo.            ",
"            Xoooooo.            "
};
