/* XPM */
static char *result[] = {
/* columns rows colors chars-per-pixel */
"32 32 11 1 ",
"  c black",
". c #473502",
"X c #513F06",
"o c #604800",
"O c #6C5000",
"+ c #785800",
"@ c #806000",
"# c #957001",
"$ c #B58803",
"% c #EA9305",
"& c #D4A004",
/* pixels */
"               oo               ",
"               oo               ",
"             ..OO..             ",
"             ..OO..             ",
"             ..OO..             ",
"             ..OO..             ",
"             XXOO..             ",
"             XXOO..             ",
"             oo@+XX             ",
"             oo@+XX             ",
"             OO##oo             ",
"             @@$$++             ",
"             @@$$++             ",
"             ##&&##             ",
"             ##%%##             ",
"             ##%%##             ",
"             @@&&##             ",
"             @@&&##             ",
"             ++$$@@             ",
"             oo##OO             ",
"             oo##OO             ",
"             XX+@oo             ",
"             ..O+XX             ",
"             ..O+XX             ",
"             ..OO..             ",
"             ..OO..             ",
"             ..OO..             ",
"             ..OO..             ",
"             ..OO..             ",
"             ..OO..             ",
"               oo               ",
"               oo               "
};
