/* XPM */
static char *result[] = {
/* columns rows colors chars-per-pixel */
"32 32 8 1 ",
"  c black",
". c #473502",
"X c #513F06",
"o c #604800",
"O c #6C5000",
"+ c #785800",
"@ c #806000",
"# c #957001",
/* pixels */
"            oOOOOooX            ",
"            oOOOOooX            ",
"           OOOO+OOOOo           ",
"         XXOO++#@OOOO..         ",
"         XXOO++#@OOOO..         ",
"         OOOO++@@++OOOO         ",
"         OOOO++OOOO+OOO         ",
"         OOOO++OOOO+OOO         ",
"        XOOOO++@+OO++++o        ",
"        XOOOO++@+OO++++o        ",
"        o++OO++#@OO++++O        ",
"        O++OO++#@+++@@@@        ",
"        O++OO++#@+++@@@@        ",
"        O++++++##@@@@@@@        ",
"        O+++++++++++@@@@        ",
"        O+++++++++++@@@@        ",
"        +@@@@++@++++@@@@        ",
"        +@@@@++@++++@@@@        ",
"        O@@+@++##+++@@@@        ",
"        o@@++++#@+++++++        ",
"        o@@++++#@+++++++        ",
"        X+++O++#@OO++OOO        ",
"         ++++++@+OO+OOOo        ",
"         ++++++@+OO+OOOo        ",
"         ++O+@@+OOO+OOOX        ",
"         ++O+@@+OOO+OOOX        ",
"         oo+O++@@@@+OOO         ",
"           +O@@##@@OOXX         ",
"           +O@@##@@OOXX         ",
"            @@@@@OOOo           ",
"             OO+oXX.            ",
"             OO+oXX.            "
};
