/* XPM */
static char *result[] = {
/* columns rows colors chars-per-pixel */
"32 32 6 1 ",
"  c black",
". c #785800",
"X c #806000",
"o c #957001",
"O c #B58803",
"+ c #D4A004",
/* pixels */
"         XXOO++++++OOXX         ",
"         XXOO++++++OOXX         ",
"       X++++OOO++OOO++++X       ",
"    XOO+O      ++      O+OOX    ",
"    XOO+O      ++      O+OOX    ",
"   X+++X       ++       X+++X   ",
" ..++XX  ..O++++++++O..  XX++.. ",
" ..++XX  ..O++++++++O..  XX++.. ",
" OO+X   o++O.  +O  .O++o   X+OO ",
" OO+X   o++O.  +O  .O++o   X+OO ",
"X++o   .+..    +O    ..+.   o++X",
"O++    +o      +O      o+    ++O",
"O++    +o      +O      o+    ++O",
"+OO  ..+X      +O      X+..  OO+",
"+++OO+++OOOOOOO++OOOOOOO+++OO+++",
"+++OO+++OOOOOOO++OOOOOOO+++OO+++",
"+OOOO+++OOOOOOO++OOOOOOO+++OOOO+",
"+OOOO+++OOOOOOO++OOOOOOO+++OOOO+",
"OOO  ..+.      +O      .+..  OOO",
"O++    +o      +O      o+    ++O",
"O++    +o      +O      o+    ++O",
".++o   .+oo    +O    oo+.   o++.",
" OO+X   .++OX  +O  XO++.   X+OO ",
" OO+X   .++OX  +O  XO++.   X+OO ",
"   OOXX  ..oO++++++Oo..  XXOO   ",
"   OOXX  ..oO++++++Oo..  XXOO   ",
"    O++o       +O       o++O    ",
"     OO+OXXX   +O   XXXO+OO     ",
"     OO+OXXX   +O   XXXO+OO     ",
"       .O+++OOO++OOO+++O.       ",
"           .oOOOOOOo.           ",
"           .oOOOOOOo.           "
};
