/* XPM */
static char *result[] = {
/* columns rows colors chars-per-pixel */
"32 32 16 1 ",
"  c black",
". c #473502",
"X c #513F06",
"o c #604800",
"O c #6C5000",
"+ c #785800",
"@ c #8D4B09",
"# c #A25F15",
"$ c #806000",
"% c #957001",
"& c #A9671A",
"* c #BC7C14",
"= c #B47120",
"- c #CC8818",
"; c #DC941C",
": c #F4AC2F",
/* pixels */
"           oO++++++Oo           ",
"           oO++++++Oo           ",
"       .O++++OO$+OOo++++X       ",
"     OO+$OO    %+    ..O+OO     ",
"     OO+$OO    %+    ..O+OO     ",
"    $$$+       $+       o+++    ",
"   =$++    o++++++++o    oo+O   ",
"   =$++    o++++++++o    oo+O   ",
" --=$   X+++o  $+   O++X   O+oo ",
" --=$   X+++o  $+   O++X   O+oo ",
" ::$o   &++    $+    oo+X  X+++ ",
"===$   :%      $+      O+   O++ ",
"===$   :%      $+      O+   O++ ",
"=%%+   ;+      $+      o+   O++o",
"$$$+O$$%+OOOOOO++++OOOOO+++++++o",
"$$$+O$$%+OOOOOO++++OOOOO+++++++o",
"+$$$+++++OOOoOO++OOoooo&$OOo*$$o",
"+$$$+++++OOOoOO++OOoooo&$OOo*$$o",
"o$$+   ++      $+      :@   :$$X",
"X++$   o+      $+    &&*O   ;++ ",
"X++$   o+      $+    &&*O   ;++ ",
" OO$o   O++    $+   o$$+   :#OO ",
" XX++    OO+o  $+  O+OO  ##*+   ",
" XX++    OO+o  $+  O+OO  ##*+   ",
"   o$++     oOO++++OX   o@@+o   ",
"   o$++     oOO++++OX   o@@+o   ",
"    o+++       $+      o+++o    ",
"     oo++oo    $+   XOO++XX     ",
"     oo++oo    $+   XOO++XX     ",
"        o++++OO++++++++o        ",
"            oooOOooo            ",
"            oooOOooo            "
};
