/* XPM */
static char *result[] = {
/* columns rows colors chars-per-pixel */
"32 32 16 1 ",
"  c black",
". c #473502",
"X c #513F06",
"o c #604800",
"O c #6C5000",
"+ c #785800",
"@ c #8D4B09",
"# c #A25F15",
"$ c #806000",
"% c #957001",
"& c #A9671A",
"* c #BC7C14",
"= c #B47120",
"- c #CC8818",
"; c #DC941C",
": c #F4AC2F",
/* pixels */
"           oO++++++Oo           ",
"           oO++++++Oo           ",
"       X++++oOO+$OO++++O.       ",
"     OO+O..    +%    OO$+OO     ",
"     OO+O..    +%    OO$+OO     ",
"    +++o       +$       +$$$    ",
"   O+oo    o++++++++o    ++$=   ",
"   O+oo    o++++++++o    ++$=   ",
" oo+O   X++O   +$  o+++X   $=-- ",
" oo+O   X++O   +$  o+++X   $=-- ",
" +++X  X+oo    +$    ++&   o$:: ",
" ++O   +O      +$      %:   $===",
" ++O   +O      +$      %:   $===",
"o++O   +o      +$      +;   +%%=",
"o+++++++OOOOO++++OOOOOO+%$$O+$$$",
"o+++++++OOOOO++++OOOOOO+%$$O+$$$",
"o$$*oOO$&ooooOO++OOoOOO+++++$$$+",
"o$$*oOO$&ooooOO++OOoOOO+++++$$$+",
"X$$:   @:      +$      ++   +$$o",
" ++;   O*&&    +$      +o   $++X",
" ++;   O*&&    +$      +o   $++X",
" OO#:   +$$o   +$    ++O   o$OO ",
"   +*##  OO+O  +$  o+OO    ++XX ",
"   +*##  OO+O  +$  o+OO    ++XX ",
"   o+@@o   XO++++OOo     ++$o   ",
"   o+@@o   XO++++OOo     ++$o   ",
"    o+++o      +$       +++o    ",
"     XX++OOX   +$    oo++oo     ",
"     XX++OOX   +$    oo++oo     ",
"        o++++++++OO++++o        ",
"            oooOOooo            ",
"            oooOOooo            "
};
