/* XPM */
static char *result[] = {
/* columns rows colors chars-per-pixel */
"32 32 14 1 ",
"  c black",
". c #473502",
"X c #513F06",
"o c #604800",
"O c #6C5000",
"+ c #785800",
"@ c #A25F15",
"# c #806000",
"$ c #957001",
"% c #A9671A",
"& c #BC7C14",
"* c #B47120",
"= c #CC8818",
"- c #DC941C",
/* pixels */
"           .oOOOOOOoo           ",
"           .oOOOOOOoo           ",
"        .OOOO++++OOOOOOo        ",
"       oOOOOXOO@+oo oOOOo       ",
"       oOOOOXOO@+oo oOOOo       ",
"     OO#+OO  OO#+oo  ooOOoo     ",
"     @@@O  XOOOOOOOOo  oOOO     ",
"     @@@O  XOOOOOOOOo  oOOO     ",
"    *==+ooo+O++#+OOOOOO OOOo    ",
"    *==+ooo+O++#+OOOOOO OOOo    ",
"    -**O#%%#oOO#+oo.OOOoOOOO    ",
"   *=@@+===+ oo#+oo oOOOOOOO    ",
"   *=@@+===+ oo#+oo oOOOOOOO    ",
"   %%++@=%%o oo#+oo XOOOOOOOX   ",
"   @#++#$##OoOO++OOOOOOOOOOOX   ",
"   @#++#$##OoOO++OOOOOOOOOOOX   ",
"   ++OOOOOOOoOO+OOOX#@@##@@#X   ",
"   ++OOOOOOOoOO+OOOX#@@##@@#X   ",
"   OOOO OOOX oo#+oo *--$&==$    ",
"   oOOOoOOOO oo#+oo &%%#---+    ",
"   oOOOoOOOO oo#+oo &%%#---+    ",
"   .OOOOXOOOooo#+ooO+++ =&&O    ",
"    OOOO ooOO++++OOOOoo@@++X    ",
"    OOOO ooOO++++OOOOoo@@++X    ",
"    XOOOO   oOOOOOOo OO#+OO     ",
"    XOOOO   oOOOOOOo OO#+OO     ",
"     ooOOoo  XX++oo XOOOO       ",
"       oOOOO oo++OOoOOOO        ",
"       oOOOO oo++OOoOOOO        ",
"        .ooOOOO++OOOOoo         ",
"            .ooooooX            ",
"            .ooooooX            "
};
