/* XPM */
static char *result[] = {
/* columns rows colors chars-per-pixel */
"32 32 8 1 ",
"  c black",
". c #473502",
"X c #513F06",
"o c #604800",
"O c #6C5000",
"+ c #785800",
"@ c #806000",
"# c #957001",
/* pixels */
"            XooOOOOo            ",
"            XooOOOOo            ",
"           oOOOO+OOOO           ",
"         ..OOOO@#++OOXX         ",
"         ..OOOO@#++OOXX         ",
"         OOOO++@@++OOOO         ",
"         OOO+OOOO++OOOO         ",
"         OOO+OOOO++OOOO         ",
"        o++++OO+@++OOOOX        ",
"        o++++OO+@++OOOOX        ",
"        O++++OO@#++OO++o        ",
"        @@@@+++@#++OO++O        ",
"        @@@@+++@#++OO++O        ",
"        @@@@@@@##++++++O        ",
"        @@@@+++++++++++O        ",
"        @@@@+++++++++++O        ",
"        @@@@++++@++@@@@+        ",
"        @@@@++++@++@@@@+        ",
"        @@@@+++##++@+@@O        ",
"        +++++++@#++++@@o        ",
"        +++++++@#++++@@o        ",
"        OOO++OO@#++O+++X        ",
"        oOOO+OO+@++++++         ",
"        oOOO+OO+@++++++         ",
"        XOOO+OOO+@@+O++         ",
"        XOOO+OOO+@@+O++         ",
"         OOO+@@@@++O+oo         ",
"         XXOO@@##@@O+           ",
"         XXOO@@##@@O+           ",
"           oOOO@@@@@            ",
"            .XXo+OO             ",
"            .XXo+OO             "
};
