/* XPM */
static char *result[] = {
/* columns rows colors chars-per-pixel */
"75 75 76 1 ",
"  c black",
". c #332B13",
"X c #3F2F17",
"o c #430000",
"O c #470000",
"+ c #4F0000",
"@ c #530707",
"# c #5B0000",
"$ c #5B0707",
"% c #5F0707",
"& c #670000",
"* c #670B0B",
"= c #6B0F0F",
"- c #7F0000",
"; c #731313",
": c #771717",
"> c #7F1B1B",
", c #43331B",
"< c #4B371B",
"1 c #533F1F",
"2 c #5F4323",
"3 c #6B4727",
"4 c #7F532F",
"5 c #434343",
"6 c gray28",
"7 c gray31",
"8 c gray34",
"9 c #5B5B5B",
"0 c gray39",
"q c gray42",
"w c #6F6F6F",
"e c #777777",
"r c gray50",
"t c #9B0000",
"y c #831F1F",
"u c #A70000",
"i c #B30000",
"p c #BF0000",
"a c #8B2323",
"s c #8F2B2B",
"d c #972F2F",
"f c #9B3333",
"g c #A33B3B",
"h c #A73F3F",
"j c #CB0000",
"k c #AF7B1F",
"l c #875733",
"z c #8F5F37",
"x c #AF4747",
"c c #B34F4F",
"v c #BB5757",
"b c #BF5B5B",
"n c #AB6F43",
"m c #C76363",
"M c #CB6B6B",
"N c #D37373",
"B c #DB7B7B",
"V c #CF8353",
"C c #D78B5B",
"Z c #FFA35B",
"A c #E79B6B",
"S c #FFFF73",
"D c #838383",
"F c #939393",
"G c #979797",
"H c #9F9F9F",
"J c gray67",
"K c gray70",
"L c #DF8787",
"P c #E78F8F",
"I c #EB9797",
"U c #F3A3A3",
"Y c #F7ABAB",
"T c #FFB7B7",
"R c #CBCBCB",
"E c gray86",
/* pixels */
"                                                                           ",
"                                                                           ",
"                                                                           ",
"                                                                           ",
"                                                                           ",
"                                                                           ",
"                                                                           ",
"                                                                           ",
"                                                                           ",
"                                                                           ",
"                                                                           ",
"                                                                           ",
"                                                                           ",
"                               hhfs>                                       ",
"                               hhNNd                                       ",
"                             MBvvPBmLBNM                                   ",
"                             MBvvPBmLBNM                                   ",
"                           NBLmddvvhMNBLBNNm   mNLLm                       ",
"                        MNBNMmbddPNhmmmMMMMmmMBLIIPNcc                     ",
"                   MNNmmbvcbbbbyymNvgMBBNMMMMNmMBNMvvvd                    ",
"                 mLLNNmMmbcbmMMgggmMgMMvvccxhvMNLLBmxxfv                   ",
"                cNPIIIMMvvvmMNNbbhgcgNBNNMMmvvvvbMMmccgf                   ",
"               dvvMeGGGmxMLIPPPNNcgcgNLPPPPILMMxmGGehhfs                   ",
"              vfxeFKEERdxNPYTTTIIbcgMLITTTTYPNNxdREKFFea                   ",
"              fgeJr0998$$xBPUYYYYIcgbIYYYUUPBxx:$890rrJe                   ",
"              sfH5:===%=$$vBBBBBBBchcBBBBBBBvs:$+%==::5Hy                  ",
"              asfhgfdd::*+$hvmmmmmcgcmmmmvvhs:++$**=::yyy                  ",
"              asfhgfdd::*+$hvmmmmmcgcmmmmvvhs:++$**=::yyy                  ",
"             y>:ssyyyy:*:*O1aggccchahccggaa1O++$=:sfaaaya                  ",
"             ygd=:>:::**d:+1kSk>>y=$a;==kSS4++$=::sfddy:a                  ",
"             agcs=*@@@@%as+OzAz111;$+;1zAVV++=>:*:sfdd:;a                  ",
"             agccd:===o%:>*++++;;:;=+%y*$+++$*>:O$:yss;;y                  ",
"             aahhhd:::o@$:>*%=;::>**@+$**;;;;==*OO+=::%>ac                 ",
"             yyfffs>::oo@=::*%***:yffs>:;>>>;*%O@$++++>sgf                 ",
"            cayssy:=$$o  $=*%:>ss>*X.$.X+$$ay@+  **$**agxs                 ",
"            fg>>y==$$$    $@%:*,,2-l3O2,+::fy++  :aayyshv;                 ",
"            sxs>*$$$      $@%y$%%=*$O++++yyfy@=  agvffygv;                 ",
"            svga*$**      y;%a*::iut---&#aaf:=y  adxhh;dx*                 ",
"            svga*$**      y;%a*::iut---&#aaf:=y  adxhh;dx*                 ",
"            svhsyaa:     *y;*yyttpiuut--&ssx=:y*  aghh:sg>                 ",
"            sxgyfvga     *:y;dhttZjpuuuZ:ffc:y=*   add;yda                 ",
"            sgd;hxda     $*=:xv>>n2jju2n>ggmy=+$   >yyaydh                 ",
"            ads:hga      >$@@cmhh3<C2C<3fccv%oo+   ;aahvgh                 ",
"            hyy;da      :::$@hNcc<2fxf2<cNNhoo++   ;hhdaas                 ",
"            hgyay>      >>>*%@hbbmbvcvbmNvvOo+:;*  >aayahhg                ",
"            savha;     :>>y=*%$hhbNBPPNMvOOO+@*a:  yss>ycxg                ",
"           ghhadh;     >>y>:;>=@@dhbmbgdOoo+$@*aa> fyyysgcg                ",
"           gxcaya>    :>yy:yaa;OOOoOOOOo+@@$$>>>fs ddddyfgg                ",
"           gxcaya>    :>yy:yaa;OOOoOOOOo+@@$$>>>fs ddddyfgg                ",
"           gcgy>sy    >>sy:ada;OOOOOOOo==$$$*adafssdddgdyaf                ",
"           ggf>>>f    >ys:ydg>=OOOOo +o=y***:dgffdschh>hdc                 ",
"           fa>>d>>  ::>sa>yhg;*OOO+   $$y::;:dggdfscff acc                 ",
"            cmdgdd  >>>faydxd=$OO+$   +$:yy:ysghgfs                        ",
"            cch>hc  ==>fsshxa=@OO$     %*yy>ashchds                        ",
"              b fb  ==>ssgxgy;@@@=     *%::yasfffds                        ",
"                    ==:aaxcg>;@==       %**adgxxxhfv                       ",
"                      :aagcg>;:==       %aaagxgdsfxh                       ",
"                      *adgcg>:>          hhxdfgghhcghh                     ",
"                      adddhdy>=          ccmyfxbbhcsdd                     ",
"                      adddhdy>=          ccmyfxbbhcsdd                     ",
"                       dasfaay           xxmyfcmNcxsss                     ",
"                       aafffss           xxvyfcMBcxdaa                     ",
"                       sfhxhdh             xafvNLvxs                       ",
"                        gxvxf              hagbBPbca                       ",
"                        hcMvh              aafvLImc                        ",
"                      mccvBMv               afbLLMc                        ",
"                   xxxcccvBMvvcxx           fgMBBBv                        ",
"                  qfffhcbxxxMmgff>0         fxNPIBM                        ",
"                 q0fffhxxeDexxgffs80    wmmhdvmvxvBMvvw                    ",
"                       d7qeq7d        rw0cchhmxeDexmvv0wr                  ",
"                       d7qeq7d        rw0cchhmxeDexmvv0wr                  ",
"                       s79q97s       rw08ccfxh9qeq9hcc80wr                 ",
"                        77777        w086ssfss79q97agg680w                 ",
"                                              87978                        ",
"                                                                           "
};
