/* XPM */
static char *result[] = {
/* columns rows colors chars-per-pixel */
"75 75 81 1 ",
"  c black",
". c #2B230F",
"X c #332B13",
"o c #3F2F17",
"O c #430000",
"+ c #470000",
"@ c #4F0000",
"# c #530707",
"$ c #5B0000",
"% c #5B0707",
"& c #5F0707",
"* c #670000",
"= c #670B0B",
"- c #6B0F0F",
"; c #730000",
": c #7F0000",
"> c #731313",
", c #771717",
"< c #7F1B1B",
"1 c #43331B",
"2 c #4B371B",
"3 c #533F1F",
"4 c #5F4323",
"5 c #6B4727",
"6 c #774F2B",
"7 c #434343",
"8 c gray28",
"9 c gray31",
"0 c gray34",
"q c #5B5B5B",
"w c gray39",
"e c gray42",
"r c #6F6F6F",
"t c #777777",
"y c gray50",
"u c #8B0000",
"i c #9B0000",
"p c #831F1F",
"a c #A70000",
"s c #B30000",
"d c #BF0000",
"f c #8B2323",
"g c #8F2B2B",
"h c #972F2F",
"j c #9B3333",
"k c #A33B3B",
"l c #A73F3F",
"z c #CB0000",
"x c #D70000",
"c c #E30000",
"v c #EF0000",
"b c #FF1F1F",
"n c #9B5B13",
"m c #8F5F37",
"M c #A36B3F",
"N c #AF4747",
"B c #B34F4F",
"V c #BB5757",
"C c #BF5B5B",
"Z c #C76363",
"A c #CB6B6B",
"S c #D37373",
"D c #DB7B7B",
"F c #C39B2F",
"G c #CF8353",
"H c #E79B6B",
"J c #FFFF73",
"K c #838383",
"L c #939393",
"P c #979797",
"I c #9F9F9F",
"U c gray67",
"Y c gray70",
"T c #DF8787",
"R c #E78F8F",
"E c #EB9797",
"W c #F3A3A3",
"Q c #F7ABAB",
"! c #FFB7B7",
"~ c #CBCBCB",
"^ c gray86",
/* pixels */
"                                                                           ",
"                                                                           ",
"                                                                           ",
"                                                                           ",
"                                                                           ",
"                                                                           ",
"                                                                           ",
"                                                                           ",
"                                                                           ",
"                                                                           ",
"                                                                           ",
"                                                                           ",
"                                                                           ",
"                                 ljg<                                      ",
"                                 lSSh                                      ",
"                             ADDDVRDZTSA                                   ",
"                             ADDDVRDZTSA                                   ",
"                           SDTZZZhVVlADTDSSZ   ZSTTZ                       ",
"                        ASDSAZCCChRSlZZAAAAZZADTEERSBB                     ",
"                   ASSZZCVBCCCCCCkSVkADDSAAAASZADSAVVVh                    ",
"                 ZTTSSZAZVVZAASDDlZAlADSAZZZVVASTTDZNNjV                   ",
"                BSRtPPPZNATERRRTTBZCBTTRREEETANZPPtZBBkj                   ",
"               hVtLY^^~hNSRQ!!!EECBkCTE!!QQQRSNh~^YLttjg                   ",
"              VjtUywqq0hkNDRWWQQQEBkCEQQWRRRDNkh0qwyUUtf                   ",
"              jkI777777->fVDDDDDDDBlBDDDDDDDVf>-777777It                   ",
"              gjI7,---,%%>flVVZZZZBkBZZNllllg>%%%&--,,7Ip                  ",
"              fgjlkjhh,%%%@ooo>ffllglllp#####p%#%==-,,ppp                  ",
"              fgjlkjhh,%%%@ooo>ffllglllp#####p%#%==-,,ppp                  ",
"              <,ggpppp,=%%=mJFnppfhfkhpnFJJ6,g%%-,gjfffpf                  ",
"             pkh-,<,,,==%%,fmHHmm3>ff>36HGGlfp%-,,gjhhp,f                  ",
"             pNBg-=####&%%=pjVVllg>-@&pjlllf,%#,=%,pgg>>p                  ",
"             fkBBh,---O&%%%>pgjgg<==#@%==>>>>@#,++@-,,&<fB                 ",
"             fgNNjg<,,O#%%#>,====,pjjp=,><<<<@-=+%@@@@<gkj                 ",
"            Bppggp,-%% O#%#>,,pppppppppppppf<#&+ ==%==fkNg                 ",
"            jf<<p--%%%   %#><,.4441oX1Xo.ppj<#@  fkVjjpkV>                 ",
"            gkg<=%%%      %><p.44O61O14O.ppj<@@  fhNll>hN=                 ",
"            gNkf=%==      %><f$@@OOOOOO@$ffj<#-   fkll,gk<                 ",
"            gVkpjVkf      p><p$@@OOOOOO@$ggj<-p    fhh>phf                 ",
"            gVkpjVkf      p><p$@@OOOOOO@$ggj<-p    fhh>phf                 ",
"            gNh>lNhf     =p><pO@@@@@OO@@$ppj<,p=   <ppfphl                 ",
"            fkg,lkf      =,><p@**;;*$$;:;ppj<p-=   >fflVkl                 ",
"            lhp>hf       %=><f*;;uuu*;uiuffj<-@%   >llhffg                 ",
"            lppfp<       <#><p;uuiiiiuiaippj<OO@,  <ffpfllk                ",
"            gkVlf>      ,&#><puaaaaaaaszappj<O@#,  pgg<pBNk                ",
"           klffhl>      &##><fiddddsdddxaffj>@#&=< j<<==kBk                ",
"           kNlfpf<     ,####<paxxzzzddzxaggj>#&-,g hff,--pk                ",
"           kBBp<gp    ,&####<paxxvvcxzzxappj<#=-,pghhhf,-fj                ",
"           kkk<<<j    &#####<pazz5zbbvz5appk<<<<,,f ll<lhB                 ",
"           kkk<<<j    &#####<pazz5zbbvz5appk<<<<,,f ll<lhB                 ",
"           jfj<h<     ######<fi44M4dzb4M4ffN=gggf<f                        ",
"            B<hkhh  ,,&######pp44M6;:d6M6ggV,hkjgff                        ",
"             Zl<lB  <<&##>>>#hl66HM*;:MH6jjV,hkkhgg                        ",
"                    --&-<,ff<NV44M46664M6kkZpgklkhg                        ",
"                    --<<gglNfBZ4452G4G254BBVfglBlhg                        ",
"                    --,ggkNkp>SBB24jNj42BSSVfgjjjhg                        ",
"                      ,ffNBk<>VCCZCVBVCZSVVfhkNNNljV                       ",
"                      ,ffkBk<>,VVCSRWWTAVfffkjjjklNl                       ",
"                      =fhkBk<,<  VVCZCVV&llNhjkkllBkll                     ",
"                      fhhhlhp<-          BBZpjNCClBghh                     ",
"                      fhhhlhp<-          BBZpjNCClBghh                     ",
"                       hfgjffp           NNZpjBZSBNggg                     ",
"                       ffjjjgg           NNVpjBADBNhff                     ",
"                       gjlNlhl             NfjVSTVNg                       ",
"                        kNVNj              lfkCDRCBf                       ",
"                        lBAVl              ffjVTEZB                        ",
"                      ZBBVDAV               fjCTTAB                        ",
"                   NNNBBBVDAVVBNN           jkADDDV                        ",
"                  ejjjlBCNNNAZkjj<w         jNSREDA                        ",
"                 ewjjjlNNtKtNNkjjg0w    rZZlhVZVNVDAVVr                    ",
"                       h9ete9h        yrwBBllZNtKtNZVVwry                  ",
"                       h9ete9h        yrwBBllZNtKtNZVVwry                  ",
"                       g9qeq9g       yrw0BBjNlqeteqlBB0wry                 ",
"                        99999        rw08ggjgg9qeq9fkk80wr                 ",
"                                              09q90                        ",
"                                                                           "
};
