/* XPM */
static char *result[] = {
/* columns rows colors chars-per-pixel */
"75 75 77 1 ",
"  c black",
". c #332B13",
"X c #3F2F17",
"o c #430000",
"O c #470000",
"+ c #4F0000",
"@ c #530707",
"# c #5B0000",
"$ c #5B0707",
"% c #5F0707",
"& c #670B0B",
"* c #6B0F0F",
"= c #730000",
"- c #7F0000",
"; c #731313",
": c #771717",
"> c #7F1B1B",
", c #4B371B",
"< c #533F1F",
"1 c #5F4323",
"2 c #6B4727",
"3 c #774F2B",
"4 c #7F532F",
"5 c #434343",
"6 c gray28",
"7 c gray31",
"8 c gray34",
"9 c #5B5B5B",
"0 c gray39",
"q c gray42",
"w c #6F6F6F",
"e c #777777",
"r c gray50",
"t c #8B0000",
"y c #9B0000",
"u c #831F1F",
"i c #A70000",
"p c #B30000",
"a c #BF0000",
"s c #8B2323",
"d c #8F2B2B",
"f c #972F2F",
"g c #9B3333",
"h c #A33B3B",
"j c #A73F3F",
"k c #CB0000",
"l c #875733",
"z c #8F5F37",
"x c #AF4747",
"c c #B34F4F",
"v c #BB5757",
"b c #BF5B5B",
"n c #8F7753",
"m c #AB6F43",
"M c #B37347",
"N c #C76363",
"B c #CB6B6B",
"V c #D37373",
"C c #DB7B7B",
"Z c #CF8353",
"A c #D78B5B",
"S c #E79B6B",
"D c #FFFF73",
"F c #838383",
"G c #939393",
"H c #979797",
"J c #9F9F9F",
"K c gray67",
"L c gray70",
"P c #DF8787",
"I c #E78F8F",
"U c #EB9797",
"Y c #F3A3A3",
"T c #F7ABAB",
"R c #FFB7B7",
"E c #CBCBCB",
"W c gray86",
/* pixels */
"                                                                           ",
"                                                                           ",
"                                                                           ",
"                                                                           ",
"                                                                           ",
"                                                                           ",
"                                                                           ",
"                                                                           ",
"                                                                           ",
"                                                                           ",
"                                                                           ",
"                                                                           ",
"                                                                           ",
"                                 gjj                                       ",
"                               jjVVNj                                      ",
"                   eGGeHHfvvvBCvvjjNPjVB                                   ",
"                   eGGeHHfvvvBCvvjjNPjVB                                   ",
"                  eKrrLWE$xBVNBVVVvjvVvPCVVN   NVPPN                       ",
"                  J5::098$xbBCIIINbjhcNBBBBNNBCPUUIVcc                     ",
"                   Vxxj*%*cbCIUIIPVchchhjccxjvBVPVBvvvf                    ",
"                xxvBVVxjs$gvCYTTTTUbchcbCVVVBNvNBBNchhgv                   ",
"               xjcNCPPVBxsdgjCCPPPBchgbCIIIIICBvvNNjggdg                   ",
"               ghcNBBBvvxj&dgvNNNNNcjcBITRRRTIBBfHLGeesd                   ",
"              vdgjcvccxcdx:+<shccNNcfcCIUTTYICVV$EHHKKes                   ",
"              gsdgjhgghxdd*OzDX>>ccfscNNNCCCCVVbuucLGGJu                   ",
"              d>udduuudhd>*+zSz<<u>>scvxhjjjjvbbxjuucceJu                  ",
"              j::;:>uuud::*&+++@@@+++@@@@@@<O:vvgu&*::uuu                  ",
"              j::;:>uuud::*&+++@@@+++@@@@@@<O:vvgu&*::uuu                  ",
"              gs:$;;::sd&:**%*;::&:&+@<zSDD4+>xxd:ddsssus                  ",
"             vdfd;$$::s&$a&p%&&&&&:>>%@&MZZ+>jjd&:dgddu:s                  ",
"             uhcd*&$@@@$$$apa2>>>ugg>>&&+++>djg:O:dgff:;s                  ",
"             shccf:*ooo@a$anXm1%%&$$d>:;;>>sgg>&O$:ddd;;u                  ",
"             ssjjjf:::oo@;@n3m3mm-l2$.t2>ddggd:O@O+*::%>sc                 ",
"             sugggd>::oo@;x1m2322kai111m.::ud:OO@$++++>dhg                 ",
"             uuddu:*$$o  udc2,A##3=323m3:***:O+  &&$&&shxd                 ",
"            cs>>u**$$$   >ujbbN11A11y2m3:**:@@*  :ssuudjv;                 ",
"            ghd>&$$$     >ufgjxbbvcvA,21>>>@%*u  shvgguhv;                 ",
"            dxhs&$&&     &ufjffsssjxNVvg>ss@o:u& sfxjj;fx&                 ",
"            dxhs&$&&     &ufjffsssjxNVvg>ss@o:u& sfxjj;fx&                 ",
"            dvjduss:     &OufcNffffdfffgs@@@%u*&  shjj:dh>                 ",
"            dvhugvhs     $OOO:hccxxxbxffs@@O:u+$   sff;ufs                 ",
"            dxf;jxfs     >$@OOOOO:ubNbhf@oo%u:o+   >uusufj                 ",
"            dhd:jhs     :::$OOOOOOOOOOOo+@@:&o++   ;ssjvhj                 ",
"            sfu;fs      >>>&%OOOOOOOOOOOO&&%o+:;&  ;jjfssd                 ",
"            juusu>      >>>&%OOOOOOOOOOO%%%Oo+:;&  >ssusjjh                ",
"           hjhvjs;     :>>u*&%OOOOOOOOOOOOOO+@&s:  udd>ucxh                ",
"           hdssfj;     >>u>:;>*OOOOOOOOOOOO+$@&ss> guuudhch                ",
"           hjjjus>    :>uu:uss;OOOoOOOOOO@@$$>>>gd ffffughh                ",
"           hjjjus>    :>uu:uss;OOOoOOOOOO@@$$>>>gd ffffughh                ",
"           hxcjjduf   >>du:sfs;OOOOOOOo**$$$&sfsgddfffhfusg                ",
"           gch>>>gf   >ud:ufh>*OOOOo +o*u&&&:fhggfdcjj>jfc                 ",
"            hg>f>>f ::>ds>ujh;&OOO+   $$u::;:fhhfgdcgg scc                 ",
"            s>fhff  >>>gsufxf*$OO+$   +$:uu:udhjhgd                        ",
"                    **>gddjxs*@OO$     %&uu>sdjcjfd                        ",
"                    **>ddhxhu;@@@*     &%::usdgggfd                        ",
"                    **:ssxch>;@**       %&&sfhxxxjgv                       ",
"                      :sshch>;:**       %ssshxhfdgxj                       ",
"                      &sfhch>:>          jjxfghhjjchjj                     ",
"                      sfffjfu>*          ccNugxbbjcdff                     ",
"                      sfffjfu>*          ccNugxbbjcdff                     ",
"                       fsdgssu           xxNugcNVcxddd                     ",
"                       ssgggdd           xxvugcBCcxfss                     ",
"                       dgjxjfj             xsgvVPvxd                       ",
"                        hxvxg              jshbCIbcs                       ",
"                        jcBvj              ssgvPUNc                        ",
"                      NccvCBv               sgbPPBc                        ",
"                   xxxcccvCBvvcxx           ghBCCCv                        ",
"                  qgggjcbxxxBNhgg>0         gxVIUCB                        ",
"                 q0gggjxxeFexxhggd80    wNNjfvNvxvCBvvw                    ",
"                       f7qeq7f        rw0ccjjNxeFexNvv0wr                  ",
"                       f7qeq7f        rw0ccjjNxeFexNvv0wr                  ",
"                       d79q97d       rw08ccgxj9qeq9jcc80wr                 ",
"                        77777        w086ddgdd79q97shh680w                 ",
"                                              87978                        ",
"                                                                           "
};
