/* XPM */
static char *result[] = {
/* columns rows colors chars-per-pixel */
"64 64 20 1 ",
"  c black",
". c #000002",
"X c gray1",
"o c #06040D",
"O c #243E1C",
"+ c gray17",
"@ c #343434",
"# c gray22",
"$ c #2B4F21",
"% c #33602B",
"& c #377430",
"* c #414141",
"= c gray27",
"- c #4E4E4E",
"; c #565656",
": c #5B6345",
"> c #459344",
", c #4B9F4F",
"< c #5CAF51",
"1 c #6EBD55",
/* pixels */
"                                                                ",
"                                                                ",
"                                                                ",
"                                                                ",
"                                                                ",
"                            ++++                                ",
"                         +++++++++                              ",
"               ++         +%%>>=++ + +                          ",
"               +    +++   ++#%>&+   ++                          ",
"            +   # $+ +    ++#$++%%%       +                     ",
"                %:=%# ++   #&#++&==+  +     +                   ",
"               +>,>&==%&>>%#++%=$++>#%&# +++                    ",
"               #>,:%%%:<>:&%$##$# +:#:&&++++ ++                 ",
"          #+  + %O+##;>:>>>,>:&%+ $#&>,,#       ++              ",
"          + + + +++##>:>>>,,>&%@++&%>,,,&+          +           ",
"        +++ #   +$ +$=&&%-,>%@  X+*@+  *:&+++++ +++   +         ",
"        +   #++ ++++%>>%=,>%@+ ++++++  #>>#+ ++ ++##  +         ",
"            ++++#$++=,,=%>&@+ ++   +++ +&&O+++  ++&&+   +       ",
"           +    #++$>&=#%+# %#+ ++ ++++++   ++ + +%::%+         ",
"           +#  ++++%&:#@+%%### ++   ++++ +   +    #%&:+ +       ",
"      + %%++ #  +++&&$ ##%#+             +++  +    @:&          ",
"         #++%++  +%>#  $%:++   +         + +  +   +#&:+         ",
"        + +&%+++ @#+ # $#+   +           ++       ##&&          ",
"        + #&%%O  +++#$ ##++     ++        +       +#%=          ",
"          &>>,>@  ++# $  ++   ++               +  +%#+%+        ",
"         +>>>,>+  +O+ ++++    ++                  +#%#++        ",
"     +   o&<:-%++#$>++ ++                    ++    +#$+ +       ",
"     +++  :,>%@++#%>++ ++                    ++    +++++        ",
"      ++  :&&+++&%%#+++++                     + +  + ++         ",
"      ++ +$%=#$$>==$+++++                     + + ++  +         ",
"       +++%O $=%>>%#++  ++                     + + + ++         ",
"       ++ %++##=::&%+                            + +  +         ",
"     +    #+ %%%::>%$+++       +          @+  +  + ++  +        ",
"     +   ++++=%->>>%#+>&                  ++# + ++  ++ +        ",
"        +  ++%=>=>>>==@+                  +++++ +   #+          ",
"       + ++++#%=#=>+%$+                    +&++ +  #%+    +     ",
"     +     +++%+++          ++ +         +@%>&++:#@==+ +        ",
"     +    + ++#%++         +++++        ++:&>&+&>@%&+++%        ",
"        +# ++++%#     +  ++  +++#+   +#@><<,,&+@>+%+++$++       ",
"       ++$%++ ++  +#  +  +#    +%%+ +:&><11>-& %%+=++++ #       ",
"      + .+=++  +  ++#+++++++    +%$%%&:%&,,=@+#%:#%&+   #       ",
"       #+=%++ +++   =++%=%O+      +%#++#->>%++%&&>#:+ +         ",
"      #=%%%+ ++%++ + +=&=&%    +#$%O ++#+++++%%%%%&%++          ",
"      %%&:% + +%++++ +%:&%%+  +@#%#++++     #%#=%%>=++          ",
"      =%>;%+%+O%++  + +##++#=%$O+@+##+   + +#+#:%+ ++++         ",
"       #=%=++++%+++ +  ++  +%==#%%%=# +  % +++&&=+ %+           ",
"       $%%%++++++++          +O#=%#      +++=>>$+  +++          ",
"       #%=++ ++ + ++        ++@O$#++  + ++ +&&+++   +           ",
"        =%++ ++   ++  +++    ++@   @##+ +  +&# +  +++           ",
"              ++ +    +%%+   ++#%%#=;=%#+ ++     +              ",
"              + +      ++  ++++%;&%%&&&%+ ++    +               ",
"               ++      ++   +++%&:>,,>-++%+ ++ +                ",
"               +++    ++$ +   +#=&::,:% +%%+ ++                 ",
"                 ++ ++++ +++$%%$++++++ +++                      ",
"                  ++++++++ +@#%+     +++++                      ",
"                   @++++++++++++++++++@++                       ",
"                    +@O+O  +$###++++#%%&                        ",
"                                  +++                           ",
"                                                                ",
"                                                                ",
"                                                                ",
"                                                                ",
"                                                                ",
"                                                                "
};
