/* XPM */
static char *result[] = {
/* columns rows colors chars-per-pixel */
"64 64 35 1 ",
"  c black",
". c #2B3419",
"X c #243E1C",
"o c gray17",
"O c #343D22",
"+ c #343434",
"@ c gray22",
"# c #3D4527",
"$ c #377430",
"% c #454E30",
"& c #525638",
"* c #5B6345",
"= c #676B4E",
"- c #6F7456",
"; c #3F8436",
": c #459344",
"> c #5CAF51",
", c #6EBD55",
"< c #7C8063",
"1 c #7FCB5B",
"2 c #D8BC41",
"3 c #91DA5F",
"4 c #A2EB64",
"5 c #ADF86C",
"6 c #ECDC56",
"7 c #FFE84A",
"8 c #FFF364",
"9 c #FFFF74",
"0 c #FFFF7E",
"q c #848484",
"w c gray55",
"e c gray80",
"r c gray83",
"t c #FFFFC6",
"y c white",
/* pixels */
"                                                                ",
"                                                                ",
"                                                                ",
"                                                                ",
"                                                                ",
"                                                                ",
"                                                                ",
"                                                                ",
"                                                                ",
"                           #o                                   ",
"                      &   * *>,,-*%                             ",
"                       o  -3<33,1333%   o                       ",
"                   o    &-,3,33<3443*@%# o                      ",
"                   o#%,<5e44555455553-$-<                       ",
"                O**%&3<26541553-55425,**,#o                     ",
"              -,3*%,35741>3q1341-=*134**,,<. o                  ",
"              ,,,**1,354<344344131,<34*-1-,*#O                  ",
"             #1<-&&-*351427e5555353,13,<1<<<-&O                 ",
"             *-%%%-Oo154t713577755555511341,<-4,+               ",
"             #%#%%:&#<1775-470t00r5t55,<14523<<4ooo             ",
"             #O%-%>-*:445452809655598143335797<1*o              ",
"           o &@*<@,*%-1135e7786555576,,<,33676,--#              ",
"            -,-,113%-,,*,5t2502333555543*-44383-,%o             ",
"           o>-<1<41>1<<&<4r5577>,7025<55,:433781,-o             ",
"           .>*133535e,,<1550788774277:,55><434t914%o            ",
"           @<-445r5r514*3559977997327<,121<4419014<o            ",
"           >,,555575e153248770ttttt987-*23,41,,03*&             ",
"           <,155550e535577949ttttt08781>7331<<O84&&             ",
"           *314357t5515347790ttytytt941<744,<%%24<<             ",
"          o=1q3137t554527490ttytyytt021>7,423=*,<*1#o           ",
"          o&<<14<59555534999tytyyyyt07>,,36741&*-@1O            ",
"          #*&&,11r854w4,70690tytyttt087-13965,%*,&1#o           ",
"           =%,=,15455#149t260tytyyt008837354r,*-*O* o           ",
"           o@,&-,5555O,3704290tyyyt00892>5555,:>*o*oo           ",
"          o%@1&*:1444*=3,2,600900099772254531,,-#o>o#o          ",
"           & ,*-*<134--<:2>9t009087724355251111>&o-##           ",
"            **1-*>3<--o#,-730096777788550253333>=--*-           ",
"             o->*,<,,,%o*>>780978728t659t5553432**:-<           ",
"              O*1:-*$--,-,*>73213,2t047753313537*O:,<           ",
"            oooO*<:O@*<211>->,,31457955553155527;+<,>           ",
"             *O+*oO-**%,79771431,3415r31322,3792@&,>%o          ",
"             ##o#**>-*@<14785445724455441311432>%-<*&o          ",
"              #&*#<3-+1<#*>11<<-*,,,<-1<**-553=o<,***           ",
"              O<*oo,,o1,#o&-<*****=,*-*%&*-44<o#>-o*%           ",
"                 #o&*-<11<&O#*<<&*>153,-,<131>>o oo             ",
"                 o#Oo,%-<>:*@-,3145554,3433<<-@o o              ",
"                  =-*&o%:-&@:*-5797582431,=oo o                 ",
"                  o:-Oo==-,-<-:4806575w*-,oo  o                 ",
"                   O#oo#*:--<<,5765554*%*-oo o                  ",
"                   o.oo# o=*%%=-,,,3,>***#o                     ",
"                    oooo  O,=-::,=@*-,=%Oo                      ",
"                      &oO+O*-**-&&*-1*oo                        ",
"                       **&& X%o%#*--%<<&                        ",
"                                 +OO%                           ",
"                                                                ",
"                                                                ",
"                                                                ",
"                                                                ",
"                                                                ",
"                                                                ",
"                                                                ",
"                                                                ",
"                                                                ",
"                                                                "
};
