/* XPM */
static char *result[] = {
/* columns rows colors chars-per-pixel */
"64 64 41 1 ",
"  c black",
". c #010101",
"X c #10061A",
"o c #150824",
"O c gray17",
"+ c #343434",
"@ c gray22",
"# c #2B4F21",
"$ c #33602B",
"% c #377430",
"& c #454E30",
"* c #525638",
"= c #414141",
"- c gray27",
"; c #4E4E4E",
": c #5B5B5B",
"> c #5B6345",
", c #676B4E",
"< c gray39",
"1 c gray42",
"2 c #6F7070",
"3 c gray47",
"4 c #3F8436",
"5 c #459344",
"6 c #4B9F4F",
"7 c #5CAF51",
"8 c #6EBD55",
"9 c #7C8063",
"0 c #7FCB5B",
"q c #D8BC41",
"w c #91DA5F",
"e c #A2EB64",
"r c #ADF86C",
"t c #ECDC56",
"y c #FFE84A",
"u c #FFF364",
"i c #FFFF74",
"p c #FFFF7E",
"a c #BAFAFA",
"s c #FFFFC6",
"d c white",
/* pixels */
"                                                                ",
"                                                                ",
"                                                                ",
"                                                                ",
"                                                                ",
"                                                                ",
"                                                                ",
"                                                                ",
"                                                                ",
"                                                                ",
"                                                                ",
"                                                                ",
"                            $666;.                              ",
"                          7r655:w06.                            ",
"                         -ww56280w0>                            ",
"                       >667<0tpspptw76O                         ",
"                     ;=7636%0updsputuy&O                        ",
"                   776ww00eeyupiy00wpu>&                        ",
"                 6670wwryyyrrr007<8r66;$&>4O                    ",
"                O=;8008rsprrrrrr880e0;=6606>O                   ",
"              07;O>737euuruswisirpiqu%08<66776O                 ",
"             <08$O5568ryrytyyusuispyy560;6-68w:                 ",
"             686$6%57ere66ysiyyyqyyiqe862w7>68u6                ",
"             ;;=6;=80wr06<tityputyyieyyq>0y6>7y6                ",
"             $688ewy0wrwuyyipssssspppussy0yy6-80O               ",
"             ;670wpw0qrpyeupssssspspstuspeyy8;77O               ",
"            O0790ppeeepp8uussssssssppy0wpy0ype=6OO              ",
"            =06:0syeyepu6ypssssdsssssy0qyywwii:7OO              ",
"           O67%%0i0tueptypssssddsddsspeqwqq78syt;O              ",
"           O0:=;0p0wt8tyupssddddsddsspytwey00syu6=O             ",
"           O0;+;0ew:68wipussdddddssspppsiep07yyy6;OO            ",
"           O06%58ew-=6qptypssdddddssspssiyu06wwq6=4O            ",
"           O7:77060;>6wpyupdsdsdsddsppsssye07%8<%O5O            ",
"           O6;0706867:wuwypsdddsdddspssspyq00;6%OO8O            ",
"            $$>5q6680w60yeypssssdsspsppspue07;8;50q;            ",
"            ==$;y6;7qy,8qqypspsssspppuuiper0656%>ye@            ",
"            @;O$00=;0sq;70titpssputyriyewwrey007O48o            ",
"            O>O@8w*#6uuq80ypyippuyyrypw068rys0w8O5*             ",
"            O75>-67+%%46yw0ipyeeyyyyew0>>7tu06t6>6X             ",
"             775O6e5;;O7uuryupyyyyyiy76:72y878q056X             ",
"             >;=OO70w7%:70yyrreupsssuw78;>;680;1r8              ",
"             86>@%6rrw6577700yryssssy86;-66887$507              ",
"               O07$$:7680eew0yewauupqw6;0y60qq86                ",
"                65;O;8280yttpyywreqyee7:700pi0;=                ",
"                   5OOqi0rrpsierw87wwy56;@;44O                  ",
"                   0788yyeryyrrr060y0y00> OOO                   ",
"                     -;$6767$60stuupwr80=                       ",
"                        O:68180irryyr866O                       ",
"                         O;78260wew006;=                        ",
"                           6886<>080;                           ",
"                            6666;006.                           ",
"                                                                ",
"                                                                ",
"                                                                ",
"                                                                ",
"                                                                ",
"                                                                ",
"                                                                ",
"                                                                ",
"                                                                ",
"                                                                ",
"                                                                ",
"                                                                ",
"                                                                "
};
