/* XPM */
static char *result[] = {
/* columns rows colors chars-per-pixel */
"64 64 46 1 ",
"  c black",
". c #06040D",
"X c #0B0B0B",
"o c #0B1007",
"O c #151B0E",
"+ c gray8",
"@ c #1E1E1E",
"# c #1C2C13",
"$ c #243E1C",
"% c #222222",
"& c gray17",
"* c #343434",
"= c gray22",
"- c #2B4F21",
"; c #33602B",
": c #377430",
"> c #454E30",
", c #414141",
"< c gray27",
"1 c gray29",
"2 c #4E4E4E",
"3 c #565656",
"4 c #5B5B5B",
"5 c #5B6345",
"6 c gray39",
"7 c gray42",
"8 c #6F7070",
"9 c #3F8436",
"0 c #459344",
"q c #4B9F4F",
"w c #5CAF51",
"e c #6EBD55",
"r c #7C8063",
"t c #7FCB5B",
"y c #D8BC41",
"u c #91DA5F",
"i c #A2EB64",
"p c #ADF86C",
"a c #ECDC56",
"s c #FFE84A",
"d c #FFF364",
"f c #FFFF74",
"g c #FFFF7E",
"h c #BAFAFA",
"j c #FFFFC6",
"k c white",
/* pixels */
"                                                                ",
"                                                                ",
"                                                                ",
"                                                                ",
"                                                                ",
"                                                                ",
"                                                                ",
"                                                                ",
"                                                                ",
"                                                                ",
"                                                                ",
"                                                                ",
"                                                                ",
"                                                                ",
"                             O;&X                               ",
"                            &50::X ,>;#                         ",
"                           *20652=&-*,1@                        ",
"                        %&&::30501;*=;;=                        ",
"                      +5:52w7qw6qw4qq:5;&                       ",
"                      %0qqqewweqrpeqtw02%                       ",
"                    &&,qttysdggegjgpyge5;=&&                    ",
"                   &&&;5ttasfgggaggsddtq2<2=;                   ",
"                   &*;;qeesfssysaffsfgaq0,5wq0                  ",
"                 .&*;3qtuisgddfggggaagaew:qwq6o                 ",
"                &0w<=wugdsjgggjjjjjjggsaeetut3+                 ",
"                <3e:1egjdfggjjjjjjjjjgfsyepsp:o                 ",
"                1355esjssagjjjjjjjjjjjggapetw6O                 ",
"                ;:50efptafjjjkjkkjjjjjggpid61wO                 ",
"               &9qeqtdteggjjjjjkkkkkjjjjdtjw5q.                 ",
"              +*5wetateygjjkkjkkkkkjkkjjgufe05                  ",
"              &=68waseadgjjjkkjjkkkkkkjjjpsuq*X                 ",
"              *5wqqsseddggjkkjjkkkkkkkjjjdste=&                 ",
"              &=wwqgutjpjgjkjjjkkkkkkkjjgfdee3*&                ",
"              &-wwwdspjgggjjjkkkkkkkkjjjfdfww0=&                ",
"              @*35esdfjjgjjjjkkkkkkkjjjjdsgeq5;                 ",
"               &=28ysgjjggjjjjkkkjkkkjjjfspeq0,                 ",
"               &*3<ssgjjggjjkkkkkjkkkjjgssaw60=                 ",
"               &*0;esggjjggjkkkjjkkkjjggsse0542&                ",
"               o*6030egfggggjkkkjjjjjggsyee9552=                ",
"                &0q;26pdsdggjjjjjjjjjgasetw355:=                ",
"                @<0051eifptpfggjjjjjgdfspeqwt7;%                ",
"                 =5w0:qesfetsadgjjjgdgpuu77tt0&                 ",
"                  %0000pptsysssafdssgjppu66w,&o                 ",
"                  O1544tspiassyssasdgpuht306$o                  ",
"                   &,35qtppjjjgdsuiutwtwq6q<&                   ",
"                    @;05wsijjjjjpuppu0068q6,$                   ",
"                     &220eudfdpuppppw0555,-@                    ",
"                     @=26tuyasppsieuqq:3:=*                     ",
"                      +559tippieteew45:1**                      ",
"                       oX$=-0<,<2,1*=*++o                       ",
"                         ++O+&%&$%$%O+                          ",
"                                &                               ",
"                                                                ",
"                                                                ",
"                                                                ",
"                                                                ",
"                                                                ",
"                                                                ",
"                                                                ",
"                                                                ",
"                                                                ",
"                                                                ",
"                                                                ",
"                                                                "
};
