/* XPM */
static char *result[] = {
/* columns rows colors chars-per-pixel */
"64 64 23 1 ",
"  c black",
". c #243E1C",
"X c gray17",
"o c #343434",
"O c gray22",
"+ c #2B4F21",
"@ c #33602B",
"# c #377430",
"$ c #414141",
"% c gray27",
"& c gray29",
"* c #4E4E4E",
"= c #565656",
"- c #5B6345",
"; c #3F8436",
": c #459344",
"> c #4B9F4F",
", c #5CAF51",
"< c #6EBD55",
"1 c #7FCB5B",
"2 c #91DA5F",
"3 c #A2EB64",
"4 c #ADF86C",
/* pixels */
"                                                                ",
"                                                                ",
"                                                                ",
"                                                                ",
"                                                                ",
"                                                                ",
"                                                                ",
"                          X#XXX                                 ",
"                     #X X## X####XX                             ",
"                      XX  XO#,11##@XX   XX                      ",
"                       X  XXO><<,-@XXXX  XX                     ",
"                 XXXX##@o@#@:-@O#>##X   X X@                    ",
"                 ::#:1<:>>>->,>XX,,>,#XXXX -X                   ",
"              X X::,,,>#::@X@>>@@@=@>>XX@X OX                   ",
"            X:#@XX:,<1<><<>:#OOXOX+O@@XXXXXXXXXXX               ",
"            +XO,+OX=#>13441<<<<1<>>>#o#:++@XX>-@OX              ",
"            %XO:@ O@X><2342111122>,1,#>>#o:+X-X  X              ",
"           X X##XXX X>>233444441>>,23,:1>+XoO@XX XX             ",
"           X X>-@XX#:,,13344332<*=#O+>:,3#OoX>,:O X             ",
"           X X#OOXO:,,<12243222<>@@OO**><@O+X:,,:XX             ",
"             +XXX:%,<,1:>,1<>>:@@11#:X->>#X:OX:<1,X             ",
"            OOXO@>@>,,1:::1,>>:Oo::#1OX#>-X>#X%,1<X             ",
"           ++ O@>,%-@>:o:>,>1>:@>:@X%,>>%-X-# X:<,OXX           ",
"        OOO@O @#>>@X@>*o:>,<<oXO%%@OX:,,#OX@%X O::OXX           ",
"        O> ,@X,,2,@@%>%:-:,>*:,>2#XXXXOO,XXXXX X-:#  X          ",
"        +: ##@,,2,-%:>#>::>#@#%<1@oXXXXX,XXXXO  #:#X X          ",
"         OO <:,<2<>:>::<X@#XX XoOX   X XOXoXX  O+#,@XXX         ",
"            ,-,<2,:*>:>>:@OX   XXXX X   X@@XX  OO%,@X X         ",
"          XO,*,24>#:,,>>>:OO   X         #:OXXO +O#:X X         ",
"          OO:#><2>-:>1<1>>:X   XX        :>###X O#O,O X         ",
"       ++O +o%%:<>#>>111<,,X XX,XXX  X XO>*>>#,@:,X#@XX         ",
"        O@  X++#,>O>><22<,,O XX,: X    X@>#>>:<-><X-O X         ",
"         O,+  XO>:O->>121<,:X X*<XX    X:,-,#<21<,XXX X         ",
"         O:## X+>:#+-,,111,>X XXX   X X@>:#:-<21<:XXX           ",
"         OOO X@-@@OXO:<>::#<O  X      X->#@-<<,,:*:XXX          ",
"         + XOX#:@:X  %>:%@%<@  XXXX   XX>#X:1,::#+:XXXX         ",
"          OX ##>#.@X  XX  X#@OO OXXX  X#$O-<1#X>:X,XXXX         ",
"          XXXX#>:%@X  X    XO##O#XX   XOO#,21#X::O,XXXXX        ",
"           X  :><#XoX  XX +#XoOO#-@XXX::14412#o>1>%XXXX         ",
"           XXX@:<>X X:XOOOX:%   #,,#+:11444:<&+,1>X +XX         ",
"           XX::>,:+X o,@$::#O    O #,>+:>1<#%:,<1#X X#@         ",
"           Xo>>,,:O X.--,,,>O   X+X####:<<1-@>><<@X X#%X        ",
"            >O,,>>:@@@X#,,,,OXX@#:,-XO+OooX#>>:,:O  O,#X        ",
"            O+>,>>:%@@+%,,,:#@O@--:X@#OXXXX:>-*,:+  X<-X        ",
"             O+>O:%@@ +XX@OXO>>>:>>>>#+XX>.-O:1:OX++XO          ",
"              O OO@OX  XXXXXXOO*>,,>@%@OXOO#<21:X  OO           ",
"                +O+XOO X+XXXXO@=##%%#-@%@+O<<@OOXO O            ",
"                OOOO+  X>>XXXXX#=%+#-:*@%OX,>X+XO+OO            ",
"                 ++OO +X>,#oXX+@::::,>>:#X@@XX X+O              ",
"                 +XXXXXXXXOXXO@@,<<<21<:O:OX+  O                ",
"                  ++XXX +O@XX+O%,<<212,*O,@+O O                 ",
"                  X+OX@O+OO#+@@:%%#:;;O+$@OX                    ",
"                   OOOOOOOOOO:>>:+O%OOO@@OX                     ",
"                     #O#O#O#+OOOOO+@#+@O+                       ",
"                      #-#-# #::::OOO#,,,O                       ",
"                                   O#                           ",
"                                                                ",
"                                                                ",
"                                                                ",
"                                                                ",
"                                                                ",
"                                                                ",
"                                                                ",
"                                                                "
};
