/* XPM */
static char *result[] = {
/* columns rows colors chars-per-pixel */
"64 64 10 1 ",
"  c black",
". c gray17",
"X c #343434",
"o c gray22",
"O c #2B4F21",
"+ c #33602B",
"@ c #377430",
"# c #454E30",
"$ c #414141",
"% c #4E4E4E",
/* pixels */
"                                                                ",
"                           .                                    ",
"                           #                                    ",
"                             ..                                 ",
"                              .   .                             ",
"             .#               . . . ...                         ",
"           .    . ..     .     .   .oX+..                       ",
"           . o@..   .X.      . ..  . .o$$.   .                  ",
"             .o   ..+.    .         .....                       ",
"             ... .X. ..$@.         ..  . .                      ",
"            . .  ++. XX@%.  ..      .  . .                      ",
"             . o .+$. .+$.            .   .    .   .            ",
"               + o%@. ...             ..           .            ",
"               . $$+  .      .           .         oX.          ",
"              ...++.. .   .                        .X.          ",
"       .       ...    ..                            ..          ",
"       .       ...   ..                          .              ",
"       .       .     ..                               .         ",
"      .$  .     .    .                           .              ",
"      .+           . .                           .              ",
"      X$..  . . .                                  ..           ",
"      .@..      .                             .     .  .        ",
"       .. ..                                        .  ..       ",
"       ..       .                                       .       ",
"      .  . .  ... .                                  .  $.      ",
"   ..   ..   . ..                                       +..     ",
"     .. .    .                                         .$X.     ",
"     .. .. ....                                        .@.      ",
"      .    .oX.                                      .  .       ",
"      .   . .+o                                         .       ",
"         .X .+o .                                     .  .      ",
"         .+oX$o .                                      .  . .   ",
"        ..+$X+$                                  .  .. . ..     ",
"        ..$OO$+.                                    .. . ..     ",
"      +. ..o. . .                               .        ..     ",
"      $...X+.     .                           ..o    .   .      ",
"      $...+ o                                  ..   ..          ",
"      o. .. .                                  .  ....          ",
"      .X     . .                                  . ....        ",
"      .+     ..o.                                 . ....        ",
"       ... .   ..                                .. .+X .+o     ",
"     . ...  .   .                                .$..$o..+o     ",
"        Xo..X                                   ..o .o...+X     ",
"      . .X .X.                                      .X. .o.     ",
"      o.... .    .                           ..  .  $.  X.      ",
"      O+       . .                          .X.    .X. .+.      ",
"      .o.. .    .. .                        .  ..  ..  ..       ",
"       ... . ..  o  ..                        ...  .   ..       ",
"       ...   ..  X. ...                        X...X  ..        ",
"    .   . .      ...o++.                      ... ... .. ..     ",
"     . .....    .   .....                    . .  .....         ",
"      .... .    ..  o+.  ..    . ..        .       .+o          ",
"        ... .        .......     ..       ..       .X.          ",
"           .. .      $$X. .    .     ..X..X. ..    ...          ",
"            .. ..    +++o            ..+...                     ",
"                  .    ... .      .. ....  ..    ...            ",
"                           .         ..$o ...    ..             ",
"                                      ..                        ",
"                                                                ",
"                                                                ",
"                                                                ",
"                                                                ",
"                                                                ",
"                                                                "
};
