/* XPM */
static char *result[] = {
/* columns rows colors chars-per-pixel */
"128 128 66 1 ",
"  c black",
". c #040404",
"X c gray6",
"o c #1F0404",
"O c #1B0F08",
"+ c #141004",
"@ c #131313",
"# c #1B1B1B",
"$ c gray11",
"% c #270000",
"& c #2F0000",
"* c #370000",
"= c #26140B",
"- c #391C06",
"; c #311B0E",
": c #3D1F0E",
"> c gray13",
", c #272727",
"< c #2D2D2D",
"1 c gray20",
"2 c #393939",
"3 c #3F3F3F",
"4 c #430000",
"5 c #4F0000",
"6 c #5B0000",
"7 c #670000",
"8 c #730000",
"9 c #7F0000",
"0 c #412312",
"q c #4A2513",
"w c #532B13",
"e c #572F17",
"r c #543B17",
"t c #5F331B",
"y c #673B1F",
"u c #734323",
"i c #7B4B27",
"p c gray27",
"a c #4B4B4B",
"s c #515151",
"d c #565656",
"f c gray36",
"g c #626262",
"h c #686868",
"j c gray44",
"k c #797979",
"l c #8B0000",
"z c #9B0000",
"x c #A70000",
"c c #B90000",
"v c #CA0000",
"b c #DC0000",
"n c #ED0000",
"m c red",
"M c #F40E03",
"N c #FF3F00",
"B c #FF2E2E",
"V c #83532F",
"C c #8F5B33",
"Z c #97633B",
"A c #FF5F00",
"S c #FF7F00",
"D c #A06C40",
"F c #FF9F00",
"G c gray51",
"H c #8B8B8B",
/* pixels */
"                                                                                                                                ",
"                                                                                                                                ",
"                                                                                                                                ",
"                                                                                                                                ",
"                                                                                                                                ",
"                                                                                                                                ",
"                              89                                                                                                ",
"                         99   6l                                                                                                ",
"                      6   l7     7      99                                                                                      ",
"                      8   6z6   7z7    8v9                                                                                      ",
"                     8l    8x7   8l   9bx                                                                                       ",
"                     9x9 468Ml84 6x8  znl             l                                                                         ",
"                     8Mz78lcNMl749M9  xv7            lcl                                                                        ",
"                     lAxlxcASAvxczNz  lb9             l                                                                         ",
"                l    lScxbbNAAmmvNAl  8bx                                                                                       ",
"                v   8zAAvccvbbvNASB   lMv       ll                                                                              ",
"               z   zxvAv8==:q676lbNvxzvA8      l                                                                                ",
"               M86zbvMbx6;O;0t686lAvnnNN      zx                                                                                ",
"               NxxMNbNv9;::=;wt985xNvbSM      vv                                                                                ",
"         88    McMAbvbl6;::;=0ey764bvAAv      xbc                                                                               ",
"         8z87  cSNvbcl6*=;::=:qt675cnSbc   7l lcvz                                                                              ",
"          88l  zAvb8;=OOO=::==:ew66zvAvz   9   lAn6                                                                             ",
"          vx7  zbz:00:=OOO;:O=;qwe68nNzl   88   bN9                                                                             ",
"          NMzx9v7:qeq=OOO==:O==:qt67bv85 l 6v7  cnx                                                                             ",
"     96  7SNNMAbqweq;OO;:=;OO=O=0e68vz7 6c 6M9 9xnvl          cz                                                                ",
"     7l  9AMMNb8q0:0OO=0:;O=OOOO;q57Nz 7zx 8Mv8zvAncz     x    v                                                                ",
"     8M  zNNvN8:q0;OOO;q;O=:=O=O=4*9Azllvl9xbxlcNSAbc8    v   cn                                                                ",
"  8  zN 59NAb80q;OOOO:w0;=O;:;;OO&%lFMcvx8zvNNNAASSAbl   xn  cBc                                                                ",
" l6  Nzl7cbb8:qw:=OO:qeq0;OO;q:O=*&zSNMcl8cnNANbbNAAnN6 9Bv  nv    l8                                                           ",
" M4  Ax7zbb80wq0;=OO;wq;OOOO=0=O;54cANvz89vMAb99988bvA8 znc  Nx    7z                                                           ",
" x7 zNNNNv80:0:;OOOO=ew:;O;====;05*bbvc7llMAb7*575*7bAl49ANz bN9    v  7                                                        ",
" 7MlcbNAcl0;==OOOOOq0;;OOO;0:=;0q69vxcl8zcNb759cl7547Nc78vSb6zAbx  cz 6z                                                        ",
" xNMxzvxlO=;:0;OOO;;;;OOOO=:w0:e75lcxz49cnb75*cMv965*xNz9xABz4vNN5zM9 x6                                                        ",
" lMSANv9=O;:0w0;;=00;;===;0qeuyt67xMc867Nb95*6cMbz865zMxzcNAb7cAS9vNl M8                                                        ",
" 8cAMcl;0;=O=;OO;=0;;;;==OOO;qeq*8MMx87znb5&57lvAz764xcl8xANNbNNANzNc9zM7                                                       ",
" 6xbl9=:0q0:=OO;0;;;;;=OOOO=etut5lNcz7xcn6O*569z9765*cz99cAbl8679lNAMzvNz                                                       ",
" 8c96O;w0:;=;O==q00;==OOOO=:yy0=6xMxlxcbn&*84&6655558Ml9zvN9&&*4**8cNcNcl                                                       ",
" ll7O;0qwq0:;OOOq0;;==;OOO=0yq;&9NvcNcb9M&4*54&**457Nz8lvN8**5775**zAbNz                                                        ",
"7z5O;;0:;;===OOO;;;==;=OOO=:q:0ozNvvbnnMAMl865*&&5&NMl9MA7*&6lcc95*9bzA9                                                        ",
"5x5;qq;:===OOOO=;=====O=OO;0t=&4bAMvb7*4M&&&OO6O*&7bl9vN7*&*9vMMc647bAN55                                                       ",
"5v=:0=;;=OOOOO=;0===O=OOO=;w:=o5bnnb74&&z&4&O6c6OobNMNN7*&*6zNANc856NMM478                                                      ",
"ln;;=;:q0:;=O=;;;==O=OOOO:0;=&o6bmbM**O49&&&OO6&o7NNcb7&*&47cAbvl755AA748x6                                                     ",
"zA;=;:;:00:O;0:;==O==OOO=O;;;5&5bb7&456O*O*OO&*46Nccb7*4**469zz975*4Sc76lM6                                                     ",
"6A:;:;==;OO;qw0:=OOOOOOOOO;:;&&5b7&5566*OOzO&*5&NvMN7*4*&*5566775*&5Az77xA8                                                     ",
"7N0;;;=OO=;qetwq;=OOOOOO;0wyqOO-54456M4OOOOO*5*7vMA7&5*&85M556654&O8Nz79NN6                                                     ",
"8Mq0;0==O;0wtyte:=OOO=;:0qeew54&O&47665*OOOo&4&bvA7&**&&l*54554&OO6bbb9NAM55                                                    ",
"lM0q;:OO=:0wetew;=OO==;;:;:;=&OO&56655*&OO*&4o7mb7*54&79Nl7**%&OO&*4*8cAMc76                                                    ",
"xb:w;:OO=0qqwww0OOOOOOO;0wyqOOOOO*4556&OO*45*7bA78&*6&%*z%&&%*OO*556657bzbz7                                                    ",
"bM;0;==;:w0:;;;==OO==;;:qwyutw4&O5O*MOO&454&lmb79Nl7&*6*%%%%&OO56lcc964lvcc8                                                    ",
"vv=:0=;:w0;====OOOOO===:eyuiutw5OOOOOOO*5*46cb7*4z445654*%%&OO4*9vMMc659Nbl6                                                    ",
"xc;;;=:qq:;O==OOOOOOO==;wtuiuiyw4&OOO44&*4&565*5*7465675*&ooO&56zNANc848Ax78                                                    ",
"lb====:w0;=O===O;OOOOO==qtyVViuyw5&OOO5*&&&O&5&4*45778644%MOO&47cAbvl6;9N79z                                                    ",
"9nOOO=:q:=OOO=OOOO=OOOO=:eyVCViuyw4&OOO4*OO6*54&4*67865*&*OO8&569zz965OMv9x4                                                    ",
"6b4OO=;:;O==O=OOOOO==OOO=0wuVCCVutq4&OOO6OO&484&**57654&%&%OOO4566764*6Mxx8                                                     ",
" l6OOO;;=O;:;=O==OOO;=OOO;0tuiViuutw4&O6c6OO&l%*%*M654&*%OOOOO&44554&O8Alv6                                                     ",
" 99==O=;OO:q:;==;=OOO=;=OOO;wtuVCiytq4&O6&O79Nl7**44&&&O%OOO6OOO&*&OOOlN8c4                                                     ",
" 8zO;=OOOO;:w:;O::;=OOO=;=O;0eyiiViyt0*OOOO&&zOO&*&94&49OOO6c6OO&**&O5Mzc9                                                      ",
" 6l7O;=;OO=;0q:=O;:0:;=OOOOO=;0wetuytq0&OOO&475*zO&&c6c&OO&O6&OO*54&OlNb96                                                      ",
"  8lO=;:=OO=;:0;O=:qwew0:=OOOO;0qetye:=OOOO&*454OOOz6b9z6O*5*OO*4*&O5cAz8                                                       ",
"  6MOO;q0=OOO=;:O==:qwewq0;OOOO=;00q0;=OOOO&**55&O&Oc6c%&O&4&OO4*&O=zNc95                                                       ",
"   vzOO:w0OOOO==O===::wttw:;=OOO=;:;==OO;&OO&*45*OO9&469O&*%&O4*&O;9c9x5                                                        ",
"   7c8OO;e:;OOOO=O==;:qwytqq:;OOO==OOO=:;=&OO&*z&O&*49*&O*5*OO&&*=5blc8                                                         ",
"    MlOOO:w0;OOOOOO===;qeytq0:;OOOOOO;:0=;:&OO&&&O&4465OO&4OO&O*;OlzNz                                                          ",
"    xc==OO=q::;OOOOOO==;qetq0:;=OO=O;qw;;0q0*OOOO*4&665OlOO&O4O=O6bNc8                                                          ",
"    8b;=;OO=q0;;0OOOOO=;0w0:;==OOO::=0;=;qeq0&OO&*&9465*OO&OO&=;=7vNx6                                                          ",
"     M;=0=OO=0w0===OOO==0====OOO;;::;===;:wtq:&O&OO*&466*OOO&O;=6bAc7                                                           ",
"     b=O;;O;OO;qw0:;;;=OOOOOOO0;=;O+==:=O;:wtw:&OOOO&*5654&OO==5bvN95                                                           ",
"     9xO=0;O:=OO;0ew0;=;000:;::;OOO=;:q0;=;0weq;O&OOO9454*&OO=O6bMM7                                                            ",
"     7zOOq0;O0;=O=:0wq0:0OOOO=O===:0qetw0;=;0we0OO&&&%*4*&O=OO=lxAl                                                             ",
"     59=O=e0;=q;OOO;:qwee:;==OOO==;:weyte0;=;:ww=O&4*&OOOOOO==6bxN8                                                             ",
"      7=;O;te:qe;OOOO=;:0qqq=====;:qqetytt0;=;:q;OO&54*&OOOOOOlxMx                                                              ",
"      6O0=O:qtq00:;=OOOO===;:;;;;;;:0qetytw0;=;0q;O&454*OO=:O6bNM9                                                              ",
"      4O:;=O;0wew:;0:;==OOOOOO=;;;;;:0qetyt0q;=;0:=O&**=O=0;O7NA97                                                              ",
"       O;0;=O=:qew:=:q:::;;:;OOOO=;;;;:0etee;0;O;0;OO==O=0:O5bSM7                                                               ",
"       ==;0:=O=:0:q:O===;:;;:;;OOO=====;::0wq=:=O;:;OOOO:;=O7Ac9                                                                ",
"       ;O=:0:===;;=0===O==;:qqtw0;==OOOO=;=;0:=;O=:;OO==;=O5bN74                                                                ",
"        O=;:q:OOq:;OOOOOO=O=;:wttw0;==O====O=::=OO=OOOOOOOOlNz4                                                                 ",
"        O;:;:w:=:ew0:=OOOO=OO;:0qttw0;OOOO==OO;:=OOOOOOOOO7NM74                                                                 ",
"        O=;::qe0O0eytw0:=OOOOOOOO:qwtw0;OOO==OO=;=O=OOO0O=bM94                                                                  ",
"        =O=O=:tw=O;qeyew0:=OO==OOOO;:qtw0=OO===O=;=OOOOO:=bzl4                                                                  ",
"          O=;=:et:===;:eyyyewqq00;;;=O=::wtw0;;=OOOOO==:=O;Ax                                                                   ",
"          =O;:=:ytq:=00wwtyyttewq00;=OOOO;:0wewq;==OOOOO:=Obx                                                                   ",
"          =O=;:;yutwwwweewtyyytttq0:;==O==O=:0et:;::;=OO=;OOl                                                                   ",
"          =O==O=tuiuttttyeeeuyyutteq0:;O=OOOO=:wq:=;::;;O=OO9                                                                   ",
"          O=:;;=qtuVuuuyueetiuuuuuytewq:=OOOOO=;ee0:==;:;=OO8                                                                   ",
"          =:q0:0wtyiCCViuytuiiuuuuuyreq:;=OO===:weew0:;==:;O6                                                                   ",
"         =;0ewewqeyuiCCCViiiuuuiiiiuyttewq0::0qwwqq0wwq0;OOO5                                                                   ",
"        =;:etyttqetuuiVCCCZZZZCCCViuyttewqq::::;;OOO=:wtw0;O4                                                                   ",
"        ;:wyuyteetyiVCCZDZViiiuuytewwq0::;;=OOOOOOOO=;:qew0;O                                                                   ",
"        :qtutwqqtyuiVCZZCZDZCViuytteeq0:===OOOOOOOOOO===;:00=O                                                                  ",
"        =::q0qqeiCCViuyteeetyiViuywwqqq0:;==OO==;:0:;=OOOO=;;O                                                                  ",
"         =;:::tiViuyeewqq000000wwqeetttq00:::qweyyttewq0;OOO=O                                                                  ",
"         ==;0tuCyeq:;;:::00weyyyyyyyyyyyyyyytewq00qwetytwq;OO=                                                                  ",
"          =:euCuw0:;;;:0wetyuiViVVVViuytewq:;;::0:;=;00wetyq:==                                                                 ",
"         =;quiyw====;0wtuVCZDDZCViuytewqq0::;;;=q:qwq0;=;:qyeq;=                                                                ",
"         ;0tyt0;=;0wwtuCVCViuytewq0:::;;;;;;;==;O=;:0qwq:;O;:qw0                                                                ",
"         :wye:=O0weyuiuyteewq0::::::0q0qq0::::;;=OOO=;::0q0;OO==                                                                ",
"        ;0e:=OOOqeyyteww0::;;:00qwweettteeeewq0:=OO=OOO=;:0w0;=O                                                                ",
"        :w:;OOO=eyytqq0w0:=;wtttuuuuuuuuuuuuyteq:;=O===OOOO=:0;O                                                                ",
"        ;0=OOO=0ytwq::w0;=:wttuuyteeeeewetyuiuytq:;OO=;;:;=O=;=OO                                                               ",
"        =;=OO=0ewq0;:q0;;qttuuyttwqqweeewwetyuiiyte:;OO=;0q0;;==OO                                                              ",
"        O=OO=:qt::;0w:;;0tyyytqqq::;=OOO=;:0qwetuuytq;OOO;0wwq:;=OO                                                             ",
"         OO=;qeq=O:w:;;:ewttw0:;;=OOOOOOO====;:0wetutq;=O=:wytww0;=                                                             ",
"          O=:qq:O;q0;=;qewq0:;:0000:;=OOOOOOO===;;:0wteq;=O;qtytw0;                                                             ",
"          O;0;;O;q:=O;:eq0::;;==;:0;=OOOOOOOOOOO===;:qqye;O=;0tuew:                                                             ",
"         O=;=OO=w:=O;0w:;=OOOOO==0;OOO=OOO=;;===OOOO=;;:q:;OO;0eye0=                                                            ",
"         O=OOO;:0;O=q::;OOOOOOOO:=OO;=OO=;::0000:::;=OO=;:0;OO=:wtq;                                                            ",
"        O==O=;:q;O;0:=OOO====O=;OOO=:=O=:00:;;::qweq0:===;::==O=:qwq=                                                           ",
"        OOO;0:;qO;;=O=;:0q0:;=O=OOO;0=O;00;=OOO=:qwttwwq:=;;;;OO=;0w0=                                                          ",
"        O=;:;=q:OOO=;0qwewq0:;=O=O=:q;O==;=OOOOO;0qeeytwq:==;::OO=;:q;                                                          ",
"       O;::=Oq:=O=;:qq0:0qq0::;;O==;0:=OOOOOOOOOO=:0qweeeq:=O;;:=O=;::                                                          ",
"       ::;==q:=O=:::;===;0:;::0:;O=;q0:;=;;;;=OOOO=:00qweeq:;===;=OO=;                                                          ",
"      OOOO::OO=;q00:;;;==OOO=;00wwwqwwwwwqqqwwwq:=OO=;0qqwweq:;=;OO=;;=                                                         ",
"        O=;OO=:q0;;=OOOOOO=;;::ww::qqq00wwww::::;;=O=;:00qqwewq:;;=O=:;O                                                        ",
"        OOOO=;qw;=;;==OO=;:==::w0:;;=;:000000;;==OOOOO=;:00qqweq::;=O=:;O                                                       ",
"       OOO=;:q0:=;:;=O=;::;=;;:0;=O=;;;;======OOOOO===;:::;:0qwew0:==O=:=                                                       ",
"       O=;:ww::=;0;=O;::;=O=;00;OO=;;;===OOOOOOO=;::0:::;=O=;:qweq0:==O=;O                                                      ",
"     O=:0:ww0;=O0;O=;:;=O=;::;=OO=;=OOOOO=======:::;==OOOOOOO=;:0qqq:;=O==O                                                     ",
"     O::ww0:;=O==O=;:=O=:0:==OO=;=OOOOOOOOOOOOOOOOOOOOOOOOOOOOOO=;:00q:=OOOO                                                    ",
"    O;:q0:;=OO=;O=;:=;:0:=OO=;;=OOOOOOOOOOO@@@@@@#@X##$#XX....OOOOO=;:q::;=O                                                    ",
"    =::0==OOO=;=:O==;0:;===;;=OOOOOOOOO@#>,$@@#$<23>#>,1,$#@.XX.@@OOO=;q0:;=O                                                   ",
"    ;;;=OOOO=OO====;0=O=;:;=OOOO@@@@@$#,13p2,@#,2dga2#@>$3d1$#,<...##XO=:w0;=                                                   ",
"    :==OOO==OO=:;00;=O=;:;=OOO>@@,,,#>>2pssgs,@#akHhs1$@1aga<#$.....$#XOO;w0;O                                                  ",
"   O;=OOO;=OO=:::0;==;:;=OOOO,@@@#@>@@,<13ps2>#@agkhgs2@3djd2@..$,$.....OO::0=O                                                 ",
"   O=OOO;=OO=::::;=;::;=O@@>@@@,,<,@@@>#####$#@#,12231,@,1sp,XX>12<,@,<>@OO;0;O                                                 ",
"   OOO=:;OO=::::==;::;=O@@<,@@,2da2>>@@@231,$#@>pp2<,$$#,<>$#@##$,<$@<<1>@O=0:=                                                 ",
"   OOO;=OO;:0:;=O;::;=OO<32@@<3djgp,$@,,3dg3<#>2gGs1@><3dp2$<1p2>#>,>$331@OO00=                                                 ",
"   OOOOOOO;;OOOO=;:;=OO,2a1>@,2gsp,$@,,adgda3,<pgGap@>2dfdp<2pss2##3<$#$$#OO0;O                                                 "
};
