/* XPM */
static char *_3b6878924164a9284ff2bfe8bfc0d89auyeg2D6ocfh755D[] = {
/* columns rows colors chars-per-pixel */
"128 128 45 1 ",
"  c black",
". c #040404",
"X c #1B0F08",
"o c #0D1809",
"O c #141004",
"+ c #2F0000",
"@ c #370000",
"# c #26140B",
"$ c #311B0E",
"% c #3D1F0E",
"& c #3D1010",
"* c #430000",
"= c #4F0000",
"- c #5B0000",
"; c #670000",
": c #730000",
"> c #7F0000",
", c #412312",
"< c #4A2513",
"1 c #532B13",
"2 c #572F17",
"3 c #4B3210",
"4 c #543B17",
"5 c #5F331B",
"6 c #673B1F",
"7 c #5A2421",
"8 c #5F431E",
"9 c #674B26",
"0 c #734323",
"q c #7B4B27",
"w c #8B0000",
"e c #9B0000",
"r c #A70000",
"t c #B90000",
"y c #CA0000",
"u c #DC0000",
"i c #ED0000",
"p c red",
"a c #F40E03",
"s c #FF3F00",
"d c #FF2E2E",
"f c #83532F",
"g c #8F5B33",
"h c #97633B",
"j c #FF5F00",
/* pixels */
"                                                                                                                                ",
"                                                                                                                                ",
"                                                                                                                                ",
"                                                                                                                                ",
"                                                                                                                                ",
"                                                                                                                                ",
"                                                                                                                                ",
"                                                                                                                                ",
"                                                                                                                                ",
"                                                                                                                                ",
"                                                                                                                                ",
"                                                                                                                                ",
"                                                                                                                                ",
"                                                                                                                                ",
"                                                                                                                                ",
"                                                                                                                                ",
"                                                                                                                                ",
"                                                                                                                                ",
"                                                                                                                                ",
"                                                                                                                                ",
"                                                                                                                                ",
"                                                                                                                                ",
"                                                                                                                                ",
"                                                                                                                                ",
"                                                                                                                                ",
"                                                                                                                                ",
"                                                                                                                                ",
"                                                                                                                                ",
"                                                                                                                                ",
"                                                                                                                                ",
"                                                                                                                                ",
"                                                                                                                                ",
"                                                                                                                                ",
"                                                                                                                                ",
"                                                                                                                                ",
"                                                                                                                                ",
"                                                                                                                                ",
"                                                                                                                                ",
"                                                                                                                                ",
"                                                                                                                                ",
"                                                                                                                                ",
"                                                                                                                                ",
"                                                                                                                                ",
"                                                                                                                                ",
"                                                                                                                                ",
"                                                                                                                                ",
"                                                                                                                                ",
"                                                                                                                                ",
"                                                                                                                                ",
"                                                                                                                                ",
"                                                                                                                                ",
"                                                                                                                                ",
"                                                                                                                                ",
"                                                                                                                                ",
"                                                                                                                                ",
"                                                                                                                                ",
"                                                                                                                                ",
"                                                                                                                                ",
"                                                                                                                                ",
"                                                                                                                                ",
"                                                                                                                                ",
"                                                                                                                                ",
"                                                                                                                                ",
"                                                                                                                                ",
"                                                                                                                                ",
"                                                                                                                                ",
"                                                                                                                                ",
"                                                                                                                                ",
"                                                                                                                                ",
"                                                                                                                                ",
"                                                                                                                                ",
"                                                                                                                                ",
"                                                                                                                                ",
"                                                                                                                                ",
"                                                                                                                                ",
"                                                                                                                                ",
"                                                                                                                                ",
"                                                                                                                                ",
"                                                                                                                                ",
"                                                                                                                                ",
"                             ;                                                                                                  ",
"                             >                                                                                                  ",
"                     :      w*                                                                                                  ",
"                     >      r-     w                                                                                            ",
"                     :   :  >a;=   r-                                                                                           ",
"                     y  e* =;ste;>ete>                                                                                          ",
"                w   wt  a:>rsjsuyrasse                                                                                          ",
"                y  -r; :jat:%%%,%$Xeua                                                                                          ",
"               we -a>;:taw$%,<5<<,<,%y  :                                                                                       ",
"               e  >se:r$%$%2021,,,<2,t e>                                                                                       ",
"               a:ra:r><<6062<<,,1122<ywt                                >     r                                                 ",
"               sssyr<5601<<,<%,121,11iy>                          >:   w       t                                                ",
"               sr>,,251<%$%$#$1222,$1yw                           t-  ;r      eu                                                ",
"              ea%,,133$$####$$,<<<%$<e                               -es-  ;rsae                                                ",
"            ;>sr<<<,$$##,#XX1#$1,$#<>:                          ;;    yatwetasye:                                               ",
"        ; ;-ar#,1,,,$$#$,$$#X2%####1y-                          ;r;  ;atsrr%,rrrt                                               ",
"        e-wsr%,111$,,3$#$$$,X<###X:t-                           t: *:esur,<121<$j:                                              ",
"        -rer#,121<%#$$#$$##,%#5#Xtw                             y--eysr,155,2%<,rse                                             ",
"       =:ar$%<<1%%%,$$#12$$$55#wa>                              >sraur15562<<,<1$rr :                                           ",
"       -aet#$,<1<%,,3%$#10<5q#-s>                          wiw  rjsye<1562<<,,<1%$a t                                           ",
"       >syy$%,<211,,,1,,$2q0#-a>>             ;     r      ;yyrrast:%<505<<,222<,%s e:                                          ",
"       :tsu$,,,,<1,%$,$%$$2%Xe>;r    :    >>   ;    a       >pssjr%,<2062<#$<152,%j ;>                                          ",
"       -esi$%,<,211,%$$<,%#*:u=t:    w   ;w   >t   rs      :rsjar%<<2602<,X#$<12$$s :t                                          ",
"        >ps$$,<,<2<<%$#%11;:ry-er  ;wr  -e- wrsw  rjiw     tsjyr%%,26062,##$$#$%X<u:>r                                          ",
"        ;is$#,,<,211,$$#,2>eir>:ertypie;t: rsjpt-eadsr    :s>s>%<156062<%$$,,$XX#,yutw                                          ",
"         uj$%,,<,<211,$#X%2rruyrusjstrrtuissjsteetypiy   :aeyr$,,56q62<<%,,11$XX%$tae                                           ",
"         ys$%,<<,,<21<%$##$2r>%#$###########$$$%<%$rupt>;stt>$,<56q06522<,2,$$#X%;ar:                                           ",
"        ;ty$%,,,%,,121,%$###%e:o%.#OX#$$X##$%<252,1,$ryeuy>$##$$,,,<,,<,<1,,,$#X#ye                                             ",
"        :it$%,%,%%,122<,$$,1<%t;<$O#$XX##%,15656q052<%rie>%%,12566652,2<22,%##XX:r                                              ",
"        wpr$%%%,$$,<<111,$$$%21y>;%<2<%$<2660651%,2rruur#$,<,<,%,%%<1$15<#5<#$#Xr>                                              ",
"        euy#$%$,$$%,,<21$$%$%<25rw:-56660q06626062ruyr%%,<,5651,,,%%$%$,5<#2,##%>r                                              ",
"        >ta#$%$$$$$%,<11111<<<1<6>ete:$%<1521<1,wry-$%,<,160q61,<<,$$$1$,2,#<#orte                                              ",
"        -wi#%<1<21<,%%$#XXX#$%64$15,##@*+########$,<<1250qq62%<1,$$,1252%$XX#Orte                                               ",
"       -eay,<222%#XXXX##X#%<156q2%16,%$######$%%<11<560qf062,11,$$%<2601$#X#.:is>                                               ",
"       wwr#<21,#XXXX##,12566525605%2521<,%%$%,<<,2550qff002<2,<$$$%10f6%#$#o;tyy                                                ",
"       r;r$2,#XX##,125662<$%,<15061<%,<12<<,%,,<480qqfq002<,%$$$$$<6q6%#$%,:epee                                                ",
"      wa>r%$%$,,$,1<,%$$##XX#%15062%150fq06621549ffff0651<,$####$,105%#$%,$wpy>                                                 ",
"      ear$#%%1<,$$###XXXXXX##%165<,$5qffggf0qqqfghhfq61,,%$##$#$%151%#$#,$:ua:                                                  ",
"      tsr%%11$##$###X#$#X#$$$,121<$%6fghhhhhhhhhgfqq61,$$##$$%%##$,$#$#$%7rs;                                                   ",
"     ;ar,<1,$##$$#$$,,112<,,<252<,#$0fghhhgfq06606521<,$##$$%,%##$%###$,&ea>                                                    ",
"  -  rr%<%##X###<12125221<,<552<,$X#6qfgfq65211<,,<1<,$$###%<<%#X####$,&raw                                                     ",
" -- ;r$%%#X#$$,<1<%$#$%<1<<152<,%XX#26qgfq0651,%$$$$$$$#X##$,,$XX#,##%&ra>                                                      ",
":r  e%%$XXX$,111%$##$%<211152<,%$XX#1<55521<,$$$X####$###$,$%$#X#,##$&rws;                                                      ",
"ea :a,##XX#<<<%$##$$$2151251<,%$XXXX,,,<,,,%$###XXXXXXX#$$$#X#X#,%,$wae;a:                                                      ",
"tj es$#X#$,1%$###$$,2226552<,%$XX#XX%$$$%%%%$##XXXXXXX##$%##X###,,$wst;a>                                                       ",
"usear$$%,<<%$###$,%,225655<,$#XXXX#X,%$%%,%%$##XXXXX###$$%%$#XX%<%:usty:                                                        ",
"ijsr%%,,<<%##XXX,,,<126651<$#XXX##XX<<#$%,,%%$$##XX#####X#$%,#X,1$rure                                                          ",
"ruir$,,,1%#XXX$$%,,<166551,,#X#$$$X$,1##%%,,%%%$####$,$$%$#XXX%5,#u:                                                            "
};
