/* XPM */
static char *result[] = {
/* columns rows colors chars-per-pixel */
"128 128 50 1 ",
"  c black",
". c #040404",
"X c #1F0404",
"o c #1B0F08",
"O c #141004",
"+ c #270000",
"@ c #2F0000",
"# c #370000",
"$ c #26140B",
"% c #311B0E",
"& c #3D1F0E",
"* c #3D1010",
"= c #430000",
"- c #4F0000",
"; c #5B0000",
": c #670000",
"> c #730000",
", c #7F0000",
"< c #4C2403",
"1 c #542800",
"2 c #412312",
"3 c #4A2513",
"4 c #532B13",
"5 c #572F17",
"6 c #4B3210",
"7 c #543B17",
"8 c #5F331B",
"9 c #612F02",
"0 c #673B1F",
"q c #5F431E",
"w c #734323",
"e c #7B4B27",
"r c #8B0000",
"t c #9B0000",
"y c #A70000",
"u c #B90000",
"i c #CA0000",
"p c #DC0000",
"a c #ED0000",
"s c red",
"d c #F40E03",
"f c #FF3F00",
"g c #FF2E2E",
"h c #83532F",
"j c #8F5B33",
"k c #97633B",
"l c #FF5F00",
"z c #FF7F00",
"x c #FF5B5B",
"c c #FF9F00",
/* pixels */
"                                                                                                                                ",
"                                                                                                                                ",
"                                                                                                                                ",
"                                                                                                                                ",
"                                                                                                                                ",
"                                                                                                                                ",
"                                                                                                                                ",
"                                                                                                                                ",
"                                                                                                                                ",
"                                                                                                                                ",
"                                                                                                                                ",
"                                                                                                                                ",
"                                                                                                                                ",
"                                                                                                                                ",
"                                                                                                                                ",
"                                                                                                                                ",
"                                                                                                                                ",
"                                                                                                                                ",
"                                                                                                                                ",
"                                                                                                                                ",
"                                                                                                                                ",
"                                                                                                                                ",
"                                                                                                                                ",
"                                                                                                                                ",
"                                                                                                                                ",
"                                                                                                                                ",
"                                                                                                                                ",
"                                                                                                                                ",
"                                                                                                                                ",
"                                                                                                                                ",
"                                                                                                                                ",
"                                                                                                                                ",
"                                                                                                                                ",
"                                                                                                                                ",
"                                                                                                                                ",
"                                                                                                                                ",
"                                                                                                                                ",
"                                                                                                                                ",
"                                                                                                                                ",
"                                                                                                                                ",
"                                                                                                                                ",
"                                                                                                                                ",
"                                                                                                                                ",
"                                                                                                                                ",
"                                                                                                                                ",
"                                                                                                                                ",
"                                                                                                                                ",
"                                                                                                                                ",
"                            :ryidfllfdd,:                                                                                       ",
"                          :,tdlu,:-;>,ryuyr:                                                                                    ",
"                         :rdfu=-%%%&%$o=:tfyr                                                                                   ",
"                       ,tidu#-$%&2522&2&%:fzdt>                                                                                 ",
"                    ;,tuif,$%$%404322234&=if-,:,                                                                                ",
"                  ->riifu:2280842322--;;=#dy:  >                                                                                ",
"                 >ryiai:258043323&2-;::;=>,fr;  :                                                                               ",
"                ,tify:&&4843&%&%$#-;;tuf;t:ty:   >                                                                              ",
"                yfu:%&2466%%$$$$@@=-;uzzyi;>f>                              --,tr>;-                                            ",
"               rl>;&2332%%$$2$oX-$@;-pzcft- ,d                            ->rtddfiyr>                                           ",
"              >y;o&24222%%$%2%%$X;#=dd,fzir  t>                          :rydt>%:rupayr                                         ",
"             >yd%&3544%226%$%@@=o=::flr;uld  >td                       riffd>&2332$:upur                                        ",
"             ,ir&35543&$%%$@@++=#+;=:tft:yl    ,t                     ,utd>&3552%2&$;yftr                                       ",
"             ti$2344&&&2%%$-;#++;;-->>yptrf    y  y                  :ftf:358053223%$;yfiy                                      ",
"            :tpo23443&226&%+-:=;,ld;,;r:ard  ruat                  =-rfi:2380533233&%$>afpr                                     ",
"            :ul$23544422242=@->:>df>;;: ;>i;   u                  --,ly:&38w83325532&%-plsu,                                    ",
"            >if$2224342&%2%&@+-d,r>dit;  ;pr;  ,   u             ;d,f:%235w053$%4853&%=uflat                                    ",
"            ,ff$&3235442&%%32@X:fyr:=,u   ,ir;      ,yr   r     :d,fd%2350w532o$3452%$-ylflpr                                   ",
"            iaf$&3223533&%$&43+>du>   ,y   rppipyr    >t,      >frp:%%250w052$$%$%&%o%,iityfu,                                  ",
"            apl$&23225442%%$24-+,d= ,  r     ,tyut,           --fp;%2480w053&%%2%ooo$&tf>->id,                                  ",
"            spz$&23&235442%$o%4-+,;,t, >yr       ,t          ;>fp;$&280e0533&224%ooo&$ilr: yu,                                  ",
"            aic$&33&223543&%$o$4-+d ,    :ry>  t  u   ,    -:rdp;$&380ew08553252%$o$%:pfi  rt,                                  ",
"            auz$&222&224542&%$oo%-:d   y    :,  , ,t     -;,yr:$o$%%222322323422%$o&$yitpr  ,,                                  ",
"            pul$&&23&&245532%%232%-@,yrp>             -:,tdft;%%245800085253552&$oo%:pt-,y  :,                                  ",
"            pif$%&2&%%2334442%%%%434@rizur:>,rtydflffdyuify:$%23232&2&&34%483$83%$o;iu>: r   :,                                 ",
"            iapo%%2%%%&22354%%&%&2453@xczsit,tr,;;;:,tudt>%&2328084222&&%&%283$5$$%yfdt>   ,  :,                                ",
"            tfyo%%%%%%%&23444443323283Xxy,;-@=@@@@##=-=o$%&3240we042332%%%4%252$$O:pldut>      :,                               ",
"            tly$%$%$&22244554322&&2%30&oXX+@#####@@@+Xo$%2248wehw52342%%2343%$4$$>iay   ,:                                      ",
"            tfro23225432&&%$ooo$%&06$35&ooXXXoooooooo$&22358wee05&342%%24585&%ooOtp,:    r                                      ",
"            yd>&5442&$oooo$$o$&3480e5%38&%$ooooo$%%&233380wehw052442%%&350w4%$o$-uy:  r                                         ",
"            uio23&$ooooo$$2458008580w8&45432&%%$&2222588wehhww53523%%%&4wh0&o$oOfir  rdr                                        ",
"           ,dy$4$oo$$$24580053%&2348w043&234533222367qweeheww532&%%%%%30e0&o$%&=pf,   r                                         ",
"         tdft$o%322&%%$$$oooooo$$&40832%8ehhjjhweehhjkkhe0422&%$$%$%&484&o$o&$=tpfdt:                                           ",
"        rptl>%%3%$$%%$$$o$%$o$%%%24543%&0hjkkkkkkkkkjhee042%%$$%%&&$$%2%o$o$%*tir>rupyr                                         ",
"        yul>&232$$%%%$%%22445322358532$%whjkkkjhw00ww085432%$$%%&2&$$%&$oo$&*,uap    ru                                         ",
"       ,pl>%2%$$$$$&34545855432388532%o$0ehjhe084433223432%%$$$&33&$o$$oo$&*;updp     yy                                        ",
"       yi>$%%$o$%23443&%$%&343348532&oo$50ejhew042&%%%%%%%%$o$$%22%oo$&oo%*;yyff ip    r,;                                      ",
"       yu%%$ooo%4442&%$$%&354448532&%oo$43888543%%%$o$$$$%$$$%2%&%$o$&oo$*:pyrdf    u                                           ",
"      ,ur&oooo$33&%%$$%%%548458432&%oooo2223222&$$$oooooooo$%%%$o$o$2%&$=,aiitrf                                                ",
"      yu>$oo$%&3%$$$$%%2555088532&%oo$oo&%%%&&&&$$oooooooo$$%&$$o$$$&&$-tu:  r,fpt,                                             ",
"     ,yd;$%&&22&$$$%%2&255808832%$oooo$o2&%&&2&&$$oooooo$$$%%&&%$oo%2%-ti:    >s  yt                                            ",
"     ,yf%%&&22&$ooo%22234500843%$ooo$$oo33$%&22&%%$$$oo$$$$$o$%&2$o&3$:it     >py >u                                            ",
"     ,yl$&&&3&$oo%%%&22340088422$o$%%%o%24$$&&22&&%%$$$$%2%%&%$ooo%5&orp   d  >y  rt                                            ",
"     ,ylo$%%$$oo$%%%&223488544&%$%&3&%oo&4$$%&&22%&&%%%%%%&2332%o$&8%-uu  yfy  r  ,;                                            ",
"     ,yfo$$%$$oo%%22&22348544&&$2354&&$o$3&$$%&&222&&$%%%%$$2&%oo%25$-li dfzfd :p r                                             ",
"     ,ya;ooo$o$$%%2%22234534242448532&%$o&2$$$%%&2222%%$$$%o%%$o$252o;za  yfy   tiit                                            ",
"     riyr=ooo$$%&%$&2&234443434584322%o$o%4$$$$$&&22%%%%%$oooooo232&o:czy  d     ,,piyy                                         ",
"     ,uyu;oo$$%%&&%%%&23344544584322&%ooo$3%$$$$%%&%%%ooooooooo%43&%$,zcly       >r   tt                                        ",
"     :,yr=oo$%%&%%%%%&223345468432&%%oo$o$2&$$$$$%%%%%$oo$ooooo&&&%$-tlzcfy      ,i     t                                       ",
"      ya>o$$$%&2o%%&&&23345448833&%$ooooo$%32$$$%%$%%%ooooo$ooo$$o%o>azgzcfpas    y>     t                                      ",
"     :pro$$$$$&$$%&2&223454488432%$ooo$%%$$%3$$$$%%%%%ooooo$oo$$o$$oaluyiszd  a    y:    t                                      ",
"     tf:o$o$$o$o%&&&222354454322&$oo%&&%$$o$$2$%%%%$%ooooooo$%&o%%o>lp    ala p     y                                           ",
"     iz#o$$$oo$$&&&22234553332&&%o$%&%%o$&oo$2%$o$$$ooooooo$&oo$$$-yfu    talyp                                                 ",
"     yc=o$$oo$$%22&2234543&%%&&%&232&$o$2%$oo$%$%$$oooo%oo$2%oo$o$:ds      ttgu                                                 ",
"     ,l;o$oo$$%&22&234542&%%&22353&%$o$%&$oooo$$o$ooooooo$&3$ooo&<dfr       yys                                                 ",
"     :frooo$$%&22222354432%&234532%oo$%&$$oooo$%oooooooo%%4$oo$&%9fdy>      iyr>                                                ",
"     ;di:o$$$%&22&254333322235842$oo$&&$ooooooo$%oooooo$&4%o$%&3$9lyar      ar r                                                ",
"     -udoo$$%&22%%2233333334854&%$oo$&%$ooo$%$$o2$oooo$&3&$o%&4&o1f,py      sr ,                                                ",
"     -ylo$$%%&2%%%2222%2245053&$ooo%2%$$oo$%&&%$%2$oooo%%oo$&42%o9fyp,      p,                                                  ",
"     -yzo$$%%%$o%%%22%2335532%$oooo%&%$ooo%2&%%%o%2$oo$oooo$%2&$o-dpt       uir                                                 ",
"     -dloo$$$$$%2%%%2%225522%$ooo%$$$2ooo$&&%$%&o.$$%oo%&%$oo$$o-,pt-        >rt                                                ",
"     >ffoo$oo$%&22222%%%2%%$oooooo%%%%$oo%&%$%23%OO$2%o$&2&%$ooo:ti-            r                                               ",
"    >,ltoooo$%2%2%%%%%%%%%$oooooo$$$oooooo%$%&453$OO%2%o$&232&%$>pt-              >                                             ",
"    ,df:ooo$%222%%$%$$$$$ooooo$%%$$ooooooo$%&4582%$OO$&o$o$$$$$orsy-                                                            ",
"    uf-$%%&32%$$$$$$$$$$%&2&343&$ooo$%%%$ooo$%2&ooooooo$$$oo$$o;psp:                                                            ",
"   ,ldo%%&42&%%%$$$$$$$$$%&353&%o$$%2343%$ooooo$ooo$%$Ooo$o$oo-uffsy:                                                           ",
"   tf:$243&%%%%%oo$oo$%%%&343&%%%&334433%%$o$oooo$$%&$oooo$%$o,aflfat,                                                          ",
"  ,yu$&3&%%$$$$$o$$$$%%&33433&&&3344332&%$$$$$oo$$$$$$ooo$%$o;ufspflpt                                                          ",
"  ,d,%2&%$$$$ooo$$$%%%&3333333334332%%%%$$$$ooo$$$o$oooo$%$o-ufuttuffu,                                                         ",
"  rf:&%$$$$oooo$&%%&2&33454434433&%%$$$$oo$ooo$oo$$oooo$%$o,py,:   tufr                                                         ",
"  ta$%$$$ooooo$%&&&334555805483&%%$$$$oooooooooooooooo$%$o-yy,      tpt                                                         ",
" >yu$$$oooo$$%%&33345580058553&%$$$ooo$$oo$$%&&%ooooo$%$o$>ir        iu                                                         ",
" rdr$$ooo$%%%&34580080888554443&%%%%%%%%%$$$$%&&%$ooo$$ooo-iu>   r   yu                                                         ",
";rf:$oo$%&335555585444443322333322222&&&2&&%$ooo2%$oo%&23&%tpt- rur  >t                                                         ",
":yz-oo$%335553333333332&%$$$$oo$$$$%%%$$$%%&&%$$%&%$o$o$%%$:pu-  r    ,                                                         ",
">yl>$%%345533&%2&&&%$oooooooo$$$$$ooooooooo$$%%%$$%%&2&&%$o,pt-        >                                                        ",
",,dt$%255433%%$&%$oooooo$$$$$%%%$%%$$ooo%$oooo%&2&%$$$oooooti,-                                                                 ",
":yu;%25433&%$$$$ooooo%%%&&&&&&&2222&&$$oo$%$ooo$&33&%%$ooo*pt;                                                                  ",
";a,$2343&%$$$$$ooooooooo$$$$$$$%&&22&&%$$oo$%$oo%&&332&$oo,t-                                                                   ",
"->y$33&%$$$$ooooooooooooooooo$$$$%%%&$&&%$$oo$$o$$$$$oooo;-                                                                     "
};
