/* XPM */
static char *_a82f180633b41e7917cd931bf4bfebbehqUbDz2QRSxzSOP[] = {
/* columns rows colors chars-per-pixel */
"128 128 42 1 ",
"  c black",
". c #040404",
"X c #1B0F08",
"o c #141004",
"O c #370000",
"+ c #26140B",
"@ c #311B0E",
"# c #3D1F0E",
"$ c #3D1010",
"% c #430000",
"& c #4F0000",
"* c #5B0000",
"= c #670000",
"- c #730000",
"; c #7F0000",
": c #412312",
"> c #4A2513",
", c #532B13",
"< c #572F17",
"1 c #4B3210",
"2 c #543B17",
"3 c #5F331B",
"4 c #673B1F",
"5 c #5F431E",
"6 c #674B26",
"7 c #734323",
"8 c #7B4B27",
"9 c #8B0000",
"0 c #9B0000",
"q c #A70000",
"w c #B90000",
"e c #CA0000",
"r c #DC0000",
"t c #ED0000",
"y c red",
"u c #F40E03",
"i c #FF3F00",
"p c #FF2E2E",
"a c #83532F",
"s c #8F5B33",
"d c #97633B",
"f c #FF5F00",
/* pixels */
"                                                                                                                                ",
"                                                                                                                                ",
"                                                                                                                                ",
"                                                                                                                                ",
"                                                                                                                                ",
"                                                                                                                                ",
"                                                                                                                                ",
"                                                                                                                                ",
"                                                                                                                                ",
"                                                                                                                                ",
"                                                                                                                                ",
"                                                                                                                                ",
"                                                                                                                                ",
"                                                                                                                                ",
"                                                                                                                                ",
"                                                                                                                                ",
"                                                                                                                                ",
"                                                                                                                                ",
"                                                                                                                                ",
"                                                                                                                                ",
"                                                                                                                                ",
"                                                                                                                                ",
"                                                                                                                                ",
"                                                                                                                                ",
"                                                                                                                                ",
"                                                                                                                                ",
"                                                                                                                                ",
"                                                                                                                                ",
"                                                                                                                                ",
"                                                                                                                                ",
"                                                                                                                                ",
"                                                                                                                                ",
"                                                                                                                                ",
"                                                                                                                                ",
"                                                                                                                                ",
"                                                                                                                                ",
"                                                                                                                                ",
"                                                                                                                                ",
"                                                                                                                                ",
"                                                                                                                                ",
"                                                                                                                                ",
"                                                                                                                                ",
"                                                                                                                                ",
"                                                                                                                                ",
"                                                                                                                                ",
"                                                                                                                                ",
"                                                                                                                                ",
"                                                                                                                                ",
"                                                                                                                                ",
"                                                                                                                                ",
"                                                                                                                                ",
"                                                                                                                                ",
"                                                                                                                                ",
"                                                                                                                                ",
"                                                                                                                                ",
"                                                                                                                                ",
"                                                                                                                                ",
"                                                                                                                                ",
"                                                                                                                                ",
"                                                                                                                                ",
"                                                                                                                                ",
"                                                                                                                                ",
"                                                                                                                                ",
"                                                                                                                                ",
"                                                                                                                                ",
"                                                                                                                                ",
"                                                                                                                                ",
"                                                                                                                                ",
"                                                                                                                                ",
"                                                                                                                                ",
"                                                                                                                                ",
"                                                                                                                                ",
"                                                                                                                                ",
"                                                                                                                                ",
"                                                                                                                                ",
"                                                                                                                                ",
"                                                                                                                                ",
"                                                                                                                                ",
"                                                                                                                                ",
"                                                                                                                                ",
"                                                                                                                                ",
"                             9     =                                                                                            ",
"                             qe0  =9                                                                                            ",
"                       =      9t; =w                                                                                            ",
"                      =9      0ri;iq;                                                                                           ",
"                     =q      ;iufiuuq 0                                                                                         ",
"                     -uq9-9qetiuirwiu0w                                                                                         ",
"                     ;iuew09&@@#@+X0euq                                                                                         ",
"                  9  quq0-+@#:<::#:#0i;                                                                                         ",
"              wq 9q -ew*@+@,4,>:::>,*fe-                                                                                        ",
"             wpq 0rrq-::343,:>::,,<<:iw9                                      9                                                 ",
"             tuw;eeq:<34,>>:>#:,<,:>>u;-                                      qe                                                ",
"         -   uiit9##,3,>#@#@+@,<<<#+>w=                                        9=                                               ",
"          ;  ruu@#:,11@@++++@@:>>:@+:0-                                ;       q9                                               ",
"          ; *rqq:>>:@@++:+XX,+@>#+X:9-                             =  -0  9wtwqeq                                               ",
"          09rqX#,:::@@+@:@@+X<@XXXX-q*                             9  -wq9;@#-0te;                                              ",
"          eeq@#>,,@::1@+@@@:X:XXXX99*                              u= 9qq#:>,>:+f0                                              ",
"          uqX#><,>#+@@+@@++:@X<X&w-*                               ;u;r#><<:<@:#qi- =                                           ",
"         -u+@:>,###:@@+,<@++<<X=0&                            wuq  0uq><34<>>::>+qr=0                                           ",
"         0iX+:>,>#::1#@+,4:<7XX9&                            wuq  ;uw:>34<>>::>>@+qww                                           ",
"       - 0u+@:><,,:::,::@,74XX-9       q     9w           =  tiw *0q#>373>>:<<<>#@ei0                                           ",
"       0 -e+#:::>,:#@:@#@+,@X9w=       e    0e  ;q       qu  iqfwq@:><74<>+@>,3<#@ru;                                           ",
"       eq;q+@#>:<,,:#@@>:@X-;qu-      qi    uq   -       ie  riiq@:><47<>:X+@>,<@+uu                                            ",
"       =i0u++#>:><>>#@+#,>qu-wi9=90; ;fe0-0wii;         0fw *0iq@@:<474<:++@@+@#X:i9                                            ",
"        0uu+X#:>:<,,:@@+:,q=u;ui0;w0qeiiwqri0eir9-=     ;ii0ef0@:,3474<>#@@::@XX+#r=                                            ",
"        e9u+@#:>:><,,:@+X@,q;qreiwerifftyiiiyifiiu0;=   -ufri0+#:3484<>>#::,,@XX#+w                                             ",
"       *t;i+@#>>::><,>#@+X+,u9&X+XXXXXXXXXXX+++@:#@0i9  ;riq;+#>348743<<>:<:@@+X@;u =                                           ",
"       -rqu+@#::#::,<,:#@+XX@u-o@.+oX+@@X++@#>,<,#>#+uq;qeq+X+@@:::>::>:>,:::@+X+0w =                                           ",
"       *9ru+@##:##:,<<>:@@:>:@0=:+o+@XX++#:,3434873<>=u=0=@@:,<34443<:<><<:#++XX0u9*=                                           ",
"         9i+@@#:@@:>>,,,:@@@@,>u9=#:<>#@><44743,#:<=9q0;+@:>:>:#:##>,@,3>+3>+@+Xuu;-*                                           ",
"         -iX+@@:@@#::><,@@#@#:,<-q;-<34478744<343,-0;*@#:>:343,:::##@#@:3>+<:++@9-&                                             ",
"        =0uX+@@@@@@#:>,,,,,>>:>:3*qw;=+@:><,>:>#;q=X+@#>:,4784,:>>:@@@,@:<:+>+oq=                                               ",
"        9i0X@:>:<,>:##@+XXX+@#41+><#XX*%*XXXXXXXX+#::><37884<#>,:@@:,<3<#@XXXo00                                                ",
"        qu;#:<,,#+XXXX++X+#>,348<@>3#@+XXXXXX+@@:>>>3478a74<:,,:@@#><47,@+X+.;w-                                                ",
"        90X:,>#+XXXX++:,<3443<3473#,<,>:#@@+@#:::<3378aa77<><:>@@@#,7a4#X+Xo;q9                                                 ",
"        -9+,#+XX++:,<344<>@#:>,374,>#:>,<>>:#::>25788a877<>:#@@@@@>484#X+@#qe;0                                                 ",
"        9=@+@@##@:,>:#@@++XX+#,374<#,37a8744<,326aaaa743,>:@++++@:,73#X+@#+q-9w                                                 ",
"     0 -q+X@@>::@@+++XXXXXX++#,43>:@38aassa7888asdda84,::#@++@+@#,3,#X+X#+qu0qu                                                 ",
"    ;= 0-@@>>@++@+++X+@+X+@@@:,<,>@#4asdddddddddsa884,:@@++@@##++@:@X+X+@$q9-00                                                 ",
"    w =u#:>:@++@@+@@::,,<>::><3<>:+@7asdddsa8744743<,>:@++@@#:#++@#+XX+#$qw-9e;                                                 ",
"   =u-q@:@++X+++>,<,<3<<,>:>33<>:@X+48asa843<,,>::>,>:@@+++#>>#+X++XX+#$qu;w0-                                                  ",
"  =uiq+@@+X+@@:>,>#@+@#>,>>,3<>:#XX+<48sa8743,:#@@@@@@@+X++@::@XX+#XX@$qiu;-                                                    ",
"  =iq@@+XXX@:,,,#@++@#><,,,3<>:#@XX+,>333<,>:@@@X++++@+++@:@#@+X+#XX+$q*q9                                                      ",
"  =ur#XXXX+>>>#@++@@@<,3,<3,>:#@XXXX:::>:::#@+++XXXXXXX+@@@+X+X+:@#+-0*9=                                                       ",
"  =qq+XX+@#>#@+++@@:<<<433<>:#@XX+XX#@@@####@++XXXXXXX++@#++X+++##+;u&=&O                                                       ",
"   e;+@##::#@+++@:#:<<3433>:@+XXXX+X:#@##:##@++XXXXX+++@@##@+XX@:@;q*O                                                          ",
"   w@@##::#++XXX:::>,<443,>@+XXX++XX>>+@#::##@@++XX+++++X+@#:+X#>+0-O                                                           ",
"  =0+###>#+XXX@@#::>,4433,::+X+@@@X@:,++##::###@++++@:@@#@+XXX@<#X=&                                                            "
};
