/* XPM */
static char *result[] = {
/* columns rows colors chars-per-pixel */
"128 128 39 1 ",
"  c black",
". c #1B0F08",
"X c #141004",
"o c #270000",
"O c #2F0000",
"+ c #370000",
"@ c #26140B",
"# c #311B0E",
"$ c #3D1F0E",
"% c #430000",
"& c #4F0000",
"* c #5B0000",
"= c #670000",
"- c #730000",
"; c #7F0000",
": c #412312",
"> c #4A2513",
", c #532B13",
"< c #572F17",
"1 c #5F331B",
"2 c #673B1F",
"3 c #734323",
"4 c #7B4B27",
"5 c #8B0000",
"6 c #9B0000",
"7 c #A70000",
"8 c #B90000",
"9 c #CA0000",
"0 c #DC0000",
"q c #ED0000",
"w c red",
"e c #F40E03",
"r c #FF3F00",
"t c #83532F",
"y c #8F5B33",
"u c #97633B",
"i c #FF5F00",
"p c #FF7F00",
"a c #FF9F00",
/* pixels */
"                                                                                                                                ",
"                                                                                                                                ",
"                                                                                                                                ",
"                                                                                                                                ",
"                                                                                                                                ",
"                                                                                                                                ",
"                                                                                                                                ",
"                                                                                                                                ",
"                                                                                                                                ",
"                                                                                                                                ",
"                                                                                                                                ",
"                                                                                                                                ",
"                                                                                                                                ",
"                                                                                                                                ",
"                                                                                                                                ",
"                                                                                                                                ",
"                                                                                                                                ",
"                                                                                                                                ",
"                                                                                                                                ",
"                                                                                                                                ",
"                                                                                                                                ",
"                                                                                                                                ",
"                                                                                                                                ",
"                                                                                                                                ",
"                                                                                                                                ",
"                                                                                                                                ",
"                                                                                                                                ",
"                                                                                                                                ",
"                                                                                                                                ",
"                                                                                                                                ",
"                                                                                                                                ",
"                                                                                                                                ",
"                                                                                                                                ",
"                                                                                                                                ",
"                                                                                                                                ",
"                                                                                                                                ",
"                                                                                                                                ",
"                                                                                                                                ",
"                                                                                                                                ",
"                                                                                                                                ",
"                                                                                                                                ",
"                                                                                                                                ",
"                                                                                                                                ",
"                                                                                                                                ",
"                                                                                                                                ",
"                                                                                                                                ",
"                                                                                                                                ",
"                                                                                                                                ",
"                                                                                                                                ",
"                                                                                                                                ",
"                                                                                                                                ",
"                                                                                                                                ",
"                                                                                                                                ",
"                                                                                                                                ",
"                                                                                                                                ",
"                                                                                                                                ",
"                                                                                                                                ",
"                                                                                                                                ",
"                                                                                                                                ",
"                                                                                                                                ",
"                                                                                                                                ",
"                                                                                                                                ",
"                                                                                                                                ",
"                                                                                                                                ",
"                                                                                                                                ",
"                                       ==;567875=&                                                                              ",
"                                    =-;68990rrripiie65;-=**                                                                     ",
"                               **-;5eeiq96-#:>,>-6wiiree65-=*                                                                   ",
"                             *=;;rpr086=#:,13432&+88p87;                                                                        ",
"                           ==6rppr86-:,2321,:>,<;&698986;-                                                                      ",
"                          =6r86==#$,1231>$##$:$$*&+qi85    *;578997-                                                            ",
"                         =6r6=#$$<13421,>###>:@#&*%pr6   ;;eripirr98;                                                           ",
"                        =6r-#:<224ttt31<:##$#..++&&ap;  ;eri6--*=57rr85;                                                        ",
"                       =ei-:<34ttt34tt42,@@#@.OO8&%ir5;;8i7-#$##$#@6ir;7; ;6;                                                   ",
"                      =6i;$,23t33t3,1343-&OO&O;+&%*9868rp6@#:#@#:>$@58i;57;=                                                    ",
"                     =6r5$,131,<<241>,12;&OOOO6+%+;wrpi85#>$@@$>,,>$@.8e6=                                                      ",
"                     =6e#$##,1,>>$,2<##&**&+;686&=i8w95#>$#.@#:,21<>$@6ir6;=                                                    ",
"                    =ei*:<3t431,,:$,:#%%6&&OO+6O;pw96X<>$.@@..#>11<::#=ppr97;=                                                  ",
"                    =r6@@##$>,122,$###%%%&OOOO;-ii6.$<,:$@####@$,><,#$&rrirpie5-                                                ",
"                   =e0*@$><1<,>::##@#+OOOO9O+&7ir5X#.:>:@@:#,:##><:1,:$rpiie-   -                                               ",
"                 =6e=:<24y44321,,>$#@&&&%O+59r7p:>:#@,:@1::<:#@.@>><><5i85ei8                                                   ",
"                =6r-#<34ut31,>$##@#@#+7*&*5ri7i=>#$@#.<>@<,::#@:>><2<$7r;  ;i6                                                  ",
"                6i;$13tyyt421<$###:>&+%%&;w88w=,$###,##1><>>$$:><121>=08;   ;r5 -5=                                             ",
"                e7#><3ty42<>$@.....@%&+O=8rpw=,<@#$>$<#:1>:<>><<231<$5pr;;   6706-                                              ",
"               =r-$<124432<,>:$##$:$&&%+;ww*:<<:#$,21#,#,<>,,<2331>>#80pr8;                                                     ",
"              &*6:122422<,,>$#@....@@@%&6;*:,<>#$,22<>@$#:>11332<>:#O=557i8;                                                    ",
"              =6=<2,<3<<:::$#....@@@@@@O@$:>1:@@,23<,:##,<:3432<>$@.O+%&;6i8;                                                   ",
"              ;e#11<21:####.........@...::,1>#@#32,>:##$>1:142<>:@.O%&&&&*;w8;                                                  ",
"              5i$2,21:####..###......@#::,2<$@$:,>$$##:$$<,>21::#.@7&-;6;=&;e8                                                  ",
"             =er>221>########.@##$::#$$:>21$@@##:####:>:$,<21,##.#&&=58975-=r85                                                 ",
"             ;i7,31,$:#:##:.@#:>>>:#@#:,2<:@..@@####:,>::>11::#@#+%&;9ire7;;ii96                                                ",
"            =7r512,###@##...$>>##$:,<12<>$@..@@@@##:,>::$$<>$#@@+=%&=6epe089ip8765                                              ",
"            597#2<$:#@.....$>@#::><1<>$@.@.@#$$$@#>,>:,,::,$@@.%%-+%*;7eipw0wi0r5;---                                           ",
"           =6r;:<$:#@...@##>#@.$$>>:#@.@.@@#:>:$@#:,$<21>>@@@.+O%e%+%*;69waapiiireee75=                                         ",
"           -97#,>$@....@#$.@#.@$$,:@...:@..$:>$#@$<:<342::.@..=-eie-=&&*;7rp975695  --85                                        ",
"          =5e-:1#...@#$>$.@@.@@$$#...#.$#@@##$###:><2t31>#@.O++%Oe+%&%&&=5i8;5  -0=   ;6                                        ",
"          -85#,:#..@$:,$@...$@....@.##.#$@#:@@#@:><2442::#@O+;%+&=++%+O-;r8;     66=   9;-;                                     ",
"         =5e=><$@..@:,$#....#....@@.#$.@$$##@@@@><2343,>#+oO+%&O+%O;6erir9;      =957977;597                                    ",
"         =85#<1$@#@.#$#@.@#$@..@@@.@:<@.###@.@@#,23t31::@ooOO-;57riapip96-        =66* 50  -7                                   ",
"        =66=:1<:@$@.@@..@>:@@.@@@...@#.@#@@@@##$13t41,>$+O;7rirq087656eire-ere6;       -9   =7                                  ",
"       =6r=#,2,>@:$@..@#,$@@.......#@@#@@@.@##::24t3<:$#=7ri097e5--== ;57e7;   9        7                                       ",
"       =99#>1<>:.$>@..$,#@@.@..@@.@@#@:@@..##:>,3y42>:#=60p086;i**                      76                                      ",
"      =6r*$<>$::@@:@@#>$#........@#@#@#@@..@#>,2yt31:#@79pr65rpapr-*                     6                                      ",
"     &605#,:@@@#..#>@#$@......@@@@:@##@@...@#,<4y41>:@%57pi9765p555--;5567775-            6                                     ",
"     =e8@:#@.@..:#..@@@@....@@###:>:$#@....@#>14t31>$..*5rpir09r00009888eriie900;          66                                   ",
"    %;i5#@..@#..@$#.@@@....@@#$::>,:$#@....@#:2tt2<>@.OO;6990eriiippaapiirrwwrir8;                                              ",
"    &6e@@..@@#...#:#..@...@@###>><<,:#@@....#:3y41::.@OOO***&&&&&&&***========56pe;                                             ",
"    *ee..@$##@....$@@....@@@@##>><2<>$#@...@#>3u3,:$.#++OOOOO++%%%&O+%++OOO8&&&&7i8=                                            ",
"    =e6..$::$#.:...$:@...@@@##@>>11<,$#@..@#$>2u2>:#.$%5oO++%%&&*&&OO%+OO+%&&**&&7r5                                            ",
"    -r;.@:>>$@.#..#.$:@..@@@###::><1,$$#@@@#:,2u1::#.#&oo++OO+;%O+-%O%OO%*=&=6809%e7                                            ",
"   %;i=.#>,:@....#$..$:#..#.#@#$$#$,<>$#@@@#,,3u,:$@.#&+ooo5+++&+-6-++7O+=&&=8ep7086                                            ",
"   %;r%.$,:$@..@$$@..@@:###.@@@@@##$>,:$###:1<4u<$#..@&%oo+7OO+%++-++++O+;*&*6ri86q7                                            ",
"   *r0@$::@#.#$@....@###@@##@@@@@@@#$$::$$:,32yu2>#...o%5;9ai95O%5OOooO%&%+6-696i975-*                                          ",
"   -e;@:$@..@$.....@##$#@..::@@@@@@@#$$::$:<44uu3>#..=o+%oOiO+OO+%+OO+8+%&&&;=*&9pirir;                                         ",
"   -e;.#@..@#$@....@#$::$#@.@>:@@@@@@#$$$$:1ttuu4<$.&OOoooO0OOOoO%%OOo%O++%%7==;8w8;*5r5                                        ",
"   ;e=....@#$......#$:>$#@##@#>$$#@@@@@#$#>1yyuut,:.=Oo*OOO6OooOoo&&&&&&&*==587;w8;  *5e                                        ",
"  %;r*....#$.......#:,>:@@@.@@@@@@@@@@@@$$113tuut<$.5*&OOOOOOOO%&-;78erppr097758-; 5  *0;                                       ",
"  %60%..@$$....@.@@#$>:@@@.....@@@@@.@@@$#,224tut<:@=OOOOO&*-58riapirre8777765;;6  8   i6                                       ",
"  &70+.@##....@@.@@#$:$@@@@.......@...@@$#><144ut1>@.O&*-570ww080ir6-5=         -;7r8; i7                                       ",
"  *80..@#@....@#.@@##$#@@.@@..........@@@#$>134yt2>#&=7ripr975;--57r876- =575    ; 8   87                                       ",
"  =9-..@#...@.@#..@@###@...@.........@@@@##:<34tt3:#=8qi9679q86   =;7qq985797-   6 6   78                                       ",
"  -8*..@#..@@.@#..@@@##@@.@@.........@@@@@@$<24tt3$#O=8p8;==79086;  ;5;6   57075       56;                                      ",
" %-e&..@@..@@.@#...@@#@@@@@............@@@@#,14yt2$#+O=9i97;=                     7     ;68;                                    ",
" %5r%...@..@@..@....@@@@@...............@@@#,<4y4<$+OOO=5rq97655;---;;567865-        8     6                                    ",
" &5i%...@..@#@..@......................@@@#$,14t3,&+O&OO&-eirr88888888eriirq985       ;                                         ",
" *6i%......@#@@.@@....................@@@#$:<2yt2,%OOOOOOO*=5erwwrrippirwwi8;r88      7                                         ",
" =7r%.....@@#@@@@@...................@@@#$:,24t31&+OO=OOOOOOOO%%%%%&&-;670wr86re      5-  ;                                     ",
" =79%......@@#@@@@@@..........@@@###$$$$::,12t31$%OO=;=O=OOOO-OOOO&OOO%&*=598-*e7-     6                                        "
};
