/* XPM */
static char *_775261641674a1adb280102c04327bcPOAzJfZ3oXXS3GT4[] = {
/* columns rows colors chars-per-pixel */
"128 128 45 1 ",
"  c black",
". c #040404",
"X c #1B0F08",
"o c #141004",
"O c #370000",
"+ c #26140B",
"@ c #311B0E",
"# c #3D1F0E",
"$ c #11210C",
"% c #430000",
"& c #4F0000",
"* c #5B0000",
"= c #670000",
"- c #730000",
"; c #7F0000",
": c #412312",
"> c #4A2513",
", c #532B13",
"< c #572F17",
"1 c #4B3210",
"2 c #543B17",
"3 c #5F331B",
"4 c #673B1F",
"5 c #763831",
"6 c #5F431E",
"7 c #674B26",
"8 c #734323",
"9 c #7B4B27",
"0 c #443956",
"q c #693752",
"w c #8B0000",
"e c #9B0000",
"r c #A70000",
"t c #B90000",
"y c #932334",
"u c #CA0000",
"i c #DC0000",
"p c #ED0000",
"a c red",
"s c #F40E03",
"d c #FF3F00",
"f c #83532F",
"g c #8F5B33",
"h c #97633B",
"j c #FF5F00",
/* pixels */
"                                                                                                                                ",
"                                                                                                                                ",
"                                                                                                                                ",
"                                                                                                                                ",
"                                                                                                                                ",
"                                                                                                                                ",
"                                                                                                                                ",
"                                                                                                                                ",
"                                                                                                                                ",
"                                                                                                                                ",
"                                                                                                                                ",
"                                                                                                                                ",
"                                                                                                                                ",
"                                                                                                                                ",
"                                                                                                                                ",
"                                                                                                                                ",
"                                                                                                                                ",
"                                                                                                                                ",
"                                                                                                                                ",
"                                                                                                                                ",
"                                                                                                                                ",
"                                                                                                                                ",
"                                                                                                                                ",
"                                                                                                                                ",
"                                                                                                                                ",
"                                                                                                                                ",
"                                                                                                                                ",
"                                                                                                                                ",
"                                                                                                                                ",
"                                                                                                                                ",
"                                                                                                                                ",
"                                                                                                                                ",
"                                                                                                                                ",
"                                                                                                                                ",
"                                                                                                                                ",
"                                                                                                                                ",
"                                                                                                                                ",
"                                                                                                                                ",
"                                                                                                                                ",
"                                                                                                                                ",
"                                                                                                                                ",
"                                                                                                                                ",
"                                                                                                                                ",
"                                                                                                                                ",
"                                                                                                                                ",
"                                                                                                                                ",
"                                                                                                                                ",
"                                                                                                                                ",
"                                                                                                                                ",
"                                                                                                                                ",
"                                                                                                                                ",
"                                                                                                                                ",
"                                                                                                                                ",
"                                                                                                                                ",
"                                                                                                                                ",
"                                                                                                                                ",
"                                                                                                                                ",
"                                                                                                                                ",
"                                                                                                                                ",
"                                                                                                                                ",
"                                                                                                                                ",
"                                                                                                                                ",
"                                                                                                                                ",
"                                                                                                                                ",
"                                                                                                                                ",
"                                                                                                                                ",
"                                                                                                                                ",
"                                                                                                                                ",
"                                                                                                                                ",
"                                                                                                                                ",
"                                                                                                                                ",
"                                                                                                                                ",
"                                                                                                                                ",
"                                                                                                                                ",
"                                                                                                                                ",
"                                                                                                                                ",
"                                                                                                                                ",
"                                    -                                                                                           ",
"                                    -                                                                                           ",
"                                                                                                                                ",
"                                    *                                                                                           ",
"                             -; ;*  =                                                                                           ",
"                        ;;   *w =w  r                                                                                           ",
"                     *   e=     =s *s                                                                                           ",
"                     -   *t* - =u=;es                                                                                           ",
"                    -w    ritw-riiudd*                                                                                          ",
"                    ;r; %*ridurisaiss=                                                                                          ",
"                    -srw-eir:::>:#&=r-;                                                                                         ",
"                    wjssdr#:>,4,,>,>:we                                                                                         ",
"                    rsr#:#:393<:::>3>ru                                                                                         ",
"               w  --ar,,8983,>::,,<<,dp                                    te                                                   ",
"              wu=-et,489,>>:>#:,<,:<<se                               -w    u;                                                  ",
"              edr;>>33,>#@#@+@,<<<>#<uu=                              e=    rd  w                                               ",
"              tj:>:,11@@++++@@:>>,:#,r                             =  u    ;di;-e                                               ",
"             wsr,>>:@@++:+XX,+@<>#@,rw                             t* ed*;ruitets                                               ",
"         -  wr@>,:::@@+@:@@+X<:@@@@<u-                             *s;usst;:>-ess;                                              ",
"         w es:><,,@::1@+@@@:X,@@@*euw                           =  -rjprr>,<3<,#de                                              ",
"        =r-r@><<,>#+@@+@@++::@4@&sw                             e==tdir><44:<:,>r-w                                             ",
"        *sr#:,>,###:@@+,<@##44@-dw                              te;sur<434<>>:,<#re                                             ",
"        =es@#:>,>#::1#@+,9,4f@%s;   ;-                          rddrr,<34<>>::><:#u-                                            ",
"        -;t#::><,,:::,::@3f9@*r;w   w* *                        tjrr#>383>>:<<<>>:se                                            ",
"        ;er#>:::>,:#@:@#@#3:%ru;  =;   -          *; ;-    - -w dr::><84<>+@>,3<>:ru                                            ",
"       wete#:>>:<,,:#@@>::@=eiur;=s-   w-   -     r= w*   ;w e=tr:,><48<>:X+@>,<@#pd                                            ",
"       t;dt##>>:><>>#@+#,<*ss;wussw   ;r;=  wp; w i=     eur uir:::<484<:++@@+@#X,ij                                            ",
"       -sju#@>:>:<,,:@@+:3-idr&;ddrw=;ust;%-se-uuese= - ;sd*wdr:,,3484<>#@@::@XX+>uu                                            ",
"       *wpd#:>:>:><,,:@+X:3euirdjdiurusdutrsdsudurrd* * pdjiur#>:3494<>>#::,,@XX##r;                                            ",
"        =up#:>>>::><,>#@+@#3u-:@#@@@@@@@@@@@###:,%=ei;ewrdsrr#>>349843<<>:<:@@+X:;w*                                            ",
"         rt#:>::#::,<,:#@+@@:r-$:.+oX+@@X++@#>343><>#rirsu-#@+@@:::>::>:>,:::@+X&r-                                             ",
"         eu#:>#:##:,<<>:@@:<,:e-,#o+@XX++#:,3434983<>#;;rw:::,<34443<:<><<:#++XXwu                                              ",
"         ;p#::#:@@:>>,,,:@@@:3<;w=%,<>#@><44843,#:<;esr-+@:>:>:#:##>,@,3>+3>+@+Xri                                              ",
"         -i@#:@:@@#::><,@@#@#,34-se-484489844<8983rue-:#:>:343,:::##@#@:3>+<:++:ws                                              ",
"         ;i@#:@@@@@#:>,,,,,>>,<,8*esr-#:,<43<,<>rue=#:>>:,4894,:>>:@@@,@:<:+>+$--t                                              ",
"       w et@:,<,<,>:##@+XXX+@#46#<4>@@O&O@@@@@@@@#>,,<<38994<#>,:@@:,<3<#@XX@&edr;                                              ",
"      *t=er>,<33#+XXXX++X+#>,349<:<8>:#@@@@@@#::,<<>3489f84<:,,:@@#><48,@+X+*rui-                                               ",
"      -srr@,3<>+XXXX++:,<3443<3483#343<,>::#:>,,:<3389ff88<><:>@@@#,8f4#@#@$rdue                                                ",
"      edsr#3>+XX++:,<344<>@#:>,384,>#:>,<>>:#::>26899f988<>:#@@@@@>494#@#:>rei;*                                                ",
"      tsd;:#:@>>@:,>:#@@++XX+#,384<#,38f9844<,327ffff843,>:@++++@:,83#@#:>#rue                                                  ",
"      wst#@::<,:@@+++XXXXXX++#,43>:@39ffggf8999fghhf94,::#@++@+@#,3,#@#@>#rie                                                   ",
"      wt;::<<@++@+++X+@+X+@@@:,<,>@#4fghhhhhhhhhgf994,:@@++@@##++@:@@#@#:5iue                                                   ",
"     &se>,<:@++@@+@@::,,<>::><3<>:+@8fghhhgf9844843<,>:@++@@#:#++@#+@@#>eude                                                    ",
"     wr:,:++X+++>,<,<3<<,>:>33<>:@X+49fgf943<,,>::>,>:@@+++#>>#+X++@@#>*ts;                                                     ",
"    *t#::+X+@@:>,>#@+@#>,>>,3<>:#XX+<49gf9843,:#@@@@@@@+X++@::@XX+>@@:*rr*                                                      ",
"    e::#XXX@:,,,#@++@#><,,,3<>:#@XX+,>333<,>:@@@X++++@+++@:@#@+X+>@@#=rd-                                                       ",
"   *u>@@XX+>>>#@++@@@<,3,<3,>:#@XXXX:::>:::#@+++XXXXXXX+@@@+X+X+::>#wusw                                                        ",
"   ;s#@X+@><#@+++@@:<<<433<>:#@XX+XX#@@@####@++XXXXXXX++@#++X+++>>#wi;t-                                                        ",
"  0rr#@#>,,#@+++@:#:<<3433>:@+XXXX+X:#@##:##@++XXXXX+++@@##@+XX:,:wt;dw*                                                        ",
"  qu::>>,,#++XXX:::>,<443,>@+XXX++XX>>+@#::##@@++XX+++++X+@#:+X><#eitw*                                                         ",
"  yi#>>><#+XXX@@#::>,4433,::+X+@@@X@:,++##::###@++++@:@@#@+XXX:4>@ttw*                                                          "
};
