/* XPM */
static char *result[] = {
/* columns rows colors chars-per-pixel */
"128 128 41 1 ",
"  c black",
". c #040404",
"X c #1F0404",
"o c #1B0F08",
"O c #141004",
"+ c #270000",
"@ c #2F0000",
"# c #370000",
"$ c #26140B",
"% c #311B0E",
"& c #3D1F0E",
"* c #3D1010",
"= c #430000",
"- c #4F0000",
"; c #5B0000",
": c #670000",
"> c #730000",
", c #7F0000",
"< c #4C2403",
"1 c #412312",
"2 c #4A2513",
"3 c #532B13",
"4 c #572F17",
"5 c #4B3210",
"6 c #543B17",
"7 c #5F331B",
"8 c #673B1F",
"9 c #5F431E",
"0 c #734323",
"q c #7B4B27",
"w c #8B0000",
"e c #9B0000",
"r c #A70000",
"t c #B90000",
"y c #CA0000",
"u c #DC0000",
"i c #ED0000",
"p c red",
"a c #83532F",
"s c #8F5B33",
"d c #97633B",
/* pixels */
"                                                                                                                                ",
"                                                                                                                                ",
"                                                                                                                                ",
"                                                                                                                                ",
"                                                                                                                                ",
"                                                                                                                                ",
"                                                                                                                                ",
"                                                                                                                                ",
"                                                                                                                                ",
"                                                                                                                                ",
"                                                                                                                                ",
"                                                                                                                                ",
"                                                                                                                                ",
"                                                                                                                                ",
"                                                                                                                                ",
"                                                                                                                                ",
"                                                                                                                                ",
"                                                                                                                                ",
"                                                                                                                                ",
"                                                                                                                                ",
"                                                                                                                                ",
"                                                                                                                                ",
"                                                                                                                                ",
"                                                                                                                                ",
"                                                                                                                                ",
"                                                                                                                                ",
"                                                                                                                                ",
"                                                                                                                                ",
"                                                                                                                                ",
"                                                                                                                                ",
"                                                                                                                                ",
"                                                                                                                                ",
"                                                                                                                                ",
"                                                                                                                                ",
"                                                                                                                                ",
"                                                                                                                                ",
"                                                                                                                                ",
"                                                                                                                                ",
"                                                                                                                                ",
"                                                                                                                                ",
"                                                                                                                                ",
"                                                                                                                                ",
"                                                                                                                                ",
"                                                                                                                                ",
"                                                                                                                                ",
"                                                                                                                                ",
"                                                                                                                                ",
"                                ::::::::::                                                                                      ",
"                            :wryiitttrw,ee,:                                                                                    ",
"                          :,etit,:-;>,wruut::                                                                                   ",
"                         :writ=-%%%&%$o=;wue::                                                                                  ",
"                       ,eyit#-$%&1411&**@+:ute:                                                                                 ",
"                    ;,etyt,$%$%3832111-=#@+;ue::                                                                                ",
"                  ->wyyit:117873121123;;=#+Xyrr:                                                                                ",
"                 >wryiy:147832212&137;;-=@+=pir:                              ::::                                              ",
"                ,eyyr:&&3732&%&%$&343;:=@++-puw:                            :::,w:::                                            ",
"                rit:%&1355%%$$$$%%1<;--@+++:it>:                          ::,wrrte,::                                           ",
"               wy>;&1221%%$$1$oX@+@=-=@+++-ruw:                          ::wreuuuueew:                                          ",
"              >r;o&13111%%$%1@@+X+@=@+++@-rer:                          ::etue:%%-,ut,:                                         ",
"             >rt%&2433%115%$%@@@++@++X#@-ret:                          :,ruu>&1221$:uyw:                                        ",
"             ,yw&24432&$%%$%@+++XX+@@X+-tut:                         :,reu>&2441%1&$;utw:                                       ",
"             ey$1233&&&1%%$oX+++@XXXXX-tut:                         :,tet-247842112%$;rr::                                      ",
"            :euo12332&115&%$XXX+++XX-eyer:                         :>tey-1278422122&%$>yw::                                     ",
"            :tu$124333111311%XXX+XX-yere:                         :,eur;&27072214421&%;ur>:                                     ",
"            >yi$1113231&%1%&%+XXXXeuer>:                         :yeu;%1240842$%3742&%$uyw:                                     ",
"            ,ui$&2124331&%%21%oXeue,r::                         :twu:%12480421o$2341%$ouir:                                     ",
"            wyi$&2112422&%$&32$oye,r>-                        :,tru:%%1480841$$%$%&%o%-upw:                                     ",
"            etu$&12114331%%$132$te:e,-                       :wtyt:%13780842&%%1%ooo$&:ti,:                                     ",
"            rru$&12&124331%$o%32,ue:r,:-                   :,trir;$&178q8422&113%ooo&-ryu:                                      ",
"            rwy$&22&112432&%$o$32,uett,>>:;;;:::;;-====  #=:rruw:$&278q087442141%$o$%:yuw:                                      ",
"            twy$&111&113431&%$oo%3>ruuyyttrreew,wwerrw,:;;wtuu>$o$%%111211212311%$o&-ety:                                       ",
"            tey$&&12&&134421%%121%3%&=uiiuyttreeweeyytrweruuu>%%134788874142441&$oo%:tuw:                                       ",
"            rru$%&1&%%1223331%%%%323%O=>ettyuiiuuuuuuuuttuu,$%12121&1&&23%372$72%$o-eue:                                        ",
"            rtto%%1%%%&11243%%&%&1342%$o++@@++XXX+===->rw:%&1217873111&&%&%172$4$$%wty:                                         ",
"            eyro%%%%%%%&12333332212172oo$#=------=&@++oo$%&21380q831221%%%3%141$$O;ry,:                                         ",
"            eyr$%$%$&11133443211&&1%28&ooX+@@@@@@@%%$oo$%11370qa041231%%1232%$3$$Oeye:                                          ",
"            euwo12114321&&%$ooo$%&85$24&oooXXXXXooooo$&112470qq84&231%%13474&%ooO;yi,:                                          ",
"            ri>&4331&$oooo$$o$&2378q4%27&%$ooooo$%%&1222780qa0841331%%&24803%$o$oeur:                                           ",
"            tyo12&$ooooo$$134788747807&34321&%%$&11114770qaa0042412%%%&30a8&o$oO;utw:                                           ",
"           ,yr$3$oo$$$13478842%&12370832&12342211125690qqaq00421&%%%%%28q8&o$%&.rtw>                                            ",
"         eyye$o%211&%%$$$oooooo$$&38421%7qaassa0qqaasddaq8311&%$$%$%&373&o$o&$.;ry:                                             ",
"        wueu>%%2%$$%%$$$o$%$o$%%%13422%&8asdddddddddsaqq831%%$$%%&&$$%1%o$o$%.;rt:                                              ",
"        rti>&121$$%%%$%%11334211247411$%0asdddsa08800874321%$$%%&1&$$%&$oo$&$$ry:                                               ",
"       ,ui>%1%$$$$$&23434744321277421%o$8qasaq873322112321%%$$$&22&$o$$oo$&$;ete                                                ",
"       ry>$%%$o$%12332&%$%&232237421&oo$48qsaq0831&%%%%%%%%$o$$%11%oo$&oo%o=eue:                                                ",
"       rt%%$ooo%3331&%$$%&243337421&%oo$32777432%%%$o$$$$%$$$%1%&%$o$&oo$$-:ue:                                                 ",
"      ,tw&oooo$22&%%$$%%%437347321&%oooo1112111&$$$oooooooo$%%%$o$o$1%&$o;,ue                                                   ",
"      rt>$oo$%&2%$$$$%%1444877421&%oo$oo&%%%&&&&$$oooooooo$$%&$$o$$$&&$$;wte                                                    ",
"     ,ry;$%&&11&$$$%%1&144787721%$oooo$o1&%&&1&&$$oooooo$$$%%&&%$oo%1%$;ryr>                                                    ",
"     ,ry%%&&11&$ooo%11123488732%$ooo$$oo22$%&11&%%$$$oo$$$$$o$%&1$o&2$:eur:                                                     ",
"     ,ru$&&&2&$oo%%%&11238877311$o$%%%o%13$$&&11&&%%$$$$%1%%&%$ooo%4&*wut::                                                     ",
"     ,rio$%%$$oo$%%%&112377433&%$%&2&%oo&3$$%&&11%&&%%%%%%&1221%o$&7%-rye:                                                      ",
"     ,rio$$%$$oo%%11&11237433&&$1243&&$o$2&$$%&&111&&$%%%%$$1&%oo%14$;utw                                                       ",
"     ,ri;ooo$o$$%%1%11123423131337421&%$o&1$$$%%&1111%%$$$%o%%$o$141o>it>                                                       ",
"     wyrw=ooo$$%&%$&1&123332323473211%o$o%3$$$$$&&11%%%%%$oooooo121&o,ur>                                                       ",
"     ,trt;oo$$%%&&%%%&12233433473211&%ooo$2%$$$$%%&%%%ooooooooo%32&%$etw:                                                       ",
"     :,rw=oo$%%&%%%%%&112234357321&%%oo$o$1&$$$$$%%%%%$oo$ooooo&&&%$orr,                                                        ",
"      ri>o$$$%&1o%%&&&12234337722&%$ooooo$%21$$$%%$%%%ooooo$ooo$$o%o;ue>                                                        ",
"     :uwo$$$$$&$$%&1&112343377321%$ooo$%%$$%2$$$$%%%%%ooooo$oo$$o$$oet,>                                                        ",
"     ei:o$o$$o$o%&&&111243343211&$oo%&&%$$o$$1$%%%%$%ooooooo$%&o%%$:yt:                                                         ",
"     yi#o$$$oo$$&&&11123442221&&%o$%&%%o$&oo$1%$o$$$ooooooo$&oo$$$;ruw:                                                         ",
"     ri=o$$oo$$%11&1123432&%%&&%&121&$o$1%$oo$%$%$$oooo%oo$1%oo$o$>yy:                                                          ",
"     ,u;o$oo$$%&11&123431&%%&11242&%$o$%&$oooo$$o$ooooooo$&2$ooo&:,ir:                                                          ",
"     :ywooo$$%&11111243321%&123421%oo$%&$$oooo$%oooooooo%%3$oo$&%>rue                                                           ",
"     ;ty:o$$$%&11&143222211124731$oo$&&$ooooooo$%oooooo$&3%o$%&2$;yyw                                                           ",
"     -tuoo$$%&11%%1122222223743&%$oo$&%$ooo$%$$o1$oooo$&2&$o%&3&owiew                                                           ",
"     -ruo$$%%&1%%%1111%1134842&$ooo%1%$$oo$%&&%$%1$oooo%%oo$&31%oeit,                                                           ",
"     -ruo$$%%%$o%%%11%1224421%$oooo%&%$ooo%1&%%%o%1$oo$oooo$%1&$$tpr:                                                           ",
"     -tuoo$$$$$%1%%%1%114411%$ooo%$$$1ooo$&&%$%&o.$$%oo%&%$oo$$o-yiw:                                                           ",
"     >uyoo$oo$%&11111%%%1%%$oooooo%%%%$oo%&%$%12%OO$1%o$&1&%$ooo;yuw                                                            ",
"    >,ieoooo$%1%1%%%%%%%%%$oooooo$$$oooooo%$%&342$OO%1%o$&121&%$:rt,                                                            ",
"    ,ri:ooo$%111%%$%$$$$$ooooo$%%$$ooooooo$%&3471%$OO$&o$o$$$$$o,te:                                                            ",
"    tu-$%%&21%$$$$$$$$$$%&1&232&$ooo$%%%$ooo$%1&ooooooo$$$oo$$o:ut:                                                             ",
"   ,uro%%&31&%%%$$$$$$$$$%&242&%o$$%1232%$ooooo$ooo$%$Ooo$o$oo-wtw:                                                             ",
"   eu:$132&%%%%%oo$oo$%%%&232&%%%&223322%%$o$oooo$$%&$oooo$%$-wye>                                                              ",
"  ,rt$&2&%%$$$$$o$$$$%%&22322&&&2233221&%$$$$$oo$$$$$$ooo$%$o:ur,;                                                              ",
"  ,y,%1&%$$$$ooo$$$%%%&2222222223221%%%%$$$$ooo$$$o$oooo$%$o;uyw:                                                               ",
"  wi:&%$$$$oooo$&%%&1&22343323322&%%$$$$oo$ooo$oo$$oooo$%$*,ete:                                                                ",
"  ei$%$$$ooooo$%&&&223444784372&%%$$$$oooooooooooooooo$%$o-ru,:                                                                 ",
" >rt$$$oooo$$%%&22234478847442&%$$$ooo$$oo$$%&&%ooooo$%$o$>yw:                                                                  ",
" wyw$$ooo$%%%&23478878777443332&%%%%%%%%%$$$$%&&%$ooo$$ooo-yt,=                                                                 ",
";wi:$oo$%&224444474333332211222211111&&&1&&%$ooo1%$oo%&12&%eue>=                                                                ",
":rp-oo$%224442222222221&%$$$$oo$$$$%%%$$$%%&&%$$%&%$o$o$%%$:utw=                                                                ",
">ri>$%%234422&%1&&&%$oooooooo$$$$$ooooooooo$$%%%$$%%&1&&%$*,ur,=                                                                ",
",,ue$%144322%%$&%$oooooo$$$$$%%%$%%$$ooo%$oooo%&1&%$$$oooo=eyw>-                                                                ",
":rt;%14322&%$$$$ooooo%%%&&&&&&&1111&&$$oo$%$ooo$&22&%%$ooo,ue;;                                                                 ",
";i,$1232&%$$$$$ooooooooo$$$$$$$%&&11&&%$$oo$%$oo%&&221&$o-ey;;                                                                  ",
"eu$$22&%$$$$ooooooooooooooooo$$$$%%%&$&&%$$oo$$o$$$$$oooouue:                                                                   "
};
