/* XPM */
static char *result[] = {
/* columns rows colors chars-per-pixel */
"128 128 66 1 ",
"  c black",
". c #040404",
"X c gray6",
"o c #1F0404",
"O c #1B0F08",
"+ c #141004",
"@ c #131313",
"# c #1B1B1B",
"$ c gray11",
"% c #270000",
"& c #2F0000",
"* c #370000",
"= c #26140B",
"- c #391C06",
"; c #311B0E",
": c #3D1F0E",
"> c gray13",
", c #272727",
"< c #2D2D2D",
"1 c gray20",
"2 c #393939",
"3 c #3F3F3F",
"4 c #430000",
"5 c #4F0000",
"6 c #5B0000",
"7 c #670000",
"8 c #730000",
"9 c #7F0000",
"0 c #412312",
"q c #4A2513",
"w c #532B13",
"e c #572F17",
"r c #543B17",
"t c #5F331B",
"y c #673B1F",
"u c #734323",
"i c #7B4B27",
"p c gray27",
"a c #4B4B4B",
"s c #515151",
"d c #565656",
"f c gray36",
"g c #626262",
"h c #686868",
"j c gray44",
"k c #797979",
"l c #8B0000",
"z c #9B0000",
"x c #A70000",
"c c #B90000",
"v c #CA0000",
"b c #DC0000",
"n c #ED0000",
"m c red",
"M c #F40E03",
"N c #FF3F00",
"B c #FF2E2E",
"V c #83532F",
"C c #8F5B33",
"Z c #97633B",
"A c #FF5F00",
"S c #FF7F00",
"D c #A06C40",
"F c #FF9F00",
"G c gray51",
"H c #8B8B8B",
/* pixels */
"                                                                                                                                ",
"                                                                                                                                ",
"                                                                                                                                ",
"                                                                                                                                ",
"                                                                                                                                ",
"                                                                                                                                ",
"                                                                                                                                ",
"                         98                                                                                                     ",
"                         l6   99                                                                                                ",
"                       7     7l   6                                                                                             ",
"                      7z7   6z6   8      99                                                                                     ",
"                      l8   7x8    l8    8v9                                                                                     ",
"                     8x6 44lN864 9x9   9bx                                                                                      ",
"                88   9v9477MANl87zv8   znl      ll                                                                              ",
"                8z8  MNzcbNSFAcxlxvl   xM7       xl                                                                             ",
"                 8c 8NSbNANvMANcxcb8   lN9        vl                                                                            ",
"                 Nz9xNAv8==:q676lNv97  lNv        nvv                                                                           ",
"             96 7Ac7vxbx6;O;0t686lAvx98xnz  6    cnbx   98                                                                      ",
"             7z 9SNxlnv9;::=;wt985xAbxzvb8 75   zvncl   l6                                                                      ",
"             8b zASbvbl6;::;=0ey764bNASNc 9l    Mnvl                                                                            ",
"             zM xNNbcl6*=;::=:qt675cAFAnz x8    Nzl  78                                                                         ",
"             SzlNcb8;=OOO=::==:ew66zAAbc8 ll    Ac   l                                                                          ",
"             Ax7bz:00:=OOO;:O=;qwe68Snvz  8x9  lSb   x                                                                          ",
"       l     NvN7:qeq=OOO==:O==:qt67Sbx8  5Mz zcAc  9b7        zc                                                               ",
"      lv    7bAbqweq;OO;:=;OO=O=0e68Fvz49 6b9lcbNl  lcl   99   v                                                                ",
"     lNz   lxcb8q0:0OO=0:;O=OOOO;q57Ac7zv lx7xbAc868xMb  l7    nc                                                               ",
"     Al   zNSb8:q0;OOO;q;O=:=O=O=4*9Nzlv9 xl6vNSc7zcNNz  c     cBc                                                              ",
"     Sx86zSSb80q;OOOO:w0;=O;:;;OO&%lA9cz6 lN8bASAczMA95  v9     vM                                                              ",
"     ASxxSAN8:qw:=OO:qeq0;OO;q:O=*&zA9xl 8lSzbNANNnczb6  zcl    xA                                                              ",
"     vAcANb80wq0;=OO;wq;OOOO=0=O;54cN8xz79xANb99988bvn9   9v   9Mb   l                                                          ",
"  7  cnvbv80:0:;OOOO=ew:;O;====;05*bM7lMxlvAb7*565*7bx74  7n  xNAz   l                                                          ",
" 8v  zcncl0;==OOOOOq0;;OOO;0:=;0q69Mb78cNcAA756lc9547bz74 xN65NAv4    l                                                         ",
" M7  MAxlO=;:0;OOO;;;;OOOO=:w0:e75lAv749SAb75*9vMc65*8bz7xnNz9AFc74  z8 9                                                       ",
" vz 9Nv9=O;:0w0;;=00;;===;0qeuyt67xSc867AN95*6zNNc8658bz79NANMASnz74x7 7z                                                       ",
" xNvbvl;0;=O=;OO;=0;;;;==OOO;qeq*8MNx87zNM5&57cAvl7648bz79MmbAnBbbz7c9 x7                                                       ",
" cSAb9=:0q0:=OO;0;;;;;=OOOO=etut5lMcz7xcN6O*569z9765*bz777zbl8679lcbvz6vl                                                       ",
" xN96O;w0:;=;O==q00;==OOOO=:yy0=6xAxlxcA7&**4&6655558bz67zN9&&*4**8cbc57x                                                       ",
"6lc7O;0qwq0:;OOOq0;;==;OOO=0yq;&9bvcNcS7&4*4*4&**457bz88zA8**5775**zNz8N6 z                                                     ",
"895O;;0:;;===OOO;;;==;=OOO=:q:0ozbvcvA7&5*5*&*4&&5&bz99zA7*&6lcc95*9AMS94x9                                                     ",
"995;qq;:===OOOO=;=====O=OO;0t=&4bAvvA7*4*5*&OOOO*&7bllzN7*&*9vMMc647SSv46z7                                                     ",
"lx=:0=;;=OOOOO=;0===O=OOO=;w:=o5bnNb74&&5*&zOO7OOobxxzM7*&*6zNANc856SAc479                                                      ",
"9v;;=;:q0:;=O=;;;==O=OOOO:0;=&o6bmb7**OO9&OOOO&*o7bccM7&*&47cAbvl755Ab747x                                                      ",
"7b;=;:;:00:O;0:;==O==OOO=O;;;5&5bb7&45xOzOOOO&*46bccb7*4**469zz975*4Nc749b6                                                     ",
"7v:;:;==;OO;qw0:=OOOOOOOOO;:;&&5b7&x566*MOOO&*5&bvAb7*4*&*5566775*&5bz74zv8                                                     ",
"7x0;;;=OO=;qetwq;=OOOOOO;0wyqOO-544578lMAMl865*7AFb7&5*&&55556654&O8bz79Mx6                                                     ",
"8zq0;0==O;0wtyte:=OOO=;:0qeew54&O&47665*MOOo&4&bSb7&**&&5*54554&OO6bbb9xNz55                                                    ",
"9c0q;:OO=:0wetew;=OO==;;:;:;=&OO&c6655*&zO*&4o7mb7*54&&5*&***%&OO&*4*8cNAN76                                                    ",
"9M:w;:OO=0qqwww0OOOOOOO;0wyqOOOOO*455b&O9*85*7bA7%&*6&%*&M&&%*OO*556657Mzbz7                                                    ",
"lv;0;==;:w0:;;;==OO==;;:qwyutw4&OOO*&OO&454&lmb75*%%&*6*%%%%&OO56lcc964lNcc8                                                    ",
"lv=:0=;:w0;====OOOOO===:eyuiutw5OOOOOOO*5*4Ocb7*4*b45654*%%&OO4*9vMMc659AMl6                                                    ",
"zc;;;=:qq:;O==OOOOOOO==;wtuiuiyw4&OOO4l&*4&OO5*5**445675*&ooO&56zNANc848Nx78                                                    ",
"8b====:w0;=O===O;OOOOO==qtyVViuyw5&OOO5*&&&O&5&4*l5z78648%&OO&47cAbvl6;9v79z                                                    ",
"7MOOO=:q:=OOO=OOOO=OOOO=:eyVCViuyw4&OOO4*OON*54&4M67865*l*OOO&569zz965Olv9x4                                                    ",
"6b4OO=;:;O==O=OOOOO==OOO=0wuVCCVutq4&OOO4OO&4%4&MAMz6579Nl7OOO4566764*6cxx8                                                     ",
" c6OOO;;=O;:;=O==OOO;=OOO;0tuiViuutw4&OOOOOO&4%*%M665%&*zOOOOO&44554&O8vlv6                                                     ",
" 9z==O=;OO:q:;==;=OOO=;=OOO;wtuVCiytq4&OOOOOO&*O*l49&&&O7OOO9OOO&*&OOOlM8c4                                                     ",
" 8bO;=OOOO;:w:;O::;=OOO=;=O;0eyiiViyt0*OOOO6&&OO&9&OOOOOOOO&*&OO&**&O5Mzc9                                                      ",
" 6x7O;=;OO=;0q:=O;:0:;=OOOOO=;0wetuytq0&OOO&454*OO&&OOO6OO&*5*OO*54&OlNb96                                                      ",
"  8zO=;:=OO=;:0;O=:qwew0:=OOOO;0qetye:=OOOO&*4l4OOOOoO6c6O*5*OO*4*&O5cMz8                                                       ",
"  6cOO;q0=OOO=;:O==:qwewq0;OOOO=;00q0;=OOOO&**55&OMO&oO6&O&4vOO4*&O=zMc95                                                       ",
"   z8OO:w0OOOO==O===::wttw:;=OOO=;:;==OO;&OO&*45*OO&&OO&O&*%&O4*&O;9c9x5                                                        ",
"   7x8OO;e:;OOOO=O==;:qwytqq:;OOO==OOO=:;=&OO&*4&O&94&49O*5*OO&&*=5blM8                                                         ",
"    vlOOO:w0;OOOOOO===;qeytq0:;OOOOOO;:0=;:&OO&&7O&4c6cOO&4OO&O*;OlzMz                                                          ",
"    xx==OO=q::;OOOOOO==;qetq0:;=OO=O;qw;;0q0*OOOO*4&6b9OOOO&O4O=O6bNc8                                                          ",
"    8c;=;OO=q0;;0OOOOO=;0w0:;==OOO::=0;=;qeq0&OO&*&Oc6c&OO&OO&=;=7Nvx6                                                          ",
"     x;=0=OO=0w0===OOO==0====OOO;;::;===;:wtq:&O&OO9&469*OOO&O;=6Nbc7                                                           ",
"     z=O;;O;OO;qw0:;;;=OOOOOOO0;=;O+==:=O;:wtw:&OOOO&*5654&OO==5bvn95                                                           ",
"     9xO=0;O:=OO;0ew0;=;000:;::;OOO=;:q0;=;0weq;O&OOO&454*&OO=O6bcb7                                                            ",
"     7zOOq0;O0;=O=:0wq0:0OOOO=O===:0qetw0;=;0we0OO&&&%*4*&O=OO=lxcl                                                             ",
"     59=O=e0;=q;OOO;:qwee:;==OOO==;:weyte0;=;:ww=O&4*&OOOOOO==6bxb8                                                             ",
"      7=;O;te:qe;OOOO=;:0qqq=====;:qqetytt0;=;:q;OO&54*&OOOOOOlxvx                                                              ",
"      6O0=O:qtq00:;=OOOO===;:;;;;;;:0qetytw0;=;0q;O&454*OO=:O6bcx9                                                              ",
"      4O:;=O;0wew:;0:;==OOOOOO=;;;;;:0qetyt0q;=;0:=O&**=O=0;O7bc97                                                              ",
"       O;0;=O=:qew:=:q:::;;:;OOOO=;;;;:0etee;0;O;0;OO==O=0:O5bMz7                                                               ",
"       ==;0:=O=:0:q:O===;:;;:;;OOO=====;::0wq=:=O;:;OOOO:;=O7MM9                                                                ",
"       ;O=:0:===;;=0===O==;:qqtw0;==OOOO=;=;0:=;O=:;OO==;=O5bN74                                                                ",
"        O=;:q:OOq:;OOOOOO=O=;:wttw0;==O====O=::=OO=OOOOOOOOlMz4                                                                 ",
"        O;:;:w:=:ew0:=OOOO=OO;:0qttw0;OOOO==OO;:=OOOOOOOOO7bM74                                                                 ",
"        O=;::qe0O0eytw0:=OOOOOOOO:qwtw0;OOO==OO=;=O=OOO0O=bM94                                                                  ",
"        =O=O=:tw=O;qeyew0:=OO==OOOO;:qtw0=OO===O=;=OOOOO:=bzl4                                                                  ",
"          O=;=:et:===;:eyyyewqq00;;;=O=::wtw0;;=OOOOO==:=O;bx                                                                   ",
"          =O;:=:ytq:=00wwtyyttewq00;=OOOO;:0wewq;==OOOOO:=Obx                                                                   ",
"          =O=;:;yutwwwweewtyyytttq0:;==O==O=:0et:;::;=OO=;OOl                                                                   ",
"          =O==O=tuiuttttyeeeuyyutteq0:;O=OOOO=:wq:=;::;;O=OO9                                                                   ",
"          O=:;;=qtuVuuuyueetiuuuuuytewq:=OOOOO=;ee0:==;:;=OO8                                                                   ",
"          =:q0:0wtyiCCViuytuiiuuuuuyreq:;=OO===:weew0:;==:;O6                                                                   ",
"         =;0ewewqeyuiCCCViiiuuuiiiiuyttewq0::0qwwqq0wwq0;OOO5                                                                   ",
"        =;:etyttqetuuiVCCCZZZZCCCViuyttewqq::::;;OOO=:wtw0;O4                                                                   ",
"        ;:wyuyteetyiVCCZDZViiiuuytewwq0::;;=OOOOOOOO=;:qew0;O                                                                   ",
"        :qtutwqqtyuiVCZZCZDZCViuytteeq0:===OOOOOOOOOO===;:00=O                                                                  ",
"        =::q0qqeiCCViuyteeetyiViuywwqqq0:;==OO==;:0:;=OOOO=;;O                                                                  ",
"         =;:::tiViuyeewqq000000wwqeetttq00:::qweyyttewq0;OOO=O                                                                  ",
"         ==;0tuCyeq:;;:::00weyyyyyyyyyyyyyyytewq00qwetytwq;OO=                                                                  ",
"          =:euCuw0:;;;:0wetyuiViVVVViuytewq:;;::0:;=;00wetyq:==                                                                 ",
"         =;quiyw====;0wtuVCZDDZCViuytewqq0::;;;=q:qwq0;=;:qyeq;=                                                                ",
"         ;0tyt0;=;0wwtuCVCViuytewq0:::;;;;;;;==;O=;:0qwq:;O;:qw0                                                                ",
"         :wye:=O0weyuiuyteewq0::::::0q0qq0::::;;=OOO=;::0q0;OO==                                                                ",
"        ;0e:=OOOqeyyteww0::;;:00qwweettteeeewq0:=OO=OOO=;:0w0;=O                                                                ",
"        :w:;OOO=eyytqq0w0:=;wtttuuuuuuuuuuuuyteq:;=O===OOOO=:0;O                                                                ",
"        ;0=OOO=0ytwq::w0;=:wttuuyteeeeewetyuiuytq:;OO=;;:;=O=;=OO                                                               ",
"        =;=OO=0ewq0;:q0;;qttuuyttwqqweeewwetyuiiyte:;OO=;0q0;;==OO                                                              ",
"        O=OO=:qt::;0w:;;0tyyytqqq::;=OOO=;:0qwetuuytq;OOO;0wwq:;=OO                                                             ",
"         OO=;qeq=O:w:;;:ewttw0:;;=OOOOOOO====;:0wetutq;=O=:wytww0;=                                                             ",
"          O=:qq:O;q0;=;qewq0:;:0000:;=OOOOOOO===;;:0wteq;=O;qtytw0;                                                             ",
"          O;0;;O;q:=O;:eq0::;;==;:0;=OOOOOOOOOOO===;:qqye;O=;0tuew:                                                             ",
"         O=;=OO=w:=O;0w:;=OOOOO==0;OOO=OOO=;;===OOOO=;;:q:;OO;0eye0=                                                            ",
"         O=OOO;:0;O=q::;OOOOOOOO:=OO;=OO=;::0000:::;=OO=;:0;OO=:wtq;                                                            ",
"        O==O=;:q;O;0:=OOO====O=;OOO=:=O=:00:;;::qweq0:===;::==O=:qwq=                                                           ",
"        OOO;0:;qO;;=O=;:0q0:;=O=OOO;0=O;00;=OOO=:qwttwwq:=;;;;OO=;0w0=                                                          ",
"        O=;:;=q:OOO=;0qwewq0:;=O=O=:q;O==;=OOOOO;0qeeytwq:==;::OO=;:q;                                                          ",
"       O;::=Oq:=O=;:qq0:0qq0::;;O==;0:=OOOOOOOOOO=:0qweeeq:=O;;:=O=;::                                                          ",
"       ::;==q:=O=:::;===;0:;::0:;O=;q0:;=;;;;=OOOO=:00qweeq:;===;=OO=;                                                          ",
"      OOOO::OO=;q00:;;;==OOO=;00wwwqwwwwwqqqwwwq:=OO=;0qqwweq:;=;OO=;;=                                                         ",
"        O=;OO=:q0;;=OOOOOO=;;::ww::qqq00wwww::::;;=O=;:00qqwewq:;;=O=:;O                                                        ",
"        OOOO=;qw;=;;==OO=;:==::w0:;;=;:000000;;==OOOOO=;:00qqweq::;=O=:;O                                                       ",
"       OOO=;:q0:=;:;=O=;::;=;;:0;=O=;;;;======OOOOO===;:::;:0qwew0:==O=:=                                                       ",
"       O=;:ww::=;0;=O;::;=O=;00;OO=;;;===OOOOOOO=;::0:::;=O=;:qweq0:==O=;O                                                      ",
"     O=:0:ww0;=O0;O=;:;=O=;::;=OO=;=OOOOO=======:::;==OOOOOOO=;:0qqq:;=O==O                                                     ",
"     O::ww0:;=O==O=;:=O=:0:==OO=;=OOOOOOOOOOOOOOOOOOOOOOOOOOOOOO=;:00q:=OOOO                                                    ",
"    O;:q0:;=OO=;O=;:=;:0:=OO=;;=OOOOOOOOOOO@@@@@@#@X##$#XX....OOOOO=;:q::;=O                                                    ",
"    =::0==OOO=;=:O==;0:;===;;=OOOOOOOOO@#>,$@@#$<23>#>,1,$#@.XX.@@OOO=;q0:;=O                                                   ",
"    ;;;=OOOO=OO====;0=O=;:;=OOOO@@@@@$#,13p2,@#,2dga2#@>$3d1$#,<...##XO=:w0;=                                                   ",
"    :==OOO==OO=:;00;=O=;:;=OOO>@@,,,#>>2pssgs,@#akHhs1$@1aga<#$.....$#XOO;w0;O                                                  ",
"   O;=OOO;=OO=:::0;==;:;=OOOO,@@@#@>@@,<13ps2>#@agkhgs2@3djd2@..$,$.....OO::0=O                                                 ",
"   O=OOO;=OO=::::;=;::;=O@@>@@@,,<,@@@>#####$#@#,12231,@,1sp,XX>12<,@,<>@OO;0;O                                                 ",
"   OOO=:;OO=::::==;::;=O@@<,@@,2da2>>@@@231,$#@>pp2<,$$#,<>$#@##$,<$@<<1>@O=0:=                                                 ",
"   OOO;=OO;:0:;=O;::;=OO<32@@<3djgp,$@,,3dg3<#>2gGs1@><3dp2$<1p2>#>,>$331@OO00=                                                 ",
"   OOOOOOO;;OOOO=;:;=OO,2a1>@,2gsp,$@,,adgda3,<pgGap@>2dfdp<2pss2##3<$#$$#OO0;O                                                 "
};
