/* XPM */
static char *result[] = {
/* columns rows colors chars-per-pixel */
"64 64 235 2 ",
"   c #000000",
".  c #0A0002",
"X  c #000901",
"o  c #02010A",
"O  c #0A000D",
"+  c #04090A",
"@  c #130206",
"#  c #031803",
"$  c #040012",
"%  c #040217",
"&  c #111014",
"*  c #380100",
"=  c #280B13",
"-  c #14330D",
";  c #24301B",
":  c #020225",
">  c #02012A",
",  c #010034",
"<  c #01023A",
"1  c #09003B",
"2  c #2F2E2C",
"3  c #373634",
"4  c #460504",
"5  c #4B0301",
"6  c #540202",
"7  c #5D0201",
"8  c #5A0607",
"9  c #560B16",
"0  c #640303",
"q  c #6B0100",
"w  c #670608",
"e  c #730101",
"r  c #7D0201",
"t  c #73020A",
"y  c #7A020C",
"u  c #770A08",
"i  c #6F120D",
"p  c #74140A",
"a  c #680315",
"s  c #750817",
"d  c #6C1714",
"f  c #791817",
"g  c #4B3313",
"h  c #702A0A",
"j  c #7A2519",
"k  c #691823",
"l  c #7D1D25",
"z  c #4A3330",
"x  c #7C292D",
"c  c #2B5519",
"v  c #394837",
"b  c #7A4414",
"n  c #474C34",
"m  c #47453A",
"M  c #64503C",
"N  c #010244",
"B  c #05064A",
"V  c #02014C",
"C  c #010153",
"Z  c #090554",
"A  c #02015C",
"S  c #100052",
"D  c #010164",
"F  c #02026B",
"G  c #03076B",
"H  c #170066",
"J  c #03017B",
"K  c #463B4A",
"L  c #394349",
"P  c #46454B",
"I  c #545648",
"U  c #4E4A51",
"Y  c #4B5756",
"T  c #575A59",
"R  c #61584B",
"E  c #655859",
"W  c #4F6652",
"Q  c #5A645A",
"!  c #65655C",
"~  c #706555",
"^  c #525363",
"/  c #5A5964",
"(  c #665B66",
")  c #5A6768",
"_  c #556968",
"`  c #686667",
"'  c #796C6C",
"]  c #6C786C",
"[  c #78776A",
"{  c #696876",
"}  c #746874",
"|  c #677576",
" . c #787877",
".. c #830101",
"X. c #8C0201",
"o. c #85050A",
"O. c #8B020A",
"+. c #930202",
"@. c #9C0101",
"#. c #960A03",
"$. c #9B0B02",
"%. c #94000A",
"&. c #9D000C",
"*. c #890213",
"=. c #9B0713",
"-. c #861917",
";. c #8F1B16",
":. c #A30101",
">. c #AB0101",
",. c #A90607",
"<. c #A4010B",
"1. c #B40102",
"2. c #BB0201",
"3. c #B30A02",
"4. c #B80A07",
"5. c #B3030B",
"6. c #BB020C",
"7. c #A20313",
"8. c #B60513",
"9. c #86261A",
"0. c #8C3811",
"q. c #851A23",
"w. c #991D2D",
"e. c #892727",
"r. c #952628",
"t. c #942C2C",
"y. c #8D3227",
"u. c #9A352B",
"i. c #8E2632",
"p. c #962B33",
"a. c #8D3337",
"s. c #983734",
"d. c #A83133",
"f. c #A43838",
"g. c #C40101",
"h. c #CB0202",
"j. c #C50A04",
"k. c #C4020A",
"l. c #CC020B",
"z. c #D30102",
"x. c #DC0102",
"c. c #D90607",
"v. c #D4010B",
"b. c #CC1205",
"n. c #C70213",
"m. c #D70216",
"M. c #E30101",
"N. c #EA0202",
"B. c #EB0506",
"V. c #E3020C",
"C. c #F30101",
"Z. c #FD0100",
"A. c #F5030C",
"S. c #F50211",
"D. c #F41013",
"F. c #FE221B",
"G. c #F51D29",
"H. c #ED292D",
"J. c #FE2423",
"K. c #8E5015",
"L. c #926307",
"P. c #936310",
"I. c #AA6B14",
"U. c #9E4138",
"Y. c #AA433D",
"T. c #AC7A2C",
"R. c #983745",
"E. c #9C3549",
"W. c #A93947",
"Q. c #B83743",
"!. c #9A404C",
"~. c #AB4946",
"^. c #B34949",
"/. c #B6544B",
"(. c #B04E51",
"). c #AE5A53",
"_. c #B95457",
"`. c #BA635C",
"'. c #BF596D",
"]. c #816B77",
"[. c #877B79",
"{. c #BA716C",
"}. c #C24E51",
"|. c #C7585B",
" X c #CE6C55",
".X c #CC5B67",
"XX c #CC6C6D",
"oX c #D47875",
"OX c #E46B72",
"+X c #358829",
"@X c #4B9D3E",
"#X c #50B154",
"$X c #77896A",
"%X c #7B8477",
"&X c #BD8E26",
"*X c #BAA13A",
"=X c #C29F31",
"-X c #8E805D",
";X c #82867B",
":X c #DC9577",
">X c #E8DF57",
",X c #010187",
"<X c #010398",
"1X c #0001A8",
"2X c #0101B8",
"3X c #6F7784",
"4X c #0101CA",
"5X c #0001D8",
"6X c #0102E7",
"7X c #8D7D86",
"8X c #E87E88",
"9X c #798688",
"0X c #868886",
"qX c #988989",
"wX c #929689",
"eX c #878A95",
"rX c #8F9494",
"tX c #9D9D9A",
"yX c #A59888",
"uX c #A29B9B",
"iX c #9CAA93",
"pX c #A3AA9B",
"aX c #9A99A5",
"sX c #A89CA7",
"dX c #9BACAB",
"fX c #A5AAA7",
"gX c #B1AEAE",
"hX c #D7878B",
"jX c #E98E8F",
"kX c #EC9DA1",
"lX c #FCACA9",
"zX c #BFC2B1",
"xX c #C7BDC8",
"cX c #D4CCD0",
"vX c #D3D6E6",
/* pixels */
"                                                                                                                                ",
"                                                                                                                                ",
"                                                                                                                                ",
"                            }                                                                     {                             ",
"                            ~ o                                                                   ~                             ",
"                            Q                                                                   o Q                             ",
"                            T qX                                                                7X_                             ",
"                            / -XeX        T                                         T       O 7XeXU                             ",
"                            E 9X9X      E `                                         ` Q       rX .E                             ",
"                            T ' ;XeX    { %X                                         .{     0X9X$X/                             ",
"                              U [  .qXrXR T R         m.x.N.c.C.Z.m.X.>.v.      o / E W tXeX;X` Y                               ",
"                              T T _ [.rXuX7X1.8.2.z.:.j.C.Z.j.M.z.+.5.@.o.o.X.2.g.2. .uXqX9X{ I Y                               ",
"                              K I / ~  .fXvXzX&.%.M.A.g.@.1.2.2.>.g.1.:.o.O.M.@.:.xXvXdX[ { Y U n                               ",
"                  | sXo       U K / ) 3XdXcXcXgX5.M.:.2.+.$.V.l.h.2.>.X...1.C.@.cXcXcXsX .! ( m P         tX'                   ",
"                    ( } aX'   >.$.P ) 3X .~ 9XwX2.V.g.2.2.1.,.g.l.@.>.2.l.:.x.z.9X7X` | { ! P :.:.  ! tX' )                     ",
"                    } Q ;XyX;Xv.@.:.P I  .) 3X[ l.1.h.B.c.g.>.+.@.,.6.g.V.>.g.v.%X| Q | T P @.6.M.%XsX0X! `                     ",
"                      Q ` 3XrX] 3.>.6.h.M E I l.>.>.6.g.k.1.+.r X.:.l.h.1.>.:.g.8./ I I h.1.7.1.` eX[.` )                       ",
"                      I Y ` ].( Z.y +.7.k.g.x.l.#.2.2.j.2.>.X.r q @.:.2.h.N.1.@.n.g.h.4.:.>.r A.( 0XT I Y                       ",
"                      S.g.$.6.x.2.v.#.e :.>.6.:.@.2.V.C.M.j.:.X.X.2.M.M.S.F.v.h.>.o.0 y X.@.g.2.B.2.:.g.B.                      ",
"                    m.N.l.+.e 2.1.v.:.e.r ..X.>.>.1.h.v.b.M.n.V.c.h.B.C.B.M.k.>.&.u i i ;.O.m.3.>...$.2.C.x.                    ",
"                  >.:.1.@.l.2.@.:.X.;.q.i d %.O.:.:.1.g.M.N.j.g.h.l.B.h.l.l.>.#.-.i d f -.r...@.:.6.6.:.2.<.1.                  ",
"                  z.2...e >.1.B.c.>.e.i i -.e.f -.<.3.$.5.g.h.1.6.:.1.2.2.>.<.t -.a.f d i e.:.z.S.6.:.....7.x.                  ",
"                  r +.>.x.+.5.>.j p.f.s.y.f p.s.p.f 0.K.& # 5 h 0.4 # - K.e.;.a.s.s.f ;.f.s.a.j >.>.X.V.2.%...                  ",
"                  t ....:.u +.9.s.s./.^.h r.^..X~.-.p.0.& - 0.&XI.b ; + y.i.e.f.|.(.r.j ~.(.Q.U.-.X.e >.X.t r :.                ",
"                >.5 7 O.*.6 f ^.d.f._._.r.9.d f r.a.b L.c +X#X>X>X@X+Xc L.0.p.t.f f l t._./.s.s.~.f w *.r 8 5 :.                ",
"                6.e t 7 7 l p.y.Y.{.OX^.a.y.j 9.Y.(.L.=X; c +X=X=X@Xc - *XP.^.^.e.d e.s.).OX.XY.t.d.p a 0 w r h.                ",
"                2.M.>.r o.@.1.9.p.E.).(.(._.XXlXjX_.d.!.a.T.L.- ; P.T.r.y.Y.`.jXlXoX|.^.~.s.U.w.x 2.:.q y n.h.>.                ",
"              &.X.3.X.h.N.X.l.9 s j W.(.u.oXjXXX/.~. X XW.d. XP.L.|.u.E.XX|.(./.XX8XoXY.}.d.-.f k 1.:.A.v.+.1.X.X.              ",
"              h 0 r *.6.M...1.v w f u p._.oXXX~.e.U.(.`.)._.oX.X'.:XY.)..X_.s.t.f.oXXXj d d i.0 z >.X.x.$.X.X.0 h               ",
"              o.7 i r *.@...+.T  .I 9 iXd 9 -.f.^./..XhX{.jXkXi.w.kXjX.XhX/._.W.r.-.-.s iXa 2 %X) ..q 2.r e q 7 ..              ",
"            2.c.g.w t 7 w d s.3 P C 1 ) U fXI i 8 f a.d.s._.|.y.t.|.).f.W.9.l 7 k ^ fXI ^ < < m K t.q.8 q a r h.M.1.            ",
"            x.A.h.X.6 8 q j s.q 4 < $ 2 T 7X].j 8 e.e.j f t.t.f.f.u.i.-.9.;.0.8 l } 9XY v o V 0 q f.l 0 6 7 O.n.C.Z.            ",
"          6.N.k.2.q 9 7 8 d h * @ +   2 2 ) ^ g . g R R.t.-.9.e.R.f -.e.R./ g . g W Q 2 2 @ Z . 0 h d 7 6 4 a j.g.x.2.          ",
"          :.x.8.>.r 5 0 0 5 u +     . o ; v v o   o tXE x q.p.|.(.r.r.a.I tXo + O 3 P 2   O N   O w q 7 a e r @.2.l.4.          ",
"          @.+.X.@.1.@.k./ cXp o   . .   .   . X $   T z + L Y / M W P . z T V C   $ o G   o     O w cXT 8.+.2.1.X.+.#.          ",
"          &.:.6.B...=.+.{ tX0   % O   o O   o . X V . X o . + P P ; $ . $ . X o C   o A o . .   4 0 aX` <.X.<.N.8.X.@.          ",
"            <.>.j.n.:.g.' _ q   . # o D   o X   A % o o   X .   $   S + o X O . N B + J     X o = X.) } l.@.g.k.1.7.            ",
"            2.5.:.V.>.N.1.y >.% X . S   . % X . V X   .             V . o .     #   F B   $ .   8 X...5.z.1.M.>.>.g.            ",
"              5.>.g.x.6.h.C.r * <XB A X     o V V @ , : > : % C N , > , V o o + O . ,Xo   X o 6 7 @.V.c.2.x.4...3.              ",
"              1.:.$.g.h.x.3.! _ V A .   X A N X   . N N < C F ,X,XF < < , :       F C o . . 4 $XQ } g.x.B.g.@.:.1.              ",
"              j.8.%.%.g.Z.] pX%XvX.   . D . . %     N C N D <X1X2X,XF < N <   .   C Z     * K.vX;XfX3XN.2.@.o.j.h.              ",
"                2.g.@.:.m.:.eX| pX` ,XD B     $ X   C C F <X2X6X5X2X1XG C A     O + G Z . q E tX].0X:.M.:.o.z.:.                ",
"                h.<.e X.>.2.c.@.+.#.&.* + o   o   o C J ,X1X4X5X6X4X2XJ D C   o X $   H o.X.2.y #.h.g.:.+.e :.4.                ",
"                  X.w q d.R.<.l.:.V.>.7.    . . o < V C F ,X1X4X2X2X,XD V N o + . X   6 X.2.x.F.h.+.s.f.q a ..                  ",
"                  >.,.x.>.X.#.m.%.B...X.4       o o < Z N D ,X<X<XJ F D > N % o   @ 7 0 0 <.x.x.>.X.X.<.h.5.g.                  ",
"                  =.>.6.j.2.3.1.+.>.+.X.7 4 = % X .   : < V B G F Z V N , > . %   e 6 e O.:.<.,...j.2.g.1.:.+.                  ",
"                >.e q X.<.h.1.2.,.:.O.@.e r.d 8 ;XgXv   O 1 : > > :   =   L gX[.s k e.q 3.+.:.X.s.y v.,.r t 0 +.                ",
"                O.    r ..,.t x.D.C.>._ $...r.i $XaXW n   ( { o   3XY   g Q fX3Xl 9.O.,.) :.c.H.x.0 :...X.    X.                ",
"                e g.    X...t =.n.N.F.:.qX7.:.*.` rX$Xv z ! ;X` ` wX} g P  .wX) ..@.>.9X3.F.N.j.#.+.e ..    j.*.                ",
"                  6.v.1.a ..l.C.>.g.J.M.5.` 0X8.Q ]  .P &. .fXiX0XgX3X@.n ' %XR :.eX` 2.B.D.l.2.B.z.u t 6.k.1.                  ",
"                          } pX/ >.C.2.:.G.J.x.>.t e r :.h.&.&.z.g.@.@.j.:.u e r &.C.G.J.@.k.B.2./ tX|                           ",
"                          [.yX/ X.Z.:.h.M.V.x.S.:.y 8.2.M.N.B.c.c.N.B.N.h.:.t @.A.N.b.x.x.>.B...T sX .                          ",
"                          } ' Y X.M.3.C.%.:.3.h.Z.3.x.x.S.x.l.6.2.x.x.C.N.v.@.Z.g.2.@.:.M.2.S.r ^ } ].                          ",
"                          ^ ! 3 g.3.O.g.q   o.X.a M.N.6.1.>.@.r O.o.:.>.1.S.A.s r O.  e z...2.2.3 ! Y                           ",
"                                        $.t q     q     @.q 9 O...8 0 <.    e     e y %.                                        ",
"                                        1.#.*.j.    %...e 6   @.6.  5 e r +.    v.X.r 1.                                        ",
"                                            7 ..2.n.t 7 8     h.g.    0 6 *.h.3.e 0                                             ",
"                                                s 7 6 6 a :.j.7 q k.:.y 4 5 q a                                                 ",
"                                                                            o                                                   ",
"                                                                                                                                ",
"                                                                                                                                ",
"                                                                                                                                ",
"                                                                                                                                ",
"                                                                                                                                "
};
