/* XPM */
static char *result[] = {
/* columns rows colors chars-per-pixel */
"64 64 234 2 ",
"   c #000000",
".  c #0B0101",
"X  c #000A01",
"o  c #01010A",
"O  c #06080B",
"+  c #020419",
"@  c #3A0600",
"#  c #1F2B15",
"$  c #333914",
"%  c #000224",
"&  c #050427",
"*  c #01002C",
"=  c #070731",
"-  c #020234",
";  c #01013C",
":  c #292927",
">  c #32342E",
",  c #460305",
"<  c #4D0102",
"1  c #540103",
"2  c #5C0101",
"3  c #580708",
"4  c #5C0E08",
"5  c #640201",
"6  c #6B0101",
"7  c #680709",
"8  c #730101",
"9  c #7C0201",
"0  c #780608",
"q  c #6B130B",
"w  c #78190B",
"e  c #7A0614",
"r  c #661015",
"t  c #781917",
"y  c #4C3316",
"u  c #762902",
"i  c #722D0B",
"p  c #741224",
"a  c #7E1B27",
"s  c #483D3A",
"d  c #772D24",
"f  c #4A4B3D",
"g  c #020144",
"h  c #060547",
"j  c #01014C",
"k  c #020154",
"l  c #050556",
"z  c #01025B",
"x  c #130353",
"c  c #010163",
"v  c #01026C",
"b  c #06056C",
"n  c #12006F",
"m  c #010274",
"M  c #01027A",
"N  c #09037D",
"B  c #4E3C46",
"V  c #384946",
"C  c #47474A",
"Z  c #4E4E4F",
"A  c #58554B",
"S  c #4C575B",
"D  c #565759",
"F  c #6B5552",
"G  c #655A57",
"H  c #4E614E",
"J  c #5A6558",
"K  c #6F6957",
"L  c #676359",
"P  c #68785E",
"I  c #555562",
"U  c #595967",
"Y  c #665D67",
"T  c #586465",
"R  c #526B6A",
"E  c #5B6971",
"W  c #666667",
"Q  c #75696B",
"!  c #687469",
"~  c #79766B",
"^  c #676B78",
"/  c #76687A",
"(  c #667775",
")  c #787778",
"_  c #830102",
"`  c #8B0101",
"'  c #870708",
"]  c #8C010A",
"[  c #950101",
"{  c #9B0201",
"}  c #93010A",
"|  c #9B0708",
" . c #870514",
".. c #980116",
"X. c #8B1C10",
"o. c #861A19",
"O. c #A30101",
"+. c #AB0202",
"@. c #A40B04",
"#. c #A3010A",
"$. c #AB020A",
"%. c #B30201",
"&. c #BC0202",
"*. c #B60A04",
"=. c #B4010B",
"-. c #BB030B",
";. c #AA0412",
":. c #B70612",
">. c #86261B",
",. c #972619",
"<. c #903913",
"1. c #861924",
"2. c #941327",
"3. c #882525",
"4. c #8C2B2B",
"5. c #942A29",
"6. c #8B3526",
"7. c #99322A",
"8. c #8C2833",
"9. c #992937",
"0. c #983534",
"q. c #A42D30",
"w. c #A43B39",
"e. c #C40201",
"r. c #C40606",
"t. c #CB0102",
"y. c #CB010B",
"u. c #D30102",
"i. c #DB0101",
"p. c #D70309",
"a. c #CA0215",
"s. c #D70314",
"d. c #E30101",
"f. c #EC0102",
"g. c #E7020A",
"h. c #F40101",
"j. c #F70207",
"k. c #F20915",
"l. c #FD1C18",
"z. c #F9221D",
"x. c #F9192E",
"c. c #E82B25",
"v. c #FA2425",
"b. c #8F4C17",
"n. c #AD4A08",
"m. c #A8751A",
"M. c #9C4533",
"N. c #A44F28",
"B. c #A6473C",
"V. c #B27728",
"C. c #912B42",
"Z. c #9A3944",
"A. c #A83940",
"S. c #9E4744",
"D. c #AC4446",
"F. c #B54747",
"G. c #AC524C",
"H. c #B6534C",
"J. c #B64B54",
"K. c #BA5755",
"L. c #BD6555",
"P. c #817662",
"I. c #877C79",
"U. c #BE6267",
"Y. c #C64C55",
"T. c #C6595B",
"R. c #C2665B",
"E. c #C85D66",
"W. c #C96B69",
"Q. c #CE736F",
"!. c #CD6C73",
"~. c #D47478",
"^. c #70816F",
"/. c #778376",
"(. c #B38C25",
"). c #BCA032",
"_. c #C29730",
"`. c #D0BF38",
"'. c #8E805D",
"]. c #868677",
"[. c #D9B749",
"{. c #E0BE4B",
"}. c #DB857D",
"|. c #E6D553",
" X c #EEDB5A",
".X c #FEFD72",
"XX c #010085",
"oX c #030786",
"OX c #00028C",
"+X c #010293",
"@X c #040598",
"#X c #0101A2",
"$X c #0503A9",
"%X c #0101B2",
"&X c #0706B7",
"*X c #0100BC",
"=X c #727989",
"-X c #0202C3",
";X c #0101CC",
":X c #0803CC",
">X c #0202D3",
",X c #0301DB",
"<X c #0401E7",
"1X c #0201FB",
"2X c #0802FA",
"3X c #1D16FF",
"4X c #393AFC",
"5X c #3140F1",
"6X c #4E52FE",
"7X c #5355FE",
"8X c #8A788A",
"9X c #D87982",
"0X c #E37C85",
"qX c #7A8689",
"wX c #84858A",
"eX c #8F8C8B",
"rX c #898C96",
"tX c #958B99",
"yX c #899897",
"uX c #999C9B",
"iX c #A89B96",
"pX c #97A09B",
"aX c #AAA69B",
"sX c #9E9DA3",
"dX c #A49BAB",
"fX c #9BA6A8",
"gX c #A7A5AB",
"hX c #B5B3B1",
"jX c #E68687",
"kX c #EA8891",
"lX c #B8C1B7",
"zX c #C1BBC5",
"xX c #DAD8E3",
"cX c #DFD9E0",
/* pixels */
"                                                                                                                                ",
"                                                                                                                                ",
"                                                                                                                                ",
"                            K                                                                     K                             ",
"                            J                                                                     J                             ",
"                            ^                                                                 .   E                             ",
"                            I '.wX                                                            8XrXD                             ",
"                          X G qXqX                                                            tX~ Y                             ",
"                            D ) wXeX      ~                                         )       wXqX~ I                             ",
"                            Z / /.yXyX) ) rX                                        eX~ ].tXrXI./ C                             ",
"                              Z S R I.yXuX) F .     ..{ { f.r.g.y.y.t.+.{ ..    G E =XsXtXwX^ A H                               ",
"                            . V Z G / ( aXxXlXO.*.d.` ` +.t.t.e.%.&.t.{ ' _ f.&.O.hXcXaX].^ D Z C                               ",
"                . ( dX        Z > Y J ) hXhXcXzX..j.-.` 9 | *.%.&.e.+.` { $.f.$.lXcXzXhXR G D s I       . uX~                   ",
"                  R ~ yX        Z A ( Y =XpXgXhXr.j.%.{ ` #.i.f.g.i.O.' O.-.j.*.hXhXyXP.^ K A A         iXK W                   ",
"                    / J /.iX=Xp.&.+.B D ) T =X%.p.*.e.i.u.e.%.` _ %.*.r.p.+.t.t.r.Q R ^ G C [ *.y.wXaX].G W                     ",
"                    . J F wXrX! t.{ +.i.f J O.-.=.+.#.e.d.t.} ] ` | -.t.&.&.[ y.e.$.A S t.&.+.e.P uX) D W                       ",
"                      A D E =XQ i._ { O.y.e.:.+.%.+.t.+.| O._ 6 8 ` +.*.e.h.%...{ e.t.=.+.} ` d.Y =XE U Z                       ",
"                        > C A f.a.O.9 } _ [ ` ` e.y.f.h.u.*.| _ 0 +.+.r.f.f.t.e.` ] ] ` } 9 { r.j.A Z V                         ",
"                    . g.s.[ 9 -.%.y.O.>._ { { @.&.p.h.i.d.j.+.{ @.*.i.h.j.k.d.%.{ w 7 q ,.` i.%.*.e { e.j.                      ",
"                    { +.{ r.&.{ +.` X.>.q t 9 ` O.-.z.v.i.+.%.y.%.&.i.v.z.j.&.`  .7 t t 1.,.8 O.+.%.&.+.%.$.                    ",
"                  g.+._ 9 +.+.j.p.$.4.q 3.3.6.d ' ..&.&.%.%.p.p.u.t.*.+.&.e.[ q 3.6.4.4.5 4.$.u.h.+.+.8 7 %.d.                  ",
"                  ;.[ u.k.` &.j.+.o.1.9.A.0.F.w.o.q a.z.c.i.p.<.b.r.f.f.y.=.q a 4.H.4.0.0.>.3.&.f.y.O.f.t.[ %.                  ",
"                  9 0 ` O.0 [ o.0.w.H.D.t 4.J.T.J.>.,.m.m._.[.[.`.[._.(.b.<.1.D.W.F.4.o.A.J.7.S.8.9 8 O._ 6 6                   ",
"                  3 5 9  .1 t F.q.B.J.K.8.t 3.5.0.0.b.m._. X.X X X.X X(.V.b.9.w.0.o.t 0.K.H.F.9.B.t 5 { _ < 5                   ",
"                  e 6 2 6 t 5.6.A.R.9XD.0.5.1.S.w.J.<.V._.`..X`.`..X`.(.V.b.F.w.Z.a 3.7.J.~.T.S.5.6.t 7 6 3 9 t.                ",
"                y.9 2 7 6 o.Z.H.9XT.K.~.H.B.0.D.T.!.M.b.V._.|. X|.{.).V.N.M.Q.Y.G.0.B.K.~.K.Y.~.J.3.,.6 2 2 e e.                ",
"              $.7 =.[ t.j.{ 5 7 r Z.w.B.D.U.}.jX~.Q.R.W.0XkXR.N.N.L.jXkX!.T.W.9X}.jXE.A.H.q.a q X.1 #.g.y.[ &.` [               ",
"              u 6 9 ` %.y.9 5 9.e t 5.B.J.Q.~.W.B.M.F.T.!.Q.}.w.M.kX9X!.U.H.D.F.Q.W.Q.G.0.7.1.1.9.8 _ p.e.[ _ 6 i               ",
"              e 3 9 6 0 +. .' L qXA 7.aX1.t F.Y.T.T.K.jXW.kXR.6.3.U.}.U.}.K.T.A.K.T.H. .hX9.H ) Y 3 8 +.' 8 6 5 9               ",
"            X 9 e 1 7 ` 8 5 9 B A S > eXp ^.r t  .>.W.Q.G.K.B.5.4.K.K.L.W.T.3.t 0.9.P 1.wX: S U B 8 5 ` 9 3 1 _ `               ",
"            d.j.p.[ 5 3 5 >.C.6 . z   > J I.( 1.r 3.7.o.a 5.4.w.w.9.C.X.3.2.3.t 3.Q 8XZ > . j X 8 0.1.7 3 2 ' a.j.d.            ",
"          =.f.e.&.7 3 < 1 3 u X O g X : : Y D y x y D 6.4.o.1.6.7.w t 3.0.J y m $ L Y > : o v o m i 4 2 5 < 7 r.u.d.%.          ",
"          ;.u.e.+.5 8 < 2 7 t o O z .   # f > k l @XaXF d 5.7.H.G.,.5.6.S sXc X v > V :   z z k k 8 3 1 5 6 8 O.e.e.e.X         ",
"          { *.%._ ` _ r y L 6   . h M XX  X l j M OXI.C + W sXf H iXQ o C ) c O b OXM OXO v b X X u W y 7 9 e _ O.:...          ",
"          ] +.:.g.&.{ O.W sX2 j X o . oX. o + . XX;XoX+ * g :Xf f : g = -X& .   $X$Xc M c X X k < 3 uX! [ [ y.d.&.| }           ",
"            ..%.e.-.| _ Q W _ o o   X v j .   o @X%X& - g l :XOXM k n k = ;X+ o m $X@XOXO k   l , 1 W K 9 %.&.r.&.$.            ",
"            &.%.+.g.+.-.%.| 9 . .   +Xl z . X   *Xc = j z >XM oX#XOXc l ; &X& + k n %Xh j o l   2 , _ [ { e.t.+.O.&.            ",
"            e.{ -.d.@.i.&.O._ X   . N l c X .   %Xm ; k k :XoX%X$Xc m b - :X+ * k c *Xk k . k   < , ` [ &.-.d.+.#.&.            ",
"            n.` [ t.a.u.i.y.{ , X . z   k o o k v % g g c >X@X#X*X@XoXc ;X; * & z % $X  j   j X < | t.i.j.g.t.[ } n.            ",
"            . %...e.y.%.i.&.} @ 1 $XN   g O z m z g l M oX+X*X:X;X$X+X-Xc j ; * l   b o XXX O < < 9 e.t.-.y.y.` %.              ",
"              *.O.{ e.d.u.u.W W S @X. + X XX+X+ - j c XX@X*X;X6X,X>X*X>X-Xm g = % XXz . OX. 1 I.E ^ -.t.d.r.{ #.@.              ",
"              t.t.` O.e.f.=XhX=XxXH . X OXo % ; j j M @X%X;X<X<X2X<X,X@X1X;Xj x ; OXj   X , S cX~ hX! j.&.[ ' e.u.              ",
"                { *.y.O.e.i.[ G ( 6 2 >X% h h j ; M $X*X2X1X4X7X6X4X1X<X>X1XXXv j + oX,X@ } { ! U $.i.e.O.t.e.O.                ",
"                &.$.O.` +.%.t.+._ [ 5 @ + + z * x m @X$X-X,X3X7X5X1X<X;X<X>Xc z h = % +X] %.e.-.+.i.%.O.' ` =.e.                ",
"                u.[ _ _ =.:.u.&.` [ 6 3 = % ; h j v +X*X<X>X3X6X4X2X>X,X1X;Xn j k ; g +X_ &.&.%.*.u.-.#.` 9 { =.                ",
"                  ] 7 5 9.4.O.p.z.r.%.6 . - * - g x OXOX$X1X7X2X2X,X-X#X1X&Xl <X&Xk m 4 -.=.d.v.p.O.w.q.6  .`                   ",
"                  $.%.%.e.=.=.| &.O.9 ' 3 @ o % = = l b +X2X$X>X;X%XOXXXc ;X4X@X& 4 8 5 } { %.e.y.@.{ *.&.%.|                   ",
"                  _ ] { O.f.9 8.! A ` w ,.t 0 . V P # b 2XM OX-X%X#X+Xm $X> ! C 1 3 1.3.i 9 { | 8._ d.+.{  .`                   ",
"                  5 6 ` #.*.6 7. .#.{ ` 8 ,.p 6 Q hXZ ; 2Xv @X+X@Xv v @X&XV zX/. .p 3.5 { ] [ [ 5.6 e.@.0 8 4                   ",
"                  %.  9 { O.5 i.l.g.@.L O. .1.u ( dXU $ g v k OXXXv m @X> G uX( t >.` #.W %.s.z.i.5 =.` 9   8                   ",
"                  _  .#.9 ` +.u.e.a.v.d.+.J rX+.W ) ) V { =XgXtXeXgX^ [ Z ~ =XS @.].E &.d.l.r.t.e.&.t 6 :.9 5                   ",
"                    _ 9 6 =.p.f.p.p.t.l.t.r.*.{ 6 L W +.O.R yXP.~ uXL | { J Y ' O.*.&.i.z.i.e.k.d.d.O.8 5 5                     ",
"                      5 &.R A j.d.d.+.#.v.x.d.$...2 ] { p.$.[ &.=.#.O.p.O. .5 ] { h.x.v.+.$.d.h.g.W Y                           ",
"                        ( aXxX$.d.f.*.u.f.d.i.j.O._ :.t.i.f.d.d.i.d.h.i.e.O. .#.h.i.f.p.a.&.f.f.+.cXfX                          ",
"                        Y ^.D ` j.{ [ s.'   ] _ 8 g.i.&.*.O.$.6 _ ;.O.%.;.i.d.8  .[ X 9 e.} $.d.` T ~                           ",
"                        W T   -.=.7 5 e.9 7 0 6 _ _ r.u.  _ e 9 0 6 ]   %.d._ _ 8 6 0 8 r.5 8 +.a.Y T                           ",
"                                        %.9 _ a.    y.9 8 1   O.=.  5 6 _ p.    -.8 _ *.                                        ",
"                                            4 { &.&.0 2 7     e.t.    3 2 9 u.%._ 6                                             ",
"                                                        2 9 6     9 5 6                                                         ",
"                                                                                                                                ",
"                                                                                                                                ",
"                                                                                                                                ",
"                                                                                                                                ",
"                                                                                                                                "
};
