/* XPM */
static char *result[] = {
/* columns rows colors chars-per-pixel */
"64 64 245 2 ",
"   c #000000",
".  c #0C0006",
"X  c #0D0E15",
"o  c #2D0C0D",
"O  c #1C241C",
"+  c #322C16",
"@  c #181E2A",
"#  c #01023A",
"$  c #2D1D2A",
"%  c #1F2A24",
"&  c #312E2B",
"*  c #4C0302",
"=  c #480409",
"-  c #540202",
";  c #5C0201",
":  c #590805",
">  c #5B0714",
",  c #561814",
"<  c #640201",
"1  c #6C0201",
"2  c #630907",
"3  c #6C0A01",
"4  c #6C020B",
"5  c #730101",
"6  c #7B0201",
"7  c #7D010A",
"8  c #750A09",
"9  c #6A1508",
"0  c #7A150A",
"q  c #680715",
"w  c #790514",
"e  c #6A1216",
"r  c #7B1416",
"t  c #771818",
"y  c #7C1B1A",
"u  c #412E04",
"i  c #782800",
"p  c #6C3004",
"a  c #662712",
"s  c #792616",
"d  c #6F1922",
"f  c #503725",
"g  c #483939",
"h  c #7C2324",
"j  c #184804",
"k  c #1A451B",
"l  c #224C0E",
"z  c #38483C",
"x  c #375630",
"c  c #2B6221",
"v  c #48473C",
"b  c #564532",
"n  c #030544",
"m  c #01024A",
"M  c #040258",
"N  c #383847",
"B  c #010164",
"V  c #060469",
"C  c #020175",
"Z  c #03087C",
"A  c #110071",
"S  c #483847",
"D  c #344A49",
"F  c #494849",
"G  c #594949",
"H  c #4B514C",
"J  c #59564C",
"K  c #4A4C57",
"L  c #564C56",
"P  c #495657",
"I  c #575757",
"U  c #6B584D",
"Y  c #645859",
"T  c #55654C",
"R  c #4B655A",
"E  c #5B6656",
"W  c #6B6A52",
"Q  c #66665B",
"!  c #4E5A6A",
"~  c #595B67",
"^  c #645866",
"/  c #665E73",
"(  c #596766",
")  c #576C6C",
"_  c #6B6768",
"`  c #746A6B",
"'  c #687266",
"]  c #79786A",
"[  c #696B76",
"{  c #746976",
"}  c #6A7575",
"|  c #787876",
" . c #840201",
".. c #8C0201",
"X. c #8A0A05",
"o. c #82020B",
"O. c #8C030B",
"+. c #930202",
"@. c #9B0101",
"#. c #94010B",
"$. c #9C020A",
"%. c #970908",
"&. c #870417",
"*. c #970414",
"=. c #831B1B",
"-. c #861918",
";. c #A30101",
":. c #AC0101",
">. c #A50A01",
",. c #AB0902",
"<. c #A5010A",
"1. c #AB040A",
"2. c #B40201",
"3. c #BB0101",
"4. c #B60A03",
"5. c #B3010A",
"6. c #BC020B",
"7. c #B51108",
"8. c #A80213",
"9. c #B50515",
"0. c #862518",
"q. c #8D3416",
"w. c #8A1C25",
"e. c #8E1128",
"r. c #8A2523",
"t. c #882726",
"y. c #8C2925",
"u. c #952729",
"i. c #932B2B",
"p. c #8B3328",
"a. c #94332C",
"s. c #9A2C33",
"d. c #8A3036",
"f. c #9A3334",
"g. c #9A3738",
"h. c #A6322D",
"j. c #A43739",
"k. c #A43D3C",
"l. c #C30202",
"z. c #CB0202",
"x. c #C90904",
"c. c #C3020A",
"v. c #CC010C",
"b. c #D30202",
"n. c #DC0102",
"m. c #D70A04",
"M. c #D5020A",
"N. c #CE0718",
"B. c #E30201",
"V. c #EB0202",
"C. c #E4010B",
"Z. c #E90508",
"A. c #F30101",
"S. c #FC0101",
"D. c #F8030B",
"F. c #E50213",
"G. c #F70D16",
"H. c #FD231B",
"J. c #CC0524",
"K. c #FC1D29",
"L. c #FA2226",
"P. c #8B4209",
"I. c #A3423B",
"U. c #A75D35",
"Y. c #AE3A45",
"T. c #C13F48",
"R. c #AB4645",
"E. c #B64A49",
"W. c #AE514D",
"Q. c #B9524C",
"!. c #BB4653",
"~. c #AC5451",
"^. c #B85957",
"/. c #B76B52",
"(. c #8B7575",
"). c #847979",
"_. c #B96461",
"`. c #C54F5B",
"'. c #C45B5A",
"]. c #C15966",
"[. c #C86566",
"{. c #D2706F",
"}. c #D46E71",
"|. c #D57472",
" X c #7D8477",
".X c #8F8471",
"XX c #858579",
"oX c #D7B75E",
"OX c #DA847E",
"+X c #E4807E",
"@X c #010284",
"#X c #030687",
"$X c #00038B",
"%X c #14008F",
"&X c #020195",
"*X c #06059A",
"=X c #01029C",
"-X c #0201A4",
";X c #0706A5",
":X c #0200AC",
">X c #1200A1",
",X c #0102B3",
"<X c #0307B6",
"1X c #0102BB",
"2X c #797C86",
"3X c #757A8B",
"4X c #0102C3",
"5X c #0402CA",
"6X c #0F06CD",
"7X c #0602D3",
"8X c #0600F0",
"9X c #837A88",
"0X c #8B7C96",
"qX c #768584",
"wX c #758789",
"eX c #8A8988",
"rX c #948B86",
"tX c #98958B",
"yX c #978A99",
"uX c #8A9190",
"iX c #899497",
"pX c #999797",
"aX c #A69295",
"sX c #90A19C",
"dX c #A8A698",
"fX c #918EA7",
"gX c #939BA5",
"hX c #A89DA8",
"jX c #95A9A8",
"kX c #9DA7B0",
"lX c #A9A6A4",
"zX c #B2ADB0",
"xX c #DD8D89",
"cX c #E38A8A",
"vX c #E69997",
"bX c #F29196",
"nX c #BAC1AF",
"mX c #B9C7BA",
"MX c #D4D3B7",
"NX c #BEBFC2",
"BX c #C3BEC2",
"VX c #BAD1CD",
"CX c #D0D2CC",
"ZX c #DBE8DE",
"AX c #E4DAE2",
/* pixels */
"                                                                                                                                ",
"                                                                                                                                ",
"                                                                                                                                ",
"                                                                                                                                ",
"                                                                                                                                ",
"                  )                     !                                             ~                     (                   ",
"                  ' W                   (.                                            }                   ^ (                   ",
"                  _ [ |               { .X                                            tX{               9X9X`                   ",
"                    W |               | wXX                                           hX{               ] T                     ",
"                    J 2XfX            ] zX                                            lX{             wX| ^                     ",
"                      ~ ` 2XiX        Y lXiX                                        yXdXJ         iX X| Y                       ",
"                      J ( | .X        H iXkXqX            3.N.V.V.n.6.            9XsXiXP         XX(.^ I                       ",
"                        H { 3XeX(.    F  XpXpX3X      1.b.l.z.n.z.N.3.x.,.      wXtXpX).v     (.pX| ' I                         ",
"                        g I '  XiXeX  N f 5 :.5.:.@.n.C.z.x.b.D.S.b.l.c.v.z.:.:.>.$.6 f &   gXyXeX_ ! v                         ",
"                          K P [ | lXlXhX X1.7.l.m.F.2.V.D.z.C.D.S.F.x.G.A.c.n.n.3.c.<.] zXjXjX9X[ Y F                           ",
"          rXXX              F Y } | zXnXAXVX@.1.3.b.<.l.n.A.v.n.Z.3.S.b.3.8.B.5.:.@.NXZXmXlX).` ( D               wXeX          ",
"            ).9X X            R / Q | fXzXZXmX+.B.3.l.;.2.l.2.3.4.3.2.4.:.z.l.B.%.mXAXBXtX} [ Q I             | eXXX            ",
"              eXeX|       x.n.G Y } } { tXlXzX5.S.3.2.+.%.l.z.3.2.M.M.@...2.2.A.1.zXhXgX} ` ` I z J.l.      wXrX|               ",
"                  3XgXdXfXqX( 3.<.F I E ) { (.3.B.x.l.3.3.,.b.V.n.z.>.2.b.l.2.V.9.| _ _ _ ^ v ..5.Y 9X.XzXpX(.                  ",
"                  ^ ( yXpXpXXXl.#.:.v.K P R N.n.3.:.n.n.3.2.:.>.3.:.3.l.b.B.:.6.b.c.U K x z.l.@.M.qXtXhXuX^ ~                   ",
"                    P J ` ).).B.%.@.;.b.b.2.m.:.;.%.3.b.z.+.7 ;.;.1 ..l.z.l.;.:.>.l.z.v.v.,.@.o.A.} 9X} L P                     ",
"                  3.3.N H T ~ x.+.7 ;.#...+.@.@.6.:.z.l.:.#.5 1 2 6 ..6.l.3.3.2.l.@.....@.+.w +.m.Q P L z 3.3.                  ",
"                  8.M.B.z.;.5 3.3.C.%.r.o. .@.6.3.b.D.V.m.:.@.X. .;.;.V.V.n.b.3.2.#...7 u.+.n.3.2.5 ;.x.A.b.>.                  ",
"                6.:.:.2.@.6.6.@...+.e r.0 -.X. .@.@.3.b.b.Z.@. . .;.C.n.v.3.:.%...X.8 0 -.r. .+.;.z.3.@.3.<.:.>.                ",
"                9.V.@.O. .;.3.S.z.1.i.e t t r.=.-.o.@.:.l.z.:.*...2.b.z.c.9...X.=.p.y t t r.;.b.D.3.;.0 6 @.A.1.                ",
"              ;.5 2.+.z.D.@.3.V.3.-.w.i.f.t.R.k.r.0 0.x.b.D.3.l.b.6.Z.b.z.+.t a.k.k.t.s.s.r.-.1.D.3.@.F.v.+.8.4 $.              ",
"              7 1 5 1 @.@.8 :.u.h.g.W.g.=.y.k.k.I.w.u.: <.1.l.%. .3.@.<.4 s.r.k.k.R.r.t I.^.j.a.s ..3 5.6 5 7 > o.              ",
"              ..o.< 4 6 O.; 0.I._.{.`.^.y.y y.y.d.y 5 8 e  .o.9 6 +.< 6 , 1 y i.r.r.y i._.[.].E.s.t 1  . .< > 5  .              ",
"            l.V.5.5 5 : 1 y j.}._.~.|.W.g.i.=.r t t w.e k c l oXoXj x k 9 0.y r r.y t.g.R.'._.{.E.g.y 4 4 - w l.V.l.            ",
"            V.V.c. .5 * 2 s i.^.!.Q.Q.}.^.R.u.i.-.r.p.t.q k j U./.j k , w.a.f.-.u.f.k.^.{.W.R.].!.P.d q 4 ; O.M.S.n.            ",
"          3.v.c.2.s.0.9 * 1 0 r.u.I.^.^.|.^.^.y u.I.^.Q.{.Q.!.d.q.`.`.{._.W.R.j.j.R.}.}.^.j.p.y f.9 - : 3 4 1 >.l.4.+.          ",
"          >.6.;. .I.a.u.f Q p 0 0 g.I.R.Q.^.i.Y.R.'.[.[.OXxX[./.^.'.cXxX'.{.!.j.w.R.^.W.E.j.w.e.9 s Y f 1 5 +...;.3.7.          ",
"          5 ;.+.0.E.T.t + yX_ 3 w.r h.!.k.i.g.R.'.'.OX^.cXbX{.E.!.}.vXcX'.+X[.'.W.r.p.I.s e 2 3 3 ' yX+ ; @.;.5 ..1.5           ",
"          4 3 ..s.Y.w.3 O _ uXq 9 9 r.s.u.=.y.s.I.'.^.xX[.xXvXa.i.vXcX_.OX[.^.j.h.w s.r : : = = ) H ' $ ; 7 @.&.1 o.2           ",
"          +.q 7 3 5 6 $ o   m 2XI & zXU * - ; t.g.=.t.I.j.E.'.a.u.^.W.R.j.i.s f.=.t e , lX% U } | u . = * ; q = 2 6 #.          ",
"          6 < 8 +.+.1.O % @ m m M n .XeX` : = 4 0 p.h.d h i.s.j.Y.p.p.-.h i.a.t e.g ' w.tXm m # V   = o > 6 6 > < ; 5           ",
"          +.+.7 z.2.I CX& @ O M # n P | zX&X: > 0 t L Y.h.-.h u.s.-.=.=.s.~ w.e y Z jXH G M M n M * 9 4 CXH 6.;...%.#.          ",
"            :.l.C.$.) aXi % O M V n N M XX#XN =X@X-XgX~ t.0.s.E.Q.y.u.p.E pX5X,X&X@XeXB N n M M M q =.i aX} ;.V.6.;.            ",
"            l.O.2.C.5.6 @.p - O $ V V V =X4X&X;X1X;Xv & 8XH I T / L H -Xz S 5X5X4X-X&X;XV @Xm * 3 d i @.7 4.n.*.9.3.            ",
"              @.O.A.K.n.c.T a eX& # A B B *X6X$X6X>X1X6X6X4X=XF D 6X:X1X4X,X5X1X:X6XZ :XV # o ; 0Xp ^ c.m.L.A.+.+.              ",
"              2.@.2.n.D.| lX' MXP.= n M @X@X4X,X<X-X4X1X1X-X,X4X7X4X,X7X4X5X<X4X4X&X;X*X> &.q.P.VXW hX2XV.n.6.#.2.              ",
"                ;.@.3.n.@.iXS kXE 4 - * %X,X6X<X5X;X5X7X$X,X1X7X1X6X7X-X5X4X,X1X:X<X$X* r.t.1 _ lXF yX .B.6.@.;.                ",
"                  5.;.z.>.....M.@.C. . .* . ;X-X5X>X=X=X4X;X-X*X-X,X:X,X1X<X,X4X;X@X, o.7 :.B.v.7.+...8.M.4.4.                  ",
"                  #.6.2.v.6.3.:.#.<.X. .< o . ;X=X&X=X=X=X@X;X=X*X:X&X>X@X=X*X#X;X> 1 ; @.;.@.>.o.5.4.v.>.2.@.                  ",
"                  6 7 +.1.B.@.1.] ;.X.s 0.0.2 . F VX@X#X@XZ @XZ #XZ $XC Z C CXg ; q w w.a X.+.` p...n.<.2.O.6                   ",
"                @.2 8 +...z.:.>.@.,.;.;.4 s d < wXzXF M V C C B V C B #XC v lX2Xe -.u.1 +.:.%.&.u.1 v.%.o.6 1 #.                ",
"                5 x.     .O. .+.b.A.L.3.XX;.<. .` yX] D f _ yXQ ^ jX/ a S 2XtX_ 6 $.@.yX3.H.B.z.%.w +.5     l.4                 ",
"                  :.z.2.5 8 l.A.<.v.L.C.4.R yX;.I | ).g +.` lXuXtXjX` ;.x ] ).Y :.eX' :.C.L.b.1.F.b.o.1 2.4.2.                  ",
"                  e.< 6 < b.) 3.Z.l.b.H.n.l.6.@...I Q ;.>.~ yX] { pXE 2.#.Q I  .;.1.z.n.H.z.6.V.l.Y v.q 5 1 &.                  ",
"                          W jXI 9.Z.:.#.H.H.B.4.7 2 O.@.M.;.<.6.3.*.;.v.2.o.< &.@.D.L.L.,.2.S.8.R lX'                           ",
"                          ` ] K 8 A.,.A.%.@.8.b.B.1.z.V.Z.B.b.5.2.b.b.G.b.l.2.B.M.l.+.+.F.2.S.6 G ] _                           ",
"                          G _ & z.3...M.6   @.#.5 V.n.c.c.;.$.5  .8.1.4.z.B.V.5 ..X.   .A.+.2.6.g U I                           ",
"                          b R   - ; > c.< 8 6 5 w 5 B.9.  ..3 5 3 6 +.  5.m.w O.4 6 5 1 :.< ; *   ~ H                           ",
"                                        +...>     1     ..5 ; 7 o.< ; >.    6     4 ..@.                                        ",
"                                            1 6 3.z.o.- <     l.x.    < < 7 x.3.6 4                                             ",
"                                                q - < : * :.v.< 1 b.5.- = - 5 <                                                 ",
"                                                        < 3 1     < ; 4                                                         ",
"                                                                                                                                ",
"                                                                                                                                ",
"                                                                                                                                ",
"                                                                                                                                ",
"                                                                                                                                ",
"                                                                                                                                ",
"                                                                                                                                "
};
