/* XPM */
static char *result[] = {
/* columns rows colors chars-per-pixel */
"128 128 75 1 ",
"  c black",
". c #020202",
"X c #040404",
"o c gray6",
"O c #1B0F08",
"+ c #0D1809",
"@ c #141004",
"# c #131313",
"$ c #161D16",
"% c #1B1B1B",
"& c gray11",
"* c #251404",
"= c #2F1804",
"- c #26140B",
"; c #391C06",
": c #311B0E",
"> c #3D1F0E",
", c #1B241B",
"< c #1D201D",
"1 c #1F2B1F",
"2 c #3E280B",
"3 c gray13",
"4 c #272727",
"5 c #262825",
"6 c #2D2D2D",
"7 c #233323",
"8 c #2B372B",
"9 c #2F3F2F",
"0 c #323232",
"q c gray20",
"w c #393939",
"e c #3B3C3B",
"r c #3F3F3F",
"t c #412312",
"y c #4A2513",
"u c #532B13",
"i c #572F17",
"p c #4B3210",
"a c #543B17",
"s c #673B1F",
"d c #334733",
"f c #3B4B37",
"g c #3F533B",
"h c #5F431E",
"j c #734323",
"k c #7B4B27",
"l c gray27",
"z c #454844",
"x c #4B4B4B",
"c c #435B43",
"v c #4E504D",
"b c #454358",
"n c #515151",
"m c #565656",
"M c #585D56",
"N c gray36",
"B c #59576D",
"V c #626262",
"C c #686868",
"Z c #6D7068",
"A c gray44",
"S c #797979",
"D c #83532F",
"F c #8F5B33",
"G c #97633B",
"H c #6D6B82",
"J c #76768D",
"K c gray51",
"L c #8B8B8B",
"P c #939393",
"I c #9D9D9D",
"U c gray65",
"Y c gray69",
"T c #B9B9B9",
"R c gray83",
/* pixels */
"                                                                                                                                ",
"                                                                                                                                ",
"                                                                                                                                ",
"                                                                                                                                ",
"                                                                                                                                ",
"                                                                                                                                ",
"                                                                                                                                ",
"                                                                                                                                ",
"                                                                                                                                ",
"                                                                                                                                ",
"                                                                                                                                ",
"                                                                                                                                ",
"                                                                                                                                ",
"                                                                                                                                ",
"                                                                                                                                ",
"                                                                                                                                ",
"                                                                                                                                ",
"                                                                                                                                ",
"                                                                                                                                ",
"                                                                                                                                ",
"                                                                                                                                ",
"                                                                                                                                ",
"                                                       :                                                                        ",
"                                                       2                                                                        ",
"                                                       a                                                                        ",
"                                                      r:;                                                                       ",
"                                                      N:u                                                                       ",
"                                                      A:a                                                                       ",
"                                                     rC:i>                                                                      ",
"                                                     lm-pp                                                                      ",
"                                                     VlO>aO                                                                     ",
"                                                    rN3O=>=                                                                     ",
"                                                      o3XX                                                                      ",
"                                                    360o@@O==                                                                   ",
"                                                 4v6O3<4%3%$OOt:                                                                ",
"                                          rO   3m3@<8666&3&6&%-:;      8                                                        ",
"                                          V1;*qr3@53wwrwel6444:<-> -wzw*                                                        ",
"                                           m<&V%#<466rxMxNmle64:-6>>-*2                                                         ",
"                                           6zS6O3<54qwNVV:xqz655-O5>*u=                                                         ",
"                                           %UI%O<&344lnNS:*neq53---:p*                                                          ",
"                                          4KmK#O3%540v6SrO:Or-43--O5>y                                                          ",
"                                          mPUC3O&eNNNNVnq5a:44qvr3OO-u                                                          ",
"                                       V6O:-SC0CVx3OOOO688>t:---::at->:                                                         ",
"                                        Aw6#:t35&OOO%<5$83t:&OOOO>a2a:xxeew                                                     ",
"                                         Nl097$5-853##$#o@####O@O:t>y:6-::2p                                                    ",
"                                        erxq19$6#ooo36qwqqqe443%OOOO-=tphp=                                                     ",
"                                        Sn<-nr#O%$$&%<364663335-:--O6%=:*                                                       ",
"                                     wmNn%03JloO<5,533<%4633:::-:t:-43aO-                                                       ",
"                                   <<8qe0vnqxnX#<5556655%533---:p>t-w-pO;*                                                      ",
"                                     ,8<<LVrlno$O165986355-:-::ttt:Owp>:;                                                       ",
"                                        <Nnz0n#o$<559865%3-:-:tapp:3-at                                                         ",
"                                         NCv040@%<7799d553->:pah:a-0:i>                                                         ",
"                                          Clq$V%%#8f9d8d3:::>tph:>O-t2%                                                         ",
"                                          n04%wqO8@fgfff5--::tpyt:3-pp-                                                         ",
"                                         C$3@<#q&171ff96&%-:-::-:-Op:O-6                                                        ",
"                                        l$892$<,o&98<f4%B3O:o%%O-Op:Opp=:                                                       ",
"                                       N$1X 4<&8$&8f75X1H3-p:%O-O2%#   22                                                       ",
"                                             %<5..<dd8O$9qtt-OOO;%%                                                             ",
"                                              %#<co4%@eeer3at:O--%                                                              ",
"                                               Bw7#xLv%##OO@-htO:a                                                              ",
"                                                NroZO#ooo@>@@O--s>                                                              ",
"                                                  4@4x<oo*=:=O@#-                                                               ",
"                                                   +mC<oo*=t>O@                                                                 ",
"                                                    nCw#o*=t>                                                                   ",
"                                                    eS5&$-=t2O                                                                  ",
"                                                    6Cr$#-*::O                                                                  ",
"                                                    3Sr#oO*t:@                                                                  ",
"                                                    #Lwooo*t>O                                                                  ",
"                                                     Ul#o-*ttO                                                                  ",
"                                                     Kx4o-*:>*                                                                  ",
"                                                     Iloo#*:>:                                                                  ",
"                                                     Txo#O*>t*                                                                  ",
"                                                     Uv3o-**t:                                                                  ",
"                                                     Rn#oO*:t:                                                                  ",
"                                                     PVoo#*:t>                                                                  ",
"                                                     AV&o-=>a:                                                                  ",
"                                                     UN%o#=:pp                                                                  ",
"                                                     Vn&o--:pt                                                                  ",
"                                                     Av###-:pa                                                                  ",
"                                                     An3$#Ota=                                                                  ",
"                                                     rm6#ootaa*                                                                 ",
"                                                     rVw$#otaa*                                                                 ",
"                                                     eC6<oO:pp*                                                                 ",
"                                                     0A3oo-:ta*                                                                 ",
"                                                     rN6ooO:p>*                                                                 ",
"                                                     xn3&##:t>*                                                                 ",
"                                                     6N#o--:>>>:>>>-                                                            ",
"                                                     &SyjijsjDFkukky-                                                           ",
"                                                     l-sj>uuuisssuysj>                                                          ",
"                                                  :>>-uiuuO>ikksuy>>uk>                                                         ",
"                                                 =>i:yju>>>O-ysyjsy:>sj>                                                        ",
"                                                :uO>u>-=>:O---:uDGk>==:>y-                                                      ",
"                                                ::>:O->y>-Xo>>y>skj>>-:ss=                                                      ",
"                                                -O-O>yy>Oo@->u>>>u>-OX-usu:                                                     ",
"                                                 O:>y>OOOoO>yO-:y-OXOO@X@O::                                                    ",
"                                               O>>--@OXXOXO-O-:>>:-OXOO:yOO>>O                                                  ",
"                                               :us>:>OOOOXOOOO:>-OX-O-u-O>-OOOy-O                                               ",
"                                               >ssu>-OO-:oOOO---:-OX>>-:yOOO:y>->uu:O                                           ",
"                                               Ouuiy@---OoX-:>::-OO::-ui->OO>-->ss>O-O:>>-Oyuu>>-O                              ",
"                                               OO:>-XXXXXo--:::-OO:-O>y-OOO:-O>si>:OO>us>>ssiuuyuuuu                            ",
"                                                -O:OOO@XXo#oOO-OOO-O-y:O>:O:O>ii>-OO>su>yssuy>OOOOO>>                           ",
"                                                 uiiy>:-Xo#-OO-O-@@->-O>>>OO>su-:O>iu>>s>y:OOO%o##OO-O                          ",
"                                                 >u>y>>-Ooo--XXXOOO>-O>>->O-iu-:O:uu->uy>:$o#&<6<wnr5q                          ",
"                                                 ->-:X-XXo##:O>X:O>:O->O::O>y:---y>:u>>O&%w3<6wvVnAvq#0eN                       ",
"                                                  O:OXXXXoo-:---XOOO-:OO>OOy-O>O>y>u>>O330wrlwNAnlSSmnzCV66                     ",
"                                                   OOXXOOOo#:tO>-O:O>OOOyO::Oy-Oy>u>>O%xn6N6nlSnr4lLTLzwxALV                    ",
"                                                   O>-->-OX#:tO-:OO--OO:>-:O-yOOyy>:O<w#w0NPKVALMl3nNnw<%6qmAr                  ",
"                                                   :i->-@OOo:tOOO-O>O-O>>:O->>O:uy::>3qCAASrZ5ZASK6rLYSMvnrn6#nv                ",
"                                                   :y=-OOOX#:t>OO>--O-O>y-:-y>O>u>-O5xn6mCvSSrPYUe6wZxmPILVLICewAe              ",
"                                                   O=O@XXXo#::tO-O:OO-O:>>>-y>Oy>:O#orlKLwZLN6qIKU5xe4Nr0wqNelqCx0r             ",
"                                                     XXnl3o#::t>oOOyO-O-:y:>>--y>:o&vze3rqlPKAPTLrLYTCYYUzwLUUzKILm6Cm          ",
"                                                      bmq<#o::tt  yOOOOO->:y:->>>O0e%rlKC0nPzC&53400xmCVAK%wwz0LPAU&0<          ",
"                                                      0w0<oo:>t=* >O>:O:::>y->>>O$4rmVeANmqSZClSAeSSKmSIKZwULN6$6<<xr<oq        ",
"                                                      l0&5oo%::**  -:OOO:>yy:>>>o<e0Nv36nMwPIrSPSvKKrwAVq%xMCSK%mnCAmwqem#      ",
"                                                      #KSAS#%ppat= y-O>:O->>>>>O%30%500KSVC3wrCq6wlq0wNnxMqmMAK60lNAmrxv43      ",
"                                                     vIA%3oo---taa   -:OOO::-y>Owq35NxxALz%e54lrv4SZZ6mSSL6w53evn5rvlqllq3%     ",
"                                                     X7e5mqoo:p:-O   yO-i-OO>y>&%6r3mxzVmNwxVwASAwVLU3SKPerNAnSmC6rCAlq6vmwlN#  ",
"                                                      ASxoooo-tpp:    -uO-O->y-%4&C6%w0mLSqKNxMv6%34<$6qCLUUnNLPrVZCVl4evSC0Xvn ",
"                                                      q%$%o#OO%#%X    :y--O:>>O#6633mnqMSen64wr6e&xnNx6nLISlrlNqxSr034q&63%%06e6",
"                                                      $UVrooOaah     >>OOu>>u>ooo6xqxN4#6w<Nx&lCL0rNx<%3vrLPLrUUKSrSSnz6rAxq6#wC",
"                                                       AKm#*%ah       >>-yuyu>Xo46l6v6qxel6Vm4x%&3o%6&VSSlLYSvIIYqmALLVvMCAxw%wx",
"                                                       xIlo-:p:         >Ouuy-o%oqx0&NV6CN6o544wqr6lM3SIlSSSn0vlrrzAMerKASSKmwnn",
"                                                        6m3*pa           OO>y:oo#<5qwrCwM43q063xVV3rAe3lq6vvZlSSAC4LClnnnSNv6#6C",
"                                                         q#*a              :>:-oo%wne5#wq36eCV4rV6<004rVVxUIKlKUKSwSYSCAeAKNvN##",
"                                                          %*                ->:Xooe0n6##<nmeVN4oo#$o5<NKmrKUUqCUUSzSIYLZrVIKVS&%",
"                                                          3:                 >-XX%q453064e6##6qe36e5N&nAzeKLNMSISlNLIIYlNSLIPUnq",
"                                                                                 3o<3r%qvooq%Nmx3xm3m46#5%q6lnw5ll6wmrvq4KIPTCLM",
"                                                                                 ooX#4%3&64366vm5xw#o0650<NMxnMAAZeqSCAA&3qqNmKK"
};
