/* XPM */
static char *result[] = {
/* columns rows colors chars-per-pixel */
"128 128 69 1 ",
"  c black",
". c #020202",
"X c #040404",
"o c gray6",
"O c #1B0F08",
"+ c #141004",
"@ c #131313",
"# c #161D16",
"$ c #1B1B1B",
"% c gray11",
"& c #251404",
"* c #2F1804",
"= c #26140B",
"- c #391C06",
"; c #311B0E",
": c #3D1F0E",
"> c #11210C",
", c #1B241B",
"< c #1D201D",
"1 c #1F2B1F",
"2 c #3E280B",
"3 c gray13",
"4 c #272727",
"5 c #262825",
"6 c #2D2D2D",
"7 c #233323",
"8 c #2B372B",
"9 c #2F3F2F",
"0 c #323232",
"q c gray20",
"w c #393939",
"e c #3B3C3B",
"r c #3F3F3F",
"t c #412312",
"y c #4A2513",
"u c #532B13",
"i c #572F17",
"p c #4B3210",
"a c #543B17",
"s c #5F331B",
"d c #673B1F",
"f c #334733",
"g c #3B4B37",
"h c #5F431E",
"j c #674B26",
"k c #734323",
"l c #7B4B27",
"z c gray27",
"x c #454844",
"c c #4B4B4B",
"v c #4E504D",
"b c #515151",
"n c #565656",
"m c #585D56",
"M c gray36",
"N c #61645F",
"B c #626262",
"V c #686868",
"C c gray44",
"Z c #797979",
"A c #83532F",
"S c #8F5B33",
"D c gray51",
"F c #8B8B8B",
"G c #939393",
"H c #9D9D9D",
"J c gray65",
"K c gray69",
"L c gray76",
/* pixels */
"                                                                                                                                ",
"                                                                                                                                ",
"                                                                                                                                ",
"                                                                                                                                ",
"                                                                                                                                ",
"                                                                                                                                ",
"                                                                                                                                ",
"                                                                                                                                ",
"                                                                                                                                ",
"                                                                                                                                ",
"                                                                                                                                ",
"                                                                                                                                ",
"                                                                                                                                ",
"                                                                                                                                ",
"                                                                                                                                ",
"                                                                                                                                ",
"                                                                                                                                ",
"                                                                                                                                ",
"                                                                                                                                ",
"                                                                                                                                ",
"                                                                                                                                ",
"                                                                                                                                ",
"                                                                                                                                ",
"                                                                                                                                ",
"                                                                                                                                ",
"                                                                                                                                ",
"                                                                                                                                ",
"                                                                                                                                ",
"                                                                                                                                ",
"                                                                                                                                ",
"                                                                                                                                ",
"                                                                                                                                ",
"                                                                                                                                ",
"                                                                                                                                ",
"                                                                                                                                ",
"                                                                                                                                ",
"                                                                                                                                ",
"                                                                                                                                ",
"                                                                                                                                ",
"                                                                                                                                ",
"                                                                                                                                ",
"                                                                                                                                ",
"                                                                                                                                ",
"                                                                                                                                ",
"                                                                                                                                ",
"                                                                                                                                ",
"                                                                                                                                ",
"                        3                                                                                                       ",
"                        r;                                                                                                      ",
"                        B;                                                                                                      ",
"                        Bqt                                                                                                     ",
"                        Vz==                                                                                                    ",
"                        ncepO           ;                                                                                       ",
"                        Vbr;uO         r-                                                                                       ",
"                        M=OOo        =v62                                                                                       ",
"                         6=O@<546$OO=:6=2                                                                                       ",
"                       3w=5r6060%55<%O:;-                                                                                       ",
"                      w3O64qrw4wev460<O;i3                                                                                      ",
"                     q6O33w4qC3OnMcze4%%Osp     5e%                                                                             ",
"                  ;t;bO$<$4q@B5;&vbc53$O$=u:  zr=;                                                                              ",
"                  c0e3O$$$<wrv5:t;zw5====;2=5r5;y                                                                               ",
"                  oCzO3$$40Mrc85p=O==;22ppau=5:a=                                                                               ",
"                   B4O63rbcq<ee8pO%===OOO=2p;;a;                                                                                ",
"                  CM35nz0w3=<<e8#36wr64%===O:=tp                                                                                ",
"                  5zbr0O<8353wrMzczcwrq4%OeOuO=22                                                                               ",
"             qe065$;q3%3=$%8qrcMzxvrre43==5Op;O;2                                                                               ",
"              3CC97p1%O$$$<5q0w0we6wq44<==wOyt;O                                                                                ",
"                wx815O$#$$<$$3346w6665%%==6Oi;p$                                                                                ",
"                z55,OO@$$$5<<$43065533==;;6Oy:a;                                                                                ",
"                DB6M==O$35583$8<$353<;=;:t3Oy;pO                                                                                ",
"                DzOC4=O$8888$555%$=;;==ta=3;p;3w=                                                                               ",
"                ZwnMc3==65868855<====ttaa==22;;=w0                                                                              ",
"                C3Mcrw==O3568985<$===:pat3ta;=ppt=6                                                                             ",
"               cBzVz4wq=%O3g9f8f53=;;tpaO;p2t;$                                                                                 ",
"              cq68zv0=w5$==ggggf8<=;;tp;=tpO;a                                                                                  ",
"                   qq<355<==8f983$$O=$==ta;:=y                                                                                  ",
"                    r%<5068%O$853eO=pOOtjyO=:                                                                                   ",
"                   zb68#5%q893@@bw=;p*O;tO@=$                                                                                   ",
"                   Z499#58O69f935COa$2h;;=3a                                                                                    ",
"                   q81o3<88$688<3eew$@&Op3Ok                                                                                    ",
"                  M@    $%<8$@@bB9>o+++O+Xau                                                                                    ",
"                          $.1XrxooXoO;;OO+o                                                                                     ",
"                           n@f1o@@@o=;;pO                                                                                       ",
"                           cv45o04@oO;:t*                                                                                       ",
"                              +3Vcw@oap::                                                                                       ",
"                                bM4$@9*;pX                                                                                      ",
"                                 nc$#$t2a;                                                                                      ",
"                                 BM$oo;;p:                                                                                      ",
"                                 vB4oo;&;p+                                                                                     ",
"                                  Db#oot;a;                                                                                     ",
"                                  Bnqo#t;pt                                                                                     ",
"                                  wZrootp;a:                                                                                    ",
"                                   Zn<o<a=pt                                                                                    ",
"                                   VB6ooa;tp&                                                                                   ",
"                                   qC4oo%ttpp                                                                                   ",
"                                    Cz%o#h;pp                                                                                   ",
"                                    Mv$@@ptta&                                                                                  ",
"                                    cM6@otatap                                                                                  ",
"                                     Cw##oo;aa                                                                                  ",
"                                     Bz3$oo:pa                                                                                  ",
"                                     vbz@$o=;a;                                                                                 ",
"                                     obz6oo=2tt                                                                                 ",
"                                      wM4oo1;tt&                                                                                ",
"                                      qM0qo@@;tt                                                                                ",
"                                      qNz<@@;;t;                                                                                ",
"                                      txM3oOdduuuiduikd:                                                                        ",
"                                       0nx=yiuidkdiidkiu:                                                                       ",
"                                       ==Oydi::ikkdiuy:ul:                                                                      ",
"                                     =:;;ulu:dO:ukkudu:;uk;                                                                     ",
"                                    O;d=ukd===O==uudklu;:dd==                                                                   ",
"                                    ;O::=O;:yO=*:=yikAS:=*yu;O                                                                  ",
"                                    =;OO:yu:*Xo;:y:uudi:=+*yu:                                                                  ",
"                                    OO*:y:;=OXOyu=:;::*OOO=::;O=                                                                ",
"                                    OO;;OOOOXOO;=O::y=XOXOOO;:=O=                                                               ",
"                                   =uu;O;OOOXX=O=;:::=X=OXu:O;:=OOOO                                                            ",
"                                   :iduuOOOoOXO+*=:;=;==:u=;:=OO;u:==:                                                          ",
"                                   ;ikuuO;===oX=;==;;O;::Xyd==OO::=:ilu:=O=   ;O;y:=O                                           ",
"                                   O:yy:OOOOoo$=;::;O=O=O:u=;=::==:ii:=;O;:u:;yiddiiuy:                                         ",
"                                    OOOO++++Xo#=O;=OO=:O;:;O:;O:Oydi:==O=uuy:dduuu:=;:u:                                        ",
"                                     ui*OOOXXo5oO;=OOOX=y=O::;OOudu=;O=yk::dyu:;OOOOOOO=:                                       ",
"                                     ui:X=:;XoOoXOXO=OO:=O::=:OOiuO;O;ui::d;y=OOXX@o4%@oO:                                      ",
"                                     ::=XO=X+oO<o=XO:O;;O;:O::O;y;;O;yu::u:O@%4q@3zwnn44wneo                                    ",
"                                     =:=+++XOow<oO::XO;O=;OOy=O:;O:O:y:yy:O33o@q36ZFbMFHM56bM3                                  ",
"                                      O=OXOOXXB6@o;;O;==:OO;:O=yO:OOu:y:;O$6qqCVn64zV3qnMv6ezCw                                 ",
"                                       O=O=*:=Xz$o:X:O;;=OO:=O:O;;O;yyy;;<evvzBMnzFZbMMJKBzBVZDCw                               ",
"                                      Oyu+==+OO=q;oO=OO;O=Ou=:O=:OO:yy::O44xMMFDZrvevG4nFZDqwMBbC                               ",
"                                      =iy++=*OOO6<@OO;OOOO=u:O==yOOuu::;%6cZbzzbCrGLJrBDJFbGZrcZbqrVC                           ",
"                                      O:;O++XXXOz$<O==;O=O=:;::=:==u:;;O45bMmwCHFvCMMG$54bCDv4bFGBrC$                           "
};
