/* XPM */
static char *result[] = {
/* columns rows colors chars-per-pixel */
"128 128 63 1 ",
"  c black",
". c #040404",
"X c gray6",
"o c #1B0F08",
"O c #0D1809",
"+ c #141004",
"@ c #131313",
"# c #161D16",
"$ c #1B1B1B",
"% c gray11",
"& c #251404",
"* c #2F1804",
"= c #26140B",
"- c #311B0E",
"; c #3D1F0E",
": c #1B241B",
"> c #1D201D",
", c #1F2B1F",
"< c #3E280B",
"1 c gray13",
"2 c #272727",
"3 c #262825",
"4 c #2D2D2D",
"5 c #233323",
"6 c #2B372B",
"7 c #2F3F2F",
"8 c #323232",
"9 c gray20",
"0 c #393939",
"q c #3B3C3B",
"w c #3F3F3F",
"e c #412312",
"r c #4A2513",
"t c #532B13",
"y c #572F17",
"u c #4B3210",
"i c #543B17",
"p c #5F331B",
"a c #723600",
"s c #673B1F",
"d c #334733",
"f c #3B4B37",
"g c #5F431E",
"h c #734323",
"j c #7B4B27",
"k c gray27",
"l c #454844",
"z c #4B4B4B",
"x c #4E504D",
"c c #515151",
"v c #565656",
"b c #585D56",
"n c gray36",
"m c #61645F",
"M c #626262",
"N c #686868",
"B c gray44",
"V c #797979",
"C c #83532F",
"Z c #8F5B33",
"A c #97633B",
"S c gray51",
"D c #8B8B8B",
/* pixels */
"                                                                                                                                ",
"                                                                                                                                ",
"                                                                                                                                ",
"                                                                                                                                ",
"                                                                                                                                ",
"                                                                                                                                ",
"                                                                                                                                ",
"                                                                                                                                ",
"                                                                                                                                ",
"                                                                                                                                ",
"                                                                                                                                ",
"                                                                                                                                ",
"                                                                                                                                ",
"                                                                                                                                ",
"                                                                                                                                ",
"                                                                                                                                ",
"                                                                                                                                ",
"                                                                                                                                ",
"                                                                                                                                ",
"                                                                                                                                ",
"                                                                                                                                ",
"                                                                                                                                ",
"                                                                                                                                ",
"                                                                                                                                ",
"                                                                                                                                ",
"                                                                                                                                ",
"                                                                                                                                ",
"                                                                                                                                ",
"                                                                                                                                ",
"                                                                                                                                ",
"                                                                                                                                ",
"                                                                                                                                ",
"                                                                                                                                ",
"                                                                                                                                ",
"                                                                                                                                ",
"                                                                                                                                ",
"                                                                                                                                ",
"                                                                                                                                ",
"                                                                                                                                ",
"                                                                                                                                ",
"                                                                                                                                ",
"                                                                                                                                ",
"                                                                                                                                ",
"                                                                                                                                ",
"                                                                                                                                ",
"                                                                                                                                ",
"                                                                                                                                ",
"                                                                                                                                ",
"                                                                                                                                ",
"                                                                                                                                ",
"                                                                                                                                ",
"                                                                                                                                ",
"                                                                                                                                ",
"                                                                                                                                ",
"                                                                                                                                ",
"                                                                                                                                ",
"                                                                                                                                ",
"                                                                                                                                ",
"                                                                                                                                ",
"                                                                                                                                ",
"                                                                                                                                ",
"                                                                                                                                ",
"                                                                                                                                ",
"                                                                                                                                ",
"                                                                                                                                ",
"                                                                                                                                ",
"                                                                                                                                ",
"               0                                                                                                                ",
"               n-                                                                                                               ",
"               ww;                                                                                                              ",
"               4c$=                                                                                                             ",
"               4M0<=            ;                                                                                               ",
"                vw%uo          0-                                                                                               ",
"                zn0=u-       ozou                                                                                               ",
"                8V1oo.oo%402o$=-u                                                                                               ",
"                k91o@o#11%1o2z8=-                                                                                               ",
"                 o$1>$149q942%3k1-;                                                                                             ",
"                3%44$k20kzzz0141n0=u-    0-                                                                                     ",
"               9=3421voownbvck93ow1oy$%z8<                                                                                      ",
"              qo18911N8-=+k40k041ooo=x03u;                                                                                      ",
"             48=998%>n9#u-k=oooooo=-=eeii                                                                                       ",
"         $$=<vo10z$$3Ml3<<o==;---;;;;ueg=                                                                                       ",
"          8zV03882%cvv63,==ee-==ooo-=-e-<r                                                                                      ",
"           kV43q42Mx=2=34==zkkk9021o9=ueeu31                                                                                    ",
"            S4>q0Bw%>1-o2zvqz0ww03%o%-p=-ui%11-=                                                                                ",
"            V43vNzo$4o>90kkwwqw081%o4=g=--i-uu                                                                                  ",
"           xS8wVv843$$22444098241%$o3-s=-=-e-                                                                                   ",
"           0D3B0431$$$$$$2220411%===2-p=e-o                                                                                     ",
"           1k#8937$331>%>$$321%1==--2-u*e-                                                                                      ",
"        Mc2>1:#$7o13336333>$$>===-==1<;-;o                                                                                      ",
"         vMxei3>1o336666531$=--=-ee%=u=;o=o                                                                                     ",
"           337z3==6>3676733$===-eue1-po=f8>4                                                                                    ",
"           D4>nz1$%137d7776>=--rii=-u-*=uiie4                                                                                   ",
"           B4oknq%=3367fd7f1oo=-e---u=-r==                                                                                      ",
"           88=wq88o,@66ff76=oouo=o;uio*-                                                                                        ",
"           nw=w>1k==3>@6d7$4o=i-=--ueo=+                                                                                        ",
"           NX5o%3>4=143$=@=nque-iieue-aX                                                                                        ",
"          v#5X 0=,4336633:==#==*-=&-<=X                                                                                         ",
"          3    N>#33=13fd7>3qo+++++o++                                                                                          ",
"               B#5@343o16o18+++=e--++                                                                                           ",
"               w,X %$3+.=1l++%=ege-&                                                                                            ",
"              v      21=@0oo53$=--u-                                                                                            ",
"                     4vX#1+>664>=&iu&                                                                                           ",
"                      92.  :q643@e-uu                                                                                           ",
"                            xn64X$-eu                                                                                           ",
"                            :mq4#@@;i*                                                                                          ",
"                             wfww@@-u-                                                                                          ",
"                             Onxl1@=-u-                                                                                         ",
"                              0ccq@@iu-                                                                                         ",
"                              1vlw4@=ei&                                                                                        ",
"                               9vz9>@;u<.                                                                                       ",
"                               @lxw%@=ei-                                                                                       ",
"                                8cvl#>uue                                                                                       ",
"                                4wvw%%ueu=                                                                                      ",
"                                 kxx4@#euu                                                                                      ",
"                                 $0xl#@=;e-                                                                                     ",
"                                  4wc>@@euo.                                                                                    ",
"                                  3wx0#@-ei-                                                                                    ",
"                                   0ll,@#-i-+                                                                                   ",
"                                   @8vd%@=-ui.                                                                                  ",
"                                    0lv4-@--ii ;-;;;=                                                                           ",
"                                    *qzx-tshssCZjyhCy;o                                                                         ",
"                                    +4z=;st;ttyssss;ysy                                                                         ",
"                                  o=;;=tsyt--rjjstr;;;s;                                                                        ",
"                                  o;y-rhst-y=orsryht;-th;                                                                       ",
"                                  -=.tst=*-o;o;rhhAjr;thht=                                                                     ",
"                                  =o;-=o;r;-=*=s;CjAy;=;t-r                                                                     ",
"                                  o-o=;t;;*.X-y-s=ys;;==;tt=                                                                    "
};
