/* XPM */
static char *result[] = {
/* columns rows colors chars-per-pixel */
"128 128 65 1 ",
"  c black",
". c #020202",
"X c #040404",
"o c gray6",
"O c #1B0F08",
"+ c #0D1809",
"@ c #141004",
"# c #131313",
"$ c #161D16",
"% c #1B1B1B",
"& c gray11",
"* c #251404",
"= c #2F1804",
"- c #26140B",
"; c #311B0E",
": c #3D1F0E",
"> c #1B241B",
", c #1D201D",
"< c #1F2B1F",
"1 c #3E280B",
"2 c gray13",
"3 c #272727",
"4 c #262825",
"5 c #2D2D2D",
"6 c #233323",
"7 c #2B372B",
"8 c #2F3F2F",
"9 c #323232",
"0 c gray20",
"q c #393939",
"w c #3B3C3B",
"e c #3F3F3F",
"r c #412312",
"t c #4A2513",
"y c #4B3210",
"u c #543B17",
"i c #5F331B",
"p c #673B1F",
"a c #334733",
"s c #3B4B37",
"d c #3F533B",
"f c #5F431E",
"g c #674B26",
"h c gray27",
"j c #454844",
"k c #4B4B4B",
"l c #4B5F47",
"z c #4E504D",
"x c #515151",
"c c #565656",
"v c #585D56",
"b c gray36",
"n c #626262",
"m c #686868",
"M c #6D7068",
"N c gray44",
"B c #797979",
"V c gray51",
"C c #8B8B8B",
"Z c #939393",
"A c #9D9D9D",
"S c #8A8AA2",
"D c gray65",
"F c gray69",
"G c #B9B9B9",
/* pixels */
"                                                                                                                                ",
"                                                                                                                                ",
"                                                                                                                                ",
"                                                                                                                                ",
"                                                                                                                                ",
"                                                                                                                                ",
"                                                                                                                                ",
"                                                                                                                                ",
"                                                                                                                                ",
"                                                                                                                                ",
"                                                                                                                                ",
"                                                                                                                                ",
"                                                                                                                                ",
"                                                                                                                                ",
"                                                                                                                                ",
"                                                                                                                                ",
"                                                                                                                                ",
"                                                                                                                                ",
"                                                                                                                                ",
"                                                                                                                                ",
"                                                                                                                                ",
"                                                                                                                                ",
"                                                                                                                                ",
"                                                                                                                                ",
"                                                                                                                                ",
"                                                                                                                                ",
"                                                                                                                                ",
"                                                                                                                                ",
"                                                                                                                                ",
"                                                                                                                                ",
"                                                                                                                                ",
"                                                                                                                                ",
"                                                                                                                                ",
"                                                                                                                                ",
"                                                                                                                                ",
"                                                                                                                                ",
"                                                                                                                                ",
"                                                                                                                                ",
"                                                                                                                                ",
"                                                                                                                                ",
"                                                                                                                                ",
"                                                                                                                                ",
"                                                                                                                                ",
"                                                                                                                                ",
"                                                                                                                                ",
"                                                                                                                                ",
"                                                                                                                                ",
"                                                                                                                                ",
"                                                                                                                                ",
"                                                                                                                                ",
"                                                                                                                                ",
"                                                                                                                                ",
"                                                                                                                                ",
"                                                                                                                                ",
"                                                                                                                                ",
"                                                                                                                                ",
"                                                                                                                                ",
"                                                                                                                                ",
"                                                                                                                                ",
"                                                                                                                                ",
"                                                                                                                                ",
"                                                                                                                                ",
"                                                                                                                                ",
"                                                                                                                                ",
"                                                                                                                                ",
"                                                                                                                                ",
"                                                                                                                                ",
"                                                                                                                                ",
"                                                                                                                                ",
"                                                                                                                                ",
"                                                                                                                                ",
"                                                                                                                                ",
"                                                                                                                                ",
"                                                                                                                                ",
"                                                                                                                                ",
"                                                                                ;                                               ",
"                                                                                3;                                              ",
"                                                                                b;                                              ",
"                                                                                N2;                                             ",
"                                                                                N9y                                             ",
"                                                                                Bz;y                                            ",
"                                                                                nc-u-                                           ",
"                                                                                nn#@;@          5r                              ",
"                                                                                m#hoXo,3       xjy                              ",
"                                                                                 %%O%%$&Xo%-;$v01                               ",
"                                                                               9h,33359%44,3e$r*u                               ",
"                                                                              bNo3909wbek253oeot1                               ",
"                                                                             Bno4390ehw@keq033x#y;                              ",
"                                                                            cD&&%50wwbe=4xkq0,#noir  jr1                        ",
"                                                                      eBw  nDxX%%495jnwr*ke$ooo3#;p0qyu                         ",
"                                                                       o5vxVF%o%,%34#ew4u*.XOO=OOO%;uf                          ",
"                                                                        o#AGmX$,whxq4o471X@;;;;rufrrf                           ",
"                                                                         ZDFcX0nbh0##o,$>@@XXXX@@XO;;p                          ",
"                                                                       V0;BVwbme5$,78>,qehkwe03%45ru-fu                         ",
"                                                                        e;r:;-5$$8$&qzbhjzeew52-ox-uO;u;5y                      ",
"                                                                        qxvyfro68#&05q9qw5q334,--x;i;;ryu                       ",
"                                                                        e7zjq;$%%%%%%,33q5532&&--wru;r;1                        ",
"                                                                        kCk62#e%%4,,%325544&;--;-%ry;yO                         ",
"                                                                        kN0jm#3&2472%7,%,22---;;,#f;:y                          ",
"                                                                        Vq7%nq23547%444&%-;---ry4;f-;*                          ",
"                                                                      oBm$75cj#e%757744,----rrur3yy;;r9                         ",
"                                                                   kn44h0755%N9o3%788842%--;yyu2yuO:yf:0                        ",
"                                                                    274y5%q0%%v>$2a8a7a42-;:ry2rur-;7;;1;                       ",
"                                                                        n2q9%#$q>2,dssa7,#X;rr;fu;;-;                           ",
"                                                                         o9h##o4w>,$a874e5O-;%yu;O-OX                           ",
"                                                                        he0S2##o<447%<4%h3-;@-;-oo@O                            ",
"                                                                        c2xNo7o$#$a8a,o64qrO=u--$2r;                            ",
"                                                                       4  bo<,o>$,0ss8o,7<%%;gfu;@yf                            ",
"                                                                          04,%&&67%,w<%lww0%O-4uO-f                             ",
"                                                                         B$#  %4224o+4ke#@oo@@@O@                               ",
"                                                                                 3#86j#o,>>;-;*X                                ",
"                                                                                  z3%9o2q5&;*;*@                                ",
"                                                                                     oXxh3&,*;ro                                ",
"                                                                                       bz57%*:r*                                ",
"                                                                                       kN94%%;r;                                ",
"                                                                                       %Nh&,%*1r@                               ",
"                                                                                        Nc3q#=;r;                               ",
"                                                                                        xN0,#-;r;                               ",
"                                                                                        #Nc4##;rr-                              ",
"                                                                                         Mc45#-:r=                              ",
"                                                                                         xN25#-;r;@                             ",
"                                                                                         3V3,##-:;=                             ",
"                                                                                         #Vh4##$:1-                             ",
"                                                                                          Nh;,#,;;;                             ",
"                                                                                          wb6&#2;:;=                            ",
"                                                                                          #Nw4##%;;;                            ",
"                                                                                          #Cc$%##*rr                            ",
"                                                                                           Bce#%-O1;;                           "
};
