/* XPM */
static char *result[] = {
/* columns rows colors chars-per-pixel */
"128 128 57 1 ",
"  c black",
". c #040404",
"X c gray6",
"o c #1B0F08",
"O c #141004",
"+ c #131313",
"@ c #161D16",
"# c #1B1B1B",
"$ c gray11",
"% c #251404",
"& c #2F1804",
"* c #26140B",
"= c #391C06",
"- c #311B0E",
"; c #3D1F0E",
": c #11210C",
"> c #15290E",
", c #1B241B",
"< c #1D201D",
"1 c #1F2B1F",
"2 c #3E280B",
"3 c gray13",
"4 c #272727",
"5 c #262825",
"6 c #2D2D2D",
"7 c #233323",
"8 c #2B372B",
"9 c #2F3F2F",
"0 c #323232",
"q c gray20",
"w c #393939",
"e c #3B3C3B",
"r c #3F3F3F",
"t c #412312",
"y c #4A2513",
"u c #572F17",
"i c #4B3210",
"p c #543B17",
"a c #5F331B",
"s c #334733",
"d c #3B4B37",
"f c #3F533B",
"g c #5F431E",
"h c #674B26",
"j c gray27",
"k c #454844",
"l c #4B4B4B",
"z c #4E504D",
"x c #515151",
"c c #565656",
"v c gray36",
"b c #626262",
"n c #686868",
"m c gray44",
"M c #797979",
"N c gray51",
"B c #8B8B8B",
/* pixels */
"                                                                                                                                ",
"                                                                                                                                ",
"                                                                                                                                ",
"                                                                                                                                ",
"                                                                                                                                ",
"                                                                                                                                ",
"                                                                                                                                ",
"                                                                                                                                ",
"                                                                                                                                ",
"                                                                                                                                ",
"                                                                                                                                ",
"                                                                                                                                ",
"                                                                                                                                ",
"                                                                                                                                ",
"                                                                                                                                ",
"                                                                                                                                ",
"                                                                                                                                ",
"                                                                                                                                ",
"                                                                                                                                ",
"                                                                                                                                ",
"                                                                                                                                ",
"                                                                                                                                ",
"                                                                                                                                ",
"                                                                                                                                ",
"                                                                                                                                ",
"                                                                                                                                ",
"                                                                                                                                ",
"                                                                                                                                ",
"                                                                                                                                ",
"                                                                                                                                ",
"                                                                                                                                ",
"                                                                                                                                ",
"                                                                                                                                ",
"                                                                                                                                ",
"                                                                                                                                ",
"                                                                                                                                ",
"                                                                                                                                ",
"                                                                                                                                ",
"                                                                                                                                ",
"                                                                                                                                ",
"                                                                                                                                ",
"                                                                                                                                ",
"                                                                                                                                ",
"                                                                                                                                ",
"                                                                                                                                ",
"                                                                                                                                ",
"                                                                                                                                ",
"                                                                                                                                ",
"                                                                                                                                ",
"                                                                                                                                ",
"                                                                                                                                ",
"                                                                                                                                ",
"                                                                                                                                ",
"                                                                                                                                ",
"                                                                                                                                ",
"                                                                                                                                ",
"                                                                                                                                ",
"                                                                                                                                ",
"                                                                                                                                ",
"                                                                                                                                ",
"                                                                                                                                ",
"                                                                                                                                ",
"                                                                                                                                ",
"                                                                                                                                ",
"                                                                                                                                ",
"                                                                                                                                ",
"                                                                                                                                ",
"                                                                                                                                ",
"                                                                                                                                ",
"                                                                                                                                ",
"                                                                                                                                ",
"                                                                                                                                ",
"                                                                                                                                ",
"                                                                                                                                ",
"                                                                                                                                ",
"                                                                                                                                ",
"                                                                                                                                ",
"                                                                                                                                ",
"                                                                                                                                ",
"                                                                                                                                ",
"                                                                                                                                ",
"                                                                                                                                ",
"                                                                                                                                ",
"                                                                                                                                ",
"                                                                                                                                ",
"                                                                                                                                ",
"                                                                                                                                ",
"                                                                                                                                ",
"      q                                                                                                                         ",
"      z*                                                                                                                        ",
"      00-                                                                                                                       ",
"       v5-                                                                                                                      ",
"       lr;o                                                                                                                     ",
"       qx6to           q                                                                                                        ",
"       qnq+io         e*                                                                                                        ",
"       0nw6tio       65t-                                                                                                       ",
"        nxoooooo5qq$#eo2-                                                                                                       ",
"        l*3o+6+533+*0lr--                                                                                                       ",
"         *33##6qwq663*wc*i-                                                                                                     ",
"       5*663#oqejejrq45ex*i-    56                                                                                              ",
"      3*363#4qowlblvce6*0roup re-2                                                                                              ",
"     q*3634<5r<2-*nx4$oo****q4tpi                                                                                               ",
"   .Oxoqj#$36j5*2-oo---*---o-tpg                                                                                                ",
" x4XM3o0e3<*4xq<2-;;;;ttiiit-pg-*                                                                                               ",
"  c5Mo46w#wbxj88<*ti-***oo**--2i2-                                                                                              ",
"   rv*6r3vnr*o<5-*rlkzwq04oqoyytpi5                                                                                             ",
"   bj*66vj6o$5*3rcwjjerwq3o$ott--p*<36-                                                                                         ",
"   Nr*5mr0o53o3rljjrwre04$$6oti*otiti                                                                                           ",
"   mj*Mzj<8o#4#6q4wwq0643$*5*it-;*-t                                                                                            ",
"   Bcbcq*9###$##<646633-**-4-i-;t-o                                                                                             ",
"4lz3+@w<9#$8583#8<#<3$*-*-;5-p-;;#                                                                                              ",
"nv6*-i@8<<5588#555#*3-***ti#tp--#o                                                                                              ",
" 3lw8i1o*3958688553*-**ttp**2i-*3*o                                                                                             ",
"  *68@0o*5355689853**--;ip3-i**5e8*$                                                                                            ",
"  lv$vc6**358s99893**--ipt-ip*&-ppi55                                                                                           ",
"   r$4xx5<*$6ssfss4+o**-io*i2o=o*o                                                                                              ",
"   vowjc0*3o39dd9s**o*-***ip*%%;                                                                                                ",
"   x$54$l4*<8o38s5w*o2to*--tooo                                                                                                 ",
"  x67o4$5l5556,*++cjop*-pittoa;                                                                                                 ",
" e3,   j#81*$8985#*<53oOOOoo*X                                                                                                  ",
"      er@+88o*8sso60OOO-**OO.                                                                                                   ",
"      m#1.<#55oo3<5OOo*htt%O                                                                                                    ",
"      b,    o#@.3zOO:3*#pt%                                                                                                     ",
"      6     +r39qrO>10+-itt                                                                                                     ",
"             b4,.#*896<+%-p%                                                                                                    ",
"              w+  .8c965#tti                                                                                                    ",
"                   :be5+++2i&                                                                                                   ",
"                    cksq++-pt                                                                                                   "
};
