/* XPM */
static char *result[] = {
/* columns rows colors chars-per-pixel */
"128 128 78 1 ",
"  c black",
". c #020202",
"X c #040404",
"o c gray6",
"O c #1B0F08",
"+ c #141004",
"@ c #131313",
"# c #161D16",
"$ c #1B1B1B",
"% c gray11",
"& c #251404",
"* c #2F1804",
"= c #26140B",
"- c #391C06",
"; c #311B0E",
": c #3D1F0E",
"> c #1B241B",
", c #1D201D",
"< c #1F2B1F",
"1 c #3E280B",
"2 c gray13",
"3 c #272727",
"4 c #262825",
"5 c #2D2D2D",
"6 c #233323",
"7 c #2B372B",
"8 c #2F3F2F",
"9 c #323232",
"0 c gray20",
"q c #393939",
"w c #3B3C3B",
"e c #3F3F3F",
"r c #442104",
"t c #4C2403",
"y c #412312",
"u c #4A2513",
"i c #532B13",
"p c #572F17",
"a c #4B3210",
"s c #543B17",
"d c #5F331B",
"f c #612F02",
"g c #723600",
"h c #7D3F06",
"j c #673B1F",
"k c #334733",
"l c #3B4B37",
"z c #5F431E",
"x c #734323",
"c c #7B4B27",
"v c gray27",
"b c #454844",
"n c #4B4B4B",
"m c #4E504D",
"M c #515151",
"N c #565656",
"B c #585D56",
"V c gray36",
"C c #4F4D63",
"Z c #626262",
"A c #686868",
"S c #6D7068",
"D c gray44",
"F c #797979",
"G c #83532F",
"H c #8F5B33",
"J c #97633B",
"K c #7D8379",
"L c gray51",
"P c #8B8B8B",
"I c #808097",
"U c #939393",
"Y c #9D9D9D",
"T c gray65",
"R c gray69",
"E c #B9B9B9",
"W c gray76",
"Q c gray83",
/* pixels */
"                                                                                                                                ",
"                                                                                                                                ",
"                                                                                                                                ",
"                                                                                                                                ",
"                                                                                                                                ",
"                                                                                                                                ",
"                                                                                                                                ",
"                                                                                                                                ",
"                                                                                                                                ",
"                                                                                                                                ",
"                                                                                                                                ",
"                                                                                  e                                             ",
"                                                                                  r                                             ",
"                                                                                 Ft                                             ",
"                                                                                nnu                                             ",
"                                                                               ,L2a                                             ",
"                                                                               FV;1                                             ",
"                                                                              eDn;:                                             ",
"                                                                  2         oMPw3:1                                             ",
"                                                                  6a        5952&1&                                             ",
"                                                                  6;+        35o,:&                                             ",
"                                                                  7o1XqVwq93@O@o.+&                                             ",
"                                                                  M4+A5+$$$,#$%$$O                                              ",
"                                                                  qZVO%57905553%$=2;                                            ",
"                                                            n$  mvLvO230bwee0305,==0a                                           ",
"                                                             34;VLb4O25qeVNnnMDv3=O=0s                                          ",
"                                                             Z32;X3O$$,39BZBLnX544==4;a09                                       ",
"                                                             5v97@vwv3q95vZn7,=$32=OO2ayOO:                                     ",
"                                                           5FZZ487OO==O$O2w48@:X$@2OOO2sys1                                     ",
"                                                          5UN0=FO%$#$48888<8<1aO=qO++O4saO                                      ",
"                                                      ,VDLZ5,wnDO=O@,%595+@##;;==;O%@X$ys                                       ",
"                                                       #4am=MDeTO2X%$$4qvBbw0$@;;;;=:O@Os                                       ",
"                                                        <803FNqPO=o%%,0qqvew90q2,2;;y11O1:                                      ",
"                                                          6FYN9LO=o$,$55929090442$O;=;yO=O                                      ",
"                                                           PAe9LO,o$2$$,,535q574;=;OO;;O5Mn                                     ",
"                                                           2v43AO2O244442$$3524;==;;;$=ay:;40                                   ",
"                                                          DRA29N=4#2247444$$$2===;y;=941jdsa;                                   ",
"                                                        L9y77#200==$748774,====;:ya;45;fOOi                                     ",
"                                                         ,7##O2,nO4$478784,$===;ya;@9Oi=s;;                                     ",
"                                                            D452v=2$<8k8884,=;;uas=5@yi;a;O                                     ",
"                                                            D55,03<447klkk7,=;yy:i2,=fyy;*1O                                    ",
"                                                             v57%9<q$78llk7%=;;;;O2=a=aa                                        ",
"                                                             w93#9,8245kk4,$===$O%=;=y::                                        ",
"                                                              N4+=588@,4eOOo=;=O4@$;:::o                                        ",
"                                                              L@#%$46,<C9Oso#O@$=,4==$+2                                        ",
"                                                              Me+40,$k429zh++2@;2;==$;1O4                                       ",
"                                                                A9,#>#0qy;OO=y;$@=#     =O                                      ",
"                                                                oo<=oo+OOza;&%,@=                                               ",
"                                                                o5e7@@o*++=y&20+s                                               ",
"                                                                 Ve#5oo1:++O;Ooyg                                               ",
"                                                                XDe%ooO1;:++=o@=                                                ",
"                                                                5Z6@@o&:a*O                                                     ",
"                                                                mn73@@&;aO                                                      ",
"                                                                D9$##=*saO                                                      ",
"                                                                Uq@@o*;ay+                                                      ",
"                                                               5N5ooo&11;                                                       ",
"                                                               Zb4ooo&ya*                                                       ",
"                                                              XYe4oo*&yaO                                                       ",
"                                                              5Pwoo@&;a;X                                                       ",
"                                                              UF@oo=*1a*                                                        ",
"                                                              QZ,o#**aa&                                                        ",
"                                                             vF7@oO*;a1X                                                        ",
"                                                             YIn$o=&1a;                                                         ",
"                                                            XEm2o@*;y1;                                                         ",
"                                                            FDv$@=:ya1                                                          ",
"                                                            YZ0o@*:aa&                                                          ",
"                                                           2Ie2#@;1aaO                                                          ",
"                                                           ANq$#=11sy+                                                          ",
"                                                           Ibv,@o;aa*                                                           ",
"                                                          %S53$$oass:                                                           ",
"                                                          MN5o,@=ys-                                                            ",
"                                                          FM0oo@:as-                                                            ",
"                                                         oA90oo=ya1&                                                            ",
"                                                         Vm2$o@oaa1                                                             ",
"                                                        oFe#oo;=a:&                                                             ",
"                                                        8De4o@=1a1&                                                             ",
"                                                        DM53oO;ya&&                                                             ",
"                                                    =OOoOjjpiiipipxjuo                                                          ",
"                                                   Ou:==upijpjxjpjxpiu=                                                         ",
"                                                   ::=Oujp::ijxxpiu:ijj=                                                        ",
"                                                  ;jo=:ci:j==:jxiji:;:jpO                                                       ",
"                                                  :;X;jj===iOOijjxci;;ic:                                                       ",
"                                                 =;=:;=*uuO;===jpxGH:;=:i                                                       ",
"                                                =:;O=:uu:*Xo;=p;iijp:*O=:                                                       ",
"                                                =;;==+*==XoOij:u;::*O+OOO                                                       ",
"                                                xj;=:=O==Xo=:==;:u=XOOOOO=                                                      ",
"                                                iJi==:i;OXoOOO=:::==XOOOOOO                                                     ",
"                                                ;up;XX+;+X@X+*O=====OOOO;=O&;O                                                  ",
"                                               =:==OOoOXX=;X=;====XOXOO;:O=u;=;:                                                ",
"                                               O;:=XooXXo=;O=====XXXOO=:=O::=:pci:OO=   ;+;i:=O                                 ",
"                                               :;=ooOO=X@=:OOOOOXXXXOO:=O::O;ij:==O=:uy=;ijpuu:;:                               ",
"                                               xp:=++O:+@y;OOOOOXXXO=uOOO;O:pp:==O:iiu:jjiiu:=;:iy                              ",
"                                               =:u:;uj;o@;1;;=OOXXOO::O=uO;pj:=OO;jp:ujjiy:OOOOOOu;                             ",
"                                              ::OOO$oO+@=;;;===XXOO::OO:uOuiyO;O;ip:uduu;=OOOO=OOOu                             ",
"                                              x;OO+OXXX@;;;;==XXXO::OO=u;;i:+;O;ip=:j;u=o@@@2e432%@3                            ",
"                                              xi:u:OOXo@;;;==XXXX;:OX=:;O::O=O=uiypp:=O2233w5Zbv$0q55o                          ",
"                                              O;:i:=ooo=;:O==XXXX=OOO;;O;uO;yO:i:;u;=y30n3%e$ADNMe323qN3                        ",
"                                                 nVq4@o;;;O=XXXXOOOO;:OOuOOuOOp::i;;O0VPnNFv5VAPYZVDn@49                        ",
"                                                @Imw2oo;;yO=XX+XOXXO;;O:;=;:O=i:i::+92$qnnN5vbeqMFqDv95veq                      ",
"                                                 LM2,o@;:y==XoOOOOXO=OOOO=::O;uiy;+9vvAFF0VLVSVPAZbVYV05Aq0                     ",
"                                                DZ5$#o@;y:OXXoXOOXXO;OOOO=u:O:uu::,mPVLTLZLYYMDUYFLURDm#2e52,                   ",
"                                                Dq,5oo;:y& XXOOOOOOXX:OOO:y;=iu;;=,4e,NMNDnvAAnUULDmDTY9Mn033e,                 ",
"                                              > N40oo@=;;& XXOOO:OOOO=O:Ouy=;i:;;@4Ae5MYPFNRYUZUREVFPTnFZZeA32@vw               ",
"                                              KEZb,oo=;:&&  OOOO=OOOOO:OOu;;yu;=+39ZN9VUTLPUYNFWFFL05MeSUZFUZw345,              ",
"                                              N3vnevo;;:&&   OOOOOOOOuOOOu;uy:;;XovZvwvZ5M00vvnAETYmFDLFV$vMVZmZ2qb             ",
"                                             XLZ5$ooo=;&&     OO=OOOOi;;Ouy;u:;O24@MqewBNN0UPZMYRWDULAYYLmAUZAAmqnVB$           ",
"                                              $2o4o#o*y&&&     ::O=O=u:=u::;:;O%,q4NZn9FUV9UUM5FZAUYLnenqVPDeMVDFFA0            ",
"                                             oUN@oo&OOys=o     OOO=O=:::u;=y:==w9M3nDAqVPe0q,m2AABewqADA2mq59n2$$53VZ$          ",
"                                             nEEe3o&ss4yyo      Ou=O==:u;;::u+o%mmnZmw353V5PFFmVLvLZ3BLLqVDAZv4qAVVeZFe         ",
"                                              USw2&$2azo@       iOO=O=;:u=:u:@5543q55e4VVnwBUqDUmDDwNF335,$@@@43qmZAeem3        ",
"                                              PZ5$;sayO         :OiO=:;O==::=23e5F00FeqNPM%#23$2,Nvw2VFPPD9bDM0q@2qnvn25X       ",
"                                              UN2&aa,            iOOOO::;uu:+4qm0ZwwAwqAvq4v5ZmV5BDb2%vSZMwNZDAe333MFDwwm35     ",
"                                              Uq@;a&             :OOiO:=:uu:+o35MD55%9$ZDFmmqVD9NeqeMFnnevB#nn3qqe%vnne2eZFmo   ",
"                                               n;y+                iOOOO=;::O2q3w34MMe4DLwLU$@5bvqeZFFeZULDnwnUAvM$Mv33w,vnVe5  ",
"                                               b=                  :O::=O;i;@$5mwZ0vLVnL0VNmvFAvwvemqqNFUTTLVVPYPZ%0nNe0m2%933  ",
"                                               ;                   =Oj;=O=u:o%ewnevNFe3%M9ZAeVA5qeN00ZDeAMeVD35q050evmVV5239qBe3",
"                                                                    iOu=O;u:o$4eFm5vVvnNZ9ZMeo#3ZAM5DPV5eLUPFvFDDVZ$e9205eeZVVMZ",
"                                                                   u=O:u;:i=#,@%q5e5LF5LFe@535,5NFPvFUUwZYREUmDYYDF3vVFMwv%5Nw22",
"                                                                   :;=Oiu:iO$$52e5m0AmeN42mq%w#$%$5b45MM3ZZNFePPUTeeNALUZZ,5eNnq",
"                                                                      =Oii:O$oo300Neo35Nv,n4o0m5%eVn3YRLYNUDZDNUFLSA$vw5nwm@qVMn",
"                                                                       OOu:O#$X,2qe003qmw$%@$0nn29NDePTRFmUERZNUETFL9nNDVVN@@@45",
"                                                                         ::;#$@@,2vM,35@34o3@oo@3@$2q32em9LFnwUTTREFNLLPYDMwwq0,",
"                                                                         O::@#$@$0502@33q0@3o2%542Vb9nDDZ2AMvn,0BMwV9,90wvVLZeM5",
"                                                                          :=;@$$$$2o999@0w@X$5$Mv$eDvvPFDeARTPwAYRLU520eqmnMZZMn",
"                                                                              XX@$,,445%2o@@204vn4qnZbZFeADLUUvPTYRwqFSN49Beeqb9",
"                                                                                X@$$%wo$2o5oXo3$$,2#9$544oVNe32$$9qeZUUF4bFUAMM9",
"                                                                                 X@@@o@$3%%oo4%3q#2Mw,Mm0%3MVmv3092Mnemw2ADPPLwv",
"                                                                                  Xooo,o2@@$2339Z34AA3vDNnnFFFVVme5DPZNN5m9wNZnD"
};
