/* XPM */
static char *result[] = {
/* columns rows colors chars-per-pixel */
"128 128 73 1 ",
"  c black",
". c #040404",
"X c gray6",
"o c #1B0F08",
"O c #141004",
"+ c #131313",
"@ c #161D16",
"# c #1B1B1B",
"$ c gray11",
"% c #251404",
"& c #2F1804",
"* c #26140B",
"= c #391C06",
"- c #311B0E",
"; c #3D1F0E",
": c #15290E",
"> c #1B241B",
", c #1D201D",
"< c #1F2B1F",
"1 c #3E280B",
"2 c gray13",
"3 c #272727",
"4 c #262825",
"5 c #2D2D2D",
"6 c #233323",
"7 c #2B372B",
"8 c #2F3F2F",
"9 c #323232",
"0 c gray20",
"q c #393939",
"w c #3B3C3B",
"e c #3F3F3F",
"r c #412312",
"t c #4A2513",
"y c #532B13",
"u c #572F17",
"i c #4B3210",
"p c #543B17",
"a c #5F331B",
"s c #7D3F06",
"d c #673B1F",
"f c #334733",
"g c #3B4B37",
"h c #5F431E",
"j c #734323",
"k c #7B4B27",
"l c gray27",
"z c #454844",
"x c #4B4B4B",
"c c #4E504D",
"v c #515151",
"b c #565656",
"n c #585D56",
"m c gray36",
"M c #61645F",
"N c #4F4D63",
"B c #626262",
"V c #686868",
"C c #6D7068",
"Z c gray44",
"A c #797979",
"S c #97633B",
"D c #6D6B82",
"F c gray51",
"G c #8B8B8B",
"H c #808097",
"J c #939393",
"K c #9D9D9D",
"L c gray65",
"P c gray69",
"I c #B9B9B9",
"U c gray76",
"Y c gray83",
/* pixels */
"                                                                                                                                ",
"                                                                                                                                ",
"                                                                                                                                ",
"                                                                                                                                ",
"                                                                                                                                ",
"                                                                                                                                ",
"                                                                                                                                ",
"                                                                                                                                ",
"                                                                                                                                ",
"                                                                                                                                ",
"                                                                                                                                ",
"                                                                                                                                ",
"                                                                                                                                ",
"                                                                                                                                ",
"                                                                                                                                ",
"                                                                                                                                ",
"                                                                                                            r                   ",
"                                                                                                           m1                   ",
"                                                                                                          A%;                   ",
"                                                                                                         xx=;                   ",
"                                                                                                        ,F2t;                   ",
"                                                                                                        Am-i-                   ",
"                                                                                                       eZx-i                    ",
"                                                                                                      zJe3%i                    ",
"                                                                                           4         lZBwO=1                    ",
"                                                                                           71        .XX+o11                    ",
"                                                                                           eX-    25420l#@@=                    ",
"                                                                                           v4OV5O#+2#@#$##o                     ",
"                                                                                           qBmo$57q05553$#*q-                   ",
"                                                                                     x#   mFlo230zexw0305,**e-                  ",
"                                                                                      34-ZZz4o25qezbxxvZl3*o*lp                 ",
"                                                                                      B32*O3o##,39bmnFx.544*o*-i09              ",
"                                                                                      le04oGGvAblcxvbw@o532**o5h555*-           ",
"                                                                                     0bv0w75o$23244lbf>-X222*o*-horp            ",
"                                                                                    AVl99+7o@,,,742o76*i.l$@ooo$hpi             ",
"                                                                               clm00x4o5A*o+O+2,2477><1ro**32OO4pi              ",
"                                                                                @5lZ*9xBF2*.##444zel0+,-----o-.Xop              ",
"                                                                                  803AbqG3*X$$,0qqeze90q2,2-*-11o1;             ",
"                                                                                   6AKb9F0*X#,#55994090442#o**-ro*o             ",
"                                                                                    GVe9F5*X#2##,,359q574-**-o--o5vx0           ",
"                                                                                    2l43V9*o244442##3524-**--*#*ir;--5q         ",
"                                                                                   ZPV29bqo@2247444,##2***-*i-941dappr*         ",
"                                                                                  Jb++,#0mo2,77776424*--*-rrr-eoir-*-           ",
"                                                                                 377f8,$+B*4#4577724#***-riii#*pir-1*           ",
"                                                                                     443#l57,48878744**-ipiiow-s*po*            ",
"                                                                                     F55,0044<8fffgf2*--iiy;3#d*;r=-o           ",
"                                                                                      l57+0<q#78gg874*----o$+r*ii               ",
"                                                                                      w93#$,8245ff54#***#o$+2ir;;               ",
"                                                                                       b4*o588+,4e2oX*-*o4+2p-;;X               ",
"                                                                                       F+8X#46,<N9o;-@o+#*,r#*#O2               ",
"                                                                                       ve2#0,#f429*s-O2+-2-**--1o4              ",
"                                                                                        X+mBxxlw9-Oo**-r-,o*#   *-              ",
"                                                                                         wO:O@++-ep--O*+X@##                    ",
"                                                                                         XXx6+X+oOO11%252p                      ",
"                                                                                          +c7+XX&-OOO%$3oj                      ",
"                                                                                          we$XXo1--%O*X+*                       ",
"                                                                                          m6++X%;i;%                            ",
"                                                                                         ,V73++%-i;o                            ",
"                                                                                         wV#@@*&pi-                             ",
"                                                                                         Zv++X&-ir*                             ",
"                                                                                        $KzXXX&--1O                             ",
"                                                                                        eFw+XX%ri-                              ",
"                                                                                        JvqXX*%ri%                              ",
"                                                                                       XIv2XX&-i1O                              ",
"                                                                                       JA7+X*&1i&                               ",
"                                                                                       YB0#@&&ii%                               ",
"                                                                                      lA75Xo&-i1.                               ",
"                                                                                      KHxXX*%1i-                                ",
"                                                                                     .Ic2XX&-r1-                                ",
"                                                                                     vHe##+1ri1o                                ",
"                                                                                     FD0$X@-ii1                                 ",
"                                                                                    .Gl++X*rri%                                 ",
"                                                                                    vBq2@@&1i1o                                 ",
"                                                                                    Hzl,+X*ii&                                  ",
"                                                                                   $C53##X1pp;                                  ",
"                                                                                   vb5X,+Xrp=                                   ",
"                                                                                   Av0XX+-ip=                                   ",
"                                                                                  XV90XX*1r1%                                   ",
"                                                                                  eb9#X+*1i=%                                   ",
"                                                                                  Ae@XX++ii%                                    ",
"                                                                                  Ae3X+--p1%                                    ",
"                                                                                 XVq4X+-1i-%                                    ",
"                                                                             *oo odduyyyuuyjdtX                                 ",
"                                                                            ot;*o;uydudjdujjuyt*                                ",
"                                                                            ;;*o;uu;;ydjjuyt;ydd*                               ",
"                                                                           -dX*;ju;d**;djuyy;-;duo                              ",
"                                                                           ;-.-dj;**yooyd;kky--yk;o                             ",
"                                                                           *o;y;*&;-o**t-yjSk;&&-;t                             ",
"                                                                          ;**&o;tt;*.Xt;t;ukj;;*-dd                             ",
"                                                                         o-;*&;t;&*XO;;y;;;y;*o.OOo                             ",
"                                                                         yt**XXXX.Xoo;to*-;*o.ooooo                             ",
"                                                                         ySy**;y;*.Xooo*;t;**.oooo-;o                           ",
"                                                                         -tu-..O*o.+.O&o*****oooo--oo-o                         ",
"                                                                         ;**ooXo..*-.*-****.o.oo-;*o--*-;                       ",
"                                                                        o-;*.XX..X*-o*****...oo*;***;*;uky;*oo   -O-t;-o        ",
"                                                                        ;-*XXoo*Xo*;ooooo....oo;*o--*-yd;**oo-tr*-yddty;-;      ",
"                                                                        ty-ooOo;*o--oooo....oot;o-**oydy--ooruy*udduyyrtyu-     ",
"                                                                        ;jt;***ooX--ooooo..oo;too.to;dt-*oo;dy;uduytroooo*u*    ",
"                                                                        -oo;--;-#+-r--**...o;;oou;yoyy*-ootjy;duat-*oooooo-;    ",
"                                                                       ;yooo*X..X+---**...oo;tot*;o;y-**orut;;-u-oXXX$44++X-*   ",
"                                                                       ;y*-o.o.XX*--**....o;;oo*;**ytO*o;yyo;yt*4,,#2#+4q554,   ",
"                                                                        *;y;*XXX+-;o**....*ooo--o-t-oro;y;-y-;r30x3$505Zbve3235b",
"                                                                          xmq4+X+--o*.....ooo-;oot-o-oou;;y;;O0mGxbAvbeVGKBmZx5+",
"                                                                         +Hcw2XX--ro*..O.oo.o--o;-oo;o*y;y;;oX2#qxxb3lVeqvAqZl02",
"                                                                          Fv2,X+*-r**.Xoooo.o*ooooooto-tyr-**wlVAA0mJCVmGVBzmKJw",
"                                                                         ZB5#@X+-;;o..X.ooo.o-oooo*-;o;tt;;O0VmFLFBFJKGZJKAFJPKx",
"                                                                         Bq35XX$-1-X...ooooo.o-ooo;;;oyu;;-X+3CAzeF5w5e0GlxVeGGZ",
"                                                                         Bl3,X+*rr% oooooooooo;ooott-*y;-*.3lB4ZFAZlGFAbGUKVBAKL",
"                                                                       #Mf@5XXo---%  oooooooooo;;o;r*;y;;o43xb0nLLFAJPJFLPPbl3l5",
"                                                                       nGZBeXX*-;&%  ooooooooo--oo*;*;;--X@5xmlmGKVGFxe5VnFL0mmJ",
"                                                                      .VZ5#XXX*-%%     ooo;oooy--ory;t;-o249llewnbb0AJCvKPUZJFqA",
"                                                                       ##X4X@X&rp%%     ;o**o*t;*ttr*;-o$,qwqAx9AJm9AKL5ABVJKF5l",
"                                                                      X9F+XX%ooripX     o-o*o*;;;tt;;;**w9vxemVqmGe0A,02VVnewqeG",
"                                                                      xLIe3X%pp4#pX      o-*o**;t-t*ttOX$cc9cvw353m5bFBcmFlFB3xZ",
"                                                                       JJw2%#2ih-+       --o*o*-;t;*r;+55439,3e4mmxwvFGZJcZZwbFz",
"                                                                       JJ0#%rp-o%        ;o-oo***;-;t-4403Z9,Vw0vKZ5B2xv2,q0w53m",
"                                                                       JA2%ip5           oo-o;t;**-;to25v5Ve3cvxVF520Bm2b2mBe3cA",
"                                                                        J+%pr             ;oo-o;tty;tOXxvlZmeb3+BxBqBmlVe0VB0lm#",
"                                                                        F%p-               *--ooo***to#0#l24+eq2VGZZFvb5033xZBnm",
"                                                                        v*                  ;o;;*oo*;+#5cwBw3VmxF0mb5qmVlwlecq3v",
"                                                                        .                   *od-*o*;tX$ewxeZwAe3$v9BbwbV5qeb00BV",
"                                                                                             yot*o*;;X#4eAcceZlxbB9BFxw@3BVv5ZJA",
"                                                                                            t*o;t--;;@,+$q53clA5FAe+53w,5bAGlAGJ",
"                                                                                            ;-*oyt;y;##52e5mlbceb42cw40@#$#5z490",
"                                                                                              ;o-yty*#X+3x9mZ$,25w,mB5e094lee4ZG",
"                                                                                               -o-y;*@XX33wV0e5qcm2l2,5ml#0Bm5VP",
"                                                                                                 o;t-@##XX20lc5zv24X$32l39qb5nFJ",
"                                                                                                  o;;@##+$4#x3@$403+45++#45q03wv"
};
