/* XPM */
static char *result[] = {
/* columns rows colors chars-per-pixel */
"128 128 73 1 ",
"  c black",
". c #020202",
"X c #040404",
"o c gray6",
"O c #1B0F08",
"+ c #141004",
"@ c #131313",
"# c #161D16",
"$ c #1B1B1B",
"% c gray11",
"& c #251404",
"* c #2F1804",
"= c #26140B",
"- c #391C06",
"; c #311B0E",
": c #3D1F0E",
"> c #11210C",
", c #1B241B",
"< c #1D201D",
"1 c #1F2B1F",
"2 c #3E280B",
"3 c gray13",
"4 c #272727",
"5 c #262825",
"6 c #2D2D2D",
"7 c #233323",
"8 c #2B372B",
"9 c #2F3F2F",
"0 c #323232",
"q c gray20",
"w c #393939",
"e c #3B3C3B",
"r c #3F3F3F",
"t c #412312",
"y c #4A2513",
"u c #532B13",
"i c #572F17",
"p c #4B3210",
"a c #543B17",
"s c #723600",
"d c #7D3F06",
"f c #673B1F",
"g c #334733",
"h c #3B4B37",
"j c #5F431E",
"k c #734323",
"l c #7B4B27",
"z c gray27",
"x c #454844",
"c c #4B4B4B",
"v c #4E504D",
"b c #515151",
"n c #565656",
"m c #585D56",
"M c gray36",
"N c #4F4D63",
"B c #626262",
"V c #686868",
"C c #6D7068",
"Z c gray44",
"A c #797979",
"S c #83532F",
"D c #8F5B33",
"F c #97633B",
"G c #7D8379",
"H c gray51",
"J c #8B8B8B",
"K c #808097",
"L c #939393",
"P c #9D9D9D",
"I c gray69",
"U c #B9B9B9",
"Y c gray83",
/* pixels */
"                                                                                                                                ",
"                                                                                                                                ",
"                                                                                                                                ",
"                                                                                                                                ",
"                                                                                                                                ",
"                                                                                                                                ",
"                                                                                                                                ",
"                                                                                                                                ",
"                                                                                                                                ",
"                                                                                                                                ",
"                                                                                                                                ",
"                                                                                                                                ",
"                                                                                                                                ",
"                                                                                                                                ",
"                                                                                                                                ",
"                                                                                                                                ",
"                                                                                                                                ",
"                                                                                                                                ",
"                                                                                                                                ",
"                                                                                                                                ",
"                                                                                                                                ",
"                                                                                                                                ",
"                                                                                                                                ",
"                                                                                                                               c",
"                                                                                                                              <H",
"                                                                                                                              AM",
"                                                                                                                             rZc",
"                                                                                                                 3         obJe4",
"                                                                                                                 7p        6063&",
"                                                                                                                 7;+        46o<",
"                                                                                                                 8o2XwMqw04@O@o.",
"                                                                                                                 b5+V6+$$$<#$%$$",
"                                                                                                                 wBMO%6w0q6664%$",
"                                                                                                           c$  vzHzO34qrerrq4q6<",
"                                                                                                            45=MHx5O36wxMnccbZz4",
"                                                                                                            B4$;X4O$$<4wmBmHcX65",
"                                                                                                            zrq%=JJbAnzvb%Ve#O64",
"                                                                                                          6ABB498OO==O$O3e59@:X$",
"                                                                                                         6Lnq=3O%$#$599991912pO=",
"                                                                                                     qMZHB6<ecMO=O@<%606+@##;;==",
"                                                                                                      #5pv=bZrBO3X%$$5wvmxeq$@;;",
"                                                                                                       19q4AnwbO=o%%<qwzzre0qw3<",
"                                                                                                         7APn0BO=o$<$66q30q0q553",
"                                                                                                          JVr0bO<o$3$$<<646w685;",
"                                                                                                          3z54BO3O35555<$$4635;=",
"                                                                                                         ZIV30Z=5#3358555$$$3===",
"                                                                                                       H0t88#3Jq==$859855<====;:",
"                                                                                                        <8##O3ecO5$589885<$===;t",
"                                                                                                           Z56$z=3$19g9895<=;;yp",
"                                                                                                           Z66#q41558ghgg8<=;tt:",
"                                                                                                            z6%%01w$89h9g8%=;;;;",
"                                                                                                            e05#0<9356g85<$===$O",
"                                                                                                             n1+=699@<5zOOo=;=O5",
"                                                                                                             H7#%$57<1N5Oao#O@$=",
"                                                                                                             be+5q<$g536jd++3@;3",
"                                                                                                              rV0<#,#qw;;OO=t;$@",
"                                                                                                              ,oo1=oo+O3jp;&%<@=",
"                                                                                                               o6r8@@o*++=t&3q+a",
"                                                                                                                Mr#6oo2;++O;Oots",
"                                                                                                               XZr%ooO2::++=o@= ",
"                                                                                                               6B7@@o&:t*O      ",
"                                                                                                               vc84@@&;tO       ",
"                                                                                                              @Z0$##=*a2O       ",
"                                                                                                              qLw@@o*;p;+       ",
"                                                                                                              Hn6ooo&22=        ",
"                                                                                                              Px5ooo&tp+        ",
"                                                                                                             XZr5oo*&tpX        ",
"                                                                                                             6Veoo@&;p;         ",
"                                                                                                             Lc@oo=*2p*         ",
"                                                                                                             Ye<o#**pp&         ",
"                                                                                                            zAq@oO*;p2X         ",
"                                                                                                            PK5$o=&2p;          ",
"                                                                                                           XUv%o@*;t2;          ",
"                                                                                                           AZz6@=:tp2           ",
"                                                                                                           PBq@@*:pp&           ",
"                                                                                                          3Kr3@@;2ppO           ",
"                                                                                                          Vnw$$=22at+           ",
"                                                                                                          Kxz<oo;pp*            ",
"                                                                                                         %C64$@opaa:            ",
"                                                                                                         bn6o<==ta-             ",
"                                                                                                         Abqoo=:pa-             ",
"                                                                                                        oV0qoo=tp2&             ",
"                                                                                                        Mv3$o@2pp2              ",
"                                                                                                       oAr#oo;2p:&              ",
"                                                                                                       9Zr5o@=pp2&              ",
"                                                                                                       Zb64oO;pp&&              ",
"                                                                                                   =O oOffiuuufuikfyo           ",
"                                                                                                  Oy:O=yiufifkiifkiuy=          ",
"                                                                                                  ::=Oyfi::ufkfiuy:uff=         ",
"                                                                                                 ;fo=ulu:f==:fkufu:;:fi         ",
"                                                                                                 :;X;kf===uOOuufklu;;ul=        ",
"                                                                                                =;=:;O*yyO;===yikSD:;=:u        ",
"                                                                                               =:;O=:iy:*Xo;=i:uufi:*O=:        ",
"                                                                                               =;;==+*==XoOuf::;::*O+OOO        ",
"                                                                                               kf;=:====Xo=:==::y=XOOOOO=       ",
"                                                                                               uFu==:y;OXoOOO=:::==XOOO=OO      ",
"                                                                                               ;yi;XXO;+X@X+*O=====OOOO:=O&;O   ",
"                                                                                              =:==OOoXXX=;X=;====XOXOO;:O=y;=;: ",
"                                                                                              O;:=XoooXo=;O=====XXXOO=:OO::=:ilu",
"                                                                                              :;=ooOO=X@=:OOOOOXXXXOO:=;::O;uf:=",
"                                                                                              ku;OO+O:+=;;OOOOXXXXOOy:OO:O;ufu;;",
"                                                                                              =:y:;yf;o@;2;;=OXXXOO::O=uO;if:=OO",
"                                                                                             ::OOO$oO+@=;;;===XXOO::OO::OyutO;O;",
"                                                                                             k;OO+OXXo@;;;;==XXXO::OO=y=;u:+;O;u",
"                                                                                             ku:y:OOXo@;;;==XXXX;:OX=:;O::O=O=yu",
"                                                                                             O;:u:=ooo=;:O==XXXX=OOO;;O:yO;tO:u:",
"                                                                                                cMw5@o;;;O=XXXXOOOO;:OO:OOyOOi::",
"                                                                                               @Kve3o@;;tO=XX+XOXXO;;O:O=;:O=u:u",
"                                                                                                Hb3<oO;:t==XoOOOOXO=OOOO=::O;yut",
"                                                                                               ZB6$#o;;t:OXXoXOOXXO;OOOO=y:O:yy:",
"                                                                                               Zw<6oo;:t& XXOOOOOOXX:OOO:t;=uy;;",
"                                                                                             , n5qoo@;;;& XXOOO:OOOO=O:=yt=;u:;;",
"                                                                                            oGUBx<oo=;:&&  OOOO=OOOOO:O=y;;ty;=+",
"                                                                                            >n4zcrzo;t:&&   OOOOOOOOyOO=y;yt:;;X",
"                                                                                            bHB6$ooo=;&&     OO=OOOOu;;tyt;y:;O3",
"                                                                                            o$3o5o#o*a&&&     O:O=O=y:=t::;:;O%<",
"                                                                                            3Ln@oo&OOaa=o     OOO=O=:::y;=t:==e0",
"                                                                                            PUUr4o&aaotto     OOy=O==:y:;::y+o%v",
"                                                                                            ALCe3&$3pjo@      OuOO=O=;:u=:y:@665",
"                                                                                            qJB6$;aptX        ;:OuO=:;O;=::=34r6",
"                                                                                             Ln3&pp<            uOOOO:::yy:+5wvq",
"                                                                                             Lw@;p&             :OOuO:=:yy:+o46b",
"                                                                                              c;t+                uOOOO=;::O3w4e",
"                                                                                              x=                  :O::==;u;@$6ve",
"                                                                                              ;                   =Of;=O=y:o%rec",
"                                                                                                                   uOy=O;y:o$5rA",
"                                                                                                                  y=O:y=:u=#<@%w",
"                                                                                                                  :;=Ouy:uO$$63r"
};
