/* XPM */
static char *result[] = {
/* columns rows colors chars-per-pixel */
"128 128 71 1 ",
"  c black",
". c #020202",
"X c #040404",
"o c gray6",
"O c #1B0F08",
"+ c #0D1809",
"@ c #141004",
"# c #131313",
"$ c #161D16",
"% c #1B1B1B",
"& c gray11",
"* c #251404",
"= c #2F1804",
"- c #26140B",
"; c #391C06",
": c #311B0E",
"> c #3D1F0E",
", c #11210C",
"< c #1B241B",
"1 c #1D201D",
"2 c #1F2B1F",
"3 c #3E280B",
"4 c gray13",
"5 c #272727",
"6 c #262825",
"7 c #2D2D2D",
"8 c #233323",
"9 c #2B372B",
"0 c #2F3F2F",
"q c #323232",
"w c gray20",
"e c #393939",
"r c #3B3C3B",
"t c #3F3F3F",
"y c #412312",
"u c #4A2513",
"i c #532B13",
"p c #572F17",
"a c #4B3210",
"s c #543B17",
"d c #612F02",
"f c #673B1F",
"g c #334733",
"h c #3B4B37",
"j c #3F533B",
"k c #5F431E",
"l c #734323",
"z c #7B4B27",
"x c gray27",
"c c #454844",
"v c #4B4B4B",
"b c #4E504D",
"n c #515151",
"m c #565656",
"M c #585D56",
"N c gray36",
"B c #626262",
"V c #686868",
"C c #6D7068",
"Z c gray44",
"A c #797979",
"S c #83532F",
"D c #97633B",
"F c gray51",
"G c #8B8B8B",
"H c #939393",
"J c #9D9D9D",
"K c gray65",
"L c gray69",
"P c #B9B9B9",
"I c gray76",
/* pixels */
"                                                                                                                                ",
"                                                                                                                                ",
"                                                                                                                                ",
"                                                                                                                                ",
"                                                                                                                                ",
"                                                                                                                                ",
"                                                                                                                                ",
"                                                                                                                                ",
"                                                                                                                                ",
"                                                                                                                                ",
"                                                                                                                                ",
"                                                                                                                                ",
"                                                                                                                                ",
"                                                                                                                                ",
"                                                                                                                                ",
"                                                                                                                                ",
"                                                                                                                                ",
"                                                                                                                                ",
"                                                                                                                                ",
"                                                                                                                                ",
"                                                                                                                                ",
"                                                                                                                                ",
"                                                                                                                                ",
"                                                                                                                                ",
"                                                                                                                                ",
"                                                                                                                                ",
"                                                                                                                                ",
"                                                                                                                                ",
"                                                                                                                                ",
"                                                                                                                                ",
"                                                                                                                                ",
"                                                                                                                                ",
"                                                                                                                                ",
"                                                                                                                                ",
"                              7                                                                                                 ",
"                              m:                                                                                                ",
"                              V4>                                                                                               ",
"                              Vx-u                                                                                              ",
"                              mvr:u           :                                                                                 ",
"                              Vnt43:         7;                                                                                 ",
"                              N-O-O         wv3                                                                                 ",
"                              -q6OOO%%OO*::-v43                                                                                 ",
"                              6e%467w744%%-->-;                                                                                 ",
"                             w-&&qtreww7775&O:-                                                                                 ",
"                            xO1&rqqeBrtve5w7&-a3                                                                                ",
"                       &4-On-%57667ecOBmmbtv5-Oau#   5t-                                                                        ",
"                        xtx4O%%%17$Ne>y:xe6:---:3-6t9:>                                                                         ",
"                         rAO4%%5qmwxc6a-O--:>3aasi-6:aa                                                                         ",
"                         vNO74tnvto4r9aO&----OO-3a::as                                                                          ",
"                         At6mxqe4O1-99$47ete56---O>-yOO                                                                         ",
"                        VH4ne7O199-57NBMtxxwr4&ObOi--up                                                                         ",
"                     45wt6wtO&6-%16exNcrvettt5--qOi:O-a                                                                         ",
"                    mN$:aay---%%&7weextrterqq4&-eOa::O>                                                                         ",
"                     5Zmv99O%%%%&157767wwq776&--qOiyy-O                                                                         ",
"                      $r2<$O1%%%%%%%%775e744:-::5Od:y:                                                                          ",
"                      FB7N5-O%46646&41%4641--->y4Ou:y-                                                                          ",
"                      FxOnb-O%99990996&%-::--:s-4:a:-w7                                                                         ",
"                      Ae7tZ4--769609961----:>ys--33:>-7q                                                                        ",
"                      Z4Zxte--O46909061%---:yay4ys:->ay-7                                                                       ",
"                      VwZvt74O&480g00061-::uss--uuy:-----O                                                                      ",
"                     Z7owmeee-%-%00hgg91-:yy>a->s-yy:                                                                           ",
"                    4o9<#xt%7e14-69hhg9&-:::yO>syy:a                                                                            ",
"                          111&r94---g7&7&O=O@Osk--:>                                                                            ",
"                          N6%1%r976&##ttO-sOO:a::->                                                                             ",
"                         wm00$69O99h646ZOs%wsy:-4s                                                                              ",
"                         A12o4199649914rre%&OOa4Ol                                                                              ",
"                         52   %&194q#nB0,o@O@@@Xsi                                                                              ",
"                                %%.<ccooXoO*:-O@o                                                                               ",
"                                 54j&XooooO;:aO@                                                                                ",
"                                 %mo7#1eoo**=3-                                                                                 ",
"                                  q5o#Nt%oo6y>>                                                                                 ",
"                                      Vn%##1yya                                                                                 ",
"                                      cNw#$o:ys*                                                                                ",
"                                       BN%ooo*a>                                                                                ",
"                                       bB5ooo*:a@                                                                               ",
"                                        Fn$ooy:s:                                                                               ",
"                                        Bmwoo1:ay                                                                               ",
"                                        eVro#1y3a-                                                                              ",
"                                         Fn#$ok*s:                                                                              ",
"                                         Zmeooq:ys                                                                              ",
"                                         vVt$oy:aa*                                                                             ",
"                                          Vv7o:s:aa                                                                             ",
"                                          NZq7#ayys*                                                                            ",
"                                          vZxooysysa                                                                            ",
"                                           Nm$$oo:ss                                                                            ",
"                                           mBq%oo>as*                                                                           ",
"                                           eZt#%o-:s:                                                                           ",
"                                            nn71o:3ay                                                                           ",
"                                            7B4oo<:a>:                                                                          ",
"                                            %veoo2#ayy                                                                          ",
"                                             bw1o#O-aa*                                                                         ",
"                                             7N4oOffpiipfiplfu                                                                  ",
"                                             -mc-upifpffppflpiu-                                                                ",
"                                             --Oufp>>iflfpiu>iff                                                                ",
"                                           O:>:izi>f-->llifi>:>f:                                                               ",
"                                          O>>Xilf---iOOiiflzi::if--                                                             ",
"                                          :iO>u:O=>:O-->fpSDz>==>u>-                                                            ",
"                                          ::>:O:uu>-Xo>p-zfzl>>-ili=                                                            ",
"                                          -O-O>i>>Oo@->>i->i>-OX>fli:                                                           ",
"                                           O:>>=OOOoO>u>->u-OXOO@@OO::                                                          ",
"                                         O>>--XXXXOXO-O->u>:-OXOO>>OO>>O                                                        ",
"                                         >pfu>OOOoOXOOO->:-:-X-u-:>-OOO>>-->                                                    ",
"                                         :plf>O:---oX@---::O:-iXuf--OO>:O>pzi>-OO:  :O:u>:O                                     ",
"                                         O>u:-OOOOooX-->>:O-Oi-pi-:->>>O:pp>-:OO:i>:upffpppu>                                   ",
"                                          OOOO@@@@Xoe#-:-OO->Ou-:O>:O>O:ip>--O-ipi>ffiii>:->i>                                  ",
"                                           :>=X@XXXoX6OO-@OOXO->O>O:O-Oif>-OO>ip>>ffi>:OOOOOO>:                                 ",
"                                           ipp----XoXoo-OO-@@->-:->>OO>fi--O>pi>>fi>-OOO%o#OOO>O                                ",
"                                           >i>X->-Oo@4o-X-OOO>-Ou>:>O-pi--O>ii->iu-&#o#&171tnw%w                                ",
"                                           ->-@@OXXo@ro-:::O>:O-:O>:O>u:-O>i>:i>>O45w417ebBBNxe#qrN                             ",
"                                            O:OXXXXoXt#o::XOOO-:O->OOu-O>Oi>>i>>O4q7ttxeNZnNAZwncVB77                           ",
"                                             O-O-=>-XNeo>X>O:O:OO>-O>OOuO:uuu::O4nbxBNmxVHVNNKLBx7VAFZe                         ",
"                                             :i@--@OOXt:oO-OO>O-Oi->O-:>O>uu>>O&%wNNGFAtnxvH5mGAF5rxBnZ                         ",
"                                             >u@@-=OOXn1#OO:O>O--i>O-->>Oii>>:&5qBnxxnZtVPPtBFKGnJGAvAnwtVZ                     ",
"                                             -:O@@XXXXm%1O--:OO-->:>>-u>Oi>::O5exmMeZJGbGmNH%65nZFAbtGHBtZ%w                    ",
"                                             OO@XXXXX7A65OOO-OO-O:>u>:>>Ou:-Oo4vvAVMx7NxtPIBNGt7AGBZtFZGrnBbbm                  ",
"                                                    o7Z#o6oOOuO-OO>u:>>-->:-o&bcr4xqBHFZHPGVKPJVLLKceHKGcFJGm7Ve                ",
"                                                     #VbZ64#uOOOOOO>:u:->::-qr%txFVxAHcV&6477xnmVBZF%qvwqGHZK&7&                ",
"                                                    X0VJNwoo>O>:->::>u->>:OX5tmBrZw$nACVxAZZCGGmAJFCeLZN7$711vx#5w              ",
"                                                    +FHx$%oo*-:OOO>>uu:>>Oo5rqNb47x6nHJtAHAAGG7eZBw%vNAZF%mnVZN5xrm#            ",
"                                                     $nHVw#oO%:O:OOO>>->>6#x47ettZG5%41%%1eeBBB5ZBbA5mFA5rq474ec54%             ",
"                                                     +Fm7Fxo*:y>OO:O-O>u>65wq1VBNGnV6cNwFBVmVFF%mALxem7xmxN6rZnw4ttto7o         ",
"                                                      +NPJN%-aa--zO>OO>u:#4eB7nq4NVnVMNeBHNxmZ5$&5xmAA7VHGBtnNBe%ebFmtxx        ",
"                                                       oGHHx**s*u>>OO:>uOq4t7#rqqnG7BFt%475&x4xx7bZGKCBGGbwn51157etnN441e7      ",
"                                                        oAHV#:y@fOi:O:>>O&%%qwxZqNrw&4q5Ntc6NAAx%6t77NeFGNBAtMt77%b7147xZ%c     ",
"                                                         oNF5:3>OO:i>>i>oo17vwvN5#q75Nv&xVGqnN51%4btGGwBKKFAtABxr7tZvw76mN7#    ",
"                                                           nA-y >:Ouiui>X$w4x7b7wvrrtBm5v%&##4c&BAAxGJtAJJLwmZGAwbMVZve7eCBwX   ",
"                                                            wty   -Oiiu-o%6xvq&NB7Vrwo655ewm7tN4AJxAAVqtbxttcZbeVFZAAFmtbmNmre# ",
"                                                             **    OO>u:o$1%6wetVeb4&wq74vBx4Brr4xw7bnZwAAZV5GnnNnnANb7#BNBBnvr1"
};
