/* XPM */
static char *result[] = {
/* columns rows colors chars-per-pixel */
"75 75 83 1 ",
"  c black",
". c #010101",
"X c #2B230F",
"o c #232323",
"O c #373737",
"+ c gray23",
"@ c #430000",
"# c #470000",
"$ c #4F0000",
"% c #530707",
"& c #5B0707",
"* c #5F0707",
"= c #670B0B",
"- c #6B0F0F",
"; c #731313",
": c #771717",
"> c #7F1B1B",
", c #4B371B",
"< c #5F4323",
"1 c #5B472B",
"2 c #6B4727",
"3 c #774F2B",
"4 c #675333",
"5 c #775F3F",
"6 c #434343",
"7 c gray28",
"8 c gray31",
"9 c gray34",
"0 c #5B5B5B",
"q c gray39",
"w c gray42",
"e c #6F6F6F",
"r c #777777",
"t c gray50",
"y c #831F1F",
"u c #A70000",
"i c #BF0000",
"p c #8B2323",
"a c #8F2B2B",
"s c #972F2F",
"d c #9B3333",
"f c #A33B3B",
"g c #A73F3F",
"h c #CB0000",
"j c #EF0000",
"k c #874307",
"l c #9B5B13",
"z c #AF7B1F",
"x c #875733",
"c c #A36B3F",
"v c #CB5707",
"b c #DF670F",
"n c #AF4747",
"m c #B34F4F",
"M c #BB5757",
"N c #BF5B5B",
"B c #836B4B",
"V c #C76363",
"C c #CB6B6B",
"Z c #D37373",
"A c #DB7B7B",
"S c #C39B2F",
"D c #FF8F3B",
"F c #CF8353",
"G c #EFA373",
"H c #EBDB57",
"J c #939393",
"K c #979797",
"L c #9F9F9F",
"P c #A7A7A7",
"I c gray67",
"U c gray70",
"Y c #B7B7B7",
"T c gray75",
"R c #DF8787",
"E c #E78F8F",
"W c #EB9797",
"Q c #F3A3A3",
"! c #F7ABAB",
"~ c #FFB7B7",
"^ c #CBCBCB",
"/ c gray86",
"( c white",
/* pixels */
"                                                                           ",
"                                                                           ",
"                                                                           ",
"                                                                           ",
"                                                                           ",
"                                                                           ",
"                                                                           ",
"                                                                           ",
"                                                                           ",
"                                                                           ",
"                                                                           ",
"                                                                           ",
"                                                                           ",
"                               ggda>                                       ",
"                               ggda>                                       ",
"                               ggZZs                                       ",
"                               ggZZs                                       ",
"                             CAMMEAVRAZC   VZZZRRRRV                       ",
"                           ZARVssMMgNZARAZZVVCARWWEZmm                     ",
"                        CZAZCVNssEZMffNCCCCCCZVCANmmggg                    ",
"                   CZZVVNMmNNNNyyVZMMCAAZCCVMMCZRRAVggaM                   ",
"                 VCNNNVCVNmNVCAyygVCCWWWEAACNnaMNCCVmmfd                   ",
"                VmNCZZCCVnNCAAAVVfECW!!QWAAVnfaanmMmggda                   ",
"               NmmCZAAZVMgCARWRNNsMAEQQWEAANsa:asdfgddap                   ",
"               dgmZAZZCNngVZWQWVVsVCEEWEANNaa:::yyyaaa::p                  ",
"               >>gVVNNMngfnVAWRCCyENRAAVnddaa:&:::::::==p                  ",
"               =-yfggggffdsgmCVVVsggCCNgappdf:=#&&&&&&&$p                  ",
"               =-yfggggffdsgmCVVVsggCCNgappdf:=#&&&&&&&$p                  ",
"               :==paaasdfsp>agMCCfyaCNayyaadf==###XXXXX==                  ",
"                ===:>>yafdyyyagCCn=gCENaaffdp==#####XXX%=                  ",
"                d:==--;>afa>>gCCCn>nMRAVNMMgfdNdPPt9##X%*                  ",
"                ds:====gggdgVCZAAnyRnMMmNNNNmfVyTYJe99#%*                  ",
"                aaa:rrKKgVgVWEERRngNNMMNARRECms:986Oee#%*                  ",
"                yfrJUU/^gVgN!~~WWnsfNgNAW!!!Wm&&*##X###*#m                 ",
"                ;rItqq09ggamEQ!!!fpfNdAW!QQWCM&:&&#XXXX#%*                 ",
"                aL6:---*-;>sMAAAAspgCgCAAZZVmag&  ##&&X%**                 ",
"                dmp=**&&$@;>gMVVVsyfCfmMmffd:$f   #&%%#**=                 ",
"                ap:*%%%%  &-kpppp=;fma:yayy=k%a   =***%*:&                 ",
"                ap:*%%%%  &-kpppp=;fma:yayy=k%a   =***%*:&                 ",
"               dpp*$%%%$  >&lS(kk&@&pp&&k((Sl:a    %;;*:;-                 ",
"               gdap;&&=$  >&yzSzzk.@=&;kzHHzgp-     %%-=-;                 ",
"               ngMMnppp=  *>;ygggy@=;$*ydgggp:&     %%%=&p                 ",
"               nmZZVnngay @>s>>;;;>&&&$&===;;;$     $$%;=;                 ",
"               dnZWZmmVd>@@-a;$&&&;;ddy=:;;>>;%a    $$==;:                 ",
"               ddVAWVVAgy@@*>;&>>a>=2x&x2$$&p%%a    $$;;ppf                ",
"               sdfVAWWWmp@@@*>-==2u.hi.u3..:d%%ya   ==:;saf                ",
"                sdgVWW!Vy@@@@*>&&..........yd$%-a   yy;;;;p                ",
"                asdVWW!Aa@@@@=p==..........pd##=ya    pppp                 ",
"                asdVWW!Aa@@@@=p==..........pd##=ya    pppp                 ",
"                 asVAA~Za@@@@@yyy.===$-=...1n##&-a                         ",
"                 pdCVVA~V@@@@@s11:j=====j::4m##%=ya                        ",
"                  dCAAME~Vp@@@n44>hF===Fh,,5V###&:a                        ",
"                  dVRRAE~~Rg@@mBB,FcG0GcF,,5M###%-sg                       ",
"                  dmVVQQ~RmVV>gZZg3c3,3c<55Zg###%=yg                       ",
"                  sfMMZ!Rd:aVg@ggNgB44B5gZZM:###*;am                       ",
"                  sdggMRVa@=aa@&&gNZAEEZCMM###*-::smgg                     ",
"                   pppgAEa@@@@@  ssgNVNfs###*-yspydmgg                     ",
"                   ymm>gZEgg@@           **#*ysgspggss                     ",
"                   pmmpa&ya&@@             **ygvvagdss                     ",
"                   pmmpa&ya&@@             **ygvvagdss                     ",
"                   ppppmA@&&@              **yMMssgs                       ",
"                    pppppp&&@              *-yMDvdds                       ",
"                       @**>&&              *-aMZgds                        ",
"                       @=:>;*            ***-aMDvfd                        ",
"                      *-:sg;**           ***-sMRZgf                        ",
"                    77*:sCCs**7          ##*-sVAbvg                        ",
"                    ..@:g@@n@&.         *aa*>sVRZNnm                       ",
"                       :@+w+@           aMM:ayMAEAgsnn                     ",
"                       *oo+**         :nAMM-ysCEWWCgssM                    ",
"                                     eLsgnn*ylpp>ppCsssqe                  ",
"                                     eLsgnn*ylpp>ppCsssqe                  ",
"                                    qqe=yss&yprJLJrpggs9qe                 ",
"                                    qqq*$$$$a*6tLt0*pppo9q                 ",
"                                            poOwtw7*                       ",
"                                              o+07+                        "
};
