/* XPM */
static char *_c5108f0309e4870a244568bd01dcab7qVHI2fjxOWOKnDHj[] = {
/* columns rows colors chars-per-pixel */
"75 75 82 1 ",
"  c black",
". c #010101",
"X c #2B230F",
"o c #232323",
"O c #373737",
"+ c gray23",
"@ c #430000",
"# c #470000",
"$ c #4F0000",
"% c #530707",
"& c #5B0707",
"* c #5F0707",
"= c #670B0B",
"- c #6B0F0F",
"; c #731313",
": c #771717",
"> c #7F1B1B",
", c #4B371B",
"< c #5F4323",
"1 c #5B472B",
"2 c #6B4727",
"3 c #774F2B",
"4 c #675333",
"5 c #775F3F",
"6 c #434343",
"7 c gray28",
"8 c gray31",
"9 c gray34",
"0 c #5B5B5B",
"q c gray39",
"w c gray42",
"e c #6F6F6F",
"r c #777777",
"t c gray50",
"y c #831F1F",
"u c #A70000",
"i c #8B2323",
"p c #8F2B2B",
"a c #972F2F",
"s c #9B3333",
"d c #A33B3B",
"f c #A73F3F",
"g c #CB0000",
"h c #EF0000",
"j c #874307",
"k c #9B5B13",
"l c #AF7B1F",
"z c #875733",
"x c #A36B3F",
"c c #CB5707",
"v c #DF670F",
"b c #AF4747",
"n c #B34F4F",
"m c #BB5757",
"M c #BF5B5B",
"N c #836B4B",
"B c #C76363",
"V c #CB6B6B",
"C c #D37373",
"Z c #DB7B7B",
"A c #C39B2F",
"S c #FF8F3B",
"D c #CF8353",
"F c #EFA373",
"G c #EBDB57",
"H c #939393",
"J c #979797",
"K c #9F9F9F",
"L c #A7A7A7",
"P c gray67",
"I c gray70",
"U c #B7B7B7",
"Y c gray75",
"T c #DF8787",
"R c #E78F8F",
"E c #EB9797",
"W c #F3A3A3",
"Q c #F7ABAB",
"! c #FFB7B7",
"~ c #CBCBCB",
"^ c gray86",
"/ c white",
/* pixels */
"                                                                           ",
"                                                                           ",
"                                                                           ",
"                                                                           ",
"                                                                           ",
"                                                                           ",
"                                                                           ",
"                                                                           ",
"                                                                           ",
"                                                                           ",
"                                                                           ",
"                                                                           ",
"                                                                           ",
"                                     >psf                                  ",
"                                     >psf                                  ",
"                                     aCCf                                  ",
"                                     aCCf                                  ",
"                    BBTTTTCCCB   VCZTBZRmZZV                               ",
"                   nCCREETZVBBCZZTZCMfmmaBBTZC                             ",
"                  ffnnnMZVBCVVVVVVMddmCRaMMBVCZCV                          ",
"                 mpfBBZTTCVmmBVCCZZVmmCByMMMMMnmMBBCVV                     ",
"                 sdnBBVVMmpbMVZRREEEVVBfyZZVBMnMBVBMMMVB                   ",
"                 psfnnmnbppdbBZEEWQQEVRdBZZZZVMbBVVCVVMnB                  ",
"                 ipsffdsap:paMZRREWWRZmaMTTETZVfmBCZCCVnnM                 ",
"                i::pppyyy:::ppMZZRERRVBaBEEWECBfbMVCZZCnfs                 ",
"                i==:::::::&:ppsbbBZZTMRyVTTEZBbdfbmMBBBf>>                 ",
"                i$&&&&&&&#=:dsippfMVVffaBBBVnfasddffffdy-=                 ",
"                i$&&&&&&&#=:dsippfMVVffaBBBVnfasddffffdy-=                 ",
"                ==XXXXX###==dspyyypMVpydVmmfp>iadsapppi==:                 ",
"                =%XX######==isdpppMRVf=bVffpyyysdpy>::===                  ",
"                *%X#99tLLsMsdfmMMBZTmb>bVVVf>>pdp>;-===:s                  ",
"                *%#9eeHUYyBdnMMMMnmmbTybZCCVBfsfff====:as                  ",
"                *%#eOO689:anVRTZZMmmMMfbTRRREBfBfJJr::ppp                  ",
"               n#*##XX##*&&nEQQEEZMfMdabE!!!QMfBf~^IHHrdy                  ",
"               *%#XXXX#&&:&mVEWQQEZsMdidQQQWRnpff90qttPr;                  ",
"               **%X&###  &fpnBCZZZVfVfiaZZZZma>;-*--::6Kp                  ",
"               =**#%&&#   d$:sdnnmndVdyaBBBmb>;@$&&*==ins                  ",
"               &:*%***=   p%j=yppy:pnd;=iiiij-&  %%%**:ip                  ",
"               &:*%***=   p%j=yppy:pnd;=iiiij=&  %%%**:ip                  ",
"               -;:*;%%    p:kA/jj&&ii&@&j//Ak&>  $%%$$*iis                 ",
"               ;-=-%      -iflGllj;&=@ jlAAli%>  $=&;;ipsf                 ",
"               i&=%%      &:iffssy*$;=@ibsbi;>*  =iibbmmfb                 ",
"               ;=;%$      $;;;===&$&&&>;;>::a>@ ypfbBBCCnb                 ",
"               :;==$     p%;>>;::=yss;;&&$$;p-@@>sBnCCECbs                 ",
"              dii;;$     p%%i=%22z*z2=yp>&&;>&@@yfZBEEZBss                 ",
"              dpa;:=    py%%s: 33u gg u2=-->&#@@inEEZZBdsa                 ",
"              i;;;;y    p-%$sy      ....&>>&#@@@yBQEBBfsa                  ",
"               iiii    py=##si      ....=ii=@@@@pZQEBBsap                  ",
"               iiii    py=##si          =ii=@@@@pZQEBBsap                  ",
"                       p-&##b1   =-$-=- yyy@@@@@pC!ZBBap                   ",
"                      py=%##n4:hh-====h:1aa@@@@@B!ZBVVsi                   ",
"                      p:&###B5,ggD===Dg>4bb@@@iB!RmZVVs                    ",
"                    ffa-%###m5,DDxF0FxD,Nnn@@fT!!RZTBBs                    ",
"                    ffy=%###fC5<<x3,3x3fCff>BBnT!WWBnns                    ",
"                    nnp;*###:mCff5N44NfMf@@fBp:sTQCmdda                    ",
"                   fnna::-*###mVVCRRZCMf&@@pp=@pBTmfssa                    ",
"                   fnnsyiay-*##aadMBMfaa @@@@@@pRZfiii                     ",
"                   afffiafay*#*            @@ffRCf>nyy                     ",
"                   assfpccfy**             @@&py&pinii                     ",
"                   assfpccfy**             @@&py&pinii                     ",
"                    aafaammy**              @&&@Zniiii                     ",
"                    aasscSmy-*              @&&iiiii                       ",
"                      asfCmp-*              &&>**@                         ",
"                      sdcSmp-**             *;>:=@                         ",
"                      dfCTma-**            **;fa:-&                        ",
"                      fcvZBa-*#          77**aVVa:=7                       ",
"                    nnbMCTBa>*p**          &@b@@f:@                        ",
"                   baafZRZmyp:mpp           @+w+@:                         ",
"                  maffVEERVay-mZZb:         =*+oo*                         ",
"                eqaaVVii>iiky*bffaKe                                       ",
"                eqaaVVii>iiky*bffaKe                                       ",
"               eq9afiirHKHriy&ayy=eqq                                      ",
"               q9oii**0tKt6*p$$$$*qqq                                      ",
"                    **7wtwOoi                                              ",
"                      +70+o                                                "
};
