/* XPM */
static char *result[] = {
/* columns rows colors chars-per-pixel */
"75 75 79 1 ",
"  c black",
". c #010101",
"X c #232323",
"o c #272727",
"O c #373737",
"+ c #430000",
"@ c #470000",
"# c #4F0000",
"$ c #530707",
"% c #5B0707",
"& c #5F0707",
"* c #670B0B",
"= c #6B0F0F",
"- c #731313",
"; c #771717",
": c #7F1B1B",
"> c #4B371B",
", c #533F1F",
"< c #5F4323",
"1 c #6B4727",
"2 c #774F2B",
"3 c #7F532F",
"4 c #675333",
"5 c #775F3F",
"6 c #434343",
"7 c gray31",
"8 c gray34",
"9 c #5B5B5B",
"0 c gray39",
"q c gray42",
"w c #6F6F6F",
"e c #777777",
"r c gray50",
"t c #831F1F",
"y c #A70000",
"u c #BF0000",
"i c #8B2323",
"p c #8F2B2B",
"a c #972F2F",
"s c #9B3333",
"d c #A33B3B",
"f c #A73F3F",
"g c #CB0000",
"h c #EF0000",
"j c #874307",
"k c #9B5B13",
"l c #AF4300",
"z c #875733",
"x c #8F5F37",
"c c #A36B3F",
"v c #C34F00",
"b c #D75F0B",
"n c #F37317",
"m c #AF4747",
"M c #B34F4F",
"N c #BB5757",
"B c #BF5B5B",
"V c #836B4B",
"C c #C76363",
"Z c #CB6B6B",
"A c #D37373",
"S c #DB7B7B",
"D c #C39B2F",
"F c #FF8F3B",
"G c #CF8353",
"H c #FFA35B",
"J c #EFA373",
"K c #FFFF73",
"L c #939393",
"P c #A7A7A7",
"I c #B7B7B7",
"U c gray75",
"Y c #DF8787",
"T c #E78F8F",
"R c #EB9797",
"E c #F3A3A3",
"W c #F7ABAB",
"Q c #FFB7B7",
"! c white",
/* pixels */
"                                                                           ",
"                                                                           ",
"                                                                           ",
"                                                                           ",
"                                                                           ",
"                                                                           ",
"                                                                           ",
"                                                                           ",
"                                                                           ",
"                                                                           ",
"                                                                           ",
"                                 fAAa                                      ",
"                             CZSSNTSCYSAZ                                  ",
"                         ACZASAZZpmmdNCZAAAAC   CAA                        ",
"                      AACAZCBNNNNpSBmNNNCCCZZCCZSAZNmmm                    ",
"                  mmNNZASZCMMMNNN;mB;NCZSSSAAZCZAYSCMMfm                   ",
"                  mmNNZASZCMMMNNN;mB;NCZSSSAAZCZAYSCMMfm                   ",
"                 mfMCCSYAZCBCZSSS=mBpZYRRRRRTSZNNZZCMMds                   ",
"                 sdMCCZZNNZCSYYYYdBTmZRWWEEERSCMmMNMffsp                   ",
"                 psfMMNMmMCZSYTRRBdBdSTEERRRTSCmdsdfsspi                   ",
"                 ipsffdsdmCCSTTRRStBfZTTRTTSCBMdpttpppt:                   ",
"                 :tpppttpdMmBZZZZZ:YBBYSSCCmmsaptt&;--%#f                  ",
"                f%;-;;*ttpaafmNNNN:dffZZCffppippi;%%%%+%s                  ",
"                sf+%**#;ippi-ismmBpmTpZSBtttpsdsi;##++%*pN                 ",
"               pMBp+###;isdt;-iddBm;QfZTBpppsmmsi;@+##*=pa                 ",
"               afMf%++#;ismp:**mmZm:TmSYSCCBNMmsmBTPPPr8ii                 ",
"               if8rPPPTBmsNNNCZAASYtYmSSSAAZCBNfwwLUIILw8:                 ",
"               if8rPPPTBmsNNNCZAASYtYmSSSAAZCBNfwwLUIILw8:                 ",
"               :8wLIUULwwfmZYRTTTYYfBBAAASSYTTZmsq88776Ow=m                ",
"              miwO67888qsmmATWQQQRYfdBCZSRRWWRZdi-.+==-:*=s                ",
"              s-##-*###%8admSTEWWWRsdBNSRWWERZNii+..++=:=%s                ",
"              m#-###++-:&=-mNSSSSSSafZfZSSSACMp:  *...#**%pm               ",
"             mCs#+%%--p    -pfNCCCCadZdMNMMds;#-   *++@+%:pm               ",
"             mSd%&:p**     a#jj--MMiiMpffpp-@j$:   ***::%pff               ",
"             fZZ%aNf**     i*,D!!j@*%ii-=jj!D3;i   *;;ad:fBd               ",
"             dBCiCmp**    *i;ixKKDkj-%%-jDDKGfia   *;;:aiNms               ",
"             smNdda;**    *s*tsNNMsa-=%=tssMfi;a    &&*:imsa               ",
"             asmsp:*      *s***tti:-***#****-;:=    %%&:issp               ",
"             asmsp:*      *s***tti:-***#****-;:=    %%&:issp               ",
"             passi-*     ;*&+:******tsst***-;:+&      $%;ssa               ",
"             assd;*      ;*%++i%%1z*1z%z1##%i:%%*      $imms               ",
"             smmf;       ;%+++s;;2y.gu.y2..;s-++%      $fZMd               ",
"             dMZf;       ;%+++stt..........ts=++%      $fZMd               ",
"             dMZf;      p:$+++sdd..........ds*++$*    mAZZMd               ",
"             dMZATm     p=#+++mff.***#=*...fm&++#=  mmAZCNms               ",
"             smNCZAm    p*++++M44;h*****h;;sM%+++*  ddmmiNsa               ",
"             asNimmd    p%++++CVV:gG***gg>>5C++++=p ddMa:mip               ",
"             pim#aMd   dp#&;;+NVV>GcJ9JcG>>5N+##+=p ppt::api               ",
"             pim#aMd   dp#&;;+NVV>GcJ9JcG>>5N+##+=p ppt::api               ",
"             ipa###p   da#;&&%fAAf2c2>2c<55Af%&&%:a   s;;;;                ",
"              ;;#;s    dd-ti:t;ffBfV44V5fAAN;&&&&:dd                       ",
"                       ddpidda*NNZATTSTAZNN*&&===:dd                       ",
"                        aidmmf-$$aafBCBda$$%=ti::tdd                       ",
"                        iidmnN=$$        $$$-psspisd                       ",
"                         iffNN=**        $$$-psdpisd                       ",
"                         ipbFN=**          $-pdMdis                        ",
"                         imNNN=            $-pMllis                        ",
"                         iNbHb=            $-pNNMis                        ",
"                       Nm;mBYB=NNN          -fCvvia                        ",
"                       Nm;mBYB=NNN          -fCvvia                        ",
"                      0Nm;SSBs=NNN0         =dZZfip                        ",
"                    OOOps;imsi=sspOO        =dAbbtp                        ",
"                    XXXii;;;;=tiiiXX        ;dSSftp                        ",
"                        i:;==:i::           :dSFbip                        ",
"                         i:;;:-             idCABpp                        ",
"                         -:::-*            ppdZCSpp                        ",
"                         $-***$            ppfZZmtp                        ",
"                          $$$$           ffmBfNSAdafff                     ",
"                                        966BtNmmmBtM669                    ",
"                                       96OO:dmooomd:OO69                   ",
"                                       96OO:dmooomd:OO69                   ",
"                                       6Ooo:fo9e9of:ooO6                   ",
"                                            :o696o:                        ",
"                                             $O6O$                         ",
"                                                                           "
};
