/* XPM */
static char *_c38f7378b2d44d5fae10ceb07422d4f2m2adgDI98Mqp5qb[] = {
/* columns rows colors chars-per-pixel */
"75 75 77 1 ",
"  c black",
". c #010101",
"X c #232323",
"o c #272727",
"O c #373737",
"+ c #430000",
"@ c #470000",
"# c #4F0000",
"$ c #530707",
"% c #5B0707",
"& c #5F0707",
"* c #670B0B",
"= c #6B0F0F",
"- c #731313",
"; c #771717",
": c #7F1B1B",
"> c #4B371B",
", c #5F4323",
"< c #6B4727",
"1 c #774F2B",
"2 c #7F532F",
"3 c #675333",
"4 c #775F3F",
"5 c #434343",
"6 c gray31",
"7 c gray34",
"8 c #5B5B5B",
"9 c gray39",
"0 c gray42",
"q c #6F6F6F",
"w c #777777",
"e c gray50",
"r c #831F1F",
"t c #A70000",
"y c #BF0000",
"u c #8B2323",
"i c #8F2B2B",
"p c #972F2F",
"a c #9B3333",
"s c #A33B3B",
"d c #A73F3F",
"f c #CB0000",
"g c #EF0000",
"h c #874307",
"j c #9B5B13",
"k c #AF4300",
"l c #875733",
"z c #A36B3F",
"x c #C34F00",
"c c #D75F0B",
"v c #F37317",
"b c #AF4747",
"n c #B34F4F",
"m c #BB5757",
"M c #BF5B5B",
"N c #836B4B",
"B c #C76363",
"V c #CB6B6B",
"C c #D37373",
"Z c #DB7B7B",
"A c #C39B2F",
"S c #FF8F3B",
"D c #CF8353",
"F c #FFA35B",
"G c #EFA373",
"H c #FFFF73",
"J c #939393",
"K c #A7A7A7",
"L c #B7B7B7",
"P c gray75",
"I c #DF8787",
"U c #E78F8F",
"Y c #EB9797",
"T c #F3A3A3",
"R c #F7ABAB",
"E c #FFB7B7",
"W c white",
/* pixels */
"                                                                           ",
"                                                                           ",
"                                                                           ",
"                                                                           ",
"                                                                           ",
"                                                                           ",
"                                                                           ",
"                                                                           ",
"                                                                           ",
"                                                                           ",
"                                                                           ",
"                                   pCCd                                    ",
"                              VCCZIBZUmZVBB                                ",
"                    CCCB   BCCCVVBmsbbiVCZZCVBC                            ",
"                 bbmVVCZVBBVVBBmmmmbMZimmmmMBVCBCC                         ",
"                bdnBZZICVBVCCZZVVBm;Mb;mmnnnnBVZCVmbbb                     ",
"                bdnBZZICVBVCCZZVVBm;Mb;mmnnnnBVZCVmbbb                     ",
"                asnBVVVmmVZUYYYYYIViMb=ZZVVBMBVCIZBnddb                    ",
"                iadnmmnbnBZYTTRRRYVbUMsIIIIZBVmmVVBnssa                    ",
"                uiadssasbBZUYYTTTUZsMsMYUIIZVBnbnmndaai                    ",
"                :riirrrisnMBZUYUUUVdMrZYUUUZBBbsasdaiiu                    ",
"               d#%-;&&rripabbBZZZIMMI:VVVVVMbnsirriirr:                    ",
"              ma%+%%%%;uiiuiidBVVVdds:mmmbbdppirr*;-;;%d                   ",
"              pi*%+###;uasairrMZZViUbiMbauu-uiiu;#*%++da                   ",
"              ui=*#++@;uabbaiiMUUVdE;bMsu--;rsau;##+iiMni                  ",
"              :u7eKKUUMbabnmMBZIIZbU:bVb***:ibau;#+%ddndp                  ",
"             b=7qJLPJJqqdmMBVCZZZZbIrIZCVBBmmmabMUKKee7du                  ",
"             b=7qJLPJJqqdmMBVCZZZZbIrIZCVBBmmmabMUKKee7du                  ",
"             a=qO577770abVUUIZCCCCMMdIIUUYYIVbdqqJPLJJq7:                  ",
"             a%*:-=+  -usVYRRYZVVBMsdIYEERRUCbba077655Oqub                 ",
"            bi%=:=+   +uumVYTRYZZmMsaYRRTUUZbsp7%##*--##-a                 ",
"            bi:**#  **  rinBCZZVVdVdpZZZZZZmb-=&:-+####-#b                 ",
"            ddi%+++*    -$-aanmbnsVspBBBmsdi-    p-%%%+#aBb                ",
"            sMd%u:**    :$h+;ubbdinuunn-h<h$a     *i::&%sZb                ",
"            abm:aa;*    u-1AWh=--uu%*+hWA,,*u     *dmmp%VVd                ",
"            pabua:;*    pubDHAh--%%-hjAHluu;u*    *ibbBuBMs                ",
"            iaau:*&     p-ubnau==%=-panmau:*a*    *;ppssmba                ",
"            paau:%%     =:;=***@#***-rur****a*     *::iabap                ",
"            paau:&%     *:;-***@#***-:ur****a*     *::iabap                ",
"            abb;%$      *+u;-**uraar*****::+&*;    *--uaapi                ",
"            snVu$      *%%:u%#<ll&l<=l<%u+++%*;     **;saap                ",
"            snVd$      %++-a; 2tt yf t1;a++++%;       ;dbba                ",
"            snVd$      %++=au  .       ua++++%;       ;dVns                ",
"            abmVCb    *$++*aa          aa++++$:i      ;dVns                ",
"            pamBVCb   =#++&bb  *==#*** bb++++#=i    bbUCVns                ",
"            iububbs   *+++%na;g**=***g;3n+++++*i   bCCVBmba                ",
"            uip:pns ii=++++B4>fff***Df:NB+++++%i   sbbbumap                ",
"             ;;::ri ii=+##+m4>DzzG8GzD>Nm++;;&#is  snnp#bui                ",
"             ;;::ri ii=+##+m4>DzzG8GzD>Nm++;;&#is  snnp#bui                ",
"               ;;a  pp:%&&%dC4,zz1>1z1dCd%%&&;#ps  i####piu                ",
"                   sss:&&&&;mCd44N33NdMd;rr:ur-ss   aa;#;;                 ",
"                   sss:===&&*mVCCUZUUCVm*ppssuiss                          ",
"                   sssr::ur=%$pssMBMdpp$-ddbbsup                           ",
"                   saauiaai-$$         $=mmvbsuu                           ",
"                   saauisai-$$         *=mmmddu                            ",
"                    aausnsi-$          *=mmSciu                            ",
"                    aaukkni-$           =mmmmbu                            ",
"                    aaunmmi-$           =ccFcmu                            ",
"                    ppuxxBd-          mm=MMIMb;bm                          ",
"                    ppuxxBd-          mm=MMIMb;bm                          ",
"                    iiudVVs=         9mm=aaMZZ;bm9                         ",
"                    iirccCs=        OOia=uuabu;aiOO                        ",
"                    iirdZZs;        XXuur==;;;;uuXX                        ",
"                    iiucSZs:           :u::==;:u                           ",
"                    iiiMCBsu            -::;;:u                            ",
"                    iiiZBVsii           *--:::-                            ",
"                    iirbVVdii           $****-$                            ",
"                  ddppsCZmdMbd           $$$$$                             ",
"                 85nrrMbbbmrM58                                            ",
"                85O:ssbooobs:O588                                          ",
"                85O:ssbooobs:O588                                          ",
"                5Oo:ddo8w8od:oO55                                          ",
"                    ::o585o:                                               ",
"                      $O5O$                                                ",
"                                                                           "
};
