/* XPM */
static char *c3af92289c2443fae8cfdc166684a326Of4FlavoiMx1Absw[] = {
/* columns rows colors chars-per-pixel */
"64 64 238 2 ",
"   c #000000",
".  c #060206",
"X  c #111A06",
"o  c #3C0303",
"O  c #211C16",
"+  c #0D2800",
"@  c #182603",
"#  c #1D3E13",
"$  c #262C0A",
"%  c #050233",
"&  c #192928",
"*  c #2E2728",
"=  c #38362B",
"-  c #2C3A39",
";  c #383837",
":  c #490204",
">  c #540302",
",  c #5C0201",
"<  c #580609",
"1  c #550413",
"2  c #630201",
"3  c #6B0201",
"4  c #690707",
"5  c #630A02",
"6  c #6A0C0B",
"7  c #730101",
"8  c #7B0101",
"9  c #74020B",
"0  c #780808",
"q  c #691207",
"w  c #77150A",
"e  c #660516",
"r  c #770916",
"t  c #6C1617",
"y  c #751716",
"u  c #7D1C1B",
"i  c #4F3116",
"p  c #6C2F07",
"a  c #752904",
"s  c #7E2219",
"d  c #7D1E2A",
"f  c #523729",
"g  c #463A37",
"h  c #7B2423",
"j  c #6C3025",
"k  c #204F1E",
"l  c #394831",
"z  c #50493C",
"x  c #03024A",
"c  c #020154",
"v  c #343842",
"b  c #06017E",
"n  c #4C3C49",
"m  c #4F3C5A",
"M  c #394745",
"N  c #394D50",
"B  c #474947",
"V  c #564B49",
"C  c #4A5449",
"Z  c #585849",
"A  c #464654",
"S  c #564D56",
"D  c #4A5759",
"F  c #595857",
"G  c #64514A",
"H  c #655B59",
"J  c #5B6258",
"K  c #65645B",
"L  c #60765F",
"P  c #5A5764",
"I  c #52516B",
"U  c #655B67",
"Y  c #635872",
"T  c #5B6568",
"R  c #5C6F76",
"E  c #686868",
"W  c #746B68",
"Q  c #67766A",
"!  c #797768",
"~  c #6B6A76",
"^  c #786A76",
"/  c #6B7879",
"(  c #777878",
")  c #830202",
"_  c #8C0202",
"`  c #870B03",
"'  c #83010A",
"]  c #8E010C",
"[  c #940201",
"{  c #9C0102",
"}  c #940901",
"|  c #9B0A01",
" . c #93020B",
".. c #9D010B",
"X. c #850315",
"o. c #970812",
"O. c #851A1A",
"+. c #911412",
"@. c #A30101",
"#. c #AC0102",
"$. c #A80A02",
"%. c #A3020B",
"&. c #AC020B",
"*. c #B40101",
"=. c #BC0202",
"-. c #B20900",
";. c #BC0A03",
":. c #B3020B",
">. c #BB020A",
",. c #B30A0A",
"<. c #B41500",
"1. c #A80012",
"2. c #B60514",
"3. c #BB0213",
"4. c #8C2717",
"5. c #84231A",
"6. c #89221D",
"7. c #87291F",
"8. c #A63413",
"9. c #8E0727",
"0. c #881C27",
"q. c #951A25",
"w. c #852423",
"e. c #8C2828",
"r. c #892E2F",
"t. c #942728",
"y. c #932B2C",
"u. c #96332D",
"i. c #9A352B",
"p. c #982A33",
"a. c #9C3334",
"s. c #983634",
"d. c #A4282E",
"f. c #A53538",
"g. c #A33C3D",
"h. c #B13438",
"j. c #C30101",
"k. c #CB0101",
"l. c #C50A06",
"z. c #C4020B",
"x. c #CB020C",
"c. c #D30101",
"v. c #DC0201",
"b. c #D80A03",
"n. c #D3010B",
"m. c #DC020C",
"M. c #D41209",
"N. c #C70212",
"B. c #D90311",
"V. c #E40201",
"C. c #EB0201",
"Z. c #E5040A",
"A. c #E9010A",
"S. c #F30001",
"D. c #FD0103",
"F. c #F3070A",
"G. c #FC020C",
"H. c #F40B11",
"J. c #FD1B19",
"K. c #FB211C",
"L. c #FD192B",
"P. c #F43735",
"I. c #B74C08",
"U. c #954031",
"Y. c #A5423D",
"T. c #A53C43",
"R. c #9B4A41",
"E. c #AA4744",
"W. c #B44544",
"Q. c #B44C4C",
"!. c #AB524D",
"~. c #B3514E",
"^. c #B64E51",
"/. c #A75350",
"(. c #B45253",
"). c #BC5556",
"_. c #BD5C5B",
"`. c #B7615A",
"'. c #89736F",
"]. c #867878",
"[. c #BD6561",
"{. c #C4474F",
"}. c #C6595B",
"|. c #FC4A4B",
" X c #C55D61",
".X c #FF5D69",
"XX c #C36363",
"oX c #C76766",
"OX c #CB6A6A",
"+X c #D36A6B",
"@X c #D36E70",
"#X c #CE7272",
"$X c #D77878",
"%X c #E67074",
"&X c #708273",
"*X c #7A847B",
"=X c #83847A",
"-X c #CA817A",
";X c #030095",
":X c #0204A7",
">X c #0009B4",
",X c #675C87",
"<X c #767A85",
"1X c #707588",
"2X c #0203CF",
"3X c #0304F8",
"4X c #827985",
"5X c #FF7D85",
"6X c #778488",
"7X c #898888",
"8X c #978B8B",
"9X c #8B9488",
"0X c #95958A",
"qX c #888997",
"wX c #978F9A",
"eX c #889597",
"rX c #989598",
"tX c #A99593",
"yX c #96A69A",
"uX c #ADA89A",
"iX c #8B90A6",
"pX c #9292A7",
"aX c #9BA3A1",
"sX c #96ABB0",
"dX c #A7A6A8",
"fX c #ABACAD",
"gX c #BCBDBC",
"hX c #DC8382",
"jX c #E48988",
"kX c #EC9494",
"lX c #C6BEBB",
"zX c #FEAAA9",
"xX c #C5C4B9",
"cX c #CAB4C8",
"vX c #BCC3C7",
"bX c #D6CFD5",
"nX c #E2E2D5",
"mX c #E8D1E1",
/* pixels */
"                                                                                                                                ",
"                                                                                                                                ",
"                                                                                                                                ",
"                                                                                                                                ",
"                                        Y                                             I                                         ",
"                                        ^                                             ~                                         ",
"                                      1X8X                                            9X^                                       ",
"                    Y H               W pX                                            pXQ               ,XY                     ",
"                    P K               ! fX(                                         ( fX'.              K F                     ",
"                    S ~ R             P fX'.                                        4XfXH             E K B                     ",
"                    F T E ( W         C rXfX6X!           ' *.-.3.#.7           <X].yXiXz .       Q 7XU V m                     ",
"                      F F ( 6X        z 4X8X0X<X'.  { } =.b.S.D.A.n.*.k. .{   ( ! aX0X=XM         6XW F D                       ",
"                      M B E ^ ^       A 4X9Xo.@. .$.#.$.G.V.=.l.j.j.c.=.2.*.;.] [ { 8X6XM       / '.K B B                       ",
"                      n M G ^ 9X^     ; ) 9 [ :.c.*.c.v.C.j.B.P.m.c.=.l.v.m.:.=.c.{ 8 X.;     W qXE F B N                       ",
"                        n B J ].eXtXyX*XC.F.A.S.C.v.j.S.k.c.%X.X|.J.v.@.m.c.Z.V.C.V.D.C.7XpXtXyX4XD B z                         ",
"                          l g ~ =XwXsXuXvX9X*XS.H.x.c.Z.j.c.|.P.P.G.l.#.c.=.c.D.D.^ rXxXyXuXrX=XR V -                           ",
"                          = n F W 1X0XfXmXgXfX].S.C.l.C.=.m.V.J.G.C.n.k.C.=.m.|.&XvXvXbXfXwX].J Y g ;                           ",
"                          j.- A F W 1X8XbXnXlX&Xv.b.@.D.k.j.=.C.V.*.l.V.D.*.b.5X/ cXnXgXrX( Q P A ; #.                          ",
"            H F ~ fXdX  k.j.*.; g n J ~ E 7XeX4XD.k.n.{ v.D.j.=.>.k.D.c.#.>.C.G.( eX7XE ~ D B - n x.#.c.  fXuX~ J H S           ",
"              J F ].rXdX0XqXH *.- v N B H W <X>.C.c.@.z.@.v.C.*.#.S.k.$.=.$.j.b.j.( R H M V = B *.K ].8XfXrX<XU P               ",
"                  I W 9XeXeX].V.%.k.= v P F 3.b.*...c.k.#.} k.Z.m.k.{ z.m.k.@.j.c.3.F H v = -.&.F.7XeXrXqXK F                   ",
"                    V Z ! 6X( C.8 { #.k.k.j.k.=.@.} D.C.j.&._ #.&._ #.v.G.b.@.#.=.j.k.c.>.#.] ) A.4X].Q D C                     ",
"                  #.F.k.@.- = v.3.-.) ) :.:.#.*.k.Z.V.c.l.@.[ 4 4  .*.=.k.C.b.;.=.*.>.:.[ 8 *.*.j.; = o.c.C.=.                  ",
"                  *.S.k.c.S.c.n.=.@.' [ >.j.*.*.c.D.S.C.k.{ ) 4 3 _ #.=.C.D.V.k.k.j.=.*._ 8 ..k.j.C.D.k.;.C.z.                  ",
"                #.&.c.S.k._ 0 *.>._ @.q.) } @.#.=.c.D.S.C.=.{ [ } @.l.C.D.D.c.=.*.{ _ ) +.+.v.;.1.k.v.V.C.B.#.*.                ",
"                :.#.@.&.{ #.&.*.} r 5.s w r ' o.@.@.c.C.D.A.j.z.j.j.Z.D.V.l.@.{  .' y w O.q.8 @...*.=.=.j.&.#.-.                ",
"              { ) #.1.k.v...j.S.3._ r.y.6.O.O.w 6 5 u _ @.@.*.@.*.#.{ [ _ +.y 6 q u 0.t.t.w.' -.C.j.} S.k.@.#.8 @.              ",
"              p 4 r @.#.n.{ >.[ _ ) u.i.s u e.O.O.q < < ' 8 ' 9 3 ' ' X.: > 6 y 5.5.5.5.U.y.7 | ..*.8 m.*._ 8 5 p               ",
"              8 , 7 e ) { 8 _ 4.7 d.R.Y.s 5.a.t.w.s < < X $ + X + @ + X 9 5 w.p.e.u.6.s Y.Q.a.8 8 _ 3 #.) e ) > 9.              ",
"            j.} 3 4 3 3 3 5 w e.u.p./._.u.y w.y.e.s.8 e.# @ k l k # + # t.' f.r.e.6.5.e._.(.r.y.y.w 5 7 5 2 , 8 [ c.            ",
"          =.Z.c.;.3 > , 2 y w.Q.}.f.E.oX$X}.Q.Y.s.t.h w.u q.s.g.T.s.O.j u O.t.y.W.Q. X$XoX^.s. XQ.a t > 2 1 9 *.k.=.            ",
"          >.x.2.@.2 8 e y y 0.~.g.s.!.).+X$X$XoX(.g.6.w e.q 6 w y 6 y O.0.w.f.(.@X$X+XOX(.).p.T.).q 1 : 3 3 3 @.=.V.*.          ",
"          #.<.#.[ ) 8 3 t 6 y a.e.6.Y.!.).).@XjX$X_.}.(.R.d.p.y u e.h.g./.`._.#XjX@X).(.E.g.t.w.s.a K i 5 ) )  .#.#.#.          ",
"          %.%.1.[ %._ > 6 6 w t.O.y.T.Y.Q._.$XkX$X X XE.~.R.a.T.U.f.E.{.Q._.}.-XkX+X}.!.W.Y.t.r.p.w K f , 7 o.] #.*.$.          ",
"          3 8 6 } #.] , & T V ~ q 0.p.W.!.-X@Xg.p.g.(.XXoX$XhX[.XX-X$XOX_.E.g.y.}.+X@X/.E.e.s r p.B K & 3 [ {  .7 ) 7           ",
"          a 9 , 3 8 5 , O n ; dX~ r 7.e.Y.h.Y.}.$XhX(.(.$XhXzXzXzXzXjX$X_.^.jX$XoXW.T.).s w.O.5 ~ g l O : 2 8 4 3 7 2           ",
"          ' [ } ' 2 1 : o   i ( &Xq y q.U.u.E.}.oX#X#X_.hXkXhXhXkXhXhXjX(.OX#XXXQ.!.u.a.w.O.e L aXf . o 1 > 5 _ [ { p           ",
"          [ ..*.@.7 _ 2 < o . Y &XZ r t s s s.Q.(.OXhXXX5XkXzX[.OXzXkXjXXXjXoX`.{.a.O.7.y 5 F / <X  o : 1 X.8 { @._ _           ",
"          %.@.j.Z.&.N.eXp 0., g x Z - 7XV V e y O.O.OX$X^.).jXe.r.jX_.!.$XoXh d X.t z V wX* A Z n t u p eXQ } m.=.%.@.          ",
"            2.*.>.k.=.Q i t 0.6 : % c F D dXZ h q 5.t.g.T.(._.p.s.(.Q.g.f.e.O.q h F sXS I % x l g w t f W W j.k.$.#.{           ",
"            j.*.{ v.>.z.{ j S 6Xe x x ; Z qXE s y 6.w.4.0.h u.T.U.p.t.q.w.s O.y 5.W *XH - c c > 5 C a [ ) *.C...#.:.            ",
"            I._ { V.L.A.K.*.S ( > : c O - U H   . i D i.4.q.s i.s.w.0.a f.H f . . P T * * c : 1 &XF V k.j.J.F.{ _ 8.            ",
"              l.@. .{ =.V.K.L.c.| X.a 4 c b :X'.( F W l A F T z H K U A g W Z ]./ ;X5 s , a _ [ L ] ..C.3.@.` j.c.              ",
"                2.) t 8  .c.F.L.#.#.[ 8 : b :X/ rX( :X2X3XF :XC z :XV 3X2X>X=X*X&Xr 0 e.) @.{ { ] J.v.>.@.[ c.:.                ",
"                { t u._ ) [ j.x.b.#.K *._ , > '.=XwXi 2XH ~ F ;X>XC ( P 2Xi 7XeX~ w t.X.#.K @.=.J.-.o._ #.l.>.[                 ",
"                #.a.s.E.[ 0 ) @.=.Z.&.T #.} { ~ &XpXN f Z 0XE v g E qXK f B rXqX! ] @.*.U :.m.v.c.3 k.;.k.@.*.*.                ",
"                ..4.y.a.f.0 ' { } k.K.x.b.*.[ ' G ( _ @.W iXQ j.=.W wXK  .&.( G r @.@.j.V.J.l.{ } a.7 v.` _ 8 }                 ",
"                _   s d._ ` 8 @._ 2.k.D.K.S.#.8 2 < *.c.#.} =.C.v.*.@.#.k.@.3 3 3 z.H.K.F.x.*.7 _ 7.7 @. .9   }                 ",
"                  @.j.r ) l.V.z.%.8 } -.V.V.Z.V.j.=.j.V.S.Z.C.C.V.C.V.C.C.k.$.l.v.C.c.C.=.{ 8 o.p.r _ } _   c.7                 ",
"                  7 7 [ c.z.j.A.=._ _ { *.*.k.C.S.C.C.=.*.l.n.m.v.b.V.@.c.v.F.V.C.v.*.-.#.} 5.a.s.k.>.[ 7 ,.*.                  ",
"                        =X0X4Xj.S.#.:.k.:.) } %.,.*.[ 8 { -.=.k.b.=.#.{  ...*.#.@._ _ :.3.=.@.G.=.bXaX2.@.                      ",
"                        ( W ~ j.C.-.c.F.} 0 _ [ &.:.` >._ k.$.k.k.#.j._ *.0 =.@.@.[ ) { b.k.=.A.N.8X0X'.                        ",
"                        ~ &XU b.C.:.Z.=.@.[ >.@.#._ j.D.&.0 { } } ] 0 *.G.j._ *.@.%.} } k.S.*.C.j.K 1X~                         ",
"                        Y E A c.*._ *.{   ..8 7 =.*.H.n.  [ ) @.@.0 _   k.G.j.j.4 )  .  @.>._ -.j.S W E                         ",
"                        S F           j.8 r     7 ..  { 9 1 ' _ 8 8 < 7 [   { 8     7 8 [           H V                         ",
"                                        7 3 x.    7 ' 3 2 , , 4 ' 9 , 1 3 8 9     M.8 _                                         ",
"                                          9 8 =.c.=., : 2 8 8 1   3 9 5 2 , 2.k.z.9 4 $.                                        ",
"                                              4 e , ,                     , 7 e 5 {                                             ",
"                                                                                                                                ",
"                                                                                                                                ",
"                                                                                                                                ",
"                                                                                                                                ",
"                                                                                                                                ",
"                                                                                                                                "
};
