/* XPM */
static char *_8ea0a24858b4086f8b7d6aa4f5c407aaZs59GfwX9uXoY7N[] = {
/* columns rows colors chars-per-pixel */
"64 64 239 2 ",
"   c #000000",
".  c #000900",
"X  c #13100C",
"o  c #370105",
"O  c #132713",
"+  c #393213",
"@  c #000435",
"#  c #2A1C29",
"$  c #1E262C",
"%  c #37312E",
"&  c #39383C",
"*  c #450201",
"=  c #4D0201",
"-  c #4B0906",
";  c #530202",
":  c #5B0201",
">  c #560A0F",
",  c #580809",
"<  c #630102",
"1  c #6B0102",
"2  c #660A03",
"3  c #64030B",
"4  c #6A030B",
"5  c #640C0B",
"6  c #6C0C0C",
"7  c #730101",
"8  c #770707",
"9  c #7C0201",
"0  c #7C020B",
"q  c #69130A",
"w  c #78150B",
"e  c #660914",
"r  c #780912",
"t  c #6B1513",
"y  c #751314",
"u  c #7A1818",
"i  c #473F11",
"p  c #782802",
"a  c #753107",
"s  c #78241A",
"d  c #7B1925",
"f  c #492E2B",
"g  c #493229",
"h  c #433836",
"j  c #7D2325",
"k  c #7B2E36",
"l  c #38443B",
"z  c #494539",
"x  c #4A5139",
"c  c #665B3F",
"v  c #030349",
"b  c #010254",
"n  c #2F334C",
"m  c #3C3646",
"M  c #00046D",
"N  c #443D47",
"B  c #4B3E53",
"V  c #3A4548",
"C  c #3D4F51",
"Z  c #484749",
"A  c #54474A",
"S  c #4D524A",
"D  c #5A554C",
"F  c #474B57",
"G  c #564C57",
"H  c #495959",
"J  c #565655",
"K  c #624C4D",
"L  c #64564A",
"P  c #675957",
"I  c #51624F",
"U  c #59655A",
"Y  c #69665A",
"T  c #746D5B",
"R  c #544B68",
"E  c #5A5768",
"W  c #685A66",
"Q  c #6D566C",
"!  c #576769",
"~  c #686967",
"^  c #786B68",
"/  c #6A7567",
"(  c #74746C",
")  c #666B75",
"_  c #756A77",
"`  c #6B797B",
"'  c #777877",
"]  c #840201",
"[  c #8B0201",
"{  c #8B0607",
"}  c #830A02",
"|  c #84030B",
" . c #930102",
".. c #9B0202",
"X. c #980906",
"o. c #9C020B",
"O. c #8D180E",
"+. c #850613",
"@. c #970414",
"#. c #831C1C",
"$. c #891919",
"%. c #A40201",
"&. c #AB0201",
"*. c #A40A05",
"=. c #AC0903",
"-. c #A60209",
";. c #AB010A",
":. c #B30101",
">. c #BC0201",
",. c #BA0A02",
"<. c #B80906",
"1. c #B3040A",
"2. c #BB020A",
"3. c #B30A0A",
"4. c #A8110B",
"5. c #AA0316",
"6. c #B90214",
"7. c #87261A",
"8. c #912016",
"9. c #871D23",
"0. c #8B1E2A",
"q. c #8B2424",
"w. c #872927",
"e. c #942829",
"r. c #95332E",
"t. c #99342B",
"y. c #952932",
"u. c #8A3336",
"i. c #993536",
"p. c #A33628",
"a. c #A52C32",
"s. c #AD3535",
"d. c #A63A39",
"f. c #C30101",
"g. c #CB0102",
"h. c #C80906",
"j. c #C3010B",
"k. c #CB010B",
"l. c #D30102",
"z. c #DB0201",
"x. c #DA0706",
"c. c #D4010B",
"v. c #C7110E",
"b. c #C80213",
"n. c #DA0115",
"m. c #E30102",
"M. c #EC0102",
"N. c #E60904",
"B. c #E5010A",
"V. c #EC020B",
"C. c #F30202",
"Z. c #FB0002",
"A. c #F70408",
"S. c #FE010B",
"D. c #FA160B",
"F. c #E50111",
"G. c #F30315",
"H. c #FE1C18",
"J. c #F7210A",
"K. c #FB241C",
"L. c #FD1C28",
"P. c #FF1F33",
"I. c #FE2426",
"U. c #E93D29",
"Y. c #F93B34",
"T. c #B5430B",
"R. c #AB413D",
"E. c #FB4335",
"W. c #962F43",
"Q. c #A63E42",
"!. c #FA3A43",
"~. c #9B4542",
"^. c #A54242",
"/. c #AD4848",
"(. c #B44A49",
"). c #B25052",
"_. c #B85655",
"`. c #BC5B5A",
"'. c #B96151",
"]. c #BD5C63",
"[. c #85776A",
"{. c #816C7B",
"}. c #837879",
"|. c #C85A58",
" X c #F94B50",
".X c #FF5C56",
"XX c #C5665B",
"oX c #FF6357",
"OX c #C75C66",
"+X c #D35862",
"@X c #CA6768",
"#X c #CF7370",
"$X c #D67575",
"%X c #F37074",
"&X c #75826B",
"*X c #6B8175",
"=X c #798578",
"-X c #87857D",
";X c #91877E",
":X c #DC837B",
">X c #00068C",
",X c #0105BC",
"<X c #707486",
"1X c #0000CA",
"2X c #0900D7",
"3X c #0E0EF8",
"4X c #201AEE",
"5X c #887B83",
"6X c #897694",
"7X c #798685",
"8X c #73898E",
"9X c #8A8787",
"0X c #968D8D",
"qX c #889586",
"wX c #98928E",
"eX c #898995",
"rX c #8C9797",
"tX c #989799",
"yX c #A48D93",
"uX c #A19497",
"iX c #9CAD8F",
"pX c #A4A69B",
"aX c #B1B298",
"sX c #9898A4",
"dX c #9598AE",
"fX c #A798A8",
"gX c #9DAAB2",
"hX c #A7AAA9",
"jX c #ADAEB4",
"kX c #DE8381",
"lX c #E78787",
"zX c #EE9191",
"xX c #CBBDBA",
"cX c #BDC1B2",
"vX c #C1C0BE",
"bX c #C1BDCC",
"nX c #BEC1C5",
"mX c #D0D3CC",
"MX c #E3DEDD",
/* pixels */
"                                                                                                                                ",
"                                                                                                                                ",
"                                                                                                                                ",
"                                                                                                                                ",
"                                        W                                             J                                         ",
"                                        U                                             ^                                         ",
"                                      ` qX                                            -X)                                       ",
"                    ! W               ~ fX                                            sX[.              Q Q                     ",
"                    P Y               ^ gX)                                         <XjX`               / H                     ",
"                    J ) <X            ~ aX'                                         =XaXP             ) ~ A                     ",
"                    E J ~ ' ^         G tXgX=X'           0 :.,.2.>.9           <X[.iXyXz         _ {.Y A B                     ",
"                      J J ( 9X        z &XrXsX' &X  %...f.m.C.Z.S.l.=.&.@.X.  [.5XtXtX*XZ         eX=XH F                       ",
"                      Z Z ~ ' ^       Z -XwXo.%.X.>.=.&.G.M.:.h.j.&.f.g.:.:.3.%.X.{ 0X9XV       ^ ( U G Z                       ",
"                      m Z G / 9X~     h 8 7 &.,.2.1.g.B.B.,.l.Y.N.h.z.g.B.v.>.2.;.+.9 7 m     ` 5X( S Z m                       ",
"                        N V K ( wXuXhX8Xm.Z.V.N.z.F.g.c.g.m..XoX XD.x.*.m.l.m.m.m.M.Z.F.}.sXtXtX8XP V Z                         ",
"                          B l ) =XrXfXpXvXtX' Z.C.l.l.M.>.l. X!.Y.Z.b.&.z.z.l.Z.Z.}.qXnXpXhXtX5X~ N V                           ",
"                          m & H T }.tXhXMXjXcX}.Z.m.f.N.:.z.m.H.C.S.m.g.Z.:.F..X' nXvXMXhXtX' _ D & n                           ",
"                          f.% B E ~ ' 0XbXMXmX' m.N.=.m.Z.z.>.m.m.f.>.C.S.>.m.%X' mXmXxXtX' ~ G A & ,.                          ",
"            E I Y gXfX  N.:.f.& f S H T / -X0X( Z.m.f.=.z.A.&.j.2.:.S.z...2.l.Z./ eX7X~ Y c Z & m :.3.g.  gXgXT U E E           ",
"              U D 9XfXgXeX-XQ ,.% % H C W / T b.m.=.X.;.:.C.l.:.:.l.S.&.,.&.>.z.j.[.) ! V Z N % :.~ =XwXhXsX5XL D               ",
"                  L P qXdXqX=Xm.-.1.% % G I c.k.f.%.x.j.>.g.C.&.&.V.>.g.G.f...g.l.b.L S B & ] | C.8XrXyX0XY L                   ",
"                    S J ( &X=Xn.] %.;.l.h.k.g.,.&...S.B.g...C.=.>.V. .B.V.z.o.@...l.2.x.]  .] 7 M.` ;X) J H                     ",
"                  %.C.z.;.l g m.,.1.1  .:.>.>.f.l.z.A.g.g...] >.:.] %.2.:.&.z.g.,.:.f.:.1 : ] ,.2.% h ..h.M.*.                  ",
"                  6.C.;.z.c.l.h.:.%.] 7 3.2.&.&.g.M.m.z.>...} 7 7 } ....:.>.C.x.f.>.2.2.| 0 ; < c.N.G.x.f.C.j.                  ",
"                &.&.F.C.g...8 :.>.9 : 4 9 [ ..&.>.l.M.z.f.-.] 1 1 [ %.%.g.N.m.k.&.X.] 9 : < : 7 7 z.z.C.m.g.-.>.                ",
"                j.&.%.%.o...-.....4 1 3 y $.{  .%.%.Z.m.,... .0 0 | %.>.B.A.l... .0 w 3 , -  .[ 4 7 ] f.&.=.%.:.                ",
"              o.] &.-.j.C.%.2.C.>.r $.i.u s t t 5 3 *.m.M.g.%.[  .%.g.m.N.*.] 5 : 1 y u 3 : +...3.] - n. .] >.8 {               ",
"              a 2 [ } &.k.] :.4.| 9 $.$.t j y < ; = #.=.S.m.:.c.c.>.m.V.3.w 2 , 5 6 5 t 5 - } [ &. .< m.:...8 1 a               ",
"              [ ; 7 9  .%.7  .j [ O.w.w.u y w q 5 : -  .l.f.>.j.g.:.g.j...= - , 6 6 5 q u 4 #.] [ { 7 %.} 1 1 3 9               ",
"            >.} [ > : 4 < 1 r t.r.r.(.R.u u 6 6 y y = 5 { =.,.%.%.=. .7 : = e 5 u 6 6 r.y #.u $.9.y 6 < < < 3 ] ..2.            ",
"          b.l.c.>.e > ; : y q.(.|.y._.@Xi.q.q.y 5 y y 5 5 = = > , 5 ; , t q e.i.Q.^././.$.q.u d./.q.y 3 < ; 3 2.g.g.            ",
"          &.v.g.%.7 1 3 y u #._.^.u.)._.t.q.u ~.).#XQ.d w.t t d j 3 u 9.u d d._.OXkX@X#Xe.#.#.R._.q.q.; 1 < 1 ..l.1.6.          ",
"          %.f...} [ 1 7 q q s r.$.a.s./.q.^.).$XzXkX#XOXd.e.$.9.7.$.q.Q.|.$X@X@XzX$X`./.^.u y s p.9.3 > < ] @.] &.2.>.          ",
"          =.2.-.} o.| 3 t 5 5 a.7.w.~./.).`.#XzXkX`.$XzX@Xs.e.r.r.7.d.$X$X|.`.lXzX#X`._.^.w.u 8 $.u - i 1 9 ] +.o.:.&.          ",
"          7 2 1 ] o.9 1 O Q S T 5 u w.#._._.`.R.$XlXa.i._._._.i.a.y.w.w.i./.kX$X`././.|.q.#.5 t w.F ! O 4 ] .. .9 ] 2           ",
"          a 1 2 ] ] : = # N V sX( e u 8.u.W.p.OX@X@XQ.)._.).t.7.q.q.).]._.).#X@X).).r.t.y.w 5 ) ) h V O * < } ] < 3 <           ",
"          +.| | 7 3 < ; * . + ( ( D 8 t 7.O.d.~.(.@XR.OX:X].R.^.d.d.XX:X+XlX).R.(.p.#.w.e } H 5XtX+ X = < 3 < 9 .. .p           ",
"          ....3...1 { : * * X P 7XR e hX6 w w.i.Q.OX@X#X'./.|.e.u.|.(.|.#X@X).~.d.j r 4 iXW.J _ ' . o o > | 9 ..&.X.9           ",
"           .:.h.l. .f.tX7.u 5 h v @ b H G hXx q.q $.#.7.q.y.e.p.d.a.u.u #.e.s 5 d G iXZ J b v A A - O.p dX/ ..m.k.*. .          ",
"            o.;.l.g.1.) g t s 2 * v b l J 8Xg R 6Xl Y u.0.7.s i.i.w $.w.u.P Z 9XH f x H % b @ o m d u i ~ 2.c.l.&.&.5.          ",
"            >.:.%.N.-.g.[ p S 9X3 o b O m Y M <XhXH rXP k 7.0.).).w.$.w.P pXF hX` >X>Xm $ b = - 4 S p  .j.g.m.5.%.f.            ",
"            T.[ X.m.I.l.P.:.x ' - ; b # % Q - ( fX9X,X1X2X3X4XF Z & 4X3X1X,X;XtX[.b b # $ b * e -XS ..2.z.H.F.[ [ T.            ",
"              g.;.o.] 2.V.I.I.j.} &.:.k.X.1 @.! T pXl o.^ hXeX} 7 rXgX(  .z fX' I 6.*.[ %.&. ...5.I.x.:.f.%.| &.x.              ",
"                =.| y 0 [ z.m.I.j.>.l.>.[ %.=.9 U {...&.! tX` :.>.' 0X! o.%.` W 0 ..%.&...2.g.f.L.f.=.k.%.[ b.f.                ",
"                :.w w. .] ..%.g.M.l.g.3.>.I.n.7 : 0 ..g.-.%.>.B.m.j...&.l.%.; 1 7 >.j.k.j.g.H.H.j.9 >.k.%.>.:.%.                ",
"                >.p.R.d...] ] *.l.I.z.l.H.Z.I.x.g.;.j.m.N.m.K.J.l.H.E.K.L.c.:.b.h.M.oX Xz.V.K.f.&.{ ] l.h.:.:.,.                ",
"                o.O.t.r.d.7 9 ;.] =.>.x.:.4.z.V.L.Y.E..XY.I.J.l.g.z.S.K.I.U..XoX%XoXE.Z.2.g.&.7  .w.7 :.{ ] ]  .                ",
"                 .  0.t.[ 9  ...] :.k.f.&.g.V.m.C.K.K.H.I.V.m.z.&.x.m.m.L.K.H.H.I.M.m.x.g.l...}  .y.1 :.] r   }                 ",
"                  %.:.] ] g.z.1. .{  ...&.2.j.z.l.k.l.m.l.l.z.k.:.g.c.z.g.z.x.m.x.z.2.j.=.{ w.p.j x.f.%.1 :.:.                  ",
"                  { 9 { h.6.l.G.g.9  .| ] >.:.>.g.z.2.:.%.g.B.B...>.k.%.:.:.l.k.1.1.%.{ 7  .9.g.G.1.g.x...8 ]                   ",
"                        }.wX=Xc.m.:.k.C.@.9 9 ..5.:.{ 3.0 2.%...[ *.l.] f.[ <.%...[ [ 5.M.f.:.C.c.9XuX=X                        ",
"                        ` _ / f.C.%.C.j. ...:.5.X.] l.M.:.} %.o.%.+.9 &.A.x.] 3.[ >. .X.>.C.5.Z.f.! <X_                         ",
"                        ^ <XU z.B.f.m.=... .f. .:.{ n.Z.j.] ]  .X.-.9 b.A.>.} g.&.5.{ [ h.F.=.m.x.P *X/                         ",
"                        W <XS h.3.] g. .  [ } 0 f.2.C.l.  [ 2 X...} +.  z.Z.6.=.7 @.9    .:.o.,.f.S _ !                         ",
"                        G E           ,.0 7     7 @.  ..7 ; 0 0 0 ] - 4 %.   .9     7 9 5.          J A                         ",
"                                        9 | z.    7 | 1 > : 7 9 7 0 7 ; 7 0 7     f.} ]                                         ",
"                                          e 7  .x.f.; ; < 0 | <   ] < 8 - : b.j.>.8 1 %.                                        ",
"                                              4 1 e ;                     , < 3 3 %.                                            ",
"                                                                                                                                ",
"                                                                                                                                ",
"                                                                                                                                ",
"                                                                                                                                ",
"                                                                                                                                ",
"                                                                                                                                "
};
