/* XPM */
static char *e86c90116f2247c9b498a592b7c5e04eBbKt0CY1qCARv9Vj[] = {
/* columns rows colors chars-per-pixel */
"64 64 236 2 ",
"   c #000000",
".  c #000506",
"X  c #131A0C",
"o  c #03041A",
"O  c #380302",
"+  c #2A1015",
"@  c #0C2500",
"#  c #142E0E",
"$  c #143A16",
"%  c #293309",
"&  c #3C3B1C",
"*  c #020224",
"=  c #01042D",
"-  c #110E23",
";  c #030535",
":  c #12232A",
">  c #393A24",
",  c #323131",
"<  c #373A37",
"1  c #440202",
"2  c #4D0202",
"3  c #49060A",
"4  c #540201",
"5  c #5C0202",
"6  c #560805",
"7  c #540515",
"8  c #640202",
"9  c #6B0202",
"0  c #670A06",
"q  c #6D020B",
"w  c #740200",
"e  c #770706",
"r  c #7C0201",
"t  c #7C030B",
"y  c #67110A",
"u  c #75180C",
"i  c #670514",
"p  c #760A14",
"a  c #681714",
"s  c #791818",
"d  c #44320F",
"f  c #473418",
"g  c #772811",
"h  c #701826",
"j  c #463627",
"k  c #4F3327",
"l  c #4A3A36",
"z  c #7A2426",
"x  c #673C2B",
"c  c #22460F",
"v  c #37462A",
"b  c #3B4538",
"n  c #504417",
"m  c #57472B",
"M  c #514936",
"N  c #6E4F31",
"B  c #7B643A",
"V  c #020248",
"C  c #010056",
"Z  c #110453",
"A  c #383943",
"S  c #363A51",
"D  c #040269",
"F  c #12006F",
"G  c #000678",
"H  c #01027C",
"J  c #463A45",
"K  c #3D4B4C",
"L  c #4A4B47",
"P  c #564C45",
"I  c #59574A",
"U  c #444957",
"Y  c #514E55",
"T  c #485655",
"R  c #595759",
"E  c #694F4C",
"W  c #655B57",
"Q  c #5C604F",
"!  c #5B695A",
"~  c #686659",
"^  c #716E52",
"/  c #4B5966",
"(  c #555A66",
")  c #545271",
"_  c #645965",
"`  c #735769",
"'  c #5A6766",
"]  c #4F6970",
"[  c #676768",
"{  c #75696A",
"}  c #6A736B",
"|  c #78766B",
" . c #696D75",
".. c #796C76",
"X. c #697577",
"o. c #787778",
"O. c #840101",
"+. c #8B0201",
"@. c #8A0902",
"#. c #850209",
"$. c #8C010C",
"%. c #930101",
"&. c #9B0202",
"*. c #980607",
"=. c #881B0D",
"-. c #880415",
";. c #980116",
":. c #871A1A",
">. c #A40101",
",. c #AC0101",
"<. c #AA0807",
"1. c #A3020A",
"2. c #B40102",
"3. c #BC0102",
"4. c #B80A03",
"5. c #B4020A",
"6. c #BB020A",
"7. c #B51000",
"8. c #A80313",
"9. c #B90213",
"0. c #8A261B",
"q. c #9A281D",
"w. c #911223",
"e. c #842224",
"r. c #8B2827",
"t. c #952929",
"y. c #8B332D",
"u. c #96342A",
"i. c #8B2A34",
"p. c #982B36",
"a. c #9A3635",
"s. c #A23429",
"d. c #AA3431",
"f. c #A63937",
"g. c #C40102",
"h. c #CB0101",
"j. c #C90A04",
"k. c #C3020B",
"l. c #CB010B",
"z. c #D40201",
"x. c #DC0101",
"c. c #DB0805",
"v. c #D4030A",
"b. c #C80215",
"n. c #D60213",
"m. c #E30101",
"M. c #EC0102",
"N. c #E60409",
"B. c #F40001",
"V. c #FD0102",
"C. c #FD0607",
"Z. c #F4010B",
"A. c #F40713",
"S. c #FB1C17",
"D. c #FA2215",
"F. c #F81A28",
"G. c #FD2425",
"H. c #F33B33",
"J. c #FD3C3B",
"K. c #9A5117",
"L. c #9D4236",
"P. c #AC4B38",
"I. c #FF4138",
"U. c #983140",
"Y. c #A53B48",
"T. c #B53C47",
"R. c #FA3B44",
"E. c #9B494A",
"W. c #AA4546",
"Q. c #B54849",
"!. c #AD5052",
"~. c #B85859",
"^. c #886C50",
"/. c #BB665F",
"(. c #B85363",
"). c #8A7874",
"_. c #847978",
"`. c #BE606D",
"'. c #C35056",
"]. c #FD4B50",
"[. c #CA6654",
"{. c #FF665A",
"}. c #FD5C68",
"|. c #CE6F72",
" X c #D77476",
".X c #FA6368",
"XX c #F47970",
"oX c #768577",
"OX c #87847D",
"+X c #030488",
"@X c #040495",
"#X c #01019D",
"$X c #0301A3",
"%X c #0603A7",
"&X c #1100A6",
"*X c #0002B1",
"=X c #0203B9",
"-X c #727384",
";X c #0102C9",
":X c #0102D9",
">X c #1204DD",
",X c #0302E7",
"<X c #0201FD",
"1X c #1B18F9",
"2X c #2618FB",
"3X c #0E23FA",
"4X c #292CFF",
"5X c #3737FA",
"6X c #4234F9",
"7X c #5356FD",
"8X c #877D84",
"9X c #EF7882",
"0X c #7A8487",
"qX c #768F89",
"wX c #888987",
"eX c #98968A",
"rX c #8C8F91",
"tX c #968C98",
"yX c #969599",
"uX c #A89590",
"iX c #94A59A",
"pX c #B3A999",
"aX c #8C97A7",
"sX c #AA9AAB",
"dX c #9AA8A5",
"fX c #A8A7A8",
"gX c #A9ADB2",
"hX c #AFB0B1",
"jX c #E58988",
"kX c #F4918B",
"lX c #D99EA2",
"zX c #C2C1B8",
"xX c #CCBBC4",
"cX c #B9C9C5",
"vX c #CFC7CE",
"bX c #E1DED6",
/* pixels */
"                                                                                                                                ",
"                                                                                                                                ",
"                                                                                                                                ",
"                                          ~                                                                                     ",
"                                        T }                                             )                                       ",
"                                        ^ o.                                            }                                       ",
"                      I [               OXeX                                            wX .              [ W                   ",
"                      R '               yXgX-X                                        X.uX .              ! P .                 ",
"                      R -X[             eXdX8X                                        8X_.~             } ! T                   ",
"                      W ' } _.          o.pXyXo.                                    _.yXwX/           | { E b                   ",
"                        Q W X.{         } qXeXeX_.-XO.%.+.4.z.C.V.B.n.1.,.&.-.  ..0XuXuX[ P       ..oX-XY Y                     ",
"                        K b { wX{       _ ).aX@.*.;.,.4.3.V.V.,.x.4.2.v.z.5.&.3.&.>.*.wX~ J       uXo.[ L U                     ",
"                        K L P ).wXX.  . ' O.$.@.9.h.1.k.B.v.4.z.R.m.c.2.6.m.>.g.6.2.&.e Q A      .oX .E U b                     ",
"                          L M | rXuXrX. t #.w &.z.4.2.3.N.z.x.J..XS.x.l.3.x.g.g.g.x.+.O.+.S   wXiXo._ T L                       ",
"                            L I ~ qXaXgXxXvXoXX.C.A.g.b.c.g.v.J..XH.C.c.>.M.g.c.V.V.X.aXzXpXpXeX).Y K j                         ",
"                            , L I ^ OXeXvXvXvXvX^ C.2.3.B.,.l.Z.I.Z.B.j.3.M.>.v..X| xXvXcXfXtX-X] U < S                         ",
"                            h., U T } o.iXhXbXvX..B.;.<.V.C.j.2.C.x.z.z.C.Z.2.m.XX_.zXbXhXwX-X{ R < < g.                        ",
"            / [ eXOX      3.k.l J M T  .oXtXfXhX8XN.*.k.h.V.x.3.x.h.,.h.V.c.>.N.kX| hXdX| { I W K , k.g.g.    0XtXtX            ",
"                / [ oXyXhXuX-Xc.2.< A l ( ~ X.o.2.x.2.&.g.>.C.h.3.5.h.V.3.V.5.g.M.3.o.} T 6.,.< < n.! 8XyXhXrXW ( W             ",
"                  W K ` OXuXyX_ Z.&.9.> P R ( g.z.2.z.m.g.g.g.V.2.,.Z.6.M.v.g.2.3.z.6.Q i &.< O.w ' 0XyXtXrX` )                 ",
"                      / T } wX~ B.+.+.,.3.z.h.3.3.&.m.C.c.3.@.Z.3.,.M.,.m.2.9.%.&.7.h.g.2.@.-.r #.~ ..| -XI T       { )         ",
"                    9.k.A U I / c.h.<.&.r %.%.&.2.3.x.m.x.h.2.z.>.Z.g.3.3.*.5.>.3.1.&.;.3.q 5 w %.h.{ ( L b 3.      )           ",
"                  <.,.A.3.j.n.B.N.4.>.w >.2.g.3.3.h.V.V.x.2.O.w b.>.+.>.k.x.m.N.z.c.z.3.%.e 4 0 8 N.@.x.k.3.M.5.                ",
"                  >.,.N.M.g.>.%.,.,.9 6 >.<.5.,.g.z.B.M.z.6.2.9 9 8 %.2.%.5.m.x.x.5.2.h *.$.6 6 r D &.w M.C.x.1.6.              ",
"                  3.5.>.,.>.@.8.,.,.9 w 5 O.%.&.2.5.B.V.z.3.>.$.%.9 *.&.*.k.,.V.b.5.@.s q 8 6 i &.4X+.1.4.2.&.k.>.              ",
"                >.6.m.>.t r ,.h.B.z.w 6 i s s O.&.%.Z.V.z.3.>.+.8 -.O.&.g.x.+.z.%.+.#X6 6 s a 1XD <.+Xt O.r 1.3.3.*.            ",
"                g w +.+.2.v.+.6.2.+.r :.r.s s s a p N.x.V.2.2.-.8 2.B.M.3.V.O 3 s = . p 4X+X1X7X:X5.*.5 n.w 6.w 4 g             ",
"                +.2 8 r +.*.9 +.:.w =.p.s z a s 4 1 ,.B.c.z.h.&.0 $.N.s.2.m.* o d & = * 4X7X5X6 8 O.O.8 9 y +.5 5 r             ",
"              l.%.4 0 8 8 9 8 r r.a.a.Q.:.y a -.y i =.6.N.4.6.-.;.z.3.3.0 y O & f j #Xo H = D 6 7 H L.e.5 q 8 6 r %.h.          ",
"              l.l.O.8 4 5 5 z f.W. Xy.f.u.p e.0 6 :.5 6 u.n.l.*.h.9.h.m.* # * d m f k o o N E G w.G Q.0.0 4 9 +.>.n.x.          ",
"            9.k.7.%.r 8 9 a s y.Q.W.a.Q.a.u.e.s :.!.E.p 4 y u w.@.u o 4 2X# X c m N m N M f = :.f.a.q.r.9 a 4 w 8 >.l.6.        ",
"            ,.4.,.e r e 9 a p s y.r.t.f.a.r.f.'.|.kX|.E.y 8 7 #X8 2 6 #X$X* $ @ n B m E k > 3X+X:.e.y.w.e.p 4 w $.$.2.<.        ",
"            ,.2.5.e >.+.w 8 a r.t.t.a.u.E.W.9XlX[.`.W.E.E.#.a r 8 r y i.v = & @ k f N ^.v $ , $ D r.p.i.z 6 9 $.#.1.2.>.        ",
"            O.%.+.&.*.@.w h i u s.e.Q.s.W.9XkX X X!.jX/.d.r.9 q.s  XG %XV %Xk $ @ d k N ^ c $ @ +Xi :.2Xg 0 k &.8.O.r O.        ",
"            u 9 w O.@.9 2 + [ Q } y s z L./.~.'. XjXU.9Xy.%X#X0.!.C * =Xo M - j f X X V B N B N z p ~ [ : 5 9 ;.%.8 0 g         ",
"            @.+.%.t 5 4 7 X P aXuX .i y r.a.q.P.`.f.~.~.s./.@Xe.1X1X[.$X* F o % k [.d ^.M f j f p [ y.tXP L X 0 r >.%.+.        ",
"            %.>.5.5 w $.5 O . ' X.o._ u h g f.'.g h '.L.jX~.T.:.&X%XE.jXT./.> c f.k ^ ^ o * V = R ` [ > <   O p w @.&.*.        ",
"            &.3.6.t 2.2.9.4 1 I ! ..( t / 0 I fXT V T.[.f.Q.$X|.P.'.o W.(.9X& < v ^.M - n m x n o oXL 2 O q 3 6.w k.g.%.        ",
"              1.2.D.9.g.6.2.s 2.>.&.w ; -XU Q.0.3 sX|.@X@Xr.t.s.*X+X(.t.=.Y.s v N m k > C o = ; J w ~ q O 0 5 1.z.,.>.          ",
"              2.,.m.x.G.G.>.A.2.z.+X9.*.J , Q.2.g.` #Xn.R i.0.0 o |.u.z y.s.~ U f l f o :X@X,X2 %.O.q 9 >.w 3.>.&.8.k.          ",
"              K.@.2.M.9.z.h.m.x.H G q @.&.&.&.@X1 @X3 = ; O C 3.OXM < y.w.dXR rXw 8 *.>.@X,X,X5.,.$.e %.4.g.F.w *.+.K.          ",
"                h.,.$.;.B.G.4.F.l.m.3.p w j.+XD D D 8 4 4 3 +.9 e +.#X$XW J.m.R.M.B.c.M.&X,X@X2.,.O.,.>.j.g.>.&.h.v.            ",
"                  +.u U.*X+.*.8.r *XH O G =X<X*X+X%X1 @XO.6.2.6.%X+X;X.Xh.9X{.J.H.].V.B.>X#XH ].G.&.@.,.3.*.x.&.&.              ",
"                  s a.f.E.%.O.O.*X4 +X1X<X6X5X$X,X+X;X7 5 *.1.w <X<X;X;X}.+X}..XR.V.J.Z.$X:X#XF.g.+.$.%.n.h.2.*.5.              ",
"                ;.U.P.f.*.w +.O.*X>.*X@X5X5X5X<X*X*XH #X3 r &.@X2 <X@XD.N.].}.XX{.J.J.}.#X:XS.j.6.r u.w l.<.+.2.%.              ",
"                O.u.t.Y.%.#.w 2.%X1 %X3X,X5X5X5X6X#X4 #Xt <X=X&X<X<X#X+XF.S.R..X{.XX}.].z.$Xg.2.O.a.p.r >.&.%.r *.              ",
"                  i   0.t.;.$.#.8.+.b.e ,X:X:X;X;XD #X8 *X9 :Xx.#X2.n.;X%XV.D.z.S.D.C.m.x.#X2.$.w u.i.0 1.%.$.6 #.              ",
"                . +.4.2.u +.4.M.>.j.m.H ,X3 ,X:X@X@XC G 5.r ;Xx.$X#X3.j.5.M.z.h.h.N.h.4.2.#XO.r.u.Z.v.h.>.i ,.r                 ",
"                    +.q %.z.h.h.2.H >.9 r %.%XD %XC Z 6.Z ,.t =X#.,.3.,.&.O.<.6.3.C.k.5.+.#X&.r.6.z.c.h.h.&.w                   ",
"                      <.sXg.2.2.-.V.2.<.h.q O +X6 + V =X+.&.*X>.r @X;.*.#.3.%.8.<.h.4.&.k.#X>.*.M.3.vXsX6.$.                    ",
"                        . ^ | L g.Z.3.m.&.w @.r q 8 O 1 C j.2.k.%.;.,.%.>.3.t +.2.%.4.>.>.@XN.6.B.T [ } ..                      ",
"                          } ..P k.V.<.g.&.;.&.9 O 1 0 g.V V.C.2.1.#.2.w t 9.w O.3.*.3.>.&.#XM.3.N.P ' |  .                      ",
"                          ~  .< z.1.e z.i   O.1 7 g.,.A.h.  V.+.%.-.r O.  h.3.5.k.8 r r w @X3.t ,.K U } W                       ",
"                          I [   4 5 8 h.9 8 -.0 4 w z.3.  e 8 +.+.+.+.O.%.  b.z.w @.i +.q 2.,.5 q   J R T                       ",
"                                        2.t O.h.    %.r 9 0 8 i 8 w r 5 3 r $.q     k.O.*.              .                       ",
"                                              O.3.g.$.8 5 6 q r     5 -.9 O #.3.l.2.r 6                                         ",
"                                                8 w 4 7                     6 9 8 8 >.                                          ",
"                                                                                                                                ",
"                                                                                                                                ",
"                                                                                                                                ",
"                                                                                                                                ",
"                                                                                                                                ",
"                                                                                                                                ",
"                                                                                                                                "
};
