/* XPM */
static char *_c96154c6eed4713c02e7d5263a4368eH6JyeYN3wxEJgY92[] = {
/* columns rows colors chars-per-pixel */
"64 64 246 2 ",
"   c #000000",
".  c #070504",
"X  c #02020C",
"o  c #091B05",
"O  c #10110E",
"+  c #161808",
"@  c #060218",
"#  c #3D0402",
"$  c #2B1D08",
"%  c #2D1A11",
"&  c #172605",
"*  c #10280F",
"=  c #19360A",
"-  c #18341A",
";  c #26260A",
":  c #32250B",
">  c #282615",
",  c #373517",
"<  c #313218",
"1  c #000224",
"2  c #04032A",
"3  c #000239",
"4  c #222622",
"5  c #303425",
"6  c #38393C",
"7  c #460506",
"8  c #4A0301",
"9  c #540201",
"0  c #5A0406",
"q  c #550E0D",
"w  c #5B0818",
"e  c #640101",
"r  c #6C0102",
"t  c #670808",
"y  c #690C0F",
"u  c #730201",
"i  c #7B0101",
"p  c #780509",
"a  c #770314",
"s  c #6C1517",
"d  c #761A1B",
"f  c #47300D",
"g  c #462B1B",
"h  c #493717",
"j  c #563A18",
"k  c #77260E",
"l  c #741322",
"z  c #463827",
"x  c #553C24",
"c  c #53312A",
"v  c #443B39",
"b  c #73322A",
"n  c #1E4A10",
"m  c #285013",
"M  c #306A19",
"N  c #1F4423",
"B  c #2E4C27",
"V  c #39473A",
"C  c #306F27",
"Z  c #49411C",
"A  c #68481E",
"S  c #784E1E",
"D  c #4C4829",
"F  c #584527",
"G  c #484D3B",
"H  c #564834",
"J  c #65492A",
"K  c #774B29",
"L  c #6C5227",
"P  c #7A552C",
"I  c #664737",
"U  c #784A34",
"Y  c #685537",
"T  c #775735",
"R  c #477D2D",
"E  c #766328",
"W  c #01024D",
"Q  c #09034C",
"!  c #010253",
"~  c #080256",
"^  c #02015A",
"/  c #322944",
"(  c #393C47",
")  c #040367",
"_  c #00006C",
"`  c #030377",
"'  c #00017C",
"]  c #110077",
"[  c #523F45",
"{  c #3E494C",
"}  c #524C4C",
"|  c #4D5657",
" . c #555657",
".. c #695650",
"X. c #586759",
"o. c #6F684E",
"O. c #575563",
"+. c #515D77",
"@. c #625E6A",
"#. c #596765",
"$. c #676B6A",
"%. c #68766D",
"&. c #78726C",
"*. c #676976",
"=. c #6C7674",
"-. c #797677",
";. c #830101",
":. c #8C0201",
">. c #890A04",
",. c #82010B",
"<. c #8C020D",
"1. c #930201",
"2. c #9C0202",
"3. c #980508",
"4. c #8D1605",
"5. c #850617",
"6. c #940515",
"7. c #841A17",
"8. c #A40101",
"9. c #AB0201",
"0. c #A70804",
"q. c #AD020B",
"w. c #B40202",
"e. c #B50706",
"r. c #BB0101",
"t. c #BB020B",
"y. c #AF0510",
"u. c #B80413",
"i. c #852319",
"p. c #922C12",
"a. c #861B26",
"s. c #8A2625",
"d. c #972928",
"f. c #983629",
"g. c #922B3A",
"h. c #983838",
"j. c #A2322F",
"k. c #C40201",
"l. c #CC0201",
"z. c #C3010A",
"x. c #C90508",
"c. c #D40101",
"v. c #DB0102",
"b. c #D8020B",
"n. c #CA0313",
"m. c #D50212",
"M. c #C41013",
"N. c #E50201",
"B. c #EC0100",
"V. c #E60409",
"C. c #F40101",
"Z. c #FC0101",
"A. c #FA0409",
"S. c #FB0415",
"D. c #F20F15",
"F. c #FE241C",
"G. c #F91A27",
"H. c #FD2127",
"J. c #FE3B37",
"K. c #865F1E",
"L. c #85572C",
"P. c #864F35",
"I. c #925938",
"U. c #AF4D38",
"Y. c #9E602E",
"T. c #976539",
"R. c #AA673D",
"E. c #F9473D",
"W. c #9B3546",
"Q. c #AB3944",
"!. c #FC3745",
"~. c #975541",
"^. c #AF4C4A",
"/. c #BA5557",
"(. c #B17047",
"). c #847668",
"_. c #847779",
"`. c #A67C69",
"'. c #C6515B",
"]. c #FB4F4E",
"[. c #C97C50",
"{. c #FD645D",
"}. c #F95B65",
"|. c #D0736F",
" X c #FE7B79",
".X c #308730",
"XX c #469036",
"oX c #4CA834",
"OX c #649C5F",
"+X c #66F974",
"@X c #898578",
"#X c #D08A56",
"$X c #E88B58",
"%X c #D68D68",
"&X c #E88F6E",
"*X c #ECA672",
"=X c #020285",
"-X c #070487",
";X c #01028B",
":X c #020193",
">X c #01029B",
",X c #05059A",
"<X c #140199",
"1X c #0101A3",
"2X c #0607A7",
"3X c #0002AC",
"4X c #1600AE",
"5X c #0101B4",
"6X c #0606B6",
"7X c #0202BA",
"8X c #777683",
"9X c #0101C3",
"0X c #0305C9",
"qX c #1101CE",
"wX c #0200D6",
"eX c #0303D9",
"rX c #0101E4",
"tX c #0101EC",
"yX c #000AEA",
"uX c #0303FB",
"iX c #0405F9",
"pX c #1818FD",
"aX c #393DF6",
"sX c #857D85",
"dX c #D57287",
"fX c #FF778A",
"gX c #6F8487",
"hX c #7B8285",
"jX c #858786",
"kX c #938E8C",
"lX c #848A93",
"zX c #889494",
"xX c #959496",
"cX c #A59191",
"vX c #AAA395",
"bX c #A3A29D",
"nX c #9593A8",
"mX c #98A9A3",
"MX c #ADAEB2",
"NX c #DDA38F",
"BX c #B4C0BE",
"VX c #D3C0B9",
"CX c #A6B1C5",
"ZX c #CABBCF",
"AX c #BAC6C9",
"SX c #D9DAD6",
/* pixels */
"                                                                                                                                ",
"                                                                                                                                ",
"                                                                                                                                ",
"                                           .                                                                                    ",
"                                        +.o.                                            |                                       ",
"                                        %.-.                                            o.                                      ",
"                      ..@.              sXxX                                            hX%.                                    ",
"                    . } #.            . cXMX=.                                        -.kX$.                                    ",
"                       .%.*.            jXMXsX                                        _.kX$.                                    ",
"                      | ..).&.          jXbXxX).                                    =.nX@XO.                                    ",
"                        O.} 8X-.        $.sXcXcXgX_.5.2.2.w.c.Z.C.B.l.r.r.1.;.  -.OXxXkX$.}         nX@. .O.                    ",
"                        } G $.kX*.      o.sXlX3.8.2.8.w.q.Z.S.8.N.M.w.c.c.9.9.k.6.1.2.zX@.{       lXjX%.} G                     ",
"                        { } ..8XzX*.    X.a ;.3.e.t.8.x.N.V.e.v.].N.l.k.u.B.q.9.z.u.8.<.#.V     -.zX&.O.6 V                     ",
"                          V { ).lXbX@X  i p u w.c.x.w.l.v.v.l.!.}.G.v.t.e.c.w.k.e.m.:.1.a (   kXmX=.| v }                       ",
"                            z } $._.nXMXBXVXcX*.Z.Z.9.u.N.w.l.E.}.].C.N.q.v.e.l.S.C.&.zXMXMXvXmX8X| 5 v                         ",
"                          X ( { ..*.sXnXAXSXZXZXOXC.u.k.C.r.V.N.J.S.B.l.l.N.8.N.{.=.ZXVXVXmXxXhX%.6 6 c.                        ",
"                            k.6 } | $.=.mXVXSXBX-.V.8.8.S.Z.k.k.Z.N.e.c.Z.D.w.N. XsXAXSXbXkX8X*.| 6 w.l.      bXkXX             ",
"            O.$.jXhX      k.z.5 { v ..$._.xXMXMXOXB.q.z.l.Z.c.9.N.k.e.c.Z.c.9.l. X).CXMX-.%...O.D n.l.w.r.    xXgX              ",
"                #...lXzXMXxXsXv.q.( 6 v  .X.%.-.e.N.e.3.r.9.A.l.l.w.M.Z.k.Z.t.l.b.r.=.-.| l.q.i p B. .hXcXkXO.| }               ",
"                  O.O.X.hXmXkX*.B.3.q.6  . .} n.b.k.x.v.t.k.v.B.e.w.B.x.N.c.l.q.l.c.t.X.e 1.( u ;.X.jXcX*. . .                  ",
"                      | @.&.hXo.B.>.8.0.0.x.m.l.w.3.V.A.B.9.:.A.r.w.v.8.v.k.w.8.2.w.k.b.w.2.r r w a =.jX6 6 |                   ",
"                    e.w./ { .. .b.z.w.6.:.r.e.2.9.e.v.C.N.m.9.m.w.b.x.t.z.9.w.0.w.q.1.:.w.8 8 5.0 k.#.( :.0.t.                  ",
"                  q.w.C.r.l.N.V.v.k.8.;.e 1.2.w.k.e.N.B.c.l.w.t x.w.:.8.r.v.V.C.c.v.v.e.>.q t 8 9 _ w.aXk.e.D.8.                ",
"                  w.9.z.9.w.1.6.0.9.r 0 l ;.,.>.e.x.Z.B.c.Z.b.r i i u 2.8.r.A.B.b.t.w.s 0 y t pXT.P L.z D.N.l.y.y.              ",
"                  w.y.8.i k.0.2.9.1.0 e s 5.a k t.k.Z.N.V.z.8.1.a i 2.8.2.t.y.N.x.0.6.7.0Xk t ) (.P.#XY.r.r.4.,.k.              ",
"                6.k.N.8.,.0.x.:.Z.N.u t s d d y 7.3.C.Z.N.z.9.k.r ;.>.0.k.N.<.l.0.a ;X; ; P (.I.(.P I.#X,.u 3.k.8.1.            ",
"                p.e 3.>.8.b.2.8.,.'.5.s.d ; > < H i 9.q s.N.0.0.1.1.Z.b.k.S.8 9 q &X#XU o h Y #XNXR.;.0 g.e l i t k i           ",
"                r e e e 3.3.r a s.d s.d b P.P.f.h $ 7 f L s.q <.1.<.N.d.r.b.2 dX, g *X[.P F Z I.$X#X>X>.U.e ;.9 r 9 :.          ",
"              k.:.t e e ^.r y U.s.d.h.U.a O > : , f f , (.i.k.t.<.k.r.t.q e # f : h <X*X(.K ' q g 7.f.] i.e u t u w 2.          ",
"              N.m.p d s.d.f.'.j.|.h J K   X X   .   O H b J o.T x.9.x.N.2 < 1 h H h g   $ J H =Xz   Q.d u q 9 8 i c.V.          ",
"            t.n.e.;.p e 7.a.d U.U z j I.NX$XY.J , o `.o.o.D H i.1.7.s.w pX= * - J ..D Y H 5 U ; > P.P.d.d.d.s u r 2.x.8.        ",
"            9.w.9.u i ,.e y s i.& F L &X$XR.Y j : I T H z 9 /.:Xt 8 9 :X;X&X- * j Y P I , B pX-XP.% : > h P w i <.;.p :.        ",
"            k 9 t ;.p r # % $...- F $X(.[.P.; T.D #XA [.NX3Xt . . X >XT.*X#X+ z , * & ~ o.S o.o.7.  X X ; P * t ;.2.a 9         ",
"            :.6.2.r r 9 7 4 [ + * J (.L.[.P I.%X..@XT.$X^.i.,X# b + . *X#XJ ; g h ^.g E I < h g [..   . j [.j * 9 u 9.;.        ",
"            0.k.r.l.w.7 2.# u.+   ..I.$ R.L.T j E F j ^.|.W.7 . j F > R.S & < G G ).Y   J F H < o ).%XF h.y 0 9.,.z.e.2.        ",
"            <.2.t.0.w.9.i.) t.. . L T.: (.L.$ 4 = c h , ^.s.8 @ o : c S j x T 5 Y Y G I g z g  .h.8 &XT.8X* p 3.c.z.8.          ",
"              8.w.D.e.t.V._ rX.   T T.$ (.K . X     h z F h.g.j.h.^.~.~.h.g.S B J b h ! 2XL.U 2 Q 7 /.e X.0   7 t.9.c.          ",
"              k.8.N.c.F.F.w.V.+   j Y.. T.K   @ . . a y j.d.j.h.U.'.'./.'.U.i.~ X.} 0 j >.=XW 4 # i u u 8.i 8 p e.9.q.          ",
"                r.2.:.2.eXuXz., & > K.(., : . g . . & 8 8 e d d.|.|.1.1.^.;Xs.].c.kXu _ W >XrX6X6X5Xw.1.8.2.w.H.3.              ",
"                c.9.:.d -X3.N.[.#X(.~.K .   . . 5 o 5   X O 4.m t 0 1X9.qXO.tXtX!.m.N.uX;XrXtXwXeXeXt.t.e.y.>.1.k.              ",
"                  1.s s.;Xk.D.A b L b h X . X O * n .   : & g h.l.e 5X;X0XQ  XfXyXZ.C.eXC.yXeXuXeX-X,Xk.0.2.v.w.9.              ",
"                . h.5X0.;X=X0.> ; & > ; + & X * - o 5 8 & Y T 9 9.r uXiX0Xl.uX{.J.uX!.uXuX!.uXtXuX6X_ i N.l.t.2.8.              ",
"                  U.Q.h.>.,.i 1 3 X 2 @ 2 @ = C o = - . 7 7 5X1.i uXr 2XD.,XJ.{.{.fXE.rXyX9X5X2X' qX=X:.i 8.i ;.8.6X            ",
"          2X      ,.l d.;X2.r.2 1 5X2 @ 2 = M * o M ; # 9 e qX0 1XiXyXiXz.!.uXiX{.fX!.uXyXc.0X3X_ 3X:X,Xj.2.3.p 3.p             ",
"              >X  7X1Xf.<.' 9X7X@ 1 2 @ 1 = M 4 B = # 9 _ 0X_ N.>Xl.b.:X7XH.v.rXG.tX{.uXeXw.2.;X] :X:X^ g.2.;.e                 ",
"      9X        3X  ;.f._ b.rX) @ @ 2 1 1 M m = XX& .   6X! tXwX>X-Xq.k.3XJ.G.>XF.z.V.iX2Xq.:.=X1XrXb.0X2.u 9.,.6X  6X5X        ",
"          3X1X  :X>X1X:X  9Xe.-Xr.=Xr 8.M .XC C m . W 1X1.~ r.;.7X,.2.8.e Z.2.w.r.x.r.n.6X0Xu ' :X1X4Xk.;.9X8.  3X              ",
"            1X    >X    >X7X1X' B.n.1XR oXOXoXXXC = ) ^ c.0.r.0.8.7X,X2.8.1.u 5.q.1.5.k.1X1.w e ' rXw.;.1X3.,X3X                ",
"        ,X  2X  -X,X2X2X2X  ' tX0XrXm XX+Xn M oXXXB 3 Q ! v.p >.1.2.<.;.z.A.r :.9.<.r.V.3X2Xt.9 ~ ) ^ 7X3X>X1X3X                ",
"          ,X  -X2X6X:X` 5X:X' Q 7XeXm C n & N OX.Xn v.c.S.~ Z.>.;.2.:.p 1.0.i ;.z.1.w.2.>X0.C.2.~ ! ,X<X6X:X,X>X      7X        ",
"            :X,X  >X  qX>X;X' ` ~ 3 N 4 = - - ; N + 2.p u e   ,.r u 3.9 :.;.C.w.:.i u ,.Q W ^ ! >X7X:X6X    >X7X:X              ",
"        . _             >X>X2X] ` ' m n * * + - o n ;.9 8 e 9 e ;.<.r ;.t 3.! Q ) W W ! ) ;X;X=X4X1X5X3X;X        6X7X          ",
"                  :X      =X  3X6X2X  - - & - o * ! W Q ^ ~ ^ ! ! ! W ! ) ) W ) ) 2X:X5X6X>X6X7X3X3X7X7X    7X6X5X6X>X          ",
"                      1X          >X  7XO & o       ^   ~ Q   !       ! Q ^ eXqXwXqX:X5XeXeX3X6X3X  >X,X7X  2X  6X              ",
"                  1X            3X                ~             ! W               0X        9X        5X                        ",
"                                3X                      !               )                                                       ",
"                                                                                                                                ",
"                                                                                                                                ",
"                                                                                                                                ",
"                                                                                                                                ",
"                                                                                                                                ",
"                                                                                                                                ",
"                                                                                                                                ",
"                                                                                                                                "
};
