/* XPM */
static char *_fbffd4d5c204061f30334cceb1a28a9plQhe1tLmq1Is65L[] = {
/* columns rows colors chars-per-pixel */
"64 64 244 2 ",
"   c #000000",
".  c #00060F",
"X  c #031704",
"o  c #040516",
"O  c #01021B",
"+  c #151713",
"@  c #3A0304",
"#  c #162306",
"$  c #103011",
"%  c #302F0F",
"&  c #373919",
"*  c #010123",
"=  c #02022C",
"-  c #0A032B",
";  c #10002E",
":  c #030333",
">  c #2C1525",
",  c #32322F",
"<  c #3A362A",
"1  c #470507",
"2  c #4B0001",
"3  c #4E0B09",
"4  c #540101",
"5  c #5C0201",
"6  c #5B0707",
"7  c #570614",
"8  c #640201",
"9  c #6C0201",
"0  c #670805",
"q  c #6B020B",
"w  c #740101",
"e  c #7D0201",
"r  c #760907",
"t  c #7C030C",
"y  c #6B120B",
"u  c #78160A",
"i  c #680814",
"p  c #790615",
"a  c #6B1513",
"s  c #771815",
"d  c #4C2F15",
"f  c #473519",
"g  c #702C10",
"h  c #5E0926",
"j  c #761323",
"k  c #4D2E29",
"l  c #463726",
"z  c #57352B",
"x  c #453B37",
"c  c #772226",
"v  c #673735",
"b  c #2D4B14",
"n  c #235218",
"m  c #324D2F",
"M  c #286523",
"N  c #39742C",
"B  c #4A4514",
"V  c #594828",
"C  c #444238",
"Z  c #544932",
"A  c #654932",
"S  c #655436",
"D  c #725531",
"F  c #52642C",
"G  c #736632",
"H  c #04014C",
"J  c #020258",
"K  c #3A3946",
"L  c #040268",
"P  c #020173",
"I  c #01027C",
"U  c #08067A",
"Y  c #15037B",
"T  c #42334A",
"R  c #39484B",
"E  c #3D514F",
"W  c #484848",
"Q  c #564B47",
"!  c #56574A",
"~  c #4F4F51",
"^  c #4B5957",
"/  c #595858",
"(  c #6E5848",
")  c #655A54",
"_  c #4C6359",
"`  c #59675A",
"'  c #6D6C54",
"]  c #686359",
"[  c #5C4F61",
"{  c #575A63",
"}  c #685966",
"|  c #4D6661",
" . c #5A6865",
".. c #686666",
"X. c #746667",
"o. c #687268",
"O. c #77776D",
"+. c #686A73",
"@. c #746B74",
"#. c #6C7677",
"$. c #777576",
"%. c #840101",
"&. c #8B0101",
"*. c #8A0806",
"=. c #83020A",
"-. c #930201",
";. c #9B0201",
":. c #990607",
">. c #870215",
",. c #950314",
"<. c #84191B",
"1. c #A40201",
"2. c #AB0101",
"3. c #A90B03",
"4. c #A40209",
"5. c #AC010C",
"6. c #B30102",
"7. c #BB0102",
"8. c #B60A02",
"9. c #B4020B",
"0. c #BB020B",
"q. c #AA1002",
"w. c #A70214",
"e. c #B80413",
"r. c #86211B",
"t. c #91291E",
"y. c #871B24",
"u. c #941526",
"i. c #882827",
"p. c #94282B",
"a. c #8C2834",
"s. c #923433",
"d. c #AA2B30",
"f. c #A53836",
"g. c #C30101",
"h. c #C50704",
"j. c #CC0102",
"k. c #CB010B",
"l. c #D30102",
"z. c #DC0102",
"x. c #DB0507",
"c. c #D3020B",
"v. c #C90213",
"b. c #D80313",
"n. c #CC1011",
"m. c #E40102",
"M. c #EB0101",
"N. c #E9040B",
"B. c #F40101",
"V. c #FC0102",
"C. c #F90508",
"Z. c #E60212",
"A. c #F80216",
"S. c #FD1A17",
"D. c #FF231D",
"F. c #FB1925",
"G. c #FE2526",
"H. c #F5352B",
"J. c #FE3937",
"K. c #B34200",
"L. c #934A3B",
"P. c #A44939",
"I. c #876735",
"U. c #FB4139",
"Y. c #9D3C43",
"T. c #AC3647",
"R. c #FC3C49",
"E. c #A64546",
"W. c #B64A49",
"Q. c #B24F4E",
"!. c #BA5757",
"~. c #896A4C",
"^. c #826979",
"/. c #86797C",
"(. c #C75955",
"). c #FB4A51",
"_. c #D26A58",
"`. c #FD6557",
"'. c #FC5862",
"]. c #D27071",
"[. c #FB6D70",
"{. c #388E2E",
"}. c #489835",
"|. c #538644",
" X c #56B849",
".X c #77827C",
"XX c #5BC657",
"oX c #64C352",
"OX c #6FF35F",
"+X c #8E8474",
"@X c #A58F7F",
"#X c #FC8678",
"$X c #010384",
"%X c #01018C",
"&X c #080488",
"*X c #010294",
"=X c #01029B",
"-X c #090499",
";X c #110290",
":X c #0101A4",
">X c #0903A6",
",X c #0102AB",
"<X c #1400A7",
"1X c #0202B5",
"2X c #0503BA",
"3X c #727485",
"4X c #777986",
"5X c #736CA2",
"6X c #0204C7",
"7X c #1200C8",
"8X c #0402D7",
"9X c #0302E6",
"0X c #0106F8",
"qX c #0102FC",
"wX c #1516F3",
"eX c #181AFD",
"rX c #2517FE",
"tX c #1721FC",
"yX c #3538FD",
"uX c #5255F8",
"iX c #6854F4",
"pX c #817E8B",
"aX c #D9798C",
"sX c #FF7D82",
"dX c #6F898B",
"fX c #7A8584",
"gX c #878888",
"hX c #879789",
"jX c #969788",
"kX c #8F8D95",
"lX c #979599",
"zX c #A69794",
"xX c #9BA49E",
"cX c #A8A398",
"vX c #B4A69D",
"bX c #9392A0",
"nX c #A395A5",
"mX c #ADADAC",
"MX c #E0A3A4",
"NX c #B5C7BD",
"BX c #C6C2B9",
"VX c #C4BCC6",
"CX c #CEC9CE",
"ZX c #DDD7DB",
/* pixels */
"                                                                                                                                ",
"                                                                                                                ..              ",
"                                                                                                                                ",
"                                          }                                                               @.                    ",
"                                        ^ #.                                            {                   ^                   ",
"                                        @.O.                                            o.                ^                     ",
"                      ` /               pXlX                                            fXX.              ~ +.                  ",
"                      _ `               jXmX.X                                        @.xX..                kX .                ",
"                      / ..^.            gXmX4X                                        gXjX]                 kX                  ",
"                      ! ..+.@.          gXcXbX.X                                    O.hXgX/           $.$. .fX                  ",
"                        / ^ O.@.        @./.zXbX.X/.w 1.;.5.l.V.C.N.h.7.2.2.t   dX+XjXbX} x         hX .! /                     ",
"                        W Q ..gX#.      ) /.gX3.-.1.5.3.g.V.Z.6.z.h.6.j.l.6.1.2.,.;.-.hXX.Z       bX/.+.{ x                     ",
"                        x ~ ^ gXhX@.    ^ t e :.q.j.1.k.x.M.j.g.H.M.c.g.e.b.2.8.7.6.;.&.{ ,     +.hX3XQ x W                     ",
"                          W C O.gXxXdX. =.e e w.j.g.7.j.m.j.h.J.[.S.j.j.3.M.5.j.z.0.-.e r K   hXvX@.) m W             .   5X    ",
"                            C W X.+XlXcXmXBXjX#.V.C.7.8.V.6.n.H.`.J.C.z.6.z.2.Z.B.B.$.@XBXxXcXkX$.~ , K                .gX!     ",
"                            , ~ ! ' pXjXCXZXNXCX^.V.;.g.b.7.c.N.J.A.z.m.l.V.2.B.`.#.BXCXCXcXlXfXo.x < c.              !   ]     ",
"                            7., E / +.4XmXBXZXBXfXj.1.;.V.V.k.j.V.l.8.z.C.V.*.z.sXpXVXZXcXlXO.^._ < e.8.      vXkX        /     ",
"            ! o.gXfX      7.0.< K W | X.4XlXmXmXO.M.1.9.M.C.z.7.M.g.7.l.V.j.2.m.[.+.NXmX#.} / / R j.7.7.j.    +X$.  gX~ kX      ",
"                / ] dXlXvXlXgXg.5.< x R ^ X.#.#.8.M.6.;.g.1.V.c.g.7.j.C.7.C.g.8.B.6.4XO.~ v.5.e =.Z.] .XjXlX` { )     E         ",
"                  ! } ] kXlXjX` C.1.0., Q ! / h.l.e.l.M.9.g.l.m.9.8.B.j.N.h.k.1.0.b.j.{ 5 -.< w =...gXdX3X! Q                   ",
"                      Q /  .+X] A.e -.4.6.j.k.j.6.5.M.M.Z.7.:.B.6.6.V.&.z.g.9.&.2.5.g.h.7.4.5 9 3 4 $.4XK R W                   ",
"                    g.e.K ! [ ^ c.z.9.*.&.7.7.;.;.8.l.M.m.h.7.h.6.l.z.0.l.:.6.w.7.6.4.%.8.6 q 8 5 h.X.x e q.g.                  ",
"                  3.2.M.7.c.m.N.z.6.3.w 8 &.:.7.h.g.M.B.j.x.g.5 k.7.%.1.7.z.Z.n.M.l.j.j.%.3 5 6 0 P q.yXj.v.M.;.                ",
"                  2.2.z.4.3.;.-.g.2.8 6 c r e %.g.h.M.M.z.V.c.9 w y e 2.:.9.M.N.Z.g.2.j 6 7 i wX%.7X&.%.m.M.v.w.j.              ",
"                  6.e.2.8 k.h.*.1.4.7 w y <.y s e.0.C.B.l.7.1.4.&.e &.*.3.j.:.B.g.7.t s 8X,.7 P 0 yXe.%.e.6.-.;.6.              ",
"                w.e.M.:.=.-.j.&.B.z.w 8 r <.p a s w.B.C.M.j.1.c.e &.-.5.7.m.:.g.1.t *Xa j o eXiXeX=.I =.=.w %.6.:.;.            ",
"                g 9 %.*.2.v.;.6.w !.<.y.s <.a z o 0 g.5 y.x.g.2.&.2.C.Z.j.B.2 1 p - = p 2XuXyX3 8 2.&.5 T.7 0 w 9 g w           ",
"                %.5 w w &.-.w %.i.a u.<.<.<.* O & - 1 & . a.6 e &.>.M.g 9.z.O O f % * * yXuXyX;X4 &.$X-.Q.8 *.q 0 5 1.          ",
"              0.-.4 5 8 (.w 8 Q.t.f.s.P.a c a p f % d < * <.l.2.e j.9.b.q y 6 B % d -X. -X* I 2 7 s Y.>Xr.8 8 4 w 1 1.          ",
"              c.j.r.s c y.i.(.p.].Q.i.L.y.j k = o - O A v V ( I.l.9.g.z.O $ : & Z k l o * A S P s s.f.s 0 8 4 1 w b.z.          ",
"            7.v.j.%.9 8 s <.i.f.s.E.!.s.T.c c ; & O +X~.G V l i.>.g : 6 rX$ # $ z D V S V m O tXu.p.rXc s.i.u 8 8 2.Z.          ",
"            6.g.-.e %.r 5 y 8 p.c Q.P.#Xp.MXP.; * A I.V V 2 N n 4 2 3 =X-Xo $ # B S D S < , rX&Xs s u t.r.0 3 %.:.0 t >.        ",
"            6.5.4.e 5.&.8 q y r i.W.f.!.].].aX_.- ( v d s.F a c wX*.y i.b : d # k l S ~.& $ % $ $XtXc p.r.7 e %.9 *.,.7.        ",
"            e 2.-.=.2.-.8 a a s <.s.p.s.].MX_.* W.~.l }.N b a.}.. &X* I J ,Xb # # d z D ' m $ > U u r.rXy a $.d q 8.q %.        ",
"            g 8 6 ,.e 0 2 > } ` 3XQ r.d.T.(.].O A +XN M M  X{.O Q.J 1XC U 9X+ d l X $ J G D ~.I.i.a * i X.jX+ 4 r -.e 9         ",
"            %.&.-.=.0 4 3 X W lXzXp mXi [ t.O : I.N  XXX}. XXXN eXtXQ.&X6X6X= d d (.d I.S d % % a 0 7 ) p.& ^ > 5 8 2.e         ",
"            :.1.6.0.t >.0 3 j. .4XdX! dX<.(.O Z n }.oX X X X|.b $XE.W.aX1X2X< b E.f ' ~.* : H = ! xXnXo., . 1 t i &.-.1.        ",
"            ;.6.6.j.3.2 :.2 8.7.` O.< O.) y o : b N OXn $  X{.n O >XQ.T.(.6X& C b ~.D * Z >XB B : ^.E 4 1 6 8 h.w j.j.-.        ",
"              -.7.F.2.5.m.h M.*X8 4.H % 4.W.(.O X b N N m N n n =X*X!.d._.9Xu.m S = L 8X9X9X9X2X1XW C w ) q   3 j.,.c.          ",
"              h.:.x.j.D.F.6.z.m.2.e 8.,.V * = 2.# # M {.{.M % b * s.<.].Y.f.g H ( P ,XeXuXyXrX*XP e q e -.r @ 0 j.-.4.          ",
"              K.-.2.A.7.j.l.N.&Xi w w $XO Z o * l X + X X X + g.].i.< i.:Xi.p.<X_ 1X2X,XwXrX-.1X=X2.;.&.>.&.j.;.;.-.K.          ",
"                j.w.-.;.x.S.6.S.j.7.&X-.z f l B O l X X X 3 w w *.r.w.&.= &Xa.J.M.:X%X>XeX0Xh.0.4.2.5.*.-.;.7.G.r %.            ",
"                  &.u s.%.7.m.8.j.,X1 A :Xz k k O O o >X*X-X=.6.k.7 *X*X6XH [.#X'.,XM.m.8X8Xl.8.x.1.e g.2.-.k.8.4.              ",
"                  d.2X4.4.=.1.j.6X@ tXG ,X,Xb 1X-X:XI @ 1 w %.3 3.e 0X0X6Xj.[.[.U.B.).U.1X:XR.x.z.=X=.%.M.z.w.;.6.              ",
"                  P.T.&.0 e &.&.:.Y 0XI.l ,X2X>X6X*X%X%X@ 4 =.z.2 0X=XF.M.'.`.[.'.U.R.H.,X=XG.j.G.S.u w h.g.-.;.;.              ",
"                  Y.d.P.,.%.t @ U =X8XeX8XeXqX8X6X6X=X<X1X0X=X:.9 qX0 =XG.-XR.'.'.#XJ.N.1X&Xg.5.w k.e %.8 ;.e =.;.              ",
"                  6   f.%.$X:X1X;.rX7.$X>XqXyXyXyXwX8X1 P 6Xw A.<X8.z.%X2XS.z.l.G.G.`.U.-X$Xq.r w d.s.9 a.w.p 5 ,.              ",
"                  7.e f.%.l.j.r ;.h.w I =X%X2X9XqXqX6X,X;XH 6X2X=X,X0.g.=XR.D.=XF.7.A.`.%XL e a.d.m.j.x.-.w 7.>.                ",
"                    ,.g.p j.t 7.8.N.4 8 9X<X2XU 8X9XI -XL 6 ,Xp -.3.2.5.5.&XB.6.j.j.g.M.-XL &.u.j.c.j.j.c.:.8                   ",
"                      xXj.x.7.:.6.P q 2.:X%X%X$X6X2X=X-X=XH 7.t 1X*.-.4.8 N.2.8.6.h.j.j.:XP =X7.B.2.ZXxX6.;.                    ",
"                          o.gXA.7.M.2.N.$X=X:X%.-X%X,X%XH c.%.-.:.-.*.&.j.V.8 -.7.,.7.Z.*XJ =X2.C.~ ) $.O.                      ",
"                          ^.) W h.V.5.j.%X$X*.w ,X*Xw 4 *X:XV.0.v.e 1.,.>.j.w -.1.;.8.;.>XL >X6.m.Q | /.+.                      ",
"                        @.] ..x h.6.&.;.>X%X%X1 >XI 6.7.2 1 B.-.0.:.e 1.-.*.,.8.j.8 -.&.:XL -X*.6.< ~ +.]                       ",
"                        4X .}   2 8 8 v.*X$Xe *X%X;XM.0.C.J   r w 4.%.9 >.&.C.7.p %.q *.%XL ,Xq q   T  .W                       ",
"                                    k.g.%X=X*Xl.$XU ;.e 9 t   ,.i 8 :.1 4 w   w     h.8 :XL =X                                  ",
"                                        :X  -Xw 1XP q 8 i 9 2 w     w t %.2 %.7.k.g.%.8 *XL *X                                  ",
"                                        P   =X  =XU 5 5     q 6       e 4 i 5 5 7 0 ;.  -XU :X                                  ",
"                                            ,X  =X$X                                    %XU >X                                  ",
"                                            =X  -X%X                                    -XP                                     ",
"                                                *XI                                     =XP                                     ",
"                                                >X%X                                    *XP                                     ",
"                                            %X  ;XI                                     $XL                                     ",
"                                                                                                                                ",
"                                                                                                                                "
};
