/* XPM */
static char *_c5c295e9a7742338ed1f8cf7fee91c6fPLQZAVSh4NmhWUK[] = {
/* columns rows colors chars-per-pixel */
"64 64 244 2 ",
"   c black",
".  c #060908",
"X  c #0E090B",
"o  c #0A1C04",
"O  c #131D09",
"+  c #3C0202",
"@  c #380707",
"#  c #341A08",
"$  c #221117",
"%  c #182607",
"&  c #13310B",
"*  c #0C2517",
"=  c #1C281B",
"-  c #35230B",
";  c #24350A",
":  c #292B14",
">  c #2F2F14",
",  c #0D0827",
"<  c #030238",
"1  c #2B3F2A",
"2  c #3C3821",
"3  c #430202",
"4  c #4C0101",
"5  c #4A0606",
"6  c #530300",
"7  c #5C0201",
"8  c #52020B",
"9  c #590708",
"0  c #4A1300",
"q  c #450213",
"w  c #540212",
"e  c #640102",
"r  c #6B0201",
"t  c #680907",
"y  c #64020B",
"u  c #730101",
"i  c #7C0102",
"p  c #740B03",
"a  c #74060B",
"s  c #7D010A",
"d  c #661206",
"f  c #6F120C",
"g  c #760714",
"h  c #6B1715",
"j  c #791616",
"k  c #42300C",
"l  c #482A15",
"z  c #463519",
"x  c #5C3C1B",
"c  c #732712",
"v  c #663D17",
"b  c #492D27",
"n  c #4A3629",
"m  c #58392B",
"M  c #703725",
"N  c #194611",
"B  c #304913",
"V  c #2B5219",
"C  c #2A5625",
"Z  c #2D6923",
"A  c #594719",
"S  c #6D4B1B",
"D  c #594826",
"F  c #554337",
"G  c #4D5438",
"H  c #654827",
"J  c #74542A",
"K  c #704534",
"L  c #7B5439",
"P  c #477C3A",
"I  c #060448",
"U  c #00014C",
"Y  c #010353",
"T  c #060556",
"R  c #01025C",
"E  c #0B015C",
"W  c #100058",
"Q  c #373F40",
"!  c #020164",
"~  c #01026C",
"^  c #080368",
"/  c #030273",
"(  c #050578",
")  c #01037D",
"_  c #100377",
"`  c #45394D",
"'  c #494848",
"]  c #435346",
"[  c #53594B",
"{  c #544D50",
"}  c #58585A",
"|  c #655857",
" . c #59695B",
".. c #666B5A",
"X. c #726552",
"o. c #585A66",
"O. c #645B67",
"+. c #6C5C6B",
"@. c #596766",
"#. c #69696B",
"$. c #736C68",
"%. c #7A7669",
"&. c #666977",
"*. c #746777",
"=. c #667876",
"-. c #787877",
";. c #830202",
":. c #8B0102",
">. c #850905",
",. c #8D020A",
"<. c #930201",
"1. c #960705",
"2. c #9C0201",
"3. c #9C010A",
"4. c #831509",
"5. c #880212",
"6. c #940112",
"7. c #9C0414",
"8. c #8C1C1B",
"9. c #A20102",
"0. c #AB0201",
"q. c #A80807",
"w. c #AB010A",
"e. c #B40101",
"r. c #BB0201",
"t. c #BA0706",
"y. c #B5020B",
"u. c #BD1302",
"i. c #A70112",
"p. c #B40212",
"a. c #95241C",
"s. c #8A1E26",
"d. c #892627",
"f. c #922E2D",
"g. c #A22F30",
"h. c #C40102",
"j. c #CC0101",
"k. c #CA0507",
"l. c #D30101",
"z. c #DC0101",
"x. c #D40900",
"c. c #D4010C",
"v. c #DB020B",
"b. c #C60215",
"n. c #DA0413",
"m. c #E30201",
"M. c #E90206",
"N. c #F30101",
"B. c #FE0103",
"V. c #FD010E",
"C. c #FF0113",
"Z. c #FF1C1E",
"A. c #F92126",
"S. c #F3282E",
"D. c #FD393A",
"F. c #86532A",
"G. c #854F33",
"H. c #945C37",
"J. c #AB5C3E",
"K. c #976637",
"L. c #916B38",
"P. c #A46437",
"I. c #A9773A",
"U. c #FF3945",
"Y. c #8D5442",
"T. c #B44A4B",
"R. c #926C4C",
"E. c #AE6F4E",
"W. c #AA7345",
"Q. c #847B6C",
"!. c #857B7B",
"~. c #A67F7A",
"^. c #F45A56",
"/. c #DA6550",
"(. c #FF5D64",
"). c #CF7571",
"_. c #388E36",
"`. c #428D30",
"'. c #61983D",
"]. c #4C9B4A",
"[. c #4DA943",
"{. c #74827C",
"}. c #5FDA62",
"|. c #97835C",
" X c #84837D",
".X c #A1816C",
"XX c #CC844B",
"oX c #E19153",
"OX c #D28D62",
"+X c #ED8D6D",
"@X c #EDAA70",
"#X c #010283",
"$X c #080486",
"%X c #02038C",
"&X c #17068A",
"*X c #010195",
"=X c #01039C",
"-X c #0B029C",
";X c #010B98",
":X c #130193",
">X c #0102A3",
",X c #0805A7",
"<X c #0102AC",
"1X c #010AAD",
"2X c #0101B3",
"3X c #0903B6",
"4X c #0201BC",
"5X c #1700BE",
"6X c #767585",
"7X c #6E69A3",
"8X c #0103C4",
"9X c #0202CA",
"0X c #0903CA",
"qX c #1102CF",
"wX c #0101D4",
"eX c #0503D9",
"rX c #0202E5",
"tX c #0504EA",
"yX c #0406F8",
"uX c #0303FE",
"iX c #1712F0",
"pX c #221AFD",
"aX c #1521FB",
"sX c #3539F9",
"dX c #4636F9",
"fX c #5155FB",
"gX c #8A7991",
"hX c #7A8588",
"jX c #848485",
"kX c #8D8B92",
"lX c #899795",
"zX c #96969A",
"xX c #A79497",
"cX c #9AA499",
"vX c #A99DA6",
"bX c #9DA5AF",
"nX c #A7AAA6",
"mX c #B0ABB1",
"MX c #F8A981",
"NX c #C8BCB6",
"BX c #BFC2B1",
"VX c #BDCCC5",
"CX c #DBD0D4",
"ZX c #D8DBE4",
/* pixels */
"                                                                                                                                ",
"                                                                                                                                ",
"                                                                                                                                ",
"                                                                                                                                ",
"                                                                                                                                ",
"                                                                                                                                ",
"                                                                                                                                ",
"                                                                                                                                ",
"                                                                                                                                ",
"                                                                                                                                ",
"                                *.6X                                                                                            ",
"                                $.-.                                                                                            ",
"                                 .-..                                                                                           ",
"                                @.-.                                                                                            ",
"                                o.$.|.kX        }                                                                               ",
"                                |  .hXhX      | #.                                                                              ",
"                                o.#.=. X      #. X                                                zXvXgX                        ",
"                                ' { *.hXlXjX=.=.jX                                            kXkXhXxXbXgX                      ",
"                                  ' { o.Q.lXnXxX6Xe.h.l.C.0.r.N.j.m.B.j.2.w.q.:.<.r.j.N.-.bXnXlXgXO.G ' Q                       ",
"                                  ' ` ] X. XvXnXZXBX6.z.r.D.t.9.M.e.r.y.r.e.,.;.e.h.m.6.ZXmXzX{.+.{ C '                         ",
"                        &.nX        ' ' &.&.%.mXVXCXy.m.0.v.c.2.k.n.2.h.r.0.2.r.z.N.q.NXNXnX X%.O.] G                           ",
"                        @.%.lX      2.{ &.$.#.{.zXnX0.B.h.0.<.>.c.M.e.N.z.0.0.l.z.N.q.mXzX6X#...&.m   .                         ",
"                          *. .cX-.#.z.7.` [ o.-.@.6Xc.e.9.c.z.Z.r.<.0.;.0.h.0.:.0.c.v. X#.$.}  .] 0.x.| %.cXzX7X                ",
"                             .!.lXhX@.N.r.j.G { O.[ q.0.1.e.r.x.9.a e t 9.j.e.;.<.0.h.4 } { ' e :.e.&.gXkX X#.                  ",
"                            [ +.jX!.+.m.2.i.h.h.h.z.1.r.j.v.j.e.i 6 9 e <.2.z.M.k.2.q.9 7 e 7 6 >.C.} {.jXO.|                   ",
"                              } G @.N.z.i 2.2.,.s :.0.j.N.B.B.l.q.i 6 u 3.c.t.N.N.h.h.p u e 7 r ;.k.7 ..{ { 1                   ",
"                          j.M.2.i e.h.j.y.8.s f d f q.0.h.t.r.j.e.:.,.x.z.2.t.1.l.q.t.<.4 g L.+X@XH.:.r 7 i h.v.                ",
"                        u.q.y.t.k.1.2.e.d.h e h a j >.:.9.0.0.0.j.0.7 6 2.z.;.i >.e.2.p q W.XXW.oX+XL.i >.2.9.m.h.              ",
"                        j.p.i 9.0.v.h.:.t t j j d.f.e i >.2.q.9.r.<.2 b y 4 4.i i a d 5 T.W.H.F.K /.XXL.;.:.,.e.M.e.            ",
"                      w.r.2.x.1.j.j.q.<.g h d.g.d.T.a.i e.M.D.S.y.p z n 2 4 j.r.3.f 6 4 I.G.n g.f.E.OXE.H.<.v.3.q.w.r.          ",
"                    s <.q.2.h.t.0.:.;.;.M 8.f h h 4 :.e.M.V.l.e.i l D J H n 3 3 9 q S K.n % $ = - H.F.D A + 6.i >.a :.2.        ",
"                  c t u :.7.e.>.<.i 9 j j g.j 9 # 2 r 3.i d e ,.t F n b + 2 z 4 3 3 b A U Y ^ ^ J H.H l e 6 n.e.i r e g         ",
"                  g y 7 p s :.r t r d.g.j j j Y.F.J 4 i @ 6 3 d.2 k ,.).s.8 8 Y >X7 r y W E ,XL P.x x 3 7 <.j.B.y.e + 7 3.      ",
"                  :.7 e w t r 9 d.T.f.f.T.j y : : # 2 b l z P.8.R %X:.:.<.T., d.U.M.9.1.8X4XsXfXfXY 4 @ d 0.b.M.A.e.9 i 9.      ",
"              h.j.l.0.r 6 r s.d.8.T.T.j # l E.MXW.x = O F .X~.L.;X>X7 =XsXsXU.(.+XuXB.N.yXm.0.rXsX8X$X#Xr 5.2.h.r.i.:.7.e.      ",
"          r.b.x.y.9X8X~ _ r h 8.f.T.h : G.OXMXW.z * A D |.R.L G 8 e.a uXuXaXpXuX^.U.uXD.N.tX6.uXeXuX9X%Xt r <.w.<.:.<.g e.      ",
"          v.v.rX>X2XI 4.i %Xa f j s.9 ; +XOXK.m 2 - D R.X.D D 4 6.7 yX*X;XaX^.(.yXuX2.0XD.uXyXtX3.<Xi.*X*X8X2Xp ;.;.0 r s       ",
"        l.h.( %X4XaX<X#XY ~ 4 d d 9 y l @XL.A > * * OXm x XX).;X<Xr dX7 :X2XuX2.(.^.uX>.m.rX8XeX4X%X8X-X) ( 2.! 4 8 9 1.i       ",
"      <.r ^ 9.0.yXpXpXpXfXfX! 6 5 # O l K.$ r & A OXoX4.3 %XeX! 8 >Xh.l.;XwX1.yXtXyXuX^.m.eXy.0.) i #Xr.wX;.! U ^ u *XrXyX2.;.6 ",
"      1.) s w.1X2XuXr.2.iX#XM.p.} . . : L 7 8 8 L W.E.2   >XT qXc.*X;Xr.j.-X-XT =XA.h.=X9X4X2.y.,.l.tXl./ *Xi ^ 5.y.wX! 5.#Xr a ",
"      #X~ ;.%Xh 2Xq.2.<XqXg u.y.q.;X, @ L 0 a r J K.I.z + R p 4Xz.i r.w.2.<.<.V.e.0XeXrX1Xx.t.9.s / R ;.3.p 6 Y ,.e.t.wX>.^ y <.",
"      ) U i 9.&X$Xp c >Xj -X9XtX) 3X#Xl H 7 6 y S P.J.R 2Xi.Y b.8X>X>.i.1.t <.2.q.q.t.R e y.0.i e $Xi a h.e q , t :.h.h.) Y t u ",
"      ( / < ~ ) ^ d 1X:Xj C C b.tX0XeX> Y.3 3 @ G.H.R.< U T c.:.2X2.,.6.:.r.8X5.u _ Y p s i / >.r 0 < R Y . , _ $X+ e 6 Y Y 5 5 ",
"    4X8X$X/ R Y / 1X3XN _.'.[._.Z 8XtX= K q + q A J.F.l.h.N.I C.<.5.2.;.! ;XwXi 1.T W 0.q.^ ;.<.e Y U I $X/ %X( ) :X5 + R ! q   ",
"  <X;X0X=X%X^ ~ E I N `.}.}.[.`.P V *XH.S E + @ z XXv ) 9X<.l.r r 5.:.9.p <.~ R I T T >.~ U y e w ^ %X#X_ =X*X*X>X,X%X=X4X*X    ",
"0X<X9X3X3X%X#X,X#X#XB ].}.}.[.`.Z V U +X~ 4X<X~ O K.> 9.( i ;.~ E 9 ^ ) w 7 :.R < < < 9 R 5 8 8 R %X-X;X<X4X2XwX0X<X,X9X4X      ",
"      1X*X,XV P _.8XN = > . o N % * / v K S H S K v X ^ ~ #X/ ! / 4 + 4 4 R ~ ! / :X) 2X1X4X2X2X8X9X<X1X1X,X1X:X*X*X%X          ",
"              V B V N = & N ; C % ; C B #X%X( %X#X;X=X~ ( ) ( #X=X=X>X>X*X=X<X,X<X2X4XeXwX2X9X4X4X=X,X=X1X:X#X                  ",
"                  V o X % : O o O % * V ;X,X>X=X) =X,X1X4X>X) *X            -X*X*X1X<X-X1X5X%X,X-X                              ",
"                                      O B B -X>X*X;X                              :X3X*X%X3X                                    ",
"                                                                                                                                ",
"                                                                                                                                ",
"                                                                                                                                ",
"                                                                                                                                ",
"                                                                                                                                ",
"                                                                                                                                ",
"                                                                                                                                ",
"                                                                                                                                ",
"                                                                                                                                ",
"                                                                                                                                ",
"                                                                                                                                ",
"                                                                                                                                ",
"                                                                                                                                ",
"                                                                                                                                "
};
