/* XPM */
static char *f5f438ee142042f4f7bcfc6bc53329fafvoJc3iox09jCv3g[] = {
/* columns rows colors chars-per-pixel */
"64 64 233 2 ",
"   c #000000",
".  c #090000",
"X  c #131B12",
"o  c #380304",
"O  c #20131C",
"+  c #30312E",
"@  c #373836",
"#  c #460404",
"$  c #4B0201",
"%  c #540403",
"&  c #5B0201",
"*  c #590809",
"=  c #5D1104",
"-  c #460413",
";  c #5A0813",
":  c #640202",
">  c #6B0201",
",  c #630A04",
"<  c #6B0902",
"1  c #64020B",
"2  c #6A070B",
"3  c #740101",
"4  c #7C0101",
"5  c #740A02",
"6  c #73020A",
"7  c #7C0209",
"8  c #750C0B",
"9  c #681308",
"0  c #761609",
"q  c #6A0714",
"w  c #780715",
"e  c #6C1817",
"r  c #721313",
"t  c #791816",
"y  c #7C1C1C",
"u  c #44351E",
"i  c #7D2704",
"p  c #722B09",
"a  c #7A251C",
"s  c #671422",
"d  c #7A1926",
"f  c #48362D",
"g  c #7A242A",
"h  c #364735",
"j  c #41452C",
"k  c #46453B",
"l  c #5A5B38",
"z  c #020249",
"x  c #0B0352",
"c  c #393B42",
"v  c #313850",
"b  c #020267",
"n  c #000378",
"m  c #453C49",
"M  c #394646",
"N  c #3E4E56",
"B  c #484745",
"V  c #544B46",
"C  c #485246",
"Z  c #585648",
"A  c #484C56",
"S  c #594A51",
"D  c #495755",
"F  c #585958",
"G  c #655549",
"H  c #665958",
"J  c #725E59",
"K  c #566D52",
"L  c #5B6158",
"P  c #6C645F",
"I  c #706F5D",
"U  c #4E5568",
"Y  c #585766",
"T  c #665B64",
"R  c #6B556D",
"E  c #596566",
"W  c #5E6575",
"Q  c #686766",
"!  c #776D69",
"~  c #67736C",
"^  c #77786D",
"/  c #6B6776",
"(  c #756A79",
")  c #677774",
"_  c #777779",
"`  c #830101",
"'  c #8B0102",
"]  c #880903",
"[  c #83010B",
"{  c #8C020A",
"}  c #940202",
"|  c #9C0102",
" . c #970A03",
".. c #93030B",
"X. c #9A030A",
"o. c #8A1305",
"O. c #870115",
"+. c #970017",
"@. c #821B1B",
"#. c #871918",
"$. c #94191A",
"%. c #A40101",
"&. c #AC0201",
"*. c #A60A04",
"=. c #AC0A01",
"-. c #A4010A",
";. c #AB020B",
":. c #B40101",
">. c #BC0201",
",. c #B40900",
"<. c #BD0A01",
"1. c #B4030A",
"2. c #BB000A",
"3. c #A70315",
"4. c #B60415",
"5. c #8C2811",
"6. c #862318",
"7. c #881A23",
"8. c #8C152A",
"9. c #892826",
"0. c #942728",
"q. c #942D2C",
"w. c #8A3429",
"e. c #96362C",
"r. c #8C2935",
"t. c #9B2A33",
"y. c #953433",
"u. c #9A3636",
"i. c #AA313B",
"p. c #A53A3B",
"a. c #C30101",
"s. c #CB0202",
"d. c #C30A02",
"f. c #CA0902",
"g. c #C4010B",
"h. c #CB030B",
"j. c #D40201",
"k. c #DC0102",
"l. c #D4020B",
"z. c #D80309",
"x. c #C70412",
"c. c #DB0215",
"v. c #E40202",
"b. c #EC0102",
"n. c #E4010A",
"m. c #EB060A",
"M. c #F30102",
"N. c #FC0203",
"B. c #F50608",
"V. c #FD010A",
"C. c #EC0515",
"Z. c #FE0D12",
"A. c #FE1717",
"S. c #FE1C1C",
"D. c #EF2E0F",
"F. c #F82218",
"G. c #D10022",
"H. c #FE1B28",
"J. c #FB2526",
"K. c #F72333",
"L. c #FC3A36",
"P. c #FD3C3C",
"I. c #B54D03",
"U. c #984439",
"Y. c #A9453E",
"T. c #FA413F",
"R. c #AB3B42",
"E. c #B03C48",
"W. c #FE3A49",
"Q. c #9A4944",
"!. c #A94746",
"~. c #B54949",
"^. c #AE554C",
"/. c #B3504D",
"(. c #BA5756",
"). c #857A67",
"_. c #897775",
"`. c #C25B5C",
"'. c #FE4245",
"]. c #C2605F",
"[. c #FC635A",
"{. c #C65C61",
"}. c #FF5C67",
"|. c #C86765",
" X c #D07271",
".X c #EE736F",
"XX c #7C827A",
"oX c #8E837A",
"OX c #D58B7E",
"+X c #040289",
"@X c #030297",
"#X c #0201B3",
"$X c #707081",
"%X c #767785",
"&X c #0105C8",
"*X c #0206D3",
"=X c #0203FC",
"-X c #100CF1",
";X c #2817FF",
":X c #1D24EF",
">X c #5D53FE",
",X c #847783",
"<X c #87768E",
"1X c #FD7783",
"2X c #7A8383",
"3X c #748489",
"4X c #85888A",
"5X c #928A89",
"6X c #8C968D",
"7X c #96968B",
"8X c #858A96",
"9X c #968D97",
"0X c #8A9695",
"qX c #979696",
"wX c #A9978E",
"eX c #98A395",
"rX c #AEA69B",
"tX c #9592A2",
"yX c #A49AA5",
"uX c #98AAAC",
"iX c #A6A8A7",
"pX c #B6AEB3",
"aX c #DE8583",
"sX c #E68485",
"dX c #F59297",
"fX c #C6B6B7",
"gX c #B9C3BA",
"hX c #BABCD1",
"jX c #CEBEC3",
"kX c #B9C2C5",
"lX c #CEC9CE",
"zX c #D6DAD5",
"xX c #D6E2E7",
/* pixels */
"                                                                                                                                ",
"                                                                                                                                ",
"                                                                                                                                ",
"                                          R                                                                                     ",
"                                        Y ~                                             W                                       ",
"                                        Q ^                                             I                                       ",
"                      F E               <XqX                                            oX/               T F                   ",
"                      Y Q               qXiX3X                                        ( qX~               ~ S                   ",
"                      Y Q /             5XpX).                                        ,X5XQ             Q Q A                   ",
"                      Z T _ _           2XiX0X_.                                    _.qXXXL           $XQ G k                   ",
"                        D G %X!         ) ).7XqX_ 3X7 -.{ 1.j.M.b.N.j.<.:.X.w   ( 3XtX5X! m       Q 5X_ F A                     ",
"                        C A Q _._       L 4X6X' X.%.>.,.,.N.N.>.l.l.;.>.k.:.:.,.,.%. .7XL A       9X^ H C A                     ",
"                        k m Z 4X3X~     H O.3 3.:.>.;.a.k.b.>.n.'.s.v.g.>.z.3.1.1.:.%.4 H @     ! %X! Z A h                     ",
"                          k A ^ 8XrX9X  4 3 [ } x.s.>.<.h.v.k.'.}.H.k.a.,.b.%.j.s.s.+.4 +.v   3XrX_ F A A                       ",
"                            v k ! _ 7XrXpXgX9X_.M.N.4.a.v.%.l.P.[.L.V.j.*.z.:.j.V.V._ 4XlXyXpX5X_ D M M                         ",
"                            u @ Z ~ %XtXzXxXgXhX^ V.X.s.M.,.n.b.P.Z.v.z.s.b.%.k.[.).gXlXjXiX7XXX/ V @ c                         ",
"                            4.v V F ( ! eXfXzXgX_.j.| :.N.V.a.&.M.k.g.j.N.B.*.b..X,XkXxXiX0X_ Q T @ f a.                        ",
"            U ! 4X).      a.>.@ h m Y ! ) tXiXfX^ M.%.&.j.M.j.,.v.a.:.s.M.k.%.C..X%XfXiX_ ~ ~ F k + a.:.:.    XX4X0X/           ",
"                G Q _ wXiX9X2Xk.4.@ @ k Y Q ( _ <.k.4.} g.&.V.:.g.%.j.N. .4.,.>.j.s.^ ) Y S m @ @ b.R _.7XiX7XF G E             ",
"                  F U Q 0XqX9XJ m.| <.@ N F l <.v.a.g.b.s.s.:.B.>.:.M.<.a.k.>.&.a.l.x.G A c @ [ 4 L 5XtXqX5XE F                 ",
"                      V D ~ 4XJ n.3 | 4.s.G.4.>.1.-.v.N.s.a.&.m.%.:.M.&.v.V.&.} | a.a.j.%.| ] 5 < / ! oXQ L Z                   ",
"                    s.a.m V G Z n.j.<.{ ' } ] | &.%.s.v.k.s.:.g.| z.l.%.s.v.%.1.:.%...{ % : & > ..Z P Y U @ ,.                  ",
"                  X.%.C.:.j.v.b.j.>.} w ' ,.a.:.>.a.M.b.v.>.;.` x.:.` | >.>.a.k.j.a.:.a.} > % % 1 b.N.m.j.>.v.3.                ",
"                  3.=.j.V.h.%.%.<.=.4 > | :.1.>.a.j.N.b.j.%.%.` } > ' %.| :.z.b.b.>.a.>.| } 3 = : ..k.j.m.b.j.| a.              ",
"                  d.:.%.>...}  .| %.& > & 7 ..} :.a.N.v.k.:.:.' > 3 ..| %.>.N.M.s.&.` ] * * % 4 } 4 3 X.>.:.%.s.1.              ",
"                %.:.k.;.` 7 %.k.V.z.> : 9 8 t { ..{ N.N.j.<.&.4 : 6 4 %.a.M.b.a.| ] ..8 # 6 % 4 g.[ ' 1 ` 4 ..>.:.}             ",
"                5.> ` } :.s.X.:.&.} 3 6.t 7.t a 2 1 ' j.V.a.&.4 : 4 ` 1.>.N...[ < , < 2 8 q ; 4 | %.' 1 k.%.4 3 $ 5.            ",
"                > : 3 2 ' | , ..$.3 @.q.d y t r 2 * & } v.v.j.| > } %.s.m.v.` % ; ; 1 &Xs : =Xt 7  .` 1 %...4 & : <             ",
"              >.} = & 1 > > : > 9.y.y.!.y r r r , * o 0.>.b.M.>.' g.a.c.V.&.$ $ = b 9 = =Xa < o.7.o.t 1 > 3 1 & O...j.          ",
"              m.a.3 : 1 & , 7.R./. Xq.R.y.r y 8 r t # d >.b.v.:.} f.:.v.M.h.o : = t #X8 @Xe =Xe 9.9.a q & & & 4 X.l.k.          ",
"            4.h.:.} > > 6 e @.@.(.p.p.~.p.q.#.d 9./.!.d , ' %.>.` -.1.;.* t n e @.9.=X@X=Xw.d #.~.u.7.6.1 & 1 4 %.l.s.>.        ",
"            %.,.&.` { 3 : 9 2 9.0.7.q.Y.u.9.R.(. XdX|.^.R.t < ` = 3 4 < #.d U.+X7.9 b *X@.d #Xt a 6.8.9 ; & { [ } -.:.*.        ",
"            %.g.%.4 ..` & 5 5 8.y.6.0.!.e.$.Y./. XdX X`.!.R.7 4 > > 7 d t 9.!.8.8 @Xb b &Xa 8 0 9.5.7.w % 1 5 5 ' %.:.|         ",
"            ' } ` ' ;.&.5 e ; 0 e.$.y.p.u.(.^. XdXaXp.|.aX|.p.0., p.#.Y..X Xn w., +Xn n &X*X9.e w a r % f & %.' ` { 1.%.        ",
"            5 5 : | 4 > & O L W $X0 q g u.|.(.(.Q. X~.q.y./.(.`.6.q.i.0.q.u.|.sXw.#.9.0.*X8.#., w P C Q O > : { < 3 < =         ",
"            ] ` ' < 1 $ # X B qXyXQ r o.e.w.e.Y.^.|.sXR.!.|.~.0.0.0.#.Q.(.{.Y.+X|.(.p.y.~.9.a q K 5X@ N X & 1 > 4 } ] 0         ",
"            | | >.& [ O.* #   ~ ^ ^ D 0 w 9.#.p.!./.Y./.].sX].!.|.u.!.{.dX].OX`.Y.~.Y.e < 8 q T ,XE u . - $ 4 4 | :.| ]         ",
"            | 1.>.4 3.l lX# o j W ( F 0 Y q 2 8.i.p.!.]. X(.!.].|.q.(./.~. X X(.p.e.6.r F rXw.Z _ D   o o 1 K 4 >.s.:.%.        ",
"               .%.;.f.*.W i t # @ x z z ! C pXS a 9 #.r.a $.w.t.y.R.w.w.$.8.0 7., 7.Z iX( F z x h - 9 t p 7Xs.%.c.%.&.+.        ",
"              >. .f.j.d.x.| i C XX* $ z @ + E n ~ rXP 7XU 0.a y. X^.e.r.g T G $ o # @X+X+ + z - = Z k 5.} =.l.s.;.-.:.          ",
"              I.` &.M.S.j.J.:.J ,X% $ x @ + / $ _ eXT #X&X*X=X;X^ f c -X-X&XY <X# & x z + + z # * E A | 2.v.F.C.' X.I.          ",
"                s.X.` | g.k.D.k.<. .| 4.} { 3 3.F _ _.M 3.Q iX0X' { 6XiX) | ).uX_ F y y q = s q t j.K.l.>.2.X.%.=.a.            ",
"                  { 0 w.4 4 | >.a.B.v.<.<.h.F.>X4 & 3 %.f.-.-.%.m.b.4.| | >.] : , [ &.<.&.s.a.J.H.| 7 a.-.%.l.1.*.              ",
"                  9 u.E.R.| 4  .%.s.J.c.k.=XM.A.v.<.>.g.j.M.n.A.h.k.H.W.J.J.:.g.<.j.m.}.f.v.k.S.h.7 ] 3 M.<.%.%.&.              ",
"                  &.y.y.u.E.} w +.%.s.A.S.k.c.b.>X'.F.H.;X[.W.S.a.f.b.T.L.[.}..X[.W.P.[.S.F.H.z.| { u.[ d.1.} | |               ",
"                  ` g t.u.U.' 4 ;.' %.z.k.1.>.=X| %.;XP.}.T.A.J.a.g.v.N.F.K.W.[.}.1X}.T.j.>.s.| [ t.w.w %.} ' 7 |               ",
"                  1   7.y.7 4 ' *.' >.h.j.<.>.&X+X=X@X .:XK.b.j.%.4.j.z.m.A.F.J.H.S.k.v.l.z.s.*.4 R.9.1 &.] 4 6 |               ",
"                  ' :.1.[ 6 l.v.>.| 4 } 1.:.a.a.&X| w %.k.l.z.M.;.>.v.k.j.f.v.v.v.b.h.>.%.%.' 6.q.B.j.j.' 5 3.w                 ",
"                    ' > %.f.j.d.B.:...{ 4 *X .h.s.>.a.:.x.X.a.s.&...&.s.%.&.a.<.<.s.g.| ' ' 5 6.2.s.s.<.s.| 5                   ",
"                        } %.iX3.>.M.>. .s.:.]  .&Xa.4.| ' ..:.:.] } } :.` } :.>.:.%.| ' a.j.:.=.b.1.zXwX2.|                     ",
"                          ) _ V a.b.>.C.| |  .%.} >.3 a.B.h.6 } ..%.%.` ,.V.< { :.%.&.| } s.c.a.b.S J ) ^                       ",
"                          I %XV x.b.>.M...} X.&.X.:.1 j.N.&.O.} ' %.| ` :.V.> ' :.| ,.%.-.1.b.<.m.N Y %X(                       ",
"                          L ( @ >.;...>.>   ' } & 2.&.N.>.  %.3 '  .1 {   h.%.x.%.6 ' } 3 *.>.4 ,.h B ! T                       ",
"                          V L   % > $ 1.4 7 ] q { ] k.>.  o.& ' ..{ 4 1 }   b.a.5 4 > w 3 | | 8 >   c E C                       ",
"                                        &.{ ` s.    %.` > % > : 7 5 3 % & 3 | >     j.6 |                                       ",
"                                            ; ` :.x.> : : & q 3     4 4 : & > >.h.*.3 q                                         ",
"                                                & : ; -                     % > 6 : %.                                          ",
"                                                                                                                                ",
"                                                                                                                                ",
"                                                                                                                                ",
"                                                                                                                                ",
"                                                                                                                                ",
"                                                                                                                                ",
"                                                                                                                                "
};
