/* XPM */
static char *e5a8aaf9d8f643ee9c9924cefccc6410uBJw6i7gWNfHTS2K[] = {
/* columns rows colors chars-per-pixel */
"64 64 237 2 ",
"   c black",
".  c #100D14",
"X  c #2E0000",
"o  c #3B0502",
"O  c #363516",
"+  c #000222",
"@  c #352C33",
"#  c #2B3936",
"$  c #383B38",
"%  c #440101",
"&  c #4D0301",
"*  c #490707",
"=  c #550101",
"-  c #5D0201",
";  c #5B0B02",
":  c #5B020C",
">  c #560A08",
",  c #53160C",
"<  c #5C0611",
"1  c #640202",
"2  c #6B0102",
"3  c #680A06",
"4  c #63020C",
"5  c #730101",
"6  c #7C0202",
"7  c #770A03",
"8  c #73020C",
"9  c #7B010C",
"0  c #720C0C",
"q  c #691408",
"w  c #76160C",
"e  c #680514",
"r  c #7B0212",
"t  c #750816",
"y  c #681516",
"u  c #771816",
"i  c #7C1B1B",
"p  c #4A3314",
"a  c #6E2710",
"s  c #740F20",
"d  c #412C3B",
"f  c #463838",
"g  c #7B2727",
"h  c #3D4D3A",
"j  c #4D4B3C",
"k  c #020349",
"l  c #030156",
"z  c #353B4B",
"x  c #010267",
"c  c #02037A",
"v  c #433848",
"b  c #533B48",
"n  c #3A4A45",
"m  c #464747",
"M  c #574748",
"N  c #485349",
"B  c #55574B",
"V  c #494852",
"C  c #564B57",
"Z  c #4B5B58",
"A  c #575857",
"S  c #654C4F",
"D  c #635649",
"F  c #665755",
"G  c #506254",
"H  c #5A655B",
"J  c #656458",
"K  c #716E5A",
"L  c #595864",
"P  c #50576D",
"I  c #675C66",
"U  c #705368",
"Y  c #5A6566",
"T  c #5E6575",
"R  c #686768",
"E  c #736C6C",
"W  c #677569",
"Q  c #76736B",
"!  c #686C74",
"~  c #756B76",
"^  c #6B7674",
"/  c #767677",
"(  c #840201",
")  c #870707",
"_  c #8C0201",
"`  c #830A03",
"'  c #8C010C",
"]  c #940101",
"[  c #970606",
"{  c #9B0101",
"}  c #94020B",
"|  c #89180D",
" . c #860415",
".. c #960314",
"X. c #86181A",
"o. c #821B1E",
"O. c #A40202",
"+. c #AC0201",
"@. c #A80A00",
"#. c #A4020B",
"$. c #AC020B",
"%. c #B30201",
"&. c #BC0201",
"*. c #BA0A05",
"=. c #B3020B",
"-. c #BB020B",
";. c #A40414",
":. c #B30312",
">. c #BC0412",
",. c #8C2B17",
"<. c #87241B",
"1. c #B83F06",
"2. c #841D24",
"3. c #88182F",
"4. c #961D2A",
"5. c #872627",
"6. c #8C2424",
"7. c #8A2F2F",
"8. c #962428",
"9. c #932B2B",
"0. c #99352C",
"q. c #982C38",
"w. c #8B3236",
"e. c #993536",
"r. c #A3372B",
"t. c #A33736",
"y. c #AA3235",
"u. c #A43E3C",
"i. c #C30202",
"p. c #CB0102",
"a. c #C60A01",
"s. c #C4020B",
"d. c #CC010B",
"f. c #D30101",
"g. c #DC0101",
"h. c #D40A05",
"j. c #D4010C",
"k. c #DD020A",
"l. c #C40214",
"z. c #D50114",
"x. c #E40101",
"c. c #E60607",
"v. c #EB0102",
"b. c #EA020A",
"n. c #F30102",
"m. c #F40407",
"M. c #FC0202",
"N. c #FE010B",
"B. c #EA0315",
"V. c #FC0410",
"C. c #FA181A",
"Z. c #EE2415",
"A. c #FE1227",
"S. c #FE1C27",
"D. c #F82A2A",
"F. c #FF3A3A",
"G. c #AB4539",
"H. c #B2443D",
"J. c #F94338",
"K. c #992C41",
"L. c #AC3C46",
"P. c #B53B44",
"I. c #FB3C42",
"U. c #AA4546",
"Y. c #B34B4B",
"T. c #B1544E",
"R. c #AD4D55",
"E. c #B75656",
"W. c #B7625A",
"Q. c #896E71",
"!. c #82797A",
"~. c #BC6C64",
"^. c #C45859",
"/. c #F94345",
"(. c #F6464F",
"). c #FD5E5D",
"_. c #C36357",
"`. c #FC664E",
"'. c #FD645B",
"]. c #C25765",
"[. c #FD5C65",
"{. c #D3686A",
"}. c #D07172",
"|. c #D77478",
" X c #FA6468",
".X c #EC7670",
"XX c #FE7874",
"oX c #778578",
"OX c #858377",
"+X c #020183",
"@X c #040987",
"#X c #02018C",
"$X c #050595",
"%X c #02029C",
"&X c #0102A4",
"*X c #0607A8",
"=X c #0203AD",
"-X c #0204B6",
";X c #737987",
":X c #0201C7",
">X c #0706D6",
",X c #0400FD",
"<X c #0B1AFB",
"1X c #1819FE",
"2X c #2918FF",
"3X c #0E23F0",
"4X c #2F2BF6",
"5X c #4627FF",
"6X c #5451FC",
"7X c #8E7A8B",
"8X c #7A8489",
"9X c #7F8A96",
"0X c #868686",
"qX c #938A88",
"wX c #879488",
"eX c #96978B",
"rX c #8B8F98",
"tX c #998B9B",
"yX c #989697",
"uX c #A49694",
"iX c #98A892",
"pX c #A8AA99",
"aX c #938BA2",
"sX c #AF9BA6",
"dX c #9CABAC",
"fX c #A9A9AA",
"gX c #B2AEB3",
"hX c #D98887",
"jX c #EF9093",
"kX c #C6BCBA",
"lX c #BBC8B7",
"zX c #C5C3B6",
"xX c #B1B6C5",
"cX c #B9C7CC",
"vX c #C4C2C8",
"bX c #D9D5D2",
"nX c #DDDEDA",
/* pixels */
"                                                                                                                                ",
"                                                                                                                                ",
"                                                                                                                                ",
"                                          Y                                                                                     ",
"                                        P R                                             H                                       ",
"                                        Q /                                             J                                       ",
"                      B T               OXyX                                            OX!               Y S                   ",
"                      G F               yXgXQ                                         W eX/               H J                   ",
"                      B ! !             qXpX8X                                        0X9XH             ^ R b                   ",
"                      L I Q.^           0XfXrX/                                     / tX!.I           ^ U A V                   ",
"                        A B / ^         W 7XyXeXOX/ 6 { { =.p.n.n.v.g.O.&.+.6   !.Q.aXwXR m       ^ Q./ J B                     ",
"                        z B Y eXR       ! OX0X{ { ) -.+.+.M.v.:.x.&.=.j.i.&.=.%.] @.@.wXR n       OX/ R V m                     ",
"                        m m N 0XOXW     F 8 ) %.%.i.O.d.x.v.p.i./.b.f.i.&.f.+.-.*.&.] 6 B f     ^ rXW Z N m                     ",
"                          m V ;XrXdXqX  ) e 6 O.l.i.&.a.B.d.f.F. XA.h.a.%.b.@.g.k.&.[ ) 6 v p 7XpX/ Z C m                       ",
"                            f h R 7XwXfXcXxXyX~ N.M.%.p.g.%.g.F.).F.N.g.{ g.+.f.M.n.K rXvXfXfXwX8XS n $                         ",
"                            @ m L K !.eXvXnXlXcXK M.O.%.M.%.g.B.J.N.x.g.p.c.+.B.[./ vXcXzXfXtXoXE z f z                         ",
"                            d.# m F ! / fXvXnXvX/ x.+.+.N.n.p.i.M.x.s.i.M.v.#.g.XXQ kXnXdXrX^ K L j # %.              B         ",
"            D R 0X/       %.-.$ $ m A ~ ~ uXpXgXoXc.+.p.p.N.f.@.v.p.%.f.M.p.O.x.XXQ.xXdX;XK ! B m z p.&.i.    0X0X0XE           ",
"                L R 7XuXgXrXoXx.%.v $ n A J ^ ;X+.b.+.{ &.O.N.f.*.i.&.M.+.l.&.i.c.%.;X~ A V m $ $ z.F oXtXfXtXR Z A             ",
"                  Z B Y qXeXyXY v.%.+.# m Z D >.p.&.p.g.p.&.i.N.%.{ V.a.%.g.i.[ &.g.s.G C v # 6 _ R 0XrXyXrXJ A                 ",
"                      C A ~ ;XR v.( { +.i.d.d.f.&.O.v.m.v.%.] b.i.%.b.+.g.N.%.{ %.%.p.&.+.] } 7 5 J Q.0XW F n p                 ",
"                    %.d.z M H Z h.j.%.O._ _ _ [ ;.:.g.g.x.p.O.j.+.p.f.[ p.m.O.#.:.$.#.( 1 1 & ( ` N J G C $ i.O                 ",
"                  +.:.M.&.p.h.b.f.+.#.5 { $.+.%.i.a.v.v.f.i.[ ) d.+._ [ -.%.i.x.p.f.&.p.O.5 - - : v.x.m.f.p.m.+.                ",
"                  [ @.g.M.f.) ] %.+.5 1 ] %.&.i.p.p.N.x.f.i.O.5 ] ` 5 { { %.b.n.g.a.%.i.{ ] 5 ; ; [ g.h.x.n.d.=.+.              ",
"                  p.$.O.O.O...O.{ O.5 1 1 ( ( { @.%.n.x.g.&.$.] = 6 ) O.` p.n.v.i.+.O.} - > ; 7 ] 2 3 O.=.+.{ *.#.              ",
"                #.i.j.+.9 6 } x.N.p.2 2 q t u _ _ { n.M.x.O.=._ 2 5 _ +.i.n.n.j._ _ _ i 4 , < 2X-.} +X6 6 6 $.&.%.[             ",
"                w 5 ( ` %.b.( %.+.) 6 i i 2.<.y q - ' a.V.i.O.) - 5 ` ;.l.M.' ` < < @X; , x 4X>X{ %.' % k.a.) r 2 a             ",
"                7 e 2 ( _ #.6 ] | 0 i 9.u u i i 4 3 4 } M.g.p.+.8 ] { s.x.b.) - - y e u 1X2X* -X8  .( 7 _ _ 2 o ; _             ",
"              d.7 ; 1 = 1 2 2 5 7.0.q.Y.2.0 w t - 3 X 8.$.M.m.i.( g.s.x.M.+.X * - $Xw 3X4X6X@X= * 2 : 2 > 4 2 2 ) { &.          ",
"              g.k.5 9 = & 3 2.y.T.{.y.u.9.u i q y u o ; w.a.B.*.) p.i.n.+.9.* %X$Xs >X5Xc >X0 u c 8.o.q 2 e = 5 ..z.v.>.        ",
"            d.d.d.] - 2 2 0 X.5.T.u.0.T.u.6.6.5.u E.G.s 2 q 0 3._ { 3.9 & * &Xr.#X$X6X<X#X5.g w U.q.<.g < 1 2 ( +.&.z.O.        ",
"            +.O.$.r ( ( 1 y 3 5.q.<.9.u.9.6.U.Y.|.jX~.G.y : o $X- & * #X3 2XP.&X*X-Xk k #Xc c u i 6.g t ; 2 8 ) ' @.*.#.        ",
"            { s.{ 6 _ _ 1 q ( 2.q.5.9.u.t.5.L.Y.|.jX{.T.H.t.9 8 - r 5 8 g 9.2X6Xl l k #X1XG.X.1X9.3.6.e 3 - r ( ] { +.9         ",
"            3 } _ [ $.] 1 y 4 u 7.<.8.U.9.T.Y.}.jX|.Y.{.jX}.t.4., +X7.1X}.$X6Xl -Xc &Xl @Xc +Xq 1 1Xa 1 p 2 O._ 2 ' &.2         ",
"            q 5 5 ( 6 - % . R F K q s 8.G.E.E.E.T.}.R.q.0.E.^.E.6.K.#X2Xk :Xc hX=XW.L.:XL.| 2.: y Y S I : 8 - } { 1 < `         ",
"            ` _ _ - 2 ; e 1 h yXyX~ e q t.t.8.u.W.W..XG.R.W.Y.y.q.<.,.$X_.#XL.|._.].G.w.E.,.a r W eXz % - % ; 2 [ { ' }         ",
"            O.{ +.2 6 ' 2 0 > Y 8XW F y 8 8.i L.Y.^.T.G.].hX{.y.%XG.L.&XhX].hX=XG.U.P.2.t , t B ;XI % ; * = ( 5 #.O.{ O.        ",
"            { +.p._ #.$.s.6 5 j H / L e Z y y i e.G.U.W.|.W.r.$X{.<.W.L.]..X}.].r.0.4.q L fXe.F ! * - o & e - [ &.a.&.}         ",
"              +.%.+.i.=.:.%...5 = > > k ;XN iXC i y | 6.4.w q.e.w.t.r.7.i 3.u o.q 6.9 fX~ A = = > 2 1 1 1 - i.] h.%.O.          ",
"              =.#.d.B.+.f.+.g.&.*.{ 2 - d @ R k E pXZ iXL e.2.,.{.T.e.6.0.F G V pX~ 0   @ < * 1 ] _ 2 2 { *.d.{ +...p.          ",
"              1.@.%.v.C.h.D.a.x.#Xx.i.+.O.[ O.k.x.x.j.g.-.i.` [ !.V # #X+ k Z 0X1 5 +...#.{ -.%.] ] ) { &.i.S.3 ] ( 1.          ",
"                p.{  .] &.v.Z.f.*.v.c } *.%.+Xs.=.x.B.&.{ } 1 $X( _ %Xv.J.(.v.c.v.x.f.g.f.*.&.%.%.( { O.&.a.{ #.&.g.            ",
"                  ) u w.&X6 #.%.g.b.f.B.5 @X2 < 3 3 &.g. Xp.&.= :X&.%XXX X(./.N.C.D.m.N.c.x.v.D.D.( 6 i.+.#.a.=.+.              ",
"                  u 0.0.u.+.5 ] O.&XS.#X% x 4 +X$X1 2 [ O.z.2 $X:X>.Z.'.XX`.S.J.C.V.I.v.J.J.J.D.p.( ( 5 c.l.%.O.+.              ",
"                  { q.0.u.G.#._ -X#.3 % =X,X:X>X$X%X- 5 { 5 * ,X:Xp.*XI.(. X'..X).I.F.'.A.D.S.f.+._ 0.( s.O.{ ] ]               ",
"                  ) X.e.e.r.` } +.+.&X% =X1X,X=X*X%Xo 2 =X&X,X,X$X$Xx.M.Z.S.J.).[.XX XJ.p.p.i.%.( r.6.8 @.} _ ` O.              ",
"                  5   6.e._ 1 ( @.) f.p.c 1 % k x x 3 = -X) :Xx.%.=.p.#Xz.>.d.v.A.S.B.g.p.%.O.( 5 r.8.5 #.{ 8 5 ]               ",
"                  t %.&.7 5 h.v.=.O.&.#Xj.j...( 8 - ` >.%.*Xa.p.{ O.+.a.O.$Xd.f.x.x.p.s.%.#.] <.q.v.x.i._ r :.9                 ",
"                    ` 5 { g.p.p.x.*.5 %.( } { +.@.g.%.] { { O.&.' %X] ;._ { $.i.i.&.+.O.( 7 7 8.s.i.&.h.&.O.1                   ",
"                        _ %.sXs.p.M.=.O.p.%.[ O.#.+.#.=X>.' %.=.( ' $.i.] &.} O.>.+.] _ i.f.#.%.v.:.bXeX$.}                     ",
"                          ! Q F &.n.&.n.' { { $.O.+.2 a.M.+.( } ] ] ] 9 i.m.2 _ +.O.=._ { +.n.+.m.j R / E                       ",
"                          ~ ^ Z x.h.=.b.{ [ O.+.#.%.5 i.M.O._ ] 6 O.O.r O.M.6 } %._ =.{ O.%.n.%.x.S Y / /                       ",
"                          ! R f f.i.( p.4   )  .2 l.+.M.g.  { 7 ' [ ` _   *.@.+.a.9 ) [ r ] &.( :.# A R R                       ",
"                          M L   * : e p.s 9 5 7 ( 6 d.d.  ( 2 ` { ( 6 7 _   j.-.( ( 1  .1 %.{ 7 4   $ L M                       ",
"                                        &.5 ( &.    O.7 1 2 - 5 < 7 9 : 4 1 ] 2     p.6 ]                                       ",
"                                            2 6 l.a.5 - : - r 5     5 1 2 = ] i.d.O.6 1                                         ",
"                                                8 2 2 >                     - : 1 7 {                                           ",
"                                                                                                                                ",
"                                                                                                                                ",
"                                                                                                                                ",
"                                                                                                                                ",
"                                                                                                                                ",
"                                                                                                                                ",
"                                                                                                                                "
};
