/* XPM */
static char *bd4ca11b2e2c4784f69d5d5bb028564cu0kiW7qC1muEFFlw[] = {
/* columns rows colors chars-per-pixel */
"64 64 2 1 ",
"  c black",
". c white",
/* pixels */
"                                                                ",
"                   .                        .                   ",
"                ....                        ....                ",
"              .......                      .......              ",
"             ........                      ........             ",
"           ..........                      ..........           ",
"          ...........                      ...........          ",
"         .........                            .........         ",
"        .........                              .........        ",
"       ........                                  ........       ",
"      ........                                    ........      ",
"      .......                                      .......      ",
"     .......                                        .......     ",
"    .......                                          .......    ",
"    ......                                            ......    ",
"   ......                                              ......   ",
"   ......                                              ......   ",
"  ......                                                ......  ",
"  ......                                                ......  ",
"  .....                                                  .....  ",
" ......                                                  ...... ",
" ......                                                  ...... ",
" .....                                                    ..... ",
" .....                                                    ..... ",
"......                                                    ......",
"......                                                    ......",
"......                                                    ......",
"......                                                    ......",
"......                        ....                        ......",
"......                        ....                        ......",
"......                       ......                       ......",
"......                        ....                        ......",
"......                        ....                        ......",
" .....                                                    ..... ",
" .....                                                    ..... ",
" .....                                                    ..... ",
" ...                                                        ... ",
"                                                                ",
"                                                                ",
"                                                                ",
"                                                                ",
"                                                                ",
"                                                                ",
"                                                                ",
"                                                                ",
"                                                                ",
"                                                                ",
"                                                                ",
"                                                                ",
"                                                                ",
"                                                 .              ",
"                                                ...             ",
"                ..                             .....            ",
"               .....                          .......           ",
"              .......                       .........           ",
"             ..........                   ..........            ",
"               ...........             ............             ",
"                ................. ................              ",
"                 ...............................                ",
"                   ...........................                  ",
"                     .......................                    ",
"                        .................                       ",
"                           ...........                          ",
"                                                                "
};
