/* XPM */
static char *_3119_8a68fb15ebb3f2c68f0f16b4e1b7b192a785269a5fc54ac90e93a3d2a91b2302[] = {
/* columns rows colors chars-per-pixel */
"128 128 76 1 ",
"  c black",
". c #070707",
"X c #9F0205",
"o c #9E0206",
"O c #A30103",
"+ c #A30203",
"@ c #A50101",
"# c #A40102",
"$ c #A40003",
"% c #A50003",
"& c #A40103",
"* c #A50103",
"= c #A60002",
"- c #A60003",
"; c #A70003",
": c #A30104",
"> c #A20105",
", c #A30105",
"< c #A20204",
"1 c #A30204",
"2 c #A20205",
"3 c #A30106",
"4 c #A40004",
"5 c #A50004",
"6 c #A40104",
"7 c #A50104",
"8 c #A50005",
"9 c #A40105",
"0 c #A60004",
"q c #A70004",
"w c #A60104",
"e c #A70104",
"r c #A60005",
"t c #A40205",
"y c #AA0001",
"u c #AA0002",
"i c #AD0001",
"p c #A80004",
"a c #A11013",
"s c #E50002",
"d c #E60003",
"f c #E70003",
"g c #E70103",
"h c #E30206",
"j c #E30207",
"k c #E60004",
"l c #E70004",
"z c #E60104",
"x c #E70104",
"c c #E60105",
"v c #E70105",
"b c #E70205",
"n c #E70006",
"m c #E70007",
"M c #E40206",
"N c #E00407",
"B c #E80004",
"V c #E80005",
"C c #E80006",
"Z c #E80107",
"A c #E00308",
"S c #FFF7F7",
"D c #FFF7F8",
"F c #FFF8F8",
"G c #FFF8F9",
"H c #FFFDFC",
"J c #FFFDFD",
"K c #FDFFFD",
"L c #FEFEFD",
"P c #FFFEFD",
"I c #FFFDFE",
"U c #FDFEFE",
"Y c #FDFFFE",
"T c #FFFEFE",
"R c #FEFEFF",
"E c white",
/* pixels */
"                                                                                                                                ",
"                                                                                                                                ",
"                                                                                                                                ",
"                                                                                                                                ",
"                                                                                                                                ",
"                                                                                                                                ",
"                                                                                                                                ",
"                                                                                                                                ",
"                                                                                                                                ",
"                                                                                                                                ",
"                                                                                                                                ",
"                                                                                                                                ",
"                                                                                                                                ",
"                                                                                                                                ",
"                                                                                                                                ",
"                                                                                                                                ",
"                                                                                                                                ",
"                                                                                                                                ",
"                                                                                                                                ",
"                                                                                                                                ",
"                              ...................                              ...................                              ",
"                              ...................                              ...................                              ",
"                              ...................                              ...................                              ",
"                              ...................                              ...................                              ",
"                              ...................                              ...................                              ",
"                              ...................                              ...................                              ",
"                              ...................                              ...................                              ",
"                              ...................                              ...................                              ",
"                              ...................                              ...................                              ",
"                              ...................                              ...................                              ",
"                    ..........5555555555555555555..........          ..........5555555555555555555..........                    ",
"                    ..........,55555555555555555:..........          ..........,55555555555555555:..........                    ",
"                    ..........,55555555555555555:..........          ..........,55555555555555555:..........                    ",
"                    ..........,55555555555555555:..........          ..........,55555555555555555:..........                    ",
"                    ..........,55555555555555555:..........          ..........,55555555555555555:..........                    ",
"                    ..........,55555555555555555:..........          ..........,55555555555555555:..........                    ",
"                    ..........,55555555555555555:..........          ..........,55555555555555555:..........                    ",
"                    ..........,55555555555555555:..........          ..........,55555555555555555:..........                    ",
"                    ..........,55555555555555555:..........          ..........,55555555555555555:..........                    ",
"                    ..........555555555p555555555..........          ..........5555555555555555555..........                    ",
"          ..........5555555555DFFFGGFFSxxxxxxxxxN5555555555..........555555555exxxxxxxxxxxxxxxxxxN5555555555..........          ",
"          ..........:555555565IEEEREETJxcxxxxxxxb5w555555$,..........,585555855Zxxxxxxxxxxxxxxxxxz555556&55:..........          ",
"          ..........,505555565IEEEEUEEJxcxxxxxxxz555555555,..........,555555505nxxxxxxxxxxxxxxxxxs555555555t..........          ",
"          ..........,555555565JRLEEEEKHxcxxxxxxxz5%5**55582..........2555555555mxxxxxxxxxxxxxxxxzz555555555:..........          ",
"          ..........,555505565IEEEUYEEIxcxxxxxxxz5555%55551..........,5555655%5nxxxxxxxxxxxxxxxxxx585655555<..........          ",
"          ..........9555555565IEETEREEPxcxxxxxxxz555555655+..........,5550665%5nxxxxxxxxxxxxxxxxxz555555555:..........          ",
"          ..........>5555*5065IEEEEEEEJxvxxxxxxxz555056655:..........,5555555%5nxxxxxxxxxxxxxxxxxx555565565:..........          ",
"          ..........,555555565IEEEEEEEJxvxxxxxxxz555555555:..........95555557#5nxxxxxxxxxxxxxxxxxz555555555:..........          ",
"          ..........,555555565IEEEEEEEJxcxxxxxxxz556555856O..........:55586*5%5Cxxxxxxxxxxxxxxxxxz555555555:..........          ",
"          ..........,555555565IEEEEEEEJxcxxxxxxxx5555555555..........5555555555xxxxxxxxxxxxxxxxxxz555555555:..........          ",
"          ..........,555555565IEEEEEEEJxcxxxxxxxdhxxxxxxxxA555555555exxxxxxxxxhfxxxxxxxxxxxxxxxxxz555555555:..........          ",
"          ..........,555555565IEEEEEEEJxcxxxxxxxxxxxxlzxxxc55555505%5nxxxxxxxxxlxxxxxxxxxxxxxxxxxz555555555:..........          ",
"          ..........,555555565IEEEEEEEJxcxxxxxxxxzxxxxxxxxz55*55%55%5Czxxxxxxxxxxxxxxxxxxxxxxxxxxz555555555:..........          ",
"          ..........,555555565IEEEEEEEJxcxxxxxxxxxxxxxxxxxz55*%5555%5nxxxxxxvxxxxxxxxxxxxxxxxxxxxz555555555:..........          ",
"          ..........,555555565IEEEEEEEJxcxxxxxxxzxxxBlxxxxz5555555555nxxxxxxzxlBxxxxxxxxxxxxxxxxxz555555555:..........          ",
"          ..........,555555565IEEEEEEEJxcxxxxxxxxxxxlxxxBlz5555555555nzxxxvvxxxlxxxxxxxxxxxxxxxxxz555555555:..........          ",
"          ..........,555556*65ILEEREEEJxcxxxxxxxxxxxxxxxlxx50555555%5nxxxxxxxxxxxxxxxxxxxxxxxxxxxz555555555:..........          ",
"          ..........,5555*57:5IEUEEEEEJxcxxxxxxxxxxxxxxxxxz55555505%5nxxxxxxxxxxxxxxxxxxxxxxxxxxxz555555555:..........          ",
"          ..........,555565565IEEUEEEEPxcxxxxxxxxxxxxxxxxxc5555555*%5nxxxxxxxxxxxxxxxxxxxxxxxxxxxz555555555:..........          ",
"          ..........,55555555aEEEEEEEEExvxxxxxxxxxxxxxxxxxv5555555555xxxxxxxxxxxxxxxxxxxxxxxxxxxxz555555555:..........          ",
"          ..........,55555555ixxxxxxxxxxvxxxxxxxxxxxxxxxxxxMjxxxxxxxhxxxxxxxxxxxxxxxxxxxxxxxxxxxxz555555555:..........          ",
"          ..........,5555855%5mxlxzxxxBgxxxxxxxxxxxxxxxxxxxxBxxxxxxxxVzxxxxxxxxxxxxxxxxxxxxxxxxxxz555555555:..........          ",
"          ..........,5555%55%5nxxxxgxxkxxxxxxxxxxxxxxxxxxxxvxxxxBxxxxxxxxxxxxxxxxxxxxxxxxxxxxxxxxz555555555:..........          ",
"          ..........,5555555%5nxxvxxxxvxxxxxxxxxxxxxxxxxxxxxxxxxlxxxxxxxxxxxxxxxxxxxxxxxxxxxxxxxxz555555555:..........          ",
"          ..........,5555555%5nxxxxxxxxxxxxxxxxxxxxxxxxxxxxxxxxxxxxxxxxxxxxxxxxxxxxxxxxxxxxxxxxxxz555555555:..........          ",
"          ..........,5555555%5nxxxxxxxxxxxxxxxxxxxxxxxxxxxxxxxxxxxxxxxxxxxxxxxxxxxxxxxxxxxxxxxxxxz555555555:..........          ",
"          ..........,5555555%5nxxxxxxxxxxxxxxxxxxxxxxxxxxxxxxxxxxxxxxxxxxxxxxxxxxxxxxxxxxxxxxxxxxz555555555:..........          ",
"          ..........,5555555%5nxxxxxxxxxxxxxxxxxxxxxxxxxxxxxxxxxxxxxxxxxxxxxxxxxxxxxxxxxxxxxxxxxxz555555555:..........          ",
"          ..........,5555555%5nxxxxxxxxxxxxxxxxxxxxxxxxxxxxxxxxxxxxxxxxxxxxxxxxxxxxxxxxxxxxxxxxxxz555555555:..........          ",
"          ..........,5555555%5nxxxxxxxxxxxxxxxxxxxxxxxxxxxxxxxxxxxxxxxxxxxxxxxxxxxxxxxxxxxxxxxxxxz555555555:..........          ",
"          ..........,5555555%5nxxxxxxxxxxxxxxxxxxxxxxxxxxxxxxxxxxxxxxxxxxxxxxxxxxxxxxxxxxxxxxxxxxz555555555:..........          ",
"          ..........,5555555%5nxxxxxxxxxxxxxxxxxxxxxxxxxxxxxxxxxxxxxxxxxxxxxxxxxxxxxxxxxxxxxxxxxxz555555555:..........          ",
"          ..........,5555555%5nxxxxxxxxxxxxxxxxxxxxxxxxxxxxxxxxxxxxxxxxxxxxxxxxxxxxxxxxxxxxxxxxxxz555555555:..........          ",
"          ..........,5555555%5nxxxxxxxxxxxxxxxxxxxxxxxxxxxxxxxxxxxxxxxxxxxxxxxxxxxxxxxxxxxxxxxxxxz555555555:..........          ",
"          ..........,5555555%5nxxxxxxxxxxxxxxxxxxxxxxxxxxxxxxxxxxxxxxxxxxxxxxxxxxxxxxxxxxxxxxxxxxz555555555:..........          ",
"          ..........,5555555%5nxxxxxxxxxxxxxxxxxxxxxxxxxxxxxxxxxxxxxxxxxxxxxxxxxxxxxxxxxxxxxxxxxxz555555555:..........          ",
"          ..........,5555555%5nxxxxxxxxxxxxxxxxxxxxxxxxxxxxxxxxxxxxxxxxxxxxxxxxxxxxxxxxxxxxxxxxxxz555555555:..........          ",
"          ..........,5555555%5nxxxxxxxxxxxxxxxxxxxxxxxxxxxxxxxxxxxxxxxxxxxxxxxxxxxxxxxxxxxxxxxxxxz555555555:..........          ",
"          ..........555555555wxxxxxxxxxcxxxxxxxxxxxxxxxxxxxxxxxxxxxxxxxxxxxxxxxxxxxxxxxxcxxxxxxxxN5555555555..........          ",
"                    ..........555555555xvxxxxxxxxxxxxxxxxxxxxxxxxxxxxxxxxxxxxxxxxxxxxxxxx555555555..........                    ",
"                    ..........,5555585=xxxxxxxxxxxxxxxxxxxxxxxxxxxxxxxxxxxxxxxxxxxxxxxxxx-5555555:..........                    ",
"                    ..........:$6555550xxxxxxxxxxxxxxxxxxxxxxxxxxxxxxxxxxxxxxxxxxxxxxxxxxr555505$+..........                    ",
"                    ..........,55555*5qxxxxxxxxxxxxxxxxxxxxxxxxxxxxxxxxxxxxxxxxxxxxxxxxxx0*55*555:..........                    ",
"                    ..........,5055555-xxxxxxxxxxxxxxxxxxxxxxxxxxxxxxxxxxxxxxxxxxxxxxxxxx05556655:..........                    ",
"                    ..........38555556-xxxxxxxxxxxxxxxxxxxxxxxxxxxxxxxxxxxxxxxxxxxxxxxxxx05556555:..........                    ",
"                    ..........,5555655-xxxxxxxxxxxxxxxxxxxxxxxxxxxxxxxxxxxxxxxxxxxxxxxxxx00555555:..........                    ",
"                    ..........,5555555-xxxxxxxxxxxxxxxxxxxxxxxxxxxxxxxxxxxxxxxxxxxxxxxxxx05655555:..........                    ",
"                    ..........,$5558050xxxxxxxxxxxxxxxxxxxxxxxxxxxxxxxxxxxxxVxxxxxxxxxxxxr5585555,..........                    ",
"                    ..........555555555xxxxxxxxxxzxxxzxxxxxxxxxxxxxxxxxxxxxxxxcxxxxxxxxxx555555555..........                    ",
"                              .........X555555555xvxxxxxxxxxxxxxxxxxxxxxlxxxxxx555555555o.........                              ",
"                              .........565555555-xcxxxxxxxxxxxxxxxxxxxxlBxxxxxxr555555565.........                              ",
"                              .........565555555-xvxxxxxxxxxxxxxxxxxxxxxxxxxlxx0555555565.........                              ",
"                              .........595555555-xvxxxxxxxxxxxxxxxxxxxxxxlxlBxxq555555565.........                              ",
"                              .........565555555=xxxxxxxxxxxxxxxxxxxxxxxlBxxxvxr555555565.........                              ",
"                              .........565555555@xxxlxxxxxxxxxxxxxxxxxxxxxxxlVx0555555565.........                              ",
"                              .........565555555=xxxBlxxxxxxxxxxxxxxxxxxxxxxxxx0555555565.........                              ",
"                              .........545555555-xxxxxxxxggxxxxxxxxxBgxxxxxzxxx0555555565.........                              ",
"                              .........565555555-xxxxxxxxxxvxxgxxxxxvxgxxxBxxxx0555555565.........                              ",
"                              .........5555555555xxxxxxxxxxxxxxxxxlBjxxxxxxxxxx5555555555.........                              ",
"                                       ..........5u55555555xVlxxxxxgx55555555y5..........                                       ",
"                                       ..........565055556%xxxxxgxxxx0%*5555565..........                                       ",
"                                       ..........5655555$5-xxxxgBcnxx%5%5555545..........                                       ",
"                                       ..........56555*555-xvxxxxvxxx55%*555565..........                                       ",
"                                       ..........5655555850xxxgxxxxxx05%5555565..........                                       ",
"                                       ..........568555555-xxxxxxxxxx-558555565..........                                       ",
"                                       ..........5&5555555-xvxxxlBxxx05%5555*65..........                                       ",
"                                       ..........565556565-xnxxxBlxxx0655655565..........                                       ",
"                                       ..........56505*5*5;xxvxBxxxxx05557%0*65..........                                       ",
"                                       ..........5555555555xxxxxxxxxx5555555555..........                                       ",
"                                                 ..........5u555555y5..........                                                 ",
"                                                 ..........5655555565..........                                                 ",
"                                                 ..........5655555565..........                                                 ",
"                                                 ..........5655555565..........                                                 ",
"                                                 ..........5655555565..........                                                 ",
"                                                 ..........5655555565..........                                                 ",
"                                                 ..........5655555565..........                                                 ",
"                                                 ..........5655555565..........                                                 ",
"                                                 ..........5655555565..........                                                 ",
"                                                 ..........5555555555..........                                                 ",
"                                                           ..........                                                           ",
"                                                           ..........                                                           ",
"                                                           ..........                                                           ",
"                                                           ..........                                                           ",
"                                                           ..........                                                           ",
"                                                           ..........                                                           ",
"                                                           ..........                                                           ",
"                                                           ..........                                                           ",
"                                                           ..........                                                           "
};
