/* XPM */
static char *_835_71817b39179d079440ef8f2775e589448d37f66bd5c91992fba3aeb859ce51f7[] = {
/* columns rows colors chars-per-pixel */
"128 128 59 1 ",
"  c black",
". c #070707",
"X c #9E1315",
"o c #A40003",
"O c #A50003",
"+ c #A40103",
"@ c #A50103",
"# c #A60002",
"$ c #A70002",
"% c #A60003",
"& c #A70003",
"* c #A30104",
"= c #A30105",
"- c #A20204",
"; c #A20205",
": c #A40004",
"> c #A50004",
", c #A40104",
"< c #A50104",
"1 c #A50005",
"2 c #A40105",
"3 c #A60004",
"4 c #A70104",
"5 c #A60105",
"6 c #A40205",
"7 c #A90000",
"8 c #AB0000",
"9 c #AA0001",
"0 c #AB0001",
"q c #AA0002",
"w c #AB0002",
"e c #AB0003",
"r c #AC0001",
"t c #AD0001",
"y c #A80004",
"u c #DF0207",
"i c #DF0307",
"p c #DC0408",
"a c #E50002",
"s c #E50003",
"d c #E70103",
"f c #E20105",
"g c #E10307",
"h c #E20306",
"j c #E20307",
"k c #E50105",
"l c #E70004",
"z c #E70104",
"x c #E70105",
"c c #E40207",
"v c #E00407",
"b c #E80003",
"n c #E80004",
"m c #E80005",
"M c #E80006",
"N c #E80106",
"B c #E10308",
"V c #E30408",
"C c white",
/* pixels */
"                                                                                                                                ",
"                                                                                                                                ",
"                                                                                                                                ",
"                                                                                                                                ",
"                                                                                                                                ",
"                                                                                                                                ",
"                                                                                                                                ",
"                                                                                                                                ",
"                                                                                                                                ",
"                                                                                                                                ",
"                                                                                                                                ",
"                                                                                                                                ",
"                                                                                                                                ",
"                                                                                                                                ",
"                                                                                                                                ",
"                                                                                                                                ",
"                                                                                                                                ",
"                                                                                                                                ",
"                                                                                                                                ",
"                                                                                                                                ",
"                              ...................                              ...................                              ",
"                              ...................                              ...................                              ",
"                              ...................                              ...................                              ",
"                              ...................                              ...................                              ",
"                              ...................                              ...................                              ",
"                              ...................                              ...................                              ",
"                              ...................                              ...................                              ",
"                              ...................                              ...................                              ",
"                              ...................                              ...................                              ",
"                              ...................                              ...................                              ",
"                    ..........>>>>>>>>>>>>>>>>>>>..........          ..........CCCCCCCCCCCCCCCCCCC..........                    ",
"                    ..........=>>>>>>>>>>>>>>>o>*..........          ..........CCCCCCCCCCCCCCCCCCC..........                    ",
"                    ..........=>>>>>>>>>>>>>>>>>*..........          ..........CCCCCCCCCCCCCCCCCCC..........                    ",
"                    ..........=>>>>>>>>>>>>>>>>>*..........          ..........CCCCCCCCCCCCCCCCCCC..........                    ",
"                    ..........=>>>>>>>>>>>>>>>>>*..........          ..........CCCCCCCCCCCCCCCCCCC..........                    ",
"                    ..........=>>>>>>>>>>>>>>>>>*..........          ..........CCCCCCCCCCCCCCCCCCC..........                    ",
"                    ..........=>>>>>>>>>>>>>>>>>*..........          ..........CCCCCCCCCCCCCCCCCCC..........                    ",
"                    ..........=>>>>>>>>>>>>>>>>>*..........          ..........CCCCCCCCCCCCCCCCCCC..........                    ",
"                    ..........=>>>>>>>>>>>>>>>>>*..........          ..........CCCCCCCCCCCCCCCCCCC..........                    ",
"                    ..........>>>>>>>>>y>>>>>>>>>..........          ..........CCCCCCCCCCCCCCCCCCC..........                    ",
"          ..........>>>>>>>>>>CCCCCCCCCzghhhhjhjv5>>>>>>>>>..........CCCCCCCCCCCCCCCCCCCCCCCCCCCCCCCCCCCCCCC..........          ",
"          ..........=>1@>,,>,>CCCCCCCCCzxzzzzzzzz>>>>>,+>>*..........CCCCCCCCCCCCCCCCCCCCCCCCCCCCCCCCCCCCCCC..........          ",
"          ..........=>>>3<>>,>CCCCCCCCCzzzzzzzxza>>>>>>>>>6..........CCCCCCCCCCCCCCCCCCCCCCCCCCCCCCCCCCCCCCC..........          ",
"          ..........;>>>>+>>,>CCCCCCCCCzzzzzdzzzz>>>>>>>>>*..........CCCCCCCCCCCCCCCCCCCCCCCCCCCCCCCCCCCCCCC..........          ",
"          ..........=>>>>@@>,>CCCCCCCCCzzzxzzzzzz>1>,>>>>>-..........CCCCCCCCCCCCCCCCCCCCCCCCCCCCCCCCCCCCCCC..........          ",
"          ..........=>>>>>>>,>CCCCCCCCCzxxxzzzzzz>>>>>>>>>*..........CCCCCCCCCCCCCCCCCCCCCCCCCCCCCCCCCCCCCCC..........          ",
"          ..........=>>,>3>>+>CCCCCCCCCzxzzzdzzzz>>>>,>>,>*..........CCCCCCCCCCCCCCCCCCCCCCCCCCCCCCCCCCCCCCC..........          ",
"          ..........=>>>>>>>,>CCCCCCCCCzzzzzzzzzs>>>>>>>>>-..........CCCCCCCCCCCCCCCCCCCCCCCCCCCCCCCCCCCCCCC..........          ",
"          ..........=>>>>>>>,>CCCCCCCCCzzzzzzzznz>,>>1>>>>*..........CCCCCCCCCCCCCCCCCCCCCCCCCCCCCCCCCCCCCCC..........          ",
"          ..........=>>>>>>>,>CCCCCCCCCzzzzzzzzld>>>>>>>>>>..........CCCCCCCCCCCCCCCCCCCCCCCCCCCCCCCCCCCCCCC..........          ",
"          ..........=>>>>>>>,>CCCCCCCCCzzzzzzzzzdfjjggjjjjv5>>>>>>>>>CCCCCCCCCCCCCCCCCCCCCCCCCCCCCCCCCCCCCCC..........          ",
"          ..........=>>>>>>>,>CCCCCCCCCzzzzzzzzzdzzzzzlzzzz>>2>>>>3,>CCCCCCCCCCCCCCCCCCCCCCCCCCCCCCCCCCCCCCC..........          ",
"          ..........=>>>>>>>,>CCCCCCCCCzzzzzzzzzzzzzzzzzzxz>>>>>>>>,>CCCCCCCCCCCCCCCCCCCCCCCCCCCCCCCCCCCCCCC..........          ",
"          ..........=>>>>>>>,>CCCCCCCCCzzzzzzzzzzzzzzzzzxnz>3>>>>,>,>CCCCCCCCCCCCCCCCCCCCCCCCCCCCCCCCCCCCCCC..........          ",
"          ..........=>>>>>>>,>CCCCCCCCCzzzzzzzzzzzzzzzzzzlz>3>>>@>>,>CCCCCCCCCCCCCCCCCCCCCCCCCCCCCCCCCCCCCCC..........          ",
"          ..........=>>>>>>>,>CCCCCCCCCzznlzzzzzzzzzzzzzzzz>>>>>>>>,>CCCCCCCCCCCCCCCCCCCCCCCCCCCCCCCCCCCCCCC..........          ",
"          ..........=>>>>>>>,>CCCCCCCCCzzlzzzzzzzzzzzzzdzxz>>>>>>>>,>CCCCCCCCCCCCCCCCCCCCCCCCCCCCCCCCCCCCCCC..........          ",
"          ..........=>>>>>>>,>CCCCCCCCCzzzzzzzzzzzzzzzzdzzz>>3>>>>@*>CCCCCCCCCCCCCCCCCCCCCCCCCCCCCCCCCCCCCCC..........          ",
"          ..........=>>>>>>>,>CCCCCCCCCzzzzzzzzzzzzzzzzzzzz>>>>>2>>,>CCCCCCCCCCCCCCCCCCCCCCCCCCCCCCCCCCCCCCC..........          ",
"          ..........=>>>>,>>>>CCCCCCCCCzxzzzzzzzzzzzzzzxnlz>>>>>>>>>XCCCCCCCCCCCCCCCCCCCCCCCCCCCCCCCCCCCCCCC..........          ",
"          ..........=>>>>>3>OtzzzzzzzzzgxzzzzzzzzzzzzzzzlzzcjjhjhjggzCCCCCCCCCCCCCCCCCCCCCCCCCCCCCCCCCCCCCCC..........          ",
"          ..........=>>>@>O>%>zzzzzzzzzxzzzzdzzzzzzzzzzzzzxzzzzznzzzzCCCCCCCCCCCCCCCCCCCCCCCCCCCCCCCCCCCCCCC..........          ",
"          ..........=>>O3>1>O>MzzzzzzzzxzzzxzdzzzzzzzzznlzznlNxnlzzzzCCCCCCCCCCCCCCCCCCCCCCCCCCCCCCCCCCCCCCC..........          ",
"          ..........=>>>>>>>O>zzzzzzzzzzzzzxzzzzzzzzzzzlzzzlzzzlzzzzzCCCCCCCCCCCCCCCCCCCCCCCCCCCCCCCCCCCCCCC..........          ",
"          ..........=>>>>>>>O>zzzzzzzzzzzzzzzzzzzzzzzzzzzzzzzzzzzzzzzCCCCCCCCCCCCCCCCCCCCCCCCCCCCCCCCCCCCCCC..........          ",
"          ..........=>>>>>>>O>zzzzzzzzzzzzzzzzzzzzzzzzzzzzzzzzzzzzzzzCCCCCCCCCCCCCCCCCCCCCCCCCCCCCCCCCCCCCCC..........          ",
"          ..........=>>>>>>>O>zzzzzzzzzzzzzzzzzzzzzzzzzzzzzzzzzzzzzzzCCCCCCCCCCCCCCCCCCCCCCCCCCCCCCCCCCCCCCC..........          ",
"          ..........=>>>>>>>O>zzzzzzzzzzzzzzzzzzzzzzzzzzzzzzzzzzzzzzzCCCCCCCCCCCCCCCCCCCCCCCCCCCCCCCCCCCCCCC..........          ",
"          ..........=>>>>>>>O>zzzzzzzzzzzzzzzzzzzzzzzzzzzzzzzzzzzzzzzCCCCCCCCCCCCCCCCCCCCCCCCCCCCCCCCCCCCCCC..........          ",
"          ..........=>>>>>>>O>zzzzzzzzzzzzzzzzzzzzzzzzzzzzzzzzzzzzzzzCCCCCCCCCCCCCCCCCCCCCCCCCCCCCCCCCCCCCCC..........          ",
"          ..........=>>>>>>>O>zzzzzzzzzzzzzzzzzzzzzzzzzzzzzzzzzzzzzzzCCCCCCCCCCCCCCCCCCCCCCCCCCCCCCCCCCCCCCC..........          ",
"          ..........=>>>>>>>O>zzzzzzzzzzzzzzzzzzzzzzzzzzzzzzzzzzzzzzzCCCCCCCCCCCCCCCCCCCCCCCCCCCCCCCCCCCCCCC..........          ",
"          ..........=>>>>>>>O>zzzzzzzzzzzzzzzzzzzzzzzzzzzzzzzzzzzzzzzCCCCCCCCCCCCCCCCCCCCCCCCCCCCCCCCCCCCCCC..........          ",
"          ..........=>>>>>>>O>zzzzzzzzzzzzzzzzzzzzzzzzzzzzzzzzzzzzzzzCCCCCCCCCCCCCCCCCCCCCCCCCCCCCCCCCCCCCCC..........          ",
"          ..........=>>>>>>>O>zzzzzzzzzzzzzzzzzzzzzzzzzzzzzzzzzzzzzzzCCCCCCCCCCCCCCCCCCCCCCCCCCCCCCCCCCCCCCC..........          ",
"          ..........=>>>>>>>O>zzzzzzzzzzzzzzzzzzzzzzzzzzzzzzzzzzzzzzzCCCCCCCCCCCCCCCCCCCCCCCCCCCCCCCCCCCCCCC..........          ",
"          ..........=>>>>>>>O>zzzzzzzzzzzzzzzzzzzzzzzzzzzzzzzzzzzzzzzCCCCCCCCCCCCCCCCCCCCCCCCCCCCCCCCCCCCCCC..........          ",
"          ..........=>>>>>>>O>zzzzzzzzzzzzzzzzzzzzzzzzzzzzzzzzzzzzzzzCCCCCCCCCCCCCCCCCCCCCCCCCCCCCCCCCCCCCCC..........          ",
"          ..........>>>>>>>>>4BjjjjjjjjzzxzzzzzzzzzzzzzzzzzzzzzzzzzzzCCCCCCCCCCCCCCCCCCCCCCCCCCCCCCCCCCCCCCC..........          ",
"                    ..........>>>>>>>>>izxdzzzzzzzzzzzzzzzzzzzzzzzzzzCCCCCCCCCCCCCCCCCCCCCCCCCCCCC..........                    ",
"                    ..........=>>>>>>>%zzzxxzzzzzzzzzzzzzzzzzzzzzzzzzCCCCCCCCCCCCCCCCCCCCCCCCCCCCC..........                    ",
"                    ..........=>>>>>>>%zzzzzzzzzzzzzzzzzzzzzzzzzzzzzzCCCCCCCCCCCCCCCCCCCCCCCCCCCCC..........                    ",
"                    ..........=>>>>>>>%zzzzzlnlzzzzzzzzzzzzzzzzzzzzzzCCCCCCCCCCCCCCCCCCCCCCCCCCCCC..........                    ",
"                    ..........*>>>>>>>%zzzzznlzzzzzzzzzzzzzzzzzzzzzzzCCCCCCCCCCCCCCCCCCCCCCCCCCCCC..........                    ",
"                    ..........=>>>>>>>OzxzlzzzzzzzzzzzzzzzzzzzzzzzzzzCCCCCCCCCCCCCCCCCCCCCCCCCCCCC..........                    ",
"                    ..........=>>>>>>>%zzznlzzzzzzzzzzzzzzzzzzzzzzzzzCCCCCCCCCCCCCCCCCCCCCCCCCCCCC..........                    ",
"                    ..........=>>>>>>>%zzzxlzzzzlzzzzzzzzzzzzzzzzzzzzCCCCCCCCCCCCCCCCCCCCCCCCCCCCC..........                    ",
"                    ..........*>>>>>>>%zzzznlzzzblzzzzzzzzzzzzzzzzzzzCCCCCCCCCCCCCCCCCCCCCCCCCCCCC..........                    ",
"                    ..........>>>>>>>>>zgjjjjjjjVzxzzzzzzzzzzzzzzzzzzCCCCCCCCCCCCCCCCCCCCCCCCCCCCC..........                    ",
"                              .........>>>>>>>>>>uzzxdzzzzzzzzzzzzzzzCCCCCCCCCCCCCCCCCCCC.........                              ",
"                              .........>,>>>>>>>%zzzzzxzzzzzzzzzzzzzzCCCCCCCCCCCCCCCCCCCC.........                              ",
"                              .........>,>>>>>>>%zzzzzzzzzzzzzzzzzzzzCCCCCCCCCCCCCCCCCCCC.........                              ",
"                              .........>,>>>>>>>&zxzzzzzzzzzzzzzzzzzzCCCCCCCCCCCCCCCCCCCC.........                              ",
"                              .........>:>O1>>>>#zzzzzzzzzzzzzzzzzzzzCCCCCCCCCCCCCCCCCCCC.........                              ",
"                              .........>,>1>>>>@#zzxzzzzzzzzzzzzzzzzzCCCCCCCCCCCCCCCCCCCC.........                              ",
"                              .........>+>>>>>>>$zzzzzzzzzzzzzzzzzzzzCCCCCCCCCCCCCCCCCCCC.........                              ",
"                              .........>,>>@>>>>$zzzzzzzzzzzzzzzzzzzzCCCCCCCCCCCCCCCCCCCC.........                              ",
"                              .........>,>>@O>>>%zzzzzzzzzzzdnlzzzzzzCCCCCCCCCCCCCCCCCCCC.........                              ",
"                              .........>>>>>>>>>>zzzzzzzzzzzzdzzzzzzzCCCCCCCCCCCCCCCCCCCC.........                              ",
"                                       ..........>ww0w0w0erpzzzzzzzzzCCCCCCCCCC..........                                       ",
"                                       ..........>,>>>>>3>4zxzzzzzzzzCCCCCCCCCC..........                                       ",
"                                       ..........>+1>>>>>3%zxzzzzzzzzCCCCCCCCCC..........                                       ",
"                                       ..........>,>>>>>>>%zzxzzlnzzzCCCCCCCCCC..........                                       ",
"                                       ..........>,>>>>>>>%zzmlzzlzzzCCCCCCCCCC..........                                       ",
"                                       ..........>,>>>>>>>%zzlzzzzzzzCCCCCCCCCC..........                                       ",
"                                       ..........>+>>>>>>>%zzzzzzzzzzCCCCCCCCCC..........                                       ",
"                                       ..........>,>>>1>>@#zmnlzzdzkzCCCCCCCCCC..........                                       ",
"                                       ..........>>>>,>,>>#zznzzzzdzzCCCCCCCCCC..........                                       ",
"                                       ..........>>>>>>>>>>zzzzzzzzzzCCCCCCCCCC..........                                       ",
"                                                 ..........>780w9w0q>..........                                                 ",
"                                                 ..........>,>>>>>>,>..........                                                 ",
"                                                 ..........>,>>>>>>,>..........                                                 ",
"                                                 ..........>,>>>>>>,>..........                                                 ",
"                                                 ..........>,>>>>>>,>..........                                                 ",
"                                                 ..........>,>>>>>>,>..........                                                 ",
"                                                 ..........>,>>>>>>,>..........                                                 ",
"                                                 ..........>,>>>>>>,>..........                                                 ",
"                                                 ..........>,>>>>>>,>..........                                                 ",
"                                                 ..........>>>>>>>>>>..........                                                 ",
"                                                           ..........                                                           ",
"                                                           ..........                                                           ",
"                                                           ..........                                                           ",
"                                                           ..........                                                           ",
"                                                           ..........                                                           ",
"                                                           ..........                                                           ",
"                                                           ..........                                                           ",
"                                                           ..........                                                           ",
"                                                           ..........                                                           "
};
