/* XPM */
static char *_2354_222c9fdd164370e2b5be959778e84f88f4ec3d41270aee48bd375ab5eefbd702[] = {
/* columns rows colors chars-per-pixel */
"128 128 3 1 ",
"  c black",
". c #070707",
"X c white",
/* pixels */
"                                                                                                                                ",
"                                                                                                                                ",
"                                                                                                                                ",
"                                                                                                                                ",
"                                                                                                                                ",
"                                                                                                                                ",
"                                                                                                                                ",
"                                                                                                                                ",
"                                                                                                                                ",
"                                                                                                                                ",
"                                                                                                                                ",
"                                                                                                                                ",
"                                                                                                                                ",
"                                                                                                                                ",
"                                                                                                                                ",
"                                                                                                                                ",
"                                                                                                                                ",
"                                                                                                                                ",
"                                                                                                                                ",
"                                                                                                                                ",
"                              ...................                              ...................                              ",
"                              ...................                              ...................                              ",
"                              ...................                              ...................                              ",
"                              ...................                              ...................                              ",
"                              ...................                              ...................                              ",
"                              ...................                              ...................                              ",
"                              ...................                              ...................                              ",
"                              ...................                              ...................                              ",
"                              ...................                              ...................                              ",
"                              ...................                              ...................                              ",
"                    ..........XXXXXXXXXXXXXXXXXXX..........          ..........XXXXXXXXXXXXXXXXXXX..........                    ",
"                    ..........XXXXXXXXXXXXXXXXXXX..........          ..........XXXXXXXXXXXXXXXXXXX..........                    ",
"                    ..........XXXXXXXXXXXXXXXXXXX..........          ..........XXXXXXXXXXXXXXXXXXX..........                    ",
"                    ..........XXXXXXXXXXXXXXXXXXX..........          ..........XXXXXXXXXXXXXXXXXXX..........                    ",
"                    ..........XXXXXXXXXXXXXXXXXXX..........          ..........XXXXXXXXXXXXXXXXXXX..........                    ",
"                    ..........XXXXXXXXXXXXXXXXXXX..........          ..........XXXXXXXXXXXXXXXXXXX..........                    ",
"                    ..........XXXXXXXXXXXXXXXXXXX..........          ..........XXXXXXXXXXXXXXXXXXX..........                    ",
"                    ..........XXXXXXXXXXXXXXXXXXX..........          ..........XXXXXXXXXXXXXXXXXXX..........                    ",
"                    ..........XXXXXXXXXXXXXXXXXXX..........          ..........XXXXXXXXXXXXXXXXXXX..........                    ",
"                    ..........XXXXXXXXXXXXXXXXXXX..........          ..........XXXXXXXXXXXXXXXXXXX..........                    ",
"          ..........XXXXXXXXXXXXXXXXXXXXXXXXXXXXXXXXXXXXXXX..........XXXXXXXXXXXXXXXXXXXXXXXXXXXXXXXXXXXXXXX..........          ",
"          ..........XXXXXXXXXXXXXXXXXXXXXXXXXXXXXXXXXXXXXXX..........XXXXXXXXXXXXXXXXXXXXXXXXXXXXXXXXXXXXXXX..........          ",
"          ..........XXXXXXXXXXXXXXXXXXXXXXXXXXXXXXXXXXXXXXX..........XXXXXXXXXXXXXXXXXXXXXXXXXXXXXXXXXXXXXXX..........          ",
"          ..........XXXXXXXXXXXXXXXXXXXXXXXXXXXXXXXXXXXXXXX..........XXXXXXXXXXXXXXXXXXXXXXXXXXXXXXXXXXXXXXX..........          ",
"          ..........XXXXXXXXXXXXXXXXXXXXXXXXXXXXXXXXXXXXXXX..........XXXXXXXXXXXXXXXXXXXXXXXXXXXXXXXXXXXXXXX..........          ",
"          ..........XXXXXXXXXXXXXXXXXXXXXXXXXXXXXXXXXXXXXXX..........XXXXXXXXXXXXXXXXXXXXXXXXXXXXXXXXXXXXXXX..........          ",
"          ..........XXXXXXXXXXXXXXXXXXXXXXXXXXXXXXXXXXXXXXX..........XXXXXXXXXXXXXXXXXXXXXXXXXXXXXXXXXXXXXXX..........          ",
"          ..........XXXXXXXXXXXXXXXXXXXXXXXXXXXXXXXXXXXXXXX..........XXXXXXXXXXXXXXXXXXXXXXXXXXXXXXXXXXXXXXX..........          ",
"          ..........XXXXXXXXXXXXXXXXXXXXXXXXXXXXXXXXXXXXXXX..........XXXXXXXXXXXXXXXXXXXXXXXXXXXXXXXXXXXXXXX..........          ",
"          ..........XXXXXXXXXXXXXXXXXXXXXXXXXXXXXXXXXXXXXXX..........XXXXXXXXXXXXXXXXXXXXXXXXXXXXXXXXXXXXXXX..........          ",
"          ..........XXXXXXXXXXXXXXXXXXXXXXXXXXXXXXXXXXXXXXXXXXXXXXXXXXXXXXXXXXXXXXXXXXXXXXXXXXXXXXXXXXXXXXXX..........          ",
"          ..........XXXXXXXXXXXXXXXXXXXXXXXXXXXXXXXXXXXXXXXXXXXXXXXXXXXXXXXXXXXXXXXXXXXXXXXXXXXXXXXXXXXXXXXX..........          ",
"          ..........XXXXXXXXXXXXXXXXXXXXXXXXXXXXXXXXXXXXXXXXXXXXXXXXXXXXXXXXXXXXXXXXXXXXXXXXXXXXXXXXXXXXXXXX..........          ",
"          ..........XXXXXXXXXXXXXXXXXXXXXXXXXXXXXXXXXXXXXXXXXXXXXXXXXXXXXXXXXXXXXXXXXXXXXXXXXXXXXXXXXXXXXXXX..........          ",
"          ..........XXXXXXXXXXXXXXXXXXXXXXXXXXXXXXXXXXXXXXXXXXXXXXXXXXXXXXXXXXXXXXXXXXXXXXXXXXXXXXXXXXXXXXXX..........          ",
"          ..........XXXXXXXXXXXXXXXXXXXXXXXXXXXXXXXXXXXXXXXXXXXXXXXXXXXXXXXXXXXXXXXXXXXXXXXXXXXXXXXXXXXXXXXX..........          ",
"          ..........XXXXXXXXXXXXXXXXXXXXXXXXXXXXXXXXXXXXXXXXXXXXXXXXXXXXXXXXXXXXXXXXXXXXXXXXXXXXXXXXXXXXXXXX..........          ",
"          ..........XXXXXXXXXXXXXXXXXXXXXXXXXXXXXXXXXXXXXXXXXXXXXXXXXXXXXXXXXXXXXXXXXXXXXXXXXXXXXXXXXXXXXXXX..........          ",
"          ..........XXXXXXXXXXXXXXXXXXXXXXXXXXXXXXXXXXXXXXXXXXXXXXXXXXXXXXXXXXXXXXXXXXXXXXXXXXXXXXXXXXXXXXXX..........          ",
"          ..........XXXXXXXXXXXXXXXXXXXXXXXXXXXXXXXXXXXXXXXXXXXXXXXXXXXXXXXXXXXXXXXXXXXXXXXXXXXXXXXXXXXXXXXX..........          ",
"          ..........XXXXXXXXXXXXXXXXXXXXXXXXXXXXXXXXXXXXXXXXXXXXXXXXXXXXXXXXXXXXXXXXXXXXXXXXXXXXXXXXXXXXXXXX..........          ",
"          ..........XXXXXXXXXXXXXXXXXXXXXXXXXXXXXXXXXXXXXXXXXXXXXXXXXXXXXXXXXXXXXXXXXXXXXXXXXXXXXXXXXXXXXXXX..........          ",
"          ..........XXXXXXXXXXXXXXXXXXXXXXXXXXXXXXXXXXXXXXXXXXXXXXXXXXXXXXXXXXXXXXXXXXXXXXXXXXXXXXXXXXXXXXXX..........          ",
"          ..........XXXXXXXXXXXXXXXXXXXXXXXXXXXXXXXXXXXXXXXXXXXXXXXXXXXXXXXXXXXXXXXXXXXXXXXXXXXXXXXXXXXXXXXX..........          ",
"          ..........XXXXXXXXXXXXXXXXXXXXXXXXXXXXXXXXXXXXXXXXXXXXXXXXXXXXXXXXXXXXXXXXXXXXXXXXXXXXXXXXXXXXXXXX..........          ",
"          ..........XXXXXXXXXXXXXXXXXXXXXXXXXXXXXXXXXXXXXXXXXXXXXXXXXXXXXXXXXXXXXXXXXXXXXXXXXXXXXXXXXXXXXXXX..........          ",
"          ..........XXXXXXXXXXXXXXXXXXXXXXXXXXXXXXXXXXXXXXXXXXXXXXXXXXXXXXXXXXXXXXXXXXXXXXXXXXXXXXXXXXXXXXXX..........          ",
"          ..........XXXXXXXXXXXXXXXXXXXXXXXXXXXXXXXXXXXXXXXXXXXXXXXXXXXXXXXXXXXXXXXXXXXXXXXXXXXXXXXXXXXXXXXX..........          ",
"          ..........XXXXXXXXXXXXXXXXXXXXXXXXXXXXXXXXXXXXXXXXXXXXXXXXXXXXXXXXXXXXXXXXXXXXXXXXXXXXXXXXXXXXXXXX..........          ",
"          ..........XXXXXXXXXXXXXXXXXXXXXXXXXXXXXXXXXXXXXXXXXXXXXXXXXXXXXXXXXXXXXXXXXXXXXXXXXXXXXXXXXXXXXXXX..........          ",
"          ..........XXXXXXXXXXXXXXXXXXXXXXXXXXXXXXXXXXXXXXXXXXXXXXXXXXXXXXXXXXXXXXXXXXXXXXXXXXXXXXXXXXXXXXXX..........          ",
"          ..........XXXXXXXXXXXXXXXXXXXXXXXXXXXXXXXXXXXXXXXXXXXXXXXXXXXXXXXXXXXXXXXXXXXXXXXXXXXXXXXXXXXXXXXX..........          ",
"          ..........XXXXXXXXXXXXXXXXXXXXXXXXXXXXXXXXXXXXXXXXXXXXXXXXXXXXXXXXXXXXXXXXXXXXXXXXXXXXXXXXXXXXXXXX..........          ",
"          ..........XXXXXXXXXXXXXXXXXXXXXXXXXXXXXXXXXXXXXXXXXXXXXXXXXXXXXXXXXXXXXXXXXXXXXXXXXXXXXXXXXXXXXXXX..........          ",
"          ..........XXXXXXXXXXXXXXXXXXXXXXXXXXXXXXXXXXXXXXXXXXXXXXXXXXXXXXXXXXXXXXXXXXXXXXXXXXXXXXXXXXXXXXXX..........          ",
"          ..........XXXXXXXXXXXXXXXXXXXXXXXXXXXXXXXXXXXXXXXXXXXXXXXXXXXXXXXXXXXXXXXXXXXXXXXXXXXXXXXXXXXXXXXX..........          ",
"          ..........XXXXXXXXXXXXXXXXXXXXXXXXXXXXXXXXXXXXXXXXXXXXXXXXXXXXXXXXXXXXXXXXXXXXXXXXXXXXXXXXXXXXXXXX..........          ",
"          ..........XXXXXXXXXXXXXXXXXXXXXXXXXXXXXXXXXXXXXXXXXXXXXXXXXXXXXXXXXXXXXXXXXXXXXXXXXXXXXXXXXXXXXXXX..........          ",
"          ..........XXXXXXXXXXXXXXXXXXXXXXXXXXXXXXXXXXXXXXXXXXXXXXXXXXXXXXXXXXXXXXXXXXXXXXXXXXXXXXXXXXXXXXXX..........          ",
"                    ..........XXXXXXXXXXXXXXXXXXXXXXXXXXXXXXXXXXXXXXXXXXXXXXXXXXXXXXXXXXXXXXXXXXXX..........                    ",
"                    ..........XXXXXXXXXXXXXXXXXXXXXXXXXXXXXXXXXXXXXXXXXXXXXXXXXXXXXXXXXXXXXXXXXXXX..........                    ",
"                    ..........XXXXXXXXXXXXXXXXXXXXXXXXXXXXXXXXXXXXXXXXXXXXXXXXXXXXXXXXXXXXXXXXXXXX..........                    ",
"                    ..........XXXXXXXXXXXXXXXXXXXXXXXXXXXXXXXXXXXXXXXXXXXXXXXXXXXXXXXXXXXXXXXXXXXX..........                    ",
"                    ..........XXXXXXXXXXXXXXXXXXXXXXXXXXXXXXXXXXXXXXXXXXXXXXXXXXXXXXXXXXXXXXXXXXXX..........                    ",
"                    ..........XXXXXXXXXXXXXXXXXXXXXXXXXXXXXXXXXXXXXXXXXXXXXXXXXXXXXXXXXXXXXXXXXXXX..........                    ",
"                    ..........XXXXXXXXXXXXXXXXXXXXXXXXXXXXXXXXXXXXXXXXXXXXXXXXXXXXXXXXXXXXXXXXXXXX..........                    ",
"                    ..........XXXXXXXXXXXXXXXXXXXXXXXXXXXXXXXXXXXXXXXXXXXXXXXXXXXXXXXXXXXXXXXXXXXX..........                    ",
"                    ..........XXXXXXXXXXXXXXXXXXXXXXXXXXXXXXXXXXXXXXXXXXXXXXXXXXXXXXXXXXXXXXXXXXXX..........                    ",
"                    ..........XXXXXXXXXXXXXXXXXXXXXXXXXXXXXXXXXXXXXXXXXXXXXXXXXXXXXXXXXXXXXXXXXXXX..........                    ",
"                              .........XXXXXXXXXXXXXXXXXXXXXXXXXXXXXXXXXXXXXXXXXXXXXXXXXX.........                              ",
"                              .........XXXXXXXXXXXXXXXXXXXXXXXXXXXXXXXXXXXXXXXXXXXXXXXXXX.........                              ",
"                              .........XXXXXXXXXXXXXXXXXXXXXXXXXXXXXXXXXXXXXXXXXXXXXXXXXX.........                              ",
"                              .........XXXXXXXXXXXXXXXXXXXXXXXXXXXXXXXXXXXXXXXXXXXXXXXXXX.........                              ",
"                              .........XXXXXXXXXXXXXXXXXXXXXXXXXXXXXXXXXXXXXXXXXXXXXXXXXX.........                              ",
"                              .........XXXXXXXXXXXXXXXXXXXXXXXXXXXXXXXXXXXXXXXXXXXXXXXXXX.........                              ",
"                              .........XXXXXXXXXXXXXXXXXXXXXXXXXXXXXXXXXXXXXXXXXXXXXXXXXX.........                              ",
"                              .........XXXXXXXXXXXXXXXXXXXXXXXXXXXXXXXXXXXXXXXXXXXXXXXXXX.........                              ",
"                              .........XXXXXXXXXXXXXXXXXXXXXXXXXXXXXXXXXXXXXXXXXXXXXXXXXX.........                              ",
"                              .........XXXXXXXXXXXXXXXXXXXXXXXXXXXXXXXXXXXXXXXXXXXXXXXXXX.........                              ",
"                                       ..........XXXXXXXXXXXXXXXXXXXXXXXXXXXXXX..........                                       ",
"                                       ..........XXXXXXXXXXXXXXXXXXXXXXXXXXXXXX..........                                       ",
"                                       ..........XXXXXXXXXXXXXXXXXXXXXXXXXXXXXX..........                                       ",
"                                       ..........XXXXXXXXXXXXXXXXXXXXXXXXXXXXXX..........                                       ",
"                                       ..........XXXXXXXXXXXXXXXXXXXXXXXXXXXXXX..........                                       ",
"                                       ..........XXXXXXXXXXXXXXXXXXXXXXXXXXXXXX..........                                       ",
"                                       ..........XXXXXXXXXXXXXXXXXXXXXXXXXXXXXX..........                                       ",
"                                       ..........XXXXXXXXXXXXXXXXXXXXXXXXXXXXXX..........                                       ",
"                                       ..........XXXXXXXXXXXXXXXXXXXXXXXXXXXXXX..........                                       ",
"                                       ..........XXXXXXXXXXXXXXXXXXXXXXXXXXXXXX..........                                       ",
"                                                 ..........XXXXXXXXXX..........                                                 ",
"                                                 ..........XXXXXXXXXX..........                                                 ",
"                                                 ..........XXXXXXXXXX..........                                                 ",
"                                                 ..........XXXXXXXXXX..........                                                 ",
"                                                 ..........XXXXXXXXXX..........                                                 ",
"                                                 ..........XXXXXXXXXX..........                                                 ",
"                                                 ..........XXXXXXXXXX..........                                                 ",
"                                                 ..........XXXXXXXXXX..........                                                 ",
"                                                 ..........XXXXXXXXXX..........                                                 ",
"                                                 ..........XXXXXXXXXX..........                                                 ",
"                                                           ..........                                                           ",
"                                                           ..........                                                           ",
"                                                           ..........                                                           ",
"                                                           ..........                                                           ",
"                                                           ..........                                                           ",
"                                                           ..........                                                           ",
"                                                           ..........                                                           ",
"                                                           ..........                                                           ",
"                                                           ..........                                                           "
};
