/* XPM */
static char *_d464426a2124d1ec9b559d60a93798fgjul0dOJSATp9tyM[] = {
/* columns rows colors chars-per-pixel */
"128 128 12 1 ",
"  c black",
". c gray19",
"X c #B3001E",
"o c #FF002A",
"O c #8C6239",
"+ c #A67C52",
"@ c #AEAEAE",
"# c #CABEB2",
"$ c #D2C6B9",
"% c gray77",
"& c #DADADA",
"* c white",
/* pixels */
"                                                                                                                                ",
"                                                                                                                                ",
"                                                                                                                                ",
"                                                                                                                                ",
"                                                                                                                                ",
"                                                                                                                                ",
"                                                                                                                                ",
"                                                                                                                                ",
"                                                ................................                                                ",
"                                                ................................                                                ",
"                                                ................................                                                ",
"                                                ................................                                                ",
"                                                ................................                                                ",
"                                                ................................                                                ",
"                                                ................................                                                ",
"                                                ................................                                                ",
"                                ........................OOOOOOOO++++++++........................                                ",
"                                ........................OOOOOOOO++++++++........................                                ",
"                                ........................OOOOOOOO++++++++........................                                ",
"                                ........................OOOOOOOO++++++++........................                                ",
"                                ........................OOOOOOOO++++++++........................                                ",
"                                ........................OOOOOOOO++++++++........................                                ",
"                                ........................OOOOOOOO++++++++........................                                ",
"                                ........................OOOOOOOO++++++++........................                                ",
"                                ........@@@@@@@@@@@@@@@@########$$$$$$$$&&&&&&&&&&&&&&&&........                                ",
"                                ........@@@@@@@@@@@@@@@@########$$$$$$$$&&&&&&&&&&&&&&&&........                                ",
"                                ........@@@@@@@@@@@@@@@@########$$$$$$$$&&&&&&&&&&&&&&&&........                                ",
"                                ........@@@@@@@@@@@@@@@@########$$$$$$$$&&&&&&&&&&&&&&&&........                                ",
"                                ........@@@@@@@@@@@@@@@@########$$$$$$$$&&&&&&&&&&&&&&&&........                                ",
"                                ........@@@@@@@@@@@@@@@@########$$$$$$$$&&&&&&&&&&&&&&&&........                                ",
"                                ........@@@@@@@@@@@@@@@@########$$$$$$$$&&&&&&&&&&&&&&&&........                                ",
"                                ........@@@@@@@@@@@@@@@@########$$$$$$$$&&&&&&&&&&&&&&&&........                                ",
"                                ................@@@@@@@@OOOOOOOO++++++++&&&&&&&&................                                ",
"                                ................@@@@@@@@OOOOOOOO++++++++&&&&&&&&................                                ",
"                                ................@@@@@@@@OOOOOOOO++++++++&&&&&&&&................                                ",
"                                ................@@@@@@@@OOOOOOOO++++++++&&&&&&&&................                                ",
"                                ................@@@@@@@@OOOOOOOO++++++++&&&&&&&&................                                ",
"                                ................@@@@@@@@OOOOOOOO++++++++&&&&&&&&................                                ",
"                                ................@@@@@@@@OOOOOOOO++++++++&&&&&&&&................                                ",
"                                ................@@@@@@@@OOOOOOOO++++++++&&&&&&&&................                                ",
"                                        ........@@@@@@@@................&&&&&&&&........                                        ",
"                                        ........@@@@@@@@................&&&&&&&&........                                        ",
"                                        ........@@@@@@@@................&&&&&&&&........                                        ",
"                                        ........@@@@@@@@................&&&&&&&&........                                        ",
"                                        ........@@@@@@@@................&&&&&&&&........                                        ",
"                                        ........@@@@@@@@................&&&&&&&&........                                        ",
"                                        ........@@@@@@@@................&&&&&&&&........                                        ",
"                                        ........@@@@@@@@................&&&&&&&&........                                        ",
"                                ................@@@@@@@@................&&&&&&&&................                                ",
"                                ................@@@@@@@@................&&&&&&&&................                                ",
"                                ................@@@@@@@@................&&&&&&&&................                                ",
"                                ................@@@@@@@@................&&&&&&&&................                                ",
"                                ................@@@@@@@@................&&&&&&&&................                                ",
"                                ................@@@@@@@@................&&&&&&&&................                                ",
"                                ................@@@@@@@@................&&&&&&&&................                                ",
"                                ................@@@@@@@@................&&&&&&&&................                                ",
"                        ................@@@@@@@@................................&&&&&&&&................                        ",
"                        ................@@@@@@@@................................&&&&&&&&................                        ",
"                        ................@@@@@@@@................................&&&&&&&&................                        ",
"                        ................@@@@@@@@................................&&&&&&&&................                        ",
"                        ................@@@@@@@@................................&&&&&&&&................                        ",
"                        ................@@@@@@@@................................&&&&&&&&................                        ",
"                        ................@@@@@@@@................................&&&&&&&&................                        ",
"                        ................@@@@@@@@................................&&&&&&&&................                        ",
"                        ........@@@@@@@@................................................&&&&&&&&........                        ",
"                        ........@@@@@@@@................................................&&&&&&&&........                        ",
"                        ........@@@@@@@@................................................&&&&&&&&........                        ",
"                        ........@@@@@@@@................................................&&&&&&&&........                        ",
"                        ........@@@@@@@@................................................&&&&&&&&........                        ",
"                        ........@@@@@@@@................................................&&&&&&&&........                        ",
"                        ........@@@@@@@@................................................&&&&&&&&........                        ",
"                        ........@@@@@@@@................................................&&&&&&&&........                        ",
"                        ........@@@@@@@@XXXXXXXXXXXXXXXXoooooooooooooooo********oooooooo&&&&&&&&........                        ",
"                        ........@@@@@@@@XXXXXXXXXXXXXXXXoooooooooooooooo********oooooooo&&&&&&&&........                        ",
"                        ........@@@@@@@@XXXXXXXXXXXXXXXXoooooooooooooooo********oooooooo&&&&&&&&........                        ",
"                        ........@@@@@@@@XXXXXXXXXXXXXXXXoooooooooooooooo********oooooooo&&&&&&&&........                        ",
"                        ........@@@@@@@@XXXXXXXXXXXXXXXXoooooooooooooooo********oooooooo&&&&&&&&........                        ",
"                        ........@@@@@@@@XXXXXXXXXXXXXXXXoooooooooooooooo********oooooooo&&&&&&&&........                        ",
"                        ........@@@@@@@@XXXXXXXXXXXXXXXXoooooooooooooooo********oooooooo&&&&&&&&........                        ",
"                        ........@@@@@@@@XXXXXXXXXXXXXXXXoooooooooooooooo********oooooooo&&&&&&&&........                        ",
"                        ........@@@@@@@@XXXXXXXXXXXXXXXXoooooooooooooooo********oooooooo&&&&&&&&........                        ",
"                        ........@@@@@@@@XXXXXXXXXXXXXXXXoooooooooooooooo********oooooooo&&&&&&&&........                        ",
"                        ........@@@@@@@@XXXXXXXXXXXXXXXXoooooooooooooooo********oooooooo&&&&&&&&........                        ",
"                        ........@@@@@@@@XXXXXXXXXXXXXXXXoooooooooooooooo********oooooooo&&&&&&&&........                        ",
"                        ........@@@@@@@@XXXXXXXXXXXXXXXXoooooooooooooooo********oooooooo&&&&&&&&........                        ",
"                        ........@@@@@@@@XXXXXXXXXXXXXXXXoooooooooooooooo********oooooooo&&&&&&&&........                        ",
"                        ........@@@@@@@@XXXXXXXXXXXXXXXXoooooooooooooooo********oooooooo&&&&&&&&........                        ",
"                        ........@@@@@@@@XXXXXXXXXXXXXXXXoooooooooooooooo********oooooooo&&&&&&&&........                        ",
"                        ........@@@@@@@@XXXXXXXXXXXXXXXXoooooooooooooooooooooooooooooooo&&&&&&&&........                        ",
"                        ........@@@@@@@@XXXXXXXXXXXXXXXXoooooooooooooooooooooooooooooooo&&&&&&&&........                        ",
"                        ........@@@@@@@@XXXXXXXXXXXXXXXXoooooooooooooooooooooooooooooooo&&&&&&&&........                        ",
"                        ........@@@@@@@@XXXXXXXXXXXXXXXXoooooooooooooooooooooooooooooooo&&&&&&&&........                        ",
"                        ........@@@@@@@@XXXXXXXXXXXXXXXXoooooooooooooooooooooooooooooooo&&&&&&&&........                        ",
"                        ........@@@@@@@@XXXXXXXXXXXXXXXXoooooooooooooooooooooooooooooooo&&&&&&&&........                        ",
"                        ........@@@@@@@@XXXXXXXXXXXXXXXXoooooooooooooooooooooooooooooooo&&&&&&&&........                        ",
"                        ........@@@@@@@@XXXXXXXXXXXXXXXXoooooooooooooooooooooooooooooooo&&&&&&&&........                        ",
"                        ................@@@@@@@@XXXXXXXXXXXXXXXXoooooooooooooooo&&&&&&&&................                        ",
"                        ................@@@@@@@@XXXXXXXXXXXXXXXXoooooooooooooooo&&&&&&&&................                        ",
"                        ................@@@@@@@@XXXXXXXXXXXXXXXXoooooooooooooooo&&&&&&&&................                        ",
"                        ................@@@@@@@@XXXXXXXXXXXXXXXXoooooooooooooooo&&&&&&&&................                        ",
"                        ................@@@@@@@@XXXXXXXXXXXXXXXXoooooooooooooooo&&&&&&&&................                        ",
"                        ................@@@@@@@@XXXXXXXXXXXXXXXXoooooooooooooooo&&&&&&&&................                        ",
"                        ................@@@@@@@@XXXXXXXXXXXXXXXXoooooooooooooooo&&&&&&&&................                        ",
"                        ................@@@@@@@@XXXXXXXXXXXXXXXXoooooooooooooooo&&&&&&&&................                        ",
"                                ................@@@@@@@@%%%%%%%%%%%%%%%%&&&&&&&&................                                ",
"                                ................@@@@@@@@%%%%%%%%%%%%%%%%&&&&&&&&................                                ",
"                                ................@@@@@@@@%%%%%%%%%%%%%%%%&&&&&&&&................                                ",
"                                ................@@@@@@@@%%%%%%%%%%%%%%%%&&&&&&&&................                                ",
"                                ................@@@@@@@@%%%%%%%%%%%%%%%%&&&&&&&&................                                ",
"                                ................@@@@@@@@%%%%%%%%%%%%%%%%&&&&&&&&................                                ",
"                                ................@@@@@@@@%%%%%%%%%%%%%%%%&&&&&&&&................                                ",
"                                ................@@@@@@@@%%%%%%%%%%%%%%%%&&&&&&&&................                                ",
"                                        ................................................                                        ",
"                                        ................................................                                        ",
"                                        ................................................                                        ",
"                                        ................................................                                        ",
"                                        ................................................                                        ",
"                                        ................................................                                        ",
"                                        ................................................                                        ",
"                                        ................................................                                        ",
"                                                                                                                                ",
"                                                                                                                                ",
"                                                                                                                                ",
"                                                                                                                                ",
"                                                                                                                                ",
"                                                                                                                                ",
"                                                                                                                                ",
"                                                                                                                                "
};
