/* XPM */
static char *_16cd2a43706459f822836d6dfb90016lpjHF4DMloc0D5b0[] = {
/* columns rows colors chars-per-pixel */
"32 32 28 1 ",
"  c black",
". c #542800",
"X c #612F02",
"o c #723600",
"O c #7D3F06",
"+ c #3D0E59",
"@ c #3B394E",
"# c #5A0F7A",
"$ c #4F4D63",
"% c #636178",
"& c #8D4B09",
"* c #9B5311",
"= c #A25F15",
"- c #BC7C14",
"; c #B47120",
": c #CC8818",
"> c #ECA017",
", c #F4AC2F",
"< c #FCBB39",
"1 c #FCC246",
"2 c #78109C",
"3 c #6D6B82",
"4 c #9510BD",
"5 c #B211DE",
"6 c #C54AE8",
"7 c #808097",
"8 c #9494AC",
"9 c #D781F3",
/* pixels */
"                                ",
"                                ",
"                                ",
"                                ",
"                                ",
"                                ",
"                                ",
"                                ",
"                                ",
"                                ",
"                                ",
"                                ",
"                                ",
"              &&o               ",
"             &:-=o              ",
"            ;:<>:;&             ",
"             XO=OX              ",
"              X&X               ",
"          O=-1,>>:;=&           ",
"           .X*OOOoX.            ",
"          @$ %     $@           ",
"         @$@$$     @$@          ",
"        @$@254######@$@         ",
"        $@4662#++####@$         ",
"        %#596#++++###2$         ",
"        3#565##+++##24$         ",
"        3#464#+++#5#25$         ",
"        %##52##+####25$         ",
"        %##422444###25$         ",
"        $##4#222222224$         ",
"        $##24444456544$         ",
"        $%387733333%%$$         "
};
