/* XPM */
static char *b74b806c24ca420aeeb727ad010a71e7V83tmo5JXD4usyZs[] = {
/* columns rows colors chars-per-pixel */
"32 32 26 1 ",
"  c black",
". c #412312",
"X c #572F17",
"o c #673B1F",
"O c #734323",
"+ c #3B394E",
"@ c #4F4D63",
"# c #636178",
"$ c #8D4B09",
"% c #A25F15",
"& c #A9671A",
"* c #BC7C14",
"= c #8F5B33",
"- c #B47120",
"; c #DC941C",
": c #F4AC2F",
"> c #FCC246",
", c #141798",
"< c #0303B8",
"1 c #6D6B82",
"2 c #0F29DC",
"3 c #4A4DC4",
"4 c #5B5ED3",
"5 c #6D70E2",
"6 c #369EEF",
"7 c #808097",
/* pixels */
"                                ",
"                                ",
"                                ",
"                                ",
"                                ",
"                                ",
"                                ",
"                                ",
"                                ",
"                                ",
"                                ",
"                                ",
"                                ",
"                                ",
"                                ",
"                                ",
"              o=Oo              ",
"              XoX.              ",
"             ->:;*%             ",
"              %*&$              ",
"             +,,2,+             ",
"             +3,,<@             ",
"             @5,,<+             ",
"             @62,<+             ",
"             @5,,<@             ",
"             #4,,2@             ",
"             #3,,3#             ",
"             12<,4#             ",
"             7<,<5#             ",
"             1,<24@             ",
"             @,323+             ",
"              +@@+              "
};
