/* XPM */
static char *backwards1626376813[] = {
/* columns rows colors chars-per-pixel */
"64 64 24 1 ",
"  c #464646",
". c #373737",
"X c #2C2C2C",
"o c #3B3C3B",
"O c #3F3F3F",
"+ c #4E4E4E",
"@ c gray19",
"# c gray14",
"$ c #060839",
"% c gray12",
"& c #565656",
"* c #5D5D5D",
"= c #181818",
"- c #101010",
"; c #0C10B8",
": c #020589",
"> c #020579",
", c #06099F",
"< c #61645F",
"1 c #000468",
"2 c #000460",
"3 c #656565",
"4 c #2028C8",
"5 c #000458",
/* pixels */
"+O X@+ O++ O + O++& o .++OOOO  O& +O  +.O O  O& +Oo o.X.  @oO.++",
"++&OO ++&o  ++  ++  .O.+   .O    &   ++ O.O    &  . .O@X  oO .+ ",
" +&   *&O@ ++++ +    O +  +   ++  ++ +OO .  O o&OO@ oo.@O     + ",
" ++  X%#%=%%###%#%#%%%%#%%X*  +O  ++*#%%%=%#%%%X%%%%%=%%#X*+O + ",
" +   X#X@X@.@o.@@XXX#X.X@o* @  +. +++*OXXXXXXX@XXX.X@#X@o 3+ +o ",
"O+   XX@... . @oXX@ XX o.*+OO  +O.+O &* .o.o....X@o..@@.O&3& + .",
"O+   XX.Xoooo .  Xo o.X+*+.Oo      oOo+*O.@oo..%X@o....@.+<+ .+o",
"  + +X... oo  o +.+oo  *+ o oOoX=oo  OO+*X.. ..#oXo..@o.o+< +   ",
" +& +X@ o oo    ooo.o+*+ O +Oo====@  OX.+*O.oo@Xo.o...oo +<     ",
"  +o X@  oo@  @oX .oO*+o.o  o==#X%= + X.+ * Xo@.oo...o.o .3 O o.",
"o &ooXX.o.X%X XXX+. *+ OO.Oo=#X@o.#= OO#++ *o@@@o ooooo.  &OO OO",
"O O @##XX@#X@ooo oX*+.+o Oo=%.o.o XX=.oX# oO*@@.o .ooo.@ +&+++o ",
"  o  X#.X..o.o   X*+   o+o=#X@@XX@oXX=..XOOO *o..o@.o... +&+O o+",
" +O  XXXXooo  oo+* OO  oo=#.ooo o o.X#=..OO . * oo.@oo.oo+3+. o ",
"O+O  %@Xooo+ @o *+ Oo+Oo=%X.o$$$$$o@@X#=.oo Oo&*OXoXooo o&<OOOo ",
"O O o%X#@  + X+*O+  O+o=%#oX@$1:1$@@XXX%=@o OOOO*@.@ooo o&3o.  .",
"OO o X#X@   @o*<O o+ o=#oo o $1,1$oo o X%=o   Xo+*o.oooo.+3OO+ X",
" . .+XX. ooX.*++++. o=#%$$$$$$1;1$$$$$$.X%=.++.O  *...oo.+O.  @.",
" O+O X@.  o * Oo++oo=%X.$11111:;:11111$o.X%=   o O *..Xoo+O+  Oo",
"  +  X@o o *+  @ +o=#Xoo$:,;;;444;;;,:$ ooXX=oO.O o+*OXo.&&+O  O",
"O+   X@oo *+O.O  o=#Xo@ $>22222;22222>$o..oX#= o  O.+*O..<&+ o+ ",
"O   OX@o *&  @@ o=X..o.o$$$$$$1,1$$$$$$Xo.@@X%=XO o. .*.o<<  O  ",
"oO   XXO*&   o o=#oo@oo@@@@XX$1:1$@@XXXXo@XXoX==XOXo . *O&3 O+  ",
"OoO +X@*++.O  o=#o.X@@@@oo@oo$1,1$X@@@@oo@ooo X%=ooooOO *O<O.+ +",
" OO  @*+ o XOo=X.+.$$$$$$$$$$$1;1$$$$$$$$$$$o  XX=.oo O.O*< .o@O",
"OOo o*O+O#oOo=#X o.$>,>>::::>:>;>:>::::>>,>$o o X%=. OOo.O  .X@X",
"oo.+O oO O.o=XXo.XX$:44;;,,;;;444;;;,,;;44:$X X+X#%=oO o. o+ #oO",
"o oO o@ ++o=XX@X@XX$>;>2555552>,>2555552>;>$oXXooX##=.+ O .+ .O+",
"+o&+O o  o=X.  .o o$>;1$$$$$$$1;1$$$$$$$1;>$o.X#o@X#%= O O   OO+",
" o   oo o=XXoo o   $1,1$.o .o$1,1$.XXX.$1,1$...X .X.X%=.  o  OOO",
"O ooo.oo==.ooX.o.  $1:1$X ..o$1:1$@X.@o$1:1$oX.......X%=o .O  +X",
"o.@oooo==@Xo..XX o $1:1$o#.oo$1:1$@Xo@@$1:1$XX@...ooooXX#% o. Oo",
"@oXOoOo=##@.X@.X.X.$1:1$XO.OX$1:1$O  o#$1:1$ ..OO.X XoX#=+O..  @",
"O  o .oo==XoXo.o.@X$2:1$X O.X$1,1$ O..X$1:2$X..  ...XX%=o .O  +X",
" ++  oo o=#Xo ....$$2;2$$ +.#$1;1$..o.$$2;2$$.OO  OX#==.  o  OOO",
"+ &+O o  o-#XOO . $:,4,:$o+ O$1;1$o o.$:,4,:$.O .O#%=- O O   OO+",
"  +O o@ ++o-#X@O. $>;;;>$.OXX$1;1$XX.o$>;;;>$.. XX%%-X+ O .+ .O+",
"o .+O oO OXo-##oOO$2,;,2$XX$$$141$$$@ $2,;,2$ OOX%=-o. o. o+ #oO",
"OOo o*O+O#o.o-%#O..$>,>$..@$,;444;,$#.o$>,>$XOO X=-XO.Oo.O  .X@X",
" OO  @*+ o X.o-#X .$2:2$XO.$$,;4;,$$##o$2:2$X.OX#-XooOO.O*< .o@O",
"OoO +X@*++X.O o-%oX.$>$O   .$>,;,>$ .o#.$>$@XOX=-oooo.O *O<O.+ +",
"oO   XXO*& OOo o-%oo$1$ O ..$$:,:$$%OO@#$1$XoX--#.#o X *O&3 O+  ",
"O   OX@o *+O @@Oo-#X$$$.. @.%$2:2$.%OX.@$$$@#=-X.OoX X*.o<<  O  ",
"O+   X@oo & .X.OOo-%#$.o.X.X#$$>$$OX+X  .$oX%- o O.X &O..<&+ o+ ",
"  +  X@o oO&+OO@O o-%#oO XO@@O$1$oOX+o. .oX#-o.X. o &.Xo.&&+O  O",
" O+O X@.  oO&O.o  oo-=XX..oX@ $$$.O.@   XX=-   o .O&XXXoo+O+  Oo",
" . .+XX. ooXX&    X o-%=X.X#XX $XoO X  XX=-X  X. O&XXXoo.+O.  @.",
"OO o X#X@ OO@o&<.Oo Oo-%XX@# .+ o  .X X#=-oO O#o &oXoooo.+3OO+ X",
"O O o%X#@ O+ X+&.  O. o-=%o.O  + XoXXXX=-@oO....&@X@ooo o&3o.  .",
"O+O  %@Xooo  @oO&+ .o .o-=XX.OXX.X%@@#%-Xoo .o+&.XoXooo o&<OOOo ",
" +O  XXXXoooOOoo &O..O oo-%Xo.X@@@@. %-XX..OXO& ooX@oo.oo+3+. o ",
"  o  X#.X.XoXo OO#&+O  o o-%X@@X#@oX#-XX#...O&oXXo@XoX.. +&+O o+",
"O O @##XX@%#@oooOo#& X oO.o-=XoXoOX#-Xo#%Oo.&@@XoOXooo.@ +&+++o ",
"o &ooXX.o.#=XOXXX XO& O..X.o-%X@oX%-O..%+ O&o@@@oOooooo.  &OO OO",
"  +o X@  oo@O @o# Xo.&+oXoO o--%X=-O+O#X+O&OXo@XooXXXo.o .3 O o.",
" +& +X@ o ooO OOoooXo+&+ .O .o----@OO.#X &.Xoo@XoXoXXXoo +<     ",
"  + +X... oo  o +.+oo  *+ o oOoX=oo  OO+*X.. ..#oXo..@o.o+< +   ",
"O+   XX.Xoooo .  Xo o.X+*+.Oo      oOo+*O.@oo..%X@o....@.+<+ .+o",
"O+   XX@... . @oXX@ XX o.*+OO  +O.+O &* .o.o....X@o..@@.O&3& + .",
" +   X#X@X@.@o.@@XXX#X.X@o* @  +. +++*OXXXXXXX@XXX.X@#X@o 3+ +o ",
" ++  X%#%=%%###%#%#%%%%#%%X*  +O  ++*#%%%=%#%%%X%%%%%=%%#X*+O + ",
" +&   *&O@ ++++ +    O +  +   ++  ++ +OO .  O o&OO@ oo.@O     + ",
"++&OO ++&o  ++  ++  .O.+   .O    &   ++ O.O    &  . .O@X  oO .+ ",
"+O X@+ O++ O + O++& o .++OOOO  O& +O  +.O O  O& +Oo o.X.  @oO.++"
};
