/* XPM */
static char *big_green1626376813[] = {
/* columns rows colors chars-per-pixel */
"64 64 55 1 ",
"  c #0D110D",
". c #121712",
"X c #171E17",
"o c #191E19",
"O c #172017",
"+ c #1A2E16",
"@ c #1B231A",
"# c #1F2A1F",
"$ c #1E321A",
"% c #21341E",
"& c #222D22",
"* c #253225",
"= c #283527",
"- c #273826",
"; c #2A352A",
": c #2D3C2D",
"> c #30362F",
", c #303E2F",
"< c #303730",
"1 c #323D32",
"2 c #3A3D3A",
"3 c #284224",
"4 c #2E432B",
"5 c #30412F",
"6 c #324D2C",
"7 c #33542B",
"8 c #325D28",
"9 c #334333",
"0 c #384537",
"q c #364935",
"w c #394B36",
"e c #3B443A",
"r c #3C4B3A",
"t c #375232",
"y c #3B5736",
"u c #395F31",
"i c #3D513B",
"p c #2F6323",
"a c #35632B",
"s c #40433F",
"d c #414B3E",
"f c #41523E",
"g c #424642",
"h c #454B44",
"j c #484F47",
"k c #4B4E49",
"l c #445342",
"z c #425941",
"x c #4D524C",
"c c #4B594A",
"v c #50534F",
"b c #535651",
"n c #555953",
"m c #585D56",
"M c #61655F",
/* pixels */
"<<1<;<<,06>*&**;;;;<*:<<&*#&*&;******#&&;11*;--<:;*&*;579:<><1<<",
"&&1ghvhdd7e9evlfkgsgg9e92eg;:1s:51e:;1gs1g01jgshglche9etgrvkh2;&",
"oo&gvd,*O+#evh,:*:9g:ee*o9g#1e1#@:ee**v#@:j;2s:-::9vj<O+#:9jv1oX",
"o*re:#@Oo*dd>#OO&1e*@#e1<nv&&gv9;hv:@emh*g;X@<g;XXo&9k1OXO@*2r1@",
"#eh&@&@O#eh*O#@@:q&@@&@@ejxj;:nMbMh&evjj;X&X#@59#@@#@2v;o@@#@1v;",
"*v:@&#@@*v<@*#@@e:O@*@*&9;*gve1jke9hk1&9**&##O#s-o&###ve@@####je",
"#h:o@@o@#h<@@@O&g&O###;@*#*O&1<@*#1<o#**#&-@#@Oe:@X@O#h1X@@@@#h:",
":>h&#oo#@<h&#oo#9&@&#OOO@**@XXX*:oOXX@:#oXXO*&O9;OX@#1g#@@X@#1g#",
"9;,-&:w91;:&2#X#e&#@#;@@@#@<2##:g#X<0&@##@;#@@Os:X@::;:*9:09;**:",
";99--9q1-**91@@#9*o&*#4#OO;ge#&#;#@:g<&X@*;:;@O0;X&-&#%*9r::9<##",
"#4;9999:99-q9@=@:*@99-8i&##@O#1#@:*@X@*o:9:99*@:*#:1938rh9d<qqf;",
"9;19991:5:=:-@:&#:#***49&o*#O@&*<*&O##&@5:*::@&-@*-&**95:9r:<9qf",
"r<152:;:;:;1;@--@#;:;:9e1O**@&@XXX&#&*X&:5;1-O&@#&:5-:q01:09*;99",
"99,:;0q:&-;;5*O*:;9q:q9:29@#*o@##@@&###<#*-;5*#;q550:05:2q:1qq55",
":qw1#00h**:wh*=9q*;:9eq91*:@;&@;<&**o#9h**:qh*;9q*::10091*e5:q::",
"#*;&*::qr*qq9*e<;&9e999;#;1&@*@99<;Xo:10r*0q9*e<-&521qq*&*9::9<&",
"$#@*qi919e5e:#s0:3i:<5<*11;1;#O*:#O::i91qe:s:@e9<3y:<5:*:9;1q955",
"9-$;9e19i::9<@9r99i1:;:s99e;::;#@&$::e15r::11#eqq5i<:;:s99e*9999",
"64;-::14q91&&X:95901-*:::*#:#91*q4:-::99q91*&X:91001:&::1*&:#9:*",
":at:-:::e52jg1<559<:5-*#;lce<:;;5aq:*:::r99gs#<951::5**#;hce;5:;",
"q4qq9:::e:99;2:11;::q1:e9ei:e:iuq4qq9:::9591:O:11;::0::01rq:2:iy",
"5,9,:;,::59:##;::::911:9q:;:191y5595:;5::19:&o:::5<021:9q:::199y",
"5;:::,:1:<1:1@*;5955:1::9::*:;:e5;;::::1:12:1#*;59:5:1-5::1;:*:q",
"55#:q99egg1;1@;<:::5q5;9:::59;:9:5#5qq92sg1*:;*::::5q5;q::559;:9",
";q;;:qr92:*::Og9::*:5:-9*:*:5q:*:9:;:qr99:-::9g9:;*:::*9;:*:9q:*",
":9::59wq5-:::@e191*#*:&;:*&*:99::5::59q95;90:&e599*&*:*;:&&-;99:",
"111;;**-:1:*@O9e9ee9:;q9*&&&*:qe191:;**;:5q&@O9s9ee95-eq*&&&&99e",
"e95:;**5qf:9:#21:9e9**:97piq9::qe1:::**9qi59:*21:9e9&*;97piq9::e",
"115;59:9q95:*O<9<2:999**96q9595::19;:9:99qr5:*<1:2:999**96q9:95:",
";1q;99:-:5:#@O*;#:*:2:e9:3999:::;1q;99:-::rq:;*<#:*:e;e9:-q995:9",
"*9:g*:599*@OO@**X&#*1;&**&:5::::*9:g;::q9qrz5*&&o&#&;*&-*#:9;:::",
" *11:&:::    X#&.<oX&& X*****:*O #19:&5:;*::9   o&21* X&*-*@XXX.",
"#&<khkk1@hs9:9:21kxlh:@9qzq5&@OO##<kgkk1@ge959:21kvlh<@9rzq9-@OX",
"**gvk2j:#i9*:5&919ri91&:qi9991&o*;gvk2k<&gq*:5&e11gr59#:9r5591*@",
"ghge<2s:&e9g#<*29g9ee9::q99;::<ogkg2<12<*eqr#:&19rqr09<:q9::9::#",
"v2:20<2:e9:0r9#9rrzze999::;*::9@b2:2e:2929:eq9#2rrzir01:9::*:;9#",
"k<:9:911s:gjr0#9qrir9eh::*#*-:e;g::9:9<9e:ghre#qrrir5rh::*#*-:1;",
"e<:2:5s:59l:g5;-irq5q;9:1*99;:2*g:91:92::2l:r:;*ii09q;95:-95::2;",
"05re1q:9r09:91#-9q5::i9*;q59991@99eg9e:9req:q5#;9q5<:r9*:059:12@",
"5qe92:::99re-:;;qqg9::9;-::9qqe@:qq92:::99qe::*:qqr9::9:-::9rr9o",
":9**11:##;95q9-:19999&&5e95qqe9@:q&-19:#&-9:q9;;1599q&&5095qqre@",
"5qqr;:##%-9r::::##:99*-9q5:&&95@:rqe*-&#**qq::::##:59*;9q55&#51@",
":iiq:9938rh:r<qrl:#:-9999:99:q9@:izq:9938ig5g:qrl;#:-9959:99:q9@",
":q9:*&**59:9e5<1qi9;999995::*::@:99:-&**59:9r:<5qi9:995915::*::@",
"--#&:5:5991:09-;59r<9:2<;::5;1-@--#&:5::991:e9;;99q<9:2<;:-9;1-@",
"@&999q:q992q:19q5959:::q9:#-*::&@&999q:e951q:19e5599:::09:#**;5&",
";9q*;1:0991*s5:9:::9q5#0qh**:ql;;9e*:559q99*e9:9:::9q5#0rh**:ql*",
"e1*&1e1q9;#-9:19:&#*:&&::9g*9i2:e:*&:e1e9*#;9::9:&#*:&*::0g*qq9&",
"sq:4i::1:*:1;1q595$#@*9z919e:e:*g9:3i:<:<;11;19595$#@*qiq19e5e:#",
"9e95i1:;:e99e;99599-+-9e:9i:111#9r99i1:::e99e;99999-+:9919r::9:#",
":91q91;*:::;&;#9:*64:-::99q9:*#O:91999:&:::*&;#9<*64;-;:19q9:&&X",
":555:::;*&;hcs;9:;9at:*;::r:9jg::991<::;*#;lce<5:-5at:*:::r52kg@",
":19;::e::e9re:e:iuq4qqq:::e:99::;19;::q1:e9ei:e:iuq59q95::e911:@",
"::::<921:e95;:991y9:9::;9;::9:#@:::::911:9q:;::9:y9595:*5:::9:#@",
"&;:9:9:9-:9:1*:*:q::;::::9:12;1@*;99:9:9:::::;5*:q1:;::5:2::2:1@",
"*1:1::q5-9:;:99;:99:&:q992gs9;:&;::<::q:-q9;9:9;:9:5#5q999ss9;:@",
"g9:;&:::-9*:*:9q:*:9;;:qr99:*::;g9:;*:::-9*:*:5q:*:9;::qr99:;:;@",
"2199*&;:*-:*#-;59:<95:59r99*:;:&2119;#-:&-:*&*;92::9::59r95;:::@",
"9e5ee9:;q9**&**:9e111;;*&::55&@O9e9ee9:;qq*&&&*59e111:;**;;9:&#O",
"2959e9*&:97pi99::ee95::&*5ql:9:;29:9e9**:57piq5::e99::;*;5qi:9:#",
"<1:25599**54q9555:11::59:5999:&@<111:999**96e9:99::99;55:9q95:*o",
"*<#:-:e:qq::q595:5::e*99:::9:#@O*<#<*:e;e9::999::9:1e*99:;:9:#@O",
"&#o&#&;*&*&&::::<:&15g;::q9-@XXO&#X##*;*&-&&55;::;&91g*5:99;@XOX",
"          . .XXXX. X@#o.OOO            .    .OXXX. X#@@ O@X     "
};
