/* XPM */
static char *forward1626376813[] = {
/* columns rows colors chars-per-pixel */
"64 64 24 1 ",
"  c #464646",
". c #373737",
"X c #3B3C3B",
"o c #3F3F3F",
"O c #2C2C2C",
"+ c gray19",
"@ c #4E4E4E",
"# c gray14",
"$ c #060839",
"% c gray12",
"& c #565656",
"* c #5D5D5D",
"= c #181818",
"- c #0C10B8",
"; c #020589",
": c #06099F",
"> c #000460",
", c #61645F",
"< c #101010",
"1 c #020579",
"2 c #656565",
"3 c #000468",
"4 c #2028C8",
"5 c #000458",
/* pixels */
"@@.oX+  .O.X Xo@ &o  o o.@  o@ &o  oooo@@. X &@@o @ o @@o @+O o@",
" @. oX  O+o. .  &    o.o @@   &    o.   @.o.  @@  @@  X&@@ oo&@@",
" @     o+.XX +oo&X o  . oo@ @@  @@   @  @ o    @ @@@@ +o&*   &@ ",
" @ o@*O#%%=%%%%%O%%%#%=%%%#*@@  o@  *O%%#%%%%#%#%###%%=%#%O  @@ ",
" X@ @2 X+O#+O.OOO+OOOOOOOo*@@@ .@  + *X+O.O#OOO++.X+.+O+O#O   @ ",
". @ &2&o.++..X+O....X.X. *& o@.o@  oo@*.X OO +OOX+ . ...+OO   @o",
"X@. @,@.+....X+O%..XX+.o*@XoX      Xo.@*@O.X XO  . XXXXO.OO   @o",
"   @ ,@X.X+..XOX#.. ..O*@oo  XX=OXoX X @*  XX@.@ X  XX ...O@ @  ",
"     ,@ XXOOOXOXO+XXO.& O#.oo+<<<<X. o. @&@XOXXXoo oXX X +O@ &@ ",
".X o 2. X.XOOOXXO+XOo&o@O#o@o<=O%<<X oXOX@&.XO #X+ o+XX  +O X@  ",
"oo oo&  .XXXXXoX+++X&o @%..o<%OX+O%<X.O..o &oO OOOoO=#.X.OOXX& X",
" X@@@&@ +.XXXOoXO++&.Xo%#XO<#OoXOXO=<X.oX O &#XoXXX+#%+OO##+ o o",
"@X o@&@ ..OXO+XOOX&o...#OO<#OX+#O++O%<X X  o@&#oo XOXO.O.#O  X  ",
" X .@2@XX.XX+OXX &oOo..OO<% .++++O.XO%<XX o..o& XXooXXXOOOO  o@ ",
" Xooo,&X XXXOXO.&@X. XXO<%#++%O.OOo.OO=<X. X. @&oX+  XXXO+%  o@o",
".  .X2&X XXX+O+&....oX+<=OOOOXO @  o.X%=<X .o  .&@O @o +#O%X o o",
"O @oo2@.XXXXOX& X#o oX<=#O O.  X @. #+OO%<Xo Xo.,&X+oo +O#O X oo",
".+  .o@.XXOOO&o .O  O<=OO  O oXO$ OO#O.O=%<X O    &OOXX .OO@. . ",
"Xo  @o@XXOOO&o. X   <=OO   +.o.$$$ +OX..OO=<XX  X.o&oX  .+O o@o ",
"o  o@&&.XO.& X .O.X<#OX. .X@OoX$3$o++oO oX#%<X o+oo@&oX X+O  @  ",
" @X @&,..o& O.o X <%OX$.  O@Oo$$1$$#O.O.X.$#%<Xoo.O. & XX+O   @o",
"  o  ,,X.*O OXo.O<=#+$$$+.Oo%.$>;>$%.+ ..$$$O#<Xo++ o@* X+Oo   o",
"  @o 2&o* O X#.#<<OXO$3$#+oo%$$;:;$$.. o $3$XX%<X Xoo &*oOO   oX",
"@ @.o,o* o.XXXX<=OoO+$1$.#X. $1:-:1$.   o$1$.OX%<X o.O@@*+O@ oXo",
"o+X. ,*o.ooXXO<#Oo.O$>;>$X##$$:-4-:$$.oO$>;>$. O#<X.O X @*+  oo ",
"O+O.  o.Xo.oO<=O ooO$1:1$X.#$:-444-:$+..$1:1$..o#%<X.X#o@o*X Xoo",
"oX# @X .X .X<=%Ooo $>:-:>$ +$$$343$$$OO$>:-:>$ooX##<XOo oX o@. X",
"@o. @. o @O<%%OO ..$1---1$X.OO$3-3$OOo.$1---1$ .o+O#<X@@ +X o@  ",
"@oo   o o <=%#o. o.$;:4:;$.X X$3-3$o @X$;:4:;$ . ooO#<X  X o@& @",
"ooo  X  .==#Oo  oo.$$>->$$.X..$3-3$#.@ $$>->$$.... XO#=X XX  @@ ",
"O@  o. X=%OO...  ..O$>;3$O..o $3:3$O.o O$3;>$O+.X.XOXO==XX. X  o",
"+  ..o@=#OXO O.oo.. $3;3$#X  o$3;3$Oo.oO$3;3$.O.O.+O.+##=XoXoOX+",
"Xo .X %#OOXXXX...+OO$3;3$++XO+$3;3$XX.#X$3;3$ X OO..XO+==XXXX+.X",
"O@  o. X=%O.......OX$3;3$X+.O+$3;3$X.. O$3;3$  .X.OXX.==XX.XXX o",
"ooo  X  .=%O.O. O...$3:3$.OOO.$3:3$X. X.$3:3$   X XXOO=X XX   X ",
"@oo   o o =%#O+X#O.X$1-3$$$$$$$3-3$$$$$$$3-1$X X.  .O=X  X o@&X@",
"@o. @. o @.=##OXXOOX$1-1>55555>1:1>55555>1-1$OO+O+OO=X@@ +X oX X",
"oX# @X .X oX=%#O@O O$;44--::---444---::--44;$OO.XOO=X.o oX o@.XX",
"O+O.  o.Xoo .=%O X X$1:11;;;;1;1-1;1;;;;11:1$.X O#=XoX#o@o*X Xoo",
"o+X. ,*o.o XX.=OO  X$$$$$$$$$$$3-3$$$$$$$$$$$.@.O=XoO X @*+  oo ",
"@ @.o,o* ooXXXX=%O XXX+XX++++O$3:3$XX+XX++++O.X#=X  o.@@*+O@ oXo",
"  @o 2&o* . XOoO==OXOO+XOOOO++$3;3$OO++++XX+XX#=X X   &*oOO   oX",
"  o  ,,X.*. .X oO=%O++.XO$$$$$$3:3$$$$$$X.X..O=X ++  &* X+Oo   o",
" @X @&,..o*@.o  X =#OX..X$1>>>>>->>>>>1$ +XO#=X  o.o@* XX+O   @o",
"o  o@&&.XOo*@X o.oX=OOXX $;:---444---:;$XXO#=X@ +  @* X X+O  @  ",
"Xo  @o@XXO..* o X   =%O.X$33333;-;33333$.O%=XX@@Xo * X  .+O o@o ",
".+  .o@.XX...*  o.@@.=%O.$$$$$$3-3$$$$$$%#=X .@@@@*.OXX .OO@. . ",
"O @oo2@.XXXX.X*@XO   X=%O X XX$3:3$ X XX#=X @X o,*X+   +O#O X oo",
".  .X2&X XXX+.+*oooo X+=%OOO++$3;3$+OX#%=X@o  @o*@O @  +#O%X o o",
" Xooo,&X XXXOXOo*&Xo XX.=#O++X$$$$$X.O%=Xo@Xo @* X+ @XXXO+%  o@o",
" X .@2@XX.XX+.XX * . oo..=#O.X X XXX.#=XX  oo *@XX  XXXOOOO  o@ ",
"@X o@&@ ...X.+X..X* oooO..=OOX+OO++O#=X@X   @*O   X.X..O.#O  X  ",
" X@@@&@ +.XXX. X.++*oX #OX.=OO X.X.%=Xo X@.@*OX XXX+O#+OO##+ o o",
"oo oo&  .XXXXX X+++X* @@#oo =#.X+O#=Xo.oo @* .@OOO O%O.X.OOXX& X",
".X o 2. X.X...XX.+XO * @.O @ =%O#==X  X.X@*oX. OX+  +XX  +O X@  ",
"     ,@ XX...X.XO+XX.o*@.Oo  +====Xo@ o @*@X.XXX    XX X +O@ &@ ",
"   @ ,@X.X+..XOX#.. ..O*@oo  XX=OXoX X @*  XX@.@ X  XX ...O@ @  ",
"X@. @,@.+....X+O%..XX+.o*@XoX      Xo.@*@O.X XO  . XXXXO.OO   @o",
". @ &2&o.++..X+O....X.X. *& o@.o@  oo@*.X OO +OOX+ . ...+OO   @o",
" X@ @2 X+O#+O.OOO+OOOOOOOo*@@@ .@  + *X+O.O#OOO++.X+.+O+O#O   @ ",
" @ o@*O#%%=%%%%%O%%%#%=%%%#*@@  o@  *O%%#%%%%#%#%###%%=%#%O  @@ ",
" @     o+.XX +oo&X o  . oo@ @@  @@   @  @ o    @ @@@@ +o&*   &@ ",
" @. oX  O+o. .  &    o.o @@   &    o.   @.o.  @@  @@  X&@@ oo&@@",
"@@.oX+  .O.X Xo@ &o  o o.@  o@ &o  oooo@@. X &@@o @ o @@o @+O o@"
};
