/* XPM */
static char *result[] = {
/* columns rows colors chars-per-pixel */
"64 64 31 1 ",
"  c #565656",
". c #4E4E4E",
"X c #5D5D5D",
"o c #61645F",
"O c #656565",
"+ c #464646",
"@ c #6C6C6C",
"# c #3F3F3F",
"$ c #101010",
"% c #747474",
"& c #373737",
"* c gray19",
"= c gray14",
"- c #2C2C2C",
"; c #838383",
": c #020202",
"> c gray12",
", c #7C7C7C",
"< c #585D56",
"1 c #8B8B8B",
"2 c #929292",
"3 c #141024",
"4 c #6D7068",
"5 c #7D8379",
"6 c #020429",
"7 c #747B70",
"8 c #90978B",
"9 c #A9A9A9",
"0 c #868D82",
"q c #9A9A9A",
"w c #171F17",
/* pixels */
"8%%%%,,#$-OX.ooXo+X+..X:=X..+X+oXoo.XO--#o.##%%4oo795,;,%@OO@@,%",
";%@@O,%#$$o.O + .##Xo+#:=O .+.+@O@X#.X-6#X+##o@O. X%.+.o  X< XO@",
";@@OX,@&3=@X ..@  <%O .$=@O .X@%@%O. X-:&  ...O X+.1 .###&&#.++O",
"@O@ .,O&$>.X   2oooOO.#=*O .+#+ X .<  -$&    .. ++ @;OOo.#.##. X",
" OX+.@O&$&    XoX  .X++==..+#+ .  +...*$&<oXX....++.ooo;;@o.*#+.",
"+O .. O*$- X@XXO+o  o.+=$.++. XX%OXO  ->*Xooo X;15oXX XO;2;o.&.#",
"O<+oX+O*$&O@,%@@X.X@XX.>$++.XXXOOX.   &-*o#####+ < .+##+.OXO  ++",
"%XX+.O<*$$O21;;;%;%;% +=>.++. X X.# .+&$* o.. O.  Xo.+#X++X@O.4X",
"XXO +%X*:=X12;,@OO @%##=- .. ... .XO@%+$*+o  o@ o X%X.#+o*#+.++ ",
"+.X..X *:$ ,%;@OXX+X@ +>-X++X.    .  X&:*+   . . +. X .. .*+ .o+",
"++++&+.*:$X@@OXO.  @%O >-#&&#+ . ++++#*:**+++*+*+#&#++++. +*++.#",
"-$:$$==::$@OX.XXX@@;2%X-$:::::$:::::::$$:::::::663::$---=$$$::::",
"$$:$3=>$$=%.O o  %,1,@O+:,2%,@@OO@%,;,597oo4%%70o#.o#->==$:3$:$:",
"@%,OXO%,:$ ++< ..OO%@OX#$%8@OX <X  o.+.%X .O@o + #+X#$-. X< OOOO",
";82@X@82::+.OXoo X. X. .$@;O++.#&&###. 1..X O.....  &=$+X%O#+ @;",
"O@%O O@%:3. XO@oX +. +.-:O;X .##.#.oOO;@ .  .. +    &->#+ X-+#.X",
"+O,   O,:$.XO,%O .++X#+$$O@.+#*.o@;;ooo.+.OO.. .@Xo<&$>.o+4.+.+ ",
"+X@O+.X@:$..O@@ # #+4+#*:O #.&.o;2;OX XXo51@X @%XooX*>-+.+.. &#.",
". @O.+ @$$+..X%++-* ;.#>$O+++  OXO.+##+. <@OXXX@XXXo*>$+ .O  .*#",
"#<O.+X<O:$#+.o #&*&+@ +>3 #-.. o;X.##.+. .. O@oo  Xo*$$*++@oOo.#",
"&XXXoXXO:$*+ o#&-#+X;@.*:<OX4.O@X++X#+.oX   O +  .o *>$+*#X;X;o.",
"&XXOO  @:$+.XX#-&+ ,q, >$X% ++.+#*o+#.X%X o @o  . o+*-> .*+XO2@#",
"+ OX . %:$< @o+*#.O;,O.-= X+o. +*. .. X .+ . .++.  +*-$. o+..;;.",
" oO ..o,:=+#Xo##.Oo%O +-=.+#.++*+ .++++#&#+*+*.&+++**=$+.+X#+O;o",
" XX.+OX;:>&#&*-***&&&===>-$>>-$$$>$$$$=$->>$-:-$$$$$$>$+.####XoO",
". XO@O%,:$>:$::::$::::3$3>:::$:333:>$>==>$$$>:$:::$>$>$+ .+.# oO",
" .  O%,5$=&+.+#&---==-&--*#*-=*-------*=$:$:::$=-#-+--=+XX.++Xo;",
"1O@XX@%9$&O%q;@;4X X@,2%@%%XoXOOoOXX  .=$,%@OOOO <X .&$# %o..X.@",
".X7X  X7:&%;,X+ ++. %1;@X@;@ .O%XX.   .=$28;;@ +#O%X+*-&.XX  o+ ",
". oXXX o:&oO +&*#++.O,@ + %X  o<#.#.<<.>$%@OX.#+-X +#&>#+  .<5..",
"X.oX. .o:*O.+#*- . XO%@ XO;.o o #oX%..+&$,O+ +.+.4+o.=>+ o .@1O ",
" O4OX O4:*.#&-&+# X . X.XO%X+Xo .o@%+++.$@X+.#& ..+.+$$*.   O@O ",
".X0%OXX@6*#*-&#+ Ooo. XOO@;@Oo2@ ++@++ &$@ .#*.  O. +*$&+  o@%X ",
". oO  X%6-#+## %@%@o oXX@,;@XX .+X.X##+=$O<##.oOo@++*$$+..  XX@ ",
".## .  O3*ooXooX@,OX< .O;;;%X  . ++.++#=$OX&.o;X;X#*+=$+  . XoX ",
" +.  ++.:&X@X ..OOXO+OX@%21,@   O...++&>$@ &#@2OX+*. +$+ ooXXoo ",
" Xo   Xo:## .++..X .+.O@,12@X XX..  ..&=$% #.;;..+o .&$*++ ooX< ",
"&##&####$&+<+*#+...+ %@X XOO  .@oXX<XX#33,o#o;O+#X+.+=$*******&&",
"#=::6:$::=====--*--==-------*-==*===*=$=$;.#OoX####.+->=>#-$$:::",
":::3:$3:::::::::::::::$$:$6$3$$>$::=-=>=$,+.Oo #.+. +->>::::::::",
"%@OXOO@,%@OX;q;@@@%%12.$=&#.##*&##.#&*->$5. ;oX++.XX+$-$.21%OXX@",
"@X  O;O X X%11%OX @%,1.:=+.Xo.#.Oo%O +*=:9%1@.X..o% #$=$.;%@O XO",
"O    X + X;,%@X. OX@%%+$=< @o+*#.O;,O.&$>7X. +o  XX.&:=>.,@X.+ X",
"@X .... O%,,OX. O@OX@O#:=+.XX#-&+ ,q, &-:o +++5<.  +#+=> ,@+O@,%",
"%OX+++. XO@OXX. XO +OX#:=*+ o#&-#+X;@.&=:o.X+.1 # o +-$>+..+XXO@",
",@X. X  XOOX XX..   Xo#$-#+.o #&*&+@ +&=$4O  .;+.. .*+==.O%o4oO%",
" ...OOX.@ ..+O ......X*$-+..X%++-* ;.#&=$0+.+.%#o  +&.$$+@ @OoO@",
"XO  X%XO,@ +X@o. ++#.X#$*..O@@ # #+4+#*>$o . @X.. ..+.$$.@O,%oo<",
"OO + X+o% +.@%X .@  .X&:-.XO,%O .++X#+&=$##. Xo##.  +.$> @O@+++X",
"%O #++o..#& XO .O.*.XO&$-. XO@oX +. +.-*=.+  oo#Xoo +#=> @X X. O",
"1X.### # ++#+.  @OXXO@&==+.OXoo X. X. .-=oX  <Xoo ++*+$=#%..<+@%",
" .+*&-#-&=-&#&&&..-*+#&$= ++< ..OO%@OX#>=##&&&********$=+  .++++",
"$:$$$:$:$$$$$-&->$:$-$$$-%.O o  %,1,@O+>$:::::$:::::::$$::::663:",
".+.+..+.#$:::::$:::::::$-@OX.XXX@@;2%X#>$,2%,@@OO@%,;,597oo4@%O.",
"XXOXOXOX#$#&&#+ . ++++#*-X@@OXO.  @%O &>>%8@OX <X  oX%,%X .OXX +",
"o .  .  #=X++X.    .  X&- ,%;@OXX+X@ +&>=O@O .+XX ..OO%@ X  X  +",
"o.  .   #= .. ... .XO@%+-X12;,@OO @% #&$3XX  +.+oO .+@OX X.XO . ",
"X  o  XX&>.++. X X.# .+&-O21;;;%;%;% +&=$O@O OO.XOX .O XXXXO%O  ",
"XXX@XXXX#=++.XXXOOX.   &-O@,%@@X.X@XX.&=:,2%,@@OXXOOXX @7oo40o#.",
"ooX%o@%O#w.++. XX%OXO  -* X@XXO+o  o.+&$$%8@OX <XX oX .OX .OX #+",
"oX@X@@X &=..+#+ .  +...*-    XoX  .X++&>$@;O++.#&&+  . 1..X ... ",
"    XXX &>O .+#+ X .<  -=.X   2oooOO.#&$:O;X .##.#.oOO;@ .      ",
"+#++++++*=@O .X@%@%O. X-=@X ..@  <%O .&$=.+#.++*+ .++++#&#+*&+++",
"*=::::=$$$O .+.+@O@X#.X-*o.O + .##Xo+#&:>-$>>-$$$>$$$$=$->>$$$$$"
};
