/* XPM */
static char *greystone_31626371858[] = {
/* columns rows colors chars-per-pixel */
"64 64 11 1 ",
"  c #2C2C2C",
". c gray19",
"X c gray14",
"o c gray12",
"O c #373737",
"+ c #020202",
"@ c #181818",
"# c #101010",
"$ c #3F3F3F",
"% c #464646",
"& c #4E4E4E",
/* pixels */
"+++#o O&$O$# X@++#o.$O$O$$ @O$O o$.o@+@oX#oo@+@o $O.O.o@+Xooo@#+",
"++#o ..$O.O@$.o@+o.$O.  X .X.. $o$  o@oX o Xo#o .O  .  o+X  XX@+",
"+@o  .O$.$.o.XXo+ $O .oXXX X X.OXO.X #X..XXXo@XO$.  .  X+...  o+",
"@X ..$$OO .X .Xo+.O  . ooXXX...OXO.XX@ .O.  X@X$O XXX   +O$O. o+",
"X..O$OO....  . o+OO .O$ @o X .O  ..OXoOO . . o O. .   ..#..OO o+",
"O$%$O...O  ..X X+$.  . $X@X ...   ..X@O. ...OoX. O.XX ..#XX .. #",
"$.O... ..O...  X+%XX ..OOoX.X ..  . X#O... . X O. . X O.@XoX O #",
"O XoXX.O .  ... #%...oO..  .  .O .. X+$.O...OX.O.....XX o..  . +",
"o@oX  O X  .... @$ XoO&O.  .XX.X... X+$.XXO..oO..O.  .XXo .  . +",
"@@o X...X .O..O #oo O&$...O.  .O. ..X+%.O.O.O . .... .  X O .O$+",
"@ooXX X X  .OO.X#XX $. .O...OO.X. OX@+%XXX.  X .O. ..X  X    .O+",
"oX. X XX   .   X#%$$    O..O$$ o.O.o@+$ X . .   .O...   X XX . #",
" X... O  .X   O #O$.. .X.XO.  XX.. o@#OXX..  OX .   .X  .  .  o+",
".    .O..XX X..X# X XX.X X.   XoOO o@+OX XX ..oX   O X  ......@+",
"O. .  .  .XXX .X+oX .X.O o  ..X@. o@#+. oX  . XX X...X .O..OXX#+",
"O        .  .. X+@oX.oO.X@oX  o#Xo@#++O ooXX   XXX X X  .OO.X @+",
"$  .... .  .... ++###+@#++@@o@#+#@@+++$    oXXX. X XX   .   X o+",
"$.. ..  OX O  .X++@oX ..@X..O$$O O.o@#$....X  X... O  .X   O  o+",
"$ ....O X@     .+@oXXX X@oXX OOX##oXo#O.  . ..    ....XX X..X o+",
"$  ....  X.. XXX+oX   . @@oX .. @@#o@@OO .  . . .  .  .XXX .XXo+",
"O       XX    X #Xo. .  oXooX  . X@##+O.O  .O.        .  .. X o+",
"O. .  . XX OXXX.@. ...  X..XX X .O oo@$.. O..   .... .. .... .o+",
"O    .... ooXXXX#.XX   . XXoXX@XX .O.@O .O. .. ....O ..XXX .. X+",
"OX... O  oXXXX @+.XoX XX.XX XX+.   . #O... .O... ..  O. XoX  XX+",
" X. Xo@oXX X .XX+. X  XXoX. Xo+.  .o #O OX  .OOXXXXooXXXXXXXXXX+",
"ooXo@oX X. ...X #O     XX X XX@... oX+$ O   .   X  . ...X O$  @+",
"#@oXX ..X$      #O..    Xoo X oXXXXoX+O . .X   O  .  X . .....X+",
"+@X   O XO  . ..@O   XX o .XXX  XX.XX#$ ..XX X..  .oXXXX. X...X+",
"@X O$O oX.. ..  @$  .Xo@ .X XX Xo  XX#%.  .XXX .  . ooXX.... XX#",
"X O.  X@X O.... @O.. o#@O   oX  oX XX#$.. .  X O .O$ @o X .  .X#",
".O.O X@oX O.  ..@ Xo#@@o.    XX oX.X @$ ..X  X    . $X@  .....X#",
"O  . ooX OO.. X @Xo#@oXoX    X  oXXXX#%...   X XX ..OOoo.X .. o#",
"$ . OXX O$Oo   X#@@#@XXooX   XXXoXooX+O  .X  .  .   O .O..O. o@+",
"$.. ..  $.oXoX X+XX .O.Xo@X X X.oXo@@+XX  X  ...... $X.O..O. Xo+",
". ....O OXoXX  X#OO.OOO.Xo@X.    XXo#+@oXXX .O..OXX OOX .O. O o+",
"X  .... .X@.. Xo@%... .OO. @X Xo XXXo+oX  X  .OO.X   $$.o O. o@+",
"oX XoX   X# .Xo@#.   X .  oXXoXo XXo +X XX   .   X  . O$ o@@@+++",
"@oX.X .  o+oXo@#+O   XXXXXXXooX.XXXo #  O  .X   O  .....O XXo@++",
"+@oXoX..X@+@o@#++.XXo@ OO.X@oo  XXXXX+O....XX X..X    o .O$%OX@+",
"++++##@###+##++++O  o O X  oXXX oXX X#O .  .XXX .XX   O ..O O$X+",
"+#@o .@+@X.%$O o#O.OOO.XXooo XXXXXXXX+X    .  ..XX O$ . ..O   @+",
"#@oXX o#o  .OO.X#O....  XXoX X  XX XX+o . .. ...o ..... .O.. oo+",
"@oX X..@X .O..OX+O.XX XXooo  X .oX X +oX  ..XXX @. X..O  .  Xo@+",
"@oX   OXX  .... @ . XXXo@oXooX Xo.   +@o  O. XoX@ XXXXO.   Xo@@+",
"@oXO$%$ .. XO. .#O. oXoooX@oXXoXXX X ++@o O.Oo X#XO. .O.X XXX@#+",
"X@@$....... . O.#O  X.  .XooXX@@oX XX+++@oX...Xo#oXXX... O.o@#++",
" o@$..O  O..O  .#O ..XooXX    X#oX.X ++++#o@oXo@#@oo@ XX o@@#+++",
".o O Xo X.OX. . # . oX@oXX .. OooXXXX+#@XXOO$$$$$O$$o$%%.O .O. +",
"$ O XX Xo   . .X#.XX@oXooX  . ..oXooX+@XO  .X ..  ..XO  oX XXoo+",
"OO  ..XooO X  OO+ X.ooo  XX..XX.oXo@@+o O X.  . ...O O  XXX.. o+",
"$.. . oo   X .O.+ XXXXoX X       XXo@+o...X..      .  X.  X . o+",
"$OOO$OO Xo ..$ o+ ooooXX   XX@Xo XXXo+o X X. ...X    XX  XXX o@+",
"O ....O.O. . . @+.XXoXX  X   XXo XXo +X XX   X .XXX X X . Xo@#++",
"O . O ...O.O  oo+.XXoooXX XXXXX.XXXo #X O  oXXXX @X X.. .Xoooo@+",
" ... o . ... oX #$  X  . XX oX  XXXXX+O.... ooXXXX  X  .XX.OX.X+",
"o .. X .. ...   #OX o  X X XXXX oXX X#O . XX OXXX.. ..  .X   Xo+",
"XX .   .O..O$O. #.X @  X   .oXXXXXXXo+O   XX    X . ...  ..XXX@+",
"O  .O$O.. ..O.O @.XX# ... .XXX  XX XX#$..  X.. XXX.  .X.   Xoo@+",
"OOO.   ....O$$.o#$ X# ...... Xo.oX Xo#$.O X@     .XXXX. . Xoo@#+",
".  . XX . . ..X@#O X@XX .OOO.X@Xo.  @+$.  O@ O  .X .     o@@@#++",
"X .  o  X .. Xo@+ooo#oX@@X . X#XXX o#+ X  $ o... X ..  Xo@++++++",
"oX  Xo.   ..Xo@++#@#+#@oo   .o+oo X@++@X .$OXo.X  .O. Xo@+++++++",
"+@oXo#oXX Xo@@++++++++#+#@oX @+@ .o#+++@X..OOXo@ .   Xo@++++++++",
"+++++++++###+++++++++++++++##+++#+++++++#@@@@#+++#@@@@++++++++++"
};
