/* XPM */
static char *result[] = {
/* columns rows colors chars-per-pixel */
"64 64 10 1 ",
"  c #585D56",
". c #3F3F3F",
"X c #4E4E4E",
"o c #656565",
"O c #6C6C6C",
"+ c #7C7C7C",
"@ c #8B8B8B",
"# c #9A9A9A",
"$ c #A2A2A2",
"% c #B1B1B1",
/* pixels */
"++oooooooooo O .O@O+OO++OOO+OO  O@OO XooooOoooXX++ooooooooooooXX",
"+++oo+oo+oooo   @@OOOOOO+OOO+O  @@ XXooo+oooooX+%$@@OooOoOoooOXX",
"ooXXXXXX.. XXXo.OO      o  o  ..O .XX XXXXXX++ooOO  O@XXX XXXX..",
"ooXXoXXX o XXXo.OO  ..Ooo oo  ..OXXoXXXXX++++X..+O   OOO++@+++  ",
"+#XXXXXXXXXXXoX.OO oOOo      o..OXXXXXXX++O   ..O+ o     o o  ..",
"O++XXXXXoXXXX+.XOOo           ..XoXXXoX++  o  . OO      o    o..",
"O+o+#@+XXXX++o..OO  o   o     ..ooXXXX++      ..OO            X.",
"OO    o++@+XX ..OO  o  o    o...ooXXXO+   ......+O o  o   o   .X",
"+O  o    o    ..+O oo oo    .X..oooXO++...XXXo..OO    o    o o..",
"O+   oo  oo   XXOOoo   o o .XX.Xoo.oX...XooXXX..OO .....  o o ..",
"OO..Oo     o  ..OO  o   o  .XX..ooXXXXXXXXXXXX..  ..XXXX++   o..",
"++OOo      o  X.OO  o  o o .XX  @@XXXXoXXX+O+O .ooXXXoXXXX+   ..",
"+O     o  oo oX.+O oo oo   .XX .+@OOXXXX O    .XooXX XXXoX+   .X",
"+Ooo    X.......OO      oo oOOX.OO  .XXXo     .. oX .X.. XX+  X.",
"  ...X..XX.X....  ....XX..X..X..  X..... .X......X.....X...o....",
"  .......................X......  .X..X.o........X.........o....",
"@@OOO  ooooooo  @@  OOOOOOOOOO o@@+O ooo+OOOOO  O+OoOoooooO#O+  ",
"@+   ooooooooo o+++ OOO++OO+OOoo@#+O ooo+O++OO  ++oooo oo###OOo ",
"XX oXoXXXXXX X..ooX..         ..O+   oOo   X....oo XXXX+++  Xo.X",
"OoooXXXXXXXXXX..OoXX......    ..OO  .      ..X..oo XXX++    X ..",
"ooXXXXXX.XXXXX..ooXX .XXXXo   .XOO  O      . X..ooXXoO  o  o  ..",
"ooXXXXoXXXoXXX..ooXXXXXXXXOo  XXOO o       oOOo $$OOoo  Xoo  X..",
"ooXXXXXXXXX XX..OoXXXXXXXXo   ..+O  o         X.++      oo  X...",
"ooXXXXXXXXo XX..oooXXX XXX    ..+O o      XX  ..OO         X....",
"+oXX XXXXXXXXX..ooX XX XXXX o .XO .Oo  oo     X.OO        ......",
"oOXX XXXXXXXXX..ooo XXXXXXX+  ..+@Oo o     o o..O+  o o  o..XX..",
"+OXXXXoX.X X....oOXXXX Xo+O   .XOO    o  oo   X.OO        ..X ..",
"oo.X XX XX X o..ooXXXXXX+     ..OO         o  ..@+        ...X..",
"ooXXXXXXXXX XX..OoXXXXXX+     ..OO         o .. +Oo       X..X..",
"ooX XXXXXX XXX..ooXXXXXXo     X.++ o   o  oooO XOO o       ..X.X",
"XX...X..........  ...... ...XX..  ..............  ....X.........",
"XX..............  .. oo .....X.. .........X.X...  .......X......",
"++ooooOoooooooXX++oo#OOOOO+OOO  @OooOoOXXOOOOO  @@O++OO+O   ooXX",
"+#oooOoooOOoo@+O$%#@@+OO++OOOO  O+oOoooooXOOO+  @@OO+OOOOX ooOXo",
"oo .X XXXXXXOo..OO        o   ..XoXXXXXXX     X.OO  o    ..XXX..",
"o+ XXXX.XXXXOo..OO          oo.X oX..  XXO    ..O        X.XXX..",
"OoXXX XXX XX+o..OO      oo ooo..O   o XoOo o  .. @     o  +OXOo ",
"ooXXXX   XXOoo..OO            ..OoXXXXXO  oooo..@O o   oo  O+O..",
"OOXXXXXXX X+  ..OO           o..OOOO++O     oo..O+ oo      oo ..",
"#+XXXXXXXXO  o.XOO  o         .XOOoo         o..OO           oX.",
"O#  XXXXXX+   ..OO     o  o   ..OO   oo o   o ..O+       .    ..",
"O+OO+++OOOo o X.OO.....   o   ..OO        o   X.+O       O    ..",
"OO    o       ..O ..XXXo     o..OO o  oo o    .XO+           o..",
"O+     oo oo  ..O XXXXO    oo ..OO..Oo        X.OO   oo  oo   X.",
"OO    o   oo o..O+OO++o     oo.XO+OOo o       ..OOooo      o  .X",
"++  oo   o o  ..O        oo   ..OO       o  o ..OOo oo     o  X.",
"  ....X...X..... O.........X....o ..........X...  X..X.X.... X..",
"XX..............  .......X...........X..XX......  ..X....X  X...",
"@@+OO++O++OOOOo @@OOOOOOO       O+  O  OOOOOO+o @@OO++O+OOOOOOo ",
"@@OOOOOOOOOOOO o@@OOOOO      o  ++      + OOOOoo#@O++OOOOOO+OO o",
"OO            ..OO   ...XX XXX..o XXXX XOO oo ..OO   o     o  X.",
"OOX.......o   XXOO o..XXXXXXXX..OoXXXXXXo     ..OO   o o  oo oX.",
"OX.XXXX XX.   ..OO   ooO+oX XX. @#OOXXXX+ o   ..O+  oo oo     ..",
"XoXXXXXX  .   ..OO oo o ooXXXXX.OO  oOXXo    o..OO           ...",
"ooXX XX  XX..o..OO       oOXXX.. O o  XXXo oo ..OO          ....",
"ooXXX.. XXXXX...++    o   ooXX..o ....XXXX. oo..OO ..........X..",
"oo X..  XXXXXX..OO          OOoo+oXXXXXXOOo   ..O ..........X ..",
"ooXX o XXXX .X.XOO  oo   oo   ..O@+O+OOO X    ..  .XXXXX XXXXX..",
"ooXXXXX XXXXXX.oO             ..O .           .. oXXXX XXX  XX..",
"ooXXXXXX   XX X.+O oo   o    oX.O@O         ....oo XXXXXXXXX. ..",
"ooXX XX  X XX o.OO   ..Ooo   oXXOOoo   o .......o XX X.. X XXX..",
"oo XXXX.  X X+X.OO  oOOo      ..OO  o   .....X..OoXX.X o XXXX ..",
"XX.........ooX.. o.......XX.....  ..X...........  ..............",
"XX........o.....  .........X....o .XX...........  .............."
};
