/* XPM */
static char *greybrick_41626371858[] = {
/* columns rows colors chars-per-pixel */
"64 64 17 1 ",
"  c #464646",
". c #2C2C2C",
"X c #3F3F3F",
"o c gray14",
"O c gray19",
"+ c #373737",
"@ c gray12",
"# c #101010",
"$ c #4E4E4E",
"% c #181818",
"& c #565656",
"* c #5D5D5D",
"= c #656565",
"- c #3B3C3B",
"; c #0B1707",
": c #171F17",
"> c #454844",
/* pixels */
"%##@#oo.+.+XOO.O%@.@.O.ooO++Oooo@#@o@#@o@@o.o@oo@oo@o@#@@o#%@@@@",
"@%o.O$>  X+   $X  X&   XX++  XOo%#@@@#%.O+XX++XX &+&+ +..X...@%@",
"...X$$ $*$&=+*$&&*&=*&*$& &*+&+Oo%o#o%o&$*+*& &$*&*=&*&&$*&  .@#",
"@.+ &X&&$*$&$&$&&=**&&$*$ $&$$X +O###O+$ &$&$ $*&$ **=&&$&$  X@#",
"oO*  &$$$XXXX$$&&&     $   & X ++ ### +XX  &   $  &  &&&$$XOX.o@",
"oO*$& XX $X X  $*$  $$   $ &$ XX+.###.+  +$& $  $    $*$  XXX.oo",
".+& $+&& XXX   &$&  +   $$    OX+%#@#%+ XX   $$ +OX  &$&  X X..#",
".+&&$ &$  $ $$  $  $ * $$   X.o .%#%#%..OXX   $$  O$  $  $$$  .O",
".XX $&$ X XO+  X    *$   X   o Oo##%##oooO   X  *&     X  X   o#",
"oX&$ X.o$  &*$ $   X       XO...O##@##O..XOX       X   $ $    @#",
"oX&$ ..$$   XX O oX.O +X+o+XXX.+@#%%%#@X++XX+o+XOXX.Xo O X X  %#",
"@X X+$$ XX+oo o+oX$.+.OoO+O.+oO+O.###.OoO.+.O+Oo+.X.$Xo+o +++.##",
"%.oo o+.++@@O%o@@+oo%.o@.oo%@%o%##@#@##%@O@%oo.@%@ooo+@@o%@o.@o#",
"@o+ Xo.+o@oOOo@o@@oo@@@O..@@o@O@#oo#oo#@@@o@@..O@@@oo@@o@oo@O%##",
"%%@.@O.O..%o@%###%############%+@o@o@#%+@o@o@@@%#%o##%###%%.#.#.",
"@%@@@%+@o@@@%#%ooooo@#########O++OO.o#O++OO.ooo@#oo#@ooo%#@@o@.@",
"%%@O.O..#.@%###%#o@@%##@#oo.+.++   XX.++   XXOo%##o#%###%@.#..O.",
"###%O@@%+@o@@@%#oo@@o@o.O$>  X &*+*$&X &*+*$&+Oo%@@o#%@@@o@+%@@O",
"+o.O.ooO++.ooo@#@oo%@%. $$ $*$&*$ $&  $&$& $X ++o%#@#@ooo.++Ooo.",
"*&*&*$& &*$&+Oo%o#%@%-$  $ $&  $X&&$*  &  XX +++O%#o%oO+&$*& &$*",
"&===&  &*$& +X+o%##oXX& &X&&$*  &$$$X$ &$+  XX++ @#%o+X+ &$*&  &",
"&    $   &XX ++ ###O **  &$  $ $ $  $ $  XX OX++.O## ++ XX&   $ ",
"  $$   $ &  XX+.###O &*$&     X XX XX   XXO.o .+%O##.+XX  & $   ",
"XO+   $$  X OX+%#@#o$$& $+    X X&       Ooo Oo.%+@#%+XO X  $$  ",
"O  * $$   O.o .%#%#oX &&$     OOOO XX    X $ .oo#o%#%. o.O   $$ ",
" &*$   X  oo Oo##%#oO&X $&  XOXXXX$ XX XOX....Oo#@%##oO oo  X   ",
"       X   $ .o##%#%+$$$ XX+ OX   &  X XX++X.+@O#o%##o. $ X XXXX",
"         X....O##@#@OX&$ XX +X$&&$ X+ X.+.OoOOO@#.@##O...------+",
"X.+.OoO+O.OoO+O.##%%OX&$ .  X+ XX+  + XO.+.OoOOO..%#.O+OoOOOOOO.",
"@Oo.o.O@+OooO@Oo@o#..X X+$X$X +X   X X-OooOooo@Oo##@oO@OooO+@O.o",
"@@@@@O..@@@@O@#oo#@o-XO +X+X X XXXX-X-Oo@@@@%o%###ooo#@O@@@@..O@",
"####@@@@o%@@@%##@o@%o.oo oO--------OOOo@%%%@@O@#oo#@##%@@@%o@@@@",
"#@@@@o%@@@%####@o%o%#o+ Xo@OOO+..ooooo@@%%@@@@%####%.%oooo@%%%%#",
"######%+o@o@@@%#%o@@%#%..O.O.@%%%#%%@o@@##%%%#%#%#o#%@@.ooo%%#;#",
"#oo.+.++  XXOo%##o##%#@%#@oo...%####%@.@%#%#%#%####+o......@%%#@",
"O$>  X &+*$&+O@#%##o#%##O+OX$  .@%;#@OX XX++   $ X&+&$    Xoo%@.",
"$$ $*$&* *& +X.%%%o%@O$X$*=&&&&$X.%%. $*$& &=+*$*&=*&&&&$$ oo@% ",
" $ $&  $$& $XX.@#oXX*&oo$$$$&&&& $.%. $&  &*$ ====&&==&&$$ oo.X ",
"&X&&$*    XX X.%#O ** .O&*   &$ $ o#.$$$XXOXXX$$&  &    $$ ..X  ",
" &$$$X$ $+  XX.%#O &** XX X     X %#.$+ XX XX   &  XO+   $Xoo * ",
"& XX $$  XX OX.%#o$$&*  X     X & .%X$    $$ $$   $O  * $$Xo. &$",
"$+&& X  XXO.o .##oX &&     O X   X.#X$&X   XO+      &*$   .ooX$ ",
"$&$ X X  X $ .o##@O&X +  XO &X  X o%X XXX $O  *           .#@X$ ",
" X  XX  OX....@##@.$$$ XXO  &   X .@. X$    &*$   X       .o%. $",
" X.o$ o+X++X.+@%%@.X&$   .X&  +   O%.X.$  X  XX oX.XXO +XX.o@.X$",
" ..$$ +O+.OoO.@:#@. &$ . .&X +XXX+.%.X XX+++oo oX$.X.+.Oo..o%OX$",
"+$$ XX@+@Ooo.@:##-X   ++.X  X  X +#%..XXXX.+X XoO +@Oo.o...o..XX",
"+XO.XXoo@O@%o%#;#%.X $ X  X X++XXO%%@@..@O@oOOo@@oo@@@@@..@@o-X ",
" o+.++.@o@@@O@#####.O++@O+X.O.X..oo#%#%%@@@@@%o@@#o#%##%@@@@%o.o",
"Xo.+o@@@@%%%%%##ooo%@%o@@oo.oO..@%#o###@O@@%+@o@o@@@%#%@@@@o%#o ",
"%@ooo.oooo@@@%#.%..o##%.%@@OO.@.@%##+o.O.ooO++OO.ooo@#%...+%%%##",
"+OOO.++O+ooooo@%%%#X>  XX++   $X  X&+&   XX++   XXOo%#@.XX ++XX ",
"*&*&*$$$&&$ +o%#@ $. $*$& &=+*$&&*&=*&*&*$& &*+*$&+Oo%@. $*& &$*",
"&===& $&*$& +.#%@$$X X $ XX X  $*$    $$   $ &$+  XX+.#. &$*&  &",
"&    $$$ &XXX.%%$ $$&& XX XX   &$&  XO+   $$   XX OX+%%. X&   $ ",
"  $$ $$$ &  X.#@ &$ &$   $$ $$  $  $O  * $$   XXO.o .%#.  & $   ",
"XO+   $$  X X.#@X $&$ X   XO+  X     &*$   X   Ooo Oo##. X  $$  ",
" &*$   X  ooX.##$$ X  XX $O  * .           X   X $ .o#%.Xo  X   ",
"       X   $X.:#X$ X.o$    &*$ $   X         XOX....O##.XX  X   ",
"         X...@#@X$ ..$$  X  XX O oX.XXO +X+o+XX++X.+@#%...X     ",
"XXO +X+o+X+X.@%@. +$$ XX+++oo o+oX$.X.+.OoO+O.+.OoO+O.#.X+X+o+X+",
"X.+.OoO+O.OoO.%%..+XO.XXX.+X Xo.@O +@Oo.o.O@+O@OooO@Oo@OoO.O+OoO",
"@Oo.o.O@+OooO@##@o o+.++Xo@@O%o@@+ooo@%.o@.oo%@O@%o%##@OooO+@O.o",
"@@@@@O..@@@@O@#o+ Xo.+o@O@oOOo@o@@oo@@@@@O..@@o@@@O@#ooO@@@@..O@"
};
