/* XPM */
static char *greystone_11626371858[] = {
/* columns rows colors chars-per-pixel */
"64 64 24 1 ",
"  c #3F3F3F",
". c #373737",
"X c gray19",
"o c #2C2C2C",
"O c #4E4E4E",
"+ c #464646",
"@ c gray14",
"# c #2F3F2F",
"$ c gray12",
"% c #565656",
"& c #2B372B",
"* c #020202",
"= c #101010",
"- c #181818",
"; c #1F4317",
": c #334733",
"> c #27531B",
", c #5D5D5D",
"< c #233323",
"1 c #3B4B37",
"2 c #2F6323",
"3 c #656565",
"4 c #3F533B",
"5 c #17330F",
/* pixels */
"*--@X O3%O%@ .o$*@X+%O%O%% oO%O X%+Xo$oX.@XXo$oX %O+O+Xo-.XXXo@*",
"=-@X ++%O+Oo%+Xo=X+%O+  . +.++ %X%  XoX. X .X@X +O  +  X-.  ..o*",
"-oX  +O%+%+X+..X= %O +X... . .+O.O+. @.++...Xo.O%+  +  .-+++  X=",
"o. ++%%OO +. +.X=+O  + XX...+++O.O+..o +O+  .o.%O ...   -O%O+ X=",
".++O%OO++++  + X=OO +O% oX . +O  ++O.XOO + + X O+ +   ++@++OO X<",
"O%,%O+++O  ++. .=%+  + %.o. +++   ++.oO+ +++OX.+ O+.. ++@.. ++#<",
"%+O+++ ++O+++  .$,.. ++OOX.+. ++  + .@O+++ + . O+ + . O+o.&.&#:#",
"O .X..+O +  +#+ @,+++XO++  +  +O ++ .-%+O+++O.+O+++++.. X+###:1#",
"XoX.  O .  ++###o% .XO3O+  +..+.+++ .-%+..O++XO++O+  +&#&#: &#:&",
"ooX .+++. +O++O @XX O3%+++O+  +O+ ++.-#+O+O+O + ++++ +  . # +O#&",
"oXX.. . .  +OO+.@.. %+ +O+++OO+.+ O.o-,...+  . +O+ ++.  &##  +O<",
"X.+ . ..   +   .@,%%    O++O%% X+O+Xo$1 .#::+   +O+++   & .. + @",
" .+++ O  +.   O @O%++ +.+.O+  ..++ Xo@4:14##:O. +   +.  +  +  X=",
"+    +O++.. .++.@ . ..+. .+   .XOO Xo$1. 1. #:X.   O .  ++++++o*",
"O+ +  +  +... +.=X. +.+O X  ++.o+ Xo@$+ X:  +#:. .+++. +O++O..@*",
"O        +  ++ .=oX.+XO+.oX.  X@.Xo@$=O X&..   #.. . .  +OO+. o*",
"% &++++ +  ++++ *=@@@-o@=$ooXo@-@oo$=*%  # X...+ & ..   +   . X=",
"%+# ++  O. O  +.=$oX. +#o.++O%%O O+Xo@%++&+.  .+++&& &&.   O  X$",
"% ###+O .o     +-oX... :oX.. OO.@@X.X@O+  + ++    ++++.. .++. X$",
"%  #>++  .++ ...$X.   +#ooX. ++ oo@XooOO +  + + +  +  +... +..X$",
"O   ;   ..    . @.X+ +##X.XX.  + .o@@$O+O  +O+        +  ++ .&X$",
"#& #> + .. O...+o+ &#:# .++.. . +O XXo%++ O++   ++++ ++ ++++##<$",
":;#>2#+++ XX....@+.. # + ..X..o.. +O+oO +O+ ++ ++++O ++... ++ .$",
"#.+#:#O  X.... o$+.X.&..+.. ..$+   + @O+++ +O+++ ++  O+ .X.  ..=",
" .+ .XoX.. . +..$+ . &..X.+ .X$+  +X @O O.  +OO....XX..........=",
"XX.XoX. .+ +++. @O ##&#&&#. ..o+++#X.$% O   +   .  + +++. O%  o*",
"@oX.. ++.%      @O+#    .XX . X&#:#X.$O + +.   O  +  . + +++++.*",
"-o.   O .O  + ++o:## .. X +...  .&##:@% ++.. .++  +X....+ .+++.=",
"o. O%O X.++ ++  o%  +.Xo +. .. .X  ..@,+  +... +  + XX..++++ ..@",
". O+  .o. O++++ oO++ X@oO   X.  X. ..@%++ +  . O +O% oX . +  +.@",
"+O+O .oX. O+  ++o .X@ooX+    .. X.+. o% ++.  .  < + %.o  +++++.@",
"O  + XX. OO++ . o.X@oX.X.    .  X....@,+++   . .& ++OOXX+. ++ X@",
"% + O.. O%OX   .@oo@o..XX.   ...X.XX.$O  +.  +; ;   O +O++O+ Xo$",
"%++ ++  %+X.X. .$.. +O+.Xo. . .+X.Xoo*..  .  +;;>++ %.+O++O+ .X$",
"+ ++++# O.X..  .@OO+OOO+.Xo.+    ..X@*oX... +O+#>#; OO. +O+ O X$",
".  +&#; +.o++ .Xo,+++ +OO+ o. .X ...X*&#& .  #:>2>;# %%+X O+ Xo$",
"X. .X.>;&.@ +.Xo@+   . +  X..X.X ..X $:1:## ##;>>;  + O% Xooo$-*",
"oX.+. 2# X$X.Xo@=O   .......XX.+...X @&#O  +.  ;#  +++++O ..Xo-*",
"$oX.X&>;.o-oXo@$*+..Xo OO+.oXX  .....$O++++.. .+#.    X +O%,O.o*",
"*=-$@@5@@@*@@--**O  X O .  X... X.. .@O +  +...#+..   O ++O O%.=",
"$@oX +o-o.+,%O X@O+OOO+..XXX ........$.    +  #+.. O% + ++O   o*",
"@oX.. X@X  +OO+.@O++++  ..X. .  .. ..=X + ++ +++X +++++ +O++ XX*",
"oX. .++o. +O++O.$#+.. ..XXX  . +X. . =X.  ++.#. o+ .++O  +  .Xo*",
"oX.   O..  ++++ o ##...XoX.XX. .X+   $oX  O+ #X.o ....O+   .Xoo=",
"oX.O%,% ++ .O+ +@O+;X.XXX.oX..X... . $$oX O+OX#.@.O+ +O+. ...o@*",
".oo%+++++++ + O+@O#>.+  +.XX..ooX. ..*=$oX.+++#X@X...+++ O+Xo@$*",
" Xo%++O  O++O  +@O>2;.XX..    .@X.+. **-$@XoX.&o@oXXo .. Xoo@$=-",
"+X O .X .+O.+ + @ ;>5.oX.. ++ OXX....-@o..OO%%%%%1%%X%,,+O +O+ $",
"% O .. .X   + +.@+.;oX.XX.  + ++X.XX.-o.O  +. ++#:#+.O  X. ..XX$",
"OO  ++.XXO .  OO$ .;;#&  ..++..+X.Xoo=X O .+  + &:+& O  ...++ X=",
"%++ + XX   . +O+- ;>;.&<<<<      ..Xo=X+++.++    # +  .+  . + X-",
"%OOO%OO .X ++% X$##;XX..   ..o.&###.X=X . .+ +++.    ..  ... Xo=",
"O +#++O+O+ + + o$#&.X..  .   ..X #.X $. ..   . +... . . + .Xo@-*",
"# +:O +++O+O  XX$#..XXX.. .....+.#.X @. O  X.... o. .++ +#XXXXo-",
":###&X + +++ X. @%  .  + .. X.  .##&;$O++++ XX....  .  +##+O.+.-",
"# #+ . ++ +++   @O. X  . . .... X&#;>@O + .. O...++ ++  +# & &#*",
"..&+   +O++O%O+ @+. o  .   +X......&;$O   ..    . + +++  ++...o$",
"O  +O%O++ ++O+O o+..@ +++ +...  .. .&@%++  .++ ...+  +.+   .XXo$",
"OOO+   ++++O%%+X@% .@ ++++++ .X+X. .X@%+O .o     +....+ + .XXo@$",
"+  + .. + + ++.o@O .o.. +OOO+.o.X+  o$%+  Oo O  +. +     Xooo@$$",
". +  X  . ++ .Xo=XXX@X.oo. + .@... X@$ .  % X+++ & &+  .Xo$$$$$*",
"X.  .X+   ++.Xo$*@o@-@oXX   +X$XX .o$$o. +%O.X+.&#&O+ .Xo-*---**",
"$oX.X@X.. .Xoo$=*=-=*=@-@oX. o$o +X@=*$o.++OO.Xo#:#  .Xo$=*=-***",
"=$---==-$@@@-=***********=-@@$*$@$==**=$@oooo@$<&1&<oo$$=***=***"
};
