/* XPM */
static char *greybrick_31626371858[] = {
/* columns rows colors chars-per-pixel */
"64 64 13 1 ",
"  c gray14",
". c #373737",
"X c #2C2C2C",
"o c #3F3F3F",
"O c gray19",
"+ c gray12",
"@ c #464646",
"# c #4E4E4E",
"$ c #181818",
"% c #565656",
"& c #5D5D5D",
"* c #101010",
"= c #656565",
/* pixels */
"  OoO+ Oo@. #o.OX Xo@@o  XX$% +$ X.X+*+   X +Oo.XX@o..OX oooOOO ",
"X.O X  $ OX @.OX...@oo.OXX.+@ $ X.O *$*$+  +OOoXO@ooo.OX.@@O OX ",
"O  O...X++ .oO. Xoo@oXX.o.X .  XOX +++ +** +OoOO.OOO..X.o@.OX  +",
"  .@%%@@. XXO.X +XX.o.OX.X+XO XOX $ .@. +$+ .OX  X.X.OOooo.O  + ",
" .@%%#%#@. $ OoO +X.X+ +++OoXX.X +Xo@%@@O ++ X.X  XO Xoo.X X +XX",
".@%#@@#%#@.X+ OoO ++ + + o. X.O $+o%##%#@O +* XO ++XXOooX  ++ X ",
"@%#oo@@##%@. + .oO  $+$ OO X.O $ .&%o.o%#@.X + X. +  OoO  ++ X .",
"%#@o@##@o#%@.X X.o. * OX   O. + O#=#.O.o#%@.  ++ O +  OO ++   .@",
"#@o#.O.oOo#%@.X+ . + .@. $   + .@&%o.OXOo#%@.X+++ O +   + XX .@%",
"@@o.Xo#...o#%@.X+ + .@oXX$+$*$ o%#oOOO  .o#%@.X+*$ X +++ X  .@%#",
"o@@ .@&..o.oo.oX$$+X.o..OX ++ o#@oooOX O.o@#%@.X+*++XO  ++ .@%#@",
".ooXo##OOX X.O.X+$$ .ooXX ++Xo@@oooO.X .@@.oo#@oX+*$+  ++ .@%#@@",
"#@.X@@O.O + XX + +$$ XX +++Xo#@.O.o.XXOo@o.OXo@@.X $$+$+ .@%#oo@",
"oOO.ooo.. X   + O $ + $+$+Xo#@O.OO..O+oo@O.O Xo#@.. $*$$X@#@oo..",
".XO.o@o.XOX +$ .O+  X+$++O@%@.OOo..O+ Oo... XXX.oo.. $$*Xo#@ooO.",
"XOX.o@X..X ++ .X+XooX  + o##oXOOo. XX ..X.OXXoXX.oXX. $$ Ooo.OO.",
"o.O..o#.O ++ X +X@%@.  $ .o@ooO...O..Ooo..XXoOX $+ O + $+ Oo.XX.",
".oOOo@oO +  X  .#&&%@. +$ X.Ooo.o.XOOooooo.O@X $+  +++  +$ Oo. X",
"X..Oo@oX+  X +.@&#@@#@oOX$   OooOOOXOOooooooX $+  + .o@.+$$ OoX ",
"+Xo@..X   X ++X#o...o@..X $+ XX.o.OX XXX OOX $+  +Xo#&%@. $$ OoO",
" + X.X+ XX   + oX.OO.. .@o $ X  XO.XXOO...X $+$$+X@%&&#%#.  $+XO",
"O +  +  O  O@o. .XXXO X@##o $+ X  O.Oooo@X $++* Xo%=%@o@%@.  $+X",
" O ++  O  .#%&#o XXX  Xo.o@. $+ OX O.o..X $++$+Xo%=%@o..@#o. $  ",
"+XO  XX  .#@ooo@.   ++++OOX.  $$ OX XX.X $+ $+Oo#&%@.O.O.o#@O ++",
"++XX    .#@o..Oo@#o@%&%&###oo. +$ XX    $+ ++Oo#%#o.X ..XO@@@.++",
" ++ +$ .#@o.OO.OX .ooXXX@..o#%oX $ OX++$+  $Xo@##@o.  OO...@%@. ",
"+ +$$ Oo@o...OX  O.@..OXX..Xo@%oX $ X $+  $ o#@@.@oOO XX. oo#%#.",
"O  ++ Xooo...o +XOooo.O+X+XXOo#@.. $ +++$+ o%%o..@. +oXX .@@@@%@",
"oX+ ++ X.o.OO.X  @@@OOXXXXXOo.oo#..+$  ++ .#%o Ooo. .%. Oo@o.o@#",
"@oX+ $+ OO...O  Oo#...XXoO Xo...O X $$++  ##@..X...O%@.O.@#@o.o@",
"@#o   +$ X...XX .o@.OOXoo.X  oOO +$++*$$+Xo##o O.o.ooOXO.@#@.XOo",
"o@#oX  $+ X.OX.OOo...XOo.XX X.O +$+ +   ++.o#@XOOoooOX..@@#oXOO.",
".o@@oO $*+ XO.oOooO.XOO@.XX O. +$+ + O.X  X.oo.OO@ooO X.@##@XOo.",
"X..@@.X+**+ XOOoo.oO  Oo.XXOO +$+ + Oo@oO X .oo.@@oO  Xoo@@.XOo.",
"XO .oOX+$+$  O......OOoo.+OO +$+ + o#%##oO + .O.oo.OX  XooOO.OOo",
"   OOX $   ++ XOOo....XX XX +$+ + O@%@o@#oO+ XX.@o.OX  Xo.Oo  Oo",
"+ OOX $ Oo.X++O +++ + X  X +$+ + O@%@o.o@#oX+  X.OOXX O.oooXXX. ",
" OXX $ oo@@@O Xo@#%#O+$+  $$+ + o#&#...Oo@@oX+$ X..o..@@@.OXOX  ",
"  X  + .@#%#@O + OXOX. $ +$+ +Xo%=@@oO.o.o@#oO +  X @@##..O.O  +",
"X  +X+$ O@#%#@.X +  ++ +$$+ +Xo%&#o@.OOO..o@#oX +  + + O.ooOX + ",
" ++O#&%@X.o@#%@.  +  + XX +$ o@#@.X.X XOOXoOo@o. +$X&#oXOO.X   X",
"+$X.@#%=@X.@o#%@.X + X     $Xo@oOO.o  OXO.OOo@#@. +X@&#o++  $++ ",
"$Xo#%##%=#.%oo#%@.XO+  $$$$ o..OXO.ooX...oOX Oo@oX +O@&%.+++ .O*",
"O@%##@oo#% @#.o#%@.X *+$$$ + X+ XX..OOO.@.OXX O@#oX +O@o#o$ .X+*",
"@%@@@.ooo@ o%@o@@#o  $+*$X  $+++ XXoOOX@ooOXX...o@O  +Oo@#O $++ ",
"#@@.ooO@..+O=@o..OX++ + O..O++ ++ XOOXO.@. X.O@oOoOO $+Oo@oO++Xo",
"o.oX @.X.O .%o.OX  XX Xo#%@@. + ++ XXo..@O XO..oXXO  +$+ XO  O@#",
"Xoo+.#.O  Xo@OX +$ .XO@%&=%#@. ++++ Xo.ooo XO.XXO.X+++ *$$  .##@",
"Ooo.#o.XX o@. +$$ OXXo%=%%#%#@.X+ ++ X.o@O OOX X.O++XO  $*$O@##O",
"OO@.@XOOo %o +*+ X  .@#@@@o@#%@. $  + X.o XX  O.X +XooOO $+o&&oO",
"O.X.oOoooO#O $$   X.@#oO.OXXo#%@. $ ++ X.X   X.X+Xo###@. +$X#%@O",
".OO Xoo. O.+$+ X+ Oo#@OO X  Xo#%.  + ++ XX + XX+ o%%&%#o. + o#%@",
"oOXXOOoO @X$$ O  .o#o.XXX.XXX o@. oX  ++ ++ X + o%=&&%%@oX++ .##",
"#oOOOoX  o $ O Xo@#@..X.O..X  .X .%@X++++  X +Xo%&#@@#%%@@O+ +.@",
"o@oOoOOX+O+XO O@%%@..X oooOOXOX o%@#oX $+XX $Xo##@....@#%#@O+* X",
".@#o.O  *  X O@%#@@@OXXo.ooXXX .@.o@@o. $++$+ %%#oo..O.o#%#@. + ",
" Oo@.O+$+X  .@%@oo@ooO .@@o.o X@.O.o@#oX++++ .@%@o.OOOO .@#%@. +",
"+XO.O+$ OXO+@%@oo...X.Oo@oOoX+o.OOX .o.X $O@oOo&#oO.OXXX .@#%@. ",
"+ XX $ X    o#o.oO..XO.oo..o  o    X X. $ o#@X.@#o...OX O+Oo#%@.",
"X +++ X Xoo. %@oOO..XOO.@@o.$Oo X +$+  $ o%=@oXO&...OO+OXX .o#%@",
".X $ . Oo#%o =oooooXXOoo@@@X @@.XX $  $Xo%&@@oO+@o...X +  ...Xo#",
"o.X   Xo@%#OX&o@@@.X.oo...o .@.oO   X+ o%#o.O +  O@.OX XXooX.OO@",
".oOX X.@%#o o%@o@.XO.ooO OO$@o   + X + o@oOO +XoO #o..OX oooOOo.",
"X.oO+ Xo@#o @#@o.X.Oo@. O..+#O +$+ X+$X.OXX   o.O+%oo.OX.@@O oOX"
};
