/* XPM */
static char *left1626376813[] = {
/* columns rows colors chars-per-pixel */
"64 64 24 1 ",
"  c #464646",
". c #3B3C3B",
"X c #373737",
"o c #2C2C2C",
"O c #3F3F3F",
"+ c gray19",
"@ c #4E4E4E",
"# c gray14",
"$ c gray12",
"% c #565656",
"& c #5D5D5D",
"* c #060839",
"= c #181818",
"- c #0C10B8",
"; c #06099F",
": c #61645F",
"> c #020579",
", c #020589",
"< c #2028C8",
"1 c #656565",
"2 c #000468",
"3 c #101010",
"4 c #000460",
"5 c #000458",
/* pixels */
"@@   OO   .O  OOO   OO.O O. @ O+.O @..O O.OO   OOO  O.   OO   @@",
"O@@@@@@ @    @@ OXO @ O.OO   @ .X .. .OO.O @ OXO @@    @ @@@@@@O",
" %%@   @%@%O.OOO  @@   OO.X@%@ o+. %.X.OO   @@  OOO.O%@%@   @%% ",
"oO       ..     .XO       @O@ .O.. @O@       OX.     ..       Oo",
"+O     @@ .+   . @   O @ .O O  ... O O. @ O   @ .   +. @@     O+",
"@  oooooooo#oo$$oooooooo+& . .XO.X. . &+oooooooo$$oo#oooooooo  @",
" @&$#ooX++o##o+o#o++++o+&O.+........+.O&+o++++o#o+o##o++Xoo#$&@ ",
"O@%#o+XX  XoXoo#oXX...O&@@O   .==.   O@@&O...XXo#ooXoX  XX+o#%@O",
"@%O$+XoX. .ooo.++   . &@ O @ .=#==. @ O @& .   ++.ooo. .XoX+$O%@",
"@.+=oX.  .X+X..  . . &%@.#O@.==#+==.@O#.@%& . .  ..X+X.  .Xo=+.@",
"   $+X....#$o..OO..O%@ o .o.3#o+oXo=.X. X %& ..  ..X#o....X+$   ",
"O @$X ...+=#.. @OoO% OOXoX.3#o.X..oo=.OoO  @& o @@..o$+... X$@ O",
" @@#+X. OOo+oO  +o%@X OOX.3#o.ooX..Xo=.O   O@&X+   X+o   .X+#@@ ",
"@@@#.     O..O+o.%OOo+. .3#oO .+Xo. oo=. .+X  &.o+ ..      .#@@@",
"  @#X+X.O+o. ..@% XOX+ .3$#+OXXXoX  +o#=. +O O@&@.. .o+ .X+X#@  ",
"O  $+.  O.o.O.O%: .+OO.3##.O X.oo..Xo.oo=.  +.@:& . .o.   .+$  O",
"@@@#+o @.#oOO %XX  OO.3$oOOXXXXX X .+X X#=.  @@OO&@  oo.@ o+#@@@",
"@@ $oooX.  .#%@ O   .3$. XO  X+o.   oo.@.#=.@@@ @@&o.@ .Xooo$ @@",
"%  #o+.@.oo#%O  .o..3#.oXX****oX   .ooXXX.o=..X.   &oXX.@.+o#  %",
"   $o  .o.O%@XXO  .3$o.X**4>,***********o.X#=. @ OO@& .X.  o$   ",
".X $#o...X% OX.XO.3$#***4>;-;442222>>,>*++Xo#=. O.O @&O...o#$ X.",
" OO$ooX @% o O  .3=#**2>,;--<-,,,,;--<;*+...o$=.@@  X@&@ Xoo$OO ",
"XX $X o %@O   X.3$o.X***4>;-;4222222><>*+.X+.o#=.O  @ @& o X$ XX",
"@@@#o.@&@.X....3$=oO.X O**4>,*******4->*++. .X$#=....O.@&@.o#@@@",
"@  $+X&@ oXO .3=ooX XXO oX****oo.oX*5-,*.+*****.$=.@ OX @&X+$  @",
"O  $.&@ X.oX.3=$oXXoo   OXoX.  O# .*5;,*.+*>,2*.#$=.OX.O @&.$  O",
"O @o&@X.OOX.3$o.+o.OX+X X+oO@@OXXX *5;,*++*4;2* .o#=.O  .X@&o@ O",
"OX & OO   .3$ooX##o+oXXX***o XXO.XX*5-,*.o*4-2*.oXX#=. @ OO & XO",
"OO  +O..X.3=o.XO o++#$***;*oO#oo...*5->*.o*4-2* +..o$=.O..O+  OO",
"       O.3$o+XO Xo O***>;-**********4-,****4-2****.+X#=.O       ",
"  @@   .33o.+oo @ ***4,;-<2222222222><>22224<,222*.+.o==.   @@  ",
"O @O@@ o3$+oo+o@ **2>,;-<<<---;,,,;-;<--;,;-<--;,* oX+#=o @@O@ O",
"%   XO =3o..#+X .o***4,;-<2222222222><>22224<,222*.o..o== OX   %",
" %   X .3=oO++oo .X.***>;-**********4-,****4-2**** + X$=. X   % ",
"@ @@@@ .+3$o.+$. OOOOX***;*o.X O++X*5->*o+*4-2*.+...o#=+. @@@@ @",
"O @@@O. OO3#oX+oX Xoo$$ ***o XO ooo*5-,*++*4-2*.++Xoo=   .O@@@ O",
"   &@ O O@O3# +ooo+@@OOX##+X..X .Xo*5;,*+o*4;2* o+oo= @  O @&   ",
" @@#&%.OXOXo3$#o   .ooO.#X .XXX.++o*5;,*+o*>,2*.oo#=XO OO.%&#@@ ",
"@@O$O&@O##X.o3$oo  X X+#..****o#+.X*5-,*+o***** o#=X.OooO@&O$O@@",
"X O$o &@oo$#oo3=#o   +#X**4>,*******4->*.oo. .Xo$=XXo#XX@& o$O X",
"OO $oXO& @@$#oo3=ooXX***4>;-;4222222><>*...X.Xo$=XXo#@@@&OXo$ OO",
" XX=o.Xo%O OXX.+3=o.**2>,;--<-,,,,;--<;*++XX.o$=+.OO @ &oX.o=XX ",
"OO $oX+XX%O.XX...3=o.***4>;-;442222>>,>*.o+.o$=...OO. &OX+Xo$ OO",
"   #o..XoO%XXO OOo3#o+o+**4>,***********.o+oo=X    OO& XX..o#   ",
"  O$oX. .o.%OoXX   3$#.ooo****o o.X..o....o#= @ OOX &.o. .Xo$O  ",
"O  $oXXX..++%O.XO  .3=oOXO XXXXXooXXo    o$=. @ O. &++..XXXo$  O",
"% .$+XXX++++.%@X#o X 33oOOOXOOXX+XXooo. o== O XoO%&.++++XXX+$. %",
" %%ooX$#oo+oo %X.X.o.o3=o O  O OXXo#.@ o$=o.X.O.O& XX+Xo#$Xoo%% ",
"@ O$ooo.....o.X%   X X#3#oooX  OXX ..ooo=oO O  @&O.X.....ooo$O @",
"O O$o++oo.OO..o+%OX OOX.3=$oO XXXXX+o#$=.O   O &+o..  .Xo++o$O O",
".X+$X....o.o+o.o.%O.X.#.o3=$#OXo.Xoo#$=X.o.O. &.X.X+X.X....X$+X.",
"   $oXXXoo..o+o+oo% oo...o3$$oX .XX##=X...XX@&XX+o+X..XXXXXo$   ",
".X.$+XXXoo.......oo%   ..O.3=#oo.Xo$=. ..  @&XX.......XXXXX+$.X.",
"XO.=#+X+o...o....ooX%ooXOXXo3=o..o$=XOO OXX&OXX....X...X+X+#=.OX",
"o+X$o+X..X.XXX....ooO& OOO @ =$oo$= @ OOO &Ooo....XXX.X..X+o$X+o",
"Xo+$+X+X..X+X.  ....XX& X.. OX=#o=XO ..X &XX....  .X+X..X+X+$+oX",
"  O#.OX.     ...XX.XX.O&OXXO  .=#.  OXXO&O.XX.XX...     .XO.#O  ",
"   o %@@@X @@@%%@@@%::%O&O  O  @$  O  O&O%::%@@@%%@@@ X@@@% o   ",
"+. &11:::1%%%1:11OO%%:1:: .X .XO X. X. ::1:%%OO11:1%%%1:::11& .+",
".O @@%@   O@@@O.OX@@@  O  @@  OX.O  @@  O  @@@XO.O@@@O   @%@@ O.",
"O  O   @ OO@OXOXO  O  OXXX     XX     XXXO  O  OXOXO@OO @   O  O",
"XX  @@X    @  O @   .O@@.o#XOO    OOX#o.@@O.   @ O  @    X@@  XX",
"@@@@. @  .O....  +O @   ++.OOO@ O@OOO.++   @ O+  ....O.  @ .@@@@",
"@    X.  XO @  XoX.O   @OoO@@Oo+.oO@@OoO@   O.XoX  @ OX  .X    @"
};
