/* XPM */
static char *moss_21626371859[] = {
/* columns rows colors chars-per-pixel */
"64 64 30 1 ",
"  c #1F4317",
". c gray14",
"X c gray19",
"o c #3F3F3F",
"O c #17330F",
"+ c #3B3C3B",
"@ c #2C2C2C",
"# c #464646",
"$ c #373737",
"% c #4E4E4E",
"& c #454844",
"* c #13230B",
"= c gray12",
"- c #27531B",
"; c #565656",
": c #4E504D",
"> c #2F6323",
", c #181818",
"< c #5D5D5D",
"1 c #585D56",
"2 c #656565",
"3 c #37732B",
"4 c #101010",
"5 c #6C6C6C",
"6 c #3F832F",
"7 c #747474",
"8 c #6D7068",
"9 c #747B70",
"0 c #61645F",
"q c #0B1707",
/* pixels */
"XX.Xo%:;X.$#<8292;1;0;;2;$====...@$#;  ->  ;28;7.#1::#$@.,,,,,,=",
"$.X#;%##X.$#+XXXXXo&ooo&$..$@$#%;;%1 -->3---&o+2#.XX+@#%&X.,,,==",
".X#<#3>-%o.@XXXXXXo&&o$..o;#$552;%>>->3333>-+++%<#...@+$#o..,=.@",
"$#<->33- %o.@XoX@X+++o.#<%+o$o+XX->33>>>>>>> -  -#o...+X$#$X..&.",
"#;--->>- #%o.$ooX@....#;#o++$o+-363>>>--- ->>>>--  X@...X&o$.+;.",
";%&o->- O$#%X.$#XX#<2<1&&ooooo->>>--    - ---->>--  o%%o@X..o;oX",
"<#&o->  OXoo#..X.o%%++++->>-O-O -  ---- --- --->>--  --#o@.+##o@",
":&&o$-- O.ooX@$..#oXX->3>-- OoXXX.=*O      -   ->>--  --##@@XX+.",
"XXoo$ - O.&X..=@.#X->333>- O.&XX+$X.*O --- -    ->>>--    o@...,",
"..Xooo- O.o.@o;o.$->33>-  ..XoXoo+$@.*O  -     O -->>----  ;#$,4",
"@o=XXoOO.@o$o;+$. >3>>- ->=Xo++oo+XX@.*         O -->>>>>---<<<$",
"XXo.@++X@oX.XO  O-3>-  -  =XoX+o&o+XX.O- ---O- OOO  ->33>>>-  o.",
"#-     OOOO.O --->>- ->>--=X+XXo&&+XX@@- ----   OO -->>>>->>- X.",
"; ->363>>-- O->63>- ->33>> .XXXoo+++X@.- >>- - OO   ->-- -->- O.",
"; ->>->>>>>- -3>>- O ->>>>-O.X+oXXoo+X@ ->--  O    ->>-- O---OO.",
"1 >3>-- --->>3> - - O -- -> *X++X+&&+X  >--  O   ->>--  ---- O*.",
"1#3>- -- --  -  -  - O    ->OXXXXXoo+X ->-- -  ->>--        OO*.",
"; -- --    - - ---- O**OOO  =.X+X+ooo+ -3-   - ->- OOOOOOOOOOO*.",
"1    -  ---      OOO*,,,,.OO=@+ooo&%%+ -6--- - -- O*****O*===**.",
":+XO   - O****OOO**q4.@...***=+oo:%1:+ -3- OO- - O**O=====...,,.",
":+X*OO  O*,,,,=**.X.,@X$X@.==.X+&11:o+ ->- O >-- *OOOO....@...==",
"@.,,**.O*=.....=@+$X.$#Xoo XX@X+o11&oo ->- -> -  O  O*.XX+XXX@=.",
"$$@..==O=.$ooo#%#X..$%>33-  >-- O11&oo  ->-   - O - O*XX++$XX.,=",
"    O..*.Xo%;1%#X.$#<o>3>>--3>-O*%1:+++ --   -  O- OO*X:+++$@.,*",
">3>- O$.@$oo#%#X.$#;&o    O  - **o&&o+XO->  -- O >- *@Xo+++o@.O ",
">>- O*+XXXXX@@..$#;o%&@OOOO=OO**O+o&&o+O-- - - O -  *@&ooo++@ ->",
"--- O*X@@......o#;+&:oX.==.@oXX+ooooo+X ->  -- O>- *.@&oooo ->>>",
" - -O*....o%;<2<;% oo++oo@  XXX+oo++XX ->--- - O--  .@$++ -3>---",
"   O*.o%;%%%&--XO --oX+oo$ ->- +++++->3>--- - - O -> =.@ -3>- OO",
" OO*@#oXXXXX&-3 ->>- XXo$X -3>- +X+->3>-  ------  ->> . >>- O***",
"OO.X.%XXXXXXo >3>3>- OX -->3>>- OO ->>-  --- -------- O.OO.=**==",
"**X.$%XX+oo&oO >63>- O@ >>- -->>3>>>- - --- O     OOOO*.==.....=",
"=..X%#X  --- *O-3>>- O. 3-    -   - - -    OOOOOOOO**.O.@@XX+XX.",
"X..%#o ->3>- *O->--  O ->  - -- --     OOOO.*******O.@++XXXXXXX.",
",@$;o  >3>-- O >> - O O >----  --O -- OO***O===..==.@$X.....XX.=",
".o%#oO ->-  -O->- -O ->>-- - -  --    O*==.@XXXXX  - ..X%<;%$..=",
"75;%#O    OOO >--      - ---   ------ *=.@XX&&--->3-O +;#XXo%%%@",
"<%:ooXOOO** ->--  -  OO  -- - ------- *.@XXXo:&->3> Oo;#XX@XXXX=",
";#&1 --->33>->-   --  OO  - - O--  -  *.o@.==,O-3> O ;#XoooX+o&=",
";#&- ->3>>-  --  -  -  OOOOOOOOO     O*@@...#<  - O #XXXXX+XXo&=",
";:& ->3>-    -   -- -- - O******O-OOO*.@.X.@Xo-  OX+++XXXXXXXoo.",
"1#o -3>-   -- -      ---- O*@+XO > O=.@X.%++X+ OO &oo+XXXXXX+o:@",
"OOO >>  -   -   OO->-- ->>-    ->- O=.XX.<o%+X+%1%oo+XXXXXXXo:%@",
"  ->>-- - -  - O=..->---->>>>>>>-- O*.+X.#+#%+=..XXXXXX+XXXXo&o@",
"33>-- - --    O=.@O 3-  ----    -  O*.+X.XXX#%X.===........@o+ -",
">>>-O-  -  OOO=.X+ ->--   ---   - OO*@X@..=.X++@=.Xo%%;<;#X.@ ->",
"-   --  OOO   OOO ->-- ---- -O - OO*=...@=4=..@..$#%+ oo&<oX ->3",
" O=OOO***O ->>363>-  -     - - OOO*=..X%#o$....X$;2oo--%+&<#->3>",
"O,,=====.O  ----- O --- -- -- -O**=.@@#oo;25752;2&&o->-    -->3-",
"..==.....*O       --- -- OOO ->O*.=...@Xo%&XX+ooo++ >>->363>>3>-",
".X..@@X+X.**OOO -->- --  O=O  > *..o.X.@$:oXoo+X+  -3>->>>>>>-- ",
"@oX.@XXXXX..==@->>>- - O*=.O ->> O.X.#$.@o++oo++ -->3>>333>- - O",
"@o#..XXXXXXX&o@->>- - O*...O -->>- .o;#X.o&:o+XX->33333>>>- O O*",
"Xo;o.@XXXXXXoXX ---- O*.X$@O -  ->- oo#oXX#%& O->3>>>333>--  OO=",
"@o%o@.@+XXXXoX@     O*.$o+X*O  O -> .o#oXX#%& -->>  ->3>-   OO*.",
"@$%&%X..X+XXoX. OOO**@o#:+@.*O -- -- O  OOOO ->>3 -  ->3-OOOO**@",
"$$oo+#X,..@@+X.=.==..Xo:o+$@.*O   ->>3663333333>-  OO ->> O**.,.",
".@XXo%#.$%#oXXXX..XXXo->--++X@*OO  -->>>>>-   - -  O*O ->- O...@",
"=.X+o:<.o#oXXXXXXX++o>3>- $ooX.**O  -->---- --   OO**.O ->-OXXX@",
"=.@+o&;.$&o+X+o+X+XX->>--OXo&o@.*OOO    ->>-- OOO**.XX@O -- Xo@.",
"==.@+o%.@$++++oo+XXX-    O@oooX...==@OO---- OO***..XX++oX - +$..",
".==.@o&$.$+++Xo:oXXX OOOO*.o$X..,XX@.O --- O@.$&:&+X+o++o-o+$.,=",
".@.=.+&#.X$X++o:&+X+o$X@...X@..,.oXXXX ->- $X$.Xooo+++XXXXXX@=,=",
"@X@.=@@.,4....X@@.,.@.=.@@@@==4=@$@O*O -3- O*%X4,.@X@.@...@.===."
};
