/* XPM */
static char *moss_1png1626371858[] = {
/* columns rows colors chars-per-pixel */
"64 64 98 2 ",
"   c #0B1707",
".  c #0D130B",
"X  c #0E1C09",
"o  c #121B0E",
"O  c #121212",
"+  c #161D14",
"@  c #181E16",
"#  c #1C1D1C",
"$  c #12240B",
"%  c #152C0E",
"&  c #17330F",
"*  c #162411",
"=  c #192315",
"-  c #172913",
";  c #1A2C14",
":  c #1D241B",
">  c #1E2C1A",
",  c #173110",
"<  c #193511",
"1  c #1C3C14",
"2  c #1F3419",
"3  c #1F3A18",
"4  c #20251F",
"5  c #212C1E",
"6  c #21321D",
"7  c #223C1C",
"8  c #242424",
"9  c #252B22",
"0  c #282D26",
"q  c #2B2B2B",
"w  c #253421",
"e  c #293226",
"r  c #273A22",
"t  c #2A3B25",
"y  c #2D332C",
"u  c #2D3D29",
"i  c #30342E",
"p  c #30392E",
"a  c #333333",
"s  c #353B34",
"d  c #383937",
"f  c #3C3C3B",
"g  c #1F4316",
"h  c #214617",
"j  c #214618",
"k  c #244C19",
"l  c #27531C",
"z  c #29571D",
"x  c #2B5B1F",
"c  c #274221",
"v  c #2A4323",
"b  c #2C4C24",
"n  c #2E4129",
"m  c #2F4929",
"M  c #31452C",
"N  c #334B2D",
"B  c #2E5126",
"V  c #2C5E21",
"C  c #305427",
"Z  c #315428",
"A  c #345C2B",
"S  c #364331",
"D  c #394236",
"F  c #364C31",
"G  c #394C34",
"H  c #3F413E",
"J  c #3D493A",
"K  c #375430",
"L  c #3A5334",
"P  c #3D5C37",
"I  c #3E5239",
"U  c #2F6323",
"Y  c #316725",
"T  c #336B27",
"R  c #356F28",
"E  c #37732B",
"W  c #3A6530",
"Q  c #40423F",
"!  c #415B3B",
"~  c #44623D",
"^  c #434443",
"/  c #464945",
"(  c #484947",
")  c #4B4C4A",
"_  c #465242",
"`  c #4B5947",
"'  c #4E514D",
"]  c #4D594A",
"[  c #50524F",
"{  c #535552",
"}  c #565955",
"|  c #585D56",
" . c #5C5C5B",
".. c #5E605B",
"X. c #61655E",
"o. c #626660",
"O. c #666C63",
"+. c #6C6F69",
/* pixels */
"$ 1 k Y Y U Y U & : * V Y k k 5 q i 6 V k R U V V U V z Y l g < f f ^ ) ) ) ) ) ) ) 0 # # 8 _ Z 1 1 9 ) ^ [ } ) ^ ^ ^ / ( ) ^ ^ ",
"8 = % 1 g l R T l % 1 U k 1 ; : f f d h h k k h < j k r 5 > : 8 a q f d f f H ) { { { 8 O ^ I k g 1 5 d a a k j n d H ^ f a y d ",
"i 8 $ , < g g g z k 1 k 1 * 0 d ) Q f a q : > : 8 q 0 q q q 0 a f ^ d d f f f ) | ^ ^ q q { b U k 1 = ^ f a T g M ) { ) f f f d ",
"* < l l g < k k 1 1 k k < 4 a D f u b x k u e 6 n A Y T V l V k d Q f d a f a ^ ) ) d 8 a H z x g 1 8 f s 2 U k k H } ^ n N n y ",
"h z T U V h & < k k h ; @ 8 F V b l z Y x z g & ; g 1 < k k z z m s f / { d a H H Q H q ) N k 1 % $ q q 5 l x k g g c k g 1 1 7 ",
"Y T z k l x k 1 = + = # 0 d Z Y V 1 < k l l z l 5 : * % < < k U k g ( f / d H f d a a 8 ^ k k g g $ 0 a t g 1 1 1 1 1 & % k l z ",
"Y k k k k k l h + 8 # 8 d M T Y < $ $ 1 h g l z k 4 0 8 = + 1 l V l n ^ ^ f ( ^ d f f q S l < 1 k < 0 f i @ @   $ % 1 & x x z U ",
"7 l k g g g % $ # f 0 a f b l h : 8 0 1 k g 1 j k : q a q 8 * < g < k u i / ) ^ H k V < 1 g g k g l 1 H d d q 8 o X % l k r 7 k ",
"g k k j g $   O q 8 d { ! z V l < 8 8 k U Y k g k > 8 q a q 8 # g g < l l M d a d $ - , 1 Y g 2 - X = : 8 f ) H d @ $ g g 3 3 g ",
"k l g % $ @ 8 0 ^ ^ r V V k l k = 5 t k T R k k V l j : q f a q 1 < < g k k 1 9 e 8 : $ 1 g * + 4 a d ( H i H / H 9 : - % = < g ",
"j 1 $ # 8 a q a n V k k & 1 z k ; < 1 h 1 g k V g k k g @ 8 a q X $ < g 1 g g g g V l % < % # 8 f } s g l V g g c d d q q q o % ",
"& $ @ a d f a y V j 3 k l k z k 1 V Y l k , = = = : q q q q 8 8 4 O , g 1 , 1 % & & 1   , + q d ) u l l g < l g , d ^ / ^ d 8 : ",
"9 @ f d f ( a a z w 8 1 k g g k k V l j k = q a H / ' a f ^ ^ d q 8 , k k < X 1 l z < . o 8 d M V k g g g 1 - $ = q f { / H d q ",
"d - Z ` ! f f f d 7 g V 1 1 g k 1 k l k 1 8 ^ a 8 d ^ ) ^ f ^ f f q $ , & - k V l 1 $ @ f d f N k b g k g <   9 q q q / ( f f ^ ",
"d 1 l l k 6 q d F V 1 k k l k k < < < - = q f H q H ( ^ q f f f H d 8 o X g U k 1 $ o # 0 { a 9 1 g g V l <   8 a q 8 q f H f ^ ",
"f s : = : q ^ ^ 1 % $ = @ = @ = 8 8 8 q a a a H q H a q f d d a d d 8 @ % l T l <   8 8 8 ) q q o = - < g > + q f a q # # 8 a d ",
"d d / f a H ^ ^ f d a a a d f Q a Q f Q Q ^ f d # ) H f a a q 8 8 8 0 @ - g V 1 % . q 8 d ( d d s q # # + : q a q q ^ { f d H f ",
"^ q a [ / u V V l 6 a d ^ ( H f d Q d q d / a 8 8 f Q a q q 8 8 q 8 8 0 8 = 1 = + 8 q # q a f f f ) q 0 8 a ) q 8 ) [ f f q q a ",
"y 0 q d ^ M g 7 t 0 8 d d a a a d d a # 8 f # # 8 0 a 0 8 # # 8 q a 8 8 # 8 q 8 # q 8 @ O @ q d q ^ a q q q H 8 q ^ H d q q q 8 ",
"V k a H I U E E x 6 f | ' ^ q q # a f ) H f a ^ _ / M ^ [ ) ) { ' I l f ^ / q 8 8 ^ } f ) ^ { | +.^ ) { ) 8 # f ( / ^ / ) ' ^ f ",
"k 1 5 l V V g 3 # a d G G Q } } { } [ d q a ) ( y j k 7 8 q ^ H z U h - 9 ) ) q ^ { ) H ) a f H } a ^ ^ ) ^ O { ) d ^ ^ f q 6 g ",
"k < < V z j g 3 5 a f z k 8 Q ^ ( / ^ l c q ^ H ^ u 7 V 5 y t l U l h < + q a 8 a ) ^ f ( a a f  .f ( ^ H ^ O { H ) { ) f / k V ",
"k 1 l 1 k g l l h 5 a 6 = 8 ^ ^ ^ M b V 1 q ^ f ) _ B z g 7 z V g 1 < o # q ^ d f ( / u N m y f ) ^ Q ^ f a O ) f ) | ^ H ^ < 1 ",
"k g < < 1 g k h l l b L v F r 0 m T T k # q f d J U T l k z l k ; % + 0 f q f q f ^ / U T l l c d f a d f f O { y ^ ) ^ f d 8 * ",
"- & 1 h ; ; 1 h j h 1 l k x k g < k k 1 # d f ^ B T V z z h % % @ 8 a ^ ) ^ q # 8 f a V b g l z b r a a f ^ O [ a d f ^ f f f a ",
"0 - z T x 4 + $ h k l l k k z z % X X 1 4 a ^ ^ V V l g 1 h z k 0 d s ( ( ^ { H d q q k g 1 < 1 g g l l k r . { f d d r d a 0 8 ",
"y , h z Y h # # - 1 k k l l k k ; q q 4 8 a F ` u l z k 1 k z x U z D ( f / ) ^ ^ ( ^ 2 % 1 < < g g 1 1 1 , O { ) ^ H k k y > 1 ",
"k l U l z 1 : 8 8 $ 1 k k 7 < < = d f q q j g k q ; , l 1 j h 1 g l U M f H d a f / ] j < g g g < 1 - $ = 8 O  .{ ^ f k U k k g ",
"U T k j g * # 8 d @ $ 6 1 g k j @ d H f q q = - 0 q 8 & k Y V z < 1 g z V b d r r x x g g k k g < $ : a d 8 O { Q u n j 1 g l k ",
"l z k 1 ; 8 a q Q f 8 * 1 < % $ 8 f a f a 8 q a d f d 9 % k x z & & 1 & 1 z V Y V g & < g V l 1 X + 8 f d f O { ^ n g % , 1 g 1 ",
"1 k l j 9 8 i a d d a 8 a 8 8 q d d f H 8 8 ^ ) Q ) ) f 8 - < 1 o + $ - < < 1 < , $ X + = g 2 = 4 q q / ^ q O ) { f a = X o X X ",
"$ % 1 z k p 0 q a d q # i ^ Q Q H a a 8 8 a H ^ f ) ' ) q q @ + q q q 8 = + X # 8 a s f f = 2 y s M < H ^ q O / ^ f f ^ d a q q ",
"8 8 - 1 g l F J q q 8 q a ) H a 8 8 8 f f ^ ^ ( a ^ ^ ) a a a a f ( s r e 8 8 a d ^ H ^ H y n k k 1 : s a 8 O q a q a ) ) f f ^ ",
"f y 8 # = 1 l k Q a a f ' a f a 8 f ^ f q a f f a f a ) a H ^ ^ f ^ 3 g 2 a d a a ^ ^ ^ ^ ^ 7 g , : f f q a O # 8 q a f ^ f ^ ^ ",
"d a a a y q : 2 g q f a d a q a # [ ^ q f f d ^ f a a a a a f a d s = = 8 q a f ^ H d [ ) a < X 8 a d 9 a # O { { a 8 a q a a f ",
"a a f ^ ^ d a a y q a q a a H H 8 { ( f ) ^ 8 d ( ( f ^ q a d d q f 0 q f ^ H / ( ' H ( ^ d a a f a q 4 q O O ) ^ { f 8 a a a q ",
"d a a ^ ^ H f H ^ d f ^ q y a a 8 ( f q a q # # q a f ^ q a d H q H q d H a q 8 q a a ^ d f / ^ H H q 8 q # O ( (  .{ q # q a a ",
"8 8 8 f H a a q a q q f d q 8 8 # 8 8 q # # 8 f a # # 8 8 8 q 8 q d q q q q 8 8 q a # 8 q d d d a f q 8 8 # # q q a a q # 8 8 8 ",
"d d a q H ) ) ' [ ) f 8 8 f  .o.) ) ) ) ^ ) ) ( 8 q f ) [ ( / [ f H H H ^ ) ) / )  .a O # d X... .O.[ ) ^ d ( ( ) ^ f 8 q { ) ( ",
"d ^ d ' d a { { ) f d # / o.) ^ ^ ) f q a a f f q f  .a a q f ^ a d a d H ^ H ^ ) { { a a ..f d / / ^ { ..H 8 d f d q ^  .) q a ",
"d ) a ^ { q ^ ' ^ H d a  .f ( ' a ^ H H i q ^ H 8 [ ) f ^ e q d f H q m l V g p ) | ^ f ^ ^ q a ( ' ) ' [ { a 8 q f q ^ ( f f f ",
"d } H a H f a f ^ f d ( / a a a a / L U V 1 a a a _ D H H < 8 i ^ H a w > - g r t ' ^ 8 u r a a ^ / ^ / ) a d q 8 q a ) f f f f ",
"a { ^ f a ^ q q f f d ^ f a i i p T T l 1 : q 8 } G n f H U q i a a a a q q # # : H F c j k w a a n s a a d f q 8 ^ [ ) f f ( ( ",
"q  .f H f ( f a a q 8 d a f f q 8 1 1 1 - q 8 d ] V T W T V = q q a d f H f f f H g U l 1 1 = 8 H g c 8 q f 8 q ^ ) ^ ^ ^ a f f ",
"d ) f f H ) { ( d ) d d a f a H a a a a a 8 H ) i < g U V B > q a a d f d q a ( S l U < 1 X # q w j j < : q a ) ( f a a 8 8 ) f ",
"( a H d ( ( ) { d f a ^ a a f ^ d a a d q a / ) ^ 0 < g l g = q f f f q a )  .( J l z % 1 2 q a w , g , O 8 H ( ^ ) f q f f ) f ",
"f H ( d f a d f ' ^ f ) d f H ^ H a i 8 8 [ ' { / e % 1 g g = 8 H d f ( ( d  .q i g k % < l 7 w g g < * # a f ) [ ^ d ^ { [ d a ",
"H ( ) d f a a d ^ f d q ^ H { { a 8 8 8 ( ) ^ H d 2 g g l l 5 8 f H / [ ) ) ^ d a f V - < l V z l g - # 8 a d ^ ^ f d a a f f f ",
"^ ) { f f H m m v M ( # [ f f q d [ [ ) d a / ^ H t U g g g : 8 a f } ^ H f H f d c k < < g g k V g g , * q i f ( H H f H ^ a a ",
"f ( H q : , 1 1 % - H O 8 q H ) { / ^ / i a ^ ( H b U V V < 4 i q d } ^ f f ^ d a g k - < < V V V g g , o q i d ^ ^ H ) { ' f f ",
"a ^ ( d a d q q q 6 q # @ f ) ^ H d G V g $ i a J U U g U g 4 i a f H ^ H f ' H S T g < g g U V g , < $ # y H f d f f ) | ^ f d ",
"m S ( a f d f f f s q # O ^ f d B U V b t u ^ ) A U V g g 1 , 3 F m t i d f J c l l < 1 g k < , < 1 $ = 8 a ^ ^ H i 7 m ~ P F K ",
"U T b i i a r t D H 8 # # ^ f a V g g , * 6 U E V g 1 g g k V U l l k l b A b x V g l g , - + O O o : q a a y n N k k 1 g g g V ",
"- g U B n g U T l 3 q # ^ H a p l < , q 8 6 g g < k V g k g < 2 - < < 1 g k k k g g < < o # 8 8 8 8 d a a 2 g V g & , < g g , , ",
"8 , j x x U z l < : a 8 { d d e g < : d ^ a > g V l g < = : # 8 X   % % < , % % , 1 , $ @ q H d y ^ H 0 2 l V g g , < < , < $   ",
"7 l j g 1 1 j g 4 y a / ( / H y , g v i a J U U k , - 9 d i a a q 4 + + @ @ > e 4 9 5 O i d / ( a ^ u g V l g < < < g , 1 g $ + ",
"3 2 < l g g g g q a a ^ ) H f d q q a a f C U V : # 8 a q a f ^ a q q ^ d f ^ f a a f 8 ^ a ( H a 1 g Y U g g & , 1 & 1 1 1 $ + ",
"i % k b k g g g V ) d q ' d V V a { } ( H w 5 - 8 q q ^ a q a a f a a ( f d ) ) ^ f f 8 ( a / a c V l g k V g g g < & 1 1 $   = ",
"f i - j k , - & l V D 8 ) a q > 0 ( ) a a H ^ ^ H q a f a a f f f a a H q ) ^ d f ^ ^ 8 H a f v V g < 1 < g k g 1 g & , * # q d ",
"f ^ a - - 8 q 8 , k F # [ ^ ^ f a ^ ) d d H ) ) f a q ^ a ^ ( ^ H d f ) ^ q a a H ) f # a d f i U g & 1 1 g k g g & g % # q d f ",
"H ^ ^ i a H a q 8 , n s { H | [ H f ( f a a ^ ^ f i i f q d a q a a ^ ' ^ H H a q 8 q # q a H a g 1 , X $ g g g & < < , # y d d ",
"q a q 8 q q q q 0 = - f / d } [ f H ) f q a ( ) / H ( a 8 8 8 8 q q q 8 8 a a 8 q f a 8 # q d a , $ : 8 8 - g & $ $ $ X . 8 q a ",
"^ ) / d a a q q q 8 4 a f d H / f a ( ( a d a a q q 8 8 a ( ( ( d f ( ^ f q 8 q ^ f f 8 8 f a q 8 i a d q = - + o 3 g g g 2 a H ",
"8 q q 8 8 q 8 8 q q # q 8 8 8 8 q 8 8 q 8 q 8 8 8 8 q 8 H q q 8 q q a q q a 8 # 8 q a # 8 a i a i 8 8 8 # # 4 + X $ $ , % O 8 a "
};
