/* XPM */
static char *moss_31626371859[] = {
/* columns rows colors chars-per-pixel */
"64 64 22 1 ",
"  c #2B372B",
". c #2C2C2C",
"X c #2F3F2F",
"o c #373737",
"O c #3B4B37",
"+ c #464646",
"@ c #3B3C3B",
"# c #1F2B1F",
"$ c #233323",
"% c #4E4E4E",
"& c #3F3F3F",
"* c gray14",
"= c #1B231B",
"- c gray19",
"; c #334733",
": c #171F17",
"> c #585D56",
", c #4B5F47",
"< c gray12",
"1 c #181818",
"2 c #3F533B",
"3 c #565656",
/* pixels */
"+%+X%O&+OXXX @O@X  #+OX -O .  ;O  +  @OX* XO>&+  O;X &+XX  $O%@X",
"2@+O %@;+X;OO$%X@.X,oX2; #.#@.O   XOO@@@$#.+&,%.$XXX*+O+.#;..+O@",
"%+%+&o ..+ X@=+;O +o$. X #&o%.XX#o X OX+. =.X+o .*;  X+&.  O#+O+",
".@,+@ O; #OX 1@oO--$ O  X &oo.    +XX@...=$*o+ .@.$O o%  #* #@@%",
" X@+XO  OX*  =Xo +  $  #O#<@ .   #X.X@$#. #o%o= =+*X @o. O  X# %",
"O *+ *.   1  .  .@XX ;  ..1@@o. X<.  @##  #Oo. #$-*.  # &O.$#X=%",
"  XoX+$$;.1o    &+ XX X  X=+ +#X.&$X @*.O$$#   X=*..O##X.* #.X=+",
"+ OX X$ #$:@   X+X    =@#  %.*$X:o. @o# X*X<@ .  .-#.X.X#  # X=+",
"+O%@* #= $:O .X@o #X  $.   o.# X... X-#  # ...  X.@#$$o#@o-# X*+",
" %%@* #.  <+ *O+ #X# X =o#O .O #@. XO.*@ $$%..   o+#$  o  @# .o+",
" %> . #  X#O .oO# $  XX +*O#.  -.  XO< ;O $@# X  o+# ;# X#X# .O+",
"$+% .XO . #O  .X#  .   XX$O$X$$@$$   # . X$ #    -%#..&$ #.#$. @",
"O@+  %    $O.#@-#$X$XX#XX   +.+ooO$ X %.OX $  #;.-%.$# ..#.#= $%",
"%XO-+o  O;$O.o+. o # X=X-- ..+oX@ #XO .  .%.. #X. + $%$= * .# =O",
"&@OO&  OX #O &% #X.   #X-@ o%&X @$XOX  oX#+X  .X .$Xo $ X#o$  X@",
"@&@@ XX#.;# O+%O&.@  O . OO++oX+ . XX ##%X+o. XO .$ &##X##%$O.+ ",
"+Oo+O  $$ $ &O%+o  .XOX*@%#.O+o-. . X ## ,% .OO #  % *XX $o.X#@ ",
"+o@+   O # *X&%% .  XO =%%X +O+.  =*  ## &-   # =+%o*  X; ..    ",
"@O@@.   ;#X&+%%OXo.#.O =,O%-@>X@O###  #.$+    .$# @.$. ;   + %.;",
"X+  X;X;  . .@+O& $O XX#O +>>O@@..##X  $%oXo.#O$=.%@X   XX.=XO#X",
"-oX  XXX#$*++%++  $X.X  * *X #$o$ $#X .@&OO # $=-%&X .#XOX.#@-. ",
"+  O X  $#X@+@@o. . .XO = ..X$>.#X$#X.O%++ .# # @o.##$X O  #+ X ",
"@O& $X  $#@ #&+   $ $X...oX$.O   X.$X.@++o.. O#X@O ..#   #O%o XX",
"$.+. X O#   &>@X@#$ #X# .=+@+@OX  ;   o%@   X < ++   $O#  XO @.O",
"#%oX    # $o%@%+X#$ #X# $# ++O@ X OX$&%@X@ $X# +%X   . # .XO%.XX",
"&&@@.X$O#.@++ ++. $$. @  -%@OXX  ;  $  o@  =#$O%o $.O$ #.O@X .. ",
"%o o$   $=Oo--&o   $..@>%&oX      $  .. o $ $#@@    X#  $o+%%+@@",
"O++  XO $# @@+@O $  *XO o@@XX  X .  .# + .  $*% @$$  # #o.# ++O+",
"O@@X     #.+%+oo.$  =O@o@&oXX   X$  . %X@ ..#  X #$  # #oX  OOO@",
"%+o    X #-@o +o  $$ .+%%O     XX#.#@+X@@.#X# O+.#XXX    X ,,O++",
"+o %..   #-@X+>X .$#.X#XoX     .X#X*   @. $X##- # OOXO $ &+O@X@+",
"+.#@    $$#o%>%&X#$ *o. @XX   OX## ==# O. #X$$+  $O XO$#o+oX. X ",
"@O+o    $#$*. .&@$ #..&+@X  .    # =:.Oo#X$.. oX $O; X#o+& @XXXX",
"*%+@@.  ##X . Xo $X*  #.#*= . X O.X#=+o  X  *%Xo*$;X  .&& oO. @.",
" Xo ..O#..X .. o.. =+. .X$&.. ;X @@.o+X . X $+O+*$   o&+ X%.  ;.",
"X@-+ $X# +@ X $&. . < #O $X. X##  .@+Oo-. O #.&o.$##o+%&@@X.  X@",
"++%o  ###  OX.&o X .=o#;$%. X.-o$$#.oO>     #.+o ##.&%&@oX. O  X",
"++O   $- oXOX... .*o.+$$-o.X ..o-##@.%+@o$ X#+O.,#. &O&+ .  XO.o",
"X X.o.-&@++   #*%#=& o#=+  X   #+$#. o @*$ X: ..%# &+%%o.   ;$#O",
";#o@  @O@%@&@. ..;$+  #=X @ .o@. *:=$#.&#X #*:@*o#X &O@XX  ;X =+",
"+++XXX+&%+&%o   .Xo%$*#$$+. #=+ * :#O.+.#  .=* * #O &O@@. @#. #%",
"+O OO.%o X+OX  .$$X%##.$. $$$# o o#O *+#. #-#$#..#O.@+% $X..$@ X",
" # @ @ $$$XO; X$ #X+.X #X.$X =.& %# $X-$X   #*:+*X $X&@   # $O.$",
"  #X.@ $.#$X%X  .. + # .. $X # % o# <%.=*X.# $ &$  . OO@o#= #  *",
"#O  & .+%&$#$;$  #@&@#X $X$$.# +  # -o* X=  X$+ X X %%@X#X# .#OX",
"X$ O+ @@@+@$ %. ;*% @#XX#@<o%@ o.#$O ##X :@# #X@o# #  ## $ #.. .",
"OO% @  @+%%X ;.$ =+.+*  #@*;O>  .#. #.###$@#   O.:.X @ #.#$o%%+@",
"OO .o *@ %+O $o.X.O %.$X.O$ O&- .  # #.@O  *X#X =X   . =   +O&%&",
"X $* X  X*+%  ,    O%o.  X o+,o -Xo#X$Xo%o$. ###$  .O X.# %+O++%",
"XX o$$+.#X@+X$ X# * Xo  OX @.,&X@$$#O .@X+$$.### ##     #X++3>%+",
"O@  #=o#$@ OO =o# = # .  X#X=++ O# $O*O%o-.$O*O ###X % X.%+%&+%&",
"OOOX#= O ++O% #o# *o  $.# .#:%@.$$$X# % oX $;#X&.$X +@ ..O&,+,@+",
"XX XX  XO$,@o o+.O o.$   X+#:>o#< . $ O+@  #.#OX@$$$O  $@+%%>%@X",
"+XX.  $ +  O    .X * #X#. . 1% $$X XX.+O%$..$X& X .  ; .O@+Oo%OO",
"@;; . #= X O X#= XXXo.#XoX# :%.$O# @ X@ .* . .o&.   .X.@X@,+O&%O",
" XXXX#  *+ %@X#1X..   %oX%X#:%# OX + O@ .#O**o@- # XX #OXO%>%&oO",
"  . X$+.#ooO$* $.$:O o   #% #+# ; X.+@+X #X .+OXO# X$$XX ++@@%X ",
"XO+o.X*.#.X.  XX  .#X@.X $.XX+<X  O#+o&o ##$ #>. .#X  @. %@&&+& ",
"; #+  :. X  oX .    ...# # +X%<X  @.+ -..#X .@o  @# X .  O@o3++o",
" XO#@$: . $ ,Oo$ .X=@*# $=X% @# X X +..*.#   +O%$**    X  X##&@+",
"  X.X.=o#. :O. $X#2 @*  #.@@.#.. @O O... #X.X&X.*Xo$O X @.O#$@ .",
"OXO * .O#..1@-..X$  o# # @o  $O  2O#-.  +$X  - #o$ $ X.-%.X=#. ;",
"XX X.- +#O :O&.  #  o.$=@+o.- #OO@  . OO@XO.O+ O+#  X. @+oO*  + ",
"@O @.oX+$XO.++ X$ X.- $#@+X.o OX.O#+.XO   #%%O  @.OX O X@%>o#@o "
};
