/* XPM */
static char *mystic_stone1626371859[] = {
/* columns rows colors chars-per-pixel */
"64 64 45 1 ",
"  c #6C6C88",
". c #585874",
"X c #7C7C98",
"o c #747474",
"O c #444460",
"+ c #6C6C6C",
"@ c #7C7C7C",
"# c #656565",
"$ c #838383",
"% c #9494AC",
"& c #8B8B8B",
"* c #343450",
"= c #565656",
"- c #4E4E4E",
"; c #5D5D5D",
": c #929292",
"> c #464646",
", c #523DA5",
"< c #24243C",
"1 c #3F3F3F",
"2 c #A4A4B8",
"3 c #680880",
"4 c #6958B7",
"5 c #9A9A9A",
"6 c #B4B8C8",
"7 c #18182C",
"8 c #A2A2A2",
"9 c #800090",
"0 c #8074C9",
"q c #A9A9A9",
"w c #50086C",
"e c #B1B1B1",
"r c #141024",
"t c #373737",
"y c #6D7068",
"u c #978FDB",
"i c #747B70",
"p c gray19",
"a c #90978B",
"s c #99A194",
"d c #454844",
"f c #250681",
"g c #3C2193",
"h c #868D82",
"j c gray14",
/* pixels */
"2%%:8%X$:5&%% *7*.X%&&&5qX..4 <,,u&%X00XX$XXX%X00XXXXXXX:%&.;O-o",
"%  oo .+@o#.X  *O X%X+o$%% *,fO ,4@ ..,,.+.,,O,.    .,,++oo+#;.3",
": o@o  o+++..XX,O.%X o$$ooX.**Ou. @   ..  .,,g, oo  ,,3.ooo  o#>",
"5o+o    ..  .#@X* X+o  @ .  .OO6 o@o ..*. ,.,,..+o ..w3. +.  oo-",
":&      ..4   ++*X o  .  .  X,Oq     . X%  .....    .3w,..     -",
"$X  ..  ..,   #.*X o  .    4,.O6 .  ..    ..  ,,  . .3X ...@o .-",
".% +.. ++..,  .OO@.++.. . o 4.O6    .  ......    +;..X +...   o>",
"O:#+..  +..,..#O#$+++. .,.o  .O2 #     .+o  .. o....o..o .    $-",
"O%;#o   +#....O#@#+o..... + ..O2o   @$o++$$ .*OOX.oo...o 3 . @o<",
"$X..o+#o@++ .OO@   #.. ... ...O:@@@  o$@+o@ O.  X.  ..ooO.. $$#>",
":   o+#+o++.O* @   #. +.. +#..>2@+@X.. $+.o . X%  ...+o.3...  #>",
":  .++#..OOO**  ..#+  +  ++#==1%o.  ..  +.+ X%X  @   oo..  o  #<",
"8....;#OOO  .OO....+o  +++..-<<0..,...  +..  @o.  $$ o@+o   #..<",
"5...=.+O......O.....+.... O.OOOOOOO.O.  ..+@$@o#.. &  +#. X .O><",
"X....;O#.....O*. .. #....O-X%%262%XX-O..,.o@@++#..   . +.  o.O37",
"X....OO1-...OO*O... ...OO.X%XXXXXXXX%&.o..ooo+....++  @$   .33w7",
"%OO***O#+;>OO..O..#..-*<.XXX &X #@$ XXX&o-#+  . oo++o$$$@  .OOO1",
"OO %X .O**O. X% O##.O*O %X ..   +oo +o X% O+  . @++o@&&$$  .O=#=",
"XX #. +$&&XoX .X.O.-&%%XX. ... +##.. o  XX&O.. oo+oo@&&$@&&++#**",
"X#.#.. .;.. ... XOO&% .... +##oo+#...    XX&O o@@+;#  X&$::$+=X.",
"$...=....#   . . d*% -O.#.+o++++oo+#.  o  XX -@@o#=#..X:&&&+=+%.",
"$===;#......    ..*O....+++ ++#. o++    . oX%..@o+##.  :&&+=#%&;",
"$#.##+#....    +O...O+#+++o..# .o....     @$X&-o$@#;+  &X+=#%X#<",
"&++o+#...    ....2Xo=@@++#.-O&        . o.@$XX#.&@o.+&& O*#:X ;-",
"$ooo+...#    ,.O%X.o==o ...*+&o@@   o  o++o@oX O$@o++;;=.Xq5$ .>",
"X+ +#.#+yooo..O-%X.  #=3..+&&+o$@  @oo oo+o@@X.-+X$@.>OX%q:&$ O1",
"&#.#..;#+o@+.#..X .+ X#93.#o  o$$  @ .. ++o@@ .*.% ==>X%%&::@ .-",
"...;.O....+. @OXX.+ . @#O...  @$&&@@ .. o++oo.X%O.=$&=2&&&$$oo#-",
" #;.......#..O*&X @ .3 #...o $$$&@@o 3..o..o..%&O=$+#=%&::$+@+=>",
">->oo++#.#..O<*%X+  .O..+  &$o@@ oo@o ... OO.XXX*.X+=> o$@o+=->p",
"-OOOOOOOOOOO**<% .#..,,..    +++..o  .O*OO.X% XXO*O;>O;O##====p1",
"%X X%22622%%X OX .+.. ,.. .  ...OO3O @:%X XX oX *.8:&&Xqee252e8@",
" 4  X%&5&&@X%XO .. o...     oo ..O3.o@oooooo@@  O88$ oo++@@ o@$-",
"X3O9.+o..##XX%...$& .9.&&  ....  ..o@$@ @@@@@@ ..%&++.+$@@@ +++1",
"X ..O.+.OO=. : -#$&o.39  ..O9.o @ . @$@ oo o   -o%@++#o&$@@o o+1",
"X #.3.+..=..#%XOo@@+..,,,993O.+ $@       o     OX2.@++$&$++o o@1",
"X ##. o#.##++XX.#++o+.. .O39O+       ... @ . @..6% oo+@$+==:o@@1",
"X +y+  .#++++.XoO +@o    ,OOX   . o.o o@@@o   O&2X. o +@=@+:@$$>",
"&h@+.  +o++++ XX+.@$      X&X . @@@oo@@@@@@  ..%X+  @ #@;oo:@$@-",
"&s@+.#.#@o##.  X%+$@ .3.     ..+@;#####oo@$$ -X% +   #.##+Xo@  1",
"$a+o++#. +#o . XX&;  .w.   ..  .;;@ ++.oo @&-&%X..  ...;@&  #  1",
"$a.+@@o ..   +  X: O....   ,. .OO%   ooo@++-. XX    ...  #  .#+>",
"&X,.++@$ .  ###  X: ;$@o+ .*OOX%%X    +o@$-OO.XX  .. o 4.#  ...1",
"&X,.. XX  X@++o  XXXO<.  .* %XX      .  .-&%X . 4..    ...# ...-",
"5+..+@ 4 +@&@++o  X O*O-.*>%X&:$:& . .#-.%6X.  .  .. .. ..  .. >",
"5i+#+@;,.+  @@o+. & .X2o.O-X  &&&  .-O.&%2%    .   .  ...      1",
"@$o+==-..o  $$@+#o . : %%%o.*<r7<*O.o%%%X   X@@O$@ .   .... @X >",
"#:+o=+ @% X @ @@oo..:X..XX%X.O*X226%%XX.... X@$*@      +..,.@@o>",
"=:;+o&5%X$X ..&Xo@*XX$@ ..4X OO%X%X @oo++     @O .  @@ .....##.<",
"-:.+++@@@:: . &  @*Xo@@ ..  X.O%$$@ +@@@$@    o..      .....#..>",
"=: o++o++$&@.o@ . OO @$     X.O%&@  o @$$o   X .O..    ....#+..1",
"#:++.#+#.#+o+o@ . .O @$      .O%&@ Oo @$$o   X .#+...4,....#  .>",
"@&##..+#..#++#oo..@#Oo   ... .<XX  %o          .. XX ..4   @   1",
"5$o#..;+++++##++..o$O...O X.O7<X oo@o X .OO.  4,.4 XX .OX  @   1",
":&@##o#.+oo+##.....#.O OO%%XXO*Xoo oo@X@O. X    44   X4OO  o   1",
"&oo+o@.O o+###.+#  o+O*.%X.. .*%    oo O.  %  ,    #  04O     +1",
"&.o###=..+++o@ ...+@#*.&   ..<*%.   o  O. %  ....#....,0O;@ @oo1",
"$..++;OO.+oo@@ ...+;O %&     .*2.   @  # &o   .. ......@+OO oo+-",
"&#+@@;OX;+o@     +;O %o      .O2   @@oo@&o+  o#   .... .XXoOOOO-",
":++@+;  ;#+o@$o@o;O X     4. .O6 ++@$@o$@ .   ##=o ..++  +X::$+>",
"X ++.=;..;;+@$$ OO X..4      .O2 o+oX  @@    ##=&@o. +oo@@@@oi+>",
".$ #.O..;;.# o.O.  ...4 @ooo.OOXX@@ 44 $X  @o.O=:@@ .. o@@o+ .O1",
"*-;=O***==;O.OOOX .OOO.++;;=-*>.%%@ ,. X&.=OO=oo:@@  .. @oo .O*>",
"O**t1><<<1t<<<<<..***<>=->-**r7O=-1****O;=>r*>>1>-->1<<**t11<>-j"
};
