/* XPM */
static char *pavement_split1626371859[] = {
/* columns rows colors chars-per-pixel */
"64 64 28 1 ",
"  c gray19",
". c #2C2C2C",
"X c #3B3C3B",
"o c #181818",
"O c #3E280B",
"+ c gray14",
"@ c #4B3210",
"# c #4A2513",
"$ c #464646",
"% c #5F431E",
"& c #4E4E4E",
"* c #543B17",
"= c #532B13",
"- c #373737",
"; c #572F17",
": c #3D1F0E",
"> c #311B0E",
", c #674B26",
"< c #565656",
"1 c #6E532F",
"2 c #101010",
"3 c #7B5F37",
"4 c #673B1F",
"5 c #2F1804",
"6 c #251404",
"7 c #896B3E",
"8 c #8F5B33",
"9 c #734323",
/* pixels */
">>>OOO@%%%=*%*,,%,*%****O::::#OOO#@OOO@@@@**@***OO##***;*OO=OOOO",
">>>>::::OO*@**%,%%,,,%%*@*@@::::OOO:OOO=@@@@**,,,,,,;%%%***@O#>O",
"OOO>>::::O:OOO**,%,***%%,,%%%@*@@##OO@@#OOO:OOO**%4%%,,,%,%%*@OO",
"OOO@OOOO>>>>::OOO@@**@*%%******%*%**%**;*:#=@O##==;;;##%,494%*@@",
"*OOOO%,*O@@OO::::>OOOO@@@#OO@@@OOO@@%%%*=@@OOOO>>O:#@:=#==@==OOO",
"555555555666666566666666666O6666666666666666666666666666665>>:6:",
".....o..ooo.+o222ooo22oo2ooo2ooo++++ooooooo2o2oo.ooooooooo...ooo",
"..o..oo...oooooooooooooooo.oooooooooooooo....ooooo+o++oo.++oooo+",
"$$X$X+ .  X.ooo+++o.+...+.....     $$X$X.    X.ooo+o. .....o+   ",
"$$$$X+ X$X$X .oooo+  XXX   .. XXX$X$X$$X.XX$X$X. X ..oX$$X . -X$",
"X  $&.$$$&&$ ++ooo.- X$X$ XX  XXX$$$XX$&.X&$&&$.X$$X  X$$ .X X$$",
"X X X$$$$<$$Xo+...  X X X$XX+  XX$$$X$XXX$$$<$&$$$XX   XX -.X$$X",
"  X X$X$$&$X ++. ++ ...XX$XXo. XX$X X$$$&X$$&$X. X XX. ..   X$$$",
"X$$&$$ &$&$X. +.. .-.--X$&XX  XXX$X$$$&&&X&$&$ .XXXX .... X XX$&",
"X$$$$$ X$&$$X X  .X $ X$&&&X $$X$$$$&&$$$ $&&$X $X  X....   XXX$",
"$$$$X  X$$$.X+    X   &$$&$X $$XXX$&&&$X  $$$&. X  ......  .X -$",
"X$$XXXXXXX X..X .  X$$$$$$ XXX$ XXX&&$XX$X XX  oo......  .    X$",
"X$$$XXXX XX     ..XX&<$.$$$XX$&$$X&&&$$X..X  . ........  .. .. $",
"X$$$XXXXXX XX X + -$&&X. $$$X$&$&X&&&$$X..    X ...+...  .. .. $",
"X $& $XXXXXXX     $XXX   $$$$$$$$$XXX$$       X +  +o X   . ... ",
"XX$$$XX X$$XX---X.XX$  .  $$$$$$$$$XX$$$X+  X -  $$$ ..   .. .. ",
"XX XXXX$&&&$XXXXXXXX      X$$$XX$$&  . X.$$XX X X$ $.+++.. X ...",
"X-XXXXX&&&&$$XXXXXX$XXX   XX$X-$$&$ .  +XX&$XXX  X  X+X X    ..+",
"XXX$  $&&&&$XX XXX$&$$$$XX X.$-XXX +.+++  $$X$X$$XXXX+X &&$ ...+",
"  X $ &$X&&$X- + $&$$$$XX.. . XX.X+   .  X  &&XX&X $&.&&<<<X  X ",
"$X..XX X&&&$--  X$$XXXXXXX ... X$$.XX..    XX$  &X&X<$&<<&<$XXXX",
"X$$$$$$$$<<XXX.-XX$X  XX$  + X $..XXX XXXXX$&&  XX&&$X&&<<&XX$$$",
" ..  . $$$&&X..+-oo.o.. .  o...o   ......  . $$  $$XX.XX  XX .  ",
"........-.....+. +o++++. oooo+oo+..++++++++....... . .++.+++oooo",
"==**;%*%%,1,,1,%%,*%%%%%**###=%%%,,,11%*%%,%,1183313713733,,,;*%",
"@@@@@#####:@#@%%4*****%,,,%*;@:::@:@:@@*@%,%,1,,,,,,,1%11%*@@@OO",
"O=@*O*@;==@****:>>>OOO@O**4%%**%*O::>>>:>>OO@*%%,%;%**%%*@*%**@@",
"OOO@***@**%%%%@@OOO>>>>:@O=*@**%**@=@OOO::::::#@@@%%,***%%%@O=OO",
"OO::O::#*#%;=**@@O#OOOO>OOOOOO@@**@O@*@@@@OO:::::#@@***%%%*@@OO@",
"OOO@=*@:*#*@#::O@@O#O@@#@OO#O::>:>:OOO@@%**@O#@=O#::::::@*,%,@@@",
"OOOOOOOOO=@;=*#O@:OO>>OOOOOO@OO@@O###>OO@***O@@*#OOO@@::::@@*@%*",
"O>OOOO>OOOOO>OO>OOOOOOO>>O>>OOOOOOOOOO>>>>>OOOOOOOOOOOOOOO>>>OOO",
"55555555566666655555555555O566655555555>56>>655:5555556555566666",
"oooooooooooooo+o.++ooooooooooooooooooooooooooooooooooooooooooooo",
"o+++.++++o+++........oo.......+.+..o++ooo+.++oo+oooooooooooooo++",
"   .    . .+.o X . .. . o.o X   +.o+X  .  XX..+..++...+o+ooo++ .",
"$$$X$XX$XXX ...X.XX  X XX+X X$X$..+.X  XXX$X-.. ++   .......  XX",
"X$$$$$$$$X X  X.X.-$XX X+ .o.XX$XX .   XXXXX ...+.  ..o... .  X ",
"$X$$$$$XXX.X .+ . . ... o++.    .. XX XXX$$XX  o..X . +..   ..+.",
"X$ .XX$XXX ...+.+.  . .+ . . X .. X XXXXX$$X ..X .. . +.. ...o+.",
"XX XXX$XXX... X  . .+oo . .  X   ..X XXXXX$$Xo   .....+o+oo...  ",
" XX. XXX X +.   ......2o    X    X .  X XXXX +  ......ooo..o+   ",
"X X.+XXXX X ...   ..+..o XXXXXXXX XX X$XXX$$ ..  ....+o+ o.... X",
"X X. .X$XXX X.     o. ..+$XX$X$ .. XX $$X$$X    XX...oo. o...  X",
"XXX  +XXXX XX XXX X.  .. +   XXX.. X$$+ XX. $ $X$XX... XX  X o--",
"$$$XX ......  X$X  ooX  .oX XX$ ....X  X  $ X  X   X+$&X$$$XX X$",
"$$$$ + X .X$....++o..o .oo.. X..... X.  $$ ...    . o.X$&$$$X$-X",
"X X$X.+  X$$XX$ .. ooo.ooo   X...  X.$.. ... X  .  ++.o..    .. ",
"  .XX .+o.$$$X .X. ..o ..o XXX. .  X.oo.+ .. X . .. + ... ..+X+o",
".X.$  +..  $X   .+oooo2oo. . .oo..  o.. +..    .oo.    o. ..  +o",
" .   . ... X  +.o.oo .+o.  .+o+..X    .+   X  .o......$ +.   ++o",
"+..... o.. X . +XX ...+2....+.... X ..o+.X X . .  . . X .o.X . +",
" X + .. ..XX$. X - ooo+o.......  XXX..o..   X ..o  X .$$ o.  .. ",
"o+.+...o+o+++oo+++ooooooooooo+++++.++o+o++++++++++++++...o+..+o+",
"+o+ooooooo++oo+ooooooooooooooooooooooo+++ooooooooooooo++oo+o.++o",
"@****@@@####****%%,,,,%%*@@==#=**;%,,,%%,,11111,,,,,,11,%%%%;%=%",
"*@*@@@**@OOOO:::::OO@@@@OO*;@@@O:::OO*@OO@@**%*%%%,%%,,%%%%%*;@;",
"O@OO@@OOOOOOOOOO>>>>>OO:OOOO@@OOO#O:O##OOOO::OOO@@***%%%%%%%****",
"OO*@**%%*******OOOOO>>>>>O##@O@@@@@O#OOOOO>>>>>OO#OO@@*******%%%"
};
