/* XPM */
static char *pavement_wood1626371859[] = {
/* columns rows colors chars-per-pixel */
"64 64 17 1 ",
"  c #4A2513",
". c #412312",
"X c #3D1F0E",
"o c #532B13",
"O c #311B0E",
"+ c #572F17",
"@ c #2C2C2C",
"# c gray12",
"$ c gray19",
"% c #26140B",
"& c #373737",
"* c #1B0F08",
"= c #181818",
"- c #5F331B",
"; c gray14",
": c #101010",
"> c #3F3F3F",
/* pixels */
";;;;;;;;;;;;;;;;;;;;;;;;;;;;;;;;;;;;;;;;;;;;;#;;;;;;;;;;;;;;;;;;",
";;;;;;;;;;;;;#;;;;;;;;;;;;;;;;;;;;;;;;;;;;;;;@;;;;;;;;;;;;;;;;;;",
";##;;;;;;;;;;@;;;;;;;;##;;;;;;;;#;;;;;;;;;;;;;;;;;##;;;;;;;;##;;",
";@@;;;;;;;;;;;;;;;;;;;@@;;;;;;;;@;;;;;;;;;;;;;;;;;@@;;;;;;;;@@;;",
";;;;################;;;;;;;*====%==%;;;;#;;################;;;;;",
";;;;#***OXOO****OO*%%%OO%O*%OX.O*OXXXO*XOOO%%%%OOOOOO%O**OX$;;;;",
";;;;#**%X XX*%%*%O*OOOXXOX*%X..XOX..X%*.XXXOOOOXOOXXXXX%O%X&;;;;",
";;;##%%O +    .XO.OX..  . .O. o X   XO.o   ..XX... o   X.OX$;;;;",
";;;@#%%O +  + o.XXOO.   . oo. oo  oX.ooo    .OOX.. o . . o.$;;;;",
";;;;#%%O -  -++-.XOOX   . o+oXo   oXo+oo    XOOO .   . . +o@;#;;",
";;;;#%%O +  o--+ XOOXX  . o++O. ...O++oo   XXOOX .   ...o++;;@;;",
";;;;#%*O -. ooo+oXOXOX .. o++OX.....++oo . XOXO. .   .X o++@;;;;",
";;;;#**O +  o  oo.X.XX  . o++OX..... +oo   XX.X     o.. o++$;;;;",
";;;;#*%O + .o  o  ..X   X o++XOXXX..++oo.   X..o o  oX. o++$;;;;",
";;;;#%%O -  o oo oo X   . oo+oOOOOX.+ooo    X oo oo o.. oo+$;;;;",
";##;#%%O +  o o         .. o+oXOOOX. o  .         o o..  o+&;;#;",
";@@;#%%O + .ooo  X..    X. o+o.OOO.    ..    ..X  oooX.. oo$;;@;",
";;;;#*%X +.  oo  ... o+..X. +o.OOO.   .X.o+o .X. ooo+.XX.oo$;;;;",
";;;;;@%O  .o.o   .... ..XOX.+o.OOX.  ..X. . ..X.   o.XXO. o;;;;;",
";;;;;;%O. .o.      .X.X..OX.+o.OOX. o.XX. X...o.... . XX.  ;;;;;",
";#;;;;%O... .+  .  ...O..X..+o.OXX  o.XX. OX.. o..  . XX.  ;;;;;",
";@;;;;%OX..  +    o ..X.. . +ooOX.oo .XX  O... o o +..X... ;;;;;",
"$&$&;;OOX..  +     o. X.. X +oo.O oo .XX  X.XX.o  o X.XX.  ;$@>&",
";;;;=;OOXX.  oo       X..X. +o .O oo .... O..X.o  ooX.XX.  $;;;;",
";;;;=;O%X .  oooo    .X..X. +oo.OXoo .... O...   oooX.X .  $;;;;",
";;;;:;O%. .  oo-o++   X.XX. ++o.OXoo .... X.X. ooooo..X  . $;;;;",
";;#;=;OXO .. oo+-+o . X.XX. ++o.OXoo  ... XX . oooo XXX Xoo&;;;;",
";;@;=;OXO      +-++ X X..X. +o .X.oo. ....XX.. oooo X.. Xoo&;==;",
";;;;:;OXO    X o+oo.O.X .X. +o .X.oo..... XXX. oooo X.. Xoo$;@@;",
";;;;=;OX.    . o.OOXXXX .X. +o .X.oo.X..  XXX. oo+o ...  oo&;;;;",
";;;;:;%XO      oX..  .X .X. +o .X.oo. ..  XXX. oooo X.. Xo $;;;;",
";;;;=;%XO    o o   oooX ... +o .X.oo. .   XX..  ooo X.. Xo &;;;;",
";#;;=;%.O    o o   oooX ..X +o .X.oo .X   XX .. ooo X.. X+ &;;;;",
";@;;=;%X.X   +  +++oooX ..  +o  ..o+o     X.  . ooo  ..X o $;;;;",
";;;;=;%..X   +  +++--+X ..  +o  . oooo    X   . o o ...X + $;;;;",
";;;;=;%..X   +  +++++ X X.  +oo X.oooo  . X   .X  o  ..X + &;;#;",
";;;#=;%. X      ooo  XX X. ooo  X.oooo  . X   .   o. ..Xo+ &;;@;",
";;;@=;%.        ooo  XX ..  oo .OXooo     X   ....o. .. o+ $;;;;",
";;;;=;%.    o+   .XX  X X.  oo XOXooo   . X   ....o. .. o+ &;;;;",
";;;;=;%.    o+   .OX. X ..  oo.XOXooo     X . ....o. .. o+ &;;;;",
";;;;=;%.    o+   .OX. X ..  o .XOXo+o     X . o..+.X .. o+ $;;;;",
"=::=;;%.    o+ + XOXX X .X  oo.XOXooo  .  X X o.. .O... o+ ;=;=$",
";;;;;#%X.   X  o XOXX.X .   oo.XOXooo  o  X.X o.. .XX..   o;;;;;",
";;;;;@%.+   X  o OOOXXX .  ooo.XOX.+oo o  XXX o.. . ...  oo;;;;;",
";;;;;;XO+     .+ OOOO.X . .ooo XOX +oo.o  X.O o.  ooo.. .oo;;;;;",
";;;;==XO+   . .  OXOO.  . .ooo XX. +o  o   .O  .++ooo.. .oo;;;;;",
";;;;#*XO+     X oO.OOX  . .ooo XX. +o  o   XO  .++-oo.. .oo$;;;;",
";@@;#%XOo   . O oO XOX  . .oooo.X. oo .    XO. .++++ .. .oo$;;@;",
";##;#%XO +   .O+oX.OOX  . .oooo...o+o .o   XO. .oo  X.. .oo&;;#;",
";;;;#%XO o  .XOX+XXXX.  . Xooo+ . ++o .o   .X...o. X... Xoo$;;;;",
";;;;#*%O o  XOOO  O...  . O oooo  ooo.Xo   ..... . o .. O o$;;;;",
";;;;#*%O +  OXXOX.O...  . OX o+o  +o ...   ...X .. o .. OX $;;;;",
";;;;#%%O +    .XO.OX..  . .O. o   +  ...  X..XO... o .. .OX@;;;;",
";;;;#%%O +  + o.XXOO.   . oo  oo. o   ..  X.XOOX.. o .. oo.;;@;;",
";;;;#%%O -  -++-.XOOX   . o+o   X oX   .  X.XOOO .   .. o+o@;#;;",
";;;@#%%O +  o--+ XOOXX  . o+o  .X. . o o  X.XOOX .   .. o++$;;;;",
";;;##%*O -. ooo+oXOXOX .. o++ ..O.X.   . .X..XO. .   .X o++$;;;;",
";;;;#%*O +  o  oo.X.XX  . oo ...O.X.   .  X...X     o.  o++&;;;;",
";;;;#%OO + .o  o  ..X   X oo ..XOXOX o .. X...   o  o  .o+o$;;;;",
";;;;;$@$$$@@$@$@$@$$@;;;;;;&$&$&$&$&;;;;;;@$&&&>&&>&&>&&&>&@;;;;",
";;@;;;;;;;;;;;;;;;;;;;@@;;;;;;;;@;;;;;;;;;;;;;;;;;@@;;;;;;;;@@;;",
";;#;;;;;;;;;;@;;;;;;;;##;;##;;;;#;;;;;;;;#;;;#;;;;##;;;;;;;;##;;",
";;;;;;;;;;;;;#;;;;;;;;;;;;@@;;;;;;;;;;;;;@;;;@;;;;;;;;;;;;;;;;;;",
";;;;;;;;;;;;;;;;;;;;;;;;;;;;;;;;;;;;;;;;;;;;;;;;;;;;;;;;;;;;;;;;"
};
