/* XPM */
static char *pavement_derelict1626371859[] = {
/* columns rows colors chars-per-pixel */
"64 64 12 1 ",
"  c #311B0E",
". c #020202",
"X c #101010",
"o c #181818",
"O c #1B0F08",
"+ c #3D1F0E",
"@ c #251404",
"# c gray14",
"$ c #0B1707",
"% c #4A2513",
"& c #2C2C2C",
"* c #532B13",
/* pixels */
"@@+++. O++O....oo#oo#....#o......$o#o#ooo##.o#ooo.o#o...O +   + ",
" +++ ++  O@..oo###oXX$.###oo.....XX$XX#ooooo##oX##ooX...O. ++@  ",
" +@@O@   OO.Xoo#oo#oXXoXXX###$........XXX$XooXoo$ooX......+@+ + ",
"+X OO@+++ O.Xoooo#ooX#ooXo#o##o.#$X$......XXXooooX$XX..OO O O + ",
"@O@  @+ + ..o#oooo##o#ooXX#ooooooooXX.......X#XoooXoX.OO    X++ ",
"++ @++++ O..oXXX#o#oo#Xooo#ooXXo#oooX$XXX...XooXoooX..O  X @OO +",
"O + + ++ ..XXoo#XXX#o$XoooooXoXo#oo###ooXX..XoooXXoXX.OO    @OO+",
" OX  @ + ..oo##ooo#ooooXXooXXXXo#oooooXXoX..XoooXXoX..OO +++  ++",
"+ X+@ X O..X#&#oXXXoooo###o#XXXXoooo#ooo#X..XXo#oo#X..O   ++ ++O",
"++++ +  ..XXXooX##o###oXooooo#o###oo#oooo...XXo#ooo... +O   O+ @",
"OX  + @O..XXXX#oXoo#oX#XXo#oooooooXo#ooo.....XXoo#o...@  +O + @ ",
" ++++ ..X.XXXXXo&##XXoXoooXoo###ooo#o##X..@@..XXXoo...XOOO   +  ",
" +++ O....XXXXXXoooo#Xo#X$$oooooXXooooX..O @O..............  ++ ",
" ++ O...$oXXXXXX$$Xo#o$#ooXXXo#oo#oooX..O+ +O....OOOOOOOO..@O++ ",
" + @O..Xooo#ooXX....XXo#ooooXXoooooo$..OX@O+ ...  OX+ + +O.O@OX+",
"  @OXXXoooooooo#oX......XXo###$$XXX....OXXXX+O..OOXXOX@  @..  O ",
" @OOo#o#ooo##ooooXX..O......XXooXo...O+@+++++O...OO@+@@O....O  +",
"@OOooooooooooooooXXXXO+@ @O.........O + + +@+ ..XO*++    .X..O@ ",
"...#.ooXoooXXXoXoXXXXX+% + O.. OO...O + +++  ....O++ @  ++O...O ",
"...o.$XXooX#XXoo#oXXX + ++@O+++%  ..O+@  +@O......OO@++ ++@....O",
".....o#oooo##oooXoXXX@ O+X  ++++ +O..@@ @@O...XooXXXX+     .....",
"..oo##X$XoooooXo#oXXXO OXXO O++ @  ............oooXXX@ +   .....",
"...oX$Xo#ooXXoooooXXXO @ ++ +XO @OXOOO@OO  OOO$XooooXXO   O.....",
"..$XXXXXXoXo##o#oXXXXX$OOO + XXXXXXOX  ++++++OOXX#ooX$X$O.......",
".....$oXXXoo#oooooooXXXXXXXXXXXXXO X +++@   @ +O.Xooo#X.......O.",
".O....XXXooooXo#ooooo$XXXXXXXXXXX @++  O  @ ++@ ..ooo#oX.X....+o",
"++O....ooooXo#ooooXXoo#oXXXXXXXXO @OO@  + @O+ ++O..ooXX$.XX..O++",
"OOOO@...XXXXooooooo$XXXo#XXXXXXX@O+++    @@OX@   ...$XXXXXX..O+O",
"OXO + O....o##oooooXXo#oXXXXXXX@% @ +  @OXX@+    O...XXoXXX..@+O",
"   @    O...oooooooXXooXooXXXXO +++ XO        + @+O...XXoo...@+@",
" O@  O+ O@...$oooXooXooooXXoXX@+XX  XOO + @++ + O @..........X@ ",
"O.@O     O.....XooooooXoXXXXXXO +  O@  + O++  @ @OXOOOOOOOOOO.X+",
" .@O@@O.....OO...XXXXooXXXoXXXXOO+@ OO++   O   @..O   +  OOO....",
" ..O......... O.....ooooXXXXXXXX+ +O +++ O    O..@     %  + ....",
".........XXO % @....XooXoXoXXXXXOO@      @O @...  O O  +  +O....",
".........X.@O%  @$....XooooXXXXXXXXXOO@@@  O..OOO O +OOO@O O....",
" @     +....$OO$........XXXXOOOOXXXXXXXXXO....O++O@O    XOO...@ ",
"++++OO+ ............XXXXXXXXO@%+%%+O+XOOOO...O +O@+ O@O  ...O++ ",
" O ++ + ........OOO.XXXXXXXX@+++ ++++ +@@ O ..  + +  @XO...@++  ",
" @     O..OO@+++%  OXXOOOXXX@@XXOO+ + O@O@ @..OOO + + O...   @@.",
" O   ++O..@@X@+++   OXOOOOXX O  O   X@OX@ + ..@+    O...OOOXXX %",
"OO OO....@++@O     @OOXXOOXO% +    +    + +O..O+ @ O...@  @OXO  ",
"+ +O .O.. +++ +  @O   OXXXXO  @OO   @  + + @..O @ O..O  @O@O   @",
"+  XOO ..   +       ++ OXXXO@  @+  O       O....O...@ @    ++ @.",
"  + +X .O        @    @ XXXO     OO     OXOO......OO @   O@@    ",
" +   @ .O O@    @     @+ XXO    @ OX +  X O@......@   @OX  @X@OO",
"+X  + O.O@@   @    @OOX@O X.O     OO      +O...O @XOOO   @@XXOX ",
" OX+++O.@O@ O@X   @@ @X@ + ...O@   +       O..@+ + OX+++@O@O@X@ ",
"O   ++O. XX  +XX@O O@XX    @.....@O       O....O@   ++      + O ",
"  +O  .. X O   O  X @X+     O...O  O   O.....O XXOO + OXX   O@++",
"    . .O    @@OOOO  +      @ @...O  O........@XXOOOO O    O    O",
"   @...@      O@OX@      @  + O.........$$...O@XO@X + @O   O   O",
"  O....      @@    OO O@    @.O......XXoXo..O ++X X++@    XOXO  ",
"@  O...   O @  ++@XX OOOO..........#oooX#o...O      XOO XO  @O  ",
" +  O..O@OX@@+         @OO@.......XXXXXo#X..@* O@XXXOXO X O  ++ ",
"@X@  O..O  +  @ OOX@@   O.....Xo.......X.X..OO@ +OXXX@XXOXO    @",
"  +X@ O..O@ @@ X OX@OXOO.....$oXX..............OO@  +@XXXX X@@ .",
" +     O..O @X   +  @O.....XX$XooXoXoX$...........OO@  + @      ",
" +++    ...O   + @O......$o#oX#oo###XoXXX.$$o.$$.....XOO  @++   ",
"@@+ O O @...O   O.......Xooo#ooXXo#o#XoXooo$$ooo$$$....OO    @  ",
"     @    ...OO.........Xoooo#ooXXooooooXo$oo##oooo$$..OO       ",
". O@ @OO OO.........oo...XXoXo#ooooooo.oo##X##oo#o$o$..OO @@ ++ ",
"@O + X O  @......XX####o$.$$oXooooXo....oooooo##ooo$$...O @O@ +O",
"@ ++  + @OO......##..ooo..........o#o.#oo##.o#oo##.#o...O + @@+@"
};
