/* XPM */
static char *pavement_square1626371859[] = {
/* columns rows colors chars-per-pixel */
"64 64 31 1 ",
"  c #2C2C2C",
". c #3E280B",
"X c #4B3210",
"o c #543B17",
"O c #251404",
"+ c #311B0E",
"@ c #3D1F0E",
"# c #5F431E",
"$ c #3B3C3B",
"% c gray14",
"& c #464646",
"* c #4E4E4E",
"= c #585D56",
"- c #565656",
"; c #674B26",
": c #4A2513",
"> c #6E532F",
", c #181818",
"< c #2F1804",
"1 c #7B5F37",
"2 c #1B0F08",
"3 c #101010",
"4 c #532B13",
"5 c #896B3E",
"6 c #7B4B27",
"7 c #2F3F2F",
"8 c #734323",
"9 c #673B1F",
"0 c #2B372B",
"q c #1B231B",
"w c #171F17",
/* pixels */
"oX.oXoooo.o..++++...O;..4.oo#..XoX.oXoooo.+O..:@.....X..4.oo#..X",
"X.XoX.Xo#o#ooo....@@+o.@@@XXX...X.XoX.Xo#X<+#o#X.......@@@XXX...",
"..X@.oXXooXXXoXXX.XX+oXo#@@@X@....X@.oXXo.OO:XX.X...XXXo#@@@X@..",
"......oXXX@..XXX.....o<.X.<X.XXXX<X<<OOOO<2O::...X.....X4:XooooX",
"X++.+++.....XXXXXo#o+++OOOOOOO+OOOOOOOOOOOOO@@:@::@@@@..:@:@X.XX",
"XXX.6@@@::@@@@..:@:@X<...OO<OOO<<<<<...<.X.XoooX.X.oooo.:...2o+X",
"23333O+OO++OO23333OOOOOOOOOOOOOOOOOOOOOOOOOOOOOOOOOOOOOOOOOOOOO%",
"++++++O,,,,%,%%, ,   %,,,,%%,,,,,%%%,%%,,  %% %  %%%%,,,,,+O+++%",
".++.+.O,,,,,,% , %       ,, ,,,%%,,  %%,, ,          %%,,,#++++.",
".X.@X+O,,%,%      %                ,    % % ,         %,,,#..X..",
"ooX@X:O,,         ,$$     %    , $  $ $            %   %,,6@#o@o",
":.@@:@3,,,  %  $  q $$   %     , $$$& &$$           %%  ,,;.#o@:",
":4@#4:3,%     &$ $&$$$$$$$$$&&  %$&&&&**&$$$%%          ,%;ooo@:",
"..@oX.3,,,   $$$ &&&$$&& &$*&&$  $*$$&*&*&$ $ %$        ,%>o#o..",
"X..X..3,, , $ $&  &$$&&&$ &&&&&$ && &&&&&& $ &      % % ,%>o#o.X",
"XX.X.@2,, %  $$$$ &$%$&$&$$$&$$$,$   $$7$*& &&      %   ,%1o#X.X",
"@..X.@O,,%  $ $&$$ && &$&$&&&$$&  $  $$$&&&$&*$ %   %   ,,1Xo..@",
"OOOO<@O,,   $$&&$$  *$ $&&$&&$$&$$   & $&&$$*&$ %  %    ,,1oO+OO",
"ooo+<@O,%   $$$$$ $  *  $$$&&&&$$ $ %$$ $$&$**$    ,%  %,%5XOo;o",
"..<O<@+,   $&$&&$$&*&&*  & $*&&$$$  %, &&$&&**&    %%   ,,5X+1..",
"..OO.:+,  $ &&&&&&&$&*&&$%%&*&&& $$   %  $&&&&$  % %     ,5X+>..",
"o.OO<:O,  $$$&**&&&&&*&&$&$**&&*$ *$&  $&$$$*&$$$$ %     %1.+>.o",
"o+OO<@O%   $*&**&$&&&*&&$$&**$$*$,&*&*& $$&&-*   $   %%  %>.O;oo",
"o+OO<:+, $$$$$**&&*&****& &** $*&%, &***$$$$$&$ $   %   %%6.O1.o",
"o+<O@@O, $&&$$$-$$***&-*$$$&*$$*&$$&&*&**&&    $$$$ $$$ %%6@O;.o",
"++<O@@3, $&$&$&&$$******&$&**&&*&&--   $&&&&$ &$$  $ $   %9.+;.+",
"++XO<<3, &$ $ $$=*-*&-****&**$$$&&*-&$  $$&$$$& $  $&$$ %,4o+;X+",
"++<O@<3,     $ $***&*********  &$&-**&   $  $$&$  $$$$ % %#X+>.+",
"++XO@@3,    $$**&&&*&**=-**=*$ &$&****$$,,%&  $$$$$&&$ ,,,>o+;@+",
"++XO+@2,  % &$***&&****-*&**&$$$&-*&-**$$&**&    $&&&  ,,,#XO>.+",
"++X+@@O,   $$$&****&&*-***&*7  $&-**-*$&--*&$$$ $$$*&   w,#.O1.+",
"..XOO<O,    &$&&**&****-**&**&$*=****&$ -***&$ $&&**&$  %,#.+;+.",
"XX.O<<O,   $&$$&&*&***&&$$&** $*-**-***$*===*&&$&&&&*    %#X+;+X",
"..XO+<O,   &$ $&*&*&&-*&$$$*&&&**$*-**=&&*&=*$$$&&$**&   %#X+;+.",
"..<OO<O,   $$ $*&***&**&$$&&$&$**&*=&&=****&*&$$&*&*-$  % #X+>+.",
"...O<<O,   && &&&&&*-*&&&*&&*=&&$&***&=**-**&&$ &**&$$ % %#.O;+.",
"@@XO2.O,   && $&$*&**&&*&&$$&*$&**-**&& $****&&&&*   $    #XO>+@",
"...O2:O,   $*$$$$&*&&*&*&*&&&*&&***=*&   &&&*&$&&$$ $$    #XO1@.",
"..<+O.O,0  $*& $&&**&*&****-*=$&=*==*$$ $**&&&&&& $$$$$   #oO>@.",
"OO2+OoO,   0**$$$&***&**&&*=--&$**=*&*$ &&*&**&$$$$$$&   %#oOoOO",
"o.+:.oO,   $&*&&$**&*&&&*&**==*&&=**&*&$*&&&*&&   $$$$    #..+@o",
"o..:.oO,  $$& $&&&&&&&**&*=*=*&$**&*&&*&***&$&*$ $$$$$    #....o",
"...+..O,   $$$$**&7*&&-&*=-&**$&***&-$ &*&&&$$$& $$$$$$  %#..+..",
"++ooXXO,    &$&&&$&&&****==*&&**&&*&** % &&&$%%& &&&$$   %#o.#..",
"+.oX.XO,   $$$&*&&*****=*-*&&*&&&&*&&&$,,%7$$ $$&$$$$$   %#.XX.@",
"+.oX..O,   $&$&$*&&*****=***&*&*&&&&*&&$$%  $$  $$$&$$    >XoX.@",
"+o#X@.O, $  &$$*&7&**-=-=*-=&*&**&&*&&***$$&**&*$$&&&$$  %;X#XX.",
"+.ooX.O,    &$$*-**==**=***=*&*&&&*&&&&$$&$%,%  &&*&*&&  ,#X#o.+",
"+o#oX.O,    &&$&-=****=**==-&**&*&***$$ %%%$ %%$*&***&$  ,8XoX@.",
"+ooXX.O,  0$*&&*****=***=*==*&**&*=-*&*&*$&-*& $*****&$  %9XXo..",
"+oXXo+O,   &**&&-**&*&&*===-**&&&*==*&*&&**--*$% &***&$   >XX#.+",
".o.o.+O,%  **&&$&&&&&&&**===******-=*&&*&&=*-**& $**&$   %>Xoo++",
"XXX..+O,  $**&&$&&&***&&&***&**=-=*-*&&&*-=&*-&& %$$&$$  %>ooo++",
".oo@..O,   &&&& $&$$$$$$$$$&&&&**&&&&$$$ *& $* %         %;ooX++",
".....+O,   $&&$&$&$$&&&$  &&*$$***$$&$&$$&&$ *&  & &$    %#.X.+.",
".....+O,,q    $  $$$ $$   $$$$ && $$   $$$   $    $&&& %,,o...+.",
";1;>;>;;;8;5111>;;6;1;>;>;;;8;155511>;;;;>>98#;>#####>111>>>;##8",
"+.oX6@...XXXoXooo.@oooX...XooXXXXXXX.ooo..OOOOO.O....XooXX.X<X.+",
"..XooXXXXXXX.ooo..OOOOOOOO++++OO++++OOO+++OO.@...XXXoXooo.@oooX.",
"XXooooXXo##oX.Xo##..+o>1>;>;;;1>;>;;;1;>>1>+o#...::.Xo##o##XX..X",
"...Xoo#oXoXXX#Xoo##:O;XoooooXX.....Xoo#oX.+O##;#X..@+.XoooooXX..",
"++++++..@.X...o...:.+o..@@@@@@@@++++++..@X<+;o#o####X...@@@@@@@@",
"...++++..+.@@..XXXXo+ooo#4XXX.+....++++...OOoo####o;XXoo#4XXX.+.",
"@...X.+++++++++...@..oX.::oXXo..@...X.+++<2O:ooooooX@XX.::oXXo.."
};
