/* XPM */
static char *pavement_diamond1626371859[] = {
/* columns rows colors chars-per-pixel */
"64 64 19 1 ",
"  c gray14",
". c #2C2C2C",
"X c gray12",
"o c #373737",
"O c gray19",
"+ c #3F3F3F",
"@ c #181818",
"# c #412312",
"$ c #311B0E",
"% c #4A2513",
"& c #3D1F0E",
"* c #464646",
"= c #26140B",
"- c #532B13",
"; c #4E4E4E",
": c #572F17",
"> c #101010",
", c #1B0F08",
"< c #5F331B",
/* pixels */
"                                             X                  ",
"             X                               .                  ",
" XX          .        XX        X                 XX        XX  ",
" ..                   ..        .                 ..        ..  ",
"    XXXXXXXXXXXXXXXX       ,@@@@=@@=    X  XXXXXXXXXXXXXXXX     ",
"    X==$$=&$&&#&&#&.      ,O ..Oo...@   .   &$&$$&&$$&#&&#&O    ",
"    X==&$&&&#&##%%&O     @Oo. O   o..@      .#&#$$$$=##&&&&o    ",
"   XX=$&&&&&#&#%&#o X   @O.O*+++*+*...@      .%%##&$$#%####O    ",
"   .X=$&&&&&#&&%$O  .  @.OO+O..X..O*.. @      .-%##&$%%##-#O    ",
"    X=&#&##&####O     @ Oo*.OO.. ...+O X@   X  .-##&$#%&#-:. X  ",
"    X=$#$##&###o     @..O*oo......O.O*...@  .   .#%&$%#$&%-  .  ",
"    X=$-&#%&%#O     @O..*OoooOoo... .O*.  @      .%&$#$$=&%.    ",
"    X,=%#%#&#O     @OOo*O. OOOOOO......+.. @      .#&$&&$=&O    ",
"    X,=##-#&O     ,  O*oO...  ....O.o...+ .X@   X  .&&#%%&$O    ",
"    X=,##-#O     ,.XX*O.oO.. XO OoOOOo...+ . @  .   .%---%%O    ",
" XX X==&#-O @   @.X.+X    o.... OO.O O..  + X.@      .---::o  X ",
" .. X==$#o  .  X ..+.XX  X  O...Ooo..OOO  .+  .@      .-<::O  . ",
"    X,=$O      @  OoO...XXXX O  Oooo..O. XO.X ..  @@   .:::O    ",
"     .O.       @..oO..oO.XXXXXX  OOO.OOo.X .X .. @  .    .o     ",
"           X   XO.o.OO O...XXXXXXX O. OOo. .X .O  ..            ",
" X         .   Xo.+.O  X ..O  XXXXXXO. O.. OX .O                ",
" .      >>>>>@@ oO+.... .X.  XXXX XX ....O.XX.. @>>>>>X  X      ",
"OoOo    >Ooo.ooo.o*OOO......  .   O   O. O. X O.... XO   .  O.+o",
"    @   XOOOoooOoo*.O.OO..O..    X     ...O.X..OO.X .O.    O    ",
"    @   > O.;;;*;;+o...Ooooo. .  .XO   o..OOO+o***o$XOO    O    ",
"    >   >.X+OooooooO.OOoooOooO  . X O .OO....  Xo. > .O    O    ",
"  X @   XOo+O   oooo.oOOooooooO.O..X O   .. X  XXO.@ O.    o    ",
"  . @ X XOO*....OOooOOoooOOooooOOO.. O   OO.XXX.. O@  .    o @@ ",
"    > . >  *oo...OOOo.ooOOOOoOOOO. O.   .OO...O.. O@  O    O .. ",
"    @   >  +oOo. . OoooOOOoOO..oOO.O...  .O. .  .. @ .O    o    ",
"    >   X.Xo  . .  XOOooOOO.OoOooOo.OO   O.   .XX  X  .    O    ",
"    @   > O*.. .X X . OOO O.OO.OOoooOO.  O. XXX..  X..O  X o    ",
" X  @   >. O .O... X..X...   OOoOooo.O..  o.X .  X > Oo  . o    ",
" .  @   X...XXO.o. XXOoOoO.. X.OoooooO .  O..XX ..X&X .    O    ",
"    @   >X.+.  O.  XXO O.   ..XOoOooO...  X.O.XX . >  O    O    ",
"    @   >.OoO...O. XX  X.. XX. XOooooO..  XXO .XXX > .O    o  X ",
"   X@ X XXOoO.O.O..O..XXo.. XO. Xo.O.oo.OOOO.. ..XX>>Xo    o  . ",
"   .@ . X O*oo OOO.     OOO.XOo.OOooooO..X.O.    . @> .    O    ",
"    @   >.O*Oo.O.O. XXXXXOOO. O. OooooOOo..OO ..X..@ .O   Xo    ",
"    @   >.O*..OOO.O. XXXXX.O.  OoOooo..OO..Oo. .  OX .o   .o    ",
"    @   XO.+@X   OO..Oo..X.O.  XO. oooOO.OoOXX@X@>#@ ..    O    ",
"@>>@    >. OoOooo;ooooo.... O.. X. OoOoOoo. X   O @X .o     @ @O",
"     X   O+o+OO .*OoOOoOO    O.. .  OoOOOoo.@>OO.ooOo.          ",
"     .     .    .+.  . .O....X    ..  OoOOOOXXXo                ",
"           X   .X*O..   OOo.  X..XXO. OOoooo@ .+  ..            ",
"    @@@@       OO*.. . .XOoo. XXO. O.  .OoOOX Oo @  .   @@@     ",
"    X,=$@      . +.   . .OoO..XXOO.  O. Ooo.X o+  @@   @:::O    ",
" .. X==$#@  .  O=.@.O   ..  O..X  . XX O.OoO .oo      @-<::O  . ",
" XX X==&#-@ @   o  >.. X   Ooo.  X.  XXX. OX Oo      @---::o  X ",
"    X=,##-#@     O  @..   XOooo. XX.  XX O@ Oo  .   @%---%%O    ",
"    X,=##-#&@     O X>O.  XXOO.O.XXX.    X .o   X  @&&#%%&$O    ",
"    X,=%#%#&#@     o.X>O .. X OOO. XOO  @ .o      @#&$&&$=&O    ",
"    X=$-&#%&%#@     o..>.  ..XXOoo. X .XXOo      @%&$#$$=&%.    ",
"    X=$#$##&###@     O  @..    Oooo. .X .o  .   @#%&$%#$&%-  .  ",
"    X=&#&##&####@     O..> ..  OOoooO@X.o   X  @-##&$#%&#-:. X  ",
"   .X=$&&&&&#&&%$@  .  oO.@O... XOoO@ Oo      @-%##&$%%##-#O    ",
"   XX=$&&&&&#&#%&#@ X   o..X. .   oX .o      @%%##&$$#%####O    ",
"    X==&$&&&#&##%%&@     OO.XX XX@@ oo   X  @#&#$$$$=##&&&&o    ",
"    X==$$=&$&&#&&#&$@     O..  ...OOo    . @&$&$$&&$$&#&&#&O    ",
"     O.OOO..O.O.O.OO.      oOoOoOoOo      .Oooo+oo+oo+ooo+o.    ",
"  .                   ..        .                 ..        ..  ",
"  X          .        XX  XX    X        X   X    XX        XX  ",
"             X            ..             .   .                  ",
"                                                                "
};
