/* XPM */
static char *right1626376814[] = {
/* columns rows colors chars-per-pixel */
"64 64 24 1 ",
"  c #464646",
". c #3B3C3B",
"X c #2C2C2C",
"o c #373737",
"O c #3F3F3F",
"+ c gray19",
"@ c #4E4E4E",
"# c gray14",
"$ c gray12",
"% c #565656",
"& c #181818",
"* c #5D5D5D",
"= c #101010",
"- c #060839",
"; c #0C10B8",
": c #020579",
"> c #61645F",
", c #06099F",
"< c #656565",
"1 c #000460",
"2 c #020589",
"3 c #2028C8",
"4 c #000468",
"5 c #000458",
/* pixels */
"@    o.  oO @  oXo.O   @OXO@@OX.+XO@@OXO@   O.oXo  @ Oo  .o    @",
"@@@@. @  .O....  +O @   ++.OOO@O @OOO.++   @ O+  ....O.  @ .@@@@",
"oo  @@o    @  O @   .O@@.X#oOO    OOo#X.@@O.   @ O  @    o@@  oo",
"O  O   @ OO@OoOoO  O  Oooo     oo     oooO  O  OoOoO@OO @   O  O",
".O @@%@   O@@@O.Oo@@@  O  @@  O.oO  @@  O  @@@oO.O@@@O   @%@@ O.",
"+. *<<>>><%%%<><<OO%%><>> .o .o Oo. o. >><>%%OO<<><%%%<>>><<* .+",
"   X %@@@o @@@%%@@@%>>%O*O  O  $@  O  O*O%>>%@@@%%@@@ o@@@% X   ",
"  O#.Oo.     ...oo.oo.O*OooO  .#&.  OooO*O.oo.oo...     .oO.#O  ",
"oX+$+o+o..o+o.  ....oo* o.. Oo&X#&oO ..o *oo....  .o+o..o+o+$+Xo",
"X+o$X+o..o.ooo....XXO* OOO @ &$XX$& @ OOO *OXX....ooo.o..o+X$o+X",
"oO.&#+o+o...o....ooO*ooO OOo&$X..X&=XooOoXX%oXX....X...X+o+#&.Oo",
".o.$+ooooo.......oo*@  .. .&$Xo.XX#&=.O..   %XX.......XXooo+$.o.",
"   $Xooooo..o+X+oo*@oo...o&##oo. oX$$=X...XX %XX+X+X..XXoooX$   ",
".o+$o....o.o+o.o.* .O.X.o&$#XXo.XoO#$&=X.#.o.O%.X.X+X.X....o$+o.",
"O O$X++Xo.  ..X+* O   O.&$#X+ooooo OX$&=.oOO oO%+X..OO.XX++X$O O",
"@ O$XXX.....o.O*@  O OX&XXX.. ooO  oXXX#=#o o   %o.X.....XXX$O @",
" %%XXo$#Xo+oo *O.O.o.X&$X @.#XooO O  O X&=X.X.o.o% XX+XX#$oXX%% ",
"% .$+ooo++++.*%OXo O &&X .XXXoo+ooOOoOOOX== o X#o@%.++++ooo+$. %",
"O  $Xooo..++* .O @ .&$X    XooXXooooo OoOX&=.  Oo.O%++..oooX$  O",
"  O$Xo. .X.* oOO @ &#X....X..o.X X----XXX.#$=   ooXO%.X. .oX$O  ",
"   #X..oo *OO    o&XX+X.-----------2:1--+X+X#=XOO Ooo%OXo..X#   ",
"OO $Xo+oO* .OO...&$X.+X.-:2::444411,;,:1---.X&=...oo.O%oo+oX$ OO",
" oo&X.oX* @ OO.+&$X.oo++-,3;;,2222;3;;,2:4--.X&=+.ooO O%Xo.X&oo ",
"OO $XoO*@@@#Xoo&$Xo.o...-:3:4444441,;,:1---ooXX&=XX#$@@ *OoX$ OO",
"o O$X *@oo#Xoo&$Xo. .XX.-:;1-------2:1--o#+   X#&=XX#$XX@* X$O o",
"@@O$O*@OXXO.o&#X -----X+-2;5-o.+#X----..#+o o  XX$=X.o##O@*O$O@@",
" @@#*%.OO Oo&#XX.-42:-X+-2,5-X++.ooo. o#.OXX.   X#$=XoOoO.%*#@@ ",
"   *@ O  @ &XX+X -4,1-X+-2,5-Xo. o..o+##oOO@@+XXX+ #=O@O O @*   ",
"O @@@O.   &XXo++.-4;1-++-2;5-XXX Oo X--- $$XXo oX+oX#=OO .O@@@ O",
"@ @@@@ .+&#X...+.-4;1-+X-:;5-o++O o.X-,---oOOOO .$+.X$=+. @@@@ @",
" %   o .&$o + ----4;1----2;1----------;,:---.o. XX++OX&=. o   % ",
"%   oO &&X..X.-4442314444:3:44444444443;,21---X. o+#..X=& Oo   %",
"O @O@@ X&#+oX -2,;;3;,2,;;3,;,222,;;;333;,2:4-- @X+XX+$=X @@O@ O",
"  @@   .&&X.+.-4442314444:3:44444444443;,21--- @ XX+.X==.   @@  ",
"       O.&#o+.----4;1----2;1----------;,:---O Xo Oo+X$=.O       ",
"OO  +O..O.&$X..+ -4;1-X.-:;5-...XX#OX-,---$#++X Oo.X&=.o..O+  OO",
"Oo * OO @ .&#ooX.-4;1-X.-2;5-oo.Ooo X---oooX+X##oXX$=.   OO * oO",
"O @X*@o.  O.&#X. -4,1-++-2,5- oooO@@OX+o o+oO.X+.X$=.oOO.o@*X@ O",
"O  $.*@ O.oO.&$#.-42:-+.-2,5-. #O  .oXoO   XXooX$&=.oX.o @*.$  O",
"@  $+o*@ oO @.&$.-----+.-2;5-oX.XX----oX Ooo oXX&=. OoX @*o+$  @",
"@@@#X.@*@.O....&#$o. .++-:;1-------2:1--O o.OX&$=....o.@*@.X#@@@",
"oo $o X *@ @  O.&#X.+o.+-:3:4444441,;,:1---o.X$=.o   O@% X o$ oo",
" OO$XXo @*@o  @@.&$X...+-,3;;,2222;3;;,2:4--#&=.  O X %@ oXX$OO ",
".o $#X...O*@ O.O .&#Xo++-:2::444411,;,:1---#$=.Oo.oO %o...X#$ o.",
"   $X  .o. *@OO @ .&#o.X-----------2:1--o.X$=.  Ooo@%O.X.  X$   ",
"%  #X+.@.ooX*   .o..&X.oooXX.   oX----ooX.#=..X.  O%#XX.@.+X#  %",
"@@ $XXXo. @.X*@@ @@@.&#.@.XX   .X+o  Oo .$=.   O @%#.  .oXXX$ @@",
"@@@#+X @.XX  @*OO@@  .&#o o+. o oooooOOX$=.OO  oo% OOX#.@ X+#@@@",
"O  $+.   .X. . *>@.+  .&XX.Xo..XX.o O.##=.OO+. >%O.O.X.O  .+$  O",
"  @#o+o. +X. ..@*@O O+ .&#X+  oXoooO+#$=. +oOo %@.. .X+O.o+o#@  ",
"@@@#.      .. +X.*  o+. .&XX .Xo+. OX#=. .+XOO%.X+O..O     .#@@@",
" @@#+o.   X+o   +o*@O   O.&Xo..oXX.X#=.oOO o@%X+  OX+XOO .o+#@@ ",
"O @$o ...+$X..@@ X *@  OXO.&XX..o.X#=.oXoOO %OXO@ ..#&+... o$@ O",
"   $+o....X#o..  .. *% o .o.&XoX+X#=.X. X @%O..OO..X$#....o+$   ",
"@.+&Xo.  .o+o..  . . *%@.#O@.&&+#&&.@O#.@%* . .  ..o+o.  .oX&+.@",
"@%O$+oXo. .XXX.++   . *@ O @ .&&#&. @ O @* .   ++.XXX. .oXo+$O%@",
"O@%#X+oo  oXoXX#Xoo...O*@@O   .&&.   O@@*O...ooX#XXoXo  oo+X#%@O",
" @*$#XXo++X##X+X#X++++X+*O.+........+.O*+X++++X#X+X##X++oXX#$*@ ",
"@  XXXXXXXX#XX$$XXXXXXXX+* . .o.Oo. . *+XXXXXXXX$$XX#XXXXXXXX  @",
"+O     @@ .+   . @   O @ .O O ...  O O. @ O   @ .   +. @@     O+",
"XO       ..     .oO       @O@ ..O. @O@       Oo.     ..       OX",
" %%@   @%@%O.OOO  @@   OO.o.% .+X @%@o.OO   @@  OOO.O%@%@   @%% ",
"O@@@@@@ @    @@ OoO @ O.OO. .. o. @   OO.O @ OoO @@    @ @@@@@@O",
"@@   OO   .O  OOO   OO.O O..@ O.+O @ .O O.OO   OOO  O.   OO   @@"
};
