/* XPM */
static char *roots1626371859[] = {
/* columns rows colors chars-per-pixel */
"64 64 29 1 ",
"  c #101010",
". c gray12",
"X c gray14",
"o c #5F331B",
"O c #673B1F",
"+ c #572F17",
"@ c #412312",
"# c #532B13",
"$ c #4A2513",
"% c #311B0E",
"& c #3F3F3F",
"* c #26140B",
"= c gray19",
"- c #734323",
"; c #2C2C2C",
": c #373737",
"> c #1F2B1F",
", c #7B4B27",
"< c #323232",
"1 c #83532F",
"2 c #181818",
"3 c #454844",
"4 c #464646",
"5 c #8F5B33",
"6 c #3D1F0E",
"7 c #3B3C3B",
"8 c #1B0F08",
"9 c #565656",
"0 c #97633B",
/* pixels */
"XX=:&&& 6$$+oo$@=:&&&444444&&:;;;:::= ++O#%.X&&&&&&&47&&&&&&&4:;",
"XX==:: 6$+O-,-,o6 <<&44&4344&:;;;:;:: o-$$*>.&<<<&<77&&7&4&&4&:;",
" @$#+oO-,-Oo--,1O@ <=:&<&3&3&<;XXX;<X@O,#@*.XXXXXX&&&&<X&&3&3&<;",
"#O-,-Oo+$%@@@$O,5-$%XX=&&3&3&<=;X2XXX$o1$**.X<<<&<<&&&3XX3&&::<X",
"-+#+##@%******@O,1O#.XX=::::<=;;. >X.$,,@**X=<&<<&<<&&39X;<;<; #",
"o#@**%*       *@--1o$..X=<<;;;;X%*.;;+1O6*.X:::::=;======;X +#+O",
"  >>>> >>..22.>%oO1O# >.X=;XXX @+oO-,1-+%*>;=<<<=XX@#+##$$#+oOo+",
" >.........>22. +o5,O  X<XX.X;@o-,151-o#*  XX;XX=X@#+oO-,-O-O+#@",
":&=&:=:===XX;2* #O11-Oo$##+ooO-,o+#$##@*>>.X.X=X..@o$#$$$#$o##@ ",
"&4&&&&9334==;.+o51,1,-O-,11151,O@%*%%%*.XX<X.2X=..+O#@6***  ** >",
"443&3&3&33&=;.o1-+########+oOo#@*.XXXXX=3:<X.>;..%$-#@%>>>>..XX;",
"443:&&&33&4X. O-o@%********* *%.XXXXX=:&:4<X.2;..%o,+@*>.XXX==33",
"4439&3&3&3&=. -,+*>>>.....>> >.XX=:X2&:734:; 88.%$O1o@..====&&&&",
"&&&&3&33:;$+,1,1$ >..XXXXXXX.X;=:&<<X2&:&4:=&>>*@o-5o@.X<&&22<<&",
"&&<&&&&:;$o#$-15@ >X=::=::<:=9::&&<&<X. :<<=&  *$OO1o%.=<<<339<&",
"::&&<&9:;$# *+-,$ >X:&<&&&&<:&&<&<<3&X> X;;XX *@O-,-$ >&&&&<&&&<",
"<::&&&<=X$+*%OO1#  =&4<<&<<&=<<<&<<:= #oO+$XX*%+-O-oo  =&<<&&<<<",
":::<&&<&XOo*%oo1+  :&4&<&<&<XXX.... 8+-15,O+$@$O1+-+o >..<&;==::",
"<<&<<<&&XO+**++1o +oO-,1o<&<=<<==;X o-5-#$+O-1O5-@o-o#  .X&<<<<&",
"<<<<<<<:X-# *$o-- OX    ,, &<&<<&< +-1O% *8 +O5-O $-OO$*.X<&<&<<",
"<<<<<<<X O-+  #O1+,      -< ::::: #-,-  * @#-1-5o @+-Oo$%<<<<:<:",
"XXX<<<7; oO++ $+5O1#+##+oO,o#o##+oO-O+  @o-1-OO1O  @o,O+$+X:<<<<",
"...X.... +O---O-O151O-,-O-+1O-,-,151511,-,-o6 +,o   @+--Oo+ XXXX",
"o+###;; #+o+#+oO-,105051150551,-,5051,O+$$66  O-+    @#O-OO+#+#$",
"O-Oo+# +o-o@6@$#+#+o+ooOo$+$#+oo-,55-$ 8%@@#o-,o@  >> ++oO-OoOOo",
"+#+oO-oo-o@* > >...**** * ***%@@#O101--O-,,1,Oo@% >X..+oO-,Ooooo",
"   #oO--o@* >X=&=;X.>>>.....>>*%$O55O+#$@6@@$#@%8*>XX%O-,1Oo#@66",
"  ##++Oo@*  >X&&&&=X> >X=::X;..@+105+@***********.XXX%-1,O+@*   ",
" $-O-O+@*   .22<<&<X2 X:&3&X>.%$,5,,#@*>...>>>>..XXX%+151+@*    ",
"#+-Oo$@*  > 2339<&=;2=3&3&&&..$-1-o#-%*X==;X>>.X==X@+O-1-@*> 2>X",
"oOo$%**. X=22<&&&<22;<&3::=X%$O5,o  O%.=&<&&X.X=&=X#+OO+@%*>X >.",
"-o@*>XX&=:&=22&<<X2X<&&XXXX%$o1,-Oo+$%.=<<<<334<&= +-Oo@%..;.2*@",
"O#*..=&&&<&&;22XX2;&&&&9XX%+#-O#$$$@@*.X:&&&<&&&= #OOO@*..:=.*@$",
"@%*.=&&3&<&&<;2222X<&&&<&X+$o%%      *%;=&<<&&<=X.#Oo$%*.==;.@$+",
"$*>X:3&3&&<<<&<.222;<&&<&XO+@%%*6@@$#oOoooOo+#XX. +-+@*..X;X@$oo",
" ; X=::::<<<<:::X222;<<&&X@#@%@#+ooO,--,-,-,--+  oo1#%*.X=X$#o-O",
" ;;;;;<<=;;;;=<<<;222;<<:X@#% +O-O-Oo+oOOOo+$#-+ oO,$%..XX$oo-O#",
"..XXXX;=XXXXXXXXXXX22X;;=X%@oO--+#@6          $-Oo-1$*...$o-O#@ ",
"..  >>>   ............XXX=%  +O,o             $$++,,#*>*$o,O#@* ",
".>>>>**>          .... $$$#+oO-,o   .XX..;;;;. $--1O+  $o,+#$%  ",
"*...@@@%.XXX;X.>2X.X $+O-,,O,1,-+  2222XX22;.= -OoO,o@@+OO+**>> ",
"**%@O1,$ 7:<&:;X<2 $+O-Oo+ooooO-o  XXXXXX222. +-o+oO1+oO1+ >>...",
"*%#O,o+-+ =<=<;X. #o-OO+@@@@%%@o,$#:====XXX ++O+$%@$o-,Oo >..X=;",
"  o1-@%o-o#++o+#+$o-Oo#@**....%@+oo$#@$$#+oO--o$* *%$oO-# >X:=:<",
"; -5O$%%oO-151--Oo-Oo@%*..X==XXX@$oOo+oO-,-O+$%    >%$o,@*>=44:&",
" #,1-o@%**+O-OooO-o$%....X=&&&=;X@$o++#$@66@@66  .>..@o1@*.&&&::",
"$o,o,,o#*   #+o-O+%*.X&===&7<<:=XX%@o-+#@%%*     22>.%+,#*X==<::",
"+,o,+-1O@ #o-Oo+$*>.X&&<=<<339<:=X.*#O-o$**>   XX222 *$1#*.XXX$o",
"O@@@ o--O++Oo$$ *..=4:; +O+o#&&=&=XX%#o-o@*> .;::2<22*+5#*..X$#+",
"***%* +----$$  @ X=4:=X$Oo@@Oo;;=<=X.*@oO6*>.:;::2228+-1o >>.#-$",
" >>>*%o,1,-Oo+#+$@<4=X$Oo@  o-+@X&&=.>*+o6*>.<;&...:*$,,- 8. +- ",
".>>*@o1OO-,151,O+#.XX.#O@  > +,$%;&&X.*#O@*.X<;=;.=.%#-O,-o+OOO ",
"..*@o5o##ooO-,11O#%.. #O@ ... o1@ <&=..$-$*.X;;;8;;=%+O+O,151O+$",
"@@@o1o@*****%#+-5-#$@$-,+#o++###-$ <=..@O#*.XXX;22 ..$OO-Oo+#+++",
"$$+,o@* >>> ***#O1,--,15-O--,,--O,$@XX $O+**.X.>8.>>.#+1o#@@@#+o",
"$#o#@* >.X;;; > #O1OooO-O##$##+oOo1o#$6oOo@*..%%*8..%$$-+@* *   ",
"@+@@*  ......;.> @,#  @-$6***%@@@+o,o+$+--$%*$#+o+#$#+oo@*      ",
"****. 222;;;;;X..#-$@@@O@* >>>***%@o-OO-,1o##+oO-,-Oo+#@*   ....",
" >>X4;2;;2;;4:=X%o,-O-Oo% >...>   *@+O-,15-O-O###+++@@@*>..>2=22",
".>.X<33&;;2;==;;+1o##@@*> >..X.22 >*@++$-,-Oo#@@%* ****..X=&:<X.",
"X..>X&33&&2.;;$+,o#%***...X=;..  >;.*%66o-O#@%*........X::334<;.",
";X.X&3&3&&:.@$o-o#%>..XX==::XX..2;;X.*@@+O+@**.===7=====&4&34<;.",
";;;:&3334&=.@oOo@%..&:&3&3::.X.X;;<:= $$#+@*>.::4&&444:&4474&:;X",
"X;=:&34&&&:.oO#@* .&&44444&&:;;;;;:&4 ##$+%  =&&&4&4474&3&&&&=;;"
};
