/* XPM */
static char *sandstone_3png1626371859[] = {
/* columns rows colors chars-per-pixel */
"64 64 55 1 ",
"  c #26140B",
". c #331D0D",
"X c #2C1D12",
"o c #37210C",
"O c #3C250E",
"+ c #3E280B",
"@ c #29201B",
"# c #342315",
"$ c #3A2310",
"% c #3D2B14",
"& c #30251F",
"* c #352A1C",
"= c #3A2D1C",
"- c #3D311F",
"; c #2E2921",
": c gray18",
"> c #332D25",
", c #392E28",
"< c #3E3220",
"1 c #3A342B",
"2 c #3E382F",
"3 c #373737",
"4 c #442D0E",
"5 c #432C12",
"6 c #482F16",
"7 c #423017",
"8 c #4D3412",
"9 c #453319",
"0 c #4A351B",
"q c #4C391E",
"w c #503614",
"e c #533916",
"r c #503618",
"t c #563C18",
"y c #593F1A",
"u c #423524",
"i c #453927",
"p c #4F3C20",
"a c #473A29",
"s c #493C29",
"d c #523D21",
"f c #413B32",
"g c #5D421D",
"h c #554025",
"j c #5F4520",
"k c #484138",
"l c #624621",
"z c #654A25",
"x c #684C26",
"c c #694E28",
"v c #6D522C",
"b c #71552E",
"n c #715631",
"m c #755931",
"M c gray25",
/* pixels */
"w4o+e88+o888eg588g7+e8+oo8ege48g+geegee++8g488g4gg8q248t%500066t",
"eeyoe8tu7e8egx6+gg%hgvg+oghze8%q.84gzgg80g8%w4e8gj4-2wgz8lgegwtl",
"wye;e8gg04e8wjo8eg*egvg+oe08g4+* .4egg8+i84+8+eggg+qig4e9ye+l8ew",
"tt4#e8gxg2%eet$8ge%7ggg4oggjgzg4 +8lg8g90ge8ce8ggw7hgwog6w0egw46",
"yy7*etyvxg088ywegz998g4goggg+%84.4et8tl0ege8g4ele8ihg4wg6pp8y84e",
"zd0*74egglyuX58ewge084cx.oggl8w+oe84X8g2eg8e+8gg4%88+gge6gzrw8wg",
"xlp5-488weeeoceteeew8gzj.wzvggee+848g41ege8gweg43gbvg8w%6yltO08e",
"tll0q>9tggyy%gy8ggw48wgg+jggqq8888470++eewgg8g07qegcjtwh6t8tttwt",
"eegxlg98ylbz8gz8++%g58gg5eylewew&+vg4gg448g84w0wegglg8wt66gz0ygg",
"qeg4glg7808w8yly48vl48lg5<lcgeg6owggg8gg4g84890egglg8wg064gyedzx",
"lieglvgg8>5O8lg84glg7eegodgy8geO8tt8egge8e47ugwegggg88e068O58gzz",
"lt0egzvve0o.4e88gge8-0tg.teegg8yegee8e84o+e40tetgggg8egg6leo+8ee",
"4gg09gclltg8o48tw7eh090gowgy4+wywee844888+.+lj8egggg8egg6vj90544",
"e8legg8488leowlgggggtt9toww5gz8yw8egzzg4j8+4gw84ggwwggxg6jggptge",
"g8gvglgeeege+gvzwwwwlzt<ozyele5887g8wg8wcvg+o5844g8qw8ge6getlpzn",
"egww8ggvge8e4etwwegtwgztoywzy8w4wg8lgwwggggg+o48e8ig48e87w8wthtw",
"elge84ggt64e58w8w77gg8eg.88yw8tylt9u88txlwwye45e4+eelz5w68ewewu4",
"8egggg8w4j58=tgggg9%egw4Ogy44tlze4u88tglt8ww8wlcg4+etwtt68ggg808",
"8wegwgw4tzg%e<0ggzg8%8w45wzz4wglw8+4e48480t86lbggg7gweew6wczge>6",
"7we8wg88zgy8ez00gvxgeoo4.ewtt80w88.8glle9tw5lglgwtw4wwtw6wywe48%",
"%78w844e8e88+gge9pgt8+o4.444444<44o84444%4.5twee8w8.88ee68848+4%",
"o774+4+%5%557++%.8067o470dr6.%t0,=0r66.50550065oo+8765%56654455o",
"4gl8gezgxv8dM5gcOtg8j84egzy8ejghujlye86lw48ezbzeo8hvcg4y58glvvjt",
"pg++++88lg4uigwg.584jw848t4tgthhlyww4ewt858ggzgeo8hgwe4<@.44egg8",
"u8e7g8egze4qqgog.e=5g8e84o58448w8588yt50twtzleelO88etet4X 4wzt84",
"eg88z88ge8<hg4+gog9qgzle48+tgxzg8Oexct7888ygtwtyO8gxl8tto.wtg8yy",
"ele884gg8%qg8gggoeglglleetg888845tzcze<tzyzgzmvg5+8ge844o+y844gq",
"tg8t48ge<hgg+h88ogl84ge4%4etg8+egczzg45yggzlglzl%.exzgey+4e+540i",
"t8gg8gg+2gzvgg8woglgzgeqlgw8w+e7elgtgwtezdyygyyeO4zxgt084868zy78",
"8wle4800eegzg88qoglggt-e4+-0wo4ge8elcletyeiwttew5tyte0e8745toot8",
"4et44wieeggle8ghoellt84ew%1ge#wnxy4O8ywlyy808w85.wullyeg7#gztwjy",
"8e84w0ewgggg88e9o4tg8wlgw9gxg7exly8.zw4yegyw4O...0dcgwg8O8ygwej8",
"78w%0g8eglleweyyo748wzxttqzxg9e8yey6xgg488lcg844.8twwgt4l8twewyt",
"oo44hgweglggw8ggox8otg87gzmle78wytyetzst8%5e8588548gyw8eg8et8ww8",
"t8o4ge88ggee8glgoee4ee9qgggee%etlzsyeyj7etlge8ex84te608yyw84ttte",
"cg8ot884tg8egglyo+elw0gegee84elxbyubt868gcvcytw8$8y8tlt8w86lwyy8",
"gll8oo888ttq44y8og4t9e8478w487etgelxg.egvltetgzg%6gwzwe44tytlgww",
"lgeg8oo44408tl8eocg8o4evmlgljwe77tge58yyce0udzgx58etl8wteg8uwt8t",
"g8tew4gvgoeggy6eozgl48gcvgwettp1wtwlvw8lg0agzwtz56w8w8wyle6uw8el",
"w4we4gzggeoge8ywo9wgx44ggw4ze%7ttewgz864wegvxgggowzg84ycy8464w8w",
"eeg4tgllyy888ww8o4uett58gt44g0pt8ete48ge8tlzyzbwo4ggg88tee+Oweew",
"8e+5lggg8etOewlyot4*5teo8848g404wt8gt7eg88e8tly4+488888ue8.8wtlt",
"oo.o55%5O54.oOOOo+5..#..oooo+oooOo..ooO5o.O5OOo5.ooooooo#o.ooooo",
"8hvxy4g58ygvvly+elet8lggnl8ka+nt.+ylg7lneoxcget55w8zwo8exltlzggw",
"8dgew4=Xo44tlt8*g8++488tlw4:g8g8.wbcg=8l8otgtwe50g7t7Ogeeg8tewz8",
"4wetet6X 48lt8718e4j88tlg490l%w8.8gzw69g85%www%ijleg7Oyt8888e8w8",
"8gxg8ty..8eg8tggty4x88tg88fgt44w68wye70tw8lg88ugbzee7.88y85gtp04",
"48ge844o5gw44gdige884egg89eg4l880l8ww9glw5e4$0lglgew=7ghle4e80l8",
".evlgego4eo449utgweg4ggqqhgw8t840xl4e0teteg%*gtgg8+7>8hzzg84wzj8",
"5zxgt084878vt%wtw8gwwg4=qgccg4g45lgt88egt8z78e8tew99<qhjg8e%8eg8",
"ggte0w8044toow8w8gg48w90eezgg4q85lt4t44e4ev4gcllgw9qgjgeege9zg87",
"8ullgeg5$gztegg4wt84w0qeggzgwei45xgoeg8o8lgwtgge84glggeehggqezw4",
"7hvgwg8o4ggetg8e6e447eewgjgew8045zt8ebl48yzt4w7-7ggxtg9glvld8g+4",
"8t8ege4g8gwwegee488=ytwtglgeweg85tw8uegg88yeo.#9ezvxgw0gljg8+o88",
"4wgye8el4ee8ww8ooO57jewtglge8el85g0*70qtt888o4wgzvvg90gg8448>8xt",
"8te808gy88%wgte8r4oeyw8elgteegz85t0ezleewg8.4gegt8ge0tg+888e08c8",
"4g4gjt8w8wz8gg4gxyO6e484ge8gylg859qgtetygbz84gg48etggxtexcghcwle",
"8gwlew4+eggggwwglzy5.88w8ti84we4=qxltwe8tgg88ttelllgzlwetgulewe8",
"8egl4weegwueg4gggeyt4.445808lt845gy8gte988e58w8tlgg448glww0gee48",
"804w8egge7uw4gzcweew86xz54ggg5e6$ewlg87tetg97w+5ge8elggt887eewe+",
"wlg88gcg8484w88e88w88xzyt44teey4Oetw%8gglyw5u4cj4wggeg848-7gzvg8",
"4ggg4egeeo+eeeee0y88zgzggg488w88o+4#7gxxg8ug8etle4egeee89-%tegg4",
"488ww4<e8o4eggg-0w.tyyle8e58wyg858owglxgtazy4ytgt84e8t88>47w8wg+",
"ooooooo#oooooooX...5O55O%5.o+OOo...oO55#.55%oOO%++o+%++#o#o+o++o"
};
