/* XPM */
static char *sandstone_21626371859[] = {
/* columns rows colors chars-per-pixel */
"64 64 17 1 ",
"  c #A06C40",
". c #8F5B33",
"X c #7B4B27",
"o c #83532F",
"O c #97633B",
"+ c #B47E51",
"@ c #734323",
"# c #C0875B",
"$ c #AF744A",
"% c #673B1F",
"& c #CC8F5D",
"* c #5F331B",
"= c #D59767",
"- c #D89F73",
"; c #572F17",
": c #DCA77E",
"> c #532B13",
/* pixels */
"X +&&&&=---#OXO:--=====&&&&&&+o@.&&&&&&&&&#+$ .%. $+#&&&&&&&&& %",
" ##########+XX&###########+ Oo%*@.+++++++++##&#+++++#+++++++++.*",
"++$      O..X#++           .o%..o@. OOOOOO $$$+$$#$    OOOOOoo@*",
"&+      .X%*O#          $  o%.#++o@.OOOOOO   OOOO$O..OO   OOoo@*",
"&+     .XX+&&# OO       $ o%.#+$ +o@.OOOOOO  OOOO$O..OO   OO.o@*",
"&+     .XO+O  O..O      .o%.#+    +o@.OOOOO OOOOO OOOOO     ..@*",
"&+ O   .oooooooOOO   .o@@%.#+.O  O +o@. OO  OOOOO OOOOO    O..@*",
"&+OO  +.+&-=&&ooo  Ooo@o*.#+OOO  OO +o@..O   OOOO$OOO  OOO..Xo@*",
"&+O O O.+O  O &#OOoo #o%O#+      OO  +o@.oO    OO OOOOO.....oX@*",
"&+   ..O    OO  Oo.  o%.#+++  OO  OOO .o@.O    O. O.OO .o.OOoo@*",
"&+ +.X      OO  O.@@o%.#+ $+      OOOO X@@. OO O. OOO  OO  O..@*",
"&+OXXXOO OO   OO  %o%.#+  $+      OO OOo**@.OO  O$OOOOO    Ooo@*",
"...X O.O     O.OO o%.=+O$ $ OO       O.XXXo@.O   $O.OO.OOOOOoX@*",
"**%X OOO  + OOOOOo%.-+OO  $OOOOOO   .oX +++o@.OOO$OOOO....OOoo@*",
"%o$+& ..O  O.O Oo%.-# OO    OO.o.O .o@ + O +o@.OO OO..OO.o.O..@*",
"X$&+ OoXO + O.Oo%.#+$...$O   OXX.O.o.o$ .O  +o@. OO.XoO O.O ..@*",
"$=# OO..O + O.X%.#+ $O.O .   O..O.o+OO#..OO  +o@.  O..O  OO ..@*",
"&&+OoX#     .X%%.+  $OO OO  OOOX@o++O =  OO + +o@. OO OOOOO ..@*",
"&#OOX#   OO X%%.#+ O .O $   OOo%o   .#& + O +  +o@.O.O  O  Ooo@*",
"&+O.++ OOO Xo%.#+O O O  $O   .o + .O +++    ++  +o@.oXO  + OXo@*",
"&+..OO OO  o*.#+ O O O   O  .o + O     ++ OOOO   +o@.. +   O@***",
"&+OOOO    o*.#+    O O O   Oo =OXX&     +    O  O +o@.    Oo**@*",
"&+      +o*.#+   OOO ...X.Oo+##OX## ++  +    O  +  Xo@....@@o#.@",
"&+ o    o*.#+  O.oX+ .XoooOo&&  O++++ OO OO  OO ++ XOo@X@@@O#.@*",
"&+ #.OOo*.#+   O.X++ OoO O X&    +++ OXX#O.OO.O ++ X#+o@.@O+oo@*",
"&+  oX%%oX&+ O  O#&o. .O   @#OO     ..X#& O.OOO+  +X#=+o@@+ oo@*",
"&+ OX*X. +&+ O  +  ..O.. $ X   ++     ##  OOOOO  ++X++ OX@OOo.@*",
"&+ Oo*.#+ +      O   Oo.   o+++++ O + +      .X.+++XX OOXo@.o.@*",
"&+ o%.#+   O.O  O..OOO..   .O++++O.OOO+    O OX# + .XXXX #o@X.@*",
"# o%.#+ OOOO.O  ...oo.OO.O.OO +   ..o.O   O..O&&OO OX*XO&#+o*X@*",
"+o%.#+  OOOO   O.OOO..OO$X@+OO    .....OO  .o. O..OOo*O&+O +@*@*",
"o%.#+OOOOOOO   OOOO  O.XoO++ OO   OO..O.O + ..  OOO..X##    +@**",
"%.#+OOOOO.OOO     O.o@XO.+#$        OO  OO  O. +  O..X +O  O.+@*",
".%o  OOO   O      .....OO# .O ++  ++     .. OO + OOXXX O.O OoX**",
"#.%oOOOO      O.X..++#=&#&+OO  .O .XO O +&+  ++ O.XX &+Oo...X*@*",
"+#.%oO O  OO .. &#+# +++$+    O.O .o ..O ++ + O .XX =# OOO..*@@*",
"#+#.%oO + OO.. &+$O .  O + OOOO   O++o..oO   .. X #=+ +O  .@@+@*",
"#++#.%o   O.@ &$    . OX.  O.oo  OOO.o..X.  O.O+X&++O    .@o+.X*",
"#+O+#.%o O.XO#+O + $ +OX@&O.O..O OOOO.o..O  .. +X O  O  .@o+..X*",
"#+OO+#.%@*X.&# O OO$  OX@+OOOOOO  O  O.OOOO.o. #.X.+ .O.@o+ o.@*",
"#+OoO+#.%@@ #   O.O$  O+=$O OOOOO..  .o....o.O +#OXO ..@o+  ..@*",
"#+OOO +#.%o #O  OO $     ..OO..OOooO oXo.O.oXOO. #XX..@o+   oo@*",
"#+OOOO +#.%o+OO   O O+++ .o.OO.O O.OOO...O .XOO..#OX.%o+ O OXo@*",
" +O O.. +#.%o  OOOOO.OO  $O  O.O  OOO Oo.  OO  O  o*%o+ O.O oo@*",
".#OO.o.O +#%%o O..OOOOOO$O   OO  O..o.O.OO     ++.X@o+  OO  .o@*",
"o# O..OOOO+X%%o O..  O.O..O       OO.o.OO      ++X@o+      Ooo@*",
"X#OOOOO..O$O%@%oOOOO O..OO  OO   +  O...OO      .@o+ O    O.XX@*",
"O# OO..X@OO$XO.%oOOOO.OOO$OOO.OOOOO..OO..o.   ..@o+ O.O   OO..@*",
"+#OO.X@O# ..O$$.%oOO..OOOOO OOOO.oXXoOO..@X.O.@@o+ OO    OOO..@*",
"=#OOXXO +O....$#.%oOOOOoO.O  OOOO.X@+  .o%Xo.@@*. OOO ++ OO.o.@*",
"&+O.X  #O..OO.O+#.%o  .o...O OOO.o%%#  .o@O.@oO@o..OO ++ OOO..@*",
"&+O.X #OOOOO.OO +X.%oOo.O..OOO.ooXXX+OO.o@o@o+ XXOO. + ++   +.@*",
"#+O .#  OOO.....XX@*%%X@o.O.OOO.Xo++#. O.@@o+# o%o      +++++.@*",
"#+O    $  OOOO.XX++#.%%%%%X.OO.oXX+O..O X@o*@OOO.o++ OO   ++..@*",
"#+ + O. OOOOO.XXO$o+#.%oX%%XO..oo ......@o+ &#$ $.o+ .O .O  .+@*",
"#+  O.o$ O..OXXO$ X +#.%* o%X.OOOO.o.O.@o+ ..O$O  .     O.. ..@*",
"#+OOO.o$ O.oOXO ..oo +#.%o.%XO  OOO.O.@o+ .oo.$..$$O +++ O. .o@*",
"#+.OOO.$$O.OOX .OOO.. +#.%o%XO O.OOO.@o+ .OO..$ .  O ++     oX@*",
"#+OOOO.$ OOOOX .OOOo.O +#.@%X O..OO.@o+ .O  O.$+++OO   O  OO.o@*",
"#+  OOO$ OOOOXO....XX#O +#.%%OO..O.@o+ O. + O.$ + ..O  O  ooo+@*",
" +    O$OO  OXo....XO#OO  #.%o....@.+ O.oO OO. oO O..O    ..o.%*",
".    OO$OO  o%@...O..OO.O +#.%ooo@o  .oX.O OO. .OOOOOO OOO OoX@*",
";o....o ...X%>%o..........  O.%%@;*oooXo.OOOOO$OOOOO..X%*@oo@*%*",
"@@XXXX%%%%*****%%%%%%%%%%%XXX@%**XXXXXX@%%******%%%%%%%%%%%%**@%"
};
