/* XPM */
static char *sandstone_11626371859[] = {
/* columns rows colors chars-per-pixel */
"64 64 17 1 ",
"  c #83532F",
". c #7B4B27",
"X c #734323",
"o c #673B1F",
"O c #97633B",
"+ c #5F331B",
"@ c #8F5B33",
"# c #A06C40",
"$ c #572F17",
"% c #4A2513",
"& c #532B13",
"* c #412312",
"= c #AF744A",
"- c #3D1F0E",
"; c #311B0E",
": c #26140B",
"> c #B47E51",
/* pixels */
"*&&+X O>#O#+ .o$*+X@#O#O## oO#O X#@Xo$oX.+XXo$oX #O@O@Xo&.XXXo+;",
"%&+X @@#O@Oo#@Xo%X@#O@  . @.@@ #X#  XoX. X .X+X @O  @  X&.  ..o-",
"&oX  @O#@#@X@..X% #O @X... . .@O.O@. +.@@...Xo.O#@  @  .&@@@  X%",
"o. @@##OO @. @.X%@O  @ XX...@@@O.O@..o @O@  .o.#O ...   &O#O@ X%",
".@@O#OO@@@@  @ X%OO @O# oX . @O  @@O.XOO @ @ X O@ @   @@+@@OO X%",
"O#=#O@@@O  @@. .%#@  @ #.o. @@@   @@.oO@ @@@OX.@ O@.. @@+.. @@ +",
"#@O@@@ @@O@@@  .$=.. @@OOX.@. @@  @ .+O@@@ @ . O@ @ . O@o.X. O +",
"O .X..@O @  @@@ +=@@@XO@@  @  @O @@ .&#@O@@@O.@O@@@@@.. X@@  @ %",
"XoX.  O .  @@@@ o# .XO>O@  @..@.@@@ .&#@..O@@XO@@O@  @..X @  @ $",
"ooX .@@@. @O@@O +XX O>#@@@O@  @O@ @@.&=@O@O@O @ @@@@ @  . O @O#$",
"oXX.. . .  @OO@.+.. #@ @O@@@OO@.@ O.o&=...@  . @O@ @@.  .    @O$",
"X.@ . ..   @   .+=##    O@@O## X@O@Xo$# . @ @   @O@@@   . .. @ +",
" .@@@ O  @.   O +O#@@ @.@.O@  ..@@ Xo+O..@@  O. @   @.  @  @  X%",
"@    @O@@.. .@@.+ . ..@. .@   .XOO Xo$O. .. @@X.   O .  @@@@@@o-",
"O@ @  @  @... @.%X. @.@O X  @@.o@ Xo+$@ X.  @ .. .@@@. @O@@O..+;",
"O        @  @@ .%oX.@XO@.oX.  X+.Xo+$%O XX..   ... . .  @OO@. o-",
"#  @@@@ @  @@@@ -%+++&o+%$ooXo+&+oo$%*#    X...@ . ..   @   . X%",
"#@@ @@  O. O  @.%$oX. @@o.@@O##O O@Xo+#@@@@.  .@@@ O  @.   O  X$",
"# @@@@O .o     @&oX... .oX.. OO.++X.X+O@  @ @@    @@@@.. .@@. X$",
"#  @@@@  .@@ ...$X.   @ ooX. @@ oo+XooOO @  @ @ @  @  @... @..X$",
"O       ..    . +.X@ @  X.XX.  @ .o++$O@O  @O@        @  @@ . X$",
"O@ @  @ .. O...@o@ @@@  .@@.. . @O XXo#@@ O@@   @@@@ @@ @@@@ @X$",
"O    @@@@ XX....+@..   @ ..X..o.. @O@oO @O@ @@ @@@@O @@... @@ .$",
"O.@@@ O  X.... o$@.X. ..@.. ..$@   @ +O@@@ @O@@@ @@  O@ .X.  ..%",
" .@ .XoX.. . @..$@ .  ..X.@ .X$@  @X +O O.  @OO....XX..........%",
"XX.XoX. .@ @@@. +O     .. . ..o@@@ X.$# O   @   .  @ @@@. O#  o-",
"+oX.. @@.#      +O@@    .XX . X....X.$O @ @.   O  @  . @ @@@@@.-",
"&o.   O .O  @ @@oO   .. X @...  ..@..+# @@.. .@@  @X....@ .@@@.%",
"o. O#O X.@@ @@  o#  @.Xo @. .. .X  ..+=@  @... @  @ XX..@@@@ ..+",
". O@  .o. O@@@@ oO@@ X+oO   X.  X. ..+#@@ @  . O @O# oX . @  @.+",
"@O@O .oX. O@  @@o .X+ooX@    .. X.@. o# @@.  .    @ #.o  @@@@@.+",
"O  @ XX. OO@@ . o.X+oX.X.    .  X....+=@@@   . .. @@OOXX@. @@ X+",
"# @ O.. O#OX   .+oo+o..XX.   ...X.XX.$O  @.  @  @   O @O@@O@ Xo$",
"#@@ @@  #@X.X. .$.. @O@.Xo. . .@X.Xoo*..  .  @@@@@@ #.@O@@O@ .X$",
"@ @@@@O O.X..  .+OO@OOO@.Xo.@    ..X+*oX... @O@@O.. OO. @O@ O X$",
".  @@@@ @.o@@ .Xo=@@@ @OO@ o. .X ...X*X.  .  @OO@.   ##@X O@ Xo$",
"X. .X.   .+ @.Xo+@   . @  X..X.X ..X $. ..   @   .  @ O# Xooo$&-",
"oX.@. @  X$X.Xo+%O   .......XX.@...X +  O  @.   O  @@@@@O ..Xo&-",
"$oX.X.@@.o&oXo+$*@..Xo OO@.oXX  .....$O@@@@.. .@@.    X @O#=O.o*",
"*%&$++o+++*++&&*;O  X O .  X... X.. .+O @  @... @..   O @@O O#.%",
"$+oX @o&o.@=#O X+O@OOO@..XXX ........$.    @  @@.. O# @ @@O   o*",
"+oX.. X+X  @OO@.+O@@@@  ..X. .  .. ..%X @ @@ @@@X @@@@@ @O@@ XX*",
"oX. .@@o. @O@@O.$O@.. ..XXX  . @X. . %X.  @@... o@ .@@O  @  .Xo*",
"oX.   O..  @@@@ o @ ...XoX.XX. .X@   $oX  O@ .X.o ....O@   .Xoo%",
"oX.O#=# @@ .O@ @+O@ X.XXX.oX..X... . $$oX O@OX .+.O@ @O@. ...o+-",
".oo#@@@@@@@ @ O@+O  .@  @.XX..ooX. ..*%$oX.@@@.X+X...@@@ O@Xo+$*",
" Xo#@@O  O@@O  @+O @@.XX..    .+X.@. **&$+XoX.Xo+oXXo .. Xoo+$%&",
"@X O .X .@O.@ @ + @ X.oX.. @@ OXX....&+o..OO#####O##X#==@O @O@ $",
"# O .. .X   @ @.+@..oX.XX.  @ @@X.XX.&o.O  @. @@  @@.O  X. ..XX$",
"OO  @@.XXO .  OO$ .@XXX  ..@@..@X.Xoo%X O .@  @ @@@O O  ...@@ X%",
"#@@ @ XX   . @O@& ....X. .       ..Xo%X@@@.@@      @  .@  . @ X&",
"#OOO#OO .X @@# X$ XXXX..   ..o.X ...X%X . .@ @@@.    ..  ... Xo%",
"O @@@@O@O@ @ @ o$@..X..  .   ..X ..X $. ..   . @... . . @ .Xo+&*",
"O @ O @@@O@O  XX$@..XXX.. .....@...X +. O  X.... o. .@@ @.XXXXo&",
" @@@ X @ @@@ X. +#  .  @ .. X.  .....$O@@@@ XX....  .  @..@O.@.&",
"X @@ . @@ @@@   +O. X  . . .... X.. .+O @ .. O...@@ @@  @.   .X*",
".. @   @O@@O#O@ +@. o  .   @X.......X$O   ..    . @ @@@  @@...o$",
"O  @O#O@@ @@O@O o@..+ @@@ @...  .. ..+#@@  .@@ ...@  @.@   .XXo$",
"OOO@   @@@@O##@X+# .+ @@@@@@ .X@X. .X+#@O .o     @....@ @ .XXo+$",
"@  @ .. @ @ @@.o+O .o.. @OOO@.o.X@  o$#@  Oo O  @. @     Xooo+$$",
". @  X  . @@ .Xo%XXX+X.oo. @ .+... X+$ .  # X@@@ . @@  .Xo$$$$$*",
"X.  .X@   @@.Xo$-+o+&+oXX   @X$XX .o$$o. @#O.X@.  @O@ .Xo&*&&&**",
"$oX.X+X.. .Xoo$%-%&%-%+&+oX. o$o @X+%*$o.@@OO.Xo @   .Xo$%*%&*-;",
"%$&&&%%&$+++&%--:;;;::::;%&++$*$+$%%;:%$+oooo+$%$+oooo$$%*;*%*;:"
};
