/* XPM */
static char *stained_glass_21626376814[] = {
/* columns rows colors chars-per-pixel */
"64 64 207 2 ",
"   c #020202",
".  c #060907",
"X  c #1D0101",
"o  c #180801",
"O  c #0A1407",
"+  c #0E1C0B",
"@  c #020211",
"#  c #02031B",
"$  c #14061A",
"%  c #111519",
"&  c #280401",
"*  c #340101",
"=  c #3A0101",
"-  c #251504",
";  c #2E1602",
":  c #361F02",
">  c #3A1C01",
",  c #11240D",
"<  c #142A0E",
"1  c #162F11",
"2  c #183313",
"3  c #193616",
"4  c #1C3B15",
"5  c #3A2505",
"6  c #3F3102",
"7  c #03042D",
"8  c #050928",
"9  c #1B0422",
"0  c #1F072D",
"q  c #170D2A",
"w  c #0A152B",
"e  c #010332",
"r  c #050D35",
"t  c #050639",
"y  c #0B1034",
"u  c #0F1038",
"i  c #121638",
"p  c #210125",
"a  c #27012D",
"s  c #24142D",
"d  c #290537",
"f  c #2F0239",
"g  c #2B0D3C",
"h  c #321935",
"j  c #172637",
"k  c #362138",
"l  c #450101",
"z  c #4E0101",
"x  c #560000",
"c  c #5A0101",
"v  c #4F1A03",
"b  c #610101",
"n  c #6A0101",
"m  c #730000",
"M  c #790101",
"N  c #641602",
"B  c #472605",
"V  c #562102",
"C  c #592602",
"Z  c #5D2C03",
"A  c #55320B",
"S  c #5F3F0B",
"D  c #593814",
"F  c #653506",
"G  c #6B3C03",
"H  c #703201",
"J  c #431B28",
"K  c #1F4317",
"L  c #214717",
"P  c #204318",
"I  c #234B1B",
"U  c #27531B",
"Y  c #285320",
"T  c #2A5824",
"R  c #2F6323",
"E  c #2E6028",
"W  c #326A27",
"Q  c #326C2A",
"!  c #37732A",
"~  c #3B7F2E",
"^  c #347030",
"/  c #6A450D",
"(  c #744C08",
")  c #775302",
"_  c #7D6002",
"`  c #7B600C",
"'  c #020345",
"]  c #01044B",
"[  c #060E48",
"{  c #160B49",
"}  c #151940",
"|  c #050751",
" . c #01045A",
".. c #07095D",
"X. c #081053",
"o. c #0C145C",
"O. c #350541",
"+. c #370948",
"@. c #331242",
"#. c #3D0751",
"$. c #3C0C58",
"%. c #1B2443",
"&. c #000462",
"*. c #010469",
"=. c #050A69",
"-. c #111565",
";. c #151E67",
":. c #1D1F6F",
">. c #04077A",
",. c #251E66",
"<. c #212972",
"1. c #242778",
"2. c #29297F",
"3. c #29367F",
"4. c #410149",
"5. c #470657",
"6. c #4D0159",
"7. c #4C0860",
"8. c #550165",
"9. c #51096C",
"0. c #5D0171",
"q. c #5D0976",
"w. c #60006C",
"e. c #670279",
"r. c #29457F",
"t. c #29537F",
"y. c #860000",
"u. c #8B0000",
"i. c #9B0000",
"p. c #A40000",
"a. c #B30000",
"s. c #BF0000",
"d. c #823503",
"f. c #AC1B3F",
"g. c #CB0000",
"h. c #EF0000",
"j. c #8C4204",
"k. c #925209",
"l. c #AA4102",
"z. c #A05903",
"x. c #B95604",
"c. c #A25F15",
"v. c #926019",
"b. c #A96A0B",
"n. c #B17B02",
"m. c #B47120",
"M. c #D04D02",
"N. c #C86704",
"B. c #D57604",
"V. c #3F832F",
"C. c #3B8034",
"Z. c #428D36",
"A. c #439337",
"S. c #47963B",
"D. c #479B41",
"F. c #53B14C",
"G. c #5FCF57",
"H. c #67DF5F",
"J. c #B98E07",
"K. c #D3870E",
"L. c #E39303",
"P. c #ECA403",
"I. c #F5B806",
"U. c #F5BE17",
"Y. c #FFD82B",
"T. c #02058A",
"R. c #060988",
"E. c #040794",
"W. c #06099F",
"Q. c #121790",
"!. c #1E239B",
"~. c #2D3582",
"^. c #090CAB",
"/. c #0C10B8",
"(. c #2A2DA5",
"). c #3134AE",
"_. c #3A3CBB",
"`. c #6E0684",
"'. c #680880",
"]. c #730286",
"[. c #7A0090",
"{. c #2D4681",
"}. c #2D5681",
"|. c #3D45BE",
" X c #3C57BD",
".X c #3C6DBD",
"XX c #161CC0",
"oX c #1B22C4",
"OX c #2028C8",
"+X c #2C32D2",
"@X c #3237D7",
"#X c #383CDC",
"$X c #4749F0",
"%X c #5050FD",
"&X c #5065FC",
"*X c #506CFC",
"=X c #800090",
"-X c #860098",
";X c #8C00A2",
":X c #9200A8",
">X c #9800B0",
",X c #A800C8",
"<X c #B000D4",
"1X c #B800E0",
"2X c #508CFC",
"3X c #5096FC",
"4X c #50A4FC",
/* pixels */
"u :.a 6.6.6.6.6.a 6.6.6.6.6.6.6.6.u :.:.:.:.:.O.0.0.0.0.0.0.0.f :.:.:.:.:.:.:.u 0.0.0.0.0.0.0.0.d 6.6.6.6.6.6.6.a 6.6.6.6.6.u u ",
":.#X6.>X>X>X>X>X6.>X>X>X>X>X>X>X>X:.#X#X#X#X#X0.1X1X1X1X1X1X1X0.#X#X#X#X#X#X#X:.1X1X1X1X1X1X1X1X6.>X>X>X>X>X>X>X6.>X>X>X>X>X:.:.",
"                                      T T 1 Q 3 Y I #                     # Y Y 3 Q < T T                                       ",
"    3.} :.u e e #       4 4 E A.P S.2 T T T 3 Q D.7     G m.L.G G L.b./     7 D.Q 3 T T T 2 A.I A.E 4 4       # e t u :.} 3.    ",
"  2.1.3.#X:.*.]       O ! ! Y T T F.F.E G.E F.3 @ ; 5 b.b.j.J ....J j.b.b.5 ; @ j F.W G.W D.F.T T Y ! ! O       ] *.:.#X3.3.2.  ",
"  2.%X{ e e #       2 , P P P T T E G.T Q j F.@ - d.n.I.( +.g     g +./ I.n.d.& @ F.2 Q E G.W T T P P P + 2       # t e } %X2.  ",
"  i ~.~.# ]       , + + P P P T F.T T 2 G.D.+ @ V ; I.I.d g +.a a +.g g I.I.; C @ + D.G.2 E E F.T P P P + + ,       ] # 2.2.}   ",
"  :.:.*.]       1 K 4 ! 4 A.A.T F.E S.3 G.C.  d.N.F ) ) ..f 6.6.6.6.d ..) ) F N.j.@ ~ G.3 Z.E F.T A.A.4 ! 4 P 2       ] &.:.:.  ",
"  # # ]       < < < 4 ! 4 A.A., E E + H.^ O o N.B.G I.U.{ q a a a a 9 { U.I.G B.N.o . ^ H., T E , A.A.4 ! 4 < < <       ] # #   ",
"  e e       O < < < + 4 + I I , E E + ^ ^     Z N.k.k.Y.` #.7.8.8.7.+.v.Y.z.j.B.V     ^ ^ + E E , I I + 4 + < < < O       e e   ",
"  #       , 2 + < V.V.V.I A.S.A.E E H.H.H.    l.; b.b.v.U.D @. .*.,.D U.) b.b.; l.    H.H.H.E E S.A.A.I V.V.V.< O 2 ,       #   ",
"            , + 4 < O 4 I A.A.A.E E ^ W 4 ^ 4 & l.F K.K.5 J.v.5 B ` J.5 L.L.Z l.- 3 ^ 4 E ^ E E A.A.A.I 4 O 1 4 + ,             ",
"              . U U < 2 2 1 +   I Q E F.^ F.3     V H ( ) b.( : : ( n.) ( H V     3 F.Q F.W Q I   + 2 2 2 < U U .               ",
"  9 7.e.'.5.q   . 4 < L 2 + 4 Q A.A.E S.@   . 7  .8   d.Z ( n.) ) n.( Z d.  8 ..e @   @ S.T A.A.Q 3 + 2 P < 4 .   q 7.q.e.7.9   ",
"$.'.7.g +.q.'.#..     I R 2 4 + Q A.2     ' e e ..&.'   j.x.: : : : x.d.  ' &.&.e e ' .   2 S.Q + 4 1 R I     . #.'.q.+.@.7.'.$.",
"e.+.$.O.q.+.+.'.#.    + R 2 ! ^ Y ,     ' &.e &.# ' ' ' ] Z : > : : C ' ' ' ' # &.7  .'     , Y ^ ! 2 R +     #.'.@.+.q.O.5.@.e.",
"+.9.9.O.'.'.9.@.e.e.q                 # e e # &.e T.T.T.&._.i     { _. .T.T.R.e &.# e e #                 q e.'.@.9.`.'.O.9.9.+.",
"@.9.9.p 4.4.p u d O.g .               ' E.E.' &.&.t T. .t %X:.    :.%Xr  .T.t *.&.' E.E.'               . f O.d u p 4.4.p 9.9.O.",
"d 9.9.4.=X=X4.&.&.&.&.e T.E.E.E.E.E.7 &.W.W.' | | 7  .!.-.%X:.    :.%X-.!.&.7 ] | ' W.W.*.7 T.E.E.E.E.E.e &. .&.&.4.=X=X#.9.9.d ",
"$ d d 9 4.4.f 0.0.f e # E.E.E.E.E.T...Q.*.E.' W.^.^.-.#X-.%X:.    :.%X-.#X-.^.^.W.' E.*.Q...T.E.E.E.E.T.# e f 0.w.f 4.4.9 d d $ ",
"O.'.'.'.6.>X0.1X1Xe.*.|   &...7 ......OXQ.u :.:.:.i %.-.r 2.u     u 2.y -.j } :.:.:.u Q.OX......e ..&.  ] *.e.1X1X0.>X6.e.'.'.O.",
"9 O.O.'.6.>X0.1X<Xf e e *.# R...OXXX7 &.&.7 (.#X#X3.*X{.3X3X2Xt.t.2X3X3Xr.*X~.#X#X(.7 &...7 /.+X..R.# &.e t f <X1X0.>X6.'.O.O.9 ",
"O.O.p   a 6.0.1X0.W A.A., t t ] XXXX-.+X!.).).(.#X3.*X3.3X4X2Xt.t.2X4X3X3.*X~.#X(.(.).!.@X-.XX/.] t t + A.A.Q 0.1X0.6.a   p O.O.",
"O.V l.l.l.v ; 0.f Z.A.Z.Z.' T.T.8 ..-.!.(.%X%X).(.3. X Xr..Xn p.p.n .Xr. X|.~.(.).%X%X).!.-.&.8 R.T.] Z.Z.A.Z.f 0.; v l.l.l.V O.",
"O.V H   V v v 0.f P I P 8 &.T.T.t T...:.%X%X$X1._.}  X2X3.i.: G G 5 i.3.2X Xi |.1.$X%X%X:.| T.t T.T.&.8 P L K f 0.v v V   H C O.",
"9 V l.l.l.v v 1X        9 G :  .t E.E.] :.$X1.&X*X|. X2Xf.N Z : : Z N f.2X X|.*X&X1.$X,.' W.E.t  .: G 9         1Xv v l.l.l.V 9 ",
"6.C V V l.f 0.1X          B.G u.8 *.W.| /.-.|.*X*X*X_. Xb x.;     ; x.b  X|.*X*X&X|...XX| W.*.8 u.G B.          1X0.f l.V V V 6.",
"6.; ; ; Z 0.1X1X2 ! W .   B.G s.b a.l | -.-.7 ,.3. X~.} * :         ; * } ~. X~.,.r -.-.| = a.b g.G B.    Q ! 2 1X1X0.Z ; ; ; 6.",
"a Z d.: j.f 0.0.2 V.! 7 7 B.G g.b h.a.  c c z M h.M M   m             m   M m h.M z c c   a.h.c s.G B.e 7 ! V.2 0.e.f j.; j.Z p ",
"4.Z x.x.j.0.1X<X1 V.! e e B.G = X h.h.c b p.z m h.M M   x             x   m M h.M z p.b b h.h.X * G B.e e ! V.2 1X<X0.j.x.x.Z 4.",
"4.> > F Z a 6.6.2 ! Q e e B.G m = M M b b p.z M h.M M &   = X     X =   & M M h.M z p.c b M M = m G B.e e W ! 2 6.6.a Z F > > 4.",
"4.G 5 z.; 6.>X>X, 4 P # # B.G m = i.i.b g.x z M h.= u.c *   X ; ; X   = c y.= h.m z c g.b i.i.= m G B.# # K K , >X>X6.; z.5 G 4.",
"p G z.G z.d 6.6.L A.Z.s f B.5 X.  i.i.b s.g.z m a.u.a.c g.=   k.z.  * g.c a.y.a.M z s.g.c i.p.  | 5 B.O.s Z.A.P 6.6.a z.G z.G p ",
"4.G > 5 z.  1X1X2 Z.A.P { 8 /./.>.m i.* c & {.{.& c c & g.M.F c.b.F M.g.* c c & r.r.* c & i.M >././.8 { 4 S.Z.4 1X<X  z.B 5 G 4.",
"4.G 6 ) )   <X1Xw.~ Z., 8 [ /././.%.@.3.*X{.{.}.= m m = g.M.5 v.( B M.g.* m m = {.{.{.*X3.@.%./././.[ 8 , Z.~ w.1X1X  ) ) 6 G 4.",
"a 6 n.) n.a 6.6.6.k + U I $ ^././.~.{.~.i  X{.2Xr.= m = n N   k.k.. N n = m = {.3X{. Xj ~.{.~././.^.$ L U , k 6.6.6.a n.) n.5 a ",
"a ) ; ; n.6.>X>X>X>Xh ! ! I 7 R.-.;.+X+X;.{.%.}.{.o = X n =         * n X = X }.t.%.{.;.+X+X;.o.R.8 I ! ! s >X>X>X>X#.J.; : ) a ",
"+.B _ 6 P.6.>X>Xe.p [.h ! ! I s !.#X#X#X;.%X%X).|.& x m m *         = m m c X |.).%X%X;.#X#X#X!.s U ! ! h =Xa e.>X>X5.I.6 ) 6 4.",
"4._ J._ _ 5.e.4.e.6.<X<Xh W L 2 d ;.;.;.j %X).|.*X*X%.u = &         X = u %.*X*X|.).%Xi ;.;.;.d 2 I W h <X1X6.e.+.e.5.k._ J._ 4.",
"$ _ _ J.K.a w.6.>X6.1X1X<Xa 2 W R g R.XXo.).:.<.&X*X1.~.u.l         l u.2.2.*X&X<.<.).-.XXR.d R R 2 a <X<X1X6.>X6.w.9 J.J.k.) $ ",
"O.k.6 _ _ 4.=X6.>X6.1X<X=X=X[.L R R 2 oXo.=.1.@X<.|.|.2.u.l         l u.2.).|.1.@X<.=.o.oX2 R R I [.[.[.1X<X6.>X6.=X4.) k.6 _ g ",
"g _ _ _ 5 +.=Xa 6.a e.8.[.1X,Xd L R W 8 =.W.<.#X@Xi %X2.u.l         l u.~.%Xi @X#X<.W.>.y R R L a ,X1X[.8.0.a 6.a =X4.6 _ _ _ @.",
"9 6 _ _ ) 4.4.-Xe.e.,X,X1X1X,X0.8.R R w W.W.<.#X#Xi ~.} u.l         l u.} ~.j #X#X<.W.W.w R R 8.0.,X1X1X,X,X].e.;X4.4.) _ ) 6 9 ",
"d ) 6 ) n.p -X:X;Xw.=X1X1X1X,Xw.<XO 2 + 8 [ [ [ w /./...c &         * c .././.w [ [ [ 8 + 1 O <X0.,X1X1X1X=Xw.:X;X-Xp n.) 6 ) d ",
"d ) ) 6 n.9 O.O.g +.p 6.6.6.6.f 0.a U U ' T.T.T.X./...c a.c         c a.c ../.[ R.T.T.' U U a 0.f 6.6.6.6.p g O.O.O.9 n.6 ) ) d ",
"$ ) P.P.P.O.`.e.`.e.g ].[.+.>X>Xw.8.4 U 8 [ [ [ w ^...a.a.c         c a.a.../.w [ [ [ 8 U 4 8.e.>X>X+.].].g `.e.'.'.O.P.P.P.) $ ",
"d ) ; ; n.9 O.O.+.9 4.$ w.4.>Xw.[.1X< U 7 r OXOXOXo.7 a.y.&         & y.a.e o.oXOXOXr 7 U < <X[.e.>X4.w.9 4.9 O.O.O.9 n.; ; ) d ",
"d : G 5 P.O.'.9 . =X=X=X=X4.e.a 0.0.< U 7 r OXOXOXQ.n = b l         l b * m Q.OXOXOXr 7 U < 0.0.a e.4.=X=X=X=X. 9 '.O.P.: G : d ",
"d G z.G G O.O.. f 4.4.4.4.p ;X1X1X1X< U # % ;.;.;.u p.l u.l         l u.l p.y ;.;.;.% # U < 1X1X<X:Xp 4.4.4.4.O.O f O.G G z.G f ",
"d G G z.z.O.. O.O.>X4.=X=Xw.[.1X1X1X< U | W.X.OXOXr m l u.l         l u.l m r OXOXX.W.| U 1 1X1X1X=Xw.=X=X4.>Xf O.O O.z.z.G G d ",
"$ G : G G $ . 9 p >X4.=X=X=Xw.[.<X<X< L | W.X.OXOX& z & l &         & l & z & OXOXX.W.| L < <X<X[.w.=X=X=X4.>Xp 9 . $ G G 5 G $ ",
"0 G G G G d $   O.>X6.5.  0.0.8.[.a U < W.W.X.OX!.b l u.u.l         l u.u.l b !.OXX.W.W.2 U a [.8.0.0.  5.6.>Xf   $ f G G G G 0 ",
"0 G G G z.d #.  . >X:X5.8.1X1X1X5.2 K X.%.<.j oX7 u.l u.u.b & . . X n u.u.l u.e oXj <.} X.K 4 6.1X1X1X8.5.:X>X    #.d z.G G G 0 ",
"0 G : Z G d 9.$ 1 a 5.<X0.1X1X[.2 L [ W.<.(.<.a u.u.l y.n z = % % = z n u.l u.u.a <.(.<.W.o.U 2 [.1X1X0.<X5.g + $ 9.d G Z : G 0 ",
"0 ; Z ; j.$ p 0 1 L k 0.f 0.8.O I w >.W.<.(.:.u l l & & l z * % % * z l & & l l u :.(.<.W.=.w U O 8.0.f w.k 4 , a 0 @ j.; Z ; 0 ",
"0 C x.x.x.- ; $.g + + K U U L , [ T. .=.<.#X#X:.i.i.i.l M b X % % X c M = i.i.i.:.#X#X<.=.&.R.[ O L U U 2 O O O.$.; ; x.x.x.Z 0 ",
"a Z Z j.x.V V $.5.$.0 $ 7 e # =.T.T.T. .w X.X.8 i.i.i.l M y.= % % z M M l i.i.i.r X.X.w &.T.T.T.=.# 7 e $ 0 $.$.$.V V x.d.Z Z a ",
"0 Z Z Z x.V V s s % % r &. .r [ [ [ [ [ X.W.>.5 / 5 D - / v.K./ / K.v./ : D 5 / 5 >.W.X.[ [ [ [ [ r &.&.r % # s s V V x.Z Z Z s ",
"0 ; C Z Z - $ $.y  .7  .&. .r *.*.t >. .. S S S / : m.S S v.D 5 5 D v.S S m.5 S S S S .  .>.r *.*.r  .&. .r  .q $.$ - Z Z Z ; p ",
"0 $.$.s $.$.$.q  .| r r r r r *.*.t >.t S S S S D : m.S S m.m.D D m.m.S S m.: S S S S / t >.r *.*.r r r r r  . .u $.$.$.s $.$.0 ",
"% s s % $.$.u  . . .y *.*.e > > > - A D c.m.A c.A m.m.S / B B - - B B S S m.m.A c.A c.c.A A - 5 > > e *.&.r  .|  .q $.$.% s s 9 ",
"0 $.$.s $.q  .|  .| o > > > H G H > 5 5 5 - c.c.A 6 B B o k.B     5 k.- 5 B B A c.c.- B 5 v > H G H > > : -  . . . .u $.s $.$.0 ",
":.#X6.>X>X>X>X>X6.>X>X>X>X>X>X>X0.1X1X1X1X1X1X1X0.#X#X#X#X#X#X#X:.1X1X1X1X1X1X1X1X:.#X#X#X#X#X6.>X>X>X>X>X>X>X>X6.>X>X>X>X>X:.:.",
"u :.a 6.6.6.6.6.a 6.6.6.6.6.6.6.f 0.0.0.0.0.0.0.d :.:.:.:.:.:.:.u 0.0.0.0.0.0.0.0.u :.:.:.:.:.a 6.6.6.6.6.6.6.6.a 6.6.6.6.6.u u "
};
