/* XPM */
static char *stained_glass_11626376813[] = {
/* columns rows colors chars-per-pixel */
"64 64 204 2 ",
"   c #020202",
".  c #080505",
"X  c #10030F",
"o  c #0E1D0B",
"O  c #280702",
"+  c #330101",
"@  c #3C0101",
"#  c #2E1502",
"$  c #361F02",
"%  c #132810",
"&  c #183313",
"*  c #1C3A16",
"=  c #3C2A02",
"-  c #3F3102",
";  c #03042A",
":  c #190825",
">  c #090B34",
",  c #1F0738",
"<  c #0F1038",
"1  c #210125",
"2  c #27012D",
"3  c #260937",
"4  c #2F023A",
"5  c #2B0C3C",
"6  c #300A3D",
"7  c #2C1132",
"8  c #1E3934",
"9  c #382635",
"0  c #2D3231",
"q  c #480201",
"w  c #540000",
"e  c #5B0000",
"r  c #431705",
"t  c #4F1A03",
"y  c #630101",
"u  c #6B0101",
"i  c #730101",
"p  c #790101",
"a  c #621602",
"s  c #442406",
"d  c #562102",
"f  c #5A2003",
"g  c #5D2C03",
"h  c #453B0E",
"j  c #6B3C03",
"k  c #793902",
"l  c #580127",
"z  c #530D33",
"x  c #620139",
"c  c #6B083A",
"v  c #6A1E3C",
"b  c #593723",
"n  c #224A1C",
"m  c #265020",
"M  c #295620",
"N  c #2F6224",
"B  c #326E29",
"V  c #37732B",
"C  c #38772F",
"Z  c #347030",
"A  c #775302",
"S  c #7D6002",
"D  c #0D0A4D",
"F  c #190B4E",
"G  c #151840",
"H  c #050652",
"J  c #07095D",
"K  c #2B0C43",
"L  c #360644",
"P  c #2C0C55",
"I  c #3C0C55",
"U  c #281458",
"Y  c #152A40",
"T  c #182840",
"R  c #143540",
"E  c #362C4E",
"W  c #22314B",
"Q  c #150E6C",
"!  c #111565",
"~  c #15196A",
"^  c #1D1F6F",
"/  c #020579",
"(  c #2C0E6B",
")  c #1D2672",
"_  c #352A64",
"`  c #31286A",
"'  c #29297F",
"]  c #29377F",
"[  c #273C7C",
"{  c #410149",
"}  c #481540",
"|  c #450454",
" . c #4D0159",
".. c #6F0C40",
"X. c #6D0058",
"o. c #472A42",
"O. c #4A2E49",
"+. c #4B0F66",
"@. c #540465",
"#. c #5D0171",
"$. c #5C0A75",
"%. c #60006C",
"&. c #6D0375",
"*. c #6D177F",
"=. c #582E7D",
"-. c #164040",
";. c #284C4A",
":. c #29457F",
">. c #294C7F",
",. c #29537F",
"<. c #29637F",
"1. c #256E7F",
"2. c #2A7C7F",
"3. c #534F41",
"4. c #487148",
"5. c #820101",
"6. c #8C0000",
"7. c #930000",
"8. c #980000",
"9. c #A20000",
"0. c #AB0000",
"q. c #B30000",
"w. c #BE0000",
"e. c #802001",
"r. c #803001",
"t. c #803801",
"y. c #9D3304",
"u. c #BF2F00",
"i. c #CB0000",
"p. c #C0020E",
"a. c #D70000",
"s. c #E30000",
"d. c #EF0000",
"f. c red",
"g. c #FF3F00",
"h. c #804001",
"j. c #8B4103",
"k. c #805001",
"l. c #97551F",
"z. c #AA4102",
"x. c #BF4700",
"c. c #A05903",
"v. c #B95604",
"b. c #BF5F00",
"n. c #837306",
"m. c #B17B02",
"M. c #8D6923",
"N. c #FF5F00",
"B. c #D57604",
"V. c #D3791B",
"C. c #FF7F00",
"Z. c #913C78",
"A. c #439337",
"S. c #4B9F3F",
"D. c #56AD4F",
"F. c #BA8F02",
"G. c #FF9F00",
"H. c #ECA403",
"J. c #F8BE03",
"K. c #FFDF00",
"L. c #110E8F",
"P. c #06099F",
"I. c #2A1487",
"U. c #342B90",
"Y. c #171BB0",
"T. c #2A2DA5",
"R. c #2721AC",
"E. c #3533B8",
"W. c #6A0782",
"Q. c #720186",
"!. c #412F9E",
"~. c #326092",
"^. c #3C52BD",
"/. c #3C66BD",
"(. c #3C7BBD",
"). c #2028C8",
"_. c #383CDC",
"`. c #4E3FD6",
"'. c #4E7ED6",
"]. c #4A4BF4",
"[. c #5050FD",
"{. c #506CFC",
"}. c #820084",
"|. c #800090",
" X c #86029F",
".X c #8A00A8",
"XX c #9800B0",
"oX c #9903BE",
"OX c #A221BD",
"+X c #B623D8",
"@X c #B800E0",
"#X c #D52AF8",
"$X c #E078F0",
"%X c #3C93BD",
"&X c #39ABBD",
"*X c #4B96D3",
"=X c #5081FC",
"-X c #5088FC",
";X c #50A4FC",
":X c #50B5FC",
">X c #50C4FC",
",X c #48DCFC",
"<X c #50ECFC",
"1X c #54FCFC",
/* pixels */
"< <  . . . . .2  . . . . . . . .2 ^ ^ ^ ^ ^ < #.#.%.#.#.#.#.#.< ^ ^ ^ ^ ^ ^ ^ 4 #.#.#.#.#.#.#.4  . . . . . . . .2  . . . . .< < ",
"< <  . . . . .2  . . . . . . . .2 ^ ^ ^ ^ ^ < #.#.#.#.#.#.#.#.< ^ ^ ^ ^ ^ ^ ^ 4 #.%.#.#.#.#.#.4  . . . . . . . .2  . . . . .< < ",
"                                                                                                              .                 ",
"  @Xx a v.v.v.o.P {   > / / J / P./ < [.[.' >X>X>X~.;X;X;X,.,.    Y ,.(.;X;X;X<.>X>X<.].[.' ! P.P.H / / /   { P 9 v.v.v.a x @X  ",
"  x i.i.a v.9 _._.>   ; H ; J J H T.^ [.U.< <.%X>XY ,.,.Y   e.e.q e.r   ,.,.,.,.>X<.R ' E.' _.! H J ; H >   < _._.9 v.a i.i.x   ",
"  8.i.a.8.* T._._.^   H L.> P.L.T._.G [ 1.,X,X<.>XR Y q s p e.e.$ e.e.e.r   <.<.>X1.,X,XT [ ^ _.Q Y.H L.L.  ~ _._.T.* 8.i.i.8.  ",
"  %.8.8.M V M T.T.Y   ; H > ! ~ _.T.< [ R &X,X<.%X  u.N.k N.N.N.r.N.N.N.e.g.r R >X1.,X1.< U.> _.T.! ! ; H   Y T.T.M V M 8.8.#.  ",
"  Q.{ * Z V V * ,.,.  ! ).> ! ! < ^ ;X;X;X1.,XR   r p r.r r.s A r t.r k r e.e.  R 1.,X,.;X:X~.T.> ! ! ! ).  ,.,.* V V V * { |.  ",
"  %.(.(.M V M q.q.Y   ! L.< U.' '   ;X(.,.R 1.  r.N.t.C.C.C.t.C.h.C.r.C.G.C.e.N.  R 1.Y ,.;X,.< ' ' ' > ).  Y q.q.M V M (.(.%.  ",
"  (.;X;X(.* q.d.d.p   ! ~ [.[.[ :.:.,.Y ,X,XR   h.h.h.s v.G.t.C.h.G.t.C.t.r t.t.s   &X,X1.,.Y -XG ^.[.' ).  p d.d.q.* (.;X;X(.  ",
"  _ ;X;Xo.a.u d.d.@   T T [.[ -X>.-X,.,.,X&X  $ b.G.C.t.t.k.A n.s A A h G.r.C.C.t.  R ,X1.;X:.-X:./.E.' U.  q d.d.i a.o.;X;X_   ",
"  |._ o.a.a.a.y l {   :.U.< :.R <.-.-.2.2.-.  x.r r.t.r $ K.J.J.S J.K.A k s t.r.r.$   2.2.2.R R <.T Y T -X  { l i a.a.a.o._ |.  ",
"  Q.9 s a.a.a... .L   :.-X:.;X<.>X1.&X&X1X2.  N.k G.k.K.n.A S n.- S S - K.K.h.G.r.r.  1X1X2.,X<.>X,.,.-X-X  L  .x a.a.a.s 9 |.  ",
"  9 A.A.s a...@X@X4   T ,.Y ;XR <.R 1.R &X2.  k.k.k.n.K.n.M.n.n.h n.M.b K.K.s k.k.s   1X-.1.1.Y <.,.,.:.:.  4 @X@Xx a.s A.A.9   ",
"  A.A.A.A.  @X@X@X#.  ,.;X,.;X;X2.<X<X1X&X-.  G.G.G.h , P Q I.P.D L.( J K b A G.G.k.  2.<X<X<X<X,.;X,.;X;X  #.@X@X@X  A.A.A.A.  ",
"  O.A.A.- v.v @X@X4     1.1.1.1.2.&X2.  . .   G.l.7 ^ Q P.Q J H ; H Q L.P., ^ b V.k.      -.2.<XR 1.1.1.R   4 @X@Xv v.h A.A.E   ",
"  @XE - v.v.v.} @.{   <.<.,X,X&X      o M M % ; !.[.`.: L $.Q.XXXX XW.@.K U [.`.!   m m % o     R ,X,X&X%X  { @.z v.v.v.h E @X  ",
"  @Xx a v.v.v.o.P {   <.>X<.&X  o * V * S.4.X `.`._ L #.XXXXXXXXQ.XXXXXXXXL 5 !.[.U O.A.m V C o   R &X%X>X  { P o.v.v.v.a x @X  ",
"  ..i.i.a v.9 _._.<   R <.,.  M V o * % m 4 ( ` 5 $.&.L Q.XXXXXX .XXXXXX|  .&.I ` K ( 0 % * * * V o Y <.<.  < _._.9 v.a i.i.x   ",
"  8.i.i.8.* T._._.^   ,.%X  o * * m m D.8 L.L.L W.W.L |.{  . . .2  . .3 Q.#.@.W.@.P P.J S.N S.o * *   Y ;X  ^ _._.T.* 8.i.i.8.  ",
"  %.8.8.M V M T.T.Y   ,.  & N & A.m m 4.> I.: 4 L : { { 1 XXXXq y X.XX .{ { 1 L L : U Q : N S.n n N N   ,.  Y T.T.M V M 8.8.%.  ",
"  |.{ * V V V * ,.,.      N N & A.% * 3 R.7 $.&. .XXXXXXX.X.X.e 6.l X.l XXXXXXXXL &.I ( I.X * B n N N &     ,.,.* V V V * { |.  ",
"  %.(.(.M V M q.q.Y     o o n o n % 4.I.R.: L L | XXXXXXX.p 6.9.q.8.5.e XXXXXXXX: L 5 F ).K Z m % n % &     Y q.q.M V M (.(.%.  ",
"  (.;X;X(.* q.d.d.p     n & n % N % K ).F W.{ Q.,  . . .l e w y 6.w w w  . . . .{ Q.L L R.I.: Z & n % N o   i d.d.q.* (.;X;X(.  ",
"  _ ;X;XO.a.p d.d.q     N & V V N D.H K 5 W.L | XXXXXX#.@X@X@Xw y &.@X@X@X .XXXXQ.%.4 $.: F m D.* V * N &   q d.d.i a.O.;X;X_ . ",
"  |._ o.a.a.a.i l {     & o V V N 4.Q Q +.&.2 XXXXXXw u y w y i 8.u u w y y X.XXXXQ.L &.P P.K D.* V * & o   { l i a.a.a.o._ |.  ",
"  Q.9 s a.a.a.x  .{     N n o m m % I.J 3 :  . . . .y q.5.e 6.8.q.6.p y 8.9.l  . . .2 L : P.6 M n % & N &   {  .x a.a.a.s 9 |.  ",
"  9 A.A.s a.x @X@X4     N N & S.S.n P.J XXXXXX#.@X@Xe 6.x z Z.y 6.v v &.e 6.&.@X@X .XXXX .P.H S.S.m N N &   4 @X@Xx a.s A.A.9   ",
"  B A.A.B g .X@X@X#.    ! ! > :.U.Y Q G XXXXXX4 #.#.w e &.%.$Xu p Z.=.@Xw y z #.#. .XXXX| ! > :.:.T ! ! >   #.@X@X.Xg B A.A.B   ",
"  .XB B j.v.j..X.X2     ! ! > -X/.R R.~  . . . .XXXXe p x 4 =.e 5.v o.#.e p X.XXXX3  . .4 ).U >.-X:.! ! >   1 .X.Xj.v.j.B B .X  ",
"  @X#.g v.v.v.g L {     ).! {.[ (.~.I.I.$. X|. .XXX.u 9.w XXXXq u X.XXX.i 9.w XXXX{ |.|.L ).K ;X>.^.] ).!   { L g v.v.v.g #.@X  ",
"  .X8.8.j.v.j.T.T.2     ! > {.{.~.W Q R.| Q.%.2 2 l 6.9.e XXX.e 8.l }.X.6.9.e  .X 6 |.|.F ).: ,.^.{.] ! >   1 T.T.j.v.j.8.8..X  ",
"  8.i.i.9.g T._._.~     ).! ] [ T >XK R.: #.K I  .XXe 5.X.XXe q.i.6.X.XXw 5.X.XX: I K @.U I.~.<.[ [ < ).!   ^ _._.T.g 8.i.i.8.. ",
"  l i.i.r C T _._.<     ! > ] {.U.>X_ K P , I I  .XXX.y XXXXX.p 8.w XXXXX.e XXXX2 I I : ( 7 *X<.{.^.< ! >   < _._.T C $ i.i.l   ",
"  |.l $ C V C T [ ,.    J _.^ [ Y <.W F P.: L L  .XX}.+  .2  .w u l 2  .4 l XXXX1 4 2 Q L.: ~.R U.G _.) J   ,.:.T V V V r l Q.. ",
"  |.` ;.V V Z s o.,.    J _.^ {.,.;X;X_ L.Q 5 L 2  .{ |.|  .XXX.w XX .Q.%.#. . .: L 5 P.F '.;X;X:.[ _.^ J   ,.O.d V V V ;.` Q.. ",
"  _ ;X;X;.V r d.d.q     J T.< ] ,.;X;X*XD U 5 @.W.L |.|.|.1 XXXXX.XX .%.|.|.%. .W.K 5 Q _ ;X;X;X< ' < ) J   @ d.d.r V ;.;X;X_   ",
"  (.;X;X(.u q.d.d.p     H T.U.].' < U.G q 4 P.U L |.|.|.|.{ XXXX .XXQ.%.|.|.|.@.L I.L.1 + G U.G ^.[.) ~ J   p d.d.q.u (.;X;X(.  ",
"  %.(.(.9.a.9.q.q.1     L.).U.[.[.G + p f.c ( P.U { Q.|.|.{ { { : { 1 { |.|.&.5 U P.U c f.p @ G ].[.I.).L.  1 q.q.9.a.9.(.(.%.  ",
"  |.{ u a.a.a.i { L     ).).< } @ d.d.@ i i q F P.L.: L Q.{ |.|.{ |.{ { $.K : L.P.F q p p @ d.d.@ } < ).).. { { u a.a.a.u { |.  ",
"  %.Z B 9.a.9..X.X1     ! y 7.w.@ i i i d.d.p p.K P ` `.U.3 K { 1 L K 3 U.`.' P K w.5.d.d.p i i + i.6.y !   2 .X.X9.a.9.B B %.  ",
"  B A.A.B u .X@X@X#.    w.6.e y @ i i q p 6.q 5.p X , U.`.[.[.[.U.].[.[.`.U.: X 5.5.@ 6.p @ i i @ e y 6.w.  #.@X@X.Xi V A.A.B   ",
"  O.A.A.W ).( @X@X6     w.e i.p     L ; J X . 7.d.q.F.M.b K K ] G U K K b l.F.q.d.7.X . H > 6   . p i.e w.  4 @X@X( ).W A.A.O.  ",
"  #XO.R ).).).(  .{     i.e y   +.#X#X! ).Y.!   i A J.J.J.A >X>X>X>X>XS J.J.K.S i   J ).).! #X#X+.  y e i.  {  .( ).).).R O.#X  ",
"  #X=.' ).).).9 z { .   y O   *.+X+.F J 3 I.).L.. $ A j j $ <.<.~.1.<.$ j j j $   L.).I.3 J F +.+X$.  + y   { b 9 ).).).' =.#X  ",
"  =.{.{.' ).9 B.B.$     q.+ . W.7 I : . K P G ! . s B.B.B.j -X-X-X-X-Xj B.B.B.s . ! U L K   : I 5 *.. @ q.  $ B.B.9 ).' {.{.U.  ",
"  ^.{.{.^.m c.B.B.j     q.  E.U.K 7  .2 L K K -X^.. B.B.c.$ -X-X-X-X-X$ c.B.B.. ^.-XK K L 2  .3 K U.E.  q.  j B.B.c.n ^.{.{.^.. ",
"  q.^.^.C S.V c.c.R     q.  ].' J 4 XX . .6 J -X=X  B.B.j j ' ' ' ' ' j j B.B.  -X-XJ 5  . .XX5 ! ' ].  q.  T c.c.C S.C ^.^.q.  ",
"  d.i m S.S.S.m ~.>.    q.  @.L F X  .3 2 : F ) !   c.B.j j [.[.[.[.[.j j B.c.. ! ^ F : 2 3  .X F K @.  q.  ,.,.M S.S.S.m p d.  ",
"  q.F.F.C S.C 0.0.T     q.  Q.oX5 5 Q.@. .I U _.R.  g c.j j ' ' ' ' ' j j c.g . T._.U I @.@.Q.6 K oXQ.  q.  Y 0.0.C S.V F.F.q.  ",
"  F.J.J.F.m 0.s.s.u     e X 2 @X#.5 F J K 7 U._.; . j.j.$ j ).).).).).j $ j.j.. ; _.U.3 K J F 3 $.@X2 . e   i s.s.0.m F.J.J.F.  ",
"  3.J.J.3.[.o.a.s.@     6.u   #.@XQ.~.R ~.>X%X~   j.v.v.t.# ).).).).).# j.v.v.t.  ! %X>X~.R ~.Q.@X&.  i 6.. # s.s.} [.3.J.K.3.  ",
"  ;X3.3.[.[.[.z c *.    6.6..   | @.;X<.>X:X,.  s v.v.v.v.g H H D H H g v.v.v.v.s   ,.:X>X<.;X@.I   . 8.6.  W...} [.[.[.O.3.;X  ",
"  ;Xo.} [.[.[.W O.*.    q @ q y .   L Y [   . k j v.v.v.v.g P.P.P.P.P.g v.v.v.v.g k .   [ R L   . e q @ q   W.o.W [.[.[.} o.;X  ",
"  o.i.i.z [.W V V o     @ q + q t f t t t f g j.t d # d d   H H H H H   d d # d d j.g f t t t f q w O q @   o V C W [.} i.i.o.  ",
"  i.i.i.p.  C V V *     i i i q y.y.y.y.y.y.# r.z.z.d z.z.  / / / / /   z.z.d z.z.r.# y.y.y.y.y.y.r i i i   * V V V   i.i.i.i.  ",
"  o.i.i.z [.W V V o     i i @ t t t t t t O t.z.z.z.d z.z.  / / / / /   z.z.d z.z.z.r.O t t t t t t @ i u . o B V W [.} i.i.o.  ",
"  ;Xo.} [.[.[.W O.W.                                                              .                       . W.O.W [.[.[.} o.;X  ",
"  ;Xo.} [.[.[.W O.W.A B.B.B.d z.z.z.d v.v.g B.B.B.B.j H.A J.J.J.J.J.A H.H.H.A B.B.B.B.B.B.j v.v.v.v.* V V * *.o.W [.[.[.z o.;X  ",
"  o.i.i.} [.W C C o O y y y d z.r.z.# g j.g $ j j $ A A # F.J.- - F.= = m.A # c.B.$ $ c.$ $ j.v.  v.O w q O o V V W [.z p.i.o.  ",
"  8.i.i.8.W.N C V * + y y u d d d z.# # g j.j j j A = A # - J.S F.S = A A A # $ B.j c.j # g g v.# v.O q q O * V C M *.7.i.i.8.  ",
"  B 8.8.OX#XOXM M 1 ^ _._._.d r.k z.d v.j.g g $ c.j m.H.m.A F.F.- A m.m.m.H.m.A c.c.j c.c.g t.v.v.v.< ^ ^ < 1 M M OX#XOX7.8.V   ",
"+ y y y y y u +  . . .2  . .O t t # ^ ^ ^ ^ ^ ^ ^ ^ ^ ^ ^ ^ ^ ^ ^ ^ ^ ^ ^ ^ ^ ^ ^ ^ ^ ^ ^ ^ < d d f ^ _._.^ d d d d d d d d d # ",
"+ y u y u y y +  . . .2  . .  t t O ^ ^ ^ ^ ^ ^ ^ ^ ^ ^ ^ ^ ^ ^ ^ ^ ^ ^ ^ ^ ^ ^ ^ ^ ^ ^ ^ ^ < d d # < ^ ^ < d d d d d d d d d # "
};
