/* XPM */
static char *stained_glass_31626376814[] = {
/* columns rows colors chars-per-pixel */
"64 64 198 2 ",
"   c #020202",
".  c #080D06",
"X  c #06050A",
"o  c #0A1407",
"O  c #0E1C0A",
"+  c #0B0913",
"@  c #02021F",
"#  c #14041B",
"$  c #280E02",
"%  c #2E1502",
"&  c #2E1308",
"*  c #361F02",
"=  c #360C12",
"-  c #11240E",
";  c #142A0E",
":  c #17330F",
">  c #152B12",
",  c #193414",
"<  c #1C3B16",
"1  c #3C2A02",
"2  c #3F3102",
"3  c #030425",
"4  c #04042D",
"5  c #180724",
"6  c #090B33",
"7  c #03043B",
"8  c #170E3D",
"9  c #0F1038",
"0  c #210326",
"q  c #27012D",
"w  c #301425",
"e  c #2F023A",
"r  c #260838",
"t  c #2B0D3C",
"y  c #300C3E",
"u  c #302830",
"i  c #4E0000",
"p  c #540000",
"a  c #5C0000",
"s  c #4F1A03",
"d  c #521E02",
"f  c #630000",
"g  c #6A0000",
"h  c #7A0000",
"j  c #562102",
"k  c #5A2705",
"l  c #5D2C03",
"z  c #453618",
"x  c #692A0C",
"c  c #762603",
"v  c #643403",
"b  c #6B3C03",
"n  c #4C082F",
"m  c #651432",
"M  c #4B2421",
"N  c #1F4317",
"B  c #204218",
"V  c #234B1C",
"C  c #27531B",
"Z  c #29571E",
"A  c #265020",
"S  c #295523",
"D  c #2A5924",
"F  c #2F5731",
"G  c #2F6323",
"H  c #2E6129",
"J  c #336B27",
"K  c #316A2B",
"L  c #37732B",
"P  c #38772F",
"I  c #3C7C2D",
"U  c #714702",
"Y  c #775302",
"T  c #7A5902",
"R  c #7D6002",
"E  c #020345",
"W  c #03044B",
"Q  c #190C4C",
"!  c #151540",
"~  c #151C40",
"^  c #040550",
"/  c #060759",
"(  c #07095D",
")  c #150F54",
"_  c #270A44",
"`  c #2D0E43",
"'  c #350541",
"]  c #380847",
"[  c #3B0B53",
"{  c #291055",
"}  c #152340",
"|  c #152A40",
" . c #2A2B5E",
".. c #060765",
"X. c #111565",
"o. c #15186B",
"O. c #1D1F6F",
"+. c #050777",
"@. c #020579",
"#. c #1A0E72",
"$. c #2C1270",
"%. c #36246A",
"&. c #232477",
"*. c #29297F",
"=. c #29367F",
"-. c #410149",
";. c #460555",
":. c #4D0159",
">. c #530957",
",. c #6D0058",
"<. c #550366",
"1. c #4C1265",
"2. c #5D0171",
"3. c #5C0B74",
"4. c #620578",
"5. c #710975",
"6. c #713D79",
"7. c #29457F",
"8. c #294C7F",
"9. c #29537F",
"0. c #840000",
"q. c #8B0000",
"w. c #980000",
"e. c #A50000",
"r. c #B60000",
"t. c #803102",
"y. c #9D3304",
"u. c #892D19",
"i. c #CB0000",
"p. c #8B4103",
"a. c #924903",
"s. c #9C5C03",
"d. c #815C10",
"f. c #AA4102",
"g. c #A05903",
"h. c #B95403",
"j. c #B95604",
"k. c #B35A1E",
"l. c #9C6710",
"z. c #C05E04",
"x. c #CB6A04",
"c. c #D57604",
"v. c #913C78",
"b. c #3F832F",
"n. c #3E8335",
"m. c #439337",
"M. c #46943A",
"N. c #4B9F3F",
"B. c #479B41",
"V. c #53AF47",
"C. c #56B74B",
"Z. c #5FCF57",
"A. c #BA8F02",
"S. c #E08D03",
"D. c #ECA403",
"F. c #EFAA03",
"G. c #F7BB03",
"H. c #020589",
"J. c #090C8A",
"K. c #06099F",
"L. c #161490",
"P. c #281483",
"I. c #352E92",
"U. c #1217AE",
"Y. c #1E1FAF",
"T. c #0C10B8",
"R. c #2A2CA6",
"E. c #3535B8",
"W. c #6D0486",
"Q. c #680880",
"!. c #730288",
"~. c #4B2DAF",
"^. c #355590",
"/. c #3C4ABE",
"(. c #3C66BD",
"). c #3C7BBD",
"_. c #2024C3",
"`. c #2028C8",
"'. c #383CDC",
"]. c #4E3FD6",
"[. c #4141C2",
"{. c #6254C5",
"}. c #4A4BF4",
"|. c #5050FD",
" X c #506CFC",
".X c #830B8E",
"XX c #800090",
"oX c #83009D",
"OX c #9800B0",
"+X c #9903BE",
"@X c #971AB3",
"#X c #A401C8",
"$X c #B623D8",
"%X c #B800E0",
"&X c #D328F6",
"*X c #E078F0",
"=X c #5088FC",
"-X c #50A4FC",
/* pixels */
"                                                          O - < G O                                                             ",
"                                                      O Z m.< B m.B I <                                                         ",
"                                                  - N B.> D D > S D D D A G                                                     ",
"                                                < > K D D Z.Z.D C.Z.C., H D - O                                                 ",
"                                            o - V.S D D               , S m.A A ,                                               ",
"                                          O M.> >       b g.c.b D.D.Y d       > P H                                             ",
"                                        . V       . % c.c.c.c.b D.D.D.D.Y %       > O                                           ",
"                                            ( J.  t.j.b c.c.c.b D.D.D.D.l j.%   T.J.4 . .                                       ",
"                                        @ T.J.  p.j.j.l Y Y Y 1 D.D.D.Y j.j.j.* 4 T.T.3 .                                       ",
"                                      @ @ ( 4 % k j.j.j.Y D.D.Y D.D.D.1 p.j.p.j   J.T.7 / @                                     ",
"                                  3 H.H.H...  t.j k l b b D.D.Y R R 1 c.g.k t.f.$   E E E E 3                                   ",
"                                6 4 ..H.H.E   d f.f.l c.c.Y D.T G.G.b c.g.t.f.f.j   H.H.H.H.3 9                                 ",
"                              6 '.^ +.E W   $ s j f.u.1 ] &.I.8 ^ ` _ M w f.t.d c   E H.H.W ^ '.6                               ",
"                              '.'.^ K.+./   s y.u.3 0 ].[.I.I.9 ^ X.$.Y.P.' = y.y.  3 7 4 K.^ '.R.                              ",
"                            ( ( / ^ K.K.@.  s w %.[.I.` e Q.oXOXOXW.3.[ 5 ~.I.t c   7 W K.K.^ O.O.9                             ",
"                          ( T.T.T.4 ^       5 #. .r Q.OX:.:.:.:.OXOXOXOX2.` %.].[.X   ^ W K.W T.T.T.4                           ",
"                          J.T.(             6 { 5 :.:.:.q OXOX:.OXOXOX!.] 5.4.y %.            J.T.T.J.  .                       ",
"                        O.O.    d   y.y.w o.  !.OXOX:.OX:.OXOX:.:.:.:.-.!.] Q.4.q 6 ) x y.s % % 4 T.X.9                         ",
"                    ;   O.. % f.j t.c m Q { 5 :.OXOX:.OX:.OX,.f i OXOX5 ;.-.5 ' ' 5 P.` y.d t.t.d & '.O.  -                     ",
"                  V -     t.j.* f.f.d 5 L.;.:.OX:.OX:.OXn ,.n q.p ,.,.,.OXOXOX:.Q.3.w { = c f.j p.z.u R.  ; V                   ",
"                ; m.    p.j.j.j.& f.x #.Q -.q OXOX:.q :.f q.g r.e.q.0.,.OXOXOX:.' ' 5 R.` f.c l z.h.j.&     m.;                 ",
"                K V   * v p.j.Y s.l _ Q ' !.-.OXOX:.%X2.p p i 0.f p a n :.:.:.q XX-.4.) { w g.b h.h.k U     V K                 ",
"              - A >   s.c.b b v c.k.o.o.XXXX-.:.:.q %X2.%X%Xv.a p %X%X%X2.OXOXOX:.] W.` ` M c.g.l d c.c.1   ; A ;               ",
"              N.B.;   c.c.b S.A.U M P.r -.-.0 OXOX,.g f p f f q.g f p f f p OXOXOXq Q.:.#._ b Y D.Y c.c.b   > B.B.              ",
"            ; A A   b c.c.b F.D.D.R `.{ %X%X2.OXOX,.e.w.a h q.r.w.q.f q.r.f <.:.:.:.# e X.( D.D.D.Y c.c.c.    A A >             ",
"          ; B.A Z.  b c.c.v D.D.D.Y `.e 2.e 2.2.e n q.a v.v.m q.a v.n n q.a %X%X2.OXOXOX^ ^ D.D.D.Y c.c.c.    Z.A B.>           ",
"          P B.A Z.  * b 1 Y Y 1 T 2 / 2.%X2.%X%X2.v.0.a 6.6.m 0.a *X2.v.f i 2.2.e OXOXOX9 6 R 2 Y Y Y * b     Z.A N.P           ",
"          A > K K   b c.Y D.F.Y G.d.L.:.%X2.2.2.2.5.a p OXOX,.q.a 6.e n h p OXOX:.:.:.:.o.{ G.R D.D.D.b c.    K K > A           ",
"        P N.A Z.Z.  * c.Y D.F.Y A.z $.] %X2.%X%X2.p e.h ,.OX,.g p OXOXp e.h ,.OX:.!.XX4.P._ R R D.D.D.b g.    Z.Z.A B.P         ",
"      > S A > K K     c.Y D.x.U l.u.&.E -.[ -.q :.p e.q.,.!.n e.p ,.OXa e.q.n q r 2.XX;.E.` c.b Y D.D.b b     K K > A D >       ",
"      n.V.H Z.Z.Z.K   b 1 b l g.c.g._ #.4.XXXX:.OX,.0.p OX,.q.i.r.a OX,.0.p OX:.[ _ 4.5 P.s c.c.v k Y b     K Z.Z.Z.D V.n.      ",
"    > V.V.V., Z.Z.K     k j.j.p.U t.M P.r XXXX:.OXOXa n :.:.p w.h ,.OXOXp ,.OX:.[ [ r { %.u.l v j.j.j.  .   K Z.Z., V.V.V.>     ",
"    D V.V.D C.K Z.B.    % j.j.p.c f.m 5 I.<.XX>.OXOXn XXOXOX,.g i :.q :.$ v.OX:.y y 0 #.5 f.f.l j.j.p.      B.Z.H C.D V.V.D     ",
"    V.V.D D D > Z.Z.  9 R.% p.t.f.f.s w {.-.!.e 2.2.q OXOXOX;.p ,.OX:.;.XX:.:.q e y #._ u.d f.f.j p.9 R.    Z.Z., F D D V.V.    ",
"  - B , V.V.V.D K K , X '.O.  j f.k y.u.I.].] 3.%Xe :.:.:.-.XX>.OXOX0 XXXXXX' Q.<.y $.w y.s f.c %   '.O.  , K H D V.V.V.> N -   ",
"  D n.D V.n.D > K K ,   O.J.J.    % s s & ].{ ] >.OXOXOXOX0 ' 5 OXOX-.XXXXoX!.' r +.e d s s     4 T.X.9 X < H K > D n.V.D b.H   ",
"  b.b.D n.- V.V.V.K Z., 4 T.T.T.4           X $.y 4.OXOXOX' 4.' -.-.;.!.XX!.-.{ @.            J.T.T.J.  , Z.K V.V.V.- n.D b.b.  ",
"  < < > G N V.V.V.K Z.B.  J.T.T.( K.+.^ 4   # J._.$._ 4.OX' Q.' XXXX-.5.] 5 L.K.)     ^ ^ K.^ T.T.T.4   B.Z.K V.V.V.B G > < <   ",
"  L S G n.N V A V K Z.Z.,   O.O.9 K.K.+./   s u { L.o.#.Q ] ' 5 -.` r I.}.1.Q ` c   7 E K.K.^ O.O.9   , Z.Z.K V V B N b.G S L   ",
"  Z , O N - n.n.M.H Z.Z.B.> 9 '.O.K.+.@ E   s y.u.5 r #.K.K.K.^ |.|.|.].I._ = y.y.  3 7 4 K.^ '.R.  > B.Z.Z.K M.m.m.O < O : S   ",
"  V G : L Z < < ; V V ; P P   R.O.+...H.H.  $ s j f.u.1 _ _ Q 4 P.` ` M w f.t.j c   E H.H.W W '.9   P P - V V ; < < S L , G V   ",
"  ; G , L L L L V m.K V N.N.>   9 ..H.H.H.E   j f.f.v c.c.b S.b G.G.b S.g.t.f.f.j   H.H.H.H.3 9   > N.N.V J m.V L L L L : G :   ",
"  C ; , , o B B B J J m.V N.A P   E E E E 3   c j k l b b S.F.b R R 2 c.g.l c f.%   E E E E 3   P A N.V m.L J B B B O , , ; C   ",
"  C C O G : I m.; ; m.m.M.V > A -   7 @.( T.6 % k j.j.j.b D.F.b D.D.D.* p.j.a.j   J.T.7 @.@   - A > V m.m.m.- - b.b.: H O C C   ",
"  C ; G G , m.I I < V B V V A B.V K   @ ( T.J.  p.j.j.l b v b * D.D.D.Y j.j.j.% 4 T.T.W 3   J B N.A V V B V B I b.b.: G G : C   ",
"  - - o ; o m.I m.B m.L , F A A ; S V     ( T.(   p.j.l x.x.x.l D.D.D.D.l j.%   T.T.(     V F - A A D u L m.B m.b.b.o ; o O -   ",
"  B < - C ; ; ; > X .       5 r ] X   s       4     % z.c.D.S.l b b b b *   . @ (       d   X ' q 5       . X ; , : ; C - N B   ",
"  - - o C ; Z -     d c # @X&X5.&X&X1.  c d             v a.x.l c.c.b *             d c   1.&X&XQ.&X@X# c d     - Z ; C o O -   ",
"  : : O C -     k h.t.5 $X.X` X.Q 1.$X3.. t.h.k                                 k h.c   3.$X1.Q X.t .X$X# t.j.k     - V O : :   ",
"  : : o . X a.b l k   ] 1.] t   # [ t 5.. . l l b p.X V J N ,     < < K V X p.b l v     5.t [ 5   ` [ 1.]   l l b a.X . o : :   ",
"  : O   % v c.U c.l 6 |.t ` ] q :.r ` I.E.  k c.b c.v * O L L     J L o * v c.b c.l   E.I.` r :.q ] ` t |.6 l c.b c.v &   O :   ",
"  O   % b c.* T T X &.|.( t :.:.OXy ..*.}.  X R Y * c.b % o J     J O % b c.1 T R X   }.=.X.e OX:.;.t ( |.&.X T T 1 c.b %   O   ",
"    * x.1 Y Y U G.  q 2.Q 5 q q :.# Q ' <.    G.U Y Y 1 c.% o     O % x.1 Y Y U G.    <.' ) # :.q q 5 Q 2.q   G.U Y Y 1 c.%     ",
"  % j.a.1 Y s.S.U   # %X;.[ 1.1.W.t t +XW.    U S.s.Y 1 a.j.%     % j.a.1 Y s.S.U     !.+Xt t W.<.1.[ ;.%X#   U S.s.Y 1 a.j.%   ",
"  d $           l   X oX+Xt ` ( Q r 3.%Xq +   l           $ j     d %   X       l   + q %X3.r Q ( ` t #XoX.   l           $ s   ",
"    X ) U.X._.8 X   X 5 #X%X .} ^.W.%X4.  +   8 X.X._.L.4             4 L.Y.X.X.!   +   2.%XW.^.|  .%X#X# X   X 9 `.X.U.) X     ",
"  4 W 4 X.6 '.*.}.X X   # oX9.9.-X<.;.  X X &.|.O.O.X.6 ^ W X     X ^ ^ 6 X.O.O.|.&.. X   ;.<.-X^.^.!.#   X X }.I.'.6 X.4 ^ 3   ",
"  / K.^ `.9 O.*.|.*.~       ^.%.{.|       /.=.|.9 O.X.X.K.+.4     4 +.K.X.X.O.9 |.*./.      | {.%.^.      8 =.|.&.O.9 `.^ K./   ",
"  T.4 W `.O.'.! *.7. X} } 7.-X^.-X9.(.  /. X8 &.O.'.X.X.+.( (     ( ( +.X.X.'.O.*.~  X/.  (.9.-X9.-X7.} 8  X=.=.9 '.O.`.^ 3 T.  ",
"  T.X.X.X.9 O.! *.8 =.8 7.7.9.| 9.| =X  =.=.9 I.9 O.6 o.L.( (     ( ( L.X.6 O.9 *.~ =.=.  =X| 9.| 9.7.8.| I.9 =.~ O.9 X.X.X.T.  ",
"  T.X.`.`.O.'.=. X X X7.} } 9.| 9.| 7.   X X X XO.'.X.`.`.( (     ( ( `.`.X.'.O. X X X X  7.| 9.| 9.} } I. X X X=.'.O.`.`.X.T.  ",
"  ( 6 X.X.O.R.*.*.~ =.8 7.=X8.9.).(.=X  7.I.8 *.&.'.6 X.X.4 4     4 4 X.X.6 '.&.*.8 =.=.  =X(.).9.8.=X7.8 =.| &.*.R.O.X.X.6 (   ",
"  T.( `.`.9 E.|.|.=. X=.7.8.-X9.-X).(.   X X=.|.|.&.X.`.X.T.(     ( T.X.`.X.&.|.|.*. X X  (.).-X9.-X8.7.=. X=.|.|./.9 `.`.( T.  ",
"            .                                                   o                                                               "
};
