/* XPM */
static char *result[] = {
/* columns rows colors chars-per-pixel */
"64 64 67 1 ",
"  c black",
". c #332B13",
"X c #3F2F17",
"o c #470000",
"O c #4F0000",
"+ c #530707",
"@ c #5B0707",
"# c #5F0707",
"$ c #670B0B",
"% c #6B0F0F",
"& c #731313",
"* c #771717",
"= c #7F1B1B",
"- c #43331B",
"; c #4B371B",
": c #533F1F",
"> c #5F4323",
", c #6B4727",
"< c #7F532F",
"1 c gray28",
"2 c gray31",
"3 c gray34",
"4 c #5B5B5B",
"5 c gray39",
"6 c gray42",
"7 c #6F6F6F",
"8 c #777777",
"9 c gray50",
"0 c #831F1F",
"q c #8B2323",
"w c #8F2B2B",
"e c #972F2F",
"r c #9B3333",
"t c #A33B3B",
"y c #A73F3F",
"u c #9B5B13",
"i c #8F5F37",
"p c #A36B3F",
"a c #AF4747",
"s c #B34F4F",
"d c #BB5757",
"f c #BF5B5B",
"g c #C76363",
"h c #CB6B6B",
"j c #D37373",
"k c #DB7B7B",
"l c #C39B2F",
"z c #CF8353",
"x c #E79B6B",
"c c #FFFF73",
"v c #838383",
"b c #8B8B8B",
"n c #939393",
"m c #979797",
"M c #9F9F9F",
"N c gray67",
"B c gray70",
"V c #B7B7B7",
"C c gray75",
"Z c #DF8787",
"A c #E78F8F",
"S c #EB9797",
"D c #F3A3A3",
"F c #F7ABAB",
"G c #FFB7B7",
"H c #CBCBCB",
"J c gray86",
/* pixels */
"                                                                ",
"                                                                ",
"                                                                ",
"                                                                ",
"                                                                ",
"                                                                ",
"                                                                ",
"                                                                ",
"                                                                ",
"                                                                ",
"                                                                ",
"                            yrw=                                ",
"                            yjje                                ",
"                         hkkdSZgZkh                             ",
"                        kZggedyyhjZkjghjjh                      ",
"                     hjkhgffeSZdgghhhfffdfggjh                  ",
"                 hjggfdsffff0gjdghkjhhgffghgffhg                ",
"               ghffghgfsghkk0yyyZSSAkkkhaghhjhfs                ",
"               sfhjhhgafkkkkgtShSFDSASZkydgjkjhss               ",
"              sshjkjgdyhZSZZfedkADSAADSjyafhjkjsy               ",
"              ysjkjhfaygSDSSgeyyAAAAASkgtyadfggy=               ",
"              =yggfdaytakSZZh0AfZkkhdssyrttyyyt0%               ",
"              %0tyyyttreshgggeyyZhfsyrw=etrew0%+$               ",
"              $$qwwerteqwyddht0wZjdsww00rtw0=%+$                ",
"               &$$%&=wtw==wdhh=SZaZjfdsydbv9+$*rr               ",
"              r=*$$@@asddghjkZ0ssssjjhgfnCVJM*wrw               ",
"              tw&*#8mmgaZSAAZZyZZgfjkZAA332bM=qt0               ",
"              tt0#nBJHeaAFGGSZhtfghkSFFShe@%&=rr&               ",
"              rr0N9543etkADFFSfftfdSFDSkd%##=wtqw               ",
"              wr#77%#&=adkkkkkssyhykkjgsdO@#*wq=r               ",
"              rqq##@#$&y0rdgggssthtdstr*tO+#%*=#                ",
"              w&*#+++$$=%XXqtssyqswyw0$>wOO++O##                ",
"             rq&&O++O#*$r%ucl=0%@qqw%lc<wOO$$@%w                ",
"             yrwq&@$O #*=ryixi:%@O&wixzy%O$*qrssr               ",
"             ayddaqq$  $$=erdhyw+O#0ryyq@0&q0djfr               ",
"             asjjgayw0 #0&&0wr*##+O@$$&& =eetjkfa               ",
"             rajkjsgr=  &$$$$##0rr0$*&== 0ytgZkfr               ",
"             qrgkZgky0 *+*0*=w=$$..$XX@q$qsgZkgt*               ",
"             =rtgkZksq**+*q000>>$,,$--*r$0gjZgy*$               ",
"              qrygZZg0&++$q0wOOoOoOOOO0r$wdjAgr*@               ",
"               qegkAjw$+++q0wOOOOOOOOOwrykAZjsr@                ",
"               =rsggZgse++=qwOOOOOOOOOqrkAjdsgr                 ",
"                rgsdgjZy++&qrOOO***OOOqaggerjgr                 ",
"                rgjsZgaZ++&0yO$=000*$Owsgtr0gar                 ",
"                rsgjjjds++&qdO=ww00**Oqgyajjdte                 ",
"                etdgyyaa++&0dOwqq0***Owdwyssyae                 ",
"                ergeeee=++%ed*xqq0*$x*rw=tssdq                  ",
"                 qqqqq&=+$&ad=p>q0$>p=t$wwttwa                  ",
"                  wqq&**@&*sgy,;z>z;,rs&ystefh                  ",
"                   q&*00*% *js;>rar>;sd&sdsekh                  ",
"                   q==qw&%  yfgfdsdfgjdqfgdyga                  ",
"                   q==qw=&   yfjkAAjhd$rgjftat                  ",
"                    w0qw=q     yfgfe@&qrhkfrye                  ",
"                     qwr0            eqrjZdtt                   ",
"                     qeyq            wqtkAfye                   ",
"                   teersr            qqrZSgy                    ",
"                600qerawytq0%5        rtkkkd                    ",
"               650rqww8vwwt&*35       raASkh                    ",
"                    =2682=         7gyeddadkhd7                 ",
"                    *2462*       975syyg8v8agd579               ",
"                     2222       9753sray6864ys3579              ",
"                                7531wrww4642qt1357              ",
"                                        2423                    ",
"                                                                "
};
